<?xml version="1.0" encoding="utf-8"?>
<!-- Generator: Adobe Illustrator 16.0.0, SVG Export Plug-In . SVG Version: 6.00 Build 0)  -->
<!DOCTYPE svg PUBLIC "-//W3C//DTD SVG 1.1//EN" "http://www.w3.org/Graphics/SVG/1.1/DTD/svg11.dtd">
<svg version="1.1" id="Layer_1" xmlns="http://www.w3.org/2000/svg" xmlns:xlink="http://www.w3.org/1999/xlink" x="0px" y="0px"
	 width="300px" height="300px" viewBox="0 0 300 300" enable-background="new 0 0 300 300" xml:space="preserve">
<g>
	<path fill-rule="evenodd" clip-rule="evenodd" d="M25.738,147.067c-4.109-14.612-8.25-29.215-12.319-43.837
		C9.633,89.627,5.929,76.002,2.179,62.39c-3.288-11.933-2.095-23.252,5.002-33.424c6.846-9.81,18.484-14.261,28.822-11.568
		c9.812,2.556,19.569,13.854,20.257,25.795c0.453,7.849-0.402,16.234-2.71,23.712C45.234,93.84,36.054,120.492,27.2,147.25
		C26.712,147.189,26.225,147.128,25.738,147.067z"/>
	<path fill-rule="evenodd" clip-rule="evenodd" d="M273.851,147.022c-4.771-14.393-9.541-28.786-14.313-43.179
		c-4.575-13.802-9.223-27.581-13.709-41.413c-3.433-10.58-2.364-20.889,2.678-30.666c5.64-10.938,15.685-16.212,27.096-14.59
		c10.251,1.458,20.937,11.427,23.129,23.022c1.178,6.241,1.81,13.254,0.273,19.265c-7.489,29.294-15.791,58.367-23.806,87.518
		C274.75,146.996,274.3,147.009,273.851,147.022z"/>
	<path fill-rule="evenodd" clip-rule="evenodd" d="M245.311,186.173c5.422,22.625,10.318,43.272,15.342,63.889
		c1.818,7.461,3.31,14.757,0.521,22.413c-3.875,10.634-10.758,16.123-20.371,15.554c-8.389-0.493-16.186-7.705-17.968-17.794
		c-0.874-4.944-1.234-10.563,0.152-15.255c6.463-21.869,13.614-43.521,20.535-65.246
		C243.717,189.126,244.092,188.579,245.311,186.173z"/>
	<path fill-rule="evenodd" clip-rule="evenodd" d="M59.736,186.789c4.401,13.848,8.525,26.753,12.605,39.677
		c2.691,8.524,5.411,17.041,7.96,25.61c3.271,11.001,2.489,21.387-5.456,30.183c-5.058,5.601-11.57,7.277-18.56,4.959
		c-8.543-2.833-12.884-9.782-14.285-18.467c-0.7-4.343-0.809-9.116,0.169-13.362c5.021-21.794,10.475-43.48,15.814-65.194
		C58.189,189.369,58.77,188.642,59.736,186.789z"/>
	<path fill-rule="evenodd" clip-rule="evenodd" d="M148.892,38.954c0.008,5.394,0.154,10.793-0.028,16.18
		c-0.229,6.829-2.945,9.965-9.582,10.299c-7.4,0.374-14.846,0.392-22.244,0.01c-5.823-0.299-9.179-3.906-9.233-10.072
		c-0.096-10.788-0.333-21.59,0.073-32.361c0.466-12.356,9.948-22.013,20.732-21.868c10.85,0.146,19.704,9.802,20.236,22.306
		C149.067,28.606,148.884,33.785,148.892,38.954z"/>
	<path fill-rule="evenodd" clip-rule="evenodd" d="M193.076,39.183c0,5.393-0.056,10.788,0.013,16.179
		c0.082,6.401-3.364,9.75-9.112,10.055c-7.611,0.404-15.285,0.436-22.888-0.072c-5.701-0.38-9.03-3.802-8.941-10.233
		c0.145-10.56-0.094-21.125,0.073-31.685c0.198-12.458,9.736-22.495,20.887-22.289c10.786,0.199,19.728,10.251,19.953,22.54
		C193.156,28.845,193.077,34.015,193.076,39.183z"/>
	<path fill-rule="evenodd" clip-rule="evenodd" d="M218.74,85.31c-6.835-12.583-13.175-23.58-18.851-34.929
		c-4.052-8.101-4.202-16.918-1.591-25.605c2.973-9.895,10.449-15.653,19.758-15.611c9.429,0.042,17.952,7.092,21.169,18.004
		c2.483,8.42,2.667,17.088-1.453,24.935C232.093,62.921,225.664,73.321,218.74,85.31z"/>
	<path fill-rule="evenodd" clip-rule="evenodd" d="M82.489,85.411c-6.478-10.994-12.533-20.6-17.921-30.586
		c-6.188-11.472-6.048-23.297,0.555-34.59c4.781-8.179,11.946-12.27,21.476-10.929c7.54,1.061,15.138,8.036,16.386,17.112
		c0.945,6.875,1.502,14.859-0.982,20.962C96.762,60.259,89.414,72.228,82.489,85.411z"/>
	<path fill-rule="evenodd" clip-rule="evenodd" d="M183.667,271.528c0,4.48,0.326,8.99-0.07,13.433
		c-0.738,8.236-7.013,14.438-14.427,14.783c-7.635,0.354-14.977-5.689-15.629-14.148c-0.703-9.13-0.451-18.362-0.208-27.538
		c0.118-4.45,2.924-6.758,7.377-6.729c5.004,0.037,10.013,0.098,15.013-0.043c5.515-0.154,7.995,2.745,8.103,8.141
		c0.081,4.032,0.017,8.067,0.017,12.102C183.785,271.528,183.726,271.528,183.667,271.528z"/>
	<path fill-rule="evenodd" clip-rule="evenodd" d="M120.24,271.771c-0.005-4.257-0.031-8.518,0-12.773
		c0.037-4.799,2.143-7.636,7.064-7.652c5.439-0.018,10.879-0.059,16.318,0.029c4.461,0.068,6.91,2.612,6.978,7.114
		c0.132,8.737,0.357,17.499-0.09,26.216c-0.449,8.733-7.652,15.335-15.498,15.048c-7.976-0.293-14.349-7.071-14.736-15.882
		C120.1,279.847,120.247,275.806,120.24,271.771z"/>
	<path fill-rule="evenodd" clip-rule="evenodd" d="M102.278,236.554c4.817,10.717,9.946,21.304,14.256,32.233
		c1.254,3.185,0.784,7.485,0.03,11.033c-1.893,8.921-6.643,13.417-13.662,13.96c-7.563,0.586-14.375-3.6-16.527-12.286
		c-1.436-5.786-1.873-12.871,0.083-18.287c3.352-9.291,8.926-17.73,13.566-26.526C100.775,236.639,101.526,236.596,102.278,236.554z
		"/>
	<path fill-rule="evenodd" clip-rule="evenodd" d="M202.897,234.987c5.461,10.057,10.479,17.985,14.205,26.515
		c3.971,9.095,3.421,18.362-2.999,26.538c-4.134,5.269-9.557,6.845-15.803,5.257c-5.899-1.497-9.53-5.973-10.531-11.66
		c-0.898-5.105-1.418-11.1,0.338-15.714C191.944,255.829,197.333,246.365,202.897,234.987z"/>
</g>
<g>
</g>
<g>
</g>
<g>
</g>
<g>
</g>
<g>
</g>
<g>
</g>
</svg>
