<?xml version="1.0" encoding="utf-8"?>
<!-- Generator: Adobe Illustrator 16.0.0, SVG Export Plug-In . SVG Version: 6.00 Build 0)  -->
<!DOCTYPE svg PUBLIC "-//W3C//DTD SVG 1.1//EN" "http://www.w3.org/Graphics/SVG/1.1/DTD/svg11.dtd">
<svg version="1.1" id="Layer_1" xmlns="http://www.w3.org/2000/svg" xmlns:xlink="http://www.w3.org/1999/xlink" x="0px" y="0px"
	 width="300px" height="300px" viewBox="0 0 300 300" enable-background="new 0 0 300 300" xml:space="preserve">
<g>
	<path fill-rule="evenodd" clip-rule="evenodd" d="M90.383,84.757c-0.166,2.37-0.384,4.738-0.486,7.112
		c-0.129,3.027,0.069,6.087-0.295,9.082c-0.548,4.511-2.969,8.232-5.712,11.746c-2.898,3.714-5.769,7.449-8.638,11.184
		c-0.389,0.506-0.702,1.072-0.872,1.931c1.117-0.481,2.254-0.925,3.351-1.45c8.156-3.903,16.004-8.273,22.284-14.966
		c5.05-5.381,8.645-11.725,11.789-18.315c2.875-6.028,5.673-12.106,8.171-18.297c4.012-9.942,10.685-17.651,19.244-23.853
		c7.244-5.248,14.862-9.87,23.163-13.285c0.098-0.041,0.227-0.005,0.741-0.005c-1.128,1.237-2.056,2.291-3.022,3.31
		c-0.976,1.031-2.003,2.012-2.98,3.041c-5.076,5.347-9.968,10.835-13.329,17.494c-2.618,5.188-4.175,10.686-4.584,16.462
		c-0.377,5.333-0.467,10.684-0.759,16.024c-0.121,2.199-0.437,4.387-0.698,6.903c2.545-1.967,4.816-3.824,7.191-5.535
		c4.154-2.995,8.412-5.849,12.556-8.856c8.329-6.043,14.186-13.983,17.906-23.551c3.057-7.862,6.685-15.425,12.229-21.89
		c4.905-5.718,10.579-10.592,16.834-14.77c5.429-3.625,10.924-7.168,17.126-9.383c1.514-0.542,3.128-0.805,4.696-1.196
		c0.078,0.158,0.156,0.316,0.234,0.474c-1.599,1.334-3.174,2.701-4.802,3.997c-5.777,4.6-9.816,10.557-13.272,16.963
		c-3.192,5.914-4.547,12.412-5.672,18.932c-0.824,4.788-1.233,9.647-1.819,14.476c-0.034,0.287-0.004,0.582-0.004,1.387
		c1.389-2.099,2.51-3.82,3.658-5.524c6.177-9.162,14.51-15.896,24.209-20.925c6.917-3.588,14.108-6.647,21.104-10.097
		c10.652-5.253,19.81-12.52,27.643-21.402c2.87-3.256,5.288-6.911,7.913-10.383c0.277-0.365,0.551-0.732,1.286-1.038
		c0,0.809,0.124,1.641-0.021,2.424c-2.135,11.602-6.275,22.406-12.741,32.317c-4.115,6.307-8.793,12.14-14.274,17.291
		c-4.418,4.153-9.249,7.884-13.488,12.205c-9.461,9.645-15.59,21.204-18.65,34.372c-1.298,5.586-2.564,11.179-3.837,16.77
		c-0.073,0.324-0.063,0.667,0.287,1.444c3.679-2.239,7.46-4.326,11.018-6.747c7.638-5.202,11.711-12.999,14.848-21.351
		c2.523-6.724,5.026-13.438,10.083-18.772c7.176-7.57,15.66-13.049,25.783-15.833c0.61-0.168,1.258-0.205,1.961-0.313
		c-2.294,2.082-4.635,3.935-6.657,6.086c-7.242,7.706-11.764,16.725-13.057,27.332c-0.751,6.156-1.451,12.365-2.882,18.382
		c-2.216,9.33-6.82,17.632-12.965,24.954c-4.202,5.007-8.839,9.65-13.321,14.417c-3.504,3.727-7.364,7.163-10.535,11.149
		c-4.119,5.182-6.652,11.289-8.746,17.568c-1.869,5.599-3.901,11.143-6.023,17.161c2.434-1.775,4.897-3.144,6.824-5.057
		c5.943-5.903,11.638-12.055,17.514-18.024c3.142-3.192,6.368-6.315,9.721-9.282c5.733-5.071,11.677-9.905,18.423-13.604
		c2.969-1.629,6.092-2.976,9.436-4.137c-1.563,1.903-3.063,3.866-4.703,5.701c-9.237,10.332-16.023,22.204-21.842,34.685
		c-3.422,7.339-6.811,14.687-11.665,21.245c-7.266,9.814-16.57,17.101-27.423,22.559c-7.392,3.713-14.744,7.514-22.044,11.405
		c-4.491,2.396-8.418,5.592-11.911,9.303c-0.234,0.246-0.426,0.535-0.842,1.067c2.896-0.7,5.454-1.458,8.069-1.91
		c3.342-0.576,6.718-1.013,10.094-1.315c8.301-0.742,16.732-0.283,24.857-2.547c3.642-1.018,7.166-2.45,10.962-3.546
		c-1.095,1.041-2.172,2.099-3.288,3.114c-8.338,7.601-17.495,13.828-28.366,17.313c-5.791,1.858-11.787,3.415-17.157,6.152
		c-6.356,3.237-12.179,7.538-18.154,11.497c-7.887,5.225-15.435,10.999-24.11,14.942c-11.861,5.39-24.272,8.269-37.347,8.464
		c-11.208,0.165-22.151-1.258-32.857-4.533c-11.536-3.529-21.728-9.444-30.686-17.49c-10.223-9.181-17.564-20.274-21.881-33.338
		c-2.732-8.265-3.525-16.802-3.033-25.42c0.754-13.199,4.194-25.84,8.62-38.235c5.585-15.639,12.771-30.492,22.035-44.292
		c6.386-9.512,14.053-17.858,23.217-24.798c3.61-2.734,7.196-5.512,10.648-8.44c4.438-3.765,6.957-8.993,10.078-13.758
		c1.023-1.563,2.174-3.042,3.266-4.561C90.128,84.632,90.256,84.695,90.383,84.757z M117.532,105.903
		c-0.678,2.137-1.22,3.901-1.799,5.653c-1.027,3.105-1.645,6.442-3.201,9.258c-4.527,8.193-11.125,14.286-19.625,18.414
		c-10.144,4.926-18.841,11.761-25.832,20.687c-2.15,2.746-4.382,5.429-6.393,7.912c0-2.116-0.033-4.406,0.007-6.695
		c0.078-4.396-0.093-8.822,0.399-13.172c0.333-2.938,1.626-5.767,2.509-8.712c-0.222,0.181-0.461,0.331-0.646,0.533
		c-3.299,3.614-6.807,7.064-9.852,10.883c-11.457,14.371-20.627,30.07-26.839,47.424c-4.77,13.327-6.891,26.949-4.225,41.025
		c2.749,14.52,9.548,26.727,20.987,36.256c12.2,10.161,26.807,13.794,42.086,15.454c4.013,0.434,8.139,0.355,12.167-0.005
		c5.541-0.498,11.08-1.271,16.543-2.326c7.855-1.513,15.343-4.319,22.586-7.658c4.646-2.14,9.055-4.792,13.569-7.215
		c-0.087-0.202-0.174-0.401-0.262-0.602c-7.685,1.702-15.378,3.222-23.518,1.261c7.081-4.069,12.978-9.13,18.438-14.652
		c7.85-7.938,15.422-16.15,23.18-24.183c7.312-7.57,15.229-14.425,24.251-19.92c1.619-0.985,3.314-1.851,5.119-2.853
		c-0.321-0.156-0.375-0.204-0.418-0.199c-1.387,0.211-2.778,0.393-4.159,0.649c-9.457,1.757-18.579,4.588-26.867,9.525
		c-4.58,2.728-8.76,6.126-13.154,9.174c-2.222,1.543-4.52,2.978-6.783,4.462c0.003-0.627,0.229-0.958,0.458-1.284
		c2.13-3.028,4.427-5.954,6.362-9.103c3.673-5.979,7.51-11.803,12.358-16.931c5.998-6.345,13.08-11.312,20.189-16.253
		c9.439-6.563,17.086-14.596,20.897-25.694c1.755-5.111,3.227-10.32,4.825-15.486c-0.598-0.053-0.761,0.034-0.85,0.168
		c-6.779,10.087-15.675,17.859-26.359,23.498c-7.36,3.886-14.989,7.264-22.461,10.942c-5.396,2.662-10.615,5.594-14.145,10.735
		c-0.412,0.602-0.864,1.176-1.576,2.141c2.673-10.676,9.882-20.927,18.055-27.279c7.665-5.961,15.546-11.643,23.36-17.409
		c7.098-5.238,11.876-12.109,14.781-20.396c2.829-8.068,3.575-16.566,5.29-24.863c1.349-6.521,3.098-12.87,6.77-18.528
		c1.07-1.647,2.168-3.276,3.502-5.29c-0.982,0.342-1.522,0.502-2.039,0.717c-0.756,0.313-1.531,0.604-2.234,1.012
		c-5.433,3.154-9.541,7.603-12.778,12.947c-3.145,5.193-4.639,10.995-6.343,16.721c-2.462,8.269-6.236,15.691-13.048,21.321
		c-5.222,4.315-11.12,7.427-17.244,10.178c-3.557,1.597-7.137,3.138-10.707,4.703c-0.106-0.528-0.027-0.732,0.107-0.892
		c3.668-4.389,7.306-8.804,11.025-13.147c3.472-4.052,6.656-8.294,8.142-13.489c1.255-4.39,2.211-8.865,3.257-13.312
		c1.92-8.155,4.548-16.007,9.607-22.838c0.818-1.104,1.662-2.188,2.68-3.525c-0.587,0.056-0.836,0.02-1.03,0.106
		c-4.73,2.089-8.982,4.934-12.592,8.611c-4.518,4.603-8.293,9.829-11.413,15.453c-5.603,10.094-13.224,18.065-23.401,23.615
		c-8.403,4.585-16.708,9.349-25.054,14.038c-5.581,3.137-10.836,6.682-14.8,11.842c-0.083,0.108-0.289,0.121-0.674,0.271
		c0.363-0.921,0.556-1.714,0.958-2.382c2.141-3.57,4.191-7.208,6.542-10.639c3.551-5.186,7.647-10.022,10.928-15.366
		C122.078,123.163,121.852,114.738,117.532,105.903z"/>
	<path fill-rule="evenodd" clip-rule="evenodd" d="M109.885,179.283c4.66-3.842,9.806-8.043,14.903-12.301
		c4.434-3.706,8.827-7.458,14.06-10.037c0.504-0.248,1.023-0.464,1.609-0.59c-6.593,7.022-10.167,15.932-15.352,23.801
		c-4.074,6.182-8.429,12.175-12.651,18.26c-0.709,1.02-1.383,2.064-2.301,2.939c4.995-1.75,9.916-4.204,15.279-6.875
		c1.824,3.725,3.896,7.341,5.408,11.176c2.921,7.415,3.568,15.257,2.947,23.107c-0.844,10.644-5.078,20.026-11.742,28.323
		c-8.379,10.437-19.382,16.526-32.476,18.356c-14.76,2.062-28.009-1.821-39.477-11.61c-9.784-8.352-15.1-19.146-16.912-31.561
		c-2.348-16.081,1.995-30.363,13.044-42.506c8.074-8.871,17.957-14.47,29.707-16.649c7.873-1.46,15.674-0.691,23.247,1.855
		C102.543,176.104,105.779,177.616,109.885,179.283z"/>
</g>
<g>
</g>
<g>
</g>
<g>
</g>
<g>
</g>
<g>
</g>
<g>
</g>
</svg>
