<?xml version="1.0" encoding="utf-8"?>
<!-- Generator: Adobe Illustrator 16.0.0, SVG Export Plug-In . SVG Version: 6.00 Build 0)  -->
<!DOCTYPE svg PUBLIC "-//W3C//DTD SVG 1.1//EN" "http://www.w3.org/Graphics/SVG/1.1/DTD/svg11.dtd">
<svg version="1.1" id="Layer_1" xmlns="http://www.w3.org/2000/svg" xmlns:xlink="http://www.w3.org/1999/xlink" x="0px" y="0px"
	 width="300px" height="300px" viewBox="0 0 300 300" enable-background="new 0 0 300 300" xml:space="preserve">
<g>
	<path fill-rule="evenodd" clip-rule="evenodd" d="M129.697,110.604c-7.443,0-14.531,0.035-21.617-0.01
		c-6.513-0.041-13.025-0.225-19.538-0.236c-3.767-0.006-7.534,0.229-11.302,0.315c-2.211,0.051-3.536-0.91-3.62-3.114
		c-0.215-5.593-0.246-11.194-0.28-16.792c-0.05-8.144-0.05-16.288-0.049-24.431c0.001-3.926,1.421-5.258,5.294-5.22
		c6.439,0.063,12.879,0.081,19.32,0.093c7.541,0.015,15.082,0.002,22.622,0.007c2.604,0.002,5.209-0.014,7.812,0.052
		c1.291,0.032,1.745-0.558,1.735-1.759c-0.065-8.853-0.149-17.707-0.16-26.56c-0.008-6.115,0.105-12.229,0.131-18.343
		c0.01-2.139-0.045-4.278-0.132-6.415c-0.108-2.695,0.986-4.101,3.615-4.113c9.755-0.046,19.511-0.007,29.266,0
		c4.305,0.002,8.61-0.004,12.915,0.005c2.734,0.005,3.74,0.91,3.758,3.565c0.042,6.169,0.069,12.339,0.013,18.507
		c-0.092,10.075-0.258,20.148-0.382,30.223c-0.007,0.649,0.125,1.3,0.119,1.95c-0.018,1.985,1.14,2.831,2.926,2.87
		c2.931,0.065,5.864,0.018,8.796,0.001c4.817-0.028,9.635-0.072,14.452-0.103c4.477-0.029,8.953-0.047,13.43-0.074
		c4.419-0.027,8.84-0.13,13.259-0.058c2.226,0.036,3.686,1.627,3.721,3.965c0.05,3.114-0.123,6.231-0.123,9.347
		c0,6.403,0.044,12.806,0.088,19.209c0.027,4.216,0.106,8.431,0.12,12.647c0.009,2.892-1.973,4.664-4.872,4.608
		c-7.867-0.152-15.734-0.323-23.605-0.337c-8.573-0.015-17.15,0.204-25.727,0.167c-1.934-0.008-2.414,0.868-2.427,2.436
		c-0.059,8.13-0.13,16.261-0.133,24.392c-0.004,6.998,0.074,13.997,0.126,20.995c0.016,1.94,0.086,3.882,0.104,5.823
		c0.023,2.723-2.011,4.302-4.784,4.19c-6.025-0.244-12.06-0.298-18.09-0.398c-5.085-0.084-10.17-0.135-15.254-0.179
		c-2.383-0.021-4.766,0.037-7.147,0.007c-3.188-0.041-4.094-1.044-4.087-4.278c0.011-5.402-0.036-10.807-0.023-16.21
		c0.025-11.097,0.083-22.195,0.095-33.293C130.061,112.978,129.839,111.898,129.697,110.604z"/>
	<path fill-rule="evenodd" clip-rule="evenodd" d="M268.176,160.879c5.856-2.652,11.789-4.287,17.387-0.479
		c4.518,3.072,6.364,7.535,3.474,12.993c-2.009,3.791-3.381,7.917-5.034,11.894c2.215,0.705,4.119,1.111,5.853,1.898
		c6.356,2.884,8.035,9.368,3.845,14.971c-3.894,5.206-7.897,10.331-11.935,15.426c-3.551,4.482-7.09,8.986-10.893,13.251
		c-1.506,1.689-3.674,2.81-5.595,4.103c-6.184,4.159-12.435,8.221-18.573,12.441c-2.556,1.757-4.982,3.729-7.313,5.778
		c-2.306,2.025-4.982,2.792-7.914,3.378c-7.002,1.395-13.96,3.016-20.907,4.66c-11.756,2.783-23.36,6.063-34.325,11.253
		c-7.387,3.495-14.737,2.989-22.416,0.809c-8.354-2.371-16.932-3.942-25.381-5.99c-9.612-2.329-19.326-4.062-29.129-5.311
		c-3.859-0.491-7.792-1.418-11.592-1.071c-4.113,0.375-8.159,1.859-12.144,3.143c-2.267,0.73-4.351,2.032-6.52,3.072
		c-1.191,0.569-1.6,1.486-1.649,2.819c-0.123,3.293-0.021,6.672-0.738,9.851c-1.202,5.336-4.533,9.067-9.567,11.563
		c-4.372,2.167-8.928,3.422-13.621,4.455c-3.574,0.785-6.059-0.552-8.576-4.548c-5.736-9.107-10.3-18.791-14.453-28.693
		c-4.488-10.696-7.273-21.906-10.029-33.119c-0.772-3.14-0.997-6.422-1.342-9.653c-0.324-3.031,0.979-5.081,3.736-6.59
		c9.749-5.332,18.604-11.901,26.716-19.524c3.975-3.732,8.203-7.224,12.526-10.553c4.773-3.676,10.56-5.069,16.248-6.751
		c7.923-2.341,15.905-2.299,23.984-1.604c4.278,0.37,8.71,0.09,12.811,1.133c5.422,1.379,10.668,3.575,15.836,5.777
		c4.643,1.979,9.112,4.379,13.597,6.709c4.199,2.181,8.755,2.237,13.291,2.526c6.487,0.414,12.97,0.948,19.464,1.221
		c2.368,0.099,4.771-0.348,7.146-0.653c3.152-0.405,6.34-0.709,9.419-1.44c2.802-0.667,5.528-1.731,8.202-2.831
		c4.979-2.048,9.961-4.112,14.806-6.45c2.11-1.019,4.064-2.542,5.778-4.166c4.397-4.165,9.022-7.98,14.356-10.899
		c4.998-2.734,10.17-2.829,15.435-1.062c1.154,0.387,1.833,0.117,2.79-0.518c2.894-1.922,5.737-4.12,8.931-5.351
		C259.053,156.864,263.985,157.148,268.176,160.879z M69.979,238.611c2.443-0.587,3.415,0.938,4.572,1.999
		c3.214,2.945,6.293,6.047,9.618,8.86c1.088,0.921,2.724,1.39,4.181,1.631c2.205,0.367,4.506,0.164,6.708,0.539
		c6.974,1.188,13.945,2.417,20.873,3.846c9.018,1.861,18.013,3.842,26.978,5.938c6.126,1.433,12.184,3.158,18.274,4.742
		c3.039,0.79,6.032,0.313,8.744-1.005c9.924-4.821,20.416-7.975,31.044-10.678c8.676-2.205,17.42-4.141,26.158-6.071
		c3.748-0.828,7.425-2.028,10.28-4.466c6.235-5.321,13.38-9.234,20.115-13.779c2.522-1.702,5.396-3.134,7.37-5.349
		c5.275-5.915,10.159-12.183,15.185-18.32c2.062-2.518,4.207-4.976,6.104-7.613c2.039-2.836,1.25-4.7-2.185-5.415
		c-2.877-0.599-5.727-0.239-8.37,1.043c-7.397,3.586-12.981,9.372-17.769,15.798c-1.729,2.322-3.713,3.428-6.101,4.359
		c-0.774,0.301-1.673,0.276-2.462,0.554c-1.462,0.514-3.015,0.936-4.295,1.759c-3.504,2.252-6.934,4.625-10.302,7.074
		c-3.573,2.6-7.288,3.837-11.847,3.047c-3.625-0.63-7.343-0.145-10.977,0.97c-5.507,1.689-11.041,3.437-16.686,4.517
		c-7.07,1.353-14.243,2.313-21.415,2.938c-3.888,0.34-7.773,0.217-11.511,1.621c-0.989,0.373-2.198,0.587-3.212,0.391
		c-5.286-1.03-10.639-1.894-15.783-3.431c-6.249-1.866-12.385-1.806-18.714-0.769c-2.431,0.398-5.022-0.096-7.529-0.321
		c-0.51-0.047-1.062-0.645-1.397-1.127c-0.127-0.181,0.216-1.014,0.492-1.104c2.917-0.959,4.95-3.786,8.289-3.867
		c1.021-0.025,2.036-0.336,3.054-0.519c3.381-0.608,6.739-1.514,10.147-1.771c8.098-0.612,16.086,0.822,24.1,1.728
		c5.233,0.591,10.487,1.094,15.757,0.362c7.914-1.103,15.826-2.214,23.735-3.359c0.641-0.094,1.239-0.484,1.858-0.737
		c-1.16-0.498-2.237-0.68-3.32-0.739c-2.924-0.16-5.854-0.43-8.771-0.346c-2.432,0.07-3.576-1.297-3.957-3.237
		c-0.522-2.653-0.787-5.383-0.861-8.089c-0.097-3.492,1.225-5.13,4.637-6.005c5.199-1.334,10.502-1.565,16.028-1.31
		c-2.797-1.61-5.331-3.353-8.64-3.426c-2.986-0.065-5.968-0.605-8.947-0.585c-4.205,0.029-8.409,0.34-12.608,0.607
		c-5.241,0.334-10.475,0.979-15.717,1.043c-3.798,0.045-7.602-0.922-11.405-0.938c-7.832-0.033-15-1.701-21.873-5.775
		c-11.41-6.761-24.083-9.903-37.225-11.093c-9.276-0.841-18.297,0.503-26.938,3.976c-2.508,1.009-5.064,2.203-7.153,3.869
		c-3.399,2.713-6.396,5.927-9.63,8.852c-3.961,3.585-7.972,7.114-12.004,10.618c-1.625,1.412-2.386,2.975-1.74,5.157
		c2.28,7.704,4.289,15.496,6.819,23.116c1.959,5.899,4.446,11.632,6.891,17.357c1.249,2.927,2.922,5.672,4.421,8.532
		c2.019-1.358,1.943-2.566,0.8-3.993c-0.976-1.216-1.83-2.53-2.694-3.832c-0.323-0.484-0.524-1.051-0.781-1.581
		c0.121-0.119,0.241-0.24,0.361-0.36c0.664,0.33,1.357,0.612,1.984,1.001c1.716,1.063,3.359,2.253,5.125,3.219
		c0.672,0.367,1.603,0.26,2.416,0.367c-2.805-4.089-7.165-6.4-8.998-11.549c0.976,0.346,1.48,0.421,1.863,0.677
		c3.449,2.3,6.896,4.605,10.306,6.964c1.928,1.335,2.261,1.374,4.207-0.097c-3.188-3.317-7.618-5.429-9.615-10.146
		c0.932-0.131,1.933-0.223,2.564,0.216c3.35,2.328,6.583,4.823,9.909,7.187c1.214,0.864,2.514,1.788,4.319,1.01
		c-0.763-0.893-1.368-1.726-2.097-2.429c-2.333-2.251-4.81-4.362-7.023-6.725c-0.732-0.778-2.589-1.893-1.187-3.158
		c1.395-1.259,2.321,0.594,3.296,1.404c3.489,2.898,6.906,5.89,10.473,8.688c1.347,1.057,2.975,0.945,4.365-0.105
		C77.875,246.167,72.082,244.112,69.979,238.611z M221.764,218.732c2.556,0.921,4.463,0.732,6.312-0.342
		c3.471-2.015,6.925-4.064,10.456-5.969c1.981-1.069,4.139-1.813,6.158-2.819c2.006-1,4.201-1.847,5.848-3.292
		c3.16-2.777,5.96-5.96,8.97-8.917c4.001-3.934,8.183-7.633,13.536-9.697c0.362-0.141,0.668-0.603,0.857-0.984
		c2.632-5.335,5.251-10.677,7.848-16.03c0.819-1.684,0.223-3.037-1.509-3.721c-2.412-0.954-4.745-0.559-6.96,0.535
		c-3.495,1.726-6.356,4.203-8.558,7.459c-3.481,5.146-7.727,9.804-9.9,15.785c-0.264,0.723-1.056,1.285-1.671,1.845
		c-2.594,2.354-5.287,4.606-7.813,7.033c-5.433,5.22-10.709,10.605-17.064,14.755C226.19,215.734,224.138,217.143,221.764,218.732z
		 M24.204,216.297c-1.513,0.901-3.005,1.925-4.614,2.706c-1.482,0.721-1.725,1.813-1.388,3.2c0.611,2.52,1.165,5.061,1.924,7.538
		c2.183,7.122,4.261,14.287,6.739,21.309c3.496,9.903,7.442,19.636,13.037,28.598c1.902,3.045,4.889,3.812,8.156,2.163
		c1.097-0.554,1.331-1.224,0.55-2.126c-5.167-5.979-7.3-13.542-10.385-20.545c-3.1-7.039-5.328-14.477-7.711-21.813
		C28.276,230.44,26.339,223.458,24.204,216.297z M261.474,166.265c-0.096-0.217-0.192-0.434-0.291-0.652
		c-1,0-2.104-0.277-2.979,0.056c-2.1,0.805-4.466,1.49-6.051,2.953c-3.987,3.674-7.643,7.712-11.341,11.686
		c-1.724,1.85-2.998,4.172-4.892,5.793c-6.12,5.241-12.435,10.255-18.664,15.369c-0.27,0.22-0.673,0.702-0.599,0.844
		c1.109,2.114,2.291,4.193,3.468,6.271c0.005,0.007,0.211-0.1,0.615-0.294c-0.368-1.641-0.753-3.35-1.138-5.058
		c0.115-0.144,0.233-0.289,0.352-0.436c1.748,1.367,3.498,2.733,4.771,3.728c1.688-1.386,2.968-2.391,4.193-3.459
		c4.358-3.795,8.549-7.806,13.1-11.351c2.951-2.3,5.004-5.104,7.037-8.147c3.567-5.334,7.535-10.401,11.324-15.587
		C260.778,167.434,261.111,166.838,261.474,166.265z M202.646,219.476c0,0.003,0,0.005,0,0.007c0.651,0,1.316,0.09,1.951-0.017
		c2.58-0.431,5.507-0.373,6.325-3.735c0.242-0.998,0.201-2.061,0.333-3.089c0.577-4.449-2.578-8.263-7.005-7.979
		c-4.004,0.255-7.982,0.979-11.955,1.595c-1.373,0.213-2.169,1.218-2.134,2.631c0.049,2.072,0.048,4.17,0.385,6.205
		c0.451,2.745,1.827,4.045,4.728,4.334C197.707,219.668,200.186,219.476,202.646,219.476z M201.725,192.399
		c2.592,0.937,5.317,1.972,8.085,2.884c0.544,0.18,1.352,0.077,1.852-0.215c1.731-1.007,3.419-2.098,5.052-3.262
		c3.38-2.408,6.705-4.891,10.065-7.328c1.35-0.98,2.995-1.691,4.042-2.92c2.221-2.599,4.133-5.456,6.175-8.204
		c0.327-0.441,0.674-0.867,1.215-1.565c-2.927-0.69-5.617-1.007-7.856,0.445c-3.018,1.954-5.99,4.128-8.494,6.686
		c-3.583,3.668-6.928,7.508-11.772,9.61C207.257,189.758,204.481,191.118,201.725,192.399z"/>
	<path fill-rule="evenodd" clip-rule="evenodd" d="M65.503,158.083c-0.785-1.133-1.379-1.67-1.571-2.325
		c-0.657-2.24-1.039-4.567-1.771-6.78c-1.767-5.333-5.161-8.956-10.986-9.743c-1.302-0.176-2.06-0.822-2.154-2.091
		c-0.11-1.492,1.166-1.566,2.135-1.769c2.855-0.595,5.354-1.796,7.661-3.625c2.181-1.728,3.352-3.92,3.957-6.517
		c0.412-1.765,0.633-3.587,1.201-5.296c0.248-0.746,1.068-1.667,1.776-1.816c1.258-0.267,1.94,0.669,2.16,1.948
		c0.559,3.249,1.015,6.501,2.82,9.422c1.751,2.833,4.137,4.599,7.344,5.328c0.95,0.216,2.007,0.248,2.814,0.712
		c0.586,0.338,1.187,1.273,1.145,1.899c-0.041,0.61-0.804,1.556-1.397,1.687c-8.301,1.834-11.165,6.388-12.381,14
		c-0.123,0.771-0.091,1.639-0.451,2.282C67.335,156.24,66.545,156.902,65.503,158.083z"/>
	<path fill-rule="evenodd" clip-rule="evenodd" d="M234.286,54.566c-0.303-0.374-1.047-0.94-1.309-1.677
		c-0.898-2.563-1.324-5.331-2.486-7.753c-2.08-4.324-6.417-5.573-10.574-6.985c-0.695-0.237-1.566-0.955-1.709-1.596
		c-0.239-1.065,0.659-1.337,1.695-1.557c3.476-0.739,6.757-2.075,9.279-4.654c1.001-1.023,1.756-2.451,2.188-3.831
		c0.692-2.221,1.044-4.551,1.495-6.844c0.179-0.911,0.165-1.893,1.483-1.876c1.204,0.016,2.174,0.303,2.435,1.715
		c0.28,1.531,0.709,3.037,0.974,4.57c1.058,6.168,5.218,9.141,10.849,10.624c0.379,0.1,0.901,0.059,1.115,0.299
		c0.547,0.618,1.297,1.35,1.312,2.048c0.008,0.527-0.91,1.291-1.572,1.562c-1.366,0.558-2.891,0.727-4.257,1.287
		c-5.556,2.278-7.722,6.868-8.125,12.486C236.965,53.941,236.201,54.395,234.286,54.566z"/>
	<path fill-rule="evenodd" clip-rule="evenodd" d="M44.708,88.285c-3.566,0-7.133-0.007-10.701,0.003
		c-1.711,0.005-1.99-1.34-2.149-2.514c-0.16-1.177,0.32-2.206,1.8-2.24c2.05-0.047,4.099-0.131,6.148-0.118
		c5.174,0.032,10.346,0.107,15.519,0.174c0.519,0.007,1.124-0.081,1.535,0.15c0.732,0.411,1.659,0.92,1.904,1.604
		c0.172,0.479-0.496,1.562-1.074,1.934c-0.883,0.569-2,1.017-3.037,1.058c-3.311,0.13-6.629,0.048-9.946,0.048
		C44.708,88.351,44.708,88.318,44.708,88.285z"/>
	<path fill-rule="evenodd" clip-rule="evenodd" d="M263.873,88.339c-3.768,0-7.538-0.045-11.306,0.021
		c-1.7,0.03-2.36-0.759-2.349-2.343c0.014-1.55,0.989-2.271,2.335-2.331c1.413-0.063,2.839,0.268,4.26,0.265
		c5.622-0.014,11.244-0.12,16.867-0.12c1.27,0,2.701-0.009,2.912,1.845c0.201,1.734-0.818,2.615-2.25,2.902
		c-1.239,0.248-2.559,0.094-3.845,0.099c-2.206,0.008-4.416,0.002-6.625,0.002C263.873,88.565,263.873,88.452,263.873,88.339z"/>
	<path fill-rule="evenodd" clip-rule="evenodd" d="M263.711,125.01c0.085,2.947-1.603,4.1-3.554,3.144
		c-4.77-2.339-9.549-4.666-14.289-7.066c-0.7-0.355-1.536-0.993-1.726-1.664c-0.209-0.739-0.003-2.135,0.486-2.409
		c0.824-0.46,2.195-0.651,3.028-0.274c4.551,2.056,9.019,4.291,13.481,6.531C262.183,123.796,263.09,124.584,263.711,125.01z"/>
	<path fill-rule="evenodd" clip-rule="evenodd" d="M221.555,130.124c0.577,0.335,1.206,0.566,1.659,0.988
		c3.034,2.819,6.057,5.653,9.024,8.539c1.017,0.989,2.059,2.042,2.731,3.261c0.36,0.649,0.283,1.963-0.165,2.537
		c-0.673,0.867-1.827,1.607-3,0.475c-3.732-3.602-7.535-7.134-11.138-10.862c-1.912-1.979-1.748-3.598-0.027-4.508
		C220.917,130.408,221.206,130.288,221.555,130.124z"/>
	<path fill-rule="evenodd" clip-rule="evenodd" d="M73.578,30.313c1.854,1.35,3.509,2.375,4.951,3.642
		c2.729,2.397,5.318,4.954,8.005,7.401c1.127,1.026,0.892,1.98,0.111,3.044c-0.867,1.183-1.842,0.81-2.694,0.123
		c-3.94-3.18-7.833-6.418-11.754-9.622c-1.192-0.973-0.965-2.018-0.179-3.052C72.42,31.319,72.97,30.901,73.578,30.313z"/>
	<path fill-rule="evenodd" clip-rule="evenodd" d="M47.691,50.807c1.235,0.449,2.118,0.684,2.924,1.077
		c3.56,1.737,7.056,3.608,10.66,5.245c1.605,0.728,1.832,1.869,1.307,3.144c-0.563,1.367-1.734,1.859-3.218,1.109
		c-3.944-1.992-7.915-3.934-11.847-5.952c-1.144-0.586-1.836-1.562-1.197-2.892C46.627,51.897,47.215,51.392,47.691,50.807z"/>
	<path fill-rule="evenodd" clip-rule="evenodd" d="M89.406,249.579c-4.642-2.511-8.391-5.919-11.632-9.895
		c-0.479-0.587-0.422-1.609-0.645-2.565C80.021,237.571,89.118,246.943,89.406,249.579z"/>
	<path fill-rule="evenodd" clip-rule="evenodd" d="M164.58,219.86c-1.887,0.37-3.239-0.383-3.519-2.432
		c-0.304-2.229-0.506-4.496-0.436-6.734c0.021-0.613,1.139-1.625,1.827-1.692c1.286-0.123,0.984,1.057,1.066,1.974
		C163.783,213.888,164.201,216.787,164.58,219.86z"/>
	<path fill-rule="evenodd" clip-rule="evenodd" d="M173.499,219.907c-1.977,1.131-2.846,0.646-3.756-3.306
		c-0.47-2.039-0.345-4.214-0.497-6.476c1.552-0.008,2.147,0.601,2.406,1.874C172.173,214.549,172.828,217.071,173.499,219.907z"/>
	<path fill-rule="evenodd" clip-rule="evenodd" d="M97.161,247.504c-0.816,0.104-1.511,0.421-1.868,0.199
		c-2.482-1.553-4.895-3.219-7.501-4.962C89.586,241.577,91.127,242.437,97.161,247.504z"/>
	<path fill-rule="evenodd" clip-rule="evenodd" d="M107.033,228.573c1.597-0.176,3.147-0.432,4.705-0.486
		c1.11-0.04,1.733,0.809,0.854,1.566c-0.771,0.666-2.063,0.984-3.125,0.984C108.408,230.637,107.102,230.351,107.033,228.573z"/>
	<path fill-rule="evenodd" clip-rule="evenodd" d="M45.697,220.91c-2.139-1.738-2.33-2.88-0.753-4.5
		C46.566,217.573,46.86,219.332,45.697,220.91z"/>
	<path fill-rule="evenodd" clip-rule="evenodd" d="M98.717,246.091c2.267-1.034,4.633,0.358,5.195,3.037
		C102.309,248.189,100.705,247.252,98.717,246.091z"/>
	<path fill-rule="evenodd" clip-rule="evenodd" d="M155.409,258.259c-1.069-0.051-2.149-0.031-3.202-0.19
		c-0.344-0.053-0.922-0.677-0.86-0.851c0.147-0.417,0.571-0.965,0.954-1.026c1.396-0.226,2.563,0.227,3.335,1.361
		C155.561,257.788,155.484,258.024,155.409,258.259z"/>
	<path fill-rule="evenodd" clip-rule="evenodd" d="M232.799,231.116c-0.788,0.867-1.239,1.588-1.891,1.942
		c-0.197,0.11-0.945-0.783-1.442-1.216c0.553-0.544,1.039-1.202,1.69-1.569C231.393,230.14,232.021,230.697,232.799,231.116z"/>
	<path fill-rule="evenodd" clip-rule="evenodd" d="M164.359,258.754c-0.763,0.312-1.583,0.959-2.271,0.841
		c-0.645-0.11-1.148-1.032-1.715-1.596c0.138-0.236,0.274-0.473,0.412-0.709c1.155,0.183,2.313,0.365,3.468,0.549
		C164.289,258.144,164.323,258.448,164.359,258.754z"/>
	<path fill-rule="evenodd" clip-rule="evenodd" d="M260.628,215.512c-0.118-0.811-0.236-1.622-0.353-2.433
		c0.575,0.075,1.151,0.149,1.729,0.225c-0.102,0.734-0.206,1.468-0.308,2.201C261.339,215.508,260.982,215.511,260.628,215.512z"/>
	<path fill-rule="evenodd" clip-rule="evenodd" d="M180.407,253.583c0.771-0.068,1.543-0.139,2.314-0.209
		c-0.035,0.4-0.027,1.133-0.115,1.144c-0.71,0.095-1.438,0.054-2.161,0.054C180.433,254.241,180.421,253.913,180.407,253.583z"/>
	<path fill-rule="evenodd" clip-rule="evenodd" d="M258.872,188.569c2.956,0.361,3.363,1.254,1.956,3.933
		C260.13,191.097,259.583,190,258.872,188.569z"/>
	<path fill-rule="evenodd" clip-rule="evenodd" d="M44.841,277.772c-0.839,0.525-1.423,1.058-1.57,0.956
		c-0.978-0.675-1.862-1.485-2.776-2.251c0.378-0.342,0.965-1.046,1.104-0.966C42.611,276.09,43.534,276.827,44.841,277.772z"/>
	<path fill-rule="evenodd" clip-rule="evenodd" d="M226.042,204.203c-2.396-0.064-2.822-1.32-3.094-2.664
		c-0.047-0.226,0.206-0.675,0.42-0.753c0.313-0.116,0.942-0.121,1.044,0.053C224.968,201.81,225.404,202.848,226.042,204.203z"/>
</g>
<g>
</g>
<g>
</g>
<g>
</g>
<g>
</g>
<g>
</g>
<g>
</g>
</svg>
