<?xml version="1.0" encoding="utf-8"?>
<!-- Generator: Adobe Illustrator 16.0.0, SVG Export Plug-In . SVG Version: 6.00 Build 0)  -->
<!DOCTYPE svg PUBLIC "-//W3C//DTD SVG 1.1//EN" "http://www.w3.org/Graphics/SVG/1.1/DTD/svg11.dtd">
<svg version="1.1" id="Layer_1" xmlns="http://www.w3.org/2000/svg" xmlns:xlink="http://www.w3.org/1999/xlink" x="0px" y="0px"
	 width="300px" height="300px" viewBox="0 0 300 300" enable-background="new 0 0 300 300" xml:space="preserve">
<g>
	<path fill-rule="evenodd" clip-rule="evenodd" d="M76.669,246.556c-0.957-8.001-1.662-16.042-2.956-23.988
		c-0.896-5.51-2.97-10.829-3.821-16.342c-0.606-3.92-1.899-6.591-5.746-8.041c-1.367-0.517-2.607-1.872-3.466-3.141
		c-2.596-3.834-5.162-7.712-7.384-11.767c-1.921-3.506-3.767-7.159-4.866-10.972c-0.765-2.655-0.314-5.694-0.176-8.553
		c0.038-0.788,0.725-1.869,1.423-2.247c3.944-2.135,3.113-5.401,2.344-8.747c-2.281-9.93-4.704-19.83-6.71-29.815
		c-1.126-5.606-1.67-11.346-2.212-17.05c-0.248-2.598,0.202-5.255,0.235-7.887c0.171-13.743,2.341-24.36,7.454-35.613
		c4.378-9.636,10.358-18.395,17.916-25.835c6.892-6.784,14.289-13.068,23.156-17.26c6.278-2.967,12.522-6.054,18.98-8.582
		c4.916-1.925,10.066-3.456,15.249-4.445c7.486-1.43,15.07-2.495,22.66-3.199c9.934-0.921,19.691,0.557,29.426,2.715
		c6.325,1.402,12.622,2.808,18.696,5.038c2.971,1.091,5.843,2.502,8.648,3.979c5.184,2.728,10.446,5.36,15.37,8.51
		c4.048,2.589,7.722,5.786,11.438,8.863c6.268,5.189,11.67,11.245,16.132,18.001c4.081,6.178,7.463,12.83,9.449,20.017
		c2.432,8.796,4.225,17.719,4.146,26.929c-0.035,3.861,0.539,7.751,0.245,11.583c-0.559,7.288-1.363,14.54-3.309,21.666
		c-2.493,9.122-4.506,18.376-6.683,27.583c-0.099,0.416,0.076,1.173,0.38,1.366c5.681,3.603,6.54,8.812,4.51,14.619
		c-2.944,8.418-6.936,16.319-13.494,22.581c-1.497,1.429-3.659,2.135-5.321,3.425c-0.972,0.753-1.912,1.897-2.259,3.051
		c-1.51,5.011-2.957,10.053-4.109,15.156c-0.829,3.681-1.355,7.459-1.663,11.223c-0.522,6.398-1.098,12.827-1,19.232
		c0.059,3.835,0.375,7.598-1.219,11.15c-1.798,4.014-5.272,6.434-8.744,8.915c-4.816,3.443-9.42,7.184-14.135,10.771
		c-2.727,2.073-5.433,4.184-8.256,6.12c-4.113,2.82-8.261,5.605-12.514,8.209c-3.816,2.338-8.171,2.965-12.548,3.607
		c-5.014,0.736-9.869-0.28-14.797-0.63c-4.749-0.339-9.477-0.146-14.248,0.447c-6.541,0.814-13.098,0.509-19.152-2.714
		c-3.289-1.752-6.643-3.391-9.856-5.269c-1.561-0.912-2.832-2.306-4.296-3.399c-8.124-6.066-16.253-12.127-24.411-18.148
		c-3.614-2.668-6.976-5.646-8.036-10.145c-0.833-3.53-0.908-7.24-1.32-10.871C76.102,246.622,76.385,246.589,76.669,246.556z
		 M152.442,224.611c1.067-1.004,2.137-2.052,3.247-3.052c3.558-3.208,6.465-3.521,10.235,0.5c0.587,0.626,1.167,1.257,1.723,1.909
		c0.703,0.824,1.202,0.719,1.784-0.186c0.652-1.019,1.379-2.014,2.219-2.879c1.647-1.699,3.795-1.248,4.867,0.933
		c0.31,0.628,0.639,1.248,1.062,2.073c2.386-2.673,4.543-5.08,3.372-8.713c1.876-1.002,2.144-0.797,2.903,0.988
		c0.602,1.413,1.404,2.81,2.407,3.961c0.753,0.863,2.081,1.249,2.913-0.026c1.036-1.591,2.091-3.136,1.827-5.327
		c-0.306-2.536-0.162-5.132-0.109-7.7c0.009-0.405,0.562-0.8,0.863-1.199c0.203,0.423,0.516,0.827,0.591,1.272
		c0.534,3.193,0.898,6.42,1.599,9.573c0.191,0.866,1.357,2.162,2.035,2.137c1.449-0.056,1.174-1.545,1.142-2.633
		c-0.011-0.369-0.062-0.735-0.085-1.103c-0.22-3.478-0.656-6.958-0.597-10.431c0.062-3.627,0.834-7.185,3.294-10.078
		c3.702-4.357,8.464-6.301,15.439-3.679c3.585,1.349,7.206,2.634,10.893,3.654c1.518,0.421,3.437,0.54,4.846-0.023
		c3.674-1.468,6.96-3.849,9.263-7.018c2.93-4.032,5.274-8.49,7.875-12.765c1.261-2.073,1.159-4.265,0.831-6.579
		c-0.235-1.651-1.034-2.693-2.48-3.031c-2.609-0.608-3.815-2.589-4.817-4.681c-0.897-1.877-1.7-3.869-2.087-5.898
		c-0.385-2.015-0.146-4.143-0.276-6.214c-0.18-2.858-0.66-5.712-0.63-8.565c0.04-3.669,0.603-7.333,0.648-11.004
		c0.021-1.661,0.566-3.944-1.951-4.313c0.104-0.706,0.424-1.386,0.226-1.836c-0.481-1.091-1.119-2.141-1.846-3.091
		c-4.292-5.609-6.482-11.903-6-18.975c0.51-7.505,1.276-14.988,3.649-22.192c0.239-0.729,0.687-1.389,1.212-2.426
		c4.16,9.177,8.114,17.899,12.295,27.118c0.455-7.051-2.792-12.947-3.353-19.357c0.719,0.557,1.286,1.178,1.58,1.908
		c1.32,3.285,2.528,6.616,3.847,9.9c0.625,1.556,1.409,3.047,2.121,4.567c0.215-0.928-0.038-1.645-0.085-2.375
		c-0.265-4.131-1.581-7.933-3.417-11.601c-1.225-2.443-2.807-4.807-2.144-7.842c1.623,2.941,3.027,5.973,4.411,9.015
		c0.735,1.616,0.945,3.571,2.994,4.447c0-1.267,0.181-2.496-0.03-3.653c-1.063-5.82-1.676-11.802-3.495-17.385
		c-2.32-7.12-6.056-13.689-10.751-19.612c-2.89-3.646-5.587-7.499-8.844-10.789c-8.209-8.288-17.625-14.978-28.461-19.42
		c-5.482-2.248-11.156-4.034-16.772-5.939c-1.251-0.424-2.642-0.417-3.946-0.707c-4.427-0.986-8.797-2.442-13.275-2.926
		c-6.191-0.669-12.474-1.003-18.691-0.786c-9.191,0.322-18.247,2.043-27.113,4.466c-16.111,4.404-30.729,11.816-43.072,23.145
		c-4.648,4.268-8.624,9.328-12.548,14.31c-4.864,6.175-8.011,13.274-9.571,20.994c-0.807,3.993-1.305,8.05-1.879,12.087
		c-0.08,0.558,0.203,1.168,0.377,2.054c2.108-3.302,2.211-7.215,5.163-9.608c-0.567,3.659-1.576,7.145-2.383,10.678
		c-1.557,6.808-1.589,8.166-0.69,10.611c1.793-5.801,2.788-11.97,6.288-17.276c0.037,6.623-2.963,12.77-2.844,19.392
		c3.568-8.003,5.927-16.507,10.253-24.285c0.81,1.892,1.31,3.743,1.748,5.609c1.084,4.626,2.591,9.211,3.101,13.902
		c0.74,6.823-0.648,13.4-4.295,19.376c-1.271,2.084-2.642,4.149-3.574,6.387c-0.827,1.987-1.402,4.18-1.56,6.321
		c-0.191,2.608,0.396,5.268,0.25,7.885c-0.364,6.542-0.727,13.101-1.535,19.597c-0.465,3.75-2.058,7.326-5.886,8.948
		c-1.354,0.573-1.839,1.457-1.989,2.524c-0.325,2.31-0.268,4.574,1.016,6.748c2.387,4.042,4.533,8.225,6.874,12.293
		c0.782,1.358,1.608,2.925,2.846,3.738c2.637,1.733,5.469,3.252,8.396,4.424c1.465,0.587,3.412,0.6,4.967,0.199
		c2.912-0.753,5.705-1.975,8.531-3.046c1.111-0.422,1.102-1.095,0.199-1.787c-0.53-0.407-1.085-0.781-1.629-1.169
		c0.077-0.194,0.154-0.389,0.23-0.583c0.911,0.143,1.935,0.066,2.711,0.469c2.703,1.399,5.514,2.303,8.433,3.209
		c5.343,1.659,8.615,5.927,9.739,11.53c0.837,4.173-0.124,8.242-0.945,12.316c-0.148,0.741,0.024,2.042,0.495,2.315
		c1.125,0.656,2.155-0.297,2.42-1.271c0.907-3.326,1.769-6.686,2.292-10.087c0.34-2.213,0.064-4.522,0.064-6.789
		c0.307-0.064,0.615-0.128,0.922-0.191c0.43,0.969,1.275,1.964,1.219,2.903c-0.222,3.767-0.723,7.516-1.12,11.271
		c-0.089,0.84-0.483,1.806-0.199,2.49c0.529,1.277,1.211,2.771,2.287,3.454c0.909,0.576,3.235-0.51,3.626-2.654
		c0.171-0.938,0.576-1.889,1.1-2.686c0.295-0.448,1.041-0.767,1.606-0.803c0.277-0.017,0.715,0.698,0.884,1.154
		c0.225,0.611,0.179,1.319,0.391,1.938c0.546,1.581,1.036,3.205,1.808,4.676c0.547,1.041,1.309,0.972,2.057-0.15
		c1.527-2.292,4.795-2.378,6.638-0.287c0.604,0.686,1.287,1.326,1.767,2.092c0.701,1.117,1.384,0.552,1.995,0.047
		c0.351-0.29,0.495-0.829,0.738-1.25c2.174-3.768,8.231-4.442,11.065-1.155C151.079,222.079,151.682,223.388,152.442,224.611z
		 M105.472,252.598c-1.015-0.31-1.419-0.375-1.77-0.548c-3.588-1.773-5.14-5.155-6.457-8.586c-1.024-2.67-1.684-5.485-2.41-8.261
		c-1.144-4.371-2.214-8.762-3.303-13.146c-0.586-2.361-1.149-4.729-1.722-7.092c-0.166,0.016-0.331,0.032-0.497,0.048
		c-0.188,2.396-0.616,4.805-0.519,7.189c0.219,5.377,0.675,10.746,1.089,16.114c0.079,1.018,0.305,2.057,0.649,3.018
		c1.147,3.2,2.425,6.354,3.554,9.561c0.387,1.099,0.481,2.301,0.709,3.456c-0.182,0.039-0.364,0.08-0.545,0.119
		c-0.406-0.736-0.694-1.579-1.24-2.192c-1.951-2.198-3.008-4.903-3.707-7.599c-1.539-5.931-2.669-11.968-3.939-17.966
		c-0.401-1.894-0.715-3.804-1.068-5.707c-0.236,0.026-0.472,0.053-0.708,0.079c0,1.073-0.083,2.153,0.019,3.218
		c0.18,1.877,0.661,3.743,0.681,5.617c0.071,6.488,0.216,12.991-0.087,19.469c-0.265,5.676,2.708,9.324,6.739,12.499
		c4.014,3.16,8.066,6.274,12.169,9.319c6.826,5.062,13.676,10.094,20.589,15.035c1.313,0.938,2.91,1.631,4.48,2.032
		c4.014,1.027,8.038,2.324,12.279,1.197c6.951-1.847,13.913-1.597,20.938-0.337c6.604,1.185,13.037,0.4,19.135-2.497
		c6.848-3.253,12.788-7.842,18.568-12.677c4.408-3.688,8.763-7.472,13.433-10.806c4.979-3.558,9.057-7.326,7.857-14.186
		c-0.092-0.535,0.016-1.103,0.008-1.653c-0.11-7.969-0.268-15.924,1.111-23.84c0.552-3.167,0.506-6.439,0.732-9.665
		c-2.396,7.271-3.262,14.896-5.692,22.103c-0.269-0.046-0.539-0.092-0.809-0.138c0.841-9.009,1.682-18.019,2.523-27.028
		c-0.205-0.033-0.409-0.066-0.613-0.1c-0.828,3.08-1.8,6.131-2.455,9.247c-1.142,5.432-1.844,10.928-3.52,16.278
		c-1.619,5.166-3.496,10.127-6.382,14.715c-1.822,2.896-3.405,4.193-5.994,4.251c1.181-2.609,2.295-5.077,3.462-7.656
		c-2.225-0.068-2.155-0.027-3.128,1.566c-1.166,1.908-2.611,4.033-4.907,4.042c-2.135,0.008-2.903,1.007-3.878,2.443
		c-1.619,2.384-3.489,2.492-5.432,0.511c-0.166-0.17-0.359-0.313-0.547-0.476c-4.581,7.05-7.621,5.622-10.555,0.942
		c-0.839,0.964-1.735,1.8-2.4,2.79c-2.93,4.365-6.615,4.231-9.157-0.38c-0.031-0.055-0.146-0.063-0.217-0.093
		c-1.261,2.018-2.646,3.935-5.146,4.327c-2.99,0.472-3.913-2.029-5.105-4.092c-3.363,5.351-6.244,5.847-11.033-0.191
		c-5.117,4.459-5.301,4.423-11.448-2.263c-0.456,0.577-0.889,1.168-1.365,1.721c-1.701,1.978-3.85,2.147-5.759,0.342
		c-0.837-0.792-1.578-1.739-2.154-2.737c-0.596-1.032-1.154-1.045-2.05-0.446c-2.283,1.525-2.966,1.64-4.597-0.489
		c-2.32-3.031-5.85-4.136-8.77-6.192c-0.514-0.361-1.185-0.498-1.784-0.739c-0.142,0.109-0.285,0.221-0.426,0.33
		C103.691,248.297,104.477,250.193,105.472,252.598z M149.916,234.596c0.149-3.574-0.137-6.544-1.59-9.372
		c-0.84-1.634-2.037-2.444-3.73-2.348c-1.753,0.098-3.18,1.039-3.815,2.712c-1.411,3.715-2.677,7.488-2.262,11.56
		c0.069,0.68,0.265,1.526,0.722,1.955c1.409,1.324,3.055,2.199,5.13,1.784c1.238-0.247,2.5-0.366,3.745-0.587
		c1.188-0.21,1.751-1.019,1.789-2.168C149.951,236.788,149.916,235.441,149.916,234.596z M159.852,240.537c0-0.006,0-0.011,0-0.017
		c0.858,0,1.732-0.104,2.571,0.021c1.892,0.277,2.801-0.672,2.949-2.372c0.211-2.421,0.277-4.854,0.37-7.283
		c0.123-3.261-1.839-5.432-4.048-7.411c-0.355-0.318-1.349-0.504-1.591-0.273c-1.315,1.251-3.091,2.463-3.584,4.042
		c-1.112,3.551-1.672,7.292-2.228,10.991c-0.199,1.326,0.737,2.282,2.251,2.301C157.646,240.549,158.749,240.537,159.852,240.537z
		 M130.619,223.535c-0.704,0.818-1.458,1.538-2.028,2.383c-1.673,2.484-1.644,5.409-1.893,8.222c-0.333,3.761,0.28,4.209,4.63,4.865
		c1.992,0.301,2.725-0.435,2.697-2.45c-0.039-2.809-0.076-5.637-0.447-8.412C133.338,226.341,133.29,224.129,130.619,223.535z
		 M169.734,233.51c0.131,0.035,0.262,0.069,0.394,0.104c0,0.55,0.024,1.102-0.005,1.649c-0.193,3.664,0.382,4.369,3.853,3.688
		c1.068-0.209,2.6-1.537,2.717-2.5c0.412-3.395,0.365-6.878-1.408-10.004c-0.38-0.67-1.154-1.548-1.747-1.548
		c-0.628-0.001-1.597,0.815-1.823,1.477C170.917,228.707,170.375,231.124,169.734,233.51z M122.8,227.341
		c-0.061-0.009-0.121-0.019-0.181-0.028c0-0.428,0.174-0.989-0.032-1.259c-0.727-0.946-1.457-2.025-2.452-2.566
		c-0.422-0.229-1.739,0.564-2.242,1.21c-2.491,3.197-2.27,8.322,0.437,11.25c0.442,0.479,1.317,0.919,1.885,0.812
		c0.508-0.095,1.128-0.918,1.25-1.512C122,232.63,122.371,229.98,122.8,227.341z M167.556,256.782
		c0.502-0.468,1.034-0.729,1.164-1.123c1.144-3.447,2.231-6.913,3.276-10.392c0.096-0.318-0.106-0.882-0.363-1.128
		c-1.726-1.649-5.682-0.425-6.159,1.909c-0.651,3.186,0.063,6.258,0.978,9.281C166.606,255.842,167.13,256.24,167.556,256.782z
		 M136.058,256.293c0.644-0.718,1.335-1.232,1.679-1.919c1.234-2.467,1.472-5.089,0.959-7.802c-0.477-2.524-2.921-3.836-5.221-2.639
		c-0.518,0.27-1.127,1.032-1.112,1.551C132.473,249.265,133.27,252.861,136.058,256.293z M153.637,245.879
		c0.346,2.298,0.599,4.47,1.023,6.605c0.22,1.109,0.619,2.224,1.16,3.215c0.657,1.207,1.738,1.595,2.438,0.102
		c0.939-2.002,1.914-4.073,2.323-6.22c0.774-4.066-0.908-5.405-5.05-4.284C154.951,245.454,154.38,245.649,153.637,245.879z
		 M146.677,257.276c0.595-0.753,1.444-1.383,1.659-2.184c0.569-2.114,1.012-4.287,1.203-6.464c0.087-1.003-0.209-2.51-0.897-3.012
		c-1.366-0.999-3.134-1.38-4.901-0.421c0.418,0.094,0.837,0.188,1.749,0.393c-2.281,0.664-2.435,1.908-2.014,3.454
		c0.159,0.579,0.15,1.208,0.182,1.815C143.784,253.268,144.558,255.381,146.677,257.276z M184.967,223.561
		c-3.341,3.072-4.016,8.445-3.646,11.427c0.176,1.413,1.244,2.299,2.628,2.462c1.316,0.156,1.687-0.951,1.986-1.978
		c0.818-2.796,1.289-5.652,0.717-8.528C186.429,225.82,185.613,224.815,184.967,223.561z M182.221,246.524
		c-0.096-0.014-0.191-0.025-0.287-0.039c0-0.858,0.157-1.758-0.052-2.562c-0.156-0.6-0.685-1.372-1.223-1.559
		c-2.065-0.712-4.676,1.224-4.465,3.49c0.218,2.338,0.844,4.657,1.5,6.924c0.197,0.684,1.093,1.167,1.669,1.741
		c0.597-0.64,1.519-1.188,1.724-1.937C181.631,250.61,181.864,248.55,182.221,246.524z M125.058,254.313
		c2.303-2.244,3.524-9.283,1.834-11.608c-0.602-0.825-2.226-1.353-3.314-1.255c-1.075,0.098-1.496,1.329-1.227,2.622
		c0.243,1.167,0.132,2.402,0.294,3.591C122.965,250.004,123.246,252.378,125.058,254.313z M186.578,240.78
		c-0.038,0.725-0.097,1.301-0.093,1.876c0.012,2.134-0.045,4.275,0.129,6.396c0.047,0.566,0.728,1.255,1.29,1.525
		c0.255,0.123,1.24-0.558,1.368-1.02c0.563-2.025,1.3-4.105,1.28-6.16c-0.028-2.885-0.882-3.271-3.643-2.48
		C186.819,240.944,186.688,240.83,186.578,240.78z M113.626,244.33c0.353,1.595,0.659,3.267,1.123,4.892
		c0.142,0.495,0.785,1.261,1.087,1.212c0.641-0.103,1.387-0.536,1.756-1.066c0.383-0.549,0.574-1.398,0.492-2.073
		c-0.226-1.864-0.542-3.732-1.045-5.538c-0.122-0.439-1.146-0.969-1.676-0.896C113.268,241.157,114.073,242.979,113.626,244.33z
		 M112.448,228.348c0.11-0.076,0.22-0.153,0.331-0.23c-0.668-1.498-1.28-3.025-2.045-4.471c-0.192-0.364-0.946-0.721-1.317-0.62
		c-0.364,0.099-0.698,0.749-0.822,1.217c-0.798,3.021,0.563,5.756,1.269,8.567c0.072,0.29,0.729,0.688,1.002,0.615
		c0.386-0.104,0.877-0.554,0.957-0.935C112.114,231.128,112.251,229.731,112.448,228.348z M194.769,222.226
		c-1.449,3.079-2.417,6.021-2.389,9.225c0.005,0.46,0.223,0.95,0.451,1.365c0.276,0.502,0.67,0.938,1.013,1.401
		c0.454-0.439,1.112-0.796,1.329-1.332c1.335-3.302,1.06-6.678,0.248-10.049C195.387,222.696,195.178,222.601,194.769,222.226z
		 M110.854,241.487c-0.357-1.012-0.715-2.229-1.231-3.375c-0.177-0.395-0.861-0.931-1.118-0.841
		c-0.539,0.187-1.308,0.721-1.34,1.159c-0.093,1.269-0.067,2.619,0.294,3.824c0.295,0.982,1.272,2.616,1.716,2.544
		C110.676,244.555,110.446,242.88,110.854,241.487z M196.157,239.224c-0.237-0.007-0.476-0.013-0.713-0.019
		c-0.792,1.944-2.063,3.801-1.156,6.085c0.174,0.44,0.668,0.755,1.014,1.126c0.391-0.386,1.112-0.77,1.116-1.159
		C196.433,243.246,196.263,241.234,196.157,239.224z M84.256,209.408c0,2.815,0,5.342,0,7.866c0.642-0.134,1.006-0.365,0.984-0.551
		C84.962,214.406,84.628,212.097,84.256,209.408z M241.016,110.656c-0.119-2.015-0.211-3.542-0.33-5.539
		C239.246,107.041,239.374,109.038,241.016,110.656z M241.164,100.469c0.627-2.181-1.269-3.458-1.449-5.199
		C239.645,97.078,238.712,99.118,241.164,100.469z M64.356,100.463c0.073,0.141,0.146,0.281,0.22,0.421
		c0.53-0.425,1.479-0.823,1.51-1.282c0.08-1.199-0.242-2.425-0.426-3.808C65.193,97.467,64.775,98.965,64.356,100.463z"/>
	<path fill-rule="evenodd" clip-rule="evenodd" d="M145.271,123.591c-1.469,3.373-3.647,6.195-6.729,8.336
		c-0.511,0.355-0.788,1.381-0.783,2.095c0.071,9.744-4.231,17.612-11.291,23.726c-3.248,2.812-7.824,4.122-11.856,5.984
		c-5.775,2.666-11.942,4.049-18.233,4.349c-2.954,0.142-6.083-0.636-8.933-1.594c-7.457-2.509-10.738-8.319-11.695-15.782
		c-0.361-2.813-0.921-5.601-1.291-8.413c-0.064-0.488,0.481-1.027,0.547-1.567c0.281-2.305,0.59-4.615,0.699-6.932
		c0.183-3.909,1.943-7.279,4.601-9.729c2.674-2.466,5.994-4.543,9.393-5.835c4.757-1.807,9.814-2.901,14.815-3.953
		c2.334-0.491,4.844-0.272,7.267-0.186c3.3,0.119,6.592,0.522,9.892,0.606c2.28,0.057,4.198,0.903,5.869,2.258
		c2.311,1.875,4.709,3.732,6.612,5.985c1.337,1.583,1.91,3.812,3.022,6.172c1.512-1.178,3.237-2.295,4.666-3.711
		C142.881,124.374,143.742,123.359,145.271,123.591z M82.666,140.682c-0.085,0.013-0.171,0.025-0.257,0.037
		c0.086,1.196,0.248,2.394,0.228,3.588c-0.01,0.646-0.523,1.303-0.473,1.928c0.132,1.659,0.28,3.35,0.729,4.942
		c0.695,2.468,2.469,4.178,4.299,5.63C85.681,151.428,84.173,146.055,82.666,140.682z"/>
	<path fill-rule="evenodd" clip-rule="evenodd" d="M194.337,114.49c2.719,0.251,7.112,0.47,11.439,1.122
		c2.801,0.422,5.47,1.656,8.262,2.204c3.205,0.629,5.779,2.263,8.026,4.442c2.135,2.071,4.236,4.221,6.042,6.575
		c2.27,2.958,2.293,6.648,2.409,10.169c0.112,3.34-0.058,6.698-0.269,10.038c-0.384,6.079-2.699,11.396-7.629,15.013
		c-2.103,1.543-5.053,2.051-7.696,2.709c-6.586,1.643-13.197,0.778-19.589-0.855c-4.132-1.057-7.99-3.208-11.937-4.943
		c-4.946-2.175-8.478-5.93-10.45-10.823c-1.749-4.337-3.865-8.679-3.56-13.615c0.053-0.844-0.406-1.708-0.445-2.572
		c-0.022-0.494,0.414-0.991,0.496-1.51c0.584-3.688,1.565-7.29,3.775-10.305c1.223-1.668,2.972-3.067,4.73-4.203
		C182.722,114.854,187.661,114.214,194.337,114.49z M222.603,147.238c-0.265,0.246-0.641,0.444-0.77,0.747
		c-0.332,0.779-0.422,1.684-0.843,2.4c-2.191,3.721-4.247,7.554-7.829,10.503c0.487-0.049,0.791-0.043,1.072-0.115
		c3.569-0.927,5.456-3.732,7.178-6.625c1.261-2.119,2.666-4.322,1.152-6.949c0.229-0.028,0.657-0.051,0.658-0.086
		c0.035-1.324,0.03-2.649,0.03-3.974c-0.217,0.001-0.433,0.004-0.649,0.006C222.603,144.509,222.603,145.874,222.603,147.238z
		 M209.201,157.24c1.721-0.474,3.621-0.728,3.729-3.159C211.688,155.135,210.443,156.187,209.201,157.24z"/>
	<path fill-rule="evenodd" clip-rule="evenodd" d="M167.123,165.659c0.138-0.319,0.103-0.131,0.047-0.125
		c-0.295,0.029-0.594,0.014-1.157,0.014c1.31,3.183,2.477,6.378,3.927,9.439c1.796,3.791,2.851,7.734,2.438,11.887
		c-0.341,3.427-2.166,6.117-5.064,8.141c-2.563,1.788-4.498,2.125-6.698,0.848c-3.776-2.19-5.745-5.429-6.073-9.777
		c-0.389-5.115-0.915-10.22-1.335-15.332c-0.1-1.205-0.015-2.426-0.344-3.707c-0.241,1.354-0.558,2.698-0.715,4.062
		c-0.75,6.491-1.231,13.024-2.247,19.472c-0.919,5.826-8.618,7.648-13.446,3.6c-3.59-3.012-4.03-6.743-2.977-10.773
		c1.059-4.051,2.421-8.043,3.949-11.944c2.313-5.906,4.887-11.71,7.34-17.561c0.235-0.561,0.451-1.137,0.601-1.725
		c1.348-5.278,6.354-7.401,11.289-5.116c2.553,1.182,3.278,3.339,4.172,5.539c1.422,3.501,2.733,7.047,4.225,10.518
		C165.438,164.01,166.314,164.692,167.123,165.659z"/>
	<path fill-rule="evenodd" clip-rule="evenodd" d="M161.623,131.91c0.399,2.786,0.752,5.237,1.14,7.936
		c-0.699,0.863-1.352,0.293-1.646-0.705c-0.527-1.784-1.117-3.6-1.252-5.436c-0.15-2.027-0.621-3.593-2.513-4.66
		c-1.186-0.668-2.486-1.533-1.611-3.382c1.544-0.815,2.582,0.415,3.73,1.071c1.929,1.102,3.826,2.26,5.696,3.46
		c0.592,0.381,1.053,0.968,1.573,1.462c-0.104,0.221-0.207,0.442-0.31,0.663C165.035,132.201,163.642,132.082,161.623,131.91z"/>
	<path fill-rule="evenodd" clip-rule="evenodd" d="M148.264,128.37c-0.426,0.897-0.588,1.922-1.186,2.373
		c-1.858,1.406-2.021,3.309-1.798,5.291c0.349,3.108-0.854,5.732-2.354,8.268c-0.215,0.363-0.966,0.407-1.889,0.758
		c0.558-1.884,1.155-3.172,1.285-4.505c0.211-2.156,0.072-4.345,0.169-6.516c0.047-1.042,0.038-2.211,0.502-3.086
		C144.561,127.996,145.751,127.45,148.264,128.37z"/>
	<path fill-rule="evenodd" clip-rule="evenodd" d="M184.862,192.692c0.235-1.759,0.398-3.042,0.583-4.32
		c0.043-0.301,0.285-0.63,0.215-0.883c-0.714-2.547,0.736-4.593,1.479-6.815c0.715-2.135,3.215-3.181,5.192-2.071
		c1.066,0.599,1.201,2.218,0.001,2.685c-3.437,1.334-4.153,4.223-4.848,7.316C187.176,189.982,187.103,191.676,184.862,192.692z"/>
	<path fill-rule="evenodd" clip-rule="evenodd" d="M110.713,173.398c-1.021,2.584-3.24,3.065-5.125,3.568
		c-2.107,0.562-3.968,1.796-6.352,1.796c-1.494,0-2.967,1.433-4.491,2.135c-0.549,0.252-1.217,0.247-1.923,0.138
		c1.579-1.662,2.947-3.506,5.432-3.831c0.4-0.053,0.742-0.495,1.127-0.734c0.45-0.277,0.946-0.795,1.373-0.748
		c3.15,0.343,5.771-1.401,8.657-2.067C109.754,173.574,110.103,173.518,110.713,173.398z"/>
	<path fill-rule="evenodd" clip-rule="evenodd" d="M113.261,194.549c-0.564-0.716-1.342-1.349-1.655-2.161
		c-1.224-3.168-2.892-5.934-5.961-7.638c-0.265-0.147-0.62-0.288-0.729-0.525c-0.196-0.43-0.239-0.931-0.346-1.401
		c0.461-0.101,1.091-0.444,1.355-0.262c1.787,1.24,3.862,2.312,5.139,3.977c1.674,2.185,2.373,4.962,2.631,7.741
		C113.55,194.369,113.406,194.459,113.261,194.549z"/>
	<path fill-rule="evenodd" clip-rule="evenodd" d="M108.12,179.306c3.057-4.008,8.074-4.839,11.64-7.899
		c0.835,1.495,0.335,2.597-1.133,3.457c-1.829,1.073-3.719,2.103-5.352,3.432C111.71,179.571,110.173,180.012,108.12,179.306z"/>
	<path fill-rule="evenodd" clip-rule="evenodd" d="M151.274,205.757c0.59-2.099,0.573-4.135-0.913-6.1
		c-0.748-0.99,0.246-2.065,1.516-1.844c2.713,0.473,3.241,1.653,2.142,4.13c-0.453,1.018-0.453,2.252-0.568,3.396
		c-0.13,1.261-0.108,2.537-0.266,3.792c-0.036,0.287-0.542,0.514-0.831,0.769c-0.206-0.266-0.539-0.505-0.596-0.799
		C151.553,208.035,151.439,206.95,151.274,205.757z"/>
	<path fill-rule="evenodd" clip-rule="evenodd" d="M200.733,175.633c-0.163,0.674-0.271,1.116-0.384,1.577
		c-4.501,0.402-7.825-2.019-10.757-5.684c0.942,0.113,1.96,0.036,2.812,0.376c1.722,0.688,3.338,1.635,5.025,2.412
		C198.534,174.821,199.688,175.22,200.733,175.633z"/>
	<path fill-rule="evenodd" clip-rule="evenodd" d="M111.726,182.688c1.185-0.854,2.403-1.716,3.603-2.604
		c0.821-0.607,1.577-1.314,2.443-1.845c0.331-0.203,0.939-0.16,1.315,0.008c0.175,0.079,0.272,0.836,0.107,1.091
		c-1.102,1.691-2.125,3.49-3.539,4.887c-0.413,0.408-2.037-0.299-3.047-0.657C112.166,183.41,111.871,182.841,111.726,182.688z"/>
	<path fill-rule="evenodd" clip-rule="evenodd" d="M188.678,192.83c0.101-0.58,0.084-1.218,0.326-1.733
		c1.181-2.524,2.343-5.068,3.728-7.481c0.314-0.548,1.492-0.602,2.274-0.882c-0.143,0.751-0.104,1.605-0.461,2.235
		c-1.165,2.06-2.455,4.051-3.739,6.041c-0.47,0.727-1.063,1.374-1.598,2.058C189.03,192.988,188.854,192.91,188.678,192.83z"/>
	<path fill-rule="evenodd" clip-rule="evenodd" d="M119.643,195.053c-0.812-3.359-1.624-6.72-2.449-10.135
		c3.3-0.234,3.652,0.044,3.544,2.816c-0.097,2.48-0.304,4.957-0.463,7.435C120.064,195.131,119.854,195.092,119.643,195.053z"/>
	<path fill-rule="evenodd" clip-rule="evenodd" d="M83.16,173.242c-3.631,0.816-4.325-3.615-7.257-3.104
		c0.133-0.337,0.356-0.622,0.288-0.785c-0.254-0.608-0.699-1.15-0.876-1.772c-0.078-0.276,0.241-0.783,0.521-0.997
		c0.163-0.123,0.687,0.034,0.917,0.225c1.902,1.575,3.799,3.158,5.634,4.809C82.755,171.948,82.855,172.575,83.16,173.242z"/>
	<path fill-rule="evenodd" clip-rule="evenodd" d="M193.947,106.044c-2.934,1.852-5.638,3.869-9.262,4.049
		C186.898,106.543,192.066,104.222,193.947,106.044z"/>
	<path fill-rule="evenodd" clip-rule="evenodd" d="M123.433,197.083c-0.225,3.222-0.444,6.381-0.663,9.539
		c-0.285,0.031-0.571,0.062-0.856,0.093c-0.249-1.196-0.557-2.385-0.729-3.592c-0.163-1.14-0.15-2.305-0.273-3.453
		C120.669,197.394,120.652,197.396,123.433,197.083z"/>
	<path fill-rule="evenodd" clip-rule="evenodd" d="M233.74,69.871c2.399,0.185,6.432,6.019,6.592,9.289
		C237.577,76.301,235.618,73.281,233.74,69.871z"/>
	<path fill-rule="evenodd" clip-rule="evenodd" d="M175.292,195.984c-1.538,1.826-3.009,3.722-4.663,5.436
		c-0.451,0.467-1.464,0.391-2.466,0.62C169.204,199.525,173.515,195.458,175.292,195.984z"/>
	<path fill-rule="evenodd" clip-rule="evenodd" d="M185.473,193.99c1.3,1.899,1.375,5.944,0.171,7.693
		c-0.153,0.222-0.448,0.465-0.687,0.474c-0.225,0.007-0.672-0.298-0.661-0.436c0.214-2.516,0.479-5.027,0.75-7.538
		C185.052,194.126,185.247,194.089,185.473,193.99z"/>
	<path fill-rule="evenodd" clip-rule="evenodd" d="M94.292,30.902c3.499-2.034,6.898-4.313,11.026-4.816
		c0.097,0.228,0.194,0.456,0.291,0.684c-3.679,1.612-7.355,3.224-11.033,4.836C94.481,31.372,94.387,31.137,94.292,30.902z"/>
	<path fill-rule="evenodd" clip-rule="evenodd" d="M68.798,66.959c-1.589,2.505-3.177,5.01-4.928,7.771
		C62.99,71.841,65.945,66.797,68.798,66.959z"/>
	<path fill-rule="evenodd" clip-rule="evenodd" d="M97.898,34.1c-1.946,3.05-4.959,4.194-8.333,4.705
		C92.031,36.697,94.533,34.656,97.898,34.1z"/>
	<path fill-rule="evenodd" clip-rule="evenodd" d="M69.935,71c0.891,3.745-2.234,5.641-3.783,8.272
		C65.865,75.833,68.361,73.626,69.935,71z"/>
	<path fill-rule="evenodd" clip-rule="evenodd" d="M81.569,63.112c2.059-2.352,3.39-5.147,6.667-5.813
		C87.866,59.522,83.517,63.56,81.569,63.112z"/>
	<path fill-rule="evenodd" clip-rule="evenodd" d="M137.207,126.752c-1.088-3.479,1.984-4.743,3.075-7.034
		c1.492,0.889,1.509,0.901,0.579,2.167C139.659,123.519,138.426,125.131,137.207,126.752z"/>
	<path fill-rule="evenodd" clip-rule="evenodd" d="M195.367,190.052c1.834-3.913,4.388-5.846,6.556-4.301
		c-2.149,1.639-4.173,3.181-6.194,4.722C195.607,190.332,195.487,190.192,195.367,190.052z"/>
	<path fill-rule="evenodd" clip-rule="evenodd" d="M80.385,55.454c0.001,1.599-1.727,4.421-3.146,4.892
		c-0.285,0.095-1.13-0.458-1.133-0.72C76.083,57.91,78.625,55.512,80.385,55.454z"/>
	<path fill-rule="evenodd" clip-rule="evenodd" d="M104.503,188.302c-2.742-0.434-4.681-1.86-6.508-3.495
		c0.031-0.188,0.063-0.375,0.095-0.563c0.877,0.143,1.822,0.124,2.622,0.455C103.709,185.938,104.36,186.573,104.503,188.302z"/>
	<path fill-rule="evenodd" clip-rule="evenodd" d="M169.212,98.797c2.04-2.996,3.948-4.622,5.864-4.997
		C175.001,96.445,172.017,98.986,169.212,98.797z"/>
	<path fill-rule="evenodd" clip-rule="evenodd" d="M162.693,124.368c0.785,0.119,1.606,0.133,2.348,0.382
		c0.962,0.324,1.671,1.386,2.933,0.885c0.141-0.056,0.563,0.598,0.854,0.923c-0.438,0.352-0.855,0.967-1.321,1.007
		C165.921,127.7,163.582,126.333,162.693,124.368z"/>
	<path fill-rule="evenodd" clip-rule="evenodd" d="M224.663,58.13c1.839,0.053,5.848,3.911,6.53,6.286
		C229.584,64.115,226.253,60.91,224.663,58.13z"/>
	<path fill-rule="evenodd" clip-rule="evenodd" d="M71.394,158.325c1.418,2.432,3.21,4.157,3.454,6.639
		C72.405,164.022,70.96,161.251,71.394,158.325z"/>
	<path fill-rule="evenodd" clip-rule="evenodd" d="M128.192,92.262c-0.085-1.407,1.054-1.721,2.254-1.771
		c1.289-0.055,2.474,0.334,2.689,1.832c0.043,0.303-0.659,1.048-0.91,1.002C130.892,93.082,129.594,92.652,128.192,92.262z"/>
	<path fill-rule="evenodd" clip-rule="evenodd" d="M224.818,50.265c2.846,0.433,3.809,3.01,5.711,4.682
		C227.962,54.835,225.659,52.914,224.818,50.265z"/>
	<path fill-rule="evenodd" clip-rule="evenodd" d="M119.677,106.309c2.414,1.624,3.248,3.02,2.947,4.937
		C119.156,109.053,118.337,107.68,119.677,106.309z"/>
	<path fill-rule="evenodd" clip-rule="evenodd" d="M70.436,187.421c3.641-0.015,4.024,0.207,4.576,2.653
		C73.078,190.686,70.913,189.431,70.436,187.421z"/>
	<path fill-rule="evenodd" clip-rule="evenodd" d="M135.472,202.413c-1.401-1.491-2.818-2.969-4.178-4.495
		c-0.143-0.16-0.06-0.765,0.119-0.904c0.211-0.163,0.807-0.187,0.95-0.022c1.328,1.519,2.594,3.092,3.877,4.649
		C135.985,201.897,135.728,202.155,135.472,202.413z"/>
	<path fill-rule="evenodd" clip-rule="evenodd" d="M163.604,79.829c-0.676,2.767-2.403,4.177-4.657,5.679
		C159.571,82.69,161.142,81.146,163.604,79.829z"/>
	<path fill-rule="evenodd" clip-rule="evenodd" d="M169.09,152.488c0.894,1.531,1.691,2.847,2.421,4.2
		c0.141,0.262,0.102,0.716-0.035,0.991c-0.078,0.159-0.559,0.252-0.793,0.175C169.592,157.497,168.377,154,169.09,152.488z"/>
	<path fill-rule="evenodd" clip-rule="evenodd" d="M165.866,146.576c-2.2-1.033-2.623-3.024-3.112-5.018
		C164.735,141.333,164.735,141.333,165.866,146.576z"/>
	<path fill-rule="evenodd" clip-rule="evenodd" d="M233.427,145.296c2.234,0.071,2.763,1.391,1.778,4.33
		C233.387,148.681,233.634,146.993,233.427,145.296z"/>
	<path fill-rule="evenodd" clip-rule="evenodd" d="M140.262,146.451c1.58,2.241,0.77,4.274-2.222,5.163
		C138.816,149.81,139.534,148.142,140.262,146.451z"/>
	<path fill-rule="evenodd" clip-rule="evenodd" d="M122.214,211.98c-0.235-0.94-0.628-1.88-0.632-2.821
		c-0.002-0.399,0.812-0.803,1.255-1.205c0.288,0.435,0.854,0.899,0.809,1.296c-0.104,0.932-0.501,1.831-0.78,2.742
		C122.649,211.989,122.431,211.984,122.214,211.98z"/>
	<path fill-rule="evenodd" clip-rule="evenodd" d="M218.886,188.291c-0.835-0.664-1.505-1.197-2.175-1.729
		c0.33-0.314,0.776-0.956,0.97-0.888c1.015,0.359,1.966,0.897,2.938,1.374C220.146,187.388,219.672,187.727,218.886,188.291z"/>
	<path fill-rule="evenodd" clip-rule="evenodd" d="M226.323,171.231c-1.18,0.864-2.36,1.727-3.822,2.798
		c-0.146-2.446,1.451-3.683,3.46-3.354C226.081,170.86,226.203,171.046,226.323,171.231z"/>
	<path fill-rule="evenodd" clip-rule="evenodd" d="M75.209,184.453c1.738,0.449,3.127,1.006,3.586,2.83
		C75.999,187.575,75.475,187.175,75.209,184.453z"/>
	<path fill-rule="evenodd" clip-rule="evenodd" d="M230.318,188.215c0.69-3.112,1.35-3.64,3.558-3.089
		C233.697,187.184,231.869,187.194,230.318,188.215z"/>
	<path fill-rule="evenodd" clip-rule="evenodd" d="M80.606,49.114c-0.521,1.849-1.574,2.666-3.801,3.051
		C77.147,50.181,78.297,49.22,80.606,49.114z"/>
	<path fill-rule="evenodd" clip-rule="evenodd" d="M238.894,183.714c-0.358,0.558-0.537,1.057-0.889,1.327
		c-0.509,0.39-1.145,0.614-1.727,0.909c-0.132-0.484-0.528-1.176-0.343-1.414c0.466-0.601,1.165-1.048,1.842-1.434
		C237.934,183.013,238.371,183.416,238.894,183.714z"/>
	<path fill-rule="evenodd" clip-rule="evenodd" d="M231.617,166.279c-0.778,1.331-1.558,2.663-2.48,4.24
		C228.083,168.665,229.264,166.689,231.617,166.279z"/>
	<path fill-rule="evenodd" clip-rule="evenodd" d="M167.921,85.769c1.293-1.154,2.585-2.309,4.211-3.761
		c-0.229,2.781-1.965,3.54-3.688,4.308C168.269,86.133,168.096,85.951,167.921,85.769z"/>
	<path fill-rule="evenodd" clip-rule="evenodd" d="M140.406,95.651c-2.231,0.463-3.388-0.265-3.698-2.175
		C138.594,92.971,139.333,94.378,140.406,95.651z"/>
	<path fill-rule="evenodd" clip-rule="evenodd" d="M179.623,176.468c-0.574-1.449-1.148-2.899-1.699-4.292
		c1.966,0.426,2.66,1.58,2.327,4.023C180.042,176.288,179.832,176.378,179.623,176.468z"/>
	<path fill-rule="evenodd" clip-rule="evenodd" d="M201.307,176.367c1.394-1.924,2.079-1.86,4.534,0
		C204.179,176.367,202.743,176.367,201.307,176.367z"/>
	<path fill-rule="evenodd" clip-rule="evenodd" d="M159.479,121.676c2.929,0.179,3.075,0.277,3.233,2.093
		C160.997,124.015,160.253,123.559,159.479,121.676z"/>
	<path fill-rule="evenodd" clip-rule="evenodd" d="M229.642,191.113c-1.298-0.525-2.317-0.937-3.339-1.35
		c0.315-0.279,0.651-0.814,0.943-0.792C228.219,189.046,229.744,188.346,229.642,191.113z"/>
	<path fill-rule="evenodd" clip-rule="evenodd" d="M182.313,167.454c1.149,0.894,2.299,1.788,3.449,2.683
		c-0.09,0.211-0.18,0.421-0.27,0.631c-0.773-0.285-1.669-0.416-2.285-0.901c-0.622-0.488-0.966-1.328-1.432-2.015
		C181.956,167.72,182.134,167.587,182.313,167.454z"/>
	<path fill-rule="evenodd" clip-rule="evenodd" d="M84.375,108.608c-1.182,0.941-2.364,1.882-3.691,2.939
		C80.695,109.27,82.181,107.93,84.375,108.608z"/>
	<path fill-rule="evenodd" clip-rule="evenodd" d="M152.31,129.007c-0.906-0.735-1.583-1.27-2.238-1.83
		c-0.183-0.156-0.456-0.528-0.422-0.566c0.364-0.413,0.738-0.981,1.2-1.083c0.28-0.062,0.897,0.558,1.053,0.983
		C152.157,127.207,152.161,127.995,152.31,129.007z"/>
	<path fill-rule="evenodd" clip-rule="evenodd" d="M79.182,188.744c1.137,0.708,1.993,1.24,2.849,1.774
		c-0.301,0.35-0.672,1.039-0.892,0.995C80.039,191.289,78.927,190.918,79.182,188.744z"/>
	<path fill-rule="evenodd" clip-rule="evenodd" d="M71.283,143.78c-0.26,1.244-0.455,2.172-0.649,3.101
		c-0.425-0.321-1.005-0.554-1.245-0.979C68.702,144.686,69.403,144.152,71.283,143.78z"/>
	<path fill-rule="evenodd" clip-rule="evenodd" d="M142.173,95.069c0.893,1.054,1.52,1.794,2.146,2.535
		c-0.391,0.186-0.84,0.599-1.163,0.518C141.983,97.826,141.36,97.094,142.173,95.069z"/>
	<path fill-rule="evenodd" clip-rule="evenodd" d="M232.458,164.066c0.142-1.214,0.268-2.298,0.433-3.707
		c0.423,0.542,1.253,1.13,1.258,1.726C234.154,162.831,234.475,164.295,232.458,164.066z"/>
	<path fill-rule="evenodd" clip-rule="evenodd" d="M113.722,105.493c2.087-0.883,3.26-0.009,3.302,2.31
		C115.874,106.998,114.951,106.353,113.722,105.493z"/>
	<path fill-rule="evenodd" clip-rule="evenodd" d="M196.002,106.942c0.055-0.416,0.012-0.68,0.112-0.755
		c0.769-0.579,1.564-1.119,2.354-1.672c0.135,0.294,0.461,0.681,0.371,0.866C198.306,106.48,197.501,107.207,196.002,106.942z"/>
	<path fill-rule="evenodd" clip-rule="evenodd" d="M217.835,45.779c2.307-0.452,2.713-0.103,3.047,2.644
		C219.945,47.61,219.009,46.797,217.835,45.779z"/>
	<path fill-rule="evenodd" clip-rule="evenodd" d="M212.643,39.552c0.144,0.761,0.289,1.522,0.549,2.894
		c-1.075-0.429-1.695-0.678-2.315-0.926c0.315-0.692,0.63-1.384,0.944-2.075C212.095,39.48,212.369,39.516,212.643,39.552z"/>
	<path fill-rule="evenodd" clip-rule="evenodd" d="M87.99,91.235c-1.262,0.543-1.989,0.855-2.716,1.169
		c-0.132-0.131-0.265-0.261-0.397-0.391c0.435-0.756,0.869-1.511,1.304-2.268C86.684,90.16,87.187,90.574,87.99,91.235z"/>
	<path fill-rule="evenodd" clip-rule="evenodd" d="M65.659,176.215c0.617,1.213,1,1.966,1.383,2.719
		c-0.808-0.062-1.616-0.123-2.678-0.204C64.81,177.864,65.069,177.36,65.659,176.215z"/>
	<path fill-rule="evenodd" clip-rule="evenodd" d="M218.112,99.612c0.826-0.663,1.406-1.129,1.986-1.595
		c0.227,0.509,0.73,1.082,0.63,1.515C220.39,100.981,219.509,100.451,218.112,99.612z"/>
	<path fill-rule="evenodd" clip-rule="evenodd" d="M83.258,97.218c0.554-0.523,1.108-1.046,1.664-1.57
		c0.304,0.344,0.606,0.688,0.91,1.032c-0.569,0.492-1.138,0.984-1.707,1.476C83.836,97.843,83.547,97.531,83.258,97.218z"/>
	<path fill-rule="evenodd" clip-rule="evenodd" d="M209.889,176.89c-0.934-0.125-1.867-0.25-2.801-0.374
		c0.058-0.389,0.142-1.116,0.169-1.113c0.934,0.071,1.863,0.212,2.792,0.344C209.995,176.127,209.942,176.508,209.889,176.89z"/>
	<path fill-rule="evenodd" clip-rule="evenodd" d="M137.658,152.707c-0.326,0.87-0.652,1.739-1.13,3.019
		c-0.528-0.612-1.184-1.185-1.105-1.313c0.466-0.774,1.102-1.446,1.682-2.152C137.288,152.409,137.473,152.558,137.658,152.707z"/>
	<path fill-rule="evenodd" clip-rule="evenodd" d="M161.49,214.415c-0.638,0.352-1.274,0.702-1.911,1.054
		c-0.091-0.603-0.183-1.205-0.271-1.807c0.634-0.057,1.27-0.113,1.905-0.171C161.305,213.8,161.398,214.108,161.49,214.415z"/>
	<path fill-rule="evenodd" clip-rule="evenodd" d="M164.697,101c1.012-1.1,1.766-1.92,2.803-3.046
		C167.638,100.34,166.917,101.075,164.697,101z"/>
	<path fill-rule="evenodd" clip-rule="evenodd" d="M88.97,107.679c0.549-1.425,1.186-2.395,2.862-2.022
		C91.433,107.083,90.927,108.211,88.97,107.679z"/>
	<path fill-rule="evenodd" clip-rule="evenodd" d="M180.994,94.468c-0.625-0.181-1.252-0.363-1.879-0.544
		c0.297-0.59,0.594-1.18,0.891-1.771c0.473,0.558,0.945,1.116,1.418,1.674C181.281,94.041,181.139,94.255,180.994,94.468z"/>
	<path fill-rule="evenodd" clip-rule="evenodd" d="M242.185,179.629c-0.535,0.502-0.922,0.861-1.374,1.284
		c-0.445-0.386-0.826-0.716-1.266-1.096c0.428-0.492,0.848-0.974,1.373-1.578C241.33,178.689,241.7,179.097,242.185,179.629z"/>
	<path fill-rule="evenodd" clip-rule="evenodd" d="M167.576,73.976c1.112,1.781,0.762,2.37-1.9,2.836
		C166.446,75.662,166.969,74.882,167.576,73.976z"/>
	<path fill-rule="evenodd" clip-rule="evenodd" d="M131.874,161.794c-0.249,1.431-0.735,2.377-2.631,1.808
		C129.868,162.444,130.125,161.186,131.874,161.794z"/>
	<path fill-rule="evenodd" clip-rule="evenodd" d="M159.384,114.365c0.869,0.639,1.241,0.913,2.17,1.596
		c-1.217,0.423-1.998,0.696-2.78,0.968C158.944,116.207,159.117,115.485,159.384,114.365z"/>
	<path fill-rule="evenodd" clip-rule="evenodd" d="M69.055,186.291c-0.665-0.8-1.328-1.6-2.193-2.641
		c1.989-0.03,2.127,0.104,2.737,2.177C69.417,185.981,69.236,186.136,69.055,186.291z"/>
	<path fill-rule="evenodd" clip-rule="evenodd" d="M132.953,208.741c-0.568,0.397-1.11,0.851-1.729,1.138
		c-0.114,0.053-0.543-0.572-0.826-0.884c0.642-0.399,1.285-0.798,1.926-1.197C132.534,208.112,132.743,208.427,132.953,208.741z"/>
	<path fill-rule="evenodd" clip-rule="evenodd" d="M225.348,190.683c-1.618,0.184-2.803,0.237-3.239-1.463
		C223.784,188.224,224.199,189.912,225.348,190.683z"/>
	<path fill-rule="evenodd" clip-rule="evenodd" d="M69.782,179.777c0.855,0.707,1.565,1.295,2.466,2.039
		C70.057,182.486,69.457,181.963,69.782,179.777z"/>
	<path fill-rule="evenodd" clip-rule="evenodd" d="M152.317,211.718c1.413,1.726,1.208,2.308-0.832,2.936
		C151.809,213.515,152.062,212.616,152.317,211.718z"/>
	<path fill-rule="evenodd" clip-rule="evenodd" d="M128.662,178.927c-0.476,0.668-0.927,1.356-1.46,1.975
		c-0.067,0.078-0.564-0.213-0.861-0.332c0.518-0.736,1.035-1.473,1.552-2.209C128.149,178.55,128.406,178.738,128.662,178.927z"/>
	<path fill-rule="evenodd" clip-rule="evenodd" d="M164.954,117.769c1.005,0.51,1.751,0.888,2.801,1.42
		C165.607,120.172,165.248,119.989,164.954,117.769z"/>
	<path fill-rule="evenodd" clip-rule="evenodd" d="M208.274,38.714c-0.147-1.156-0.256-2.006-0.409-3.215
		C209.928,36.786,209.987,37.227,208.274,38.714z"/>
	<path fill-rule="evenodd" clip-rule="evenodd" d="M151.425,218.715c0.423-0.58,0.846-1.16,1.268-1.741
		c0.298,0.229,0.878,0.625,0.856,0.661c-0.369,0.614-0.813,1.184-1.24,1.764C152.015,219.171,151.72,218.942,151.425,218.715z"/>
	<path fill-rule="evenodd" clip-rule="evenodd" d="M170.187,209.696c0.505,0.551,1.088,1.055,1.455,1.686
		c0.086,0.147-0.553,0.719-0.857,1.095c-0.212-0.382-0.465-0.747-0.618-1.15c-0.121-0.311-0.117-0.671-0.169-1.009
		C170.062,210.11,170.124,209.903,170.187,209.696z"/>
	<path fill-rule="evenodd" clip-rule="evenodd" d="M82.379,83.811c0.68-0.12,1.187-0.208,2.034-0.357
		c-0.396,1.006-0.725,1.838-1.054,2.671c-0.212-0.035-0.426-0.068-0.64-0.102C82.604,85.268,82.487,84.513,82.379,83.811z"/>
	<path fill-rule="evenodd" clip-rule="evenodd" d="M187.001,207.932c-0.848,0.662-1.568,1.479-1.804,1.358
		c-0.585-0.303-0.95-1.033-1.15-1.917C184.842,207.523,185.636,207.674,187.001,207.932z"/>
	<path fill-rule="evenodd" clip-rule="evenodd" d="M104.394,259.07c1.602-0.301,5.301,3.108,6.983,6.307
		C108.849,266.069,105.349,262.965,104.394,259.07z"/>
	<path fill-rule="evenodd" clip-rule="evenodd" d="M130.699,274.588c-1.037,1.065-2.069,1.342-3.362,0.122
		c-0.583-0.549-1.576-0.634-2.288-1.081c-1.291-0.812-2.511-1.736-3.624-2.879c2.017-1.168,3.367,0.248,4.791,0.983
		C127.744,272.522,129.136,273.577,130.699,274.588z"/>
	<path fill-rule="evenodd" clip-rule="evenodd" d="M192.363,269.758c1.604-2.814,3.386-4.896,5.865-6.326
		c0.301-0.174,0.79-0.022,1.191-0.021c-0.073,0.544,0.048,1.252-0.251,1.604C197.455,267.049,195.771,269.176,192.363,269.758z"/>
	<path fill-rule="evenodd" clip-rule="evenodd" d="M98.914,263.885c-1.055-0.321-1.725-0.525-1.976-0.602
		c-0.642-0.969-1.232-1.701-1.643-2.522c-0.437-0.875-0.728-1.828-1.003-2.77c-0.025-0.083,0.737-0.543,0.797-0.484
		c0.738,0.721,1.563,1.419,2.067,2.294C97.835,260.977,98.251,262.303,98.914,263.885z"/>
	<path fill-rule="evenodd" clip-rule="evenodd" d="M184.861,272.024c-1.332,1.628-2.728,3.139-5.131,2.969
		C181.187,273.592,182.27,271.609,184.861,272.024z"/>
	<path fill-rule="evenodd" clip-rule="evenodd" d="M91.708,257.605c-0.71-1.686-1.421-3.37-2.199-5.214
		C91.618,252.729,92.896,255.459,91.708,257.605z"/>
	<path fill-rule="evenodd" clip-rule="evenodd" d="M214.449,246.342c-0.813,1.903-1.449,3.396-2.27,5.319
		C210.961,248.833,211.739,247.033,214.449,246.342z"/>
	<path fill-rule="evenodd" clip-rule="evenodd" d="M215.224,253.283c0.394,2.791-0.663,4.532-3.535,5.771
		C212.779,257.274,213.869,255.495,215.224,253.283z"/>
	<path fill-rule="evenodd" clip-rule="evenodd" d="M196.818,255.511c-0.413,1.962-1.613,2.854-3.314,2.576
		C194.523,255.619,194.584,255.571,196.818,255.511z"/>
	<path fill-rule="evenodd" clip-rule="evenodd" d="M169.454,280.653c-1.409,0.619-2.818,1.239-4.499,1.979
		C165.225,280.636,167.462,279.628,169.454,280.653z"/>
	<path fill-rule="evenodd" clip-rule="evenodd" d="M158.921,282.877c2.136-2.921,2.9-3.08,4.553-0.813
		C161.931,282.339,160.627,282.572,158.921,282.877z"/>
	<path fill-rule="evenodd" clip-rule="evenodd" d="M215.561,242.645c0.444-2.112,0.784-3.729,1.124-5.348
		C217.993,239.32,217.645,240.846,215.561,242.645z"/>
	<path fill-rule="evenodd" clip-rule="evenodd" d="M152.648,281.379c1.229-0.554,2.458-1.106,3.687-1.66
		c0.129,0.143,0.259,0.285,0.389,0.428c-0.708,0.67-1.329,1.496-2.155,1.952c-0.496,0.275-1.31-0.025-1.982-0.067
		C152.607,281.813,152.627,281.596,152.648,281.379z"/>
	<path fill-rule="evenodd" clip-rule="evenodd" d="M158.735,269.234c0.521-0.563,0.968-1.232,1.586-1.652
		c0.403-0.273,1.052-0.184,1.592-0.257c-0.188,0.58-0.206,1.424-0.604,1.682c-0.646,0.421-1.54,0.457-2.33,0.655
		C158.897,269.52,158.816,269.377,158.735,269.234z"/>
	<path fill-rule="evenodd" clip-rule="evenodd" d="M189.211,262.591c-0.62-0.795-0.971-1.244-1.321-1.693
		c0.556-0.369,1.079-0.926,1.681-1.03c0.319-0.056,1.164,0.801,1.092,1.026C190.489,261.425,189.911,261.825,189.211,262.591z"/>
	<path fill-rule="evenodd" clip-rule="evenodd" d="M110.538,255.815c-1.636-0.385-2.444-1.442-2.602-3.408
		C109.192,252.703,109.192,252.703,110.538,255.815z"/>
	<path fill-rule="evenodd" clip-rule="evenodd" d="M86.028,247.177c-0.125-1.493-0.251-2.986-0.393-4.652
		c1.618,1.406,1.914,3.006,1.002,4.611C86.435,247.149,86.231,247.164,86.028,247.177z"/>
	<path fill-rule="evenodd" clip-rule="evenodd" d="M180.404,262.116c-0.068-1.769,1.06-2.178,2.519-2.32
		C182.869,261.943,182.342,262.407,180.404,262.116z"/>
	<path fill-rule="evenodd" clip-rule="evenodd" d="M138.267,268.031c-0.452,0.529-0.903,1.061-1.354,1.591
		c-0.333-0.354-0.665-0.708-0.998-1.063c0.5-0.46,1-0.919,1.499-1.379C137.697,267.463,137.982,267.747,138.267,268.031z"/>
	<path fill-rule="evenodd" clip-rule="evenodd" d="M178.959,263.712c-0.295,0.634-0.494,1.354-0.942,1.85
		c-0.135,0.147-0.968-0.342-1.48-0.539c0.49-0.621,0.979-1.242,1.469-1.862C178.323,263.345,178.641,263.528,178.959,263.712z"/>
	<path fill-rule="evenodd" clip-rule="evenodd" d="M133.151,274.12c1.105,0.514,2.211,1.027,3.316,1.542
		c-1.836,1.118-2.592-0.174-3.554-1.005C132.993,274.478,133.072,274.3,133.151,274.12z"/>
	<path fill-rule="evenodd" clip-rule="evenodd" fill="#FFFFFF" d="M222.603,147.238c0-1.364,0-2.729,0-4.093
		c0.217-0.002,0.433-0.004,0.649-0.006c0,1.325,0.005,2.65-0.03,3.974c-0.001,0.035-0.429,0.058-0.657,0.086L222.603,147.238z"/>
</g>
<g>
</g>
<g>
</g>
<g>
</g>
<g>
</g>
<g>
</g>
<g>
</g>
</svg>
