<?xml version="1.0" encoding="utf-8"?>
<!-- Generator: Adobe Illustrator 16.0.0, SVG Export Plug-In . SVG Version: 6.00 Build 0)  -->
<!DOCTYPE svg PUBLIC "-//W3C//DTD SVG 1.1//EN" "http://www.w3.org/Graphics/SVG/1.1/DTD/svg11.dtd">
<svg version="1.1" id="Layer_1" xmlns="http://www.w3.org/2000/svg" xmlns:xlink="http://www.w3.org/1999/xlink" x="0px" y="0px"
	 width="300px" height="300px" viewBox="0 0 300 300" enable-background="new 0 0 300 300" xml:space="preserve">
<g transform="translate(0,0)">
	<path fill="#000000" d="M143.903,0c-43.113,2.877-75.568,39.126-75.568,83.405c0,10.878,2.055,21.291,5.805,30.817
		c3.824,9.71,8.774,20.965,47.883,58.044l11.408-6.664c-0.732-2.076-1.104-4.262-1.099-6.463c0-9.184,6.383-16.859,14.904-18.771
		v-13.33c-32.998-2.041-59.197-29.689-59.197-63.537C88.038,30.2,111.662,2.819,143.903,0L143.903,0z M151.373,80.457
		c-17.375,0-33.43,5.722-46.418,15.398c3.994,5.663,8.958,10.638,14.594,14.612c9.141-6.059,20.076-9.594,31.825-9.594
		c12.388,0,23.879,3.925,33.307,10.602c8.278-2.021,16.643-3.641,25.122-4.541C195.465,90.698,174.606,80.457,151.373,80.457z
		 M217.383,113.141c-10.354,0.18-27.124,2.955-62.42,13.733v13.295c2.092,0.384,4.15,1.153,6.097,2.289
		c7.871,4.589,11.265,14,8.643,22.412l11.426,6.664c18.249-27.85,55.049-36.937,84.064-20.012
		c28.545,16.648,40.198,51.002,26.494,80.621c19.091-39.16,4.248-85.692-33.709-107.832c-9.326-5.438-19.275-8.845-29.315-10.327
		c-3.199-0.472-6.572-0.923-11.279-0.841V113.141z M77.069,134.71c-6.75,20.663-5.098,44.036,6.519,64.362
		c8.688,15.201,21.613,26.396,36.401,32.924c2.868-6.354,4.64-13.145,5.238-20.088c-9.765-4.967-18.259-12.754-24.135-23.035
		c-6.193-10.838-8.572-22.854-7.562-34.441C87.658,148.199,82.081,141.68,77.069,134.71L77.069,134.71z M229.213,150.879
		c-6.875,0.666-13.584,2.512-19.831,5.457c0.625,11.027-1.816,22.367-7.69,32.646c-6.194,10.84-15.289,18.932-25.727,23.842
		c-2.405,8.254-5.211,16.375-8.68,24.244c21.088-4.426,40.294-17.559,51.911-37.885C227.884,183.98,231.013,167.08,229.213,150.879
		L229.213,150.879z M165.967,171.588c-1.377,1.639-3.07,3.059-5.018,4.193c-7.87,4.59-17.648,2.857-23.547-3.645l-11.408,6.648
		c14.75,29.891,4.132,66.645-24.884,83.568c-28.546,16.65-63.822,9.662-82.36-17.139c24.022,36.281,71.338,46.566,109.295,24.428
		c9.325-5.439,17.203-12.445,23.493-20.49c6.413-8.201,13.586-18.16,25.818-70.916L165.967,171.588z"/>
</g>
</svg>
