<?xml version="1.0" encoding="utf-8"?>
<!-- Generator: Adobe Illustrator 16.0.0, SVG Export Plug-In . SVG Version: 6.00 Build 0)  -->
<!DOCTYPE svg PUBLIC "-//W3C//DTD SVG 1.1//EN" "http://www.w3.org/Graphics/SVG/1.1/DTD/svg11.dtd">
<svg version="1.1" id="Layer_1" xmlns="http://www.w3.org/2000/svg" xmlns:xlink="http://www.w3.org/1999/xlink" x="0px" y="0px"
	 width="300px" height="300px" viewBox="0 0 300 300" enable-background="new 0 0 300 300" xml:space="preserve">
<g transform="translate(0,0)">
	<path d="M187.732,5.582l-44.423,54.626l-44.98-31.124l41.21,70.963c4.856-1.583,9.932-2.389,15.042-2.388
		c9.42,0,18.21,2.693,25.654,7.338l50.143-54.417l-38.195,10.72L187.732,5.582L187.732,5.582z M77.625,16.29l17.646,83.619
		L18.398,70.896l60.654,65.249l-37.598,29.645l64.812-14.928c-0.147-1.535-0.225-3.089-0.225-4.662
		c0-17.452,9.216-32.747,23.042-41.301L77.625,16.29L77.625,16.29z M273.364,38.515l-21.933,6.157l-62.223,67.528
		c8.599,8.757,13.908,20.757,13.908,34c0,0.435-0.007,0.867-0.018,1.3l49.804-2.925l-25.468-14.176L273.364,38.515L273.364,38.515z
		 M136.141,137.477c-8.257,0-14.951,6.692-14.951,14.951c0,8.257,6.694,14.952,14.951,14.952s14.953-6.695,14.953-14.952
		C151.094,144.168,144.399,137.476,136.141,137.477L136.141,137.477z M172.544,137.477c-8.257,0-14.95,6.692-14.95,14.951
		c0,8.257,6.692,14.952,14.95,14.952s14.951-6.695,14.951-14.952C187.495,144.168,180.801,137.476,172.544,137.477L172.544,137.477z
		 M271.59,154.974l-70.22,4.123c-1.353,4.92-3.477,9.595-6.293,13.85l44.462,57.096l42.469,18.731l-57.845-73.188l73.837-5.91
		l-26.41-14.699V154.974z M108.712,162.079l-88.365,20.353L4.579,194.865l85.449,12.071l-42.097,69.266l76.495-32.104l6.261-23.179
		h11.89l-6.334,23.449L162.06,299l14.851-49.843l-11.549-28.237h12.402l10.76,26.308l43.903,33.397l-7.334-50.449l-37.612-48.302
		c-1.729,1.593-3.572,3.058-5.514,4.386v25.323h-11.479v-19.519c-3.163,1.095-6.433,1.856-9.756,2.272v17.246h-11.478V194.44
		c-3.773-0.41-7.485-1.267-11.058-2.549v19.691h-11.479v-25.649C118.453,180.123,112.078,171.806,108.712,162.079L108.712,162.079z
		 M154.125,164.996l-10.269,17.118h20.539L154.125,164.996L154.125,164.996z"/>
</g>
</svg>
