<?xml version="1.0" encoding="utf-8"?>
<!-- Generator: Adobe Illustrator 16.0.0, SVG Export Plug-In . SVG Version: 6.00 Build 0)  -->
<!DOCTYPE svg PUBLIC "-//W3C//DTD SVG 1.1//EN" "http://www.w3.org/Graphics/SVG/1.1/DTD/svg11.dtd">
<svg version="1.1" xmlns="http://www.w3.org/2000/svg" xmlns:xlink="http://www.w3.org/1999/xlink" x="0px" y="0px" width="650px"
	 height="650px" viewBox="0 0 650 650" enable-background="new 0 0 650 650" xml:space="preserve">
<g id="Layer_2" display="none">
	<g display="inline">
		<path fill-rule="evenodd" clip-rule="evenodd" d="M626.043,825.159c-2.825-0.189-5.664-0.293-8.67-0.4
			c-6.784-0.242-13.8-0.494-20.857-1.82c-49.459-9.281-88.29-33.107-115.412-70.816c-21.864-30.392-31.005-64.967-27.171-102.763
			c2.121-20.909,7.739-42.192,17.68-66.979c6.241-15.559,8.12-27.477,6.284-39.854l-3.683-24.82l19.745,15.484
			c13.033,10.221,19.494,22.828,25.208,35.299c1.763-2.348,3.303-4.915,4.664-7.755c7.292-15.211,10.06-31.659,8.461-50.284
			c-0.621-7.224,0-14.162,0.69-19.996l4.443-37.591l14.703,34.881c0.372,0.882,0.666,1.707,0.925,2.434
			c0.201,0.564,0.473,1.326,0.625,1.624c0.491,0.678,0.976,1.373,1.463,2.073c1.447,2.079,2.944,4.228,4.161,5.042
			c1.249,0.837,2.574,1.316,3.637,1.316c0.816,0,1.154,0,1.326-1.408c1.219-10.01,1.103-21.357-0.357-34.692
			c-5.072-46.376,7.829-82.569,39.442-110.646c4.815-4.277,10.072-7.753,15.156-11.115c2.252-1.489,4.379-2.896,6.451-4.356
			l6.302-4.443l7.326,6.166l5.567,4.698l-2.765,6.74c-0.54,1.317-1.11,2.626-1.681,3.935c-1.094,2.512-2.128,4.885-2.856,7.158
			c-6.604,20.577-1.743,39.549,14.858,58.002c3.775,4.197,7.768,8.426,11.627,12.516c6.586,6.976,13.395,14.19,19.674,21.796
			c19.746,23.923,27.413,49.721,22.789,76.68c-0.09,0.522-0.189,1.039-0.298,1.551c17.382-11.907,24.617-34.39,21.536-67.122
			l-2.528-26.863l19.425,18.727c1.967,1.896,4.023,3.741,6.201,5.694c5.006,4.49,10.182,9.134,14.568,14.731
			c21.63,27.611,27.654,60.607,18.418,100.875c-0.936,4.082-2.127,8.007-3.278,11.803c-0.449,1.479-0.89,2.93-1.307,4.36
			c2.844-1.747,5.309-4.529,7.703-8.583c2.807-4.754,5.331-9.762,8.003-15.063c1.239-2.458,2.496-4.951,3.809-7.475l11.805-22.702
			l6.717,24.69c1.228,4.514,2.525,9.045,3.78,13.427c2.825,9.866,5.747,20.067,7.926,30.304c3.885,18.261,6.833,36.609,9.759,55.366
			c2.457,15.761-0.117,31.899-7.871,49.339c-12.877,28.943-35.146,50.469-68.084,65.813l-7.386,3.441l-4.862-6.539
			c-1.072-1.443-2.053-2.887-3-4.285c-1.835-2.705-3.568-5.26-5.472-7.025c-1.744-1.623-4.388-3.111-7.188-4.688
			c-1.492-0.84-3.035-1.709-4.586-2.676l-9.436-5.875l6.837-8.764c17.675-22.658,20.344-46.902,8.399-76.3
			c-7.394-18.192-18.335-35.744-34.598-55.242c-1.668,6.669-4.622,13.036-8.854,19.064c-8.733,12.445-21.52,21.049-40.238,27.075
			l-15.123,4.869l2.15-15.741c0.165-1.209,0.281-2.39,0.395-3.532c0.268-2.717,0.544-5.527,1.452-8.487
			c5.35-17.451,6.535-30.523,3.844-42.387c-4.016-17.676-11.207-32.66-21.785-45.266c-1.005,11.072-4.935,21.823-9.509,32.152
			c-2.02,4.562-4.221,9.031-6.351,13.352c-1.261,2.559-2.564,5.204-3.788,7.788c-4.901,10.347-5.03,20.303-0.404,31.335l8.681,20.7
			l-21.194-7.391c-0.895-0.312-1.682-0.556-2.389-0.776c-1.748-0.545-3.557-1.109-5.443-2.12
			c-15.075-8.089-31.846-11.606-49.594-15.02c0.109,0.821,0.218,1.643,0.327,2.465c1.162,8.77,2.364,17.839,4.103,26.491
			c0.501,2.493,1,4.988,1.498,7.484c3.603,18.057,7.329,36.728,12.391,54.533c9.862,34.711,29.566,59.455,60.236,75.648
			c6.939,3.66,14.066,7.42,21.343,12.633l28.556,20.461L626.043,825.159z"/>
		<path fill="#FFFFFF" d="M630.719,346.188c0.472,0.397,0.945,0.794,1.417,1.192c-1.616,3.94-3.515,7.803-4.808,11.834
			c-8.215,25.599-0.917,47.888,16.946,67.744c10.255,11.4,21.301,22.211,31.023,33.99c16.618,20.133,25.075,42.793,20.645,68.623
			c-0.708,4.121-2.272,8.112-3.407,12.171c-0.754,2.694-1.447,5.401-2.261,8.448c31.37-7.774,51.584-33.752,46.719-85.437
			c6.668,6.428,14.23,12.237,19.839,19.395c21.997,28.08,24.075,59.628,16.542,92.472c-1.877,8.191-5.013,16.143-6.65,24.366
			c-0.984,4.955-0.44,6.457,3.053,6.457c0.989,0,2.216-0.12,3.711-0.317c10.306-1.355,16.686-7.686,21.362-15.604
			c4.315-7.31,7.906-14.997,12.073-23.01c4.022,14.786,8.523,28.851,11.574,43.187c3.863,18.157,6.801,36.5,9.659,54.826
			c2.364,15.162-0.938,29.813-7.128,43.735c-11.826,26.581-32.54,46.543-63.169,60.811c-3.119-4.195-5.771-9.031-9.693-12.674
			c-3.754-3.49-8.826-5.74-13.291-8.521c21.206-27.184,22.009-56.116,9.779-86.215c-11.5-28.295-30.211-52.32-51.243-74.915
			c-0.358-0.386-0.985-0.555-2.273-1.249c3.056,13.984,0.675,26.525-7.384,38.005c-8.102,11.545-19.772,18.361-35.118,23.302
			c0.569-4.168,0.575-7.429,1.499-10.442c4.786-15.61,7.677-31.481,4.035-47.531c-6.539-28.785-21.545-52.858-47.331-70.612
			c11.047,19.195,5.179,37.512-2.858,55.662c-3.123,7.055-6.724,13.923-10.032,20.907c-5.971,12.603-6.494,25.401-0.589,39.483
			c-2.882-1.005-4.784-1.402-6.4-2.269c-18.728-10.049-39.602-13.536-60.321-17.539c-0.663-0.128-1.25-0.189-1.766-0.189
			c-3.013,0-3.632,2.077-3.217,4.987c1.778,12.501,3.124,25.083,5.612,37.463c4.226,21.017,8.208,42.146,14.073,62.781
			c9.996,35.178,30.619,63.506,65.186,81.758c6.725,3.547,13.448,7.09,20.188,11.918c-9.462-0.635-19.125-0.336-28.351-2.07
			c-45.794-8.594-82.891-30.332-109.14-66.826c-20.793-28.905-28.889-60.934-25.34-95.916c2.269-22.362,8.672-43.471,17.012-64.266
			c5.659-14.107,9.352-28.479,6.895-45.043c15.323,12.017,20.44,28.492,28.2,44.402c7.907-5.8,13.142-12.645,16.861-20.404
			c8.46-17.649,11.058-36.226,9.407-55.462c-0.501-5.838-0.078-11.745,0.658-17.967c0.844,2.003,1.347,4.225,2.609,5.961
			c2.475,3.406,4.772,7.331,8.214,9.636c3.037,2.034,6.245,3.008,9.202,3.008c5.692,0,10.45-3.607,11.253-10.199
			c1.482-12.17,0.997-24.75-0.343-36.989c-4.294-39.263,4.725-74.179,36.142-102.082
			C616.254,355.399,623.778,351.081,630.719,346.188 M631.799,320.956l-12.604,8.886c-1.949,1.375-4.017,2.742-6.205,4.188
			c-5.125,3.389-10.934,7.23-16.281,11.98c-17.722,15.74-30.229,34.403-37.175,55.472c-6.247,18.949-8.119,40.394-5.566,63.737
			c0.056,0.511,0.109,1.017,0.161,1.521l-22.19-52.649l-8.886,75.189c-0.749,6.335-1.42,13.906-0.723,22.026
			c1.092,12.722-0.054,24.272-3.498,35.02c-4.642-7.379-10.528-14.595-18.701-21.004l-39.49-30.969l7.365,49.642
			c1.579,10.639-0.065,20.681-5.673,34.662c-10.299,25.681-16.129,47.826-18.348,69.693c-4.088,40.299,5.67,77.179,29.003,109.614
			c28.672,39.863,69.613,65.031,121.686,74.803c7.792,1.465,15.188,1.73,22.342,1.986c2.926,0.105,5.688,0.203,8.357,0.383
			l70.099,4.711l-57.108-40.922c-7.832-5.613-15.266-9.533-22.454-13.326l-0.053-0.027c-28.117-14.846-46.202-37.592-55.278-69.533
			c-4.952-17.423-8.474-35.072-12.203-53.758c-0.499-2.5-0.998-5-1.5-7.499c-0.948-4.717-1.721-9.492-2.43-14.383
			c11.876,2.622,23.057,5.86,33.058,11.227c2.734,1.466,5.209,2.237,7.199,2.858c0.707,0.22,1.375,0.429,2.073,0.672l38.952,13.582
			l-1.207,8.841l30.245-9.737c20.897-6.729,35.312-16.531,45.36-30.852c1.208-1.721,2.328-3.466,3.358-5.232
			c10.03,13.578,17.331,26.364,22.643,39.433c10.459,25.741,8.229,46.836-7.021,66.383l-13.674,17.528l18.871,11.752
			c1.738,1.082,3.452,2.047,4.965,2.898c1.965,1.107,4.41,2.484,5.28,3.293c1.08,1.002,2.57,3.197,4.011,5.32
			c0.96,1.418,2.049,3.021,3.251,4.639l9.724,13.078l14.771-6.883c17.244-8.033,32.069-17.961,44.063-29.51
			c12.259-11.803,21.993-25.699,28.935-41.3c8.562-19.255,11.379-37.228,8.615-54.946c-2.947-18.899-5.919-37.396-9.857-55.907
			c-2.251-10.576-5.221-20.946-8.093-30.975c-1.246-4.351-2.535-8.85-3.745-13.299l-13.434-49.381l-15.458,29.727
			c-0.037-6.146-0.496-12.124-1.375-17.979c-2.954-19.676-10.82-37.782-23.379-53.813c-4.929-6.291-10.686-11.454-15.764-16.009
			c-2.109-1.892-4.101-3.679-5.938-5.45L712.023,412.9l5.058,53.727c1.286,13.664,0.546,24.355-1.434,32.747
			c-3.18-17.786-11.507-34.902-24.925-51.158c-6.491-7.863-13.417-15.2-20.114-22.295c-3.996-4.232-7.77-8.23-11.465-12.338
			c-14.405-16.012-18.344-30.895-12.772-48.257c0.577-1.797,1.513-3.946,2.504-6.221c0.575-1.319,1.17-2.684,1.765-4.134
			l5.529-13.479l-11.135-9.396l-0.896-0.753l-0.541-0.455L631.799,320.956L631.799,320.956z M626.448,663.458l-14.645-34.922
			c-3.544-8.449-3.479-15.384,0.219-23.187c1.19-2.514,2.42-5.007,3.721-7.647c2.174-4.413,4.423-8.976,6.525-13.728
			c1.556-3.513,3.151-7.283,4.618-11.261c3.348,6.91,5.933,14.413,7.78,22.546c2.283,10.062,1.156,21.548-3.653,37.238
			c-1.201,3.917-1.543,7.382-1.844,10.438c-0.108,1.099-0.21,2.137-0.351,3.159L626.448,663.458L626.448,663.458z"/>
	</g>
</g>
<g id="Layer_3" display="none">
	<path display="inline" fill-rule="evenodd" clip-rule="evenodd" d="M966.213,960.813c-6.896-3.846-14.594-6.742-20.513-11.744
		c-11.423-9.652-21.771-20.57-32.692-30.826c-15.175-14.248-30.549-28.283-45.694-42.563
		c-37.314-35.184-74.528-70.473-111.823-105.676c-9.391-8.861-9.306-8.645-0.531-18.135c3.292-3.561,5.416-4.176,9.143-0.457
		c16.268,16.23,32.805,32.191,49.252,48.24c3.1,3.023,6.226,6.023,9.36,9.012c25.061,23.887,50.278,47.611,75.144,71.701
		c21.883,21.197,43.43,42.744,64.969,64.293c2.882,2.883,5.205,6.492,7.107,10.121c1.163,2.221,1.193,5.229-3.053,4.744
		C966.658,959.953,966.436,960.383,966.213,960.813z"/>
	<path display="inline" fill-rule="evenodd" clip-rule="evenodd" d="M365.912,407.153c41.544,19.569,83.057,37.19,126.688,49.517
		c-0.084,0.999-0.168,1.998-0.253,2.997c-4.107,1.014-8.164,2.462-12.334,2.961c-12.861,1.538-25.77,2.684-38.653,4.047
		c-4.592,0.485-7.438-1.775-10.729-4.837c-9.965-9.268-20.476-17.954-30.891-26.728c-4.385-3.694-9.063-7.04-13.608-10.544
		c-0.426,0.45-0.852,0.901-1.277,1.351c8.454,8.986,16.878,18.001,25.376,26.947c3.897,4.103,7.934,8.075,11.918,12.095
		c4.238,4.276,6.717,9.178,7.162,15.403c0.545,7.606,2.511,15.133,2.769,22.731c0.173,5.095-1.555,10.254-2.508,15.824
		C423.252,515.253,367.685,417.294,365.912,407.153z"/>
	<path display="inline" fill-rule="evenodd" clip-rule="evenodd" d="M538.438,553.997c-3.348,4.442-6.46,8.724-9.83,12.79
		c-0.313,0.378-2.515-0.3-3.418-1.018c-2.992-2.376-5.912-4.873-8.646-7.541c-18.824-18.365-37.633-36.747-56.346-55.226
		c-3.184-3.145-6.101-6.62-8.754-10.228c-4.429-6.021-3.645-9.01,2.654-13.347c3.314-2.281,5.853-2.53,9.117,0.612
		c20.866,20.09,41.957,39.947,62.93,59.928c3.253,3.099,6.334,6.385,9.377,9.692C536.607,550.84,537.344,552.341,538.438,553.997z"
		/>
	<path display="inline" fill-rule="evenodd" clip-rule="evenodd" d="M640.961,660.068c4.806-4.359,8.73-7.919,13.099-11.882
		c2.688,2.545,5.313,5.011,7.915,7.502c19.243,18.429,38.521,36.822,57.701,55.316c7.215,6.957,7.109,7.063,1.386,15.095
		c-0.482,0.678-1.021,1.342-1.356,2.092c-1.852,4.125-4.405,3.926-7.304,1.186c-7.496-7.09-14.933-14.244-22.442-21.319
		c-7.388-6.959-14.981-13.705-22.22-20.814C658.854,678.519,650.243,669.514,640.961,660.068z"/>
	<path display="inline" fill-rule="evenodd" clip-rule="evenodd" d="M778.612,808.449c2.445,2.316,4.252,4.184,6.216,5.867
		c15.302,13.119,11.846,9.086,12.479,28.885c0.239,7.475,0.334,14.959,0.263,22.436c-0.03,3.215-0.652,6.422-1.015,9.709
		c-9.735-2.303-13.975-7.652-14.564-16.422c-0.925-13.74-2.274-27.449-3.346-41.18C778.419,814.84,778.612,811.902,778.612,808.449z
		"/>
	<path display="inline" fill-rule="evenodd" clip-rule="evenodd" d="M820.023,847.955c4.152,3.807,8.381,7.533,12.401,11.473
		c0.947,0.928,1.682,2.572,1.683,3.889c0.009,11.984,0.037,23.979-0.417,35.951c-0.131,3.453-1.804,6.85-3.043,11.24
		c-4.033-3.215-7.266-5.496-10.103-8.191c-1.193-1.135-2.127-3.127-2.19-4.768c-0.325-8.311-0.368-16.635-0.427-24.955
		c-0.057-8.104-0.012-16.207-0.012-24.311C818.618,848.174,819.32,848.064,820.023,847.955z"/>
	<path display="inline" fill-rule="evenodd" clip-rule="evenodd" d="M851.905,879.445c2.305,1.328,2.723,1.568,3.141,1.811
		c8.879,5.141,13.339,12.027,11.001,22.934c-1.342,6.262-0.745,12.936-1.08,19.42c-0.086,1.654,0.115,3.643-0.714,4.871
		c-1.645,2.441-3.579,5.709-6.005,6.361c-3.664,0.982-9.356-4.424-9.171-8.084C849.855,911.352,850.894,895.959,851.905,879.445z"/>
	<path display="inline" fill-rule="evenodd" clip-rule="evenodd" d="M895.366,945.037c-0.306,2.789-0.359,7.162-1.352,11.313
		c-1.197,5.004-6.054,6.59-10.079,3.389c-3.712-2.953-6.026-6.416-5.208-11.973c1.398-9.496,1.733-19.148,2.538-28.732
		c0.097-1.156,0.071-2.43,0.56-3.424c1.151-2.346,2.147-5.084,4.047-6.637c1.268-1.035,7.494,4.74,7.675,7.195
		C894.217,925.273,894.712,934.391,895.366,945.037z"/>
</g>
<g id="Layer_1">
	<g>
		<path fill-rule="evenodd" clip-rule="evenodd" fill="none" d="M539.049,78.363c-1.504,3.246-2.17,5.946-3.758,7.896
			c-7.127,8.759-14.064,17.74-21.891,25.848c-25.918,26.849-52.146,53.398-78.334,79.986
			c-53.773,54.598-107.633,109.112-161.379,163.739c-15.41,15.664-30.547,31.595-45.734,47.325
			c11.774,10.73,23.146,21.094,34.483,31.426c0.996-1.385,2.082-3.24,3.491-4.805c15.708-17.445,31.047-35.25,47.304-52.171
			c29.646-30.856,59.854-61.172,89.81-91.732c29.266-29.855,58.383-59.857,87.814-89.549c13.82-13.942,27.773-27.826,42.586-40.674
			c5.791-5.022,8.596-10.24,10.854-17.251c4.824-14.974,11.107-29.475,16.707-44.202c7.541-19.836,15.01-39.7,22.484-59.563
			c0.838-2.226,1.502-4.517,2.473-7.458c-1.535,0.364-2.314,0.424-2.982,0.727c-8.764,3.977-17.451,8.131-26.277,11.964
			c-29.219,12.688-58.311,25.703-87.857,37.577c-7.49,3.01-13.041,6.308-18.037,12.869c-7.824,10.277-17.318,19.316-26.381,28.611
			c-42.094,43.179-84.123,86.424-126.486,129.337c-35.931,36.398-72.29,72.373-108.45,108.545c-1.702,1.703-3.306,3.504-4.895,5.195
			c10.625,9.878,20.726,19.267,31.699,29.469c1.233-1.621,2.365-3.497,3.86-5.015c37.261-37.863,74.422-75.825,111.893-113.479
			c38.525-38.713,77.264-77.216,116.092-115.625c24.008-23.749,46.754-48.86,73.68-69.512
			C526.689,84.104,530.762,78.831,539.049,78.363z M389.023,322.403c-5.615,6.579-10.867,12.73-16.672,19.532
			c33.811,34.237,72.092,63.759,103.426,101.316c-2.754,0.957-4.688,1.629-6.822,2.371c0.328,7.205,0.707,14.326,0.967,21.451
			c0.381,10.482,0.594,20.973,1.084,31.449c0.09,1.889,0.898,3.885,1.844,5.566c6.336,11.291,14.83,20.842,24.311,29.557
			c0.902,0.832,2.146,1.291,3.959,2.344c1.83-24.018-4.607-47.383,0.578-71.684c5.15,4.625,9.184,8.734,9.572,14.949
			c0.742,11.789,1.145,23.6,1.719,35.4c0.072,1.488,0.199,2.996,0.525,4.445c2.693,11.977,5.191,24.006,8.324,35.867
			c0.904,3.426,3.189,6.836,5.699,9.418c6.021,6.189,12.563,11.873,18.869,17.787c2.311,2.168,4.549,4.414,6.42,6.234
			c0-12.357-0.268-24.508,0.074-36.639c0.348-12.273,1.23-24.533,2.08-36.785c0.094-1.33,1.254-3.273,2.398-3.73
			c6.973-2.785,13.971-5.039,21.834-4.271c7.262,0.711,14.646,0.15,21.979,0.145c9.787-0.01,19.58,0.15,29.357-0.148
			c2.537-0.078,5.031-1.594,8.039-2.617c-5.535-7.893-10.348-14.986-15.467-21.85c-0.951-1.273-3.094-2.16-4.768-2.309
			c-13.246-1.174-26.508-2.203-39.773-3.121c-11.285-0.781-22.58-1.393-33.875-1.996c-3.691-0.197-4.83-2.057-4.152-6.416
			c19.834,0,39.592,0,60.793,0c-5.781-8.76-10.557-16.32-17.721-21.758c-2.35-1.785-5.98-2.244-9.105-2.576
			c-6.586-0.701-13.238-0.787-19.832-1.436c-1.439-0.141-2.75-1.578-5.369-3.186c6.09-1.324,10.551-2.297,15.969-3.477
			c-2.803-4.4-5.23-8.67-8.172-12.547c-0.846-1.115-3.184-1.563-4.826-1.537c-15.463,0.23-30.926,0.635-46.387,0.979
			c-2.33,0.051-4.695,0.318-6.98,0.012c-2.727-0.365-6.033-0.455-7.957-2.039c-6.799-5.598-13.307-11.59-19.582-17.779
			c-25.959-25.604-51.785-51.342-77.689-77.004C392.207,324.849,390.48,323.616,389.023,322.403z M278.073,511.951
			c10.585,0.07,17.853-5.68,22.956-14.213c8.043-13.445,4.038-25.355-10.146-31.605c-2.429-1.07-5.025-1.822-7.326-3.109
			c-6.499-3.639-13.293-6.928-19.247-11.33c-37.979-28.092-68.555-64.493-105.218-94.084c-2.74-2.211-4.06-4.601-1.839-8.176
			c0.835-1.346,0.699-3.539,0.458-5.27c-2.549-18.246-24.698-21.362-35.945-14.525c-16.697,10.149-18.287,29.771-3.021,41.957
			c15.569,12.43,29.263,26.583,42.141,41.72c8.832,10.383,17.774,20.936,28.114,29.707c14.432,12.242,30.281,22.803,45.395,34.254
			c10.977,8.318,22.695,15.875,29.88,28.27C267.29,510.746,272.352,512.138,278.073,511.951z M291.857,231.271
			c-1.921-2.143-3.883-4.631-6.144-6.809c-24.825-23.909-49.595-47.875-74.592-71.604c-15.452-14.667-31.335-28.88-46.886-43.446
			c-5.374-5.034-10.327-10.518-15.473-15.796c0.28-0.511,0.561-1.022,0.84-1.534c11.078-0.82,22.156-1.64,33.786-2.5
			c-4.687-8.036-11.034-14.217-19.62-17.993c-27.29-12.001-54.593-23.975-81.924-35.883c-4.319-1.882-8.813-3.367-14.6-5.555
			c1.938,3.609,3.196,5.72,4.239,7.932C79.484,55.039,88.698,71.56,95.05,89.114c6.056,16.739,14.104,31.81,25.376,45.372
			c0.795,0.956,1.158,2.271,1.722,3.418c0.393-0.41,0.786-0.821,1.18-1.231c1.692-8.826,3.385-17.651,5.359-27.945
			c49.413,47.71,97.93,94.555,146.282,141.241C280.713,243.609,286.033,237.719,291.857,231.271z M11.413,571.519
			c0.388,3.793,0.057,7.844,1.306,11.328c3.17,8.84,7.229,17.357,10.57,26.143c1.744,4.588,5.176,6.512,9.38,8.084
			c13.161,4.926,26.615,6.928,40.632,5.053c12.373-1.654,23.8-5.508,32.296-15.035c12.921-14.492,15.954-31.908,13.597-50.607
			c-0.236-1.873-0.844-4.146-2.113-5.373c-9.543-9.221-19.51-18.01-28.925-27.357C77.506,513.181,64.919,513.48,52,516.941
			C25.828,523.949,11.336,543.847,11.413,571.519z M200.534,472.826c-17.472-16.031-34.643-31.787-51.218-46.994
			c-6.35,7.248-12.736,14.537-19.056,21.75c12.769,19.086,32.32,31.104,47.838,46.678C186,486.712,193.413,479.628,200.534,472.826z
			 M151.345,521.552c4.296-4.789,7.74-9.029,11.607-12.844c5.188-5.115,5.568-5.893,0.204-10.965
			c-7.129-6.744-14.695-13.02-21.972-19.609c-4.683-4.24-9.058-8.826-13.81-12.986c-2.785-2.438-6.353-4.842-9.66-1.227
			c-4.073,4.453-7.514,9.486-11.614,14.766C121.101,492.898,136.271,507.271,151.345,521.552z M83.115,505.33
			c14.634,13.666,28.858,26.951,42.981,40.141c5.243-5.826,9.541-10.602,14.028-15.586c-0.559-0.725-1.055-1.59-1.752-2.24
			c-12.993-12.131-25.983-24.264-39.092-36.27c-0.732-0.67-3.095-0.814-3.656-0.221C91.443,495.583,87.524,500.259,83.115,505.33z"
			/>
		<g>
			<path fill-rule="evenodd" clip-rule="evenodd" d="M539.049,78.363c-8.287,0.467-12.359,5.741-17.232,9.479
				c-26.926,20.652-49.672,45.763-73.68,69.512c-38.828,38.409-77.566,76.912-116.092,115.625
				c-37.471,37.655-74.632,75.617-111.893,113.479c-1.495,1.518-2.627,3.394-3.86,5.015c-10.974-10.202-21.074-19.591-31.699-29.469
				c1.589-1.691,3.192-3.492,4.895-5.195c36.16-36.173,72.52-72.147,108.45-108.545c42.363-42.914,84.393-86.159,126.486-129.337
				c9.063-9.295,18.557-18.334,26.381-28.611c4.996-6.561,10.547-9.859,18.037-12.869c29.547-11.874,58.639-24.888,87.857-37.577
				c8.826-3.833,17.514-7.988,26.277-11.964c0.668-0.303,1.447-0.363,2.982-0.727c-0.971,2.941-1.635,5.232-2.473,7.458
				c-7.475,19.862-14.943,39.726-22.484,59.563c-5.6,14.728-11.883,29.229-16.707,44.202c-2.258,7.011-5.063,12.229-10.854,17.251
				c-14.813,12.849-28.766,26.732-42.586,40.674c-29.432,29.691-58.549,59.693-87.814,89.549
				c-29.955,30.56-60.164,60.876-89.81,91.732c-16.257,16.921-31.596,34.726-47.304,52.171c-1.409,1.564-2.495,3.42-3.491,4.805
				c-11.337-10.332-22.709-20.695-34.483-31.426c15.188-15.729,30.324-31.661,45.734-47.325
				c53.746-54.627,107.605-109.141,161.379-163.739c26.188-26.588,52.416-53.137,78.334-79.986
				c7.826-8.108,14.764-17.089,21.891-25.848C536.879,84.309,537.545,81.609,539.049,78.363z"/>
		</g>
		<g>
			<path fill-rule="evenodd" clip-rule="evenodd" d="M389.023,322.403c1.457,1.213,3.184,2.445,4.67,3.918
				c25.904,25.662,51.73,51.4,77.689,77.004c6.275,6.189,12.783,12.182,19.582,17.779c1.924,1.584,5.23,1.674,7.957,2.039
				c2.285,0.307,4.65,0.039,6.98-0.012c15.461-0.344,30.924-0.748,46.387-0.979c1.643-0.025,3.98,0.422,4.826,1.537
				c2.941,3.877,5.369,8.146,8.172,12.547c-5.418,1.18-9.879,2.152-15.969,3.477c2.619,1.607,3.93,3.045,5.369,3.186
				c6.594,0.648,13.246,0.734,19.832,1.436c3.125,0.332,6.756,0.791,9.105,2.576c7.164,5.438,11.939,12.998,17.721,21.758
				c-21.201,0-40.959,0-60.793,0c-0.678,4.359,0.461,6.219,4.152,6.416c11.295,0.604,22.59,1.215,33.875,1.996
				c13.266,0.918,26.527,1.947,39.773,3.121c1.674,0.148,3.816,1.035,4.768,2.309c5.119,6.863,9.932,13.957,15.467,21.85
				c-3.008,1.023-5.502,2.539-8.039,2.617c-9.777,0.299-19.57,0.139-29.357,0.148c-7.332,0.006-14.717,0.566-21.979-0.145
				c-7.863-0.768-14.861,1.486-21.834,4.271c-1.145,0.457-2.305,2.4-2.398,3.73c-0.85,12.252-1.732,24.512-2.08,36.785
				c-0.342,12.131-0.074,24.281-0.074,36.639c-1.871-1.82-4.109-4.066-6.42-6.234c-6.307-5.914-12.848-11.598-18.869-17.787
				c-2.51-2.582-4.795-5.992-5.699-9.418c-3.133-11.861-5.631-23.891-8.324-35.867c-0.326-1.449-0.453-2.957-0.525-4.445
				c-0.574-11.801-0.977-23.611-1.719-35.4c-0.389-6.215-4.422-10.324-9.572-14.949c-5.186,24.301,1.252,47.666-0.578,71.684
				c-1.813-1.053-3.057-1.512-3.959-2.344c-9.48-8.715-17.975-18.266-24.311-29.557c-0.945-1.682-1.754-3.678-1.844-5.566
				c-0.49-10.477-0.703-20.967-1.084-31.449c-0.26-7.125-0.639-14.246-0.967-21.451c2.135-0.742,4.068-1.414,6.822-2.371
				c-31.334-37.557-69.615-67.079-103.426-101.316C378.156,335.134,383.408,328.982,389.023,322.403z"/>
		</g>
		<g>
			<path fill-rule="evenodd" clip-rule="evenodd" d="M278.073,511.951c-5.722,0.188-10.783-1.205-13.799-6.406
				c-7.185-12.395-18.903-19.951-29.88-28.27c-15.113-11.451-30.963-22.012-45.395-34.254c-10.34-8.771-19.282-19.324-28.114-29.707
				c-12.878-15.137-26.571-29.29-42.141-41.72c-15.266-12.186-13.676-31.807,3.021-41.957c11.247-6.837,33.396-3.721,35.945,14.525
				c0.241,1.73,0.377,3.924-0.458,5.27c-2.221,3.575-0.901,5.965,1.839,8.176c36.663,29.591,67.239,65.993,105.218,94.084
				c5.954,4.402,12.748,7.691,19.247,11.33c2.301,1.287,4.897,2.039,7.326,3.109c14.184,6.25,18.188,18.16,10.146,31.605
				C295.926,506.271,288.658,512.021,278.073,511.951z"/>
		</g>
		<g>
			<path fill-rule="evenodd" clip-rule="evenodd" d="M291.857,231.271c-5.824,6.448-11.145,12.338-16.889,18.698
				c-48.353-46.686-96.869-93.531-146.282-141.241c-1.975,10.294-3.667,19.119-5.359,27.945c-0.394,0.41-0.787,0.821-1.18,1.231
				c-0.563-1.147-0.927-2.462-1.722-3.418c-11.272-13.562-19.32-28.633-25.376-45.372C88.698,71.56,79.484,55.039,71.485,38.083
				c-1.043-2.212-2.301-4.323-4.239-7.932c5.787,2.188,10.28,3.673,14.6,5.555c27.331,11.908,54.634,23.882,81.924,35.883
				c8.586,3.776,14.934,9.957,19.62,17.993c-11.63,0.86-22.708,1.681-33.786,2.5c-0.279,0.511-0.56,1.022-0.84,1.534
				c5.146,5.278,10.099,10.762,15.473,15.796c15.551,14.566,31.434,28.779,46.886,43.446c24.997,23.728,49.767,47.695,74.592,71.604
				C287.975,226.64,289.937,229.128,291.857,231.271z"/>
		</g>
		<g>
			<path fill-rule="evenodd" clip-rule="evenodd" d="M11.413,571.519c-0.077-27.672,14.415-47.57,40.587-54.578
				c12.919-3.461,25.506-3.76,36.155,6.813c9.415,9.348,19.382,18.137,28.925,27.357c1.27,1.227,1.877,3.5,2.113,5.373
				c2.357,18.699-0.676,36.115-13.597,50.607c-8.496,9.527-19.923,13.381-32.296,15.035c-14.017,1.875-27.471-0.127-40.632-5.053
				c-4.204-1.572-7.636-3.496-9.38-8.084c-3.342-8.785-7.4-17.303-10.57-26.143C11.47,579.363,11.801,575.312,11.413,571.519z
				 M65.381,547.828c-13.41-0.088-22.317,7.801-22.441,19.877c-0.14,13.529,9.377,23.898,22.471,24.02
				c14.174,0.131,20.857-9.195,21.42-21.092C87.41,558.347,77.073,547.904,65.381,547.828z"/>
		</g>
		<g>
			<path fill-rule="evenodd" clip-rule="evenodd" d="M200.534,472.826c-7.121,6.803-14.534,13.887-22.436,21.434
				c-15.518-15.574-35.069-27.592-47.838-46.678c6.319-7.213,12.706-14.502,19.056-21.75
				C165.892,441.039,183.063,456.794,200.534,472.826z"/>
		</g>
		<g>
			<path fill-rule="evenodd" clip-rule="evenodd" d="M151.345,521.552c-15.074-14.281-30.244-28.654-45.244-42.865
				c4.101-5.279,7.541-10.313,11.614-14.766c3.308-3.615,6.875-1.211,9.66,1.227c4.752,4.16,9.127,8.746,13.81,12.986
				c7.276,6.59,14.843,12.865,21.972,19.609c5.364,5.072,4.984,5.85-0.204,10.965C159.085,512.523,155.641,516.763,151.345,521.552z
				"/>
		</g>
		<g>
			<path fill-rule="evenodd" clip-rule="evenodd" d="M83.115,505.33c4.409-5.07,8.328-9.746,12.51-14.176
				c0.562-0.594,2.924-0.449,3.656,0.221c13.108,12.006,26.099,24.139,39.092,36.27c0.697,0.65,1.193,1.516,1.752,2.24
				c-4.487,4.984-8.785,9.76-14.028,15.586C111.974,532.281,97.749,518.996,83.115,505.33z"/>
		</g>
		<g>
			<path fill-rule="evenodd" clip-rule="evenodd" fill="none" d="M65.381,547.828c11.692,0.076,22.029,10.52,21.449,22.805
				c-0.563,11.896-7.246,21.223-21.42,21.092c-13.094-0.121-22.61-10.49-22.471-24.02C43.063,555.628,51.971,547.74,65.381,547.828z
				 M64.524,558.826c-6.214-0.082-9.571,2.941-9.686,8.717c-0.114,5.828,4.603,10.443,10.798,10.563
				c4.942,0.096,9.401-4.645,9.502-10.104C75.238,562.623,70.943,558.91,64.524,558.826z"/>
		</g>
		<g>
			<path fill-rule="evenodd" clip-rule="evenodd" d="M64.524,558.826c6.419,0.084,10.714,3.797,10.614,9.176
				c-0.101,5.459-4.56,10.199-9.502,10.104c-6.195-0.119-10.912-4.734-10.798-10.563C54.953,561.767,58.311,558.744,64.524,558.826z
				"/>
		</g>
	</g>
	<g>
	</g>
	<g>
	</g>
	<g>
	</g>
	<g>
	</g>
	<g>
	</g>
	<g>
	</g>
</g>
</svg>
