<?xml version="1.0" encoding="utf-8"?>
<!-- Generator: Adobe Illustrator 16.0.0, SVG Export Plug-In . SVG Version: 6.00 Build 0)  -->
<!DOCTYPE svg PUBLIC "-//W3C//DTD SVG 1.1//EN" "http://www.w3.org/Graphics/SVG/1.1/DTD/svg11.dtd">
<svg version="1.1" id="Layer_1" xmlns="http://www.w3.org/2000/svg" xmlns:xlink="http://www.w3.org/1999/xlink" x="0px" y="0px"
	 width="300px" height="300px" viewBox="0 0 300 300" enable-background="new 0 0 300 300" xml:space="preserve">
<g>
	<path fill-rule="evenodd" clip-rule="evenodd" d="M177.717,222.179c3.242-0.347,6.494-0.649,9.732-1.05
		c9.641-1.193,19.297-2.879,27.528-8.589c11.083-7.691,19.649-17.913,24.425-31.29c0.433-1.21,0.718-2.484,0.99-3.749
		c0.164-0.765,0.168-1.567,0.225-2.148c-2.87,0.267-5.678,0.528-8.794,0.818c-1.717,4.997-5.154,9.214-9.07,12.982
		c-6.158,5.925-13.227,10.372-20.728,14.15c-12.974,6.536-26.742,9.946-40.832,12.291c-11.628,1.935-23.132,4.572-34.054,9.332
		c-20.556,8.957-36.76,23.482-48.46,43.535c-5.443,9.327-8.774,19.535-10.731,30.271c-0.136,0.747-0.347,1.481-0.524,2.221
		c-0.157-0.016-0.313-0.031-0.469-0.047c-0.037-0.632-0.159-1.275-0.097-1.897c0.718-7.135,1.31-14.291,2.247-21.396
		c1.047-7.941,3.215-15.637,6.297-22.927c2.428-5.739,5.325-11.313,8.504-16.629c9.175-15.339,21.763-26.84,36.801-35.346
		c7.925-4.483,16.312-7.605,25.159-9.617c7.444-1.694,15.015-1.609,22.465-2.871c9.051-1.531,17.797-4.078,25.105-10.227
		c3.843-3.232,7.311-7.037,8.763-12.284c0.235-0.85,0.014-1.84,0.004-2.767c-0.952,0.108-2.063-0.076-2.826,0.385
		c-1.56,0.949-2.942,2.23-4.382,3.398c-9.225,7.495-19.645,8.607-30.68,6.484c-3.737-0.717-7.454-1.678-11.222-2.061
		c-7.796-0.791-11.317-0.14-18.93,2.403c1.822-1.305,3.579-2.73,5.479-3.891c6.973-4.255,14.623-6.198,22.538-7.126
		c6.938-0.813,13.141-3.399,18.441-8.28c0.165-0.153,0.289-0.358,0.799-1.003c-2.706-0.274-5.041-0.618-7.386-0.731
		c-9.856-0.475-19.276,1.98-28.59,4.987c-11.592,3.742-22.214,9.745-32.829,15.806c-9.5,5.426-19.454,9.702-30.088,12.023
		c-9.722,2.123-19.399,1.723-29.113-0.164c-7.64-1.483-14.994-3.753-21.913-7.556c-12.025-6.608-22.373-15.133-28.979-28.024
		c-0.796-1.551-1.636-3.075-2.381-4.646c7.386,8.73,16.318,15.185,26.231,20.123c10.75,5.356,22.148,7.213,33.906,5.714
		c5.961-0.761,11.954-1.867,17.707-3.641c5.354-1.648,10.522-4.138,15.562-6.717c5.148-2.637,9.988-5.94,15.059-8.754
		c5.02-2.787,10.141-5.378,15.268-7.942c1.265-0.633,2.723-0.831,4.03-1.517c-10.74-1.068-21.085,0.046-30.759,5.876
		c0.819-0.777,1.625-1.571,2.462-2.326c0.891-0.805,1.795-1.595,2.722-2.352s1.855-1.522,2.84-2.186
		c12.719-8.582,26.632-13.057,41.697-12.842c6,0.085,11.987,1.23,17.977,1.931c1.777,0.208,3.543,0.546,5.885,0.914
		c-0.85-1.082-1.306-1.858-1.931-2.428c-5.748-5.242-12.37-8.294-19.946-9.155c-14.689-1.668-28.127,2.918-41.191,9.213
		c-8.74,4.211-17.492,8.319-26.787,11.002c-7.918,2.286-15.922,2.396-24.033,1.589c-12.982-1.288-24.504-6.583-35.31-13.974
		c-4.826-3.3-11.207-10.156-14.108-15.25c2.334,1.746,4.438,3.329,6.553,4.896c11.358,8.415,24.002,12.551,37.819,12.146
		c9.795-0.286,19.18-2.95,28.234-6.888c1.082-0.471,2.155-0.966,3.243-1.421c1.365-0.572,2.695-1.083,3.236-2.819
		c0.191-0.612,0.903-1.175,1.502-1.489c8.18-4.27,16.275-8.75,24.611-12.646c7.179-3.356,14.841-4.875,22.755-4.596
		c0.903,0.032,1.813-0.145,2.721-0.225c0.08-0.193,0.16-0.384,0.239-0.576c-0.827-0.663-1.576-1.499-2.492-1.961
		c-5.627-2.836-11.59-3.911-17.764-3.2c-3.038,0.35-6.027,1.185-8.717,1.736c2.706-2.32,6.19-4.052,9.909-5.281
		c11.584-3.831,23.261-4.067,34.954-0.67c5.234,1.521,10.386,3.357,15.575,5.048c0.708,0.231,1.422,0.443,2.628,0.82
		c-0.502-1.085-0.735-1.805-1.132-2.406c-4.698-7.153-11.289-11.285-19.087-13.633c-6.596-1.986-13.291-2.02-20.031-1.631
		c-6.836,0.394-13.667,1.185-20.502,1.21C97.473,80.7,84.779,75.452,73.096,67.225c-1.859-1.31-3.379-3.159-5.362-5.05
		c0.679-0.04,0.875-0.119,0.976-0.047c6.191,4.378,13.265,5.676,20.445,6.644c11.594,1.561,22.72-1.066,33.752-4.314
		c7.076-2.083,14.244-3.476,21.563-4.001c7.742-0.554,15.304,0.574,22.699,2.974c6.034,1.958,12.035,4.033,18.062,6.02
		c0.865,0.285,1.792,0.362,3.247,0.643c-0.562-1.315-0.739-2.339-1.307-2.959c-2.355-2.569-4.67-5.225-7.291-7.464
		c-6.195-5.289-13.557-7.915-21.176-9.893c-7.823-2.031-15.787-3.557-23.201-7.101c-10.202-4.876-19.018-11.708-25.95-21.056
		c-3.13-4.221-5.888-8.752-8.602-13.334c13.767,14.531,30.271,22.703,49.919,24.964c-0.947-1.066-1.642-1.847-2.088-2.348
		c6.078,0.419,12.344,0.928,18.616,1.27c13.074,0.709,24.947,5.132,35.875,12.656c2.941,2.025,5.965,3.92,8.994,5.793
		c0.692,0.429,1.571,0.524,2.362,0.773c0.171-0.149,0.343-0.298,0.515-0.447c-0.492-1.597-0.798-3.295-1.507-4.775
		c-2.594-5.415-6.505-9.682-10.992-13.349c-7.705-6.3-16.302-10.573-25.82-12.893c-6.179-1.506-11.925-4.354-17.571-7.375
		c-0.446-0.239-0.835-0.601-1.695-1.23c2.181,0.322,3.819,0.702,5.47,0.785c8.189,0.407,16.385,0.677,24.573,1.108
		c14.415,0.76,27.714,5.256,39.671,13.864c7.308,5.261,13.042,12.048,16.563,20.75c0.615,1.519,1.446,2.602,3.093,2.939
		c2.321,0.477,2.948,0.042,3.047-2.553c0.279-7.501-2.441-13.932-6.506-19.809c-5.772-8.34-13.382-14.332-22.065-18.858
		c-3.861-2.014-7.783-3.897-11.657-6.178c2.727,0.357,5.459,0.656,8.172,1.082c13.021,2.043,24.814,7.188,34.973,16.123
		c11.721,10.312,19.001,23.4,21.143,39.513c0.161,1.221,0.219,2.492,0.095,3.713c-0.224,2.189,0.568,3.569,2.354,4.684
		c2.767,1.726,3.012,1.819,4.297-1.333c1.615-3.965,1.718-8.174,1.386-12.42c-0.779-9.947-4.694-18.708-9.128-27.278
		c-0.294-0.569-0.589-1.139-0.881-1.707c0.119-0.108,0.239-0.214,0.358-0.322c2.208,2.167,4.563,4.189,6.603,6.523
		c10.086,11.559,16.649,24.946,17.286,40.889c0.229,5.754-1.005,11.571-1.514,17.365c-0.197,2.267-0.131,4.563-0.377,6.823
		c-0.176,1.631-0.469,3.316-1.075,4.81c-0.6,1.479-0.668,2.751,0.176,4.021c1.272,1.923,1.658,4.067,1.626,6.354
		c-0.041,2.768-0.071,5.537-0.067,8.306c0.001,0.479,0.17,0.969,0.319,1.433c5.182,16.048,4.022,31.64-3.253,46.669
		c-4.379,9.047-10.12,17.014-18.053,22.94c-2.065,1.545-4.413,2.67-6.828,4.104c9.248-11.789,14.014-24.717,12.608-40.094
		c-0.717,0.094-1.229,0.014-1.581,0.229c-1.973,1.201-3.964,2.39-5.824,3.771c-0.643,0.479-1.173,1.444-1.343,2.281
		c-2.792,13.9-9.521,25.628-17.888,36.433c-2.412,3.113-5.054,6.034-7.662,8.971c-0.756,0.854-1.763,1.458-2.963,2.423
		c-0.066-1.346-0.104-2.132-0.168-3.402c-9.068,8.266-19.068,14.011-30.538,16.748C200.5,225.77,189.093,224.428,177.717,222.179z
		 M285.784,113.8c1.016-27.708-18.568-55.299-49.672-56.473c-28.302-1.068-52.497,21.35-53.786,53.519
		c-1.12,27.959,20.029,55.502,49.606,56.934C261.109,169.189,285.165,143.769,285.784,113.8z"/>
	<path fill-rule="evenodd" clip-rule="evenodd" d="M56.758,231.343c2.34-1.583,4.808-3.048,7.034-4.848
		c1.056-0.853,1.767-2.279,2.42-3.567c0.602-1.188,0.069-2.04-1.222-1.771c-1.82,0.379-3.572,1.149-5.397,1.478
		c-4.595,0.828-9.22,1.465-13.823,2.25c-2.532,0.433-5.077,0.869-7.556,1.555c-4.006,1.108-7.999,2.302-11.924,3.693
		c-2.225,0.79-4.302,2.043-6.837,3.279c2.543-2.924,5.108-5.187,8.045-6.954c6.609-3.969,13.81-6.313,21.021-8.686
		c4.448-1.464,8.759-3.394,13.122-5.144c0.583-0.233,1.107-0.634,1.678-0.969c-2.354-3.053-12.551-3.779-20.386-1.771
		c1.646-1.021,3.262-2.103,4.943-3.056c6.915-3.912,14.03-7.04,22.1-6.933c5.553,0.074,10.517,2.163,15.394,4.604
		c0.507,0.255,1.007,1.481,0.866,2.088c-2.856,12.261-9.274,22.295-23.903,24.292C60.434,231.144,58.509,231.203,56.758,231.343z"/>
	<path fill-rule="evenodd" clip-rule="evenodd" d="M49.985,105.23c3.446,0.321,6.752,0.274,9.967-1.889
		c-3.582-1.792-6.834-3.629-10.237-5.065c-4.218-1.78-8.471-3.639-12.873-4.71c-5.205-1.268-10.563-1.363-15.672,1.072
		c-0.101-0.166-0.2-0.33-0.301-0.496c0.903-0.799,1.718-1.764,2.726-2.366c3.39-2.026,7.158-2.59,10.971-2.88
		c7.15-0.542,13.893,1.522,20.687,3.469c2.604,0.747,5.396,0.83,8.114,1.013c0.656,0.044,1.36-0.719,2.042-1.11
		c-0.4-0.567-0.761-1.174-1.208-1.695c-3.488-4.072-7.875-6.308-12.972-7.081c-0.335-0.051-0.66-0.179-0.964-0.407
		c8.491-1.638,16.65-1.008,24.017,4.283c3.6,2.585,7.157,5.173,11.506,6.15c0.21,0.047,0.388,0.257,0.701,0.474
		c-1.362,3.447-3.6,6.054-6.479,8.074c-6.559,4.604-13.858,5.72-21.505,4.931c-2.433-0.251-4.837-0.832-7.25-1.292
		C50.818,105.622,50.407,105.392,49.985,105.23z"/>
	<path fill-rule="evenodd" clip-rule="evenodd" d="M151.98,238.652c-5.076-1.542-9.865-0.632-15.124,0.024
		c0.861-0.614,1.378-0.989,1.902-1.354c0.586-0.408,1.181-0.804,1.769-1.21c9.068-6.282,18.836-6.97,28.918-3.663
		c2.229,0.73,4.123,2.678,6.099,4.172c0.895,0.677,0.904,1.497-0.193,2.149c-5.28,3.132-10.093,6.927-14.643,11.17
		c-2.945,2.75-6.818,3.385-10.591,4.014c-1.029,0.171-2.062,0.312-3.156,0.237c1.612-1.033,3.29-1.972,4.815-3.133
		c1.175-0.893,2.264-1.978,3.185-3.157c0.397-0.508,0.275-1.472,0.39-2.229c-0.661-0.015-1.387-0.228-1.974-0.015
		c-3.81,1.385-7.538,3.044-11.392,4.266c-6.749,2.142-13.618,2.962-20.575,1.045c-1.052-0.291-2.076-0.696-3.103-1.232
		C129.975,247.873,141.775,246.697,151.98,238.652z"/>
	<path fill-rule="evenodd" clip-rule="evenodd" d="M49.917,35.212c2.569-0.353,5.128-0.89,7.706-1.02
		c5.73-0.289,11.106,1.335,16.315,3.755c1.871,0.869,3.828,1.533,5.755,2.257c3.804,1.429,5.367,1.477,9.81,0.286
		c-3.002-5.894-8.291-7.648-13.761-9.103c6.306-1.95,15.439,0.37,20.952,5.254c3.493,3.093,7.025,6.139,10.586,9.143
		c0.911,0.77,0.479,1.396,0.042,2.044c-2.512,3.724-6.061,5.41-10.244,6.073c-6.076,0.962-11.858-0.465-17.648-2.045
		c-1.548-0.423-3.105-0.808-4.602-1.624c1.811-0.122,3.62-0.243,5.431-0.366c0.039-0.168,0.076-0.337,0.114-0.505
		c-9.13-6.958-18.722-12.777-30.407-13.43C49.95,35.691,49.934,35.452,49.917,35.212z"/>
	<path fill-rule="evenodd" clip-rule="evenodd" d="M215.254,236.543c-0.021,3.329-1.573,5.64-3.722,7.566
		c-4.639,4.156-10.068,5.577-16.03,4.96c-4.414-0.456-8.821-0.973-13.297-1.469C184.923,245.112,209.999,236.693,215.254,236.543z"
		/>
	<path fill-rule="evenodd" clip-rule="evenodd" d="M36.859,261.981c2.738-4.172,5.944-7.785,9.768-10.64
		c2.841-2.121,6.017-3.744,9.084-5.511c0.751-0.433,1.646-0.707,2.498-0.79c0.825-0.082,2.3-0.022,2.4,0.324
		c0.253,0.89,0.175,2.147-0.271,2.943c-0.728,1.302-1.695,2.581-2.836,3.474c-6.062,4.749-12.667,8.367-20.036,10.279
		C37.317,262.1,37.141,262.022,36.859,261.981z"/>
	<path fill-rule="evenodd" clip-rule="evenodd" d="M81.679,159.648c-0.805,0.815-1.496,1.847-2.437,2.407
		c-6.004,3.581-12.36,4.165-18.975,2.269c-2.835-0.812-5.517-1.914-7.808-3.985c9.598-2.563,19.243-1.771,28.873-1.471
		C81.448,159.127,81.563,159.388,81.679,159.648z"/>
	<path fill-rule="evenodd" clip-rule="evenodd" d="M2.077,208.05c3.928-2.693,8.399-4.443,12.973-5.923
		c3.439-1.112,6.932-1.735,10.551-1.118c2.506,0.426,3.029,1.376,1.727,3.7c-1.794,3.203-4.84,4.308-8.042,4.483
		c-3.129,0.174-6.292-0.251-9.437-0.469C7.255,208.542,4.665,208.277,2.077,208.05z"/>
	<path fill-rule="evenodd" clip-rule="evenodd" d="M263.202,208.63c0.651,4.021-0.476,7.274-3.331,9.403
		c-2.688,2.007-5.674,3.714-8.742,4.95c-3.624,1.458-7.479,2.271-11.234,3.363c-0.066-0.158-0.134-0.314-0.199-0.473
		c0.107-0.154,0.185-0.392,0.328-0.452c5.401-2.31,9.335-6.726,13.707-10.543c2.509-2.19,5.396-3.895,8.129-5.787
		C262.181,208.869,262.611,208.827,263.202,208.63z"/>
	<path fill-rule="evenodd" clip-rule="evenodd" d="M27.456,65.936c6.134-0.632,12.003-1.631,17.87-0.442
		c1.745,0.353,3.442,1.383,4.963,2.429c1.13,0.778,1.113,2.251-0.212,2.827c-1.789,0.777-3.745,1.578-5.627,1.572
		c-5.955-0.019-11.2-2.686-16.312-5.629C27.945,66.582,27.818,66.345,27.456,65.936z"/>
	<path fill-rule="evenodd" clip-rule="evenodd" d="M126.78,6.875c4.412-0.092,8.797-0.48,12.708,2.001
		c0.888,0.563,1.738,1.281,2.424,2.097c1.097,1.304,0.658,2.735-0.968,2.985c-1.235,0.188-2.661,0.275-3.771-0.2
		c-2.246-0.961-4.396-2.227-6.466-3.574C129.293,9.263,128.082,7.991,126.78,6.875z"/>
	<path fill-rule="evenodd" clip-rule="evenodd" d="M36.729,42.588c-1.499-0.198-3.033-0.252-4.483-0.651
		c-0.841-0.231-1.701-0.875-2.284-1.582c-1.337-1.621-0.93-2.656,1.095-2.877c2.617-0.284,5.244-0.463,7.87-0.634
		c0.564-0.037,1.384-0.066,1.667,0.285c0.791,0.972,1.875,2.141,1.884,3.24c0.011,1.329-1.407,1.964-2.75,1.995
		c-0.994,0.023-1.989,0.005-2.983,0.005C36.74,42.442,36.734,42.515,36.729,42.588z"/>
	<path fill-rule="evenodd" clip-rule="evenodd" d="M150.624,266.153c1.627-1.022,3.1-2.302,4.788-2.928
		c2.729-1.013,5.581-1.689,8.418-2.325c1.523-0.342,2.353,0.649,1.737,2.155c-0.445,1.092-1.372,2.16-2.345,2.776
		c-3.549,2.242-7.398,1.737-11.23,0.987c-0.341-0.068-0.677-0.167-1.014-0.262C150.937,266.546,150.908,266.481,150.624,266.153z"/>
	<path fill-rule="evenodd" clip-rule="evenodd" d="M99.822,268.008c0.827-0.734,1.549-1.748,2.501-2.147
		c2.208-0.925,4.51-1.632,6.815-2.254c0.604-0.162,1.361,0.312,2.047,0.493c-0.291,0.949-0.308,2.245-0.92,2.789
		c-2.36,2.099-5.221,2.634-8.239,2.196c-0.676-0.098-1.333-0.349-1.999-0.528C99.96,268.374,99.891,268.189,99.822,268.008z"/>
	<path fill-rule="evenodd" clip-rule="evenodd" d="M216.399,76.224c3.301,0.176,6.496,1.944,8.354,5.841
		c1.773,3.722,1.304,7.409-1.005,10.673c-3.107,4.395-7.21,6.885-12.552,5.897c-6.102-1.128-9.176-6.69-7.405-13.039
		C205.232,80.433,210.626,76.169,216.399,76.224z"/>
	<path fill-rule="evenodd" clip-rule="evenodd" d="M231.659,146.792c19.235,0.797,40.855-15.504,36.695-46.95
		c0.325,0.396,0.586,0.589,0.68,0.85c2.411,6.715,4.395,13.541,3.157,20.839c-1.863,10.988-7.306,19.443-16.441,25.09
		c-4.1,2.531-8.483,4.189-13.335,3.76c-3.44-0.305-6.859-0.785-9.881-2.794C232.301,147.432,232.109,147.205,231.659,146.792z"/>
</g>
<g>
</g>
<g>
</g>
<g>
</g>
<g>
</g>
<g>
</g>
<g>
</g>
</svg>
