<?xml version="1.0" encoding="utf-8"?>
<!-- Generator: Adobe Illustrator 16.0.0, SVG Export Plug-In . SVG Version: 6.00 Build 0)  -->
<!DOCTYPE svg PUBLIC "-//W3C//DTD SVG 1.1//EN" "http://www.w3.org/Graphics/SVG/1.1/DTD/svg11.dtd">
<svg version="1.1" id="Layer_1" xmlns="http://www.w3.org/2000/svg" xmlns:xlink="http://www.w3.org/1999/xlink" x="0px" y="0px"
	 width="650px" height="650px" viewBox="0 0 650 650" enable-background="new 0 0 650 650" xml:space="preserve">
<g id="Layer_2" display="none">
	<g display="inline">
		<path d="M626.043,825.159c-2.825-0.189-5.664-0.293-8.67-0.4c-6.784-0.242-13.801-0.494-20.857-1.819
			c-49.459-9.281-88.29-33.107-115.412-70.816c-21.864-30.393-31.005-64.967-27.171-102.763c2.121-20.909,7.739-42.192,17.68-66.979
			c6.241-15.559,8.12-27.477,6.284-39.854l-3.683-24.82l19.745,15.484c13.032,10.221,19.493,22.827,25.208,35.299
			c1.763-2.349,3.303-4.915,4.663-7.755c7.293-15.211,10.061-31.659,8.462-50.284c-0.621-7.225,0-14.162,0.689-19.996l4.443-37.591
			l14.703,34.881c0.372,0.882,0.666,1.707,0.925,2.434c0.201,0.564,0.473,1.326,0.625,1.624c0.491,0.679,0.976,1.373,1.463,2.073
			c1.447,2.079,2.944,4.228,4.161,5.042c1.249,0.837,2.574,1.316,3.637,1.316c0.816,0,1.154,0,1.326-1.408
			c1.219-10.01,1.103-21.357-0.357-34.692c-5.071-46.376,7.829-82.569,39.442-110.646c4.815-4.277,10.072-7.754,15.156-11.115
			c2.252-1.489,4.379-2.896,6.451-4.355l6.302-4.443l7.326,6.166l5.566,4.697l-2.765,6.74c-0.54,1.317-1.11,2.627-1.682,3.936
			c-1.094,2.512-2.128,4.885-2.855,7.158c-6.604,20.576-1.743,39.549,14.857,58.002c3.775,4.196,7.769,8.426,11.628,12.516
			c6.586,6.976,13.395,14.189,19.674,21.796c19.746,23.923,27.413,49.721,22.789,76.68c-0.091,0.522-0.189,1.039-0.298,1.552
			c17.382-11.907,24.616-34.391,21.535-67.122l-2.527-26.863l19.425,18.727c1.967,1.896,4.022,3.741,6.201,5.694
			c5.006,4.49,10.182,9.134,14.567,14.731c21.631,27.61,27.654,60.606,18.418,100.874c-0.936,4.082-2.127,8.008-3.277,11.804
			c-0.449,1.479-0.891,2.93-1.308,4.359c2.845-1.747,5.31-4.528,7.703-8.583c2.808-4.754,5.331-9.762,8.003-15.063
			c1.239-2.458,2.496-4.951,3.81-7.475l11.805-22.702l6.717,24.689c1.229,4.515,2.525,9.045,3.78,13.427
			c2.825,9.866,5.747,20.067,7.926,30.305c3.885,18.261,6.833,36.608,9.759,55.366c2.457,15.761-0.116,31.898-7.87,49.339
			c-12.878,28.942-35.146,50.469-68.084,65.813l-7.387,3.441l-4.861-6.539c-1.072-1.443-2.054-2.887-3-4.285
			c-1.836-2.705-3.568-5.26-5.473-7.025c-1.744-1.623-4.388-3.11-7.188-4.688c-1.492-0.84-3.035-1.709-4.586-2.676l-9.437-5.875
			l6.837-8.765c17.676-22.657,20.345-46.901,8.399-76.3c-7.395-18.191-18.335-35.744-34.599-55.242
			c-1.668,6.669-4.621,13.036-8.854,19.064c-8.733,12.445-21.52,21.049-40.238,27.075l-15.123,4.869l2.15-15.741
			c0.165-1.209,0.281-2.391,0.395-3.532c0.269-2.717,0.545-5.527,1.452-8.487c5.351-17.451,6.535-30.522,3.845-42.387
			c-4.017-17.676-11.207-32.66-21.785-45.266c-1.005,11.071-4.936,21.822-9.509,32.151c-2.021,4.563-4.222,9.031-6.352,13.353
			c-1.261,2.559-2.563,5.204-3.788,7.788c-4.9,10.347-5.029,20.303-0.403,31.335l8.681,20.699l-21.194-7.391
			c-0.895-0.312-1.682-0.556-2.389-0.775c-1.748-0.546-3.557-1.109-5.443-2.12c-15.075-8.089-31.846-11.606-49.594-15.021
			c0.109,0.821,0.218,1.644,0.327,2.465c1.162,8.771,2.364,17.839,4.103,26.491c0.501,2.493,1,4.988,1.498,7.484
			c3.604,18.057,7.329,36.728,12.392,54.533c9.861,34.711,29.565,59.454,60.235,75.647c6.939,3.66,14.066,7.42,21.344,12.633
			l28.556,20.461L626.043,825.159z"/>
		<path fill="#FFFFFF" d="M630.719,346.188c0.472,0.397,0.944,0.795,1.417,1.192c-1.616,3.94-3.516,7.804-4.809,11.834
			c-8.215,25.599-0.917,47.888,16.946,67.744c10.255,11.4,21.301,22.211,31.023,33.99c16.617,20.133,25.074,42.793,20.645,68.623
			c-0.708,4.121-2.271,8.111-3.407,12.171c-0.754,2.693-1.446,5.4-2.261,8.448c31.37-7.774,51.584-33.753,46.719-85.438
			c6.668,6.428,14.23,12.237,19.84,19.396c21.996,28.079,24.074,59.628,16.541,92.472c-1.877,8.19-5.013,16.143-6.649,24.366
			c-0.984,4.955-0.44,6.457,3.053,6.457c0.989,0,2.216-0.12,3.711-0.317c10.306-1.354,16.687-7.686,21.362-15.604
			c4.314-7.31,7.906-14.996,12.073-23.01c4.021,14.786,8.522,28.852,11.573,43.188c3.863,18.156,6.802,36.5,9.659,54.826
			c2.364,15.161-0.938,29.813-7.128,43.734c-11.826,26.581-32.54,46.543-63.169,60.812c-3.119-4.195-5.771-9.031-9.693-12.675
			c-3.754-3.489-8.825-5.739-13.291-8.521c21.206-27.185,22.01-56.116,9.779-86.215c-11.5-28.295-30.211-52.32-51.243-74.915
			c-0.357-0.386-0.984-0.555-2.272-1.249c3.056,13.983,0.675,26.524-7.384,38.005c-8.103,11.545-19.772,18.361-35.118,23.302
			c0.568-4.168,0.575-7.429,1.499-10.441c4.786-15.61,7.677-31.481,4.035-47.531c-6.539-28.785-21.545-52.858-47.331-70.612
			c11.047,19.195,5.179,37.512-2.858,55.662c-3.123,7.055-6.724,13.923-10.032,20.907c-5.971,12.603-6.494,25.4-0.589,39.482
			c-2.882-1.005-4.784-1.401-6.399-2.269c-18.729-10.049-39.603-13.536-60.321-17.539c-0.663-0.128-1.25-0.189-1.766-0.189
			c-3.014,0-3.633,2.077-3.218,4.987c1.778,12.501,3.124,25.083,5.612,37.463c4.226,21.018,8.208,42.146,14.073,62.781
			c9.996,35.178,30.619,63.506,65.186,81.758c6.726,3.547,13.448,7.09,20.188,11.918c-9.462-0.635-19.125-0.336-28.352-2.069
			c-45.794-8.595-82.891-30.332-109.14-66.826c-20.793-28.905-28.889-60.935-25.34-95.916c2.269-22.362,8.672-43.472,17.012-64.267
			c5.659-14.106,9.352-28.479,6.895-45.043c15.323,12.018,20.44,28.492,28.2,44.402c7.907-5.8,13.143-12.646,16.861-20.404
			c8.46-17.648,11.058-36.226,9.407-55.462c-0.501-5.838-0.078-11.745,0.657-17.967c0.845,2.003,1.348,4.225,2.609,5.961
			c2.475,3.406,4.772,7.331,8.214,9.636c3.037,2.034,6.245,3.009,9.202,3.009c5.692,0,10.45-3.607,11.253-10.199
			c1.482-12.17,0.997-24.75-0.343-36.989c-4.294-39.263,4.725-74.179,36.142-102.082
			C616.254,355.398,623.778,351.081,630.719,346.188 M631.799,320.956l-12.604,8.886c-1.949,1.375-4.017,2.742-6.205,4.188
			c-5.125,3.39-10.934,7.23-16.28,11.98c-17.723,15.74-30.229,34.403-37.176,55.473c-6.247,18.949-8.119,40.394-5.565,63.736
			c0.056,0.512,0.108,1.018,0.161,1.521l-22.19-52.649l-8.886,75.189c-0.749,6.335-1.42,13.905-0.724,22.025
			c1.093,12.723-0.054,24.272-3.497,35.021c-4.643-7.379-10.528-14.595-18.701-21.004l-39.49-30.97l7.365,49.643
			c1.579,10.639-0.065,20.681-5.673,34.662c-10.3,25.681-16.13,47.826-18.349,69.692c-4.088,40.3,5.67,77.18,29.003,109.614
			c28.672,39.863,69.613,65.031,121.687,74.803c7.792,1.466,15.188,1.73,22.342,1.986c2.926,0.105,5.688,0.203,8.356,0.383
			l70.1,4.711l-57.108-40.922c-7.832-5.612-15.266-9.533-22.454-13.326l-0.053-0.026c-28.117-14.847-46.202-37.592-55.278-69.533
			c-4.951-17.423-8.474-35.072-12.202-53.758c-0.499-2.5-0.998-5-1.5-7.499c-0.948-4.717-1.722-9.492-2.431-14.383
			c11.876,2.622,23.058,5.859,33.059,11.227c2.733,1.466,5.209,2.237,7.198,2.858c0.707,0.22,1.375,0.429,2.073,0.672l38.952,13.582
			l-1.207,8.841l30.245-9.737c20.896-6.729,35.312-16.531,45.36-30.852c1.208-1.722,2.327-3.467,3.357-5.232
			c10.03,13.578,17.331,26.364,22.644,39.434c10.459,25.74,8.229,46.836-7.021,66.383l-13.674,17.527l18.871,11.752
			c1.737,1.082,3.452,2.048,4.965,2.898c1.965,1.107,4.41,2.484,5.28,3.293c1.08,1.002,2.569,3.197,4.011,5.32
			c0.96,1.418,2.049,3.021,3.251,4.639l9.724,13.078l14.771-6.883c17.244-8.033,32.068-17.961,44.063-29.51
			c12.26-11.804,21.993-25.699,28.936-41.301c8.562-19.255,11.379-37.228,8.615-54.945c-2.947-18.899-5.92-37.396-9.857-55.907
			c-2.251-10.576-5.221-20.946-8.093-30.976c-1.246-4.351-2.535-8.85-3.745-13.299l-13.435-49.381l-15.458,29.728
			c-0.037-6.146-0.496-12.124-1.375-17.979c-2.953-19.676-10.819-37.782-23.379-53.813c-4.929-6.291-10.686-11.454-15.764-16.01
			c-2.109-1.892-4.102-3.679-5.938-5.449L712.023,412.9l5.058,53.727c1.286,13.664,0.547,24.355-1.434,32.747
			c-3.18-17.786-11.507-34.902-24.925-51.158c-6.491-7.863-13.417-15.2-20.114-22.295c-3.996-4.231-7.77-8.229-11.465-12.338
			c-14.405-16.013-18.344-30.896-12.772-48.257c0.577-1.797,1.514-3.946,2.505-6.221c0.574-1.319,1.17-2.685,1.765-4.135
			l5.529-13.479l-11.136-9.396l-0.896-0.753l-0.541-0.454L631.799,320.956L631.799,320.956z M626.448,663.458l-14.645-34.922
			c-3.544-8.449-3.479-15.384,0.219-23.188c1.19-2.514,2.42-5.007,3.721-7.646c2.174-4.413,4.423-8.977,6.525-13.729
			c1.556-3.513,3.151-7.282,4.618-11.261c3.348,6.91,5.933,14.413,7.78,22.546c2.282,10.063,1.155,21.548-3.653,37.238
			c-1.201,3.917-1.543,7.382-1.844,10.438c-0.108,1.1-0.21,2.138-0.352,3.159L626.448,663.458L626.448,663.458z"/>
	</g>
</g>
<g id="Layer_3" display="none">
	<path display="inline" d="M966.213,960.813c-6.896-3.846-14.595-6.741-20.514-11.743c-11.423-9.652-21.771-20.57-32.691-30.826
		c-15.176-14.248-30.549-28.283-45.694-42.563c-37.314-35.184-74.528-70.473-111.823-105.676c-9.391-8.861-9.306-8.645-0.531-18.135
		c3.293-3.562,5.416-4.176,9.144-0.457c16.268,16.229,32.805,32.19,49.252,48.24c3.1,3.022,6.226,6.022,9.36,9.012
		c25.061,23.887,50.277,47.611,75.144,71.701c21.883,21.197,43.43,42.744,64.969,64.293c2.882,2.883,5.205,6.492,7.107,10.121
		c1.163,2.221,1.192,5.229-3.053,4.744C966.657,959.953,966.436,960.383,966.213,960.813z"/>
	<path display="inline" d="M365.911,407.152c41.544,19.569,83.058,37.19,126.688,49.518c-0.084,0.999-0.168,1.998-0.253,2.997
		c-4.107,1.014-8.164,2.462-12.334,2.961c-12.861,1.538-25.771,2.685-38.653,4.047c-4.592,0.485-7.438-1.774-10.729-4.837
		c-9.966-9.268-20.477-17.954-30.892-26.728c-4.385-3.694-9.063-7.04-13.607-10.544c-0.427,0.449-0.853,0.9-1.277,1.351
		c8.454,8.986,16.878,18.001,25.376,26.947c3.897,4.103,7.934,8.075,11.918,12.095c4.238,4.276,6.717,9.178,7.162,15.403
		c0.545,7.605,2.511,15.133,2.769,22.73c0.174,5.095-1.555,10.254-2.508,15.824C423.252,515.253,367.685,417.294,365.911,407.152z"
		/>
	<path display="inline" d="M538.438,553.997c-3.348,4.442-6.46,8.724-9.83,12.79c-0.313,0.378-2.515-0.3-3.418-1.019
		c-2.992-2.376-5.912-4.872-8.646-7.541c-18.823-18.364-37.633-36.747-56.346-55.226c-3.184-3.145-6.101-6.62-8.754-10.228
		c-4.429-6.021-3.645-9.011,2.654-13.348c3.313-2.281,5.853-2.53,9.117,0.612c20.865,20.09,41.957,39.947,62.93,59.928
		c3.253,3.1,6.334,6.385,9.377,9.692C536.607,550.84,537.344,552.341,538.438,553.997z"/>
	<path display="inline" d="M640.961,660.068c4.806-4.359,8.729-7.919,13.099-11.883c2.688,2.545,5.313,5.012,7.915,7.502
		c19.243,18.43,38.521,36.822,57.701,55.316c7.215,6.957,7.108,7.063,1.386,15.095c-0.482,0.679-1.021,1.343-1.356,2.093
		c-1.852,4.125-4.404,3.926-7.304,1.186c-7.496-7.09-14.933-14.244-22.442-21.319c-7.388-6.959-14.98-13.705-22.22-20.813
		C658.854,678.519,650.242,669.514,640.961,660.068z"/>
	<path display="inline" d="M778.612,808.449c2.445,2.315,4.252,4.184,6.216,5.867c15.303,13.118,11.847,9.086,12.479,28.885
		c0.239,7.475,0.334,14.959,0.263,22.436c-0.03,3.215-0.651,6.422-1.015,9.709c-9.735-2.303-13.976-7.651-14.564-16.422
		c-0.925-13.74-2.273-27.449-3.346-41.18C778.419,814.84,778.612,811.902,778.612,808.449z"/>
	<path display="inline" d="M820.023,847.955c4.152,3.807,8.381,7.533,12.401,11.473c0.946,0.929,1.682,2.572,1.683,3.89
		c0.009,11.983,0.037,23.979-0.417,35.95c-0.131,3.453-1.804,6.851-3.043,11.24c-4.033-3.215-7.266-5.496-10.104-8.19
		c-1.192-1.136-2.127-3.127-2.189-4.769c-0.325-8.311-0.368-16.635-0.427-24.955c-0.058-8.104-0.013-16.207-0.013-24.311
		C818.617,848.174,819.32,848.064,820.023,847.955z"/>
	<path display="inline" d="M851.905,879.445c2.306,1.328,2.724,1.567,3.142,1.811c8.879,5.141,13.339,12.027,11.001,22.935
		c-1.343,6.262-0.745,12.936-1.08,19.42c-0.086,1.653,0.114,3.643-0.714,4.87c-1.646,2.441-3.579,5.709-6.006,6.361
		c-3.663,0.982-9.355-4.424-9.171-8.084C849.855,911.352,850.894,895.959,851.905,879.445z"/>
	<path display="inline" d="M895.365,945.037c-0.306,2.789-0.358,7.162-1.352,11.313c-1.197,5.004-6.054,6.591-10.079,3.39
		c-3.712-2.953-6.026-6.416-5.208-11.974c1.398-9.496,1.733-19.147,2.538-28.731c0.097-1.156,0.071-2.431,0.56-3.424
		c1.151-2.347,2.147-5.084,4.047-6.638c1.269-1.035,7.494,4.74,7.676,7.195C894.217,925.273,894.712,934.391,895.365,945.037z"/>
</g>
<g id="Layer_1_1_">
	<g>
		<path fill="none" d="M543.668,58.617c-1.54,3.515-2.221,6.44-3.848,8.552c-7.298,9.487-14.4,19.214-22.415,27.996
			c-26.538,29.081-53.393,57.836-80.207,86.633c-55.06,59.135-110.207,118.18-165.239,177.347
			c-15.779,16.965-31.277,34.221-46.827,51.258c12.055,11.621,23.699,22.847,35.307,34.037c1.02-1.5,2.131-3.509,3.575-5.204
			c16.083-18.895,31.789-38.18,48.435-56.506c30.356-33.421,61.287-66.256,91.958-99.356c29.966-32.336,59.779-64.831,89.914-96.991
			c14.15-15.101,28.438-30.138,43.604-44.055c5.929-5.439,8.801-11.091,11.113-18.684c4.938-16.219,11.372-31.925,17.107-47.875
			c7.721-21.484,15.369-43,23.021-64.513c0.858-2.411,1.538-4.892,2.534-8.078c-1.573,0.394-2.371,0.459-3.055,0.788
			c-8.974,4.307-17.868,8.807-26.906,12.958c-29.917,13.742-59.704,27.839-89.957,40.7c-7.67,3.26-13.353,6.832-18.469,13.938
			c-8.012,11.131-17.732,20.921-27.012,30.988c-43.101,46.768-86.135,93.607-129.512,140.086
			c-36.79,39.422-74.019,78.387-111.043,117.565c-1.742,1.846-3.385,3.796-5.012,5.627c10.879,10.698,21.222,20.868,32.457,31.919
			c1.263-1.756,2.422-3.789,3.953-5.433c38.152-41.011,76.202-82.127,114.569-122.91c39.445-41.93,79.111-83.633,118.867-125.234
			c24.583-25.723,47.873-52.92,75.442-75.289C531.012,64.834,535.184,59.124,543.668,58.617z M390.054,322.937
			c-5.749,7.126-11.128,13.788-17.071,21.156c34.62,37.081,73.816,69.056,105.899,109.735c-2.819,1.036-4.799,1.764-6.985,2.568
			c0.337,7.804,0.725,15.517,0.991,23.233c0.391,11.353,0.608,22.716,1.11,34.063c0.092,2.046,0.919,4.208,1.888,6.028
			c6.487,12.229,15.185,22.574,24.893,32.014c0.923,0.9,2.197,1.397,4.053,2.538c1.874-26.015-4.717-51.32,0.592-77.641
			c5.273,5.009,9.404,9.46,9.802,16.19c0.76,12.77,1.172,25.563,1.76,38.343c0.073,1.61,0.204,3.246,0.537,4.813
			c2.759,12.974,5.316,26.002,8.524,38.848c0.925,3.713,3.265,7.404,5.834,10.201c6.166,6.704,12.864,12.86,19.32,19.266
			c2.367,2.348,4.658,4.78,6.574,6.752c0-13.384-0.274-26.544,0.076-39.685c0.356-13.292,1.26-26.57,2.129-39.84
			c0.097-1.441,1.284-3.546,2.456-4.041c7.139-3.017,14.305-5.458,22.355-4.626c7.436,0.771,14.997,0.162,22.505,0.156
			c10.021-0.01,20.048,0.164,30.06-0.159c2.598-0.085,5.151-1.727,8.231-2.835c-5.667-8.549-10.596-16.231-15.838-23.666
			c-0.973-1.379-3.167-2.34-4.881-2.5c-13.563-1.272-27.143-2.387-40.726-3.381c-11.554-0.846-23.12-1.509-34.685-2.163
			c-3.779-0.213-4.945-2.227-4.251-6.948c20.309,0,40.539,0,62.247,0c-5.92-9.488-10.81-17.677-18.145-23.566
			c-2.407-1.934-6.124-2.431-9.323-2.79c-6.744-0.759-13.556-0.853-20.307-1.556c-1.473-0.152-2.815-1.709-5.497-3.45
			c6.234-1.435,10.804-2.488,16.352-3.766c-2.871-4.767-5.356-9.391-8.368-13.59c-0.866-1.208-3.261-1.693-4.94-1.665
			c-15.834,0.249-31.667,0.688-47.497,1.061c-2.387,0.056-4.807,0.345-7.146,0.013c-2.793-0.396-6.178-0.491-8.147-2.208
			c-6.962-6.063-13.626-12.553-20.051-19.256c-26.58-27.732-53.023-55.609-79.548-83.404
			C393.314,325.587,391.545,324.251,390.054,322.937z M276.45,528.238c10.839,0.075,18.28-6.152,23.505-15.395
			c8.235-14.563,4.134-27.463-10.388-34.232c-2.487-1.159-5.146-1.974-7.501-3.366c-6.654-3.942-13.611-7.505-19.707-12.272
			c-38.887-30.427-70.194-69.853-107.734-101.903c-2.806-2.395-4.157-4.982-1.883-8.855c0.855-1.457,0.716-3.833,0.469-5.707
			c-2.61-19.763-25.289-23.138-36.805-15.732c-17.096,10.992-18.725,32.246-3.093,45.444c15.941,13.462,29.962,28.792,43.149,45.188
			c9.043,11.245,18.199,22.675,28.786,32.176c14.777,13.259,31.004,24.697,46.48,37.101c11.24,9.008,23.238,17.194,30.595,30.618
			C265.41,526.933,270.593,528.439,276.45,528.238z M290.564,224.232c-1.967-2.321-3.975-5.016-6.29-7.375
			c-25.419-25.896-50.781-51.854-76.376-77.555c-15.822-15.886-32.084-31.28-48.008-47.056
			c-5.502-5.453-10.573-11.392-15.842-17.109c0.287-0.554,0.574-1.107,0.86-1.661c11.343-0.888,22.686-1.776,34.594-2.708
			c-4.799-8.704-11.298-15.398-20.089-19.488c-27.943-12.999-55.898-25.967-83.883-38.865c-4.423-2.039-9.024-3.647-14.949-6.017
			c1.984,3.909,3.272,6.195,4.34,8.591c8.192,18.365,17.627,36.259,24.131,55.272c6.2,18.13,14.44,34.453,25.983,49.142
			c0.814,1.036,1.186,2.46,1.763,3.702c0.403-0.444,0.805-0.889,1.209-1.333c1.732-9.559,3.466-19.117,5.487-30.267
			c50.594,51.675,100.272,102.413,149.78,152.979C279.154,237.595,284.601,231.216,290.564,224.232z M3.413,592.755
			c0.397,4.109,0.058,8.497,1.337,12.271c3.246,9.574,7.402,18.8,10.823,28.315c1.786,4.97,5.3,7.053,9.604,8.756
			c13.476,5.335,27.252,7.504,41.604,5.473c12.668-1.792,24.369-5.966,33.068-16.285c13.23-15.696,16.336-34.56,13.922-54.812
			c-0.242-2.028-0.864-4.491-2.164-5.82c-9.771-9.987-19.977-19.507-29.617-29.63c-10.904-11.453-23.792-11.128-37.02-7.381
			C18.174,541.233,3.334,562.784,3.413,592.755z M197.057,485.86c-17.89-17.362-35.472-34.428-52.444-50.899
			c-6.501,7.851-13.04,15.746-19.511,23.559c13.073,20.672,33.093,33.688,48.981,50.557
			C182.176,500.9,189.766,493.229,197.057,485.86z M146.692,538.637c4.398-5.188,7.925-9.779,11.885-13.912
			c5.311-5.54,5.7-6.382,0.208-11.876c-7.299-7.305-15.046-14.103-22.498-21.239c-4.794-4.593-9.274-9.56-14.14-14.064
			c-2.852-2.641-6.506-5.244-9.891-1.329c-4.17,4.823-7.693,10.274-11.892,15.993C115.724,507.601,131.257,523.168,146.692,538.637z
			 M76.83,521.065c14.983,14.802,29.548,29.191,44.008,43.478c5.369-6.311,9.769-11.483,14.364-16.882
			c-0.573-0.784-1.081-1.722-1.793-2.426c-13.304-13.139-26.605-26.28-40.028-39.283c-0.749-0.727-3.168-0.883-3.742-0.24
			C85.357,510.509,81.344,515.573,76.83,521.065z"/>
		<g>
			<path d="M543.668,58.617c-8.484,0.506-12.655,6.218-17.645,10.267c-27.569,22.369-50.859,49.566-75.442,75.289
				c-39.756,41.601-79.421,83.304-118.868,125.234c-38.366,40.784-76.417,81.901-114.569,122.91c-1.53,1.645-2.69,3.676-3.952,5.432
				c-11.237-11.049-21.578-21.22-32.457-31.918c1.627-1.832,3.268-3.782,5.011-5.628c37.025-39.178,74.255-78.142,111.044-117.564
				c43.377-46.48,86.411-93.319,129.512-140.086c9.279-10.067,19-19.857,27.012-30.988c5.115-7.106,10.799-10.679,18.469-13.938
				c30.254-12.861,60.041-26.957,89.957-40.7c9.038-4.151,17.934-8.652,26.906-12.958c0.684-0.329,1.482-0.394,3.053-0.788
				c-0.994,3.186-1.674,5.667-2.532,8.078c-7.652,21.512-15.301,43.028-23.021,64.513c-5.734,15.952-12.168,31.658-17.107,47.875
				c-2.311,7.594-5.184,13.245-11.112,18.685c-15.167,13.917-29.454,28.954-43.604,44.054
				c-30.136,32.159-59.949,64.654-89.915,96.991c-30.671,33.099-61.604,65.935-91.958,99.354
				c-16.646,18.328-32.351,37.612-48.435,56.507c-1.443,1.694-2.555,3.704-3.575,5.204c-11.608-11.19-23.252-22.414-35.307-34.037
				c15.551-17.035,31.048-34.293,46.827-51.258c55.032-59.167,110.178-118.211,165.239-177.347
				c26.814-28.797,53.669-57.553,80.207-86.633c8.014-8.782,15.117-18.509,22.414-27.996
				C541.448,65.057,542.128,62.132,543.668,58.617z"/>
		</g>
		<g>
			<path d="M390.054,322.937c1.491,1.314,3.26,2.648,4.781,4.243c26.524,27.795,52.968,55.672,79.548,83.405
				c6.425,6.702,13.088,13.193,20.051,19.255c1.97,1.718,5.354,1.813,8.147,2.208c2.339,0.334,4.76,0.043,7.146-0.012
				c15.831-0.372,31.664-0.811,47.497-1.061c1.682-0.027,4.075,0.458,4.941,1.665c3.011,4.199,5.497,8.822,8.367,13.59
				c-5.548,1.277-10.115,2.33-16.351,3.766c2.682,1.74,4.023,3.298,5.497,3.452c6.751,0.7,13.563,0.794,20.307,1.554
				c3.199,0.359,6.917,0.856,9.323,2.79c7.335,5.89,12.224,14.078,18.145,23.566c-21.708,0-41.938,0-62.246,0
				c-0.694,4.722,0.472,6.735,4.25,6.948c11.564,0.655,23.131,1.317,34.685,2.163c13.584,0.994,27.162,2.108,40.726,3.381
				c1.714,0.159,3.906,1.12,4.881,2.5c5.242,7.434,10.171,15.117,15.838,23.666c-3.08,1.108-5.634,2.75-8.231,2.834
				c-10.012,0.325-20.039,0.151-30.059,0.16c-7.508,0.007-15.07,0.614-22.506-0.155c-8.05-0.833-15.216,1.608-22.355,4.625
				c-1.173,0.495-2.361,2.6-2.456,4.041c-0.869,13.27-1.773,26.548-2.129,39.84c-0.351,13.141-0.076,26.3-0.076,39.685
				c-1.917-1.971-4.207-4.404-6.574-6.752c-6.457-6.405-13.154-12.562-19.32-19.266c-2.569-2.797-4.909-6.489-5.834-10.201
				c-3.209-12.847-5.768-25.875-8.523-38.848c-0.334-1.567-0.465-3.203-0.539-4.813c-0.586-12.782-0.999-25.573-1.759-38.342
				c-0.398-6.731-4.528-11.182-9.802-16.191c-5.31,26.319,1.282,51.627-0.592,77.641c-1.855-1.141-3.129-1.638-4.053-2.538
				c-9.707-9.439-18.405-19.784-24.893-32.014c-0.968-1.821-1.796-3.983-1.888-6.029c-0.502-11.347-0.72-22.709-1.11-34.062
				c-0.267-7.717-0.654-15.43-0.991-23.233c2.188-0.805,4.166-1.531,6.985-2.568c-32.083-40.678-71.279-72.654-105.899-109.736
				C378.926,336.726,384.305,330.063,390.054,322.937z"/>
		</g>
		<g>
			<path d="M276.45,528.238c-5.858,0.202-11.04-1.306-14.128-6.939c-7.356-13.425-19.354-21.609-30.595-30.618
				c-15.475-12.403-31.704-23.842-46.48-37.101c-10.587-9.501-19.743-20.931-28.786-32.176
				c-13.187-16.396-27.207-31.727-43.149-45.188c-15.632-13.198-14.003-34.45,3.093-45.443c11.517-7.406,34.195-4.03,36.805,15.732
				c0.247,1.874,0.386,4.25-0.469,5.707c-2.275,3.873-0.923,6.461,1.883,8.854c37.54,32.052,68.847,71.479,107.734,101.904
				c6.096,4.768,13.053,8.33,19.707,12.271c2.355,1.394,5.015,2.208,7.501,3.367c14.522,6.77,18.623,19.669,10.388,34.232
				C294.73,522.086,287.289,528.313,276.45,528.238z"/>
		</g>
		<g>
			<path d="M290.564,224.232c-5.962,6.984-11.411,13.363-17.292,20.251c-49.51-50.565-99.186-101.304-149.78-152.979
				c-2.022,11.15-3.755,20.708-5.487,30.267c-0.404,0.444-0.806,0.89-1.209,1.333c-0.576-1.242-0.949-2.667-1.763-3.702
				C103.49,104.714,95.25,88.391,89.05,70.261c-6.503-19.013-15.938-36.907-24.128-55.272c-1.068-2.396-2.355-4.683-4.339-8.591
				c5.926,2.37,10.525,3.979,14.949,6.017c27.985,12.897,55.94,25.866,83.883,38.865c8.791,4.09,15.292,10.784,20.089,19.488
				c-11.908,0.932-23.251,1.821-34.594,2.708c-0.285,0.553-0.573,1.106-0.86,1.661c5.27,5.717,10.34,11.656,15.842,17.109
				c15.924,15.776,32.187,31.17,48.008,47.056c25.595,25.7,50.957,51.659,76.376,77.555
				C286.59,219.216,288.598,221.911,290.564,224.232z"/>
		</g>
		<g>
			<path d="M3.413,592.755c-0.079-29.971,14.76-51.521,41.558-59.113c13.228-3.747,26.116-4.072,37.019,7.38
				c9.64,10.124,19.846,19.644,29.617,29.63c1.3,1.329,1.922,3.792,2.164,5.82c2.413,20.252-0.692,39.115-13.922,54.812
				c-8.699,10.319-20.399,14.493-33.068,16.285c-14.352,2.031-28.128-0.138-41.604-5.473c-4.305-1.703-7.818-3.786-9.604-8.756
				c-3.422-9.515-7.577-18.742-10.823-28.315C3.471,601.252,3.81,596.864,3.413,592.755z M58.672,567.096
				c-13.731-0.095-22.852,8.449-22.978,21.529c-0.144,14.653,9.601,25.884,23.009,26.016c14.513,0.143,21.355-9.958,21.932-22.845
				C81.228,578.489,70.643,567.179,58.672,567.096z"/>
		</g>
		<g>
			<path d="M197.057,485.86c-7.292,7.369-14.881,15.041-22.973,23.216c-15.889-16.869-35.908-29.885-48.981-50.557
				c6.47-7.813,13.01-15.708,19.511-23.559C161.587,451.433,179.168,468.497,197.057,485.86z"/>
		</g>
		<g>
			<path d="M146.692,538.637c-15.435-15.469-30.968-31.036-46.327-46.428c4.2-5.718,7.722-11.17,11.892-15.993
				c3.386-3.915,7.04-1.312,9.891,1.329c4.865,4.505,9.345,9.472,14.14,14.064c7.451,7.138,15.198,13.935,22.499,21.239
				c5.491,5.494,5.102,6.336-0.209,11.876C154.617,528.857,151.091,533.449,146.692,538.637z"/>
		</g>
		<g>
			<path d="M76.83,521.065c4.514-5.491,8.526-10.556,12.809-15.354c0.575-0.644,2.994-0.486,3.742,0.24
				c13.422,13.003,26.724,26.145,40.028,39.283c0.713,0.704,1.221,1.643,1.793,2.426c-4.594,5.398-8.995,10.571-14.364,16.882
				C106.379,550.257,91.814,535.867,76.83,521.065z"/>
		</g>
		<g>
			<path fill="none" d="M58.672,567.096c11.971,0.083,22.556,11.395,21.962,24.7c-0.577,12.886-7.419,22.987-21.932,22.845
				c-13.408-0.132-23.151-11.361-23.009-26.016C35.82,575.544,44.941,567.001,58.672,567.096z M57.794,579.009
				c-6.362-0.09-9.799,3.184-9.917,9.44c-0.117,6.313,4.713,11.312,11.056,11.44c5.061,0.104,9.626-5.031,9.73-10.943
				C68.764,583.12,64.366,579.099,57.794,579.009z"/>
		</g>
		<g>
			<path d="M57.794,579.009c6.573,0.09,10.97,4.111,10.869,9.938c-0.104,5.912-4.669,11.047-9.73,10.944
				c-6.343-0.129-11.173-5.128-11.056-11.441C47.994,582.192,51.432,578.919,57.794,579.009z"/>
		</g>
	</g>
</g>
</svg>
