<svg xmlns="http://www.w3.org/2000/svg" xml:space="preserve" viewBox="0 0 300 300"><g fill-rule="evenodd" clip-rule="evenodd"><path d="M25.738 147.067c-4.109-14.612-8.25-29.215-12.319-43.837-3.786-13.603-7.49-27.228-11.24-40.84C-1.109 50.457.084 39.138 7.181 28.966c6.846-9.81 18.484-14.261 28.822-11.568 9.812 2.556 19.569 13.854 20.257 25.795.453 7.849-.402 16.234-2.71 23.712-8.316 26.935-17.496 53.587-26.35 80.345l-1.462-.183zM273.851 147.022l-14.313-43.179c-4.575-13.802-9.223-27.581-13.709-41.413-3.433-10.58-2.364-20.889 2.678-30.666 5.64-10.938 15.685-16.212 27.096-14.59 10.251 1.458 20.937 11.427 23.129 23.022 1.178 6.241 1.81 13.254.273 19.265-7.489 29.294-15.791 58.367-23.806 87.518-.449.017-.899.03-1.348.043zM245.311 186.173c5.422 22.625 10.318 43.272 15.342 63.889 1.818 7.461 3.31 14.757.521 22.413-3.875 10.634-10.758 16.123-20.371 15.554-8.389-.493-16.186-7.705-17.968-17.794-.874-4.944-1.234-10.563.152-15.255 6.463-21.869 13.614-43.521 20.535-65.246.195-.608.57-1.155 1.789-3.561zM59.736 186.789c4.401 13.848 8.525 26.753 12.605 39.677 2.691 8.524 5.411 17.041 7.96 25.61 3.271 11.001 2.489 21.387-5.456 30.183-5.058 5.601-11.57 7.277-18.56 4.959-8.543-2.833-12.884-9.782-14.285-18.467-.7-4.343-.809-9.116.169-13.362 5.021-21.794 10.475-43.48 15.814-65.194.206-.826.787-1.553 1.753-3.406zM148.892 38.954c.008 5.394.154 10.793-.028 16.18-.229 6.829-2.945 9.965-9.582 10.299-7.4.374-14.846.392-22.244.01-5.823-.299-9.179-3.906-9.233-10.072-.096-10.788-.333-21.59.073-32.361.466-12.356 9.948-22.013 20.732-21.868 10.85.146 19.704 9.802 20.236 22.306.221 5.158.038 10.337.046 15.506zM193.076 39.183c0 5.393-.056 10.788.013 16.179.082 6.401-3.364 9.75-9.112 10.055-7.611.404-15.285.436-22.888-.072-5.701-.38-9.03-3.802-8.941-10.233.145-10.56-.094-21.125.073-31.685.198-12.458 9.736-22.495 20.887-22.289 10.786.199 19.728 10.251 19.953 22.54.095 5.167.016 10.337.015 15.505zM218.74 85.31c-6.835-12.583-13.175-23.58-18.851-34.929-4.052-8.101-4.202-16.918-1.591-25.605 2.973-9.895 10.449-15.653 19.758-15.611 9.429.042 17.952 7.092 21.169 18.004 2.483 8.42 2.667 17.088-1.453 24.935-5.679 10.817-12.108 21.217-19.032 33.206zM82.489 85.411c-6.478-10.994-12.533-20.6-17.921-30.586-6.188-11.472-6.048-23.297.555-34.59 4.781-8.179 11.946-12.27 21.476-10.929 7.54 1.061 15.138 8.036 16.386 17.112.945 6.875 1.502 14.859-.982 20.962-5.241 12.879-12.589 24.848-19.514 38.031zM183.667 271.528c0 4.48.326 8.99-.07 13.433-.738 8.236-7.013 14.438-14.427 14.783-7.635.354-14.977-5.689-15.629-14.148-.703-9.13-.451-18.362-.208-27.538.118-4.45 2.924-6.758 7.377-6.729 5.004.037 10.013.098 15.013-.043 5.515-.154 7.995 2.745 8.103 8.141.081 4.032.017 8.067.017 12.102l-.176-.001zM120.24 271.771c-.005-4.257-.031-8.518 0-12.773.037-4.799 2.143-7.636 7.064-7.652 5.439-.018 10.879-.059 16.318.029 4.461.068 6.91 2.612 6.978 7.114.132 8.737.357 17.499-.09 26.216-.449 8.733-7.652 15.335-15.498 15.048-7.976-.293-14.349-7.071-14.736-15.882-.176-4.024-.029-8.065-.036-12.1zM102.278 236.554c4.817 10.717 9.946 21.304 14.256 32.233 1.254 3.185.784 7.485.03 11.033-1.893 8.921-6.643 13.417-13.662 13.96-7.563.586-14.375-3.6-16.527-12.286-1.436-5.786-1.873-12.871.083-18.287 3.352-9.291 8.926-17.73 13.566-26.526l2.254-.127zM202.897 234.987c5.461 10.057 10.479 17.985 14.205 26.515 3.971 9.095 3.421 18.362-2.999 26.538-4.134 5.269-9.557 6.845-15.803 5.257-5.899-1.497-9.53-5.973-10.531-11.66-.898-5.105-1.418-11.1.338-15.714 3.837-10.094 9.226-19.558 14.79-30.936z"/></g></svg>