<svg xmlns="http://www.w3.org/2000/svg" xml:space="preserve" viewBox="0 0 300 300"><g fill-rule="evenodd" clip-rule="evenodd"><path d="M253.633 17.684c-2.784 7.32-9.226 11.756-13.58 17.853-4.317 6.047-9.941 11.162-14.891 16.932l7.563-3.181c-2.173 3.691-5.515 5.973-8.384 8.724-5.632 5.402-11.701 10.408-16.21 17.331l10.425-5.424.471.533c-8.645 11.28-18.434 21.582-27.938 32.218l4.686-2.557.306.308c-1.028 1.371-2.063 2.737-3.081 4.114-1.714 2.313-3.31 4.721-5.155 6.921-1.682 2.005-3.474 3.973-5.49 5.624-3.655 2.994-6.051 6.635-7.599 11.115-.726 2.098-2.659 3.815-4.174 5.596a499.847 499.847 0 0 1-9.785 11.187c-.911 1.009-2.161 1.7-3.171 2.63a834.402 834.402 0 0 0-11.384 10.627c-.406.387-.446 1.156-.656 1.748.625-.102 1.361-.027 1.857-.334 2.185-1.361 4.286-2.85 6.446-4.25.702-.455 1.489-.775 2.235-1.158.108.125.217.25.324.377-2.039 2.809-4.068 5.627-6.131 8.42-.931 1.262-1.929 2.475-2.898 3.707-.233.297-.432.775-.725.848-3.213.807-3.291 4.043-4.861 6.117-1.078 1.424-2.357 2.711-3.658 3.939-2.434 2.299-5.08 4.385-7.402 6.789-3.886 4.02-7.587 8.219-11.366 12.344-.415.455-.822.914-1.639 1.824h4.6c.08.158.158.318.238.479-.749.789-1.466 1.615-2.253 2.363-4.954 4.723-9.934 9.412-14.872 14.146-.666.641-1.113 1.498-1.714 2.207-.755.895-1.56 1.746-2.355 2.605-.38.41-.858.746-1.168 1.201-2.937 4.301-5.798 8.658-8.802 12.912-.665.939-1.82 1.529-2.733 2.301-2.468 2.086-5.399 3.826-7.299 6.344-5.051 6.695-11.02 12.527-16.56 18.764-4.45 5.008-8.366 10.488-12.664 15.637-2.392 2.865-5.082 5.484-7.637 8.215l-.427-.279c.329-1.004.566-2.053 1-3.008 4.421-9.77 8.945-19.49 13.258-29.307.87-1.98 2.248-3.504 3.316-5.275 1.118-1.855 1.666-4.045 2.682-5.973 2.686-5.092 5.497-10.119 8.241-15.178.463-.855.847-1.754 1.267-2.633l-.532-.355-2.219 1.678c.577-1.182.919-2.043 1.392-2.826 4.737-7.834 9.554-15.619 14.217-23.498 1.555-2.627 2.742-5.475 4.08-8.23.098-.201.061-.465.105-.865l-1.656.551-.365-.361c1.54-1.615 2.948-3.385 4.645-4.811 4.295-3.615 8.2-7.557 11.328-12.236 1.122-1.68 2.267-3.344 3.173-5.201-2.916 1.232-5.083 3.703-8.856 4.141.67-.781 1.036-1.168 1.357-1.588 2.158-2.832 4.307-5.668 6.457-8.506.795-1.051 1.616-2.082 2.37-3.162 2.47-3.537 4.782-7.193 7.414-10.603 1.855-2.405 4.215-4.413 6.19-6.733 1.493-1.753 2.624-3.814 4.114-5.57 2.12-2.496 3.684-5.25 5.021-8.238 1.258-2.813 3.424-4.957 6.144-6.64 2.467-1.526 4.781-3.402 6.825-5.46.705-.711.377-2.433.557-3.687.061-.427.108-.953.372-1.238 2.35-2.52 4.65-5.096 7.153-7.458 3.277-3.096 6.735-5.999 10.094-9.01 1.638-1.468 3.401-2.848 4.793-4.528 2.386-2.882 4.243-6.244 6.836-8.905 3.576-3.672 7.64-6.872 11.476-10.296 1.954-1.744 3.942-3.46 5.783-5.319 4.082-4.121 8.501-7.761 13.75-10.313.279-.135.667-.243.79-.475 1.907-3.648 5.702-5.441 8.271-8.462 4.691-5.516 10.768-9.338 16.764-13.273 7.029-4.613 13.887-9.491 20.82-14.252.355-.248.722-.478 1.084-.714zM212.946 171.461l8.456-4.492c-.942 2.918-2.618 4.875-4.47 6.738-2.079 2.094-4.032 4.314-6.121 6.398-1.813 1.809-3.746 3.494-5.613 5.25-3.494 3.289-6.861 6.645-7.907 11.637-.163.773-.915 1.508-1.557 2.08-4.738 4.225-9.563 8.352-14.265 12.619-2.874 2.609-5.575 5.408-8.343 8.135-.109.109-.103.336-.213.736 3.583-1.465 7.012-2.865 10.44-4.268l.392.459c-1.05 1.15-2.065 2.332-3.155 3.441a1053.301 1053.301 0 0 1-9.828 9.889c-.653.648-1.388 1.406-2.219 1.646-3.376.975-5.592 3.471-8.016 5.732-2.386 2.227-4.917 4.305-7.231 6.604-3.376 3.354-6.633 6.828-9.896 10.293-.629.666-1.195 1.469-1.547 2.311-1.588 3.793-5.175 5.734-7.861 8.48-5.489 5.611-11.205 11.006-16.907 16.404-3.134 2.967-6.417 5.777-9.673 8.611-.526.459-1.263.676-2.163.74 1.329-2.588 2.643-5.186 3.989-7.764 3.391-6.496 6.764-13 10.206-19.471 2.732-5.133 5.355-10.34 8.391-15.293 3.469-5.658 7.35-11.063 11.03-16.594a260.245 260.245 0 0 0 4.692-7.273c.406-.656.562-1.469.882-2.348h-1.273c0-.24-.043-.436.008-.604.566-1.92 1.163-3.83 1.719-5.754.82-2.826 2.716-4.836 4.82-6.779 4.078-3.77 7.099-8.375 8.693-13.633 1.015-3.352 3.122-5.465 5.577-7.523 2.518-2.107 5.328-3.945 7.503-6.359 2.204-2.447 3.746-5.418 4.232-8.883.16-1.148 1.464-2.135 2.25-3.191 1.046-1.398 2.008-2.875 3.169-4.172a162.31 162.31 0 0 1 6.701-7.08c4.594-4.553 9.256-9.038 13.901-13.539.738-.716 1.534-1.371 2.304-2.054-.095-.119-.19-.238-.286-.355-3.249.931-6.494 1.864-9.742 2.795l-.258-.579c.952-.664 1.931-1.291 2.849-1.999 6.182-4.759 11.983-9.923 17.206-15.742 2.803-3.123 5.938-5.948 8.726-9.082 2.915-3.279 5.723-6.672 8.337-10.192 2.755-3.708 5.629-7.161 9.749-9.487 4.529-2.556 8.148-6.213 11.716-9.983 4.007-4.234 8.429-8.077 12.638-12.125 1.487-1.431 3.072-2.822 4.271-4.48 2.52-3.486 5.79-6.046 9.255-8.481 2.921-2.05 5.657-4.363 8.481-6.551.466-.36.967-.67 1.811-.711-1.242 1.915-2.453 3.852-3.732 5.74-3.449 5.087-6.972 10.127-10.376 15.243-1.619 2.434-3.081 4.977-4.537 7.514-2.53 4.412-5.006 8.854-7.489 13.292-.333.597-.505 1.289-.866 1.865-.608.967-1.23 1.949-1.987 2.797-2.756 3.088-5.524 6.167-8.386 9.156-1.317 1.38-2.86 2.547-4.301 3.81l.571.724 7.104-3.813.339.171c-.968 1.828-1.757 3.781-2.935 5.46-3.319 4.728-6.801 9.342-10.216 14.004-.187.252-.414.5-.514.787-2.094 5.984-6.367 10.601-9.78 15.764-1.187 1.795-1.832 3.94-2.824 5.877a9.448 9.448 0 0 1-1.697 2.363c-4.615 4.598-9.277 9.148-13.914 13.725-.257.256-.42.605-.628.912.106.153.212.304.318.452zM132.495 55.64c-2.249 1-4.497 2-6.746 3.002-.065-.157-.132-.313-.198-.469 5.061-3.958 10.104-7.937 15.188-11.866 3.273-2.532 6.412-5.319 9.963-7.394 4.16-2.431 7.263-5.96 10.851-8.984 2.042-1.721 4.368-3.104 6.574-4.628 2.937-2.028 5.919-3.991 8.813-6.079 3.768-2.717 7.478-5.516 11.188-8.31.775-.583 1.448-1.3 2.327-1.818-7.714 13.7-18.867 24.579-29.689 35.727l.385.508 6.389-3.731c-.553 1.004-.863 1.79-1.361 2.428-1.428 1.829-3.018 3.536-4.392 5.403-4.272 5.809-8.25 11.85-12.791 17.438-2.538 3.123-6.024 5.461-8.971 8.271a57.992 57.992 0 0 0-6.551 7.359l5.739-2.658c-.421.735-.633 1.213-.938 1.621-3.313 4.431-6.786 8.75-9.909 13.309-1.865 2.721-4.341 4.589-6.826 6.607-4.715 3.831-9.704 7.493-12.149 13.394-.371.893-.581 1.895-.646 2.859-.117 1.753-.877 2.924-2.252 4.088-2.513 2.126-4.964 4.413-7.016 6.973-2.126 2.653-3.994 5.484-6.896 7.391-.404.266-.813.524-1.22.787l.367.54 5.217-1.573.271.371c-1.929 1.739-3.852 3.487-5.789 5.219-5.062 4.521-10.296 8.865-15.138 13.612-3.194 3.131-6.202 6.463-8.23 10.676-1.106 2.295-3.427 4.188-5.562 5.773-7.212 5.359-12.547 12.338-17.754 19.508-2.354 3.24-5.177 6.15-7.875 9.131-5.017 5.539-10.103 11.016-15.151 16.527-1.386 1.512-2.736 3.057-4.104 4.586a46.13 46.13 0 0 1-.407-.26c1.133-2.25 2.267-4.502 3.396-6.758 3.51-7.008 6.953-14.051 10.543-21.018 3.019-5.857 6.218-11.619 9.317-17.432.619-1.16 1.499-2.322 1.66-3.561.65-5 4.255-8.125 6.899-11.943 2.784-4.02 5.095-8.451 7.027-12.955 1.862-4.34 4.439-8.102 7.285-11.772 1.305-1.682 2.495-3.46 3.637-5.256.459-.723 1.035-1.682.902-2.415-.462-2.546 1.363-3.845 2.585-5.519 2.063-2.827 4.271-5.578 6.04-8.582 2.697-4.579 5.869-8.498 10.63-11.155 3.244-1.812 6.305-4.068 8.24-7.416l-.248-.598-4.153 1.552-.314-.413c1.813-1.518 3.448-3.355 5.478-4.481 3.204-1.777 5.355-4.517 7.63-7.173 4.947-5.775 9.92-11.533 14.676-17.463 1.508-1.881 3.265-2.999 5.302-4.168 3.216-1.844 6.038-4.374 9.026-6.613l-.269-.199z"/></g></svg>