<?xml version="1.0" encoding="utf-8"?>
<!-- Generator: Adobe Illustrator 16.0.0, SVG Export Plug-In . SVG Version: 6.00 Build 0)  -->
<!DOCTYPE svg PUBLIC "-//W3C//DTD SVG 1.1//EN" "http://www.w3.org/Graphics/SVG/1.1/DTD/svg11.dtd">
<svg version="1.1" id="Layer_1" xmlns="http://www.w3.org/2000/svg" xmlns:xlink="http://www.w3.org/1999/xlink" x="0px" y="0px"
	 width="300px" height="300px" viewBox="0 0 300 300" enable-background="new 0 0 300 300" xml:space="preserve">
<g>
	<path fill-rule="evenodd" clip-rule="evenodd" d="M253.633,17.684c-2.784,7.32-9.226,11.756-13.58,17.853
		c-4.317,6.047-9.941,11.162-14.891,16.932c2.454-1.032,4.907-2.063,7.563-3.181c-2.173,3.691-5.515,5.973-8.384,8.724
		c-5.632,5.402-11.701,10.408-16.21,17.331c3.66-1.904,7.041-3.664,10.425-5.424c0.156,0.178,0.314,0.355,0.471,0.533
		c-8.645,11.28-18.434,21.582-27.938,32.218c1.562-0.853,3.124-1.705,4.686-2.557c0.102,0.102,0.203,0.205,0.306,0.308
		c-1.028,1.371-2.063,2.737-3.081,4.114c-1.714,2.313-3.31,4.721-5.155,6.921c-1.682,2.005-3.474,3.973-5.49,5.624
		c-3.655,2.994-6.051,6.635-7.599,11.115c-0.726,2.098-2.659,3.815-4.174,5.596c-3.209,3.775-6.466,7.51-9.785,11.187
		c-0.911,1.009-2.161,1.7-3.171,2.63c-3.823,3.514-7.628,7.043-11.384,10.627c-0.406,0.387-0.446,1.156-0.656,1.748
		c0.625-0.102,1.361-0.027,1.857-0.334c2.185-1.361,4.286-2.85,6.446-4.25c0.702-0.455,1.489-0.775,2.235-1.158
		c0.108,0.125,0.217,0.25,0.324,0.377c-2.039,2.809-4.068,5.627-6.131,8.42c-0.931,1.262-1.929,2.475-2.898,3.707
		c-0.233,0.297-0.432,0.775-0.725,0.848c-3.213,0.807-3.291,4.043-4.861,6.117c-1.078,1.424-2.357,2.711-3.658,3.939
		c-2.434,2.299-5.08,4.385-7.402,6.789c-3.886,4.02-7.587,8.219-11.366,12.344c-0.415,0.455-0.822,0.914-1.639,1.824
		c1.859,0,3.229,0,4.6,0c0.08,0.158,0.158,0.318,0.238,0.479c-0.749,0.789-1.466,1.615-2.253,2.363
		c-4.954,4.723-9.934,9.412-14.872,14.146c-0.666,0.641-1.113,1.498-1.714,2.207c-0.755,0.895-1.56,1.746-2.355,2.605
		c-0.38,0.41-0.858,0.746-1.168,1.201c-2.937,4.301-5.798,8.658-8.802,12.912c-0.665,0.939-1.82,1.529-2.733,2.301
		c-2.468,2.086-5.399,3.826-7.299,6.344c-5.051,6.695-11.02,12.527-16.56,18.764c-4.45,5.008-8.366,10.488-12.664,15.637
		c-2.392,2.865-5.082,5.484-7.637,8.215c-0.143-0.094-0.285-0.186-0.427-0.279c0.329-1.004,0.566-2.053,1-3.008
		c4.421-9.77,8.945-19.49,13.258-29.307c0.87-1.98,2.248-3.504,3.316-5.275c1.118-1.855,1.666-4.045,2.682-5.973
		c2.686-5.092,5.497-10.119,8.241-15.178c0.463-0.855,0.847-1.754,1.267-2.633c-0.177-0.117-0.354-0.236-0.532-0.355
		c-0.619,0.469-1.238,0.936-2.219,1.678c0.577-1.182,0.919-2.043,1.392-2.826c4.737-7.834,9.554-15.619,14.217-23.498
		c1.555-2.627,2.742-5.475,4.08-8.23c0.098-0.201,0.061-0.465,0.105-0.865c-0.647,0.215-1.152,0.383-1.656,0.551
		c-0.122-0.121-0.243-0.24-0.365-0.361c1.54-1.615,2.948-3.385,4.645-4.811c4.295-3.615,8.2-7.557,11.328-12.236
		c1.122-1.68,2.267-3.344,3.173-5.201c-2.916,1.232-5.083,3.703-8.856,4.141c0.67-0.781,1.036-1.168,1.357-1.588
		c2.158-2.832,4.307-5.668,6.457-8.506c0.795-1.051,1.616-2.082,2.37-3.162c2.47-3.537,4.782-7.193,7.414-10.603
		c1.855-2.405,4.215-4.413,6.19-6.733c1.493-1.753,2.624-3.814,4.114-5.57c2.12-2.496,3.684-5.25,5.021-8.238
		c1.258-2.813,3.424-4.957,6.144-6.64c2.467-1.526,4.781-3.402,6.825-5.46c0.705-0.711,0.377-2.433,0.557-3.687
		c0.061-0.427,0.108-0.953,0.372-1.238c2.35-2.52,4.65-5.096,7.153-7.458c3.277-3.096,6.735-5.999,10.094-9.01
		c1.638-1.468,3.401-2.848,4.793-4.528c2.386-2.882,4.243-6.244,6.836-8.905c3.576-3.672,7.64-6.872,11.476-10.296
		c1.954-1.744,3.942-3.46,5.783-5.319c4.082-4.121,8.501-7.761,13.75-10.313c0.279-0.135,0.667-0.243,0.79-0.475
		c1.907-3.648,5.702-5.441,8.271-8.462c4.691-5.516,10.768-9.338,16.764-13.273c7.029-4.613,13.887-9.491,20.82-14.252
		C252.904,18.15,253.271,17.92,253.633,17.684z"/>
	<path fill-rule="evenodd" clip-rule="evenodd" d="M212.946,171.461c2.717-1.443,5.435-2.887,8.456-4.492
		c-0.942,2.918-2.618,4.875-4.47,6.738c-2.079,2.094-4.032,4.314-6.121,6.398c-1.813,1.809-3.746,3.494-5.613,5.25
		c-3.494,3.289-6.861,6.645-7.907,11.637c-0.163,0.773-0.915,1.508-1.557,2.08c-4.738,4.225-9.563,8.352-14.265,12.619
		c-2.874,2.609-5.575,5.408-8.343,8.135c-0.109,0.109-0.103,0.336-0.213,0.736c3.583-1.465,7.012-2.865,10.44-4.268
		c0.131,0.152,0.262,0.307,0.392,0.459c-1.05,1.15-2.065,2.332-3.155,3.441c-3.258,3.316-6.527,6.617-9.828,9.889
		c-0.653,0.648-1.388,1.406-2.219,1.646c-3.376,0.975-5.592,3.471-8.016,5.732c-2.386,2.227-4.917,4.305-7.231,6.604
		c-3.376,3.354-6.633,6.828-9.896,10.293c-0.629,0.666-1.195,1.469-1.547,2.311c-1.588,3.793-5.175,5.734-7.861,8.48
		c-5.489,5.611-11.205,11.006-16.907,16.404c-3.134,2.967-6.417,5.777-9.673,8.611c-0.526,0.459-1.263,0.676-2.163,0.74
		c1.329-2.588,2.643-5.186,3.989-7.764c3.391-6.496,6.764-13,10.206-19.471c2.732-5.133,5.355-10.34,8.391-15.293
		c3.469-5.658,7.35-11.063,11.03-16.594c1.598-2.402,3.174-4.818,4.692-7.273c0.406-0.656,0.562-1.469,0.882-2.348
		c-0.598,0-0.916,0-1.273,0c0-0.24-0.043-0.436,0.008-0.604c0.566-1.92,1.163-3.83,1.719-5.754c0.82-2.826,2.716-4.836,4.82-6.779
		c4.078-3.77,7.099-8.375,8.693-13.633c1.015-3.352,3.122-5.465,5.577-7.523c2.518-2.107,5.328-3.945,7.503-6.359
		c2.204-2.447,3.746-5.418,4.232-8.883c0.16-1.148,1.464-2.135,2.25-3.191c1.046-1.398,2.008-2.875,3.169-4.172
		c2.166-2.42,4.394-4.795,6.701-7.08c4.594-4.553,9.256-9.038,13.901-13.539c0.738-0.716,1.534-1.371,2.304-2.054
		c-0.095-0.119-0.19-0.238-0.286-0.355c-3.249,0.931-6.494,1.864-9.742,2.795c-0.086-0.192-0.172-0.386-0.258-0.579
		c0.952-0.664,1.931-1.291,2.849-1.999c6.182-4.759,11.983-9.923,17.206-15.742c2.803-3.123,5.938-5.948,8.726-9.082
		c2.915-3.279,5.723-6.672,8.337-10.192c2.755-3.708,5.629-7.161,9.749-9.487c4.529-2.556,8.148-6.213,11.716-9.983
		c4.007-4.234,8.429-8.077,12.638-12.125c1.487-1.431,3.072-2.822,4.271-4.48c2.52-3.486,5.79-6.046,9.255-8.481
		c2.921-2.05,5.657-4.363,8.481-6.551c0.466-0.36,0.967-0.67,1.811-0.711c-1.242,1.915-2.453,3.852-3.732,5.74
		c-3.449,5.087-6.972,10.127-10.376,15.243c-1.619,2.434-3.081,4.977-4.537,7.514c-2.53,4.412-5.006,8.854-7.489,13.292
		c-0.333,0.597-0.505,1.289-0.866,1.865c-0.608,0.967-1.23,1.949-1.987,2.797c-2.756,3.088-5.524,6.167-8.386,9.156
		c-1.317,1.38-2.86,2.547-4.301,3.81c0.189,0.24,0.38,0.482,0.571,0.724c2.368-1.271,4.736-2.542,7.104-3.813
		c0.113,0.058,0.226,0.114,0.339,0.171c-0.968,1.828-1.757,3.781-2.935,5.46c-3.319,4.728-6.801,9.342-10.216,14.004
		c-0.187,0.252-0.414,0.5-0.514,0.787c-2.094,5.984-6.367,10.601-9.78,15.764c-1.187,1.795-1.832,3.94-2.824,5.877
		c-0.437,0.855-1.018,1.686-1.697,2.363c-4.615,4.598-9.277,9.148-13.914,13.725c-0.257,0.256-0.42,0.605-0.628,0.912
		C212.734,171.162,212.84,171.313,212.946,171.461z"/>
	<path fill-rule="evenodd" clip-rule="evenodd" d="M132.495,55.64c-2.249,1-4.497,2-6.746,3.002
		c-0.065-0.157-0.132-0.313-0.198-0.469c5.061-3.958,10.104-7.937,15.188-11.866c3.273-2.532,6.412-5.319,9.963-7.394
		c4.16-2.431,7.263-5.96,10.851-8.984c2.042-1.721,4.368-3.104,6.574-4.628c2.937-2.028,5.919-3.991,8.813-6.079
		c3.768-2.717,7.478-5.516,11.188-8.31c0.775-0.583,1.448-1.3,2.327-1.818c-7.714,13.7-18.867,24.579-29.689,35.727
		c0.129,0.17,0.257,0.339,0.385,0.508c1.998-1.167,3.997-2.334,6.389-3.731c-0.553,1.004-0.863,1.79-1.361,2.428
		c-1.428,1.829-3.018,3.536-4.392,5.403c-4.272,5.809-8.25,11.85-12.791,17.438c-2.538,3.123-6.024,5.461-8.971,8.271
		c-2.364,2.252-4.557,4.682-6.551,7.359c1.79-0.828,3.579-1.657,5.739-2.658c-0.421,0.735-0.633,1.213-0.938,1.621
		c-3.313,4.431-6.786,8.75-9.909,13.309c-1.865,2.721-4.341,4.589-6.826,6.607c-4.715,3.831-9.704,7.493-12.149,13.394
		c-0.371,0.893-0.581,1.895-0.646,2.859c-0.117,1.753-0.877,2.924-2.252,4.088c-2.513,2.126-4.964,4.413-7.016,6.973
		c-2.126,2.653-3.994,5.484-6.896,7.391c-0.404,0.266-0.813,0.524-1.22,0.787c0.122,0.18,0.245,0.36,0.367,0.54
		c1.739-0.524,3.479-1.048,5.217-1.573c0.091,0.124,0.181,0.248,0.271,0.371c-1.929,1.739-3.852,3.487-5.789,5.219
		c-5.062,4.521-10.296,8.865-15.138,13.612c-3.194,3.131-6.202,6.463-8.23,10.676c-1.106,2.295-3.427,4.188-5.562,5.773
		c-7.212,5.359-12.547,12.338-17.754,19.508c-2.354,3.24-5.177,6.15-7.875,9.131c-5.017,5.539-10.103,11.016-15.151,16.527
		c-1.386,1.512-2.736,3.057-4.104,4.586c-0.136-0.086-0.271-0.172-0.407-0.26c1.133-2.25,2.267-4.502,3.396-6.758
		c3.51-7.008,6.953-14.051,10.543-21.018c3.019-5.857,6.218-11.619,9.317-17.432c0.619-1.16,1.499-2.322,1.66-3.561
		c0.65-5,4.255-8.125,6.899-11.943c2.784-4.02,5.095-8.451,7.027-12.955c1.862-4.34,4.439-8.102,7.285-11.772
		c1.305-1.682,2.495-3.46,3.637-5.256c0.459-0.723,1.035-1.682,0.902-2.415c-0.462-2.546,1.363-3.845,2.585-5.519
		c2.063-2.827,4.271-5.578,6.04-8.582c2.697-4.579,5.869-8.498,10.63-11.155c3.244-1.812,6.305-4.068,8.24-7.416
		c-0.083-0.2-0.165-0.399-0.248-0.598c-1.384,0.517-2.769,1.035-4.153,1.552c-0.104-0.137-0.209-0.275-0.314-0.413
		c1.813-1.518,3.448-3.355,5.478-4.481c3.204-1.777,5.355-4.517,7.63-7.173c4.947-5.775,9.92-11.533,14.676-17.463
		c1.508-1.881,3.265-2.999,5.302-4.168c3.216-1.844,6.038-4.374,9.026-6.613C132.675,55.772,132.584,55.706,132.495,55.64z"/>
</g>
<g>
</g>
<g>
</g>
<g>
</g>
<g>
</g>
<g>
</g>
<g>
</g>
</svg>
