<?xml version="1.0" encoding="utf-8"?>
<!-- Generator: Adobe Illustrator 16.0.0, SVG Export Plug-In . SVG Version: 6.00 Build 0)  -->
<!DOCTYPE svg PUBLIC "-//W3C//DTD SVG 1.1//EN" "http://www.w3.org/Graphics/SVG/1.1/DTD/svg11.dtd">
<svg version="1.1" id="Layer_1" xmlns="http://www.w3.org/2000/svg" xmlns:xlink="http://www.w3.org/1999/xlink" x="0px" y="0px"
	 width="300px" height="300px" viewBox="0 0 300 300" enable-background="new 0 0 300 300" xml:space="preserve">
<g>
	<path fill-rule="evenodd" clip-rule="evenodd" d="M119.641,177.35c-9.051,0-17.669,0.042-26.286-0.012
		c-7.918-0.05-15.838-0.273-23.756-0.286c-4.581-0.008-9.162,0.278-13.744,0.383c-2.688,0.062-4.298-1.105-4.401-3.787
		c-0.262-6.8-0.299-13.612-0.341-20.42c-0.061-9.901-0.061-19.804-0.06-29.706c0.002-4.774,1.729-6.394,6.438-6.347
		c7.83,0.077,15.661,0.099,23.492,0.113c9.168,0.019,18.338,0.003,27.507,0.009c3.166,0.002,6.333-0.018,9.499,0.063
		c1.569,0.039,2.122-0.678,2.11-2.139c-0.079-10.764-0.181-21.531-0.194-32.295c-0.01-7.436,0.128-14.87,0.16-22.305
		c0.012-2.601-0.056-5.202-0.16-7.8c-0.132-3.277,1.198-4.986,4.395-5c11.862-0.056,23.725-0.008,35.585,0
		c5.235,0.003,10.471-0.005,15.705,0.006c3.325,0.006,4.548,1.106,4.568,4.335c0.052,7.501,0.084,15.003,0.016,22.504
		c-0.111,12.25-0.313,24.5-0.464,36.749c-0.008,0.79,0.152,1.582,0.145,2.372c-0.021,2.414,1.387,3.442,3.559,3.491
		c3.564,0.079,7.131,0.022,10.695,0.001c5.857-0.034,11.715-0.088,17.572-0.125c5.443-0.036,10.888-0.057,16.329-0.09
		c5.375-0.033,10.75-0.158,16.123-0.07c2.706,0.043,4.481,1.979,4.523,4.821c0.063,3.787-0.148,7.577-0.148,11.366
		c0,7.786,0.053,15.571,0.106,23.356c0.032,5.127,0.13,10.253,0.146,15.379c0.012,3.517-2.398,5.672-5.923,5.604
		c-9.566-0.186-19.132-0.394-28.703-0.41c-10.425-0.018-20.854,0.247-31.283,0.203c-2.351-0.01-2.935,1.056-2.95,2.961
		c-0.071,9.886-0.158,19.774-0.162,29.66c-0.004,8.51,0.091,17.019,0.153,25.528c0.02,2.359,0.104,4.719,0.127,7.08
		c0.027,3.311-2.445,5.231-5.817,5.095c-7.327-0.296-14.664-0.361-21.998-0.483c-6.182-0.103-12.365-0.164-18.547-0.218
		c-2.897-0.024-5.795,0.046-8.691,0.009c-3.875-0.049-4.979-1.27-4.97-5.202c0.013-6.568-0.043-13.14-0.029-19.712
		c0.031-13.492,0.102-26.986,0.116-40.481C120.083,180.236,119.814,178.924,119.641,177.35z"/>
	<path fill-rule="evenodd" clip-rule="evenodd" d="M41.585,235.083c-0.955-1.378-1.677-2.032-1.911-2.828
		c-0.799-2.724-1.262-5.554-2.153-8.244c-2.149-6.485-6.276-10.891-13.359-11.848c-1.583-0.215-2.505-1-2.619-2.542
		c-0.134-1.816,1.418-1.905,2.596-2.151c3.472-0.723,6.51-2.185,9.316-4.407c2.652-2.099,4.075-4.768,4.811-7.924
		c0.501-2.146,0.77-4.361,1.46-6.44c0.302-0.907,1.298-2.027,2.16-2.209c1.529-0.323,2.359,0.814,2.626,2.37
		c0.679,3.95,1.235,7.905,3.429,11.456c2.13,3.444,5.03,5.592,8.93,6.479c1.156,0.263,2.44,0.3,3.422,0.866
		c0.712,0.411,1.443,1.549,1.391,2.311c-0.049,0.74-0.977,1.891-1.699,2.051c-10.094,2.229-13.576,7.767-15.055,17.022
		c-0.149,0.938-0.11,1.991-0.548,2.774C43.812,232.842,42.852,233.646,41.585,235.083z"/>
	<path fill-rule="evenodd" clip-rule="evenodd" d="M246.815,109.211c-0.368-0.454-1.273-1.144-1.591-2.039
		c-1.093-3.117-1.61-6.482-3.024-9.427c-2.527-5.257-7.803-6.777-12.857-8.494c-0.845-0.288-1.903-1.161-2.078-1.94
		c-0.29-1.294,0.802-1.625,2.063-1.892c4.226-0.899,8.216-2.523,11.282-5.659c1.218-1.244,2.136-2.98,2.66-4.658
		c0.842-2.701,1.27-5.533,1.818-8.322c0.217-1.108,0.199-2.301,1.804-2.281c1.464,0.02,2.643,0.369,2.96,2.084
		c0.341,1.863,0.861,3.693,1.185,5.558c1.285,7.5,6.344,11.115,13.191,12.917c0.461,0.122,1.095,0.072,1.355,0.364
		c0.665,0.75,1.576,1.641,1.595,2.49c0.01,0.641-1.106,1.569-1.911,1.898c-1.662,0.679-3.516,0.884-5.177,1.565
		c-6.755,2.769-9.389,8.35-9.88,15.182C250.073,108.451,249.145,109.003,246.815,109.211z"/>
	<path fill-rule="evenodd" clip-rule="evenodd" d="M16.298,150.212c-4.336,0-8.673-0.009-13.011,0.004
		c-2.081,0.006-2.419-1.63-2.613-3.058c-0.195-1.431,0.389-2.682,2.188-2.724c2.493-0.056,4.984-0.159,7.477-0.143
		c6.291,0.04,12.58,0.13,18.87,0.211c0.63,0.008,1.367-0.099,1.867,0.182c0.891,0.5,2.017,1.119,2.315,1.951
		c0.209,0.582-0.604,1.899-1.305,2.35c-1.074,0.692-2.433,1.237-3.693,1.287c-4.026,0.158-8.061,0.059-12.094,0.059
		C16.298,150.292,16.298,150.251,16.298,150.212z"/>
	<path fill-rule="evenodd" clip-rule="evenodd" d="M282.791,150.276c-4.581,0-9.165-0.056-13.747,0.025
		c-2.067,0.037-2.869-0.924-2.856-2.849c0.018-1.885,1.204-2.762,2.84-2.834c1.719-0.077,3.452,0.325,5.181,0.321
		c6.836-0.017,13.671-0.145,20.509-0.145c1.544,0,3.285-0.011,3.541,2.243c0.246,2.109-0.994,3.18-2.735,3.528
		c-1.508,0.302-3.111,0.115-4.675,0.121c-2.683,0.011-5.371,0.003-8.057,0.003C282.791,150.552,282.791,150.414,282.791,150.276z"/>
	<path fill-rule="evenodd" clip-rule="evenodd" d="M282.594,194.867c0.104,3.583-1.948,4.984-4.319,3.823
		c-5.801-2.846-11.612-5.673-17.376-8.593c-0.851-0.433-1.868-1.207-2.098-2.022c-0.255-0.897-0.003-2.596,0.59-2.93
		c1.003-0.56,2.671-0.791,3.683-0.334c5.533,2.501,10.967,5.218,16.393,7.942C280.736,193.39,281.84,194.349,282.594,194.867z"/>
	<path fill-rule="evenodd" clip-rule="evenodd" d="M231.334,201.085c0.704,0.407,1.468,0.688,2.018,1.201
		c3.69,3.429,7.365,6.875,10.975,10.383c1.236,1.204,2.503,2.483,3.32,3.966c0.438,0.79,0.345,2.386-0.2,3.085
		c-0.819,1.054-2.222,1.955-3.648,0.577c-4.538-4.38-9.161-8.675-13.543-13.206c-2.324-2.409-2.126-4.375-0.032-5.482
		C230.56,201.432,230.911,201.285,231.334,201.085z"/>
	<path fill-rule="evenodd" clip-rule="evenodd" d="M51.403,79.721c2.254,1.641,4.266,2.887,6.02,4.428
		c3.319,2.915,6.467,6.023,9.733,9c1.371,1.248,1.085,2.407,0.136,3.701c-1.055,1.439-2.24,0.985-3.277,0.149
		c-4.791-3.867-9.524-7.805-14.292-11.7c-1.45-1.183-1.174-2.453-0.218-3.71C49.995,80.943,50.664,80.436,51.403,79.721z"/>
	<path fill-rule="evenodd" clip-rule="evenodd" d="M19.926,104.639c1.501,0.546,2.576,0.832,3.555,1.31
		c4.328,2.111,8.581,4.387,12.962,6.377c1.952,0.886,2.228,2.272,1.589,3.823c-0.685,1.662-2.107,2.261-3.912,1.349
		c-4.796-2.422-9.624-4.784-14.406-7.237c-1.391-0.713-2.232-1.899-1.456-3.517C18.633,105.966,19.347,105.351,19.926,104.639z"/>
</g>
<g>
</g>
<g>
</g>
<g>
</g>
<g>
</g>
<g>
</g>
<g>
</g>
</svg>
