<?xml version="1.0" encoding="utf-8"?>
<!-- Generator: Adobe Illustrator 16.0.0, SVG Export Plug-In . SVG Version: 6.00 Build 0)  -->
<!DOCTYPE svg PUBLIC "-//W3C//DTD SVG 1.1//EN" "http://www.w3.org/Graphics/SVG/1.1/DTD/svg11.dtd">
<svg version="1.1" id="Layer_1" xmlns="http://www.w3.org/2000/svg" xmlns:xlink="http://www.w3.org/1999/xlink" x="0px" y="0px"
	 width="300px" height="300px" viewBox="0 0 300 300" enable-background="new 0 0 300 300" xml:space="preserve">
<g>
	<path fill-rule="evenodd" clip-rule="evenodd" d="M95.074,231.975c2.792-2.604,5.512-5.074,8.148-7.631
		c1.26-1.221,2.623-2.464,3.438-3.97c0.544-1.005,0.205-2.489-0.067-3.85c-15.731,12.552-30.886,25.415-45.255,40.03
		c1.172,0.33,1.753,0.601,2.352,0.645c3.745,0.276,7.505,0.396,11.238,0.78c2.643,0.272,5.266,0.813,7.868,1.374
		c1.044,0.225,2.166,0.634,2.96,1.306c0.674,0.569,1.395,1.73,1.248,2.458c-0.18,0.891-1.092,2.011-1.947,2.327
		c-7.033,2.605-14.146,4.993-21.194,7.559c-4.158,1.513-8.243,3.225-12.359,4.854c-4.509,1.785-9.025,3.551-13.513,5.387
		c-0.956,0.39-1.803,1.046-2.229,1.299c-1.087,0.188-1.816,0.163-2.403,0.44c-3.22,1.518-6.39,3.145-9.612,4.657
		c-1.039,0.488-2.168,0.821-3.288,1.089c-2.046,0.49-3.734-0.983-3.168-2.991c0.842-2.988,1.902-5.932,3.091-8.803
		c2.143-5.179,4.537-10.253,6.666-15.437c2.519-6.132,4.794-12.362,7.315-18.492c1.924-4.679,4.107-9.25,6.101-13.9
		c1.205-2.81,2.186-5.717,3.452-8.496c0.332-0.728,1.384-1.611,2.047-1.566c0.685,0.047,1.524,1.024,1.906,1.789
		c2.267,4.542,2.739,9.541,3.374,14.471c0.372,2.892,0.424,5.825,0.659,9.305c1.081-0.903,1.959-1.56,2.748-2.31
		c7.486-7.126,14.963-14.261,22.431-21.406c5.688-5.442,11.38-10.881,17.007-16.387c0.69-0.675,1.084-1.718,1.415-2.661
		c0.111-0.318-0.311-1.122-0.647-1.236c-0.674-0.228-1.74-0.467-2.152-0.118c-3.287,2.776-6.545,5.599-9.641,8.586
		c-2.858,2.757-5.647,3.09-8.597,0.311c-4.884-4.602-9.608-9.372-14.397-14.076c-0.293-0.287-0.523-0.647-0.838-0.905
		c-5.747-4.711-10.584-10.294-14.874-16.293c-3.525-4.93-6.434-10.296-9.8-15.345c-3.511-5.267-5.305-11.183-7.03-17.152
		c-2.803-9.696-2.9-19.629-2-29.53c0.599-6.593,2.407-13.056,5.22-19.084c3.324-7.128,8.426-12.924,14.656-17.704
		c2.818-2.162,5.529-4.572,8.635-6.215c2.964-1.568,6.316-2.545,9.606-3.331c11.102-2.653,21.97-1.806,32.743,2.104
		c5.477,1.987,10.957,3.91,15.833,7.083c3.191,2.077,6.085,4.642,8.974,7.147c4.165,3.613,6.739,8.504,9.977,12.861
		c0.366,0.493,0.655,1.052,1.064,1.503c0.708,0.781,1.281,1.048,2.044-0.151c1.571-2.469,3.287-4.853,5.044-7.196
		c3.776-5.037,8.505-9.155,13.664-12.61c8.002-5.358,16.996-8.481,26.526-9.802c5.01-0.694,10.06-0.417,14.953,1.112
		c2.808,0.878,5.596,1.819,8.395,2.727c3.914,1.27,5.166,4.931,2.481,7.988c-4.002,4.561-8.2,8.951-12.362,13.369
		c-3.849,4.084-7.714,8.153-11.653,12.147c-4.872,4.939-9.859,9.763-14.735,14.697c-2.888,2.921-5.603,6.013-8.489,8.934
		c-5.568,5.638-11.202,11.212-16.813,16.807c-1.551,1.547-1.453,3.113,0.466,4.243c0.415,0.244,1.48-0.047,1.891-0.451
		c7.276-7.167,14.492-14.394,21.731-21.597c5.2-5.174,10.508-10.243,15.599-15.522c5.308-5.503,10.381-11.232,15.615-16.807
		c4.074-4.34,8.303-8.537,12.331-12.92c1.404-1.527,2.443-3.399,3.572-5.163c0.197-0.309,0.091-0.886-0.017-1.303
		c-0.623-2.421-1.62-4.797-1.868-7.252c-0.493-4.873-1.04-9.848,1.345-14.462c0.645-1.247,1.484-2.467,2.483-3.445
		c4.694-4.597,9.14-9.543,14.32-13.523c5.358-4.117,9.84-9.036,14.687-13.626c1.286-1.217,2.646-2.395,4.134-3.333
		c0.391-0.246,1.703,0.274,2.035,0.797c0.476,0.748,0.63,1.83,0.591,2.755c-0.19,4.507-0.5,9.008-0.749,13.512
		c-0.112,2.027-0.186,4.057-0.266,6.086c-0.069,1.753,0.655,2.338,2.505,2.233c7.019-0.396,14.048-0.614,21.074-0.876
		c0.749-0.028,1.521,0.009,2.253,0.16c1.839,0.378,2.726,1.797,1.978,3.508c-0.563,1.287-1.396,2.527-2.358,3.557
		c-5.209,5.583-10.517,11.075-15.749,16.637c-3.788,4.025-7.447,8.173-11.283,12.15c-4.198,4.354-9.494,6.1-15.465,6.185
		c-3.388,0.048-7.055-0.853-10.013,1.314c-2.571,1.884-4.753,4.313-7.046,6.563c-4.446,4.363-8.863,8.757-13.267,13.163
		c-2.456,2.458-4.853,4.976-7.292,7.451c-4.839,4.911-9.671,9.827-14.536,14.711c-7.151,7.178-14.34,14.319-21.487,21.5
		c-2.403,2.415-4.748,4.889-7.07,7.381c-0.225,0.242-0.296,0.969-0.108,1.197c1.068,1.297,3.622,1.299,4.795,0.121
		c9.004-9.037,18.043-18.038,27.015-27.106c9.862-9.967,19.661-19.998,29.497-29.992c3.125-3.174,6.205-6.398,9.447-9.449
		c2.599-2.445,5.11-3.451,8.343-0.012c4.771,5.075,8.064,10.736,8.783,17.61c0.535,5.123,0.487,10.315,0.526,15.479
		c0.024,3.201-0.311,6.404-0.419,9.608c-0.158,4.626-2.099,8.759-3.731,12.928c-1.764,4.503-3.847,8.904-6.101,13.188
		c-4.194,7.97-9.756,15.026-15.408,21.989c-3.006,3.701-6.104,7.345-9.386,10.801c-4.431,4.664-9.084,9.116-13.631,13.67
		c-5.907,5.916-11.876,11.771-17.68,17.788c-4.846,5.023-9.48,10.249-14.228,15.367c-3.394,3.661-6.93,7.196-10.205,10.96
		c-4.125,4.741-8.104,9.612-12.033,14.517c-2.044,2.552-3.377,2.504-5.496,0.029c-6.413-7.493-12.95-14.879-19.471-22.278
		c-2.71-3.075-5.484-6.096-8.261-9.111c-2.215-2.406-4.487-4.76-6.714-7.153C96.367,233.605,95.839,232.899,95.074,231.975z
		 M237.016,45.506c-1.076,4.346,0.303,8.231,0.381,12.14C239.333,54.856,239.203,47.871,237.016,45.506z M223.193,70.022
		c2.284-0.185,2.655-0.722,2.285-2.464c-0.445-2.101-0.744-4.234-1.064-6.359c-0.122-0.807-0.127-1.63-0.186-2.446
		c-0.222,0.011-0.444,0.021-0.666,0.031C222.212,62.474,223.367,66.258,223.193,70.022z M235.705,78.494
		c0.109,0.231,0.218,0.461,0.326,0.692c3.275-0.298,6.552-0.567,9.819-0.928c0.462-0.051,0.874-0.549,1.309-0.84
		c-0.482-0.232-0.971-0.67-1.448-0.66c-2.588,0.058-5.184,0.13-7.754,0.415C237.168,77.26,236.454,78.035,235.705,78.494z
		 M258.097,64.369c-5.094-0.516-7.702-0.04-9.365,1.511C252.168,66.495,255.205,65.861,258.097,64.369z"/>
	<path fill-rule="evenodd" clip-rule="evenodd" d="M133.818,12.95c4.995,1.757,4.646,6.035,4.717,9.969
		c0.124,6.744,0.07,13.492,0.025,20.238c-0.027,3.989,0.025,7.999-0.39,11.954c-0.135,1.288-1.436,2.683-2.565,3.568
		c-1.081,0.847-2.924,1.374-3.829-0.131c-0.897-1.493-1.527-3.371-1.581-5.101c-0.146-4.746,0.157-9.502,0.129-14.254
		c-0.039-6.465-0.274-12.928-0.313-19.394C129.996,16.823,131.144,14.363,133.818,12.95z"/>
	<path fill-rule="evenodd" clip-rule="evenodd" d="M102.741,58.472c-1.381-0.951-2.535-1.455-3.269-2.315
		c-1.142-1.34-2.046-2.894-2.966-4.408c-1.442-2.374-2.818-4.788-4.214-7.189c-1.506-2.591-2.96-5.212-4.521-7.77
		c-0.691-1.132-1.649-2.1-2.376-3.213c-1.356-2.076-1.025-4.417,0.75-5.944c1.431-1.23,4.243-1.01,5.678,0.861
		c1.978,2.581,3.692,5.376,5.38,8.164c2.861,4.725,5.602,9.522,8.419,14.273c0.932,1.571,1.465,3.264,0.371,4.823
		C105.261,56.793,103.995,57.456,102.741,58.472z"/>
	<path fill-rule="evenodd" clip-rule="evenodd" d="M166.207,58.663c-3.617-0.121-5.368-3.39-3.929-6.032
		c1.504-2.763,3.04-5.509,4.627-8.225c2.93-5.013,5.817-10.056,8.937-14.95c0.676-1.06,2.328-2.231,3.41-2.125
		c1.604,0.158,3.522,0.973,3.837,3.111c0.109,0.74,0.056,1.654-0.292,2.286c-2.728,4.955-5.535,9.866-8.338,14.779
		c-1.482,2.599-3.035,5.157-4.498,7.766C168.945,57.087,167.582,58.361,166.207,58.663z"/>
</g>
</svg>
