<svg version="1.1" id="Layer_1" xmlns="http://www.w3.org/2000/svg" xmlns:xlink="http://www.w3.org/1999/xlink" x="0px" y="0px"
	 width="1024px" height="1024px" viewBox="72 64 872 864" enable-background="new 0 0 1024 1024" xml:space="preserve">
<path fill="#000000" opacity="1.000000" stroke="none" 
	d="
M860.140503,703.102661 
	C848.112549,720.258789 835.411926,736.378479 821.563843,751.669678 
	C804.761230,770.223328 785.993652,786.431946 766.485535,802.030701 
	C738.444824,824.452026 707.106384,840.906372 674.479370,855.198181 
	C648.036743,866.781067 620.786194,876.284546 592.530640,882.137756 
	C577.527710,885.245605 562.315186,887.849792 546.830200,888.694153 
	C538.920227,889.125488 530.882690,889.706482 523.007080,889.912231 
	C507.517822,890.316956 491.972168,889.333191 476.451447,888.652527 
	C456.785370,887.790039 437.677795,883.699402 418.580383,879.916687 
	C406.683197,877.560120 395.345276,872.206726 383.883423,867.863098 
	C362.105225,859.610046 341.098999,849.604187 320.565643,838.667725 
	C296.027344,825.598206 273.049500,810.175293 251.883972,792.055969 
	C239.497406,781.452271 227.231277,770.768860 216.098465,758.815918 
	C201.487976,743.128967 187.798141,726.682800 174.853622,709.609131 
	C173.724152,708.119385 172.834595,706.549622 170.772995,706.270752 
	C169.921616,706.155579 168.933365,705.844299 168.947601,704.890076 
	C169.061905,697.224304 163.136292,692.430969 160.037003,686.332092 
	C154.858658,676.141724 148.588928,666.520752 144.439651,655.780762 
	C143.077377,652.254700 141.585266,648.545959 138.678986,646.002686 
	C133.927521,641.844788 136.078308,635.762817 133.910217,630.773621 
	C126.167007,612.955078 121.179337,594.171021 116.189682,575.428650 
	C114.948181,570.765320 113.801872,566.057495 112.472099,561.478638 
	C111.328987,557.542297 112.309982,552.210876 111.676102,547.479004 
	C108.711548,525.349121 108.395485,503.092255 108.673897,480.813660 
	C108.831696,468.186829 110.473511,455.671356 111.840050,443.150513 
	C114.006958,423.296234 118.527000,403.906708 124.593132,384.895081 
	C135.665359,350.194031 150.815994,317.449768 170.902710,286.955078 
	C177.222122,277.361237 183.846405,268.023743 190.840637,258.964355 
	C199.752533,247.421036 209.359787,236.432510 219.683899,226.098022 
	C228.222473,217.550858 236.374283,208.579468 245.329407,200.496124 
	C255.807404,191.038193 266.788269,182.107758 278.222778,173.791046 
	C297.903900,159.476334 318.811371,147.165421 340.691254,136.569534 
	C370.868958,121.955208 402.482330,111.604027 435.272858,104.468643 
	C453.291351,100.547729 471.525055,98.425110 489.720093,95.996597 
	C497.368530,94.975739 505.308533,95.899330 513.100586,96.266266 
	C520.079590,96.594917 527.020935,97.094460 533.988464,96.019608 
	C537.619263,95.459488 540.886902,97.497902 544.517639,97.864609 
	C571.383850,100.578140 597.798645,105.714180 623.758301,113.304993 
	C649.010376,120.688904 673.154541,130.752289 696.980957,141.778000 
	C701.716492,143.969421 706.120300,146.417755 710.606567,149.039948 
	C728.822693,159.687119 746.749878,170.734573 763.618835,183.416077 
	C781.948669,197.195801 798.783813,212.585602 814.098083,229.724167 
	C828.832092,246.213364 842.891663,263.215546 854.775146,281.844604 
	C869.547852,305.002960 881.129822,329.791382 891.415588,355.274017 
	C902.575806,382.923431 911.054504,411.307953 915.933899,440.646606 
	C918.453918,455.798676 920.971008,471.106293 920.316895,486.618011 
	C919.968079,494.890106 921.015076,503.083374 920.622437,511.429138 
	C919.512390,535.025452 916.312988,558.221863 911.424377,581.301453 
	C905.153687,610.906006 894.468384,638.907837 881.468384,666.062927 
	C875.369751,678.802124 868.191467,691.021179 860.140503,703.102661 
M766.260132,239.274261 
	C749.945557,223.112198 731.583557,209.498764 712.516602,196.867340 
	C690.570374,182.328430 667.116272,170.565933 642.412415,161.479950 
	C629.230713,156.631805 615.986389,152.180878 601.933105,149.687103 
	C595.366150,148.521759 588.349243,146.307800 581.609558,144.667313 
	C565.832214,140.827057 549.573975,139.208740 533.367126,138.569183 
	C520.323303,138.054428 507.318298,137.111176 494.115204,138.063354 
	C475.576569,139.400330 457.166473,141.261414 438.974884,144.807251 
	C410.361786,150.384399 383.058411,160.090118 356.613739,172.298355 
	C320.311218,189.057480 288.636169,212.388336 260.023224,240.086670 
	C246.772018,252.914291 234.764145,266.837067 223.581833,281.494385 
	C205.443207,305.269745 190.775177,331.014099 179.099472,358.538025 
	C169.472824,381.231598 162.445389,404.617126 157.843658,428.856232 
	C154.864578,444.548157 153.104843,460.318054 152.439545,476.196289 
	C151.443024,499.979462 153.528214,523.582825 157.175354,547.122009 
	C162.041153,578.526367 172.404083,608.220459 184.761963,637.226501 
	C191.785461,653.711853 200.863617,669.234985 210.974625,684.144165 
	C221.039658,698.985474 232.501343,712.739502 244.442551,725.946106 
	C257.882812,740.810608 272.012939,755.205750 288.242889,767.223206 
	C296.242798,773.146851 304.570892,778.597473 312.833282,784.132935 
	C318.548553,787.961914 324.930542,790.674683 330.297638,795.039124 
	C333.387329,797.551514 336.818481,799.703857 341.081116,799.701416 
	C342.351227,799.700745 343.322052,800.276855 344.059113,801.257751 
	C346.351593,804.308594 349.715363,805.714539 353.000885,807.344421 
	C359.827850,810.731140 367.298950,812.841553 373.953369,816.188232 
	C385.610596,822.050903 397.796692,825.932739 410.042786,830.028259 
	C443.747528,841.300110 478.528381,845.527588 513.803894,845.454651 
	C533.654297,845.413635 553.450562,843.385315 573.119934,839.882263 
	C595.351562,835.922791 616.968323,830.028503 638.292419,822.762573 
	C658.977356,815.714539 678.539062,806.214539 697.744568,795.939941 
	C710.880859,788.912231 723.235901,780.592102 735.418152,772.043213 
	C752.209106,760.260071 767.158630,746.310608 781.161743,731.433655 
	C799.536438,711.912170 815.033081,690.210449 828.677307,667.092651 
	C844.160400,640.859314 855.445923,612.868225 864.424805,583.933533 
	C870.919373,563.004761 875.072632,541.533386 876.842834,519.597595 
	C878.209290,502.665253 878.515198,485.686798 877.342529,468.842407 
	C875.940857,448.707733 872.169373,428.819885 867.155090,409.185364 
	C863.040100,393.072021 857.851074,377.357117 851.468079,362.036774 
	C843.986023,344.078766 835.566162,326.586639 824.989685,310.186951 
	C815.262573,295.104431 804.998901,280.445862 792.964050,267.076843 
	C784.516785,257.693085 775.813171,248.563049 766.260132,239.274261 
z"/>
<path fill="#000000" opacity="1.000000" stroke="none" 
	d="
M687.800781,745.691406 
	C669.682861,743.066345 652.193665,739.379639 634.642700,736.042358 
	C622.461121,733.726013 610.185059,732.062256 597.914246,730.330933 
	C578.317566,727.565979 558.596069,727.776367 538.879333,727.122864 
	C515.441406,726.346008 491.995728,726.901367 468.652344,727.603455 
	C442.314117,728.395508 415.982941,731.550354 390.206329,738.317139 
	C376.824738,741.829956 362.964325,743.610474 349.159607,745.340210 
	C334.352173,747.195618 319.865234,744.383728 305.229919,743.601013 
	C298.647095,743.248962 292.621094,741.013733 286.302368,739.867493 
	C277.520721,738.274475 271.420227,731.467651 264.517822,726.451050 
	C257.711853,721.504395 251.478256,715.763550 245.055466,710.298401 
	C238.906082,705.065735 237.037247,696.841858 241.199066,691.815247 
	C243.960693,688.479736 248.003296,686.634644 251.898224,684.734985 
	C261.669769,679.969299 272.158508,677.355835 282.624268,674.891235 
	C292.978088,672.452881 298.921631,666.644043 301.346680,656.187988 
	C308.759888,624.224731 316.043335,592.253845 321.879547,559.942993 
	C325.535431,539.702820 328.697479,519.501404 329.847717,498.925171 
	C330.654114,484.499512 331.733826,470.107971 331.722748,455.644989 
	C331.719604,451.499329 330.341736,449.239075 326.305908,447.994568 
	C318.654114,445.635071 313.002625,440.710571 309.427887,433.474518 
	C308.150299,430.888336 307.616608,428.206451 307.623505,425.303986 
	C307.677765,402.476196 307.439545,379.645111 307.775818,356.822174 
	C307.882874,349.555908 308.237000,342.240021 308.816071,334.986298 
	C309.386017,327.846436 313.623840,322.809479 319.977753,319.520996 
	C335.418060,311.529785 351.921997,306.392700 368.553497,301.712067 
	C377.783752,299.114380 386.886414,295.642151 396.659515,295.481781 
	C399.795441,295.430328 403.071655,295.333221 406.052246,296.126587 
	C413.105591,298.004120 416.185913,302.512817 416.342499,310.091064 
	C416.593231,322.226379 416.563232,322.077179 428.126282,319.753632 
	C434.768372,318.418945 441.512329,317.548676 448.239746,316.702667 
	C450.728729,316.389709 452.384888,315.675018 452.605835,312.959625 
	C452.941864,308.830414 453.436798,304.709259 453.622101,300.573822 
	C453.911133,294.124268 457.808838,289.264923 464.124908,287.707550 
	C472.382660,285.671387 480.844421,284.992401 489.263275,284.768463 
	C503.750885,284.383118 518.275879,284.197632 532.747192,284.816284 
	C542.938416,285.251953 553.225769,285.953644 563.028931,289.653625 
	C570.144775,292.339325 569.890320,298.729248 571.259277,304.368530 
	C571.565674,305.630798 571.343201,307.023926 571.346802,308.356842 
	C571.366882,315.737457 571.324768,315.980469 578.634033,317.191620 
	C589.235718,318.948303 599.902527,320.312164 610.838440,321.886292 
	C612.033813,318.102936 611.559509,314.285187 611.647156,310.527985 
	C611.903748,299.530029 617.832031,293.751495 628.766174,293.634033 
	C640.552002,293.507416 651.643494,297.291595 662.884216,299.893860 
	C676.764526,303.107178 690.385437,307.421722 703.719421,312.579773 
	C719.060913,318.514313 724.347107,325.919647 724.344421,342.224945 
	C724.340454,366.054688 724.581787,389.888275 724.199463,413.711914 
	C724.076782,421.357880 724.657532,429.171631 722.153259,436.701660 
	C719.788086,443.813629 714.536743,447.787079 707.976868,450.339844 
	C697.555115,454.395386 696.591553,455.513031 698.539612,466.265503 
	C699.971252,474.167633 699.398438,482.138641 700.162537,490.069977 
	C701.829468,507.373047 703.736328,524.631531 705.925720,541.877136 
	C708.574402,562.740784 712.648193,583.349487 716.432007,604.003235 
	C719.295959,619.635620 723.154663,635.086304 726.602722,650.610718 
	C727.500854,654.654724 728.334900,658.727661 729.528137,662.687927 
	C731.056885,667.761108 734.382080,671.035095 739.547852,672.904053 
	C750.925903,677.020630 762.755737,679.802673 773.880188,684.648438 
	C777.709045,686.316284 781.340149,688.257080 784.331299,691.249573 
	C789.378967,696.299744 790.312073,703.041016 785.608337,708.198059 
	C774.844482,719.999268 763.012329,730.844910 749.415527,739.172974 
	C744.284363,742.315796 737.102051,742.638855 730.764465,743.170166 
	C718.557251,744.193604 706.518066,747.216064 694.145996,746.350342 
	C692.163147,746.211548 690.147339,746.524353 687.800781,745.691406 
M452.519867,395.842194 
	C461.605103,395.895813 470.635620,394.730743 479.710419,394.390686 
	C489.888428,394.009186 500.098755,392.850891 510.325714,392.685181 
	C526.538879,392.422394 542.641357,394.761200 558.867798,394.821686 
	C569.368896,394.860840 579.920105,394.879089 590.393372,396.585846 
	C602.342529,398.533112 614.444458,399.570679 626.364197,401.663239 
	C641.010376,404.234436 655.845154,406.185211 669.781982,411.852722 
	C673.046204,413.180084 674.816895,411.905243 675.586792,408.625397 
	C677.168762,401.885925 677.284668,394.977478 676.371643,388.273163 
	C674.652405,375.647766 673.303162,363.012177 672.674133,350.294617 
	C672.458252,345.929688 670.764038,342.974304 666.435974,341.129822 
	C657.209167,337.197723 647.517029,335.025757 637.856995,332.659637 
	C634.620239,331.866821 633.458679,333.033295 633.262573,336.428101 
	C632.861633,343.367950 634.466187,350.263367 633.399170,357.213287 
	C633.042786,359.534058 632.202881,360.519928 629.887451,360.169006 
	C619.443420,358.586121 608.949585,357.374268 598.481384,356.006531 
	C585.697632,354.336212 572.815430,353.950439 560.064941,352.258850 
	C542.812927,349.970032 546.653503,354.497070 544.603882,337.086884 
	C544.003906,331.990295 545.799683,326.883026 543.806091,321.764313 
	C542.746582,319.043640 541.493896,317.391418 538.615845,317.381439 
	C522.787964,317.326416 506.959808,317.332642 491.131836,317.297913 
	C488.674011,317.292511 487.230530,318.442596 487.411652,320.899109 
	C487.880249,327.253693 486.256775,333.450287 486.179840,339.759827 
	C486.005463,354.062439 487.929047,351.871399 473.782379,352.399567 
	C461.753601,352.848663 449.759796,354.359497 437.765167,355.548462 
	C431.526794,356.166840 425.309021,357.027863 419.101746,357.917358 
	C410.264618,359.183716 401.448669,360.597015 392.617096,361.903076 
	C390.182373,362.263153 388.322540,361.185455 388.911743,358.654266 
	C390.625214,351.292755 390.648285,343.860596 390.855835,336.376404 
	C391.016235,330.592865 390.213593,329.688385 384.356812,330.768036 
	C371.257111,333.182800 359.007782,338.333435 346.367096,342.222107 
	C343.887756,342.984802 342.750610,344.171570 342.209839,346.968964 
	C340.171112,357.514923 340.088379,368.139740 340.397644,378.769165 
	C340.687958,388.748840 339.365570,398.641418 339.292114,408.596222 
	C339.266968,412.008667 341.530640,414.524872 343.757477,413.469299 
	C348.407013,411.265259 353.176300,412.769287 357.759460,411.541992 
	C364.943390,409.618195 372.261353,408.199005 379.509399,406.509705 
	C392.913177,403.385620 406.622406,401.924805 420.073639,399.185699 
	C430.529083,397.056641 441.064789,396.889435 452.519867,395.842194 
M551.798218,521.696228 
	C557.467773,526.942566 560.977417,533.685364 564.802246,540.238770 
	C572.438965,553.323547 576.426758,567.646179 579.505005,582.311584 
	C580.322266,586.205383 581.873901,590.006287 582.220459,593.926575 
	C583.434631,607.660217 584.313965,621.424438 585.239380,635.182556 
	C586.968262,660.884827 588.700439,686.587219 590.258057,712.300110 
	C590.448242,715.439026 591.783691,717.062073 594.550049,717.384155 
	C603.057678,718.374878 611.590088,719.153015 619.964966,719.998840 
	C622.948059,703.164490 618.083496,687.230957 618.214966,671.066895 
	C618.277344,663.391663 616.538147,655.621826 615.913513,647.930725 
	C614.676147,632.695618 611.486267,617.834717 608.946838,602.849854 
	C607.152893,592.264099 603.662598,582.054138 601.089233,571.667114 
	C598.439697,560.972839 594.750305,550.814087 590.383423,540.839844 
	C584.903198,528.322937 577.817322,516.677185 568.613159,506.566284 
	C557.297974,494.136383 543.670044,484.813446 527.827393,479.010651 
	C522.604126,477.097504 517.358582,474.318756 511.588470,475.212799 
	C490.610443,478.463135 473.742828,489.510834 458.814606,503.907318 
	C452.970215,509.543488 448.626221,516.353760 444.314667,523.256775 
	C439.542114,530.897827 435.831604,538.985352 432.255951,547.159058 
	C426.657623,559.956421 422.675629,573.238770 420.793762,587.143555 
	C419.152283,599.272339 416.910400,611.323425 415.422485,623.468628 
	C413.734924,637.243591 413.008118,651.143921 411.074921,664.878662 
	C409.610168,675.285522 409.276428,685.744507 408.154266,696.139771 
	C407.423920,702.905029 408.022491,709.750732 406.598785,716.424683 
	C405.813904,720.103882 407.041687,722.057373 410.871918,721.614502 
	C418.262207,720.760132 425.625122,719.671997 433.006927,718.740234 
	C436.533997,718.295044 437.597534,716.184692 437.708527,712.876953 
	C438.651672,684.761963 439.877014,656.655151 440.630554,628.535522 
	C441.201355,607.234558 443.802124,586.248596 448.141785,565.398621 
	C451.166473,550.866638 458.140350,538.626831 467.450043,527.315857 
	C478.670807,513.683044 492.660889,505.666595 510.398163,504.670715 
	C526.585022,503.761932 539.437439,511.298431 551.798218,521.696228 
z"/>
<path fill="#000000" opacity="1.000000" stroke="none" 
	d="
M619.559448,242.525879 
	C615.737183,248.601898 612.148804,254.397980 608.430359,260.109375 
	C605.950256,263.918762 600.663452,265.069550 596.578613,262.870544 
	C592.870239,260.874237 591.796204,256.675964 594.248657,252.051941 
	C602.260193,236.946533 611.940918,222.836624 620.677979,208.161133 
	C625.524536,200.020447 630.968262,192.224304 635.582825,183.960190 
	C639.030396,177.785965 643.745911,178.293701 649.226929,180.606873 
	C653.052612,182.221436 653.413208,187.462524 650.337280,192.519653 
	C640.228699,209.138809 630.751526,226.148102 619.559448,242.525879 
z"/>
<path fill="#000000" opacity="1.000000" stroke="none" 
	d="
M430.900696,264.379517 
	C427.148193,264.756195 424.859863,263.423492 422.986755,260.589935 
	C416.396484,250.620636 409.661377,240.679840 403.433533,230.551361 
	C395.356415,217.415466 386.651733,204.631592 379.205109,191.099869 
	C376.903961,186.918320 377.562958,183.165512 380.991516,181.126556 
	C385.328308,178.547470 390.853394,179.235550 393.017456,182.747009 
	C405.845337,203.561676 418.645447,224.393448 431.434082,245.232269 
	C433.172180,248.064453 434.837280,250.943832 436.459564,253.844193 
	C439.326782,258.970154 437.303619,263.077759 430.900696,264.379517 
z"/>
<path fill="#000000" opacity="1.000000" stroke="none" 
	d="
M693.069824,263.017151 
	C705.136414,255.040390 716.675598,246.942978 728.028809,238.568130 
	C732.904419,234.971527 738.199341,235.790588 740.965454,240.026688 
	C743.660156,244.153397 742.383606,248.975113 737.446899,252.436127 
	C720.878723,264.051758 703.948181,275.125183 686.875916,285.982269 
	C682.915283,288.501007 677.189697,287.579254 674.810181,284.123474 
	C672.353760,280.556061 673.455444,276.200806 677.848328,273.144104 
	C682.751099,269.732574 687.792114,266.519684 693.069824,263.017151 
z"/>
<path fill="#000000" opacity="1.000000" stroke="none" 
	d="
M320.722717,250.252533 
	C330.627991,257.283997 340.277924,264.050598 349.827972,270.955353 
	C353.801727,273.828430 354.605560,279.083557 351.950592,282.888306 
	C349.787048,285.988800 344.791870,286.482666 340.767120,283.758545 
	C324.964935,273.062775 309.216248,262.287933 293.435333,251.560654 
	C287.847931,247.762527 285.886627,242.635727 288.608978,238.768463 
	C291.442963,234.742661 298.412170,234.275314 303.450500,237.848145 
	C309.134033,241.878448 314.770233,245.975418 320.722717,250.252533 
z"/>
<path fill="#000000" opacity="1.000000" stroke="none" 
	d="
M506.015503,237.814697 
	C504.728180,233.077942 504.814209,228.598419 504.736908,224.117920 
	C504.569519,214.414810 503.979095,204.645721 504.378082,195.029572 
	C504.649994,188.475800 503.889618,181.625519 505.820435,175.154556 
	C507.218597,170.468643 511.322937,171.649643 514.634705,171.756989 
	C518.451416,171.880692 520.261719,174.397797 520.285339,178.034714 
	C520.337219,186.019470 520.205933,194.005203 520.199341,201.990570 
	C520.191528,211.471161 520.236023,220.951782 520.258667,230.432388 
	C520.259460,230.765244 520.244080,231.100403 520.276489,231.430542 
	C520.709167,235.830338 519.122925,239.913773 515.349854,241.525955 
	C512.265320,242.843933 508.802795,240.593994 506.015503,237.814697 
z"/>
</svg>