<svg version="1.1" id="Layer_1" xmlns="http://www.w3.org/2000/svg" xmlns:xlink="http://www.w3.org/1999/xlink" x="0px" y="0px"
	 width="712px" viewBox="0 0 712 712" enable-background="new 0 0 712 712" xml:space="preserve">
<path fill="#050505" opacity="1.000000" stroke="none" 
	d="
M648.980225,323.058777 
	C648.519409,322.659698 648.058472,322.260620 646.605530,321.002502 
	C668.570679,403.078308 659.475342,478.689850 607.216919,546.842590 
	C604.028259,547.950073 601.443481,549.025818 598.748779,550.147278 
	C596.319519,539.670044 596.319519,539.670044 599.689758,540.359680 
	C600.317322,538.567200 600.924255,536.833557 601.565125,535.003113 
	C600.635681,534.445251 599.272034,533.626709 597.908447,532.808228 
	C602.110840,517.866333 607.167114,503.104858 610.369385,487.951599 
	C625.160583,417.958740 616.658081,351.179871 579.251221,289.562988 
	C554.776794,249.248489 520.166260,220.470139 474.676147,205.798813 
	C455.838470,199.723343 436.500122,197.411835 416.411896,197.166565 
	C415.384155,196.229813 414.736816,195.716568 414.089508,195.203323 
	C413.709534,196.000687 413.329559,196.798035 412.949585,197.595398 
	C390.353699,198.304230 368.513184,202.530197 348.377167,213.090729 
	C339.777435,217.600937 331.936859,223.558716 323.096191,228.905548 
	C319.914520,227.687408 317.387939,226.422424 314.503754,224.978394 
	C314.450836,229.207932 310.785767,232.993881 315.381165,236.158936 
	C308.805023,245.648239 301.347961,254.664597 295.921997,264.771393 
	C291.297913,273.384613 289.010437,283.252258 285.689240,292.564972 
	C286.151550,292.764282 286.613861,292.963593 287.076172,293.162903 
	C287.646118,292.297302 288.387268,291.499573 288.761230,290.556305 
	C301.976837,257.221588 326.795807,236.465363 360.082916,225.079025 
	C382.732788,217.331299 405.989868,217.079849 429.660858,220.878571 
	C430.440247,222.122086 430.999573,222.819260 431.558899,223.516418 
	C431.986328,222.722275 432.413757,221.928131 432.841187,221.133972 
	C433.552002,221.267044 434.262787,221.400116 435.244019,222.210663 
	C435.689362,223.072495 435.864258,223.256851 436.039124,223.441223 
	C435.987030,223.105270 435.934967,222.769302 435.882874,222.433334 
	C440.494812,223.289520 445.217682,223.763870 449.699707,225.066818 
	C471.075226,231.280655 490.146423,241.826675 506.799438,256.813751 
	C507.735596,259.541290 508.946564,261.722321 510.019165,263.654114 
	C509.846405,265.309570 508.842987,268.481537 509.598083,268.977783 
	C511.389160,270.154877 514.014038,270.063385 516.829590,270.581726 
	C516.876404,270.803253 517.111511,271.915375 517.450134,273.517151 
	C518.558167,271.511505 519.336670,270.102448 520.115112,268.693420 
	C537.201721,285.470612 548.988220,305.685638 557.985657,327.630005 
	C572.529968,363.103027 577.512329,400.167969 575.755493,438.268494 
	C575.464783,444.572784 574.567566,450.849091 573.504639,457.556458 
	C569.037109,460.681061 570.800598,464.499023 571.124695,468.040466 
	C571.124695,468.040466 571.041321,468.503326 570.754395,468.881592 
	C569.048218,470.697021 567.825439,472.110687 570.915894,473.008362 
	C570.935364,473.451935 570.954895,473.895538 570.530884,474.610199 
	C569.081787,475.140961 568.076050,475.400635 567.070374,475.660309 
	C568.018982,476.443146 568.967651,477.225983 569.916260,478.008820 
	C568.640869,483.093414 567.365479,488.178009 565.620239,493.591827 
	C564.192993,494.162231 563.235657,494.403381 562.278259,494.644531 
	C562.746155,496.477356 563.214111,498.310120 563.682007,500.142914 
	C563.704529,500.324188 563.726990,500.505463 563.271362,500.896118 
	C556.621094,505.994293 555.806763,508.505188 558.563721,514.147583 
	C558.100647,515.535278 557.637634,516.922974 556.618408,518.649109 
	C553.713196,520.323669 551.364136,521.659790 549.174072,523.246216 
	C549.887634,523.666809 550.442078,523.837097 550.998291,524.003662 
	C551.000000,524.000000 550.992676,524.007324 550.957214,524.353149 
	C550.087097,526.020142 548.258667,527.713684 548.590027,528.598083 
	C550.017029,532.407043 546.691284,532.540588 545.016357,533.984314 
	C545.002686,533.998413 544.979065,534.029663 544.558472,534.027954 
	C543.094482,534.924438 541.178223,535.800842 541.155273,536.724304 
	C541.042114,541.281006 541.630859,545.911987 537.109619,548.928589 
	C536.643677,548.258240 536.095032,547.468872 535.245667,546.246765 
	C533.053101,551.083374 531.036438,555.531921 529.010315,559.989746 
	C529.000854,559.999084 528.981812,560.017395 528.674438,560.178345 
	C527.985901,562.102844 527.604675,563.866516 527.167603,565.888550 
	C526.957520,565.888550 526.072815,565.888550 525.383972,565.888550 
	C525.383972,567.164490 525.808594,568.518372 525.311646,569.210815 
	C522.968689,572.475647 520.318420,575.518738 517.930481,578.753723 
	C517.594177,579.209351 518.099426,580.286255 518.215149,581.075562 
	C507.257721,594.773071 493.955750,605.882996 479.214783,615.759766 
	C478.227509,614.182434 477.803680,612.777161 477.237183,611.432007 
	C476.722595,610.210083 476.052826,609.053467 475.451477,607.868103 
	C482.613892,597.648560 489.776276,587.428955 496.938660,577.209412 
	C496.503235,576.798035 496.067810,576.386719 495.632355,575.975342 
	C453.174988,614.981262 402.945923,635.930237 345.340607,640.569336 
	C340.051941,639.856201 335.294922,639.244934 330.572571,639.446472 
	C328.013885,639.555664 325.514282,641.050232 322.988037,641.919861 
	C272.708496,642.667175 225.322281,631.239380 180.785019,607.979797 
	C175.215714,605.071289 169.925217,601.628784 164.380371,597.908569 
	C164.843277,592.004517 160.094757,594.392029 157.921753,593.031372 
	C157.921753,593.031372 157.457260,592.977844 157.238937,592.537659 
	C156.012222,590.730652 155.003830,589.363831 154.234772,587.841675 
	C154.570496,587.084900 154.666901,586.483398 154.763290,585.881958 
	C154.487366,585.855957 154.211441,585.829895 153.935532,585.803833 
	C153.959167,586.537537 153.982803,587.271179 153.659607,587.952393 
	C151.355606,586.047852 149.398453,584.195801 147.078293,582.000183 
	C146.564636,583.440186 146.261658,584.289551 145.958679,585.138916 
	C136.315399,576.698425 126.672127,568.257874 117.092941,559.324707 
	C117.157028,558.831970 117.471191,558.471924 117.471191,558.471924 
	C133.090607,563.205383 148.710037,567.938843 164.664459,573.213745 
	C165.762970,574.605042 166.368362,575.789246 167.320740,576.239624 
	C169.778152,577.401672 172.388931,578.239319 175.587158,579.452698 
	C175.930313,578.589233 176.503052,577.148132 177.075806,575.706970 
	C196.139938,577.951904 215.204102,580.196838 234.645172,582.914551 
	C235.017166,583.593994 235.012222,583.800537 234.709900,584.009155 
	C233.885345,584.093201 233.358200,584.175293 231.628296,584.444519 
	C233.226624,584.709717 233.662338,584.912415 233.995651,584.802979 
	C234.376587,584.677979 234.666458,584.275452 235.245132,583.987915 
	C235.494354,583.982300 235.992783,583.992920 235.996338,583.996399 
	C235.999908,583.999878 236.009048,584.009766 236.286179,584.305786 
	C238.808411,584.156311 241.053497,583.710754 243.298584,583.265198 
	C243.628036,583.102234 243.919296,583.154297 244.577118,583.688721 
	C245.137848,583.991089 245.293823,584.026123 245.449799,584.061157 
	C245.409958,583.993530 245.377350,583.873535 245.329071,583.866882 
	C245.041763,583.827209 244.750824,583.813721 244.461121,583.791382 
	C245.226761,583.479004 245.992401,583.166626 247.350372,583.541260 
	C249.010559,585.220093 250.078445,586.211975 251.669937,587.690247 
	C251.779266,585.611694 251.852448,584.220215 251.925629,582.828735 
	C261.327209,581.930359 270.740875,581.141968 280.128296,580.114014 
	C315.981598,576.188049 349.744232,565.627197 381.824829,548.252808 
	C385.725677,548.483887 389.065826,548.483887 392.624634,548.483887 
	C392.624634,547.444275 392.624634,546.438538 392.624634,545.059998 
	C393.980682,546.512451 395.019989,547.625671 396.281982,548.977356 
	C397.485352,547.573059 398.393982,546.512695 399.070557,545.723145 
	C398.074219,544.218384 397.236023,542.952393 396.075806,541.200073 
	C399.382080,540.772644 401.902588,540.446777 405.632385,539.964600 
	C404.961426,537.947632 404.276886,535.889893 403.592346,533.832153 
	C407.454590,530.614868 411.316803,527.397583 415.889832,524.099609 
	C418.143066,524.286743 419.685486,524.554504 422.001343,524.956482 
	C421.622986,522.666260 421.327087,520.874939 421.031158,519.083557 
	C434.453766,505.749695 446.427338,491.279907 456.335968,474.622009 
	C458.912903,472.656128 460.657806,469.934540 463.021240,469.198181 
	C466.724518,468.044464 467.514130,466.510773 465.945862,463.250031 
	C465.236237,461.774597 464.577179,460.274811 463.895172,458.786102 
	C463.895172,458.786102 463.897369,458.368866 464.369659,458.174561 
	C468.617126,455.366364 469.323853,453.032196 466.958588,450.989380 
	C469.801300,438.429657 474.036682,426.001373 475.236755,413.286621 
	C479.575012,367.324188 472.041687,324.362213 435.893188,291.799469 
	C404.557709,263.572357 359.720154,258.572205 325.677856,285.406281 
	C310.666931,297.238770 301.388550,312.623596 301.091705,332.186096 
	C300.813232,350.540955 308.877472,365.061768 323.201172,376.587189 
	C321.909302,379.299927 320.768860,381.568024 319.495636,384.100189 
	C320.767609,384.959900 322.027924,385.811737 323.200470,386.604248 
	C322.731049,387.399109 322.344879,388.053040 321.881622,388.837494 
	C320.229431,387.300842 318.687866,385.867096 317.700592,384.948883 
	C315.837677,385.384827 314.227417,385.388763 313.082733,386.120728 
	C311.533936,387.111145 310.342529,388.660339 308.997772,389.969818 
	C287.493774,388.242310 269.100311,379.534576 253.440475,364.923431 
	C227.594116,340.807861 219.232635,310.639984 222.823868,276.276367 
	C225.829041,247.520462 237.706116,222.695084 256.303955,200.247360 
	C263.867401,198.785004 265.604156,191.003677 271.484558,188.428650 
	C270.961914,187.277069 270.439270,186.125473 269.916656,184.973877 
	C277.638885,178.328079 285.361115,171.682281 293.876312,164.994171 
	C299.514893,164.653137 304.360504,164.354416 309.792603,164.019531 
	C311.095459,161.035156 312.509644,157.795700 313.861633,154.698730 
	C314.754211,155.331970 315.909607,156.151642 317.709229,157.428375 
	C317.709229,155.066299 317.709229,153.673172 317.709229,152.063629 
	C319.103790,152.282333 320.186096,152.452057 321.364014,152.636780 
	C320.739685,147.868668 324.715149,149.009644 327.050049,148.146942 
	C327.191101,148.345505 327.282715,148.396500 327.374298,148.447510 
	C327.249115,148.298553 327.123932,148.149582 326.853638,147.672211 
	C326.506561,146.662109 326.304626,145.980423 326.102692,145.298752 
	C348.298187,134.354446 371.779388,127.627907 396.325836,125.126144 
	C410.030426,123.729378 423.900421,122.871002 437.654846,123.252197 
	C477.885925,124.367180 515.891296,134.172760 550.794128,154.704453 
	C557.775513,158.811279 564.496521,163.360718 571.220947,168.356659 
	C571.053162,169.157196 571.002075,169.307159 570.950928,169.457153 
	C571.021667,169.424683 571.145874,169.402206 571.154175,169.358032 
	C571.206116,169.080276 571.232300,168.797714 571.267029,168.516739 
	C571.783875,169.048309 572.300659,169.579880 572.098755,170.856018 
	C571.224365,171.552139 571.068604,171.503693 570.912903,171.455246 
	C571.162354,171.655655 571.411804,171.856064 571.661255,172.056458 
	C571.472168,171.909042 571.283081,171.761642 571.465332,171.664307 
	C573.421143,174.224274 574.442688,177.718719 576.718201,179.019440 
	C580.375610,181.110046 584.861633,181.750916 589.001831,183.371216 
	C590.266907,186.303131 590.296326,191.390976 595.094299,186.710037 
	C611.622437,200.101135 625.291016,216.130569 637.447144,233.439667 
	C660.513184,266.283234 675.266296,302.590515 681.726807,342.222321 
	C682.527222,347.132355 682.961365,352.102081 683.234436,357.380707 
	C682.428528,356.792633 681.953369,355.868011 681.478271,354.943390 
	C680.369995,356.233704 680.309265,357.529541 680.382080,358.817810 
	C680.555237,361.880829 680.791626,364.940308 680.682861,368.026215 
	C679.574768,368.367462 678.786133,368.683716 677.748047,368.908722 
	C676.996643,369.215149 676.494629,369.612793 675.995605,370.005676 
	C675.998535,370.000854 676.009521,369.993530 675.668579,369.995361 
	C674.646057,369.987671 673.964417,369.978119 673.282837,369.968567 
	C673.160278,369.577118 673.037781,369.185638 673.058472,368.159424 
	C673.935608,365.768158 674.669556,364.011627 675.835754,361.220551 
	C673.316650,360.128998 670.820618,359.047485 668.324585,357.965942 
	C664.883240,351.293854 661.441833,344.621765 657.980103,337.202393 
	C658.293091,335.544769 658.687378,334.651428 658.947205,333.720551 
	C659.510620,331.702087 660.005188,329.664368 660.527954,327.634552 
	C658.562866,327.634552 656.597778,327.634552 653.655518,327.634552 
	C653.222046,324.266022 652.720459,320.368256 652.051697,315.171051 
	C650.752747,318.506836 649.866516,320.782806 648.980225,323.058777 
M471.959625,491.526611 
	C471.846161,491.246246 471.732666,490.965881 471.619232,490.685547 
	C471.496094,490.775726 471.372986,490.865936 471.249847,490.956116 
	C471.503387,491.301666 471.756897,491.647186 472.303558,492.486725 
	C473.491272,492.668732 474.678955,492.850739 476.173950,493.653809 
	C477.441742,495.361938 478.474213,497.331207 480.023224,498.727295 
	C484.023743,502.332916 490.927856,502.497650 495.209991,499.372559 
	C499.612244,496.159882 501.373901,489.780212 499.248505,484.747772 
	C497.174957,479.838165 491.936554,476.983093 486.313538,477.773346 
	C480.835388,478.543304 477.404205,481.698059 475.412903,486.669281 
	C474.530396,487.258606 473.339386,487.662506 472.844849,488.485077 
	C472.250214,489.474274 472.248138,490.819733 471.959625,491.526611 
M531.337646,187.476944 
	C530.601746,186.213257 529.948181,184.891235 529.106262,183.702652 
	C528.298279,182.561996 527.295044,181.559647 526.377625,180.496506 
	C526.085449,182.151077 525.147522,184.025253 525.621521,185.419342 
	C527.079102,189.706085 529.077148,193.809052 530.971741,198.232529 
	C531.434265,196.824509 531.887878,195.443420 532.865051,194.588913 
	C537.253601,201.459564 544.414490,203.052780 549.424072,198.167831 
	C552.907715,194.770966 554.287476,190.616837 552.460632,185.960297 
	C550.668335,181.391708 547.209961,178.859467 542.127197,178.948944 
	C536.988464,179.039413 534.037415,181.628922 531.337646,187.476944 
M451.218292,552.923340 
	C452.214752,554.112000 453.122498,556.219849 454.223450,556.326050 
	C458.403656,556.729553 464.087280,560.673401 465.555847,552.592590 
	C465.581024,552.454163 466.160339,552.467712 466.422241,552.311584 
	C467.264435,551.809570 468.078918,551.261108 468.904114,550.730591 
	C467.907471,550.146484 466.910828,549.562378 466.104767,548.230957 
	C471.610870,539.971008 466.023682,531.168335 459.029999,529.938965 
	C453.111511,528.898621 447.083313,531.953369 445.148346,537.056335 
	C442.741486,543.403687 444.947906,548.531738 451.218292,552.923340 
M518.194031,323.016907 
	C516.292908,323.515900 513.699524,323.428619 512.659424,324.656799 
	C511.240814,326.331879 510.888306,328.978577 510.288116,331.263763 
	C509.018219,336.098846 509.676819,340.559418 513.548462,344.065247 
	C517.360779,347.517334 521.798950,348.074829 526.491028,346.197021 
	C534.042969,343.174622 535.887756,336.485901 532.467468,326.624817 
	C533.771118,322.920319 531.041565,321.807220 528.520508,321.432190 
	C525.458618,320.976715 522.270569,321.358398 519.139343,321.452393 
	C519.074036,321.454315 519.035889,322.362305 518.194031,323.016907 
M597.075989,221.276657 
	C595.691833,214.592682 591.524963,210.516541 585.035400,208.894806 
	C577.890381,207.109283 572.348511,210.165558 568.019592,215.507843 
	C564.117065,220.323868 563.997864,225.907211 566.333130,231.442719 
	C568.795410,237.279312 575.550293,241.205811 581.997009,240.920349 
	C588.899780,240.614685 594.755615,235.666824 597.928040,228.058975 
	C599.077332,227.649582 600.226562,227.240189 602.034912,226.596024 
	C600.136658,224.749207 598.725525,223.376312 597.075989,221.276657 
M507.253967,416.469971 
	C506.707245,416.847565 506.150665,417.211731 505.615326,417.604767 
	C498.338806,422.946991 495.991455,431.587921 499.626404,439.634064 
	C503.611420,448.455109 511.563568,452.693207 520.661377,450.844666 
	C529.185242,449.112732 534.925171,441.523926 535.129700,432.464569 
	C535.388245,421.015198 522.074890,409.358093 507.253967,416.469971 
M545.439819,392.106537 
	C546.263977,391.292999 547.197205,390.562836 547.894043,389.651886 
	C551.437622,385.019226 552.743713,380.012695 550.162292,374.454834 
	C547.440735,368.595215 542.697327,365.625275 536.377075,365.614502 
	C530.300964,365.604187 525.579041,368.228271 522.925537,374.008881 
	C520.366333,379.584076 521.826660,386.775543 526.533691,391.276428 
	C531.328674,395.861420 537.490051,396.319641 545.439819,392.106537 
M638.034363,274.154816 
	C638.280273,264.990845 631.500061,258.926788 623.911804,261.523956 
	C618.117310,263.507172 615.306213,267.971008 615.959595,274.151642 
	C616.493713,279.205017 620.451721,283.233917 625.599854,283.964569 
	C631.040283,284.736694 635.697571,281.358154 638.034363,274.154816 
M501.148254,163.103348 
	C499.896515,163.895340 498.511810,164.537491 497.418365,165.507828 
	C494.305786,168.269806 492.608917,172.160797 494.383881,175.732773 
	C495.831390,178.645859 499.029663,181.962921 501.941376,182.514175 
	C504.820068,183.059189 509.007446,181.102432 511.358063,178.897202 
	C514.223511,176.209030 514.158752,171.985397 512.179260,168.291809 
	C509.998352,164.222397 506.588165,162.368851 501.148254,163.103348 
M487.108582,522.482605 
	C488.561249,523.131470 490.013916,523.780273 491.799683,524.577820 
	C491.906647,523.573914 491.999207,522.705017 492.091736,521.836182 
	C490.479523,521.857239 488.867279,521.878235 487.108582,522.482605 
M267.228394,194.484711 
	C267.212708,195.136337 267.197021,195.787964 267.181366,196.439606 
	C267.716248,196.309753 268.251129,196.179901 268.786011,196.050034 
	C268.460419,195.457199 268.134857,194.864380 267.228394,194.484711 
M459.631622,476.884369 
	C459.938812,476.578613 460.245972,476.272858 460.553131,475.967102 
	C460.189301,475.786041 459.825470,475.605011 459.461609,475.423981 
	C459.339203,475.896881 459.216827,476.369781 459.631622,476.884369 
M467.394257,460.209564 
	C467.786865,460.214264 468.179504,460.218994 468.572144,460.223694 
	C468.572845,460.060730 468.584869,459.756287 468.572601,459.755310 
	C468.183228,459.724091 467.791473,459.722473 467.394257,460.209564 
M419.299744,194.439026 
	C419.012970,194.711746 418.726196,194.984467 418.439423,195.257187 
	C418.553223,195.376450 418.759613,195.605728 418.767548,195.599075 
	C419.071075,195.343704 419.356445,195.066772 419.299744,194.439026 
M564.612183,474.534241 
	C564.882996,474.827118 565.153809,475.120026 565.424622,475.412903 
	C565.525940,475.308167 565.725037,475.123810 565.714172,475.110443 
	C565.475464,474.817413 565.213562,474.543365 564.612183,474.534241 
M151.376038,582.341064 
	C151.119431,582.415649 150.862823,582.490234 150.606232,582.564880 
	C150.885101,582.849548 151.163956,583.134277 151.442810,583.419006 
	C151.524292,583.164490 151.605789,582.909912 151.376038,582.341064 
M429.843018,193.056564 
	C429.597382,193.206589 429.219543,193.310623 429.146454,193.520691 
	C429.084137,193.699692 429.372437,194.000732 429.505646,194.247772 
	C429.644043,193.999725 429.782440,193.751678 429.843018,193.056564 
M571.635132,174.472092 
	C571.842712,174.525314 572.050354,174.578537 572.257935,174.631744 
	C572.124817,174.501877 571.991760,174.371994 571.635132,174.472092 
M260.399780,200.485504 
	C260.399780,200.485504 260.516907,200.414825 260.399780,200.485504 
M484.482391,522.592163 
	C484.482391,522.592163 484.410522,522.476013 484.482391,522.592163 
M482.518280,523.399292 
	C482.518280,523.399292 482.592865,523.520874 482.518280,523.399292 
M668.603821,354.535126 
	C668.603821,354.535126 668.480225,354.618713 668.603821,354.535126 
M492.517822,519.409302 
	C492.517822,519.409302 492.587646,519.525757 492.517822,519.409302 
z"/>
<path fill="#050505" opacity="1.000000" stroke="none" 
	d="
M339.977234,44.950874 
	C350.428894,43.391872 360.836639,41.333359 371.344147,40.410824 
	C382.403259,39.439861 393.557678,39.555042 404.531128,39.637466 
	C402.315704,43.512722 402.366272,43.674377 405.961334,44.211945 
	C405.961334,42.750687 405.961334,41.330524 405.961334,39.910366 
	C409.024658,39.654861 412.087952,39.399357 415.673492,39.512787 
	C415.467682,40.523273 414.739685,41.164825 414.230621,41.613430 
	C415.761597,42.059437 417.383728,42.532001 418.863342,43.057617 
	C418.812317,43.071758 418.903778,43.032841 419.318909,42.974758 
	C420.429443,42.300220 421.216339,41.644848 422.003235,40.989475 
	C422.432831,40.948135 422.862457,40.906799 423.666168,41.185776 
	C425.360504,42.307518 426.680695,43.108944 428.296387,44.052105 
	C430.181854,43.836765 431.771851,43.479694 432.266174,43.368683 
	C431.826935,42.362446 431.441345,41.479073 431.055756,40.595688 
	C440.888062,42.153652 450.720367,43.711624 460.794006,45.992332 
	C461.757477,51.854149 459.435089,53.293468 454.465759,53.100784 
	C448.865265,52.883629 443.213898,53.537010 437.615997,54.115433 
	C436.653259,54.214916 435.847046,55.829239 434.968506,56.743805 
	C376.324829,62.870071 323.914917,83.725853 279.595551,123.190239 
	C246.112289,153.005539 222.819870,189.242096 213.659805,233.518631 
	C204.098465,279.734955 212.006744,322.957642 238.979385,361.996643 
	C244.872314,370.525787 252.901733,377.578857 259.613190,385.719482 
	C258.644775,389.153473 258.915070,389.300232 263.744568,388.552246 
	C265.015289,389.420532 266.286011,390.288818 267.423523,391.522064 
	C266.992889,393.224976 266.695496,394.562927 266.285309,396.408325 
	C269.165039,396.237793 271.589996,396.094208 274.014954,395.950623 
	C274.938477,396.378571 275.862000,396.806519 276.923553,397.898926 
	C277.171814,400.142487 277.282013,401.721588 277.316010,402.208588 
	C279.448730,402.735809 280.297668,403.044220 281.170288,403.142944 
	C283.785858,403.438812 286.410767,403.652710 289.032013,403.898651 
	C290.804260,404.523468 292.576508,405.148285 294.504578,406.173615 
	C295.109741,407.717926 295.559082,408.861725 295.760437,410.163147 
	C295.268402,411.041931 295.024384,411.763062 294.780365,412.484222 
	C295.059692,412.538879 295.339020,412.593536 295.618317,412.648224 
	C295.742493,411.762360 295.866638,410.876526 296.274231,409.886841 
	C298.562439,410.626099 300.567169,411.469147 301.827606,411.999207 
	C304.104034,411.999207 305.570709,411.784332 306.949768,412.040710 
	C310.641754,412.727020 314.284485,415.321869 317.981567,412.074615 
	C332.843506,413.310425 347.472534,412.331818 361.601410,407.179443 
	C389.961029,396.837616 408.457611,377.560364 413.486511,347.322968 
	C416.750488,327.697296 411.756287,309.804596 398.319946,294.125183 
	C402.185394,293.529358 405.893188,293.671906 409.589355,293.524261 
	C410.427277,293.490814 411.224945,292.449951 412.041138,291.872803 
	C430.471710,302.811737 443.167786,318.586273 449.872833,338.773132 
	C461.235077,372.981232 456.788971,406.239624 441.271393,438.046753 
	C425.630676,470.106140 400.460693,493.301575 369.238586,510.933228 
	C367.014893,511.090118 365.392578,511.689026 363.916534,511.435669 
	C362.543488,511.199982 361.222809,510.187592 360.068237,509.277283 
	C358.786865,508.267029 357.719696,506.985138 356.559265,505.821503 
	C364.082062,499.748474 371.612396,493.684723 379.115540,487.587494 
	C379.835724,487.002258 380.386658,486.208710 380.596954,484.876678 
	C375.140259,487.759796 369.737640,490.751190 364.217957,493.508179 
	C332.282532,509.459076 298.466675,518.509521 262.883331,521.169556 
	C208.055023,525.268372 157.619812,512.999817 112.724861,480.614319 
	C94.681015,467.598206 78.961891,452.087402 66.027710,433.096497 
	C66.196846,430.295532 66.767662,428.185516 66.562119,426.154083 
	C66.419113,424.740601 65.386589,423.284668 64.410416,422.138031 
	C63.831913,421.458557 62.524570,421.456543 61.660564,420.951935 
	C59.494564,419.686829 57.394360,418.309052 55.267761,416.976471 
	C35.098560,382.467621 26.911133,345.265289 29.976799,304.078186 
	C35.822224,315.571350 36.716652,327.498840 43.113621,337.388977 
	C49.563232,347.360504 54.424015,358.403137 61.270813,368.062134 
	C68.137093,377.748627 76.595993,386.306183 84.684341,395.159851 
	C85.011803,394.961212 84.917892,394.968140 84.834259,395.292480 
	C85.168930,395.750244 85.587242,395.883667 86.161026,396.276917 
	C88.542503,396.405701 90.768509,396.274658 92.994507,396.143585 
	C93.007164,395.669769 93.019821,395.195953 93.032478,394.722137 
	C90.349678,394.150116 87.666878,393.578094 84.984070,393.006073 
	C73.622856,375.999359 66.402641,357.178711 61.241150,337.554657 
	C58.853664,328.477356 57.420773,319.148987 55.833347,309.597687 
	C56.518402,309.511536 57.223953,310.041199 57.288486,309.972107 
	C59.083096,308.050812 57.210846,301.546539 54.498508,300.127533 
	C54.355938,298.985931 54.213367,297.844330 54.430397,296.363098 
	C55.185215,296.023590 55.580433,296.023743 55.979221,296.321228 
	C56.075413,297.145020 56.168041,297.671478 56.260670,298.197937 
	C56.474510,298.129089 56.688351,298.060272 56.902191,297.991425 
	C56.609119,297.322327 56.316051,296.653229 56.022568,295.534454 
	C56.014542,290.631195 56.142284,286.170837 55.918926,281.728088 
	C55.849640,280.349915 54.827274,279.019684 54.241249,277.667480 
	C54.241249,277.667480 54.429367,277.499817 54.721977,277.409668 
	C54.729446,276.542236 54.444309,275.765015 54.159172,274.987762 
	C54.376499,272.289673 54.593822,269.591614 55.168922,266.412628 
	C56.240795,263.952942 56.954891,261.974121 57.673729,259.982178 
	C58.600605,260.150574 59.838589,260.375458 60.761688,260.543152 
	C59.290398,257.885345 58.012791,255.503906 56.621601,253.190796 
	C56.497810,252.984955 55.635536,253.223236 55.116234,253.255249 
	C56.114937,236.307571 60.198250,219.990143 65.445747,203.947495 
	C77.189445,168.044647 96.436302,136.490967 121.981949,108.264069 
	C127.173477,108.983185 131.899963,110.532509 134.963196,105.892288 
	C133.666199,104.134430 132.529236,102.593452 131.586594,101.315857 
	C133.505936,100.818840 135.434265,100.811371 136.686172,99.887421 
	C138.922836,98.236710 140.751450,96.033142 142.301758,94.503609 
	C142.191650,93.391289 141.589676,91.884956 142.066223,91.362595 
	C144.651260,88.529076 147.502762,85.938652 150.558792,82.977364 
	C150.133331,82.743156 149.261719,82.263336 148.390091,81.783508 
	C156.298172,75.532730 164.206253,69.281944 172.734131,63.070740 
	C174.901047,63.029495 177.039322,63.560989 177.880432,62.748920 
	C180.085541,60.619926 181.837555,60.452377 184.327316,62.153965 
	C185.135895,62.706573 186.749939,62.080593 187.997879,61.996964 
	C188.000183,62.000233 188.007233,62.007217 188.014557,62.381596 
	C188.392990,63.852444 188.764099,64.948914 189.135208,66.045387 
	C171.944641,85.485489 156.405624,106.110306 144.047958,129.009018 
	C123.169250,167.697205 113.371864,208.999344 116.110321,252.902527 
	C117.014786,267.402832 120.075661,281.768646 121.803635,296.645447 
	C120.834938,298.268311 119.467094,299.663788 119.737335,300.571655 
	C120.427925,302.891846 121.848366,304.994843 123.022041,307.272369 
	C123.627838,307.168915 124.430672,307.031830 125.233498,306.894714 
	C128.986664,315.389923 132.739838,323.885162 136.492996,332.380371 
	C136.967529,332.291046 137.442047,332.201721 137.916565,332.112366 
	C116.571136,252.055695 140.494858,184.166489 193.722260,124.214005 
	C195.104172,124.698967 196.776199,125.434441 196.885178,125.249397 
	C199.105515,121.479256 201.824402,124.334061 205.531891,124.735085 
	C205.206131,122.000671 204.917496,119.577812 204.567474,116.639755 
	C205.565018,115.820747 207.282211,114.410873 209.136414,113.313873 
	C209.811340,114.677147 210.349258,115.727562 210.995773,116.990051 
	C211.784546,115.016953 212.387253,113.509323 212.973282,111.704330 
	C213.305496,110.594826 213.654373,109.782677 214.267990,108.960144 
	C214.355957,108.297356 214.179199,107.644966 214.105499,106.694183 
	C213.836975,105.836998 213.465393,105.278206 213.093826,104.719414 
	C229.286545,90.314178 247.228943,78.362755 266.798920,69.275261 
	C281.859039,62.281960 297.723755,57.021309 313.686157,51.377266 
	C317.704224,51.977413 321.409882,52.904678 324.793976,52.226742 
	C329.242645,51.335533 333.476227,49.271816 337.713257,47.499477 
	C338.657990,47.104294 339.232361,45.823772 339.977234,44.950874 
M159.396347,93.749298 
	C158.418015,94.224800 157.093201,94.453941 156.540100,95.231812 
	C155.642670,96.493927 155.251083,98.115723 154.645950,99.585678 
	C154.859573,99.945862 155.073181,100.306046 155.286804,100.666229 
	C156.182205,99.860779 157.268723,99.185158 157.925888,98.217857 
	C158.797501,96.934853 159.333832,95.424065 160.294434,93.898926 
	C160.192841,93.928215 160.091232,93.957512 159.396347,93.749298 
M196.116577,158.576843 
	C197.337799,165.409500 199.535416,167.199936 204.876205,164.984039 
	C213.271973,166.973053 220.911072,159.989487 219.746201,149.867371 
	C222.530762,144.770798 221.992569,143.501236 216.796036,143.043213 
	C215.810989,142.956390 214.808167,143.070953 213.014923,142.948532 
	C204.592728,139.889618 199.286118,142.370743 195.408066,150.649734 
	C192.651642,150.600861 192.651642,150.600861 192.028458,156.961578 
	C193.427658,157.233978 194.841919,157.509308 196.042664,157.985580 
	C196.042664,157.985580 196.234436,157.763855 196.116577,158.576843 
M153.561127,268.066956 
	C153.598633,269.600983 153.388397,271.190521 153.717300,272.659271 
	C155.013412,278.447571 160.834549,278.363678 164.688904,280.815674 
	C166.936371,282.245483 169.089127,282.274689 170.671906,278.801147 
	C173.756332,276.489502 177.754120,274.773193 179.731445,271.739868 
	C183.620438,265.773926 180.889328,258.404541 174.468414,254.854462 
	C167.502182,251.002899 160.711563,253.326874 155.391861,261.080261 
	C150.999939,262.149658 153.805893,265.699951 152.535263,267.733643 
	C152.180756,267.423096 151.826263,267.112579 151.471771,266.802032 
	C151.376602,267.212006 151.281448,267.622009 151.186279,268.031982 
	C151.789871,268.019867 152.393463,268.007721 153.561127,268.066956 
M272.954926,458.021027 
	C272.597961,457.432556 272.240997,456.844116 271.953979,455.484467 
	C271.619232,454.835022 271.284454,454.185608 270.949707,453.536163 
	C270.550049,453.988525 270.150360,454.440918 269.027435,454.601685 
	C264.337646,452.271423 260.297119,453.331146 257.029572,457.195618 
	C253.524216,461.341278 254.153442,467.296326 258.282928,471.032684 
	C262.496246,474.844910 268.168884,474.113831 273.485809,469.878571 
	C279.817383,468.736603 276.507874,463.888306 276.814728,460.576019 
	C276.869415,459.985535 274.498047,459.170288 272.954926,458.021027 
M191.938889,437.228973 
	C195.443039,439.248047 199.190292,437.692474 200.501831,433.714813 
	C198.945694,433.817902 197.350922,433.923584 195.319214,434.058197 
	C195.909012,431.992523 196.865997,430.447052 196.544586,429.242859 
	C196.241730,428.108185 197.006744,423.518219 192.925720,426.298553 
	C192.243164,424.986023 191.715210,423.560181 190.851059,422.380676 
	C187.244339,417.457550 181.039978,415.404846 175.450806,417.158386 
	C170.457764,418.724884 166.406403,423.707123 165.987762,428.795746 
	C165.507584,434.632599 168.620880,439.811157 174.106140,442.299622 
	C180.013687,444.979736 186.012497,443.035034 191.938889,437.228973 
M110.154175,407.960114 
	C113.682266,415.635834 119.818520,419.691071 128.107010,419.984619 
	C135.899292,420.260620 143.497818,414.505249 145.949249,407.182739 
	C148.631943,399.169434 145.860565,390.762360 138.817368,385.547760 
	C132.204498,380.651764 123.416039,380.629425 116.546707,385.491119 
	C109.712875,390.327759 107.278542,398.306854 110.154175,407.960114 
M170.722305,333.973267 
	C162.457062,337.711090 158.862656,345.342438 161.867722,352.772491 
	C165.002167,360.522369 172.747253,364.087402 180.536758,361.365875 
	C187.487778,358.937256 191.715698,350.679871 189.601044,343.662750 
	C187.320221,336.094208 179.590973,331.885773 170.722305,333.973267 
M164.490967,218.740814 
	C168.275497,226.288986 175.065933,229.024170 182.678635,226.066818 
	C189.315430,223.488571 192.955322,216.003830 190.999634,208.956207 
	C188.956573,201.593719 182.541870,197.680527 174.957550,198.932770 
	C167.633896,200.141968 160.821014,208.862488 164.490967,218.740814 
M233.560501,453.758057 
	C233.965240,452.502045 234.558121,451.272797 234.741135,449.985291 
	C235.421387,445.199860 233.309784,441.631683 229.451202,439.060242 
	C225.251511,436.261536 220.878342,436.545898 216.977646,439.467407 
	C213.417633,442.133728 210.985062,445.592834 211.980652,450.540710 
	C213.004105,455.627106 216.006546,458.910004 220.963104,459.946747 
	C226.185516,461.039124 230.305542,458.969452 233.560501,453.758057 
M150.249649,275.383911 
	C150.143372,275.258362 150.054794,275.108673 149.925812,275.014099 
	C149.798431,274.920715 149.630203,274.883026 149.479889,274.820923 
	C149.490204,275.379761 149.347885,276.012695 149.569427,276.468964 
	C149.697617,276.733002 150.412018,276.712372 150.862610,276.819855 
	C150.786118,276.466248 150.709625,276.112671 150.249649,275.383911 
M321.702515,415.096191 
	C321.446381,414.823303 321.195587,414.544647 320.921539,414.291046 
	C320.904175,414.274933 320.706543,414.453613 320.592804,414.541687 
	C320.862823,414.829437 321.132843,415.117157 321.702515,415.096191 
M189.484390,156.375183 
	C189.541077,156.155777 189.597763,155.936386 189.654465,155.716980 
	C189.516129,155.857925 189.377792,155.998871 189.484390,156.375183 
M208.401505,116.478600 
	C208.401505,116.478600 208.520020,116.407326 208.401505,116.478600 
M280.392090,404.476257 
	C280.392090,404.476257 280.523773,404.393250 280.392090,404.476257 
M288.521729,406.405426 
	C288.521729,406.405426 288.601044,406.529144 288.521729,406.405426 
M58.601398,299.518646 
	C58.601398,299.518646 58.476551,299.594391 58.601398,299.518646 
M408.513458,41.399307 
	C408.513458,41.399307 408.582581,41.514751 408.513458,41.399307 
M189.484970,153.604111 
	C189.484970,153.604111 189.407959,153.479980 189.484970,153.604111 
M151.589737,97.517036 
	C151.589737,97.517036 151.480026,97.581749 151.589737,97.517036 
M87.522125,390.401154 
	C87.522125,390.401154 87.602379,390.529907 87.522125,390.401154 
M182.587479,63.516693 
	C182.587479,63.516693 182.481491,63.578266 182.587479,63.516693 
z"/>
<path fill="#090909" opacity="1.000000" stroke="none" 
	d="
M611.199890,150.527374 
	C604.656982,159.009125 585.931213,158.256241 579.981140,144.408173 
	C575.949951,135.026016 578.602234,124.477341 586.691040,118.736984 
	C594.690674,113.059898 605.106689,114.063538 612.772949,121.640724 
	C611.858398,122.353363 611.150696,122.695312 609.765442,123.364616 
	C617.080200,126.664589 614.000793,132.947922 614.943665,137.861420 
	C614.801453,137.671295 614.714783,137.621246 614.628052,137.571198 
	C614.752502,137.713760 614.877014,137.856339 615.003540,138.375488 
	C614.365356,142.234329 613.725159,145.716583 613.084961,149.198822 
	C612.711731,149.643021 612.338501,150.087234 611.593018,150.248795 
	C611.020569,149.937576 610.820312,149.909012 610.620056,149.880463 
	C610.813354,150.096100 611.006592,150.311737 611.199890,150.527374 
M613.518372,139.400681 
	C613.518372,139.400681 613.590027,139.520828 613.518372,139.400681 
z"/>
<path fill="#080808" opacity="1.000000" stroke="none" 
	d="
M489.829712,86.014351 
	C491.672211,94.496887 489.979065,101.838531 482.678406,107.174767 
	C476.234558,111.884743 469.234955,112.597221 462.075745,109.045998 
	C451.455078,103.777779 448.495758,90.386307 455.631897,79.214035 
	C457.109161,81.019272 458.235443,82.694420 459.361725,84.369568 
	C459.698181,84.233131 460.034637,84.096695 460.371094,83.960266 
	C459.552826,81.497726 458.734558,79.035194 457.916290,76.572655 
	C457.916290,76.572655 458.136993,76.164375 458.723511,76.347000 
	C464.765625,77.321251 469.252502,75.066246 470.012665,71.150726 
	C470.454803,71.100380 470.896973,71.050034 471.668365,71.432793 
	C473.982849,77.428825 478.518219,77.332497 483.199036,76.913345 
	C483.627686,77.231644 484.056366,77.549950 484.734344,78.369705 
	C484.939850,86.767868 485.009216,86.870102 489.829712,86.014351 
M470.713623,75.996208 
	C470.787720,76.228500 470.861816,76.460793 470.935913,76.693108 
	C471.195557,76.431091 471.455170,76.169083 471.714783,75.907051 
	C471.481445,75.835068 471.248077,75.763084 470.713623,75.996208 
z"/>
<path fill="#0B0B0B" opacity="1.000000" stroke="none" 
	d="
M103.926941,500.068970 
	C112.971901,501.343475 117.387840,505.044556 119.131889,512.459167 
	C120.669212,518.994873 118.371658,525.325500 113.079758,529.135010 
	C107.535522,533.126160 100.047546,533.188354 94.446556,529.289734 
	C89.034775,525.522827 86.640091,518.785217 88.336334,512.098145 
	C90.149048,504.951904 95.254913,500.903778 103.926941,500.068970 
z"/>
<path fill="#080808" opacity="1.000000" stroke="none" 
	d="
M668.829773,176.036102 
	C669.158081,176.734772 669.486389,177.433441 669.474304,178.584595 
	C669.387146,181.691040 669.640381,184.344986 669.893555,186.998932 
	C668.753479,196.112839 657.451172,200.672470 650.069824,198.377716 
	C641.439026,195.694534 636.076904,184.329010 641.471191,175.365891 
	C642.737061,173.881271 643.436768,172.732590 644.136475,171.583893 
	C644.136475,171.583893 644.309570,171.264282 644.703247,171.450638 
	C647.733643,171.755478 650.370422,171.873962 653.022949,172.247421 
	C653.343079,172.764267 653.647400,173.026123 653.951782,173.287979 
	C654.085266,173.009064 654.218750,172.730148 654.352234,172.451218 
	C653.898926,172.303253 653.445618,172.155289 653.062378,171.633926 
	C653.447815,170.903488 653.709778,170.312042 654.086792,170.226364 
	C657.177917,169.523788 661.371643,172.330322 663.130798,175.101761 
	C664.213623,176.807693 666.269409,179.982697 668.829773,176.036102 
z"/>
<path fill="#111111" opacity="1.000000" stroke="none" 
	d="
M150.028351,549.990356 
	C146.095230,543.942078 146.561890,537.535461 151.272507,532.909668 
	C155.917404,528.348389 162.858582,527.560852 168.106277,530.999756 
	C173.356689,534.440430 175.468353,541.807007 172.903091,547.733398 
	C170.459793,553.377991 164.197556,556.432800 157.643936,555.112549 
	C156.529007,554.887939 155.467972,554.395813 154.166397,553.427979 
	C155.027039,551.882874 156.103333,550.937073 156.539963,550.553345 
	C155.278961,545.524414 154.093307,540.796021 152.907669,536.067627 
	C152.300293,536.172852 151.692932,536.278015 151.085571,536.383240 
	C151.301651,539.951721 151.648392,543.520142 151.647598,547.088623 
	C151.647385,548.055969 150.596832,549.023132 150.028351,549.990356 
z"/>
<path fill="#161616" opacity="1.000000" stroke="none" 
	d="
M559.624756,73.134651 
	C566.522888,81.121017 566.721741,89.540237 560.457703,96.094521 
	C555.572632,101.205971 548.382385,102.215347 542.310425,99.107468 
	C536.591064,96.180038 533.658325,88.043671 534.917603,81.892952 
	C536.927429,72.075890 547.786865,64.736626 559.624756,73.134651 
M546.641479,96.952545 
	C547.186401,95.839157 547.731262,94.725761 548.276184,93.612366 
	C551.336243,92.556503 554.330627,90.920319 556.657410,88.611343 
	C557.270508,88.002914 555.820251,85.315308 555.243713,83.328049 
	C556.180542,81.840744 557.455139,79.817169 558.391479,78.330635 
	C556.136292,76.381599 554.297302,74.851799 552.526550,73.246689 
	C550.378845,71.299866 545.037415,71.584152 543.066467,74.237144 
	C542.336365,75.219826 542.948486,77.199631 542.948486,78.798058 
	C542.225891,78.518990 540.863281,77.992760 538.722656,77.166061 
	C539.119629,79.631279 539.402283,81.386322 539.740967,83.489471 
	C538.829407,83.333496 538.022217,83.195389 537.215027,83.057281 
	C536.847839,83.369125 536.480652,83.680977 536.113403,83.992821 
	C537.688599,85.771240 539.387939,87.456612 540.808105,89.351234 
	C542.652466,91.811783 544.274780,94.438782 545.703369,97.096581 
	C545.803955,97.066605 545.904480,97.036629 546.641479,96.952545 
z"/>
<path fill="#141414" opacity="1.000000" stroke="none" 
	d="
M356.226746,505.873230 
	C357.719696,506.985138 358.786865,508.267029 360.068237,509.277283 
	C361.222809,510.187592 362.543488,511.199982 363.916534,511.435669 
	C365.392578,511.689026 367.014893,511.090118 368.893799,510.986053 
	C355.717804,519.715454 340.887848,525.284241 325.352448,529.880310 
	C325.430695,528.469971 326.002075,527.390808 326.385864,526.248535 
	C326.714142,525.271667 326.827209,524.222473 327.035431,523.205261 
	C336.655029,517.445129 346.274628,511.685059 356.226746,505.873230 
z"/>
<path fill="#161616" opacity="1.000000" stroke="none" 
	d="
M189.443054,65.922607 
	C188.764099,64.948914 188.392990,63.852444 188.257904,62.374260 
	C188.770355,61.867199 189.046799,61.741852 189.323242,61.616497 
	C189.234131,61.491089 189.072739,61.252365 189.066269,61.256493 
	C188.701187,61.489407 188.349030,61.742558 187.995575,61.993698 
	C186.749939,62.080593 185.135895,62.706573 184.327316,62.153965 
	C181.837555,60.452377 180.085541,60.619926 177.880432,62.748920 
	C177.039322,63.560989 174.901047,63.029495 173.064819,62.997307 
	C185.236908,53.510807 198.632294,45.923847 213.065109,40.320976 
	C213.314209,40.754459 213.563309,41.187946 213.812408,41.621433 
	C205.791916,49.680901 197.771408,57.740368 189.443054,65.922607 
z"/>
<path fill="#141414" opacity="1.000000" stroke="none" 
	d="
M518.528870,580.956238 
	C518.099426,580.286255 517.594177,579.209351 517.930481,578.753723 
	C520.318420,575.518738 522.968689,572.475647 525.311646,569.210815 
	C525.808594,568.518372 525.383972,567.164490 525.383972,565.888550 
	C526.072815,565.888550 526.957520,565.888550 527.167603,565.888550 
	C527.604675,563.866516 527.985901,562.102844 528.678833,560.467590 
	C529.195129,561.108887 529.399780,561.621887 529.604492,562.134827 
	C529.806946,561.898926 530.225891,561.526672 530.177002,561.449097 
	C529.846619,560.924683 529.417175,560.462646 529.019775,559.980469 
	C531.036438,555.531921 533.053101,551.083374 535.245667,546.246765 
	C536.095032,547.468872 536.643677,548.258240 537.109619,548.928589 
	C541.630859,545.911987 541.042114,541.281006 541.155273,536.724304 
	C541.178223,535.800842 543.094482,534.924438 544.686462,534.232178 
	C545.596252,534.418579 545.957581,534.399170 546.318848,534.379761 
	C545.889221,534.243286 545.459656,534.106750 545.030029,533.970215 
	C546.691284,532.540588 550.017029,532.407043 548.590027,528.598083 
	C548.258667,527.713684 550.087097,526.020142 551.317383,524.353271 
	C552.507385,524.410461 553.301819,524.813171 554.096252,525.215881 
	C550.539124,531.530945 547.039734,537.879456 543.410217,544.152588 
	C538.815735,552.093445 534.367615,560.137268 529.366638,567.817749 
	C526.337769,572.469482 522.381958,576.517578 518.528870,580.956238 
z"/>
<path fill="#1B1B1B" opacity="1.000000" stroke="none" 
	d="
M401.957581,102.114105 
	C397.215668,96.505508 396.664459,90.606461 400.149445,85.524483 
	C403.254089,80.997116 409.151398,78.998955 414.180023,80.728951 
	C418.892426,82.350159 421.448608,85.737923 422.059418,90.562729 
	C422.716644,95.754074 421.071442,100.122185 416.594116,103.035271 
	C411.726196,106.202492 406.882874,105.689613 401.957581,102.114105 
M411.000000,85.000000 
	C411.000000,85.000000 411.000519,85.000389 410.912384,84.320328 
	C409.953705,83.938705 408.828247,83.023392 408.063446,83.262329 
	C403.206543,84.779709 406.574493,89.602058 404.800537,92.743675 
	C403.548615,91.180222 402.566711,89.953972 401.584808,88.727730 
	C401.054688,89.022881 400.524536,89.318039 399.994415,89.613190 
	C401.796295,93.539658 403.130737,97.787727 405.543152,101.294167 
	C407.593079,104.273689 416.359436,100.409859 418.549927,95.997498 
	C418.817963,95.727867 419.085999,95.458229 419.354034,95.188606 
	C419.149536,95.003059 418.945068,94.817513 418.740601,94.631958 
	C418.484070,95.078255 418.227539,95.524551 417.466400,95.567604 
	C417.676575,92.220116 417.886780,88.872627 418.129974,84.999405 
	C415.180511,84.999405 413.089630,84.999405 411.000000,85.000000 
z"/>
<path fill="#090909" opacity="1.000000" stroke="none" 
	d="
M360.170624,111.594193 
	C355.120514,108.648628 353.734497,103.359886 356.767029,98.607010 
	C359.696136,94.016220 366.015350,92.535912 370.077667,95.850555 
	C374.222534,99.232506 373.085052,104.025658 371.963440,108.759995 
	C369.862793,108.723312 368.503418,108.310600 367.119080,108.193848 
	C364.168182,107.944969 361.028351,107.492790 360.170624,111.594193 
z"/>
<path fill="#141414" opacity="1.000000" stroke="none" 
	d="
M309.384766,390.120697 
	C310.342529,388.660339 311.533936,387.111145 313.082733,386.120728 
	C314.227417,385.388763 315.837677,385.384827 317.700592,384.948883 
	C318.687866,385.867096 320.229431,387.300842 321.881622,388.837494 
	C322.344879,388.053040 322.731049,387.399109 323.200470,386.604248 
	C322.027924,385.811737 320.767609,384.959900 319.495636,384.100189 
	C320.768860,381.568024 321.909302,379.299927 323.415222,376.873352 
	C327.629333,378.769165 331.477966,380.823456 335.663361,383.352905 
	C337.330780,385.515198 338.661438,387.202362 339.992096,388.889526 
	C329.918640,389.350189 319.845184,389.810883 309.384766,390.120697 
z"/>
<path fill="#121212" opacity="1.000000" stroke="none" 
	d="
M597.589600,532.995605 
	C599.272034,533.626709 600.635681,534.445251 601.565125,535.003113 
	C600.924255,536.833557 600.317322,538.567200 599.689758,540.359680 
	C596.319519,539.670044 596.319519,539.670044 598.748779,550.147278 
	C601.443481,549.025818 604.028259,547.950073 606.920166,546.993042 
	C602.738953,552.343018 598.250549,557.574341 593.041931,562.917236 
	C587.838257,563.970520 589.962585,558.903381 587.639771,557.880249 
	C590.850098,549.647827 594.060425,541.415405 597.589600,532.995605 
z"/>
<path fill="#1F1E1E" opacity="1.000000" stroke="none" 
	d="
M435.386108,56.806999 
	C435.847046,55.829239 436.653259,54.214916 437.615997,54.115433 
	C443.213898,53.537010 448.865265,52.883629 454.465759,53.100784 
	C459.435089,53.293468 461.757477,51.854149 461.055298,46.274521 
	C468.963226,48.251633 476.855896,50.654606 484.724670,53.133270 
	C485.092072,53.249001 485.246643,54.040401 485.775452,54.836472 
	C486.050629,55.155811 486.100983,55.210346 486.100983,55.210346 
	C469.335205,55.763630 452.569458,56.316914 435.386108,56.806999 
z"/>
<path fill="#1B1B1B" opacity="1.000000" stroke="none" 
	d="
M681.002441,368.001221 
	C680.791626,364.940308 680.555237,361.880829 680.382080,358.817810 
	C680.309265,357.529541 680.369995,356.233704 681.478271,354.943390 
	C681.953369,355.868011 682.428528,356.792633 683.214661,357.835205 
	C683.525696,371.184753 683.525696,384.416351 683.525696,397.647980 
	C683.182617,397.664368 682.839539,397.680756 682.496460,397.697174 
	C679.480957,388.686279 676.465454,379.675415 673.366394,370.316528 
	C673.964417,369.978119 674.646057,369.987671 675.709839,370.357941 
	C677.085876,372.514069 678.079712,374.309418 679.127319,376.201996 
	C683.936829,374.018402 681.287842,370.778473 681.002441,368.001221 
z"/>
<path fill="#171717" opacity="1.000000" stroke="none" 
	d="
M148.090134,81.889465 
	C149.261719,82.263336 150.133331,82.743156 150.558792,82.977364 
	C147.502762,85.938652 144.651260,88.529076 142.066223,91.362595 
	C141.589676,91.884956 142.191650,93.391289 142.301758,94.503609 
	C140.751450,96.033142 138.922836,98.236710 136.686172,99.887421 
	C135.434265,100.811371 133.505936,100.818840 131.586594,101.315857 
	C132.529236,102.593452 133.666199,104.134430 134.963196,105.892288 
	C131.899963,110.532509 127.173477,108.983185 122.286156,108.123901 
	C130.551743,99.309296 139.170959,90.652351 148.090134,81.889465 
z"/>
<path fill="#171717" opacity="1.000000" stroke="none" 
	d="
M325.799896,145.319214 
	C326.304626,145.980423 326.506561,146.662109 326.854248,147.671906 
	C327.000000,148.000000 327.000549,147.999390 327.000549,147.999390 
	C324.715149,149.009644 320.739685,147.868668 321.364014,152.636780 
	C320.186096,152.452057 319.103790,152.282333 317.709229,152.063629 
	C317.709229,153.673172 317.709229,155.066299 317.709229,157.428375 
	C315.909607,156.151642 314.754211,155.331970 313.861633,154.698730 
	C312.509644,157.795700 311.095459,161.035156 309.792603,164.019531 
	C304.360504,164.354416 299.514893,164.653137 294.203674,164.917511 
	C304.324402,158.368668 314.910736,151.854172 325.799896,145.319214 
z"/>
<path fill="#161616" opacity="1.000000" stroke="none" 
	d="
M411.892792,291.565125 
	C411.224945,292.449951 410.427277,293.490814 409.589355,293.524261 
	C405.893188,293.671906 402.185394,293.529358 398.206909,293.810455 
	C394.412598,290.909851 390.893158,287.690674 387.373749,284.471497 
	C387.698944,283.988495 388.024170,283.505493 388.349396,283.022522 
	C397.206177,282.478851 404.301880,287.407074 411.892792,291.565125 
z"/>
<path fill="#1F1E1E" opacity="1.000000" stroke="none" 
	d="
M475.191254,608.046082 
	C476.052826,609.053467 476.722595,610.210083 477.237183,611.432007 
	C477.803680,612.777161 478.227509,614.182434 478.877777,615.841919 
	C472.127441,620.373230 465.212830,624.624084 458.298218,628.875000 
	C458.042572,628.493164 457.786957,628.111328 457.531311,627.729492 
	C463.331238,621.227661 469.131134,614.725830 475.191254,608.046082 
z"/>
<path fill="#161616" opacity="1.000000" stroke="none" 
	d="
M403.267212,533.905396 
	C404.276886,535.889893 404.961426,537.947632 405.632385,539.964600 
	C401.902588,540.446777 399.382080,540.772644 396.075806,541.200073 
	C397.236023,542.952393 398.074219,544.218384 399.070557,545.723145 
	C398.393982,546.512695 397.485352,547.573059 396.281982,548.977356 
	C395.019989,547.625671 393.980682,546.512451 392.624634,545.059998 
	C392.624634,546.438538 392.624634,547.444275 392.624634,548.483887 
	C389.065826,548.483887 385.725677,548.483887 382.179749,548.206299 
	C388.963348,543.278748 395.952698,538.628723 403.267212,533.905396 
z"/>
<path fill="#212121" opacity="1.000000" stroke="none" 
	d="
M326.687256,523.268311 
	C326.827209,524.222473 326.714142,525.271667 326.385864,526.248535 
	C326.002075,527.390808 325.430695,528.469971 324.958984,529.904297 
	C314.880402,532.842529 304.783539,535.452942 294.686707,538.063354 
	C294.591888,537.678223 294.497070,537.293091 294.402283,536.907959 
	C305.047882,532.382385 315.693512,527.856873 326.687256,523.268311 
z"/>
<path fill="#141414" opacity="1.000000" stroke="none" 
	d="
M214.003265,108.970535 
	C213.654373,109.782677 213.305496,110.594826 212.608459,111.703941 
	C211.173325,112.334267 210.086349,112.667625 208.999390,113.000992 
	C207.282211,114.410873 205.565018,115.820747 204.567474,116.639755 
	C204.917496,119.577812 205.206131,122.000671 205.531891,124.735085 
	C201.824402,124.334061 199.105515,121.479256 196.885178,125.249397 
	C196.776199,125.434441 195.104172,124.698967 194.033401,124.071259 
	C200.115158,117.489319 206.323502,111.228264 212.812836,104.843307 
	C213.465393,105.278206 213.836975,105.836998 214.104950,107.024139 
	C214.001999,108.091827 214.002625,108.531181 214.003265,108.970535 
z"/>
<path fill="#1B1B1B" opacity="1.000000" stroke="none" 
	d="
M668.822876,175.694458 
	C666.269409,179.982697 664.213623,176.807693 663.130798,175.101761 
	C661.371643,172.330322 657.177917,169.523788 654.086792,170.226364 
	C653.709778,170.312042 653.447815,170.903488 653.066284,171.630264 
	C653.000000,172.000000 653.007202,171.992447 653.007202,171.992447 
	C650.370422,171.873962 647.733643,171.755478 644.870728,171.380081 
	C649.782654,164.464371 664.007935,165.695770 668.822876,175.694458 
z"/>
<path fill="#121212" opacity="1.000000" stroke="none" 
	d="
M520.009338,268.386353 
	C519.336670,270.102448 518.558167,271.511505 517.450134,273.517151 
	C517.111511,271.915375 516.876404,270.803253 516.829590,270.581726 
	C514.014038,270.063385 511.389160,270.154877 509.598083,268.977783 
	C508.842987,268.481537 509.846405,265.309570 510.019165,263.654114 
	C508.946564,261.722321 507.735596,259.541290 506.804047,257.162964 
	C511.356842,260.670197 515.630188,264.374756 520.009338,268.386353 
z"/>
<path fill="#171717" opacity="1.000000" stroke="none" 
	d="
M613.398926,149.047974 
	C613.725159,145.716583 614.365356,142.234329 615.002808,138.376038 
	C615.000000,138.000000 614.999146,138.001495 614.999146,138.001495 
	C614.000793,132.947922 617.080200,126.664589 609.765442,123.364616 
	C611.150696,122.695312 611.858398,122.353363 612.885315,121.973785 
	C620.059082,129.478577 620.269653,140.646545 613.398926,149.047974 
z"/>
<path fill="#141414" opacity="1.000000" stroke="none" 
	d="
M649.012573,323.403900 
	C649.866516,320.782806 650.752747,318.506836 652.051697,315.171051 
	C652.720459,320.368256 653.222046,324.266022 653.655518,327.634552 
	C656.597778,327.634552 658.562866,327.634552 660.527954,327.634552 
	C660.005188,329.664368 659.510620,331.702087 658.947205,333.720551 
	C658.687378,334.651428 658.293091,335.544769 657.923889,336.857300 
	C654.940308,332.755981 651.992676,328.252502 649.012573,323.403900 
z"/>
<path fill="#212121" opacity="1.000000" stroke="none" 
	d="
M587.380249,558.102539 
	C589.962585,558.903381 587.838257,563.970520 592.736694,563.046997 
	C589.016296,567.027039 584.880920,570.989014 580.213989,574.863892 
	C579.538452,574.689880 579.394409,574.602966 579.250427,574.516052 
	C581.873840,569.118958 584.497253,563.721924 587.380249,558.102539 
z"/>
<path fill="#1F1E1E" opacity="1.000000" stroke="none" 
	d="
M339.556641,44.912384 
	C339.232361,45.823772 338.657990,47.104294 337.713257,47.499477 
	C333.476227,49.271816 329.242645,51.335533 324.793976,52.226742 
	C321.409882,52.904678 317.704224,51.977413 314.077087,51.410263 
	C322.387024,48.995430 330.761566,46.934666 339.556641,44.912384 
z"/>
<path fill="#161616" opacity="1.000000" stroke="none" 
	d="
M588.997559,183.004349 
	C584.861633,181.750916 580.375610,181.110046 576.718201,179.019440 
	C574.442688,177.718719 573.421143,174.224274 571.644531,171.352463 
	C571.452271,170.990540 571.545715,170.977448 571.908997,171.201019 
	C572.584961,171.032669 572.897644,170.640732 573.210327,170.248779 
	C578.332886,173.687836 583.455505,177.126892 588.787048,181.150162 
	C588.996521,182.157700 588.997070,182.581024 588.997559,183.004349 
z"/>
<path fill="#161616" opacity="1.000000" stroke="none" 
	d="
M55.321777,417.310242 
	C57.394360,418.309052 59.494564,419.686829 61.660564,420.951935 
	C62.524570,421.456543 63.831913,421.458557 64.410416,422.138031 
	C65.386589,423.284668 66.419113,424.740601 66.562119,426.154083 
	C66.767662,428.185516 66.196846,430.295532 65.942078,432.769775 
	C62.409752,427.993042 58.892773,422.818542 55.321777,417.310242 
z"/>
<path fill="#121212" opacity="1.000000" stroke="none" 
	d="
M315.688965,236.058304 
	C310.785767,232.993881 314.450836,229.207932 314.503754,224.978394 
	C317.387939,226.422424 319.914520,227.687408 322.771179,228.997070 
	C320.733093,231.347061 318.364899,233.652359 315.688965,236.058304 
z"/>
<path fill="#1B1B1B" opacity="1.000000" stroke="none" 
	d="
M296.008453,410.005554 
	C295.559082,408.861725 295.109741,407.717926 294.813538,406.348145 
	C302.429443,407.957031 309.892181,409.791870 317.668243,411.850647 
	C314.284485,415.321869 310.641754,412.727020 306.949768,412.040710 
	C305.570709,411.784332 304.104034,411.999207 301.827606,411.999207 
	C300.567169,411.469147 298.562439,410.626099 296.278625,409.891296 
	C295.999542,409.999573 296.008453,410.005554 296.008453,410.005554 
z"/>
<path fill="#050505" opacity="1.000000" stroke="none" 
	d="
M150.077194,550.326599 
	C150.596832,549.023132 151.647385,548.055969 151.647598,547.088623 
	C151.648392,543.520142 151.301651,539.951721 151.085571,536.383240 
	C151.692932,536.278015 152.300293,536.172852 152.907669,536.067627 
	C154.093307,540.796021 155.278961,545.524414 156.539963,550.553345 
	C156.103333,550.937073 155.027039,551.882874 153.902496,553.201294 
	C152.611511,552.603516 151.368774,551.633179 150.077194,550.326599 
z"/>
<path fill="#171717" opacity="1.000000" stroke="none" 
	d="
M463.596008,458.983856 
	C464.577179,460.274811 465.236237,461.774597 465.945862,463.250031 
	C467.514130,466.510773 466.724518,468.044464 463.021240,469.198181 
	C460.657806,469.934540 458.912903,472.656128 456.529755,474.346832 
	C458.544830,469.197906 460.920837,464.189758 463.596008,458.983856 
z"/>
<path fill="#161616" opacity="1.000000" stroke="none" 
	d="
M269.604736,185.090103 
	C270.439270,186.125473 270.961914,187.277069 271.484558,188.428650 
	C265.604156,191.003677 263.867401,198.785004 256.558533,200.019501 
	C260.561951,195.081390 264.927399,190.143860 269.604736,185.090103 
z"/>
<path fill="#212121" opacity="1.000000" stroke="none" 
	d="
M323.378601,642.010132 
	C325.514282,641.050232 328.013885,639.555664 330.572571,639.446472 
	C335.294922,639.244934 340.051941,639.856201 344.904053,640.517090 
	C344.260315,640.994385 343.507080,641.083374 342.226440,640.839233 
	C340.815033,640.833862 339.930969,641.161621 339.046906,641.489380 
	C333.954315,641.693054 328.861755,641.896729 323.378601,642.010132 
z"/>
<path fill="#161616" opacity="1.000000" stroke="none" 
	d="
M176.794647,575.460327 
	C176.503052,577.148132 175.930313,578.589233 175.587158,579.452698 
	C172.388931,578.239319 169.778152,577.401672 167.320740,576.239624 
	C166.368362,575.789246 165.762970,574.605042 164.997437,573.401917 
	C168.834778,573.770386 172.674133,574.492065 176.794647,575.460327 
z"/>
<path fill="#1F1E1E" opacity="1.000000" stroke="none" 
	d="
M360.435974,111.804665 
	C361.028351,107.492790 364.168182,107.944969 367.119080,108.193848 
	C368.503418,108.310600 369.862793,108.723312 371.623901,109.003891 
	C369.113739,113.281181 365.203247,113.759857 360.435974,111.804665 
z"/>
<path fill="#212121" opacity="1.000000" stroke="none" 
	d="
M340.404907,388.949585 
	C338.661438,387.202362 337.330780,385.515198 335.994171,383.497406 
	C340.486664,384.485809 344.985107,385.804840 350.797943,387.509277 
	C346.562073,388.146088 343.689911,388.577850 340.404907,388.949585 
z"/>
<path fill="#181818" opacity="1.000000" stroke="none" 
	d="
M558.820251,513.924500 
	C555.806763,508.505188 556.621094,505.994293 563.185303,501.156250 
	C562.077148,505.371826 560.576965,509.536621 558.820251,513.924500 
z"/>
<path fill="#181818" opacity="1.000000" stroke="none" 
	d="
M483.154755,76.550140 
	C478.518219,77.332497 473.982849,77.428825 471.990845,71.527451 
	C476.357391,71.375595 480.394684,72.310295 483.154755,76.550140 
z"/>
<path fill="#141414" opacity="1.000000" stroke="none" 
	d="
M146.096252,585.442383 
	C146.261658,584.289551 146.564636,583.440186 147.078293,582.000183 
	C149.398453,584.195801 151.355606,586.047852 153.656464,587.949951 
	C154.000168,588.000000 153.995453,587.997009 153.995453,587.997009 
	C155.003830,589.363831 156.012222,590.730652 157.016815,592.464722 
	C153.419952,590.469910 149.826889,588.107910 146.096252,585.442383 
z"/>
<path fill="#1B1B1B" opacity="1.000000" stroke="none" 
	d="
M288.848816,403.586700 
	C286.410767,403.652710 283.785858,403.438812 281.170288,403.142944 
	C280.297668,403.044220 279.448730,402.735809 277.316010,402.208588 
	C277.282013,401.721588 277.171814,400.142487 277.083923,398.163879 
	C280.959381,399.601196 284.812500,401.437958 288.848816,403.586700 
z"/>
<path fill="#171717" opacity="1.000000" stroke="none" 
	d="
M55.193630,253.349472 
	C55.635536,253.223236 56.497810,252.984955 56.621601,253.190796 
	C58.012791,255.503906 59.290398,257.885345 60.761688,260.543152 
	C59.838589,260.375458 58.600605,260.150574 57.673729,259.982178 
	C56.954891,261.974121 56.240795,263.952942 55.138359,266.001312 
	C54.540596,263.647766 54.331177,261.224670 54.606884,258.256165 
	C55.157936,256.558960 55.223858,255.407150 55.289780,254.255341 
	C55.238739,253.986923 55.232487,253.716385 55.193630,253.349472 
z"/>
<path fill="#181818" opacity="1.000000" stroke="none" 
	d="
M469.626648,71.087982 
	C469.252502,75.066246 464.765625,77.321251 458.941681,76.267899 
	C462.129089,74.345863 465.684845,72.685547 469.626648,71.087982 
z"/>
<path fill="#1B1B1B" opacity="1.000000" stroke="none" 
	d="
M668.376099,358.312378 
	C670.820618,359.047485 673.316650,360.128998 675.835754,361.220551 
	C674.669556,364.011627 673.935608,365.768158 673.054382,367.847504 
	C671.413940,364.999786 669.920776,361.829285 668.376099,358.312378 
z"/>
<path fill="#161616" opacity="1.000000" stroke="none" 
	d="
M55.975655,296.023926 
	C55.580433,296.023743 55.185215,296.023590 54.493587,296.019989 
	C53.847271,292.225952 53.497364,288.435394 53.350861,284.172363 
	C53.751694,283.455444 53.887527,283.180542 53.961773,282.875214 
	C53.961773,282.875214 53.977467,282.498962 53.982780,281.999481 
	C53.978748,281.292450 53.969402,281.084930 53.960060,280.877411 
	C53.960060,280.877411 53.955009,280.462463 54.201035,279.961517 
	C54.302212,278.970459 54.157356,278.480347 54.012497,277.990234 
	C54.012497,277.990234 54.218971,277.777985 54.230110,277.722717 
	C54.827274,279.019684 55.849640,280.349915 55.918926,281.728088 
	C56.142284,286.170837 56.014542,290.631195 56.010071,295.543457 
	C55.997990,296.002136 55.975655,296.023895 55.975655,296.023926 
z"/>
<path fill="#1B1B1B" opacity="1.000000" stroke="none" 
	d="
M125.199654,306.507080 
	C124.430672,307.031830 123.627838,307.168915 123.022041,307.272369 
	C121.848366,304.994843 120.427925,302.891846 119.737335,300.571655 
	C119.467094,299.663788 120.834938,298.268311 121.828033,297.061951 
	C123.188171,300.059143 124.176987,303.089294 125.199654,306.507080 
z"/>
<path fill="#181818" opacity="1.000000" stroke="none" 
	d="
M489.846191,85.659592 
	C485.009216,86.870102 484.939850,86.767868 484.987854,78.477989 
	C486.615601,80.491478 488.239136,82.898148 489.846191,85.659592 
z"/>
<path fill="#181818" opacity="1.000000" stroke="none" 
	d="
M554.400269,525.033508 
	C553.301819,524.813171 552.507385,524.410461 551.352783,524.007507 
	C550.992676,524.007324 551.000000,524.000000 550.835632,523.755920 
	C550.119202,523.339844 549.567078,523.167847 549.015015,522.995911 
	C551.364136,521.659790 553.713196,520.323669 556.455078,518.986328 
	C556.133423,520.940430 555.418884,522.895752 554.400269,525.033508 
z"/>
<path fill="#1B1B1B" opacity="1.000000" stroke="none" 
	d="
M589.001831,183.371216 
	C588.997070,182.581024 588.996521,182.157700 588.996582,181.416931 
	C590.948242,182.771469 592.899353,184.443451 594.972351,186.412735 
	C590.296326,191.390976 590.266907,186.303131 589.001831,183.371216 
z"/>
<path fill="#1B1B1B" opacity="1.000000" stroke="none" 
	d="
M571.479858,467.909729 
	C570.800598,464.499023 569.037109,460.681061 573.394043,457.972900 
	C573.098022,461.240540 572.466492,464.509735 571.479858,467.909729 
z"/>
<path fill="#1B1B1B" opacity="1.000000" stroke="none" 
	d="
M273.887817,395.648987 
	C271.589996,396.094208 269.165039,396.237793 266.285309,396.408325 
	C266.695496,394.562927 266.992889,393.224976 267.595764,391.812897 
	C269.854370,392.941650 271.807526,394.144501 273.887817,395.648987 
z"/>
<path fill="#161616" opacity="1.000000" stroke="none" 
	d="
M54.472595,300.552307 
	C57.210846,301.546539 59.083096,308.050812 57.288486,309.972107 
	C57.223953,310.041199 56.518402,309.511536 55.803993,309.155304 
	C55.146481,306.358795 54.796581,303.667938 54.472595,300.552307 
z"/>
<path fill="#1B1B1B" opacity="1.000000" stroke="none" 
	d="
M421.755249,40.750870 
	C421.216339,41.644848 420.429443,42.300220 419.321289,42.977787 
	C419.000000,42.999981 419.005859,43.004570 419.005859,43.004570 
	C417.383728,42.532001 415.761597,42.059437 414.230621,41.613430 
	C414.739685,41.164825 415.467682,40.523273 416.107544,39.628334 
	C417.848694,39.754051 419.677948,40.133152 421.755249,40.750870 
z"/>
<path fill="#141414" opacity="1.000000" stroke="none" 
	d="
M85.034576,393.364746 
	C87.666878,393.578094 90.349678,394.150116 93.032478,394.722137 
	C93.019821,395.195953 93.007164,395.669769 92.994507,396.143585 
	C90.768509,396.274658 88.542503,396.405701 86.102272,395.951996 
	C85.564659,395.234222 85.241272,395.101196 84.917892,394.968140 
	C84.917892,394.968140 85.011803,394.961212 85.020416,395.007233 
	C85.047722,394.609955 85.066399,394.166687 85.034576,393.364746 
z"/>
<path fill="#181818" opacity="1.000000" stroke="none" 
	d="
M563.876465,499.883698 
	C563.214111,498.310120 562.746155,496.477356 562.278259,494.644531 
	C563.235657,494.403381 564.192993,494.162231 565.484131,493.951721 
	C565.235535,495.863068 564.653259,497.743774 563.876465,499.883698 
z"/>
<path fill="#171717" opacity="1.000000" stroke="none" 
	d="
M466.673035,451.193573 
	C469.323853,453.032196 468.617126,455.366364 464.476624,457.995483 
	C464.869995,455.806366 465.628723,453.602051 466.673035,451.193573 
z"/>
<path fill="#181818" opacity="1.000000" stroke="none" 
	d="
M420.734192,519.221313 
	C421.327087,520.874939 421.622986,522.666260 422.001343,524.956482 
	C419.685486,524.554504 418.143066,524.286743 416.199677,523.991943 
	C417.344879,522.429565 418.891052,520.894287 420.734192,519.221313 
z"/>
<path fill="#212121" opacity="1.000000" stroke="none" 
	d="
M430.770264,40.395496 
	C431.441345,41.479073 431.826935,42.362446 432.266174,43.368683 
	C431.771851,43.479694 430.181854,43.836765 428.203796,43.826893 
	C427.547668,42.359768 427.279572,41.259586 427.011475,40.159409 
	C428.169220,40.171371 429.326996,40.183331 430.770264,40.395496 
z"/>
<path fill="#141414" opacity="1.000000" stroke="none" 
	d="
M157.965591,593.391357 
	C160.094757,594.392029 164.843277,592.004517 164.138489,597.667236 
	C162.017685,596.551208 160.013550,595.151245 157.965591,593.391357 
z"/>
<path fill="#181818" opacity="1.000000" stroke="none" 
	d="
M457.678009,76.665817 
	C458.734558,79.035194 459.552826,81.497726 460.371094,83.960266 
	C460.034637,84.096695 459.698181,84.233131 459.361725,84.369568 
	C458.235443,82.694420 457.109161,81.019272 455.950714,79.042511 
	C456.425598,78.080261 456.932678,77.419617 457.678009,76.665817 
z"/>
<path fill="#1B1B1B" opacity="1.000000" stroke="none" 
	d="
M670.047363,186.669098 
	C669.640381,184.344986 669.387146,181.691040 669.478271,178.972809 
	C669.948792,181.385437 670.074951,183.862350 670.047363,186.669098 
z"/>
<path fill="#1B1B1B" opacity="1.000000" stroke="none" 
	d="
M405.746948,39.939590 
	C405.961334,41.330524 405.961334,42.750687 405.961334,44.211945 
	C402.366272,43.674377 402.315704,43.512722 404.745789,40.024391 
	C405.099762,39.969486 405.532532,39.968815 405.746948,39.939590 
z"/>
<path fill="#1B1B1B" opacity="1.000000" stroke="none" 
	d="
M426.668396,40.080677 
	C427.279572,41.259586 427.547668,42.359768 427.908325,43.685162 
	C426.680695,43.108944 425.360504,42.307518 423.993103,41.154144 
	C424.739044,40.535454 425.532166,40.268700 426.668396,40.080677 
z"/>
<path fill="#1B1B1B" opacity="1.000000" stroke="none" 
	d="
M570.051392,477.715759 
	C568.967651,477.225983 568.018982,476.443146 567.070374,475.660309 
	C568.076050,475.400635 569.081787,475.140961 570.426514,474.927856 
	C570.572510,475.790558 570.379517,476.606628 570.051392,477.715759 
z"/>
<path fill="#1B1B1B" opacity="1.000000" stroke="none" 
	d="
M251.616150,582.710327 
	C251.852448,584.220215 251.779266,585.611694 251.669937,587.690247 
	C250.078445,586.211975 249.010559,585.220093 247.906799,583.911499 
	C247.870911,583.594727 248.080963,583.637146 248.534973,583.686157 
	C249.338989,583.445740 249.688995,583.156372 250.038986,582.867004 
	C250.461548,582.775330 250.884109,582.683655 251.616150,582.710327 
z"/>
<path fill="#1B1B1B" opacity="1.000000" stroke="none" 
	d="
M263.530334,388.281036 
	C258.915070,389.300232 258.644775,389.153473 259.615936,386.061249 
	C261.073822,386.666748 262.194946,387.338287 263.530334,388.281036 
z"/>
<path fill="#1B1B1B" opacity="1.000000" stroke="none" 
	d="
M571.080078,472.717316 
	C567.825439,472.110687 569.048218,470.697021 570.776794,469.115662 
	C571.138794,470.123077 571.191467,471.274658 571.080078,472.717316 
z"/>
<path fill="#212121" opacity="1.000000" stroke="none" 
	d="
M413.342224,197.683411 
	C413.329559,196.798035 413.709534,196.000687 414.089508,195.203323 
	C414.736816,195.716568 415.384155,196.229813 416.054108,197.064011 
	C415.296112,197.513779 414.515503,197.642609 413.342224,197.683411 
z"/>
<path fill="#141414" opacity="1.000000" stroke="none" 
	d="
M432.631317,221.038177 
	C432.413757,221.928131 431.986328,222.722275 431.558899,223.516418 
	C430.999573,222.819260 430.440247,222.122086 429.993591,221.103333 
	C430.877991,220.835297 431.649719,220.888840 432.631317,221.038177 
z"/>
<path fill="#1B1B1B" opacity="1.000000" stroke="none" 
	d="
M643.884399,171.716049 
	C643.436768,172.732590 642.737061,173.881271 641.662659,175.029572 
	C642.069397,173.968872 642.850891,172.908539 643.884399,171.716049 
z"/>
<path fill="#1B1B1B" opacity="1.000000" stroke="none" 
	d="
M243.251068,583.284180 
	C241.053497,583.710754 238.808411,584.156311 236.751297,584.296875 
	C237.856888,583.841370 238.774506,583.690796 239.692108,583.540222 
	C239.692108,583.540222 240.079132,583.512451 240.685333,583.663574 
	C241.950058,583.623352 242.608566,583.431946 243.267059,583.240540 
	C243.267059,583.240540 243.203537,583.303162 243.251068,583.284180 
z"/>
<path fill="#050505" opacity="1.000000" stroke="none" 
	d="
M55.047684,254.460571 
	C55.223858,255.407150 55.157936,256.558960 54.742767,257.841644 
	C54.530880,256.870300 54.668240,255.768051 55.047684,254.460571 
z"/>
<path fill="#050505" opacity="1.000000" stroke="none" 
	d="
M339.345825,641.554688 
	C339.930969,641.161621 340.815033,640.833862 341.852936,640.763062 
	C341.219421,641.220032 340.432068,641.419983 339.345825,641.554688 
z"/>
<path fill="#161616" opacity="1.000000" stroke="none" 
	d="
M54.071404,275.240112 
	C54.444309,275.765015 54.729446,276.542236 54.597191,277.427124 
	C54.114407,276.853973 54.049019,276.173218 54.071404,275.240112 
z"/>
<path fill="#050505" opacity="1.000000" stroke="none" 
	d="
M239.503021,583.173462 
	C238.774506,583.690796 237.856888,583.841370 236.474167,584.000854 
	C236.009048,584.009766 235.999908,583.999878 235.990906,583.705139 
	C235.977951,583.216187 235.973984,583.021912 235.970001,582.827576 
	C237.084641,582.820618 238.199280,582.813660 239.503021,583.173462 
z"/>
<path fill="#141414" opacity="1.000000" stroke="none" 
	d="
M435.856079,222.473267 
	C435.934967,222.769302 435.987030,223.105270 436.039124,223.441223 
	C435.864258,223.256851 435.689362,223.072495 435.630554,222.604019 
	C435.746613,222.319916 435.829254,222.513214 435.856079,222.473267 
z"/>
<path fill="#050505" opacity="1.000000" stroke="none" 
	d="
M53.748131,278.113403 
	C54.157356,278.480347 54.302212,278.970459 54.169106,279.756470 
	C53.755352,279.447144 53.619560,278.841858 53.748131,278.113403 
z"/>
<path fill="#050505" opacity="1.000000" stroke="none" 
	d="
M242.978668,583.022522 
	C242.608566,583.431946 241.950058,583.623352 240.777664,583.696655 
	C241.072617,583.320557 241.881454,583.062561 242.978668,583.022522 
z"/>
<path fill="#212121" opacity="1.000000" stroke="none" 
	d="
M579.470154,576.297913 
	C579.470154,576.297913 579.132019,576.181763 579.132019,576.181763 
	C579.132019,576.181763 579.442749,576.503723 579.484253,576.403748 
	C579.525696,576.303772 579.470154,576.297913 579.470154,576.297913 
z"/>
<path fill="#1F1E1E" opacity="1.000000" stroke="none" 
	d="
M486.026367,55.127747 
	C486.002075,55.099678 486.137360,55.157764 486.137360,55.157764 
	C486.137360,55.157764 485.988739,55.008762 486.044861,55.109554 
	C486.100983,55.210346 486.050629,55.155811 486.026367,55.127747 
z"/>
<path fill="#1B1B1B" opacity="1.000000" stroke="none" 
	d="
M235.745880,582.705688 
	C235.973984,583.021912 235.977951,583.216187 235.987350,583.701660 
	C235.992783,583.992920 235.494354,583.982300 235.247314,583.991150 
	C235.000275,584.000000 235.007294,584.007080 235.007294,584.007080 
	C235.012222,583.800537 235.017166,583.593994 235.034012,583.077637 
	C235.204529,582.706482 235.363159,582.645142 235.745880,582.705688 
z"/>
<path fill="#050505" opacity="1.000000" stroke="none" 
	d="
M249.640106,582.798584 
	C249.688995,583.156372 249.338989,583.445740 248.632965,583.729492 
	C248.598358,583.392578 248.919785,583.061340 249.640106,582.798584 
z"/>
<path fill="#050505" opacity="1.000000" stroke="none" 
	d="
M53.698647,280.976196 
	C53.969402,281.084930 53.978748,281.292450 53.974163,281.811401 
	C53.785904,281.773499 53.611572,281.424225 53.698647,280.976196 
z"/>
<path fill="#1B1B1B" opacity="1.000000" stroke="none" 
	d="
M244.417908,583.787476 
	C244.750824,583.813721 245.041763,583.827209 245.329071,583.866882 
	C245.377350,583.873535 245.409958,583.993530 245.449799,584.061157 
	C245.293823,584.026123 245.137848,583.991089 244.660431,583.909424 
	C244.339005,583.862732 244.374680,583.783569 244.417908,583.787476 
z"/>
<path fill="#161616" opacity="1.000000" stroke="none" 
	d="
M571.263184,168.463776 
	C571.232300,168.797714 571.206116,169.080276 571.154175,169.358032 
	C571.145874,169.402206 571.021667,169.424683 570.950928,169.457153 
	C571.002075,169.307159 571.053162,169.157196 571.134155,168.685547 
	C571.164001,168.363892 571.259277,168.410797 571.263184,168.463776 
z"/>
<path fill="#050505" opacity="1.000000" stroke="none" 
	d="
M572.885620,170.207001 
	C572.897644,170.640732 572.584961,171.032669 571.951782,171.181183 
	C571.941223,170.680237 572.251038,170.422729 572.885620,170.207001 
z"/>
<path fill="#161616" opacity="1.000000" stroke="none" 
	d="
M571.635254,172.036758 
	C571.411804,171.856064 571.162354,171.655655 570.912903,171.455246 
	C571.068604,171.503693 571.224365,171.552139 571.527710,171.810303 
	C571.675354,172.020020 571.609253,172.017059 571.635254,172.036758 
z"/>
<path fill="#212121" opacity="1.000000" stroke="none" 
	d="
M579.881653,574.931580 
	C580.029175,575.404053 579.877014,575.662598 579.547302,576.080017 
	C579.470154,576.297913 579.525696,576.303772 579.562256,576.321899 
	C579.348938,575.950073 579.099182,575.560181 579.049927,574.843140 
	C579.394409,574.602966 579.538452,574.689880 579.881653,574.931580 
z"/>
<path fill="#050505" opacity="1.000000" stroke="none" 
	d="
M53.712120,282.966583 
	C53.887527,283.180542 53.751694,283.455444 53.364990,283.832886 
	C53.271294,283.663208 53.366879,283.360596 53.712120,282.966583 
z"/>
<path fill="#050505" opacity="1.000000" stroke="none" 
	d="
M116.990227,559.003052 
	C116.624229,558.904724 116.425034,558.635376 116.225830,558.365967 
	C116.487228,558.307068 116.748627,558.248169 117.240608,558.330627 
	C117.471191,558.471924 117.157028,558.831970 116.990227,559.003052 
z"/>
<path fill="#161616" opacity="1.000000" stroke="none" 
	d="
M451.547943,552.809753 
	C456.860718,553.574402 461.506866,553.133118 465.597168,549.125916 
	C466.910828,549.562378 467.907471,550.146484 468.904114,550.730591 
	C468.078918,551.261108 467.264435,551.809570 466.422241,552.311584 
	C466.160339,552.467712 465.581024,552.454163 465.555847,552.592590 
	C464.087280,560.673401 458.403656,556.729553 454.223450,556.326050 
	C453.122498,556.219849 452.214752,554.112000 451.547943,552.809753 
z"/>
<path fill="#141414" opacity="1.000000" stroke="none" 
	d="
M531.571533,187.721573 
	C531.936768,189.751938 532.068176,191.537689 532.270508,193.692871 
	C531.887878,195.443420 531.434265,196.824509 530.971741,198.232529 
	C529.077148,193.809052 527.079102,189.706085 525.621521,185.419342 
	C525.147522,184.025253 526.085449,182.151077 526.377625,180.496521 
	C527.295044,181.559647 528.298279,182.561996 529.106262,183.702652 
	C529.948181,184.891235 530.601746,186.213257 531.571533,187.721573 
M528.600647,186.514908 
	C528.600647,186.514908 528.477966,186.592361 528.600647,186.514908 
z"/>
<path fill="#181818" opacity="1.000000" stroke="none" 
	d="
M532.176025,326.831543 
	C528.358337,324.244263 524.623474,322.058075 519.415955,322.878082 
	C519.035889,322.362305 519.074036,321.454315 519.139343,321.452393 
	C522.270569,321.358398 525.458618,320.976715 528.520508,321.432190 
	C531.041565,321.807220 533.771118,322.920319 532.176025,326.831543 
z"/>
<path fill="#030303" opacity="1.000000" stroke="none" 
	d="
M680.682861,368.026215 
	C681.287842,370.778473 683.936829,374.018402 679.127319,376.201996 
	C678.079712,374.309418 677.085876,372.514069 676.050781,370.356110 
	C676.009521,369.993530 675.998535,370.000854 676.294678,369.982544 
	C677.059753,369.642853 677.528625,369.321442 677.997559,369.000000 
	C678.786133,368.683716 679.574768,368.367462 680.682861,368.026215 
z"/>
<path fill="#212121" opacity="1.000000" stroke="none" 
	d="
M475.633698,486.817505 
	C475.889893,488.700226 475.925293,490.434692 475.913696,492.600952 
	C474.678955,492.850739 473.491272,492.668732 472.151550,492.243591 
	C471.999512,492.000488 471.989532,492.010925 471.989532,492.010925 
	C472.248138,490.819733 472.250214,489.474274 472.844849,488.485077 
	C473.339386,487.662506 474.530396,487.258606 475.633698,486.817505 
z"/>
<path fill="#1F1E1E" opacity="1.000000" stroke="none" 
	d="
M597.589661,228.045135 
	C597.244385,226.310471 597.237488,224.589645 597.272461,222.436127 
	C598.725525,223.376312 600.136658,224.749207 602.034912,226.596024 
	C600.226562,227.240189 599.077332,227.649582 597.589661,228.045135 
z"/>
<path fill="#111111" opacity="1.000000" stroke="none" 
	d="
M487.181824,522.190918 
	C488.867279,521.878235 490.479523,521.857239 492.091736,521.836182 
	C491.999207,522.705017 491.906647,523.573914 491.799683,524.577820 
	C490.013916,523.780273 488.561249,523.131470 487.181824,522.190918 
z"/>
<path fill="#161616" opacity="1.000000" stroke="none" 
	d="
M267.518829,194.378128 
	C268.134857,194.864380 268.460419,195.457199 268.786011,196.050049 
	C268.251129,196.179901 267.716248,196.309753 267.181366,196.439606 
	C267.197021,195.787964 267.212708,195.136337 267.518829,194.378128 
z"/>
<path fill="#171717" opacity="1.000000" stroke="none" 
	d="
M459.363037,476.863525 
	C459.216827,476.369781 459.339203,475.896881 459.461609,475.423981 
	C459.825470,475.605011 460.189301,475.786041 460.553131,475.967102 
	C460.245972,476.272858 459.938812,476.578613 459.363037,476.863525 
z"/>
<path fill="#171717" opacity="1.000000" stroke="none" 
	d="
M467.397156,459.962952 
	C467.791473,459.722473 468.183228,459.724091 468.572601,459.755310 
	C468.584869,459.756287 468.572845,460.060730 468.572144,460.223694 
	C468.179504,460.218994 467.786865,460.214264 467.397156,459.962952 
z"/>
<path fill="#212121" opacity="1.000000" stroke="none" 
	d="
M419.471985,194.615845 
	C419.356445,195.066772 419.071075,195.343704 418.767548,195.599075 
	C418.759613,195.605728 418.553223,195.376450 418.439423,195.257172 
	C418.726196,194.984467 419.012970,194.711746 419.471985,194.615845 
z"/>
<path fill="#141414" opacity="1.000000" stroke="none" 
	d="
M154.003296,588.002441 
	C153.982803,587.271179 153.959167,586.537537 153.935532,585.803833 
	C154.211441,585.829895 154.487366,585.855957 154.763290,585.881958 
	C154.666901,586.483398 154.570496,587.084900 154.234772,587.841675 
	C153.995453,587.997009 154.000168,588.000000 154.003296,588.002441 
z"/>
<path fill="#1B1B1B" opacity="1.000000" stroke="none" 
	d="
M677.748047,368.908752 
	C677.528625,369.321442 677.059753,369.642853 676.291748,369.987366 
	C676.494629,369.612793 676.996643,369.215149 677.748047,368.908752 
z"/>
<path fill="#1B1B1B" opacity="1.000000" stroke="none" 
	d="
M564.784119,474.399963 
	C565.213562,474.543365 565.475464,474.817413 565.714172,475.110443 
	C565.725037,475.123810 565.525940,475.308167 565.424622,475.412903 
	C565.153809,475.120026 564.882996,474.827118 564.784119,474.399963 
z"/>
<path fill="#141414" opacity="1.000000" stroke="none" 
	d="
M151.531647,582.498230 
	C151.605789,582.909912 151.524292,583.164490 151.442810,583.419006 
	C151.163956,583.134277 150.885101,582.849548 150.606216,582.564880 
	C150.862823,582.490234 151.119431,582.415649 151.531647,582.498230 
z"/>
<path fill="#212121" opacity="1.000000" stroke="none" 
	d="
M429.881927,193.280090 
	C429.782440,193.751678 429.644043,193.999725 429.505615,194.247772 
	C429.372437,194.000732 429.084137,193.699692 429.146454,193.520691 
	C429.219543,193.310623 429.597382,193.206589 429.881927,193.280090 
z"/>
<path fill="#1B1B1B" opacity="1.000000" stroke="none" 
	d="
M234.998093,583.996826 
	C234.666458,584.275452 234.376587,584.677979 233.995651,584.802979 
	C233.662338,584.912415 233.226624,584.709717 231.628296,584.444519 
	C233.358200,584.175293 233.885345,584.093201 234.709900,584.009155 
	C235.007294,584.007080 235.000275,584.000000 234.998093,583.996826 
z"/>
<path fill="#161616" opacity="1.000000" stroke="none" 
	d="
M571.746887,174.357101 
	C571.991760,174.371994 572.124817,174.501877 572.257935,174.631744 
	C572.050354,174.578537 571.842712,174.525314 571.746887,174.357101 
z"/>
<path fill="#141414" opacity="1.000000" stroke="none" 
	d="
M549.174072,523.246216 
	C549.567078,523.167847 550.119202,523.339844 550.833862,523.759583 
	C550.442078,523.837097 549.887634,523.666809 549.174072,523.246216 
z"/>
<path fill="#212121" opacity="1.000000" stroke="none" 
	d="
M472.004974,491.996613 
	C471.756897,491.647186 471.503387,491.301666 471.249878,490.956116 
	C471.372986,490.865936 471.496094,490.775726 471.619202,490.685547 
	C471.732666,490.965881 471.846161,491.246246 471.974579,491.768768 
	C471.989532,492.010925 471.999512,492.000488 472.004974,491.996613 
z"/>
<path fill="#161616" opacity="1.000000" stroke="none" 
	d="
M260.458344,200.450165 
	C260.516907,200.414825 260.399780,200.485504 260.458344,200.450165 
z"/>
<path fill="#171717" opacity="1.000000" stroke="none" 
	d="
M326.999390,148.000305 
	C327.123932,148.149582 327.249115,148.298553 327.374298,148.447510 
	C327.282715,148.396500 327.191101,148.345505 327.050049,148.146942 
	C327.000549,147.999390 327.000000,148.000000 326.999390,148.000305 
z"/>
<path fill="#111111" opacity="1.000000" stroke="none" 
	d="
M484.446472,522.534058 
	C484.410522,522.476013 484.482391,522.592163 484.446472,522.534058 
z"/>
<path fill="#111111" opacity="1.000000" stroke="none" 
	d="
M482.555573,523.460083 
	C482.592865,523.520874 482.518280,523.399292 482.555573,523.460083 
z"/>
<path fill="#1B1B1B" opacity="1.000000" stroke="none" 
	d="
M668.541992,354.576904 
	C668.480225,354.618713 668.603821,354.535126 668.541992,354.576904 
z"/>
<path fill="#111111" opacity="1.000000" stroke="none" 
	d="
M492.552734,519.467529 
	C492.587646,519.525757 492.517822,519.409302 492.552734,519.467529 
z"/>
<path fill="#181818" opacity="1.000000" stroke="none" 
	d="
M155.807205,261.089539 
	C155.502716,266.886444 154.989990,272.773651 160.934204,276.290680 
	C163.362259,277.727234 166.422211,278.095825 169.601547,279.016724 
	C169.089127,282.274689 166.936371,282.245483 164.688904,280.815674 
	C160.834549,278.363678 155.013412,278.447571 153.717300,272.659271 
	C153.388397,271.190521 153.598633,269.600983 153.280624,268.033539 
	C153.000122,268.000122 153.004456,268.006866 153.004456,268.006866 
	C153.805893,265.699951 150.999939,262.149658 155.807205,261.089539 
z"/>
<path fill="#181818" opacity="1.000000" stroke="none" 
	d="
M191.884644,436.891327 
	C192.253174,433.641937 192.675934,430.730194 193.137726,427.391937 
	C197.006744,423.518219 196.241730,428.108185 196.544586,429.242859 
	C196.865997,430.447052 195.909012,431.992523 195.319214,434.058197 
	C197.350922,433.923584 198.945694,433.817902 200.501831,433.714813 
	C199.190292,437.692474 195.443039,439.248047 191.884644,436.891327 
z"/>
<path fill="#1B1B1B" opacity="1.000000" stroke="none" 
	d="
M273.348022,469.493774 
	C273.359772,465.819672 273.509308,462.530396 273.452850,458.849945 
	C274.498047,459.170288 276.869415,459.985535 276.814728,460.576019 
	C276.507874,463.888306 279.817383,468.736603 273.348022,469.493774 
z"/>
<path fill="#212121" opacity="1.000000" stroke="none" 
	d="
M219.407684,149.938553 
	C217.418839,147.904892 215.768524,145.800034 213.965881,143.393890 
	C214.808167,143.070953 215.810989,142.956390 216.796036,143.043213 
	C221.992569,143.501236 222.530762,144.770798 219.407684,149.938553 
z"/>
<path fill="#171717" opacity="1.000000" stroke="none" 
	d="
M195.629883,150.811493 
	C195.950073,152.962418 196.048462,154.951569 196.201523,157.362686 
	C194.841919,157.509308 193.427658,157.233978 192.028458,156.961578 
	C192.651642,150.600861 192.651642,150.600861 195.629883,150.811493 
z"/>
<path fill="#171717" opacity="1.000000" stroke="none" 
	d="
M196.175507,158.170349 
	C198.662216,160.017319 201.089996,162.270767 203.758942,164.761932 
	C199.535416,167.199936 197.337799,165.409500 196.175507,158.170349 
z"/>
<path fill="#111111" opacity="1.000000" stroke="none" 
	d="
M160.014236,94.011162 
	C159.333832,95.424065 158.797501,96.934853 157.925888,98.217857 
	C157.268723,99.185158 156.182205,99.860779 155.286804,100.666229 
	C155.073181,100.306046 154.859573,99.945862 154.645950,99.585678 
	C155.251083,98.115723 155.642670,96.493927 156.540100,95.231812 
	C157.093201,94.453941 158.418015,94.224800 159.698364,93.874756 
	C160.000366,94.000206 160.014236,94.011162 160.014236,94.011162 
z"/>
<path fill="#161616" opacity="1.000000" stroke="none" 
	d="
M209.136414,113.313858 
	C210.086349,112.667625 211.173325,112.334267 212.625122,112.001297 
	C212.387253,113.509323 211.784546,115.016953 210.995773,116.990051 
	C210.349258,115.727562 209.811340,114.677147 209.136414,113.313858 
z"/>
<path fill="#1B1B1B" opacity="1.000000" stroke="none" 
	d="
M271.919006,455.870056 
	C271.286865,455.931458 270.689667,455.607300 269.921600,455.088196 
	C270.150360,454.440918 270.550049,453.988525 270.949707,453.536163 
	C271.284454,454.185608 271.619232,454.835022 271.919006,455.870056 
z"/>
<path fill="#181818" opacity="1.000000" stroke="none" 
	d="
M150.441406,275.571472 
	C150.709625,276.112671 150.786118,276.466248 150.862610,276.819855 
	C150.412018,276.712372 149.697617,276.733002 149.569427,276.468964 
	C149.347885,276.012695 149.490204,275.379761 149.479889,274.820923 
	C149.630203,274.883026 149.798431,274.920715 149.925812,275.014099 
	C150.054794,275.108673 150.143372,275.258362 150.441406,275.571472 
z"/>
<path fill="#1B1B1B" opacity="1.000000" stroke="none" 
	d="
M295.995178,409.995117 
	C295.866638,410.876526 295.742493,411.762360 295.618317,412.648224 
	C295.339020,412.593536 295.059692,412.538879 294.780365,412.484222 
	C295.024384,411.763062 295.268402,411.041931 295.760437,410.163147 
	C296.008453,410.005554 295.999542,409.999573 295.995178,409.995117 
z"/>
<path fill="#181818" opacity="1.000000" stroke="none" 
	d="
M152.998596,267.997864 
	C152.393463,268.007721 151.789871,268.019867 151.186279,268.031982 
	C151.281448,267.622009 151.376602,267.212006 151.471771,266.802032 
	C151.826263,267.112579 152.180756,267.423096 152.769867,267.870239 
	C153.004456,268.006866 153.000122,268.000122 152.998596,267.997864 
z"/>
<path fill="#1B1B1B" opacity="1.000000" stroke="none" 
	d="
M321.552673,415.250549 
	C321.132843,415.117157 320.862823,414.829437 320.592773,414.541687 
	C320.706543,414.453613 320.904175,414.274933 320.921539,414.291046 
	C321.195587,414.544647 321.446381,414.823303 321.552673,415.250549 
z"/>
<path fill="#161616" opacity="1.000000" stroke="none" 
	d="
M214.267975,108.960136 
	C214.002625,108.531181 214.001999,108.091827 214.001923,107.322533 
	C214.179199,107.644966 214.355957,108.297356 214.267975,108.960136 
z"/>
<path fill="#161616" opacity="1.000000" stroke="none" 
	d="
M56.010483,295.993134 
	C56.316051,296.653229 56.609119,297.322327 56.902191,297.991425 
	C56.688351,298.060272 56.474510,298.129089 56.260670,298.197937 
	C56.168041,297.671478 56.075413,297.145020 55.979221,296.321228 
	C55.975655,296.023895 55.997990,296.002136 56.010483,295.993134 
z"/>
<path fill="#171717" opacity="1.000000" stroke="none" 
	d="
M189.361923,156.257492 
	C189.377792,155.998871 189.516129,155.857925 189.654449,155.716980 
	C189.597763,155.936386 189.541077,156.155777 189.361923,156.257492 
z"/>
<path fill="#161616" opacity="1.000000" stroke="none" 
	d="
M208.460754,116.442963 
	C208.520020,116.407326 208.401505,116.478600 208.460754,116.442963 
z"/>
<path fill="#1B1B1B" opacity="1.000000" stroke="none" 
	d="
M280.457947,404.434753 
	C280.523773,404.393250 280.392090,404.476257 280.457947,404.434753 
z"/>
<path fill="#1B1B1B" opacity="1.000000" stroke="none" 
	d="
M288.561401,406.467285 
	C288.601044,406.529144 288.521729,406.405426 288.561401,406.467285 
z"/>
<path fill="#161616" opacity="1.000000" stroke="none" 
	d="
M58.538975,299.556519 
	C58.476551,299.594391 58.601398,299.518646 58.538975,299.556519 
z"/>
<path fill="#1B1B1B" opacity="1.000000" stroke="none" 
	d="
M418.997620,42.996952 
	C418.903778,43.032841 418.812317,43.071758 418.863342,43.057621 
	C419.005859,43.004570 419.000000,42.999981 418.997620,42.996952 
z"/>
<path fill="#1B1B1B" opacity="1.000000" stroke="none" 
	d="
M408.548035,41.457031 
	C408.582581,41.514751 408.513458,41.399307 408.548035,41.457031 
z"/>
<path fill="#171717" opacity="1.000000" stroke="none" 
	d="
M189.446472,153.542053 
	C189.407959,153.479980 189.484970,153.604111 189.446472,153.542053 
z"/>
<path fill="#111111" opacity="1.000000" stroke="none" 
	d="
M151.534882,97.549393 
	C151.480026,97.581749 151.589737,97.517036 151.534882,97.549393 
z"/>
<path fill="#111111" opacity="1.000000" stroke="none" 
	d="
M159.994995,93.993507 
	C160.091232,93.957512 160.192841,93.928215 160.154327,93.955048 
	C160.014236,94.011162 160.000366,94.000206 159.994995,93.993507 
z"/>
<path fill="#141414" opacity="1.000000" stroke="none" 
	d="
M87.562256,390.465515 
	C87.602379,390.529907 87.522125,390.401154 87.562256,390.465515 
z"/>
<path fill="#161616" opacity="1.000000" stroke="none" 
	d="
M182.534485,63.547478 
	C182.481491,63.578266 182.587479,63.516693 182.534485,63.547478 
z"/>
<path fill="#171717" opacity="1.000000" stroke="none" 
	d="
M615.000732,137.999451 
	C614.877014,137.856339 614.752502,137.713760 614.628052,137.571198 
	C614.714783,137.621246 614.801453,137.671295 614.943665,137.861420 
	C614.999146,138.001495 615.000000,138.000000 615.000732,137.999451 
z"/>
<path fill="#171717" opacity="1.000000" stroke="none" 
	d="
M613.554199,139.460754 
	C613.590027,139.520828 613.518372,139.400681 613.554199,139.460754 
z"/>
<path fill="#171717" opacity="1.000000" stroke="none" 
	d="
M611.223633,150.468536 
	C611.006592,150.311737 610.813354,150.096100 610.620056,149.880463 
	C610.820312,149.909012 611.020569,149.937576 611.297607,150.187408 
	C611.374390,150.408707 611.247437,150.409683 611.223633,150.468536 
z"/>
<path fill="#181818" opacity="1.000000" stroke="none" 
	d="
M470.864197,75.843658 
	C471.248077,75.763084 471.481445,75.835068 471.714783,75.907059 
	C471.455170,76.169083 471.195557,76.431091 470.935913,76.693100 
	C470.861816,76.460793 470.787720,76.228500 470.864197,75.843658 
z"/>
<path fill="#1B1B1B" opacity="1.000000" stroke="none" 
	d="
M652.996155,172.003662 
	C653.445618,172.155289 653.898926,172.303253 654.352234,172.451218 
	C654.218750,172.730148 654.085266,173.009064 653.951782,173.287979 
	C653.647400,173.026123 653.343079,172.764267 653.022949,172.247421 
	C653.007202,171.992447 653.000000,172.000000 652.996155,172.003662 
z"/>
<path fill="#030303" opacity="1.000000" stroke="none" 
	d="
M545.992676,96.994133 
	C544.274780,94.438782 542.652466,91.811783 540.808105,89.351234 
	C539.387939,87.456612 537.688599,85.771240 536.113403,83.992821 
	C536.480652,83.680977 536.847839,83.369125 537.215027,83.057281 
	C538.022217,83.195389 538.829407,83.333496 539.740967,83.489471 
	C539.402283,81.386322 539.119629,79.631279 538.722656,77.166061 
	C540.863281,77.992760 542.225891,78.518990 542.948486,78.798058 
	C542.948486,77.199631 542.336365,75.219826 543.066467,74.237144 
	C545.037415,71.584152 550.378845,71.299866 552.526550,73.246689 
	C554.297302,74.851799 556.136292,76.381599 558.391479,78.330635 
	C557.455139,79.817169 556.180542,81.840744 555.243713,83.328049 
	C555.820251,85.315308 557.270508,88.002914 556.657410,88.611343 
	C554.330627,90.920319 551.336243,92.556503 548.276184,93.612366 
	C547.731262,94.725761 547.186401,95.839157 546.320740,96.976227 
	C546.000000,96.999916 545.992676,96.994133 545.992676,96.994133 
z"/>
<path fill="#030303" opacity="1.000000" stroke="none" 
	d="
M546.002563,97.003281 
	C545.904480,97.036629 545.803955,97.066605 545.848022,97.045357 
	C545.992676,96.994133 546.000000,96.999916 546.002563,97.003281 
z"/>
<path fill="#050505" opacity="1.000000" stroke="none" 
	d="
M187.997879,61.996964 
	C188.349030,61.742558 188.701187,61.489407 189.066269,61.256493 
	C189.072739,61.252365 189.234131,61.491089 189.323242,61.616497 
	C189.046799,61.741852 188.770355,61.867199 188.250580,61.999886 
	C188.007233,62.007217 188.000183,62.000233 187.997879,61.996964 
z"/>
<path fill="#050505" opacity="1.000000" stroke="none" 
	d="
M529.010376,559.989746 
	C529.417175,560.462646 529.846619,560.924683 530.177002,561.449097 
	C530.225891,561.526672 529.806946,561.898926 529.604492,562.134827 
	C529.399780,561.621887 529.195129,561.108887 528.986145,560.306641 
	C528.981812,560.017395 529.000854,559.999084 529.010376,559.989746 
z"/>
<path fill="#050505" opacity="1.000000" stroke="none" 
	d="
M545.016357,533.984314 
	C545.459656,534.106750 545.889221,534.243286 546.318848,534.379761 
	C545.957581,534.399170 545.596252,534.418579 545.107056,534.233887 
	C544.979065,534.029663 545.002686,533.998413 545.016357,533.984314 
z"/>
<path fill="#030303" opacity="1.000000" stroke="none" 
	d="
M418.033295,96.033569 
	C416.359436,100.409859 407.593079,104.273689 405.543152,101.294167 
	C403.130737,97.787727 401.796295,93.539658 399.994415,89.613190 
	C400.524536,89.318039 401.054688,89.022881 401.584808,88.727730 
	C402.566711,89.953972 403.548615,91.180222 404.800537,92.743675 
	C406.574493,89.602058 403.206543,84.779709 408.063446,83.262329 
	C408.828247,83.023392 409.953705,83.938705 410.727783,84.871735 
	C412.364288,86.279114 414.185455,87.135078 416.061188,88.123535 
	C416.195007,88.305634 416.274200,88.355232 416.353424,88.404831 
	C416.232666,88.272141 416.111877,88.139442 415.924744,87.653801 
	C414.238495,86.533707 412.618622,85.766556 410.998779,84.999405 
	C413.089630,84.999405 415.180511,84.999405 418.129974,84.999405 
	C417.886780,88.872627 417.676575,92.220116 417.734253,95.784882 
	C418.002106,96.002159 418.033295,96.033569 418.033295,96.033569 
z"/>
<path fill="#030303" opacity="1.000000" stroke="none" 
	d="
M417.986572,95.986504 
	C418.227539,95.524551 418.484070,95.078255 418.740601,94.631958 
	C418.945068,94.817513 419.149536,95.003059 419.354034,95.188599 
	C419.085999,95.458229 418.817963,95.727867 418.291626,96.015533 
	C418.033295,96.033569 418.002106,96.002159 417.986572,95.986504 
z"/>
<path fill="#050505" opacity="1.000000" stroke="none" 
	d="
M528.539307,186.553635 
	C528.477966,186.592361 528.600647,186.514908 528.539307,186.553635 
z"/>
<path fill="#1B1B1B" opacity="1.000000" stroke="none" 
	d="
M410.999390,84.999702 
	C412.618622,85.766556 414.238495,86.533707 415.929169,87.650429 
	C416.000000,88.000000 416.006592,87.991043 416.006592,87.991043 
	C414.185455,87.135078 412.364288,86.279114 410.771851,85.211769 
	C411.000519,85.000389 411.000000,85.000000 410.999390,84.999702 
z"/>
<path fill="#1B1B1B" opacity="1.000000" stroke="none" 
	d="
M415.995544,88.003372 
	C416.111877,88.139442 416.232666,88.272141 416.353424,88.404831 
	C416.274200,88.355232 416.195007,88.305634 416.061188,88.123535 
	C416.006592,87.991043 416.000000,88.000000 415.995544,88.003372 
z"/>
</svg>