<svg version="1.1" id="Layer_1" xmlns="http://www.w3.org/2000/svg" xmlns:xlink="http://www.w3.org/1999/xlink" x="0px" y="0px"
	 width="1024px" height="1024px"  viewBox="0 0 672 672" enable-background="new 0 0 672 672" xml:space="preserve">
<path fill="#000000" opacity="1.000000" stroke="none" 
	d="
M367.893127,607.883545 
	C381.936554,594.739990 393.421173,579.952026 404.578308,564.771667 
	C414.767609,550.908142 423.136841,536.114014 430.507812,520.682800 
	C433.137695,515.177124 436.025696,509.547516 433.620087,503.073364 
	C433.168030,501.856750 432.940887,500.479950 430.791870,499.878937 
	C427.979736,507.285767 422.935272,513.439514 418.549896,520.013550 
	C409.430359,533.684753 400.689789,548.032776 388.152069,558.583984 
	C372.932129,571.392517 356.723297,583.144165 337.953461,590.946777 
	C318.816620,598.901978 298.963654,604.152527 278.783875,608.083252 
	C264.017670,610.959534 249.130524,613.572571 233.906403,613.579834 
	C228.827911,613.582214 223.669022,614.450195 218.513245,614.345459 
	C216.332672,614.301147 213.671677,614.185791 213.152710,611.807739 
	C212.595200,609.253113 215.602844,609.526917 217.069290,608.921631 
	C233.835114,602.002075 250.543396,594.964172 266.622070,586.530762 
	C269.092499,585.234985 271.456696,583.736694 273.786774,581.919067 
	C218.209625,594.466736 164.014893,591.434021 111.326721,568.599976 
	C195.603149,566.523499 275.191376,549.047668 344.396301,497.098450 
	C344.695068,497.663879 344.993835,498.229309 345.292633,498.794769 
	C340.303680,505.591797 335.442230,512.487366 330.290588,519.158752 
	C324.919800,526.114075 317.726074,531.316040 311.787842,537.717407 
	C306.107086,543.841125 298.107727,547.109741 291.830078,553.564392 
	C295.810059,555.319458 298.572937,553.727234 301.176453,552.817383 
	C323.789032,544.914368 343.424103,532.165344 360.879059,515.873474 
	C377.400818,500.452759 391.557983,483.101929 402.250549,463.218597 
	C405.230713,457.676849 408.536896,451.954498 409.798615,445.483673 
	C410.182404,443.515320 410.244873,441.124969 412.989197,439.319397 
	C415.117462,461.223358 408.749634,481.129822 402.012787,501.218903 
	C405.214661,500.535309 406.744934,498.561371 408.089691,496.171753 
	C412.315613,488.662598 417.355408,481.666168 421.165161,473.861847 
	C426.515564,462.901581 429.563721,451.151306 433.850128,439.834869 
	C435.307983,435.985992 435.753479,431.734253 436.334473,427.718811 
	C438.108276,415.458862 441.493073,403.421570 441.690094,390.936951 
	C441.706451,389.901154 441.974213,388.953369 443.928345,388.074799 
	C458.524902,415.954895 463.365753,446.023804 463.383759,476.969025 
	C466.331512,477.087738 466.345398,475.732025 466.700134,474.384399 
	C470.972107,458.154053 474.221802,441.855286 474.925049,424.932648 
	C475.485565,411.445374 471.803345,398.748688 470.441589,385.657959 
	C468.925079,371.079254 462.102448,358.129211 458.771973,344.140991 
	C458.542267,343.176208 458.212585,342.233856 458.015076,341.263641 
	C457.961487,341.000305 458.221344,340.673126 458.633667,339.614410 
	C470.373169,344.781891 477.700714,354.916077 487.010315,364.171295 
	C484.190552,353.211426 477.691101,345.397003 471.900726,337.272278 
	C458.460510,318.413605 440.178833,305.160889 419.980042,294.631104 
	C401.853302,285.181549 382.243835,281.091034 361.756622,282.527924 
	C353.854218,283.082123 345.841217,283.696259 338.435547,287.172516 
	C337.067627,287.814636 335.586731,288.075409 334.806183,290.022247 
	C337.095215,291.453766 339.575531,291.766174 342.248077,291.510559 
	C349.282257,290.837921 356.076111,291.523041 362.103699,295.624176 
	C364.569031,297.301575 367.309875,296.215790 369.873840,296.740173 
	C384.733704,299.779480 396.930267,307.875671 407.180389,318.403503 
	C416.519958,327.996124 422.023499,340.132141 424.720306,353.462341 
	C419.444946,350.540863 418.656860,343.603516 411.999298,339.677063 
	C414.959778,356.120728 418.476990,371.279999 414.362915,386.671326 
	C408.784882,357.274902 398.066376,331.691315 369.802094,316.573792 
	C368.571472,319.476379 369.977722,320.443420 370.878693,321.512665 
	C382.161621,334.902344 385.286407,350.243042 381.911041,367.172241 
	C379.999603,376.759094 378.757385,386.537109 376.032928,395.884857 
	C374.064850,402.637238 370.601624,409.086060 367.016083,415.208130 
	C358.761475,429.302643 348.737671,442.159332 337.297577,453.802643 
	C324.417328,466.911682 309.802582,478.120209 293.340424,486.063263 
	C279.814880,492.589386 265.537537,498.251373 250.773224,501.257935 
	C241.184875,503.210449 231.403687,505.263824 221.392746,505.370544 
	C215.299179,505.435547 209.562149,503.834137 203.641754,503.182343 
	C202.176163,503.020996 200.748734,502.298035 198.786530,504.189331 
	C219.503448,515.648376 241.945435,515.619446 264.391724,516.372803 
	C258.815582,519.509766 252.924454,521.404175 246.869522,522.458130 
	C232.152634,525.019897 217.108032,525.306580 202.423279,527.663269 
	C177.679062,531.634399 154.468201,526.127380 131.741760,518.038330 
	C112.575897,511.216583 95.493523,500.163940 79.276237,487.852203 
	C71.260452,481.766846 64.141930,474.723236 56.808170,467.898865 
	C56.489025,467.601868 56.436867,467.017914 55.936977,465.742950 
	C73.324089,472.116882 90.678238,468.334839 107.973351,469.101105 
	C103.670776,462.736908 97.361221,459.292603 92.014992,454.771149 
	C77.834351,442.778107 62.879276,431.624176 50.619366,417.550964 
	C44.998562,411.098877 40.394356,403.732971 34.963074,397.152985 
	C29.785769,390.880676 26.900236,383.595551 23.100643,376.709412 
	C22.366772,375.379395 21.440887,373.801331 22.014597,370.904877 
	C33.787594,377.919281 43.992226,386.649384 55.921192,392.450531 
	C67.964287,398.307190 80.165939,403.837769 92.872139,409.066376 
	C58.183426,374.677124 43.099640,332.800171 43.813694,284.590393 
	C55.099243,316.114014 75.826218,340.521088 101.367424,362.176910 
	C66.968803,315.069916 61.572693,262.742126 69.794548,207.375214 
	C74.150299,208.953690 73.535683,212.234573 74.235138,215.208908 
	C75.751785,221.658279 77.845062,227.980896 79.885445,234.296265 
	C83.150475,244.402130 86.586197,254.472427 91.205521,264.042999 
	C95.958412,273.890259 102.699883,282.468414 109.431480,291.129578 
	C110.149162,285.943787 108.005394,281.462708 106.706085,276.851776 
	C102.017143,260.211823 98.061005,243.325058 98.221130,226.041946 
	C98.312752,216.152451 98.312973,206.173019 99.284462,196.222244 
	C101.038124,178.259735 105.055809,160.891602 110.621674,143.802124 
	C113.255081,135.716492 116.348495,127.884415 121.506287,120.990494 
	C122.582047,119.552620 123.438835,118.329994 125.890335,118.867950 
	C123.750259,133.779755 122.811981,148.771118 123.709869,165.154327 
	C129.148926,158.460846 131.118866,151.497513 134.693344,145.427231 
	C143.299271,130.812378 151.794846,116.040161 162.826355,103.191429 
	C171.102997,93.551392 180.660492,84.877914 191.438858,77.832024 
	C193.598038,76.420555 195.820953,74.973038 200.232544,75.136810 
	C189.760101,82.340942 184.583801,92.106819 178.663208,101.217972 
	C172.758667,110.304443 167.612183,119.848320 164.691635,130.600677 
	C184.074280,111.158005 203.824783,92.327011 227.973846,79.204117 
	C251.805557,66.253662 275.978119,53.752747 304.293427,52.226227 
	C304.068634,55.195988 302.479858,55.725117 301.009094,56.432556 
	C284.972534,64.146271 271.084198,74.846512 258.050446,86.851273 
	C248.385452,95.753197 238.390488,104.328545 230.337494,114.772133 
	C213.974106,135.993057 198.457993,157.796661 188.565613,182.955292 
	C186.219757,188.921371 184.322586,195.298325 183.659668,201.636963 
	C182.655334,211.240173 177.753738,219.404037 175.259781,228.418076 
	C173.532013,234.662842 172.315948,240.893646 172.238297,248.782166 
	C176.050095,244.213287 177.577637,239.843765 179.445145,235.801926 
	C187.670944,217.998856 198.934006,202.355957 211.935852,187.755722 
	C229.035004,168.554428 250.713623,156.002930 273.385529,145.054657 
	C282.903076,140.458633 293.321320,137.709396 303.369873,134.235703 
	C318.247284,129.092712 333.024872,123.697067 348.228546,119.473503 
	C360.714539,116.004913 373.317688,113.286743 386.122528,111.752945 
	C403.062988,109.723763 420.058350,107.760986 437.085663,106.977829 
	C449.610382,106.401772 462.212555,107.869278 474.535950,110.739685 
	C475.394409,110.939644 476.088959,111.279526 476.576294,112.754570 
	C467.645233,114.963913 458.839081,117.535408 449.871094,119.270935 
	C435.563965,122.039719 420.961792,123.642105 407.192444,128.562714 
	C393.290771,133.530594 379.049347,137.776352 366.107544,145.150177 
	C364.900116,145.838120 363.277008,146.396835 363.403137,148.911255 
	C368.766602,147.869247 374.079224,147.071045 379.266785,145.772995 
	C386.558990,143.948318 393.932343,142.814880 401.419220,142.698257 
	C409.572021,142.571228 417.658569,141.003235 425.836945,141.664291 
	C443.356201,143.080307 460.632599,145.593216 477.712830,150.118881 
	C493.676941,154.348816 509.003296,160.258896 523.875610,167.010391 
	C540.321228,174.476120 556.307678,183.176361 571.017822,193.863510 
	C573.272400,195.501511 576.925171,195.700455 577.588684,199.791687 
	C569.613770,198.636276 562.677185,194.968109 555.489807,192.251175 
	C542.983276,187.523438 530.049805,185.116623 516.883057,183.266022 
	C505.223938,181.627335 493.556610,180.412567 481.809998,179.768845 
	C462.477264,178.709457 443.226013,175.227966 423.782898,179.936203 
	C418.590393,181.193604 412.694855,181.690216 407.012543,180.524796 
	C403.166870,179.736099 399.408447,182.366592 394.742401,181.509384 
	C415.337585,170.395935 437.695190,169.247513 459.608917,166.411987 
	C459.033936,162.787003 456.761688,162.854355 455.226349,162.534515 
	C440.611542,159.489914 425.769836,158.990265 411.182770,161.663788 
	C399.143402,163.870377 386.940155,164.995270 374.995392,168.019180 
	C360.486908,171.692093 347.170990,177.798401 334.205200,184.954987 
	C329.488800,187.558258 324.802765,190.216568 319.837982,192.470078 
	C323.604797,185.042450 331.589569,181.849228 336.172333,175.247910 
	C305.063568,186.261337 282.061249,207.198837 263.191956,233.982651 
	C263.541199,232.159897 263.614502,230.228485 264.282806,228.531372 
	C270.288422,213.280151 278.629944,199.492020 288.964355,186.684204 
	C298.418060,174.967850 310.340088,165.817413 320.240662,154.631165 
	C321.101318,153.658768 322.346405,152.941574 322.086395,150.046341 
	C281.550110,170.116898 255.018097,202.516022 234.904633,241.419449 
	C232.611526,239.120911 234.371902,236.898315 234.834000,234.612335 
	C235.309158,232.261780 235.371170,229.827728 235.230148,227.333298 
	C231.028122,232.648026 230.331039,239.084595 229.128036,245.439056 
	C227.892807,251.963821 227.220200,258.515564 227.256012,265.783417 
	C222.001358,262.103546 221.196121,256.784515 220.951126,252.111069 
	C220.079147,235.477600 221.184250,218.932755 225.772720,202.778305 
	C226.561417,200.001617 228.590683,197.554810 228.318176,194.311600 
	C220.653061,197.031677 208.823608,219.848099 202.754471,244.540161 
	C198.150955,263.269318 197.399017,282.261292 200.673904,301.521576 
	C193.835480,290.654388 188.927704,279.131226 184.571320,267.175201 
	C183.307968,282.999481 181.035522,298.824738 189.755768,313.397247 
	C188.668076,315.051910 186.821777,313.511047 185.036850,314.977692 
	C195.402649,329.659180 209.705765,340.764801 222.552628,355.089783 
	C212.576889,354.037537 205.472885,349.195404 197.328369,347.044159 
	C207.706467,359.574738 220.766113,368.823486 233.963760,378.112366 
	C228.184082,378.177582 223.033386,376.248962 218.122253,373.894745 
	C203.607620,366.936951 191.014130,357.326141 179.898468,345.695679 
	C165.108231,330.220459 152.595871,313.410431 143.938293,293.506317 
	C139.042740,282.251190 135.045746,270.853027 132.074188,258.708649 
	C126.989380,263.237305 127.181122,282.249939 132.264252,300.699219 
	C136.049652,314.438354 139.447998,328.360321 147.481064,340.785431 
	C135.929214,329.993164 122.254837,322.142181 111.996475,309.476807 
	C109.398720,334.026031 155.878555,387.341156 186.718613,396.234070 
	C183.266617,397.810516 172.215302,397.468262 161.795959,394.971619 
	C153.590530,393.005463 145.407471,390.981873 137.575409,387.572754 
	C129.754959,384.168671 121.578377,381.582733 113.295319,379.452667 
	C151.030289,415.673523 196.533005,427.323395 247.770798,421.200409 
	C230.724121,428.524811 212.556152,431.657684 194.054672,437.960358 
	C199.570221,440.458191 204.428314,440.108582 208.967712,440.419128 
	C227.052277,441.656494 244.729904,439.134033 261.954315,433.475708 
	C262.270264,433.371887 262.605743,433.283630 262.882019,433.108948 
	C276.655457,424.396912 292.640015,420.065460 306.260681,410.935089 
	C312.961395,406.443359 320.035431,402.437469 327.248077,397.268799 
	C329.503723,406.400177 320.763641,411.218842 320.418121,418.727081 
	C343.230225,413.140656 370.512085,364.029663 362.111023,342.290497 
	C357.756775,351.589905 354.388855,360.516113 347.125641,367.409210 
	C339.907318,374.259705 331.410767,378.351227 322.319794,382.125183 
	C325.554474,376.191956 331.673706,372.329163 334.466736,365.676666 
	C319.062286,374.127594 303.445099,378.348999 285.638031,376.815857 
	C268.445099,375.335602 252.789642,371.880524 239.341736,360.735046 
	C258.771179,367.118256 277.928497,369.243561 297.782501,359.885437 
	C294.458008,355.987488 290.214142,357.174927 286.857635,356.561890 
	C272.162964,353.878021 258.083160,349.120880 247.706039,338.419464 
	C236.260284,326.616028 228.630081,312.106354 226.676834,295.277252 
	C226.124573,290.518921 225.167969,285.766632 225.964111,279.717102 
	C235.366119,294.731628 241.625519,310.919678 256.249451,321.768616 
	C243.463867,284.218689 257.413177,255.357361 283.419159,230.253784 
	C283.854797,230.401138 284.290405,230.548477 284.726013,230.695831 
	C282.233948,236.874008 279.555054,242.984985 277.301697,249.249054 
	C274.996552,255.656937 274.432587,262.390778 274.566254,269.325867 
	C292.805206,233.949814 320.747711,209.668091 357.495087,195.273331 
	C349.348267,202.777405 339.325256,208.264587 333.434113,218.877930 
	C394.691528,190.762070 457.453400,186.959717 522.017151,205.256104 
	C587.905273,223.927826 634.416016,266.591888 670.778259,322.397186 
	C666.833069,321.744781 663.933472,319.519073 661.426575,316.779327 
	C659.041077,314.172363 656.373779,312.006165 653.230835,310.371460 
	C648.049438,307.676575 645.022339,302.447662 639.989319,299.395294 
	C627.522095,291.834229 615.597656,283.270966 602.290466,277.250916 
	C578.554932,266.513092 554.597717,256.261871 530.668152,245.958298 
	C522.592407,242.481033 505.116455,240.600586 499.641632,242.220917 
	C499.513397,244.634888 501.327423,245.030487 503.066528,245.681396 
	C527.921021,254.983871 551.414368,266.969666 572.607666,282.965424 
	C590.816589,296.708710 607.281494,312.507294 623.025024,329.009613 
	C625.484558,331.587708 627.181580,334.893250 629.959412,338.917389 
	C622.158691,337.883575 618.383850,331.887085 612.784973,329.399933 
	C611.183228,331.560608 613.096313,332.368195 613.967407,333.234894 
	C629.504883,348.693848 641.182922,366.672119 649.423645,386.950531 
	C650.296875,389.099274 650.780640,390.939911 648.773193,393.599426 
	C644.634460,388.718170 640.110962,384.696686 634.801636,381.815399 
	C629.845398,379.125763 625.984985,374.409119 618.740356,372.522888 
	C633.072327,401.038055 634.507141,431.043671 638.917786,460.701660 
	C635.019470,453.703552 631.197205,446.661621 627.201904,439.719330 
	C623.038635,432.485138 617.864807,425.946136 612.400513,419.683533 
	C606.985779,413.477661 601.784302,406.919403 593.130005,402.925903 
	C607.720154,440.883331 609.933105,479.480560 606.082581,518.949097 
	C596.792908,499.026031 588.485840,478.668182 575.240479,460.712585 
	C577.359741,491.966187 572.241943,521.380798 557.129150,548.749878 
	C555.105286,532.319519 556.950745,515.621887 552.199524,499.524719 
	C547.427551,517.840393 541.783325,535.760742 532.748596,552.578003 
	C523.675537,569.466797 512.001770,583.985352 497.440094,596.391602 
	C495.864929,594.663940 497.132080,593.575195 497.683350,592.528320 
	C507.238007,574.385559 513.643494,554.978943 520.412415,535.729370 
	C525.604431,520.963928 528.430603,505.637817 530.218079,490.129150 
	C530.897644,484.232239 531.084900,478.277832 531.459717,472.347321 
	C531.508911,471.567352 530.790649,470.470245 531.647949,470.053711 
	C537.517700,467.201599 534.913208,461.938293 534.363953,458.089264 
	C532.848145,447.467072 532.326172,436.675293 528.921814,426.308685 
	C525.398132,415.578796 521.613037,404.969574 517.145508,394.608307 
	C514.910828,389.425537 512.490967,384.315460 509.952881,379.274200 
	C508.957733,377.297607 507.773773,375.190308 504.564880,374.468658 
	C513.323486,413.822937 515.746765,452.720245 504.539337,491.544281 
	C504.275787,492.457214 503.844299,493.474854 502.328064,493.438416 
	C499.833679,480.739288 498.819458,467.682495 494.345703,455.379852 
	C494.037170,454.531403 493.081299,453.918335 491.607300,452.291962 
	C487.963043,473.040009 485.981354,493.117493 478.367462,512.189758 
	C470.730255,531.320435 459.979614,548.314148 448.155731,565.063232 
	C452.850616,554.470215 449.361328,543.184143 451.806519,532.273743 
	C438.812958,560.614563 423.078430,586.573486 398.530975,606.307739 
	C374.591003,625.553528 348.032745,639.638916 318.698151,648.570068 
	C336.592590,636.913147 352.163849,622.583435 367.893127,607.883545 
M391.512756,224.351151 
	C379.986511,225.685059 369.407806,230.167938 358.802185,234.431641 
	C344.368683,240.234207 331.295044,248.139557 319.891083,258.972961 
	C310.467377,267.925201 303.773407,278.768951 296.683380,289.383362 
	C295.835571,290.652649 294.099091,292.891327 296.908081,294.413147 
	C298.888031,293.944916 299.347046,292.148468 300.343018,290.896027 
	C306.272217,283.439972 313.185883,276.919098 320.974060,271.574890 
	C332.648865,263.563751 346.052277,259.650513 359.773407,256.605316 
	C370.186584,254.294296 380.805389,254.042450 391.315247,252.744125 
	C402.475128,251.365479 413.552643,253.005524 424.723145,254.548691 
	C416.022949,257.822937 405.690460,256.725464 398.257385,263.736603 
	C399.747162,265.797272 401.153900,265.542908 402.459137,265.648773 
	C418.226746,266.927002 433.860779,268.699951 447.773346,277.262390 
	C450.063843,278.672028 452.729858,279.696655 455.341217,279.591736 
	C459.689575,279.417023 463.373688,280.913208 467.179962,282.645111 
	C485.920319,291.172180 504.551788,299.804718 521.133240,312.337219 
	C525.595886,315.710144 529.527954,320.070465 535.410706,321.649048 
	C520.785767,302.539948 504.957611,284.697876 484.389648,271.214935 
	C504.692505,274.595215 524.180969,279.573090 542.693970,288.217926 
	C522.495911,271.994049 501.829895,257.140076 477.847168,246.508514 
	C453.373077,235.659180 428.295441,234.583099 402.391541,235.053726 
	C419.676819,227.725159 438.359283,227.581436 456.213684,223.305466 
	C434.856964,219.223389 413.580994,219.107697 391.512756,224.351151 
z"/>
<path fill="#000000" opacity="1.000000" stroke="none" 
	d="
M540.142883,158.038910 
	C518.496887,146.247955 496.280273,137.155151 471.876770,134.176743 
	C494.957611,125.336510 572.310608,139.190781 598.739014,156.708130 
	C595.819336,156.571960 593.688843,156.478729 591.559082,156.372269 
	C580.428345,155.815887 569.334534,156.785568 558.341736,158.127075 
	C554.452148,158.601730 550.525024,158.961899 546.632385,159.490479 
	C544.305603,159.806442 542.401184,159.241882 540.142883,158.038910 
z"/>
<path fill="#000000" opacity="1.000000" stroke="none" 
	d="
M277.043823,108.940018 
	C292.268707,103.469856 307.760132,101.560242 323.353607,99.917709 
	C290.477051,114.460480 259.480957,131.988007 230.656204,153.914261 
	C229.555908,151.384384 231.127457,150.052994 232.011124,148.716965 
	C239.515884,137.370300 247.339661,126.252144 256.173187,115.880974 
	C259.038422,112.516991 263.523895,113.379990 267.098572,111.774620 
	C270.089569,110.431374 273.465912,109.946129 277.043823,108.940018 
z"/>
</svg>