<?xml version="1.0" encoding="utf-8"?>
<!-- Generator: Adobe Illustrator 16.0.0, SVG Export Plug-In . SVG Version: 6.00 Build 0)  -->
<!DOCTYPE svg PUBLIC "-//W3C//DTD SVG 1.1//EN" "http://www.w3.org/Graphics/SVG/1.1/DTD/svg11.dtd">
<svg version="1.1" id="Layer_1" xmlns="http://www.w3.org/2000/svg" xmlns:xlink="http://www.w3.org/1999/xlink" x="0px" y="0px"
	 width="300px" height="300px" viewBox="0 0 300 300" enable-background="new 0 0 300 300" xml:space="preserve">
<g>
	<path fill-rule="evenodd" clip-rule="evenodd" d="M195.002,114.082c3.079-3.213,5.805-6.328,6.468-10.628
		c0.813-5.273,0.62-10.578-0.143-15.827c-1.161-7.988-0.854-15.835,1.655-23.537c1.319-4.051,4.146-7.069,7.054-10.026
		c6.275-6.38,14.027-9.77,22.698-11.384c4.598-0.856,9.139-2.061,13.761-2.724c5.547-0.794,10.545-2.8,14.822-6.286
		c1.696-1.383,2.868-3.538,3.944-5.522c1.535-2.829,1.936-5.996,2.045-9.199c0.035-1.042-0.138-2.358,1.521-2.476
		c1.604-0.115,2.425,0.995,2.697,2.217c0.953,4.277,1.852,8.577,2.51,12.907c0.949,6.251-0.887,11.89-3.988,17.3
		c-2.72,4.743-6.538,8.591-9.776,12.905c-2.785,3.709-5.873,7.316-7.932,11.417c-3.113,6.204-2.303,12.766,0.186,19.095
		c0.771,1.963,1.813,3.821,3.127,5.604c0.124-2.325,0.164-4.659,0.391-6.974c0.442-4.517,1.722-8.788,4.526-12.421
		c1.341-1.737,3.032-3.199,4.533-4.816c0.735-0.792,1.346-1.705,2.108-2.467c0.693-0.692,1.436-1.471,2.311-1.798
		c0.603-0.225,1.859,0.02,2.133,0.472c0.505,0.835,0.885,2.079,0.646,2.975c-1.347,5.077-2.477,10.229-1.88,15.45
		c0.517,4.518,1.537,9.025,2.804,13.401c3.211,11.092,5.744,22.279,5.35,33.903c-0.459,13.518-4.849,25.465-14.576,35.203
		c-4.66,4.664-10,7.877-16.492,9.485c-3.981,0.986-7.827,2.584-11.978,2.746c-3.441,0.135-6.895,0.024-10.342-0.02
		c-4.606-0.059-9.231-0.447-13.813-0.144c-3.406,0.226-6.777,1.237-10.124,2.06c-4.935,1.213-7.87,4.646-9.215,9.322
		c-1.147,3.989-0.623,7.831,2.348,11.088c0.769,0.842,1.469,0.964,2.203,0.218c1.177-1.193,2.289-2.455,3.364-3.742
		c5.405-6.465,12.135-9.819,20.733-9.525c6.164,0.21,12.23,1.27,18.333,1.68c6.435,0.433,13.138,0.378,18.789-3.83
		c0.997-0.743,1.839-1.861,2.947-2.251c2.192-0.771,3.451,0.6,2.901,2.883c-0.8,3.319-2.668,6.018-4.893,8.53
		c-5.826,6.577-13.309,9.96-21.82,11.33c-4.642,0.747-9.289,1.497-13.958,2.032c-4.529,0.519-8.012,2.901-11.293,5.757
		c-3.964,3.449-6.75,7.837-9.389,12.278c-1.249,2.103-1.886,4.568-2.898,7.117c2.854-1.694,5.26-3.393,7.886-4.62
		c4.414-2.064,9.118-3.089,14.036-2.989c2.563,0.052,5.128,0.001,7.691,0.013c0.698,0.003,1.458-0.096,2.077,0.144
		c0.739,0.285,1.866,0.842,1.907,1.354c0.058,0.733-0.525,1.871-1.173,2.236c-1.592,0.897-3.341,1.568-5.093,2.122
		c-5.68,1.795-10.115,5.534-14.236,9.522c-5.257,5.088-10.022,10.678-15.141,15.914c-6.218,6.359-13.362,11.444-21.937,14.078
		c-3.747,1.151-7.705,1.732-11.612,2.218c-3.312,0.412-6.719,0.655-10.025,0.349c-3.576-0.333-7.106-1.303-10.617-2.158
		c-2.926-0.713-5.803-1.633-8.685-2.517c-3.668-1.124-6.809-3.193-9.764-5.578c-2.574-2.077-5.354-3.945-7.692-6.26
		c-4.75-4.701-7.865-10.454-9.719-16.86c-2.377-8.215-2.356-16.54-0.305-24.76c0.891-3.57,2.506-7.036,4.261-10.297
		c2.461-4.572,5.542-8.81,8.031-13.369c4.22-7.728,5.821-15.996,2.957-24.502c-2.998-8.901-7.643-16.932-14.568-23.468
		c-1.481-1.398-4.717-0.491-5.187,1.476c-2.121,8.877-4.222,17.761-6.34,26.64c-0.202,0.846-0.318,1.77-0.756,2.483
		c-0.386,0.629-1.124,1.314-1.789,1.411c-0.504,0.073-1.175-0.7-1.694-1.18c-0.228-0.211-0.299-0.621-0.379-0.955
		c-1.938-8.02-3.868-16.04-5.794-24.062c-0.108-0.452-0.21-0.912-0.252-1.374c-0.312-3.43-2.254-4.86-5.545-5.872
		c-3.819-1.174-7.341-3.38-10.892-5.324c-1.079-0.59-1.608-0.487-2.562,0.172c-6.108,4.22-12.289,8.335-18.44,12.492
		c-1.446,0.978-2.871,1.986-4.313,2.97c-0.48,0.327-0.954,0.786-1.486,0.888c-0.806,0.154-1.827,0.33-2.444-0.034
		c-0.505-0.298-0.857-1.426-0.736-2.087c0.214-1.166,0.73-2.318,1.31-3.372c4.567-8.3,9.18-16.576,13.813-24.923
		c-2.598-4.189-4.793-8.651-5.858-13.614c-0.096-0.447-0.788-0.966-1.295-1.095c-6.191-1.58-12.392-3.124-18.605-4.613
		c-3.715-0.891-7.47-1.616-11.178-2.532c-1.097-0.271-2.177-0.744-2.102-2.353c0.072-1.553,1.125-1.973,2.229-2.249
		c4.337-1.083,8.696-2.084,13.051-3.095c4.69-1.088,9.345-2.438,14.095-3.123c2.929-0.422,3.683-1.983,4.595-4.373
		c1.375-3.604,3.303-7.011,5.165-10.409c0.568-1.037,0.653-1.703,0.053-2.722c-4.867-8.262-9.674-16.559-14.492-24.85
		c-0.262-0.45-0.644-0.952-0.627-1.417c0.034-0.954,0.026-2.098,0.535-2.804c0.813-1.127,2.039-0.795,3.112-0.081
		c8.178,5.448,16.36,10.891,24.539,16.336c0.844,0.562,1.646,0.97,2.692,0.316c3.9-2.437,8.241-3.734,12.682-4.731
		c0.863-0.194,1.31-0.463,1.542-1.47c2.258-9.781,4.61-19.541,6.943-29.304c0.107-0.451,0.357-0.875,0.421-1.328
		c0.148-1.049,0.788-1.693,1.739-1.422c0.676,0.192,1.543,0.877,1.71,1.506c1.248,4.712,2.333,9.467,3.49,14.203
		c1.364,5.578,2.725,11.157,4.168,16.715c0.119,0.456,0.804,0.951,1.316,1.086c4.505,1.192,8.883,2.677,12.976,4.962
		c0.443,0.248,1.363,0.076,1.842-0.237c7.132-4.669,14.229-9.392,21.331-14.107c1.209-0.803,2.375-1.674,3.61-2.434
		c0.978-0.601,2.055-1.375,3.178-0.366c1.202,1.08,1.253,2.463,0.499,3.804c-3.185,5.665-6.413,11.307-9.625,16.957
		c-1.698,2.987-3.44,5.951-5.047,8.985c-0.24,0.452-0.057,1.397,0.284,1.846c2.753,3.624,4.591,7.685,5.722,12.047
		c0.459,1.772,1.377,2.557,3.119,2.922c6.817,1.433,13.609,2.982,20.41,4.492c2.438,0.542,4.879,1.069,7.307,1.651
		c1.326,0.318,2.717,0.749,2.776,2.421c0.062,1.709-1.175,2.434-2.638,2.767c-5.154,1.171-10.322,2.285-15.474,3.466
		c-4.565,1.046-9.124,2.124-13.663,3.275c-0.502,0.127-1.103,0.782-1.203,1.282c-0.072,0.359,0.527,1.106,0.979,1.278
		c5.055,1.914,10.097,4.04,15.55,4.383c6.671,0.42,13.266,0.067,19.093-3.904c5.906-4.026,7.825-9.792,6.896-16.546
		c-0.396-2.878-1.578-5.662-2.519-8.449c-0.618-1.83-0.128-3.377,1.642-3.876c0.624-0.176,1.479,0.087,2.104,0.399
		c0.655,0.327,1.248,0.882,1.719,1.458c5.634,6.897,9.777,14.446,10.153,23.606C195.152,112.894,195.064,113.347,195.002,114.082z
		 M147.219,255.045c-0.343-0.505-0.683-1.022-1.042-1.527c-1.783-2.509-3.831-4.869-5.308-7.546
		c-4.509-8.171-4.86-16.562,0.381-24.46c2.423-3.651,5.946-6.575,8.993-9.808c2.388-2.535,4.233-5.379,4.705-8.885
		c0.332-2.463,0.365-4.965,0.597-7.443c0.104-1.1,0.243-2.364,1.715-2.44c1.389-0.071,2.075,0.818,2.287,2.143
		c0.185,1.146,0.405,2.288,0.64,3.426c0.895,4.354,2.068,8.671,2.636,13.067c0.677,5.25-0.418,10.278-3.513,14.7
		c-1.096,1.566-2.452,2.948-3.575,4.498c-0.396,0.547-0.823,1.614-0.571,1.962c0.368,0.507,1.327,0.753,2.051,0.789
		c0.786,0.04,1.614-0.216,2.382-0.469c2.728-0.896,5.703-1.411,8.094-2.872c4.286-2.619,6.43-6.86,7.208-11.828
		c0.883-5.64-0.458-10.928-2.083-16.252c-2.031-6.657-4.119-13.298-3.122-20.489c1.018-7.348,4.856-12.636,11.416-15.605
		c7.879-3.566,16.2-3.461,24.611-1.85c5.872,1.124,11.801,2.058,17.747,2.645c2.962,0.292,6.042-0.229,9.029-0.654
		c6.334-0.899,11.964-3.4,16.475-8.048c6.402-6.595,6.746-14.579,5.066-22.973c-0.08-0.402-0.528-0.731-0.971-1.312
		c-1.496,5.578-4.251,10.038-8.059,13.834c-4.627,4.614-10.151,6.86-16.751,5.917c-3.001-0.429-3.748-2.641-1.882-5.239
		c0.395-0.55,0.98-1.011,1.566-1.368c8.957-5.453,13.286-13.452,13.443-23.894c0.148-9.928-2.442-19.062-7.42-27.594
		c-2.143-3.672-3.224-7.668-3.399-11.929c-0.309-7.44,2.609-13.699,7.061-19.378c1.1-1.404,2.359-2.727,3.735-3.854
		c0.899-0.737,1.29-1.354,0.865-2.428c-4.296,0.898-14.147,5.647-17.776,10.417c-4.107,5.397-6.121,11.182-5.504,17.825
		c0.496,5.352,1.562,10.655,1.969,16.011c0.293,3.854,0.342,7.825-0.256,11.625c-0.972,6.178-4.435,11.17-8.689,15.688
		c-6.455,6.852-14.745,9.3-23.701,9.888c-9.328,0.612-18.213-1.984-26.776-5.211c-7.258-2.735-14.169-6.397-21.209-9.701
		c-3.365-1.579-6.809-3.055-9.975-4.978c-4.49-2.726-9.101-5.077-14.172-6.468c-0.452-0.124-0.967-0.017-1.896-0.017
		c0.896,0.989,1.382,1.645,1.983,2.169c3.552,3.092,7.181,6.098,10.689,9.238c6.933,6.208,13.836,12.45,20.685,18.751
		c2.824,2.598,5.511,5.349,8.186,8.104c1.037,1.066,1.61,2.536,0.521,3.787c-0.985,1.133-2.275,0.575-3.494-0.069
		c-7.235-3.823-14.508-7.576-21.752-11.384c-5.2-2.733-10.379-5.508-15.559-8.281c-2.16-1.157-4.297-2.357-6.445-3.537
		c1.278,2.052,2.765,3.76,4.224,5.492c3.669,4.352,7.56,8.542,10.924,13.119c3.841,5.227,7.404,10.686,10.709,16.268
		c2.057,3.474,3.96,7.221,4.967,11.097c2.132,8.21,0.77,16.136-3.57,23.484c-3.182,5.387-6.595,10.647-8.616,16.641
		c-1.57,4.654-2.729,9.291-1.509,14.278c2.32,9.479,7.42,16.819,16.082,21.505c0.573,0.311,1.107,0.366,1.471,1.106
		C144.276,255.827,146.05,255.936,147.219,255.045z"/>
</g>
<g>
</g>
<g>
</g>
<g>
</g>
<g>
</g>
<g>
</g>
<g>
</g>
</svg>
