<?xml version="1.0" encoding="utf-8"?>
<!-- Generator: Adobe Illustrator 16.0.0, SVG Export Plug-In . SVG Version: 6.00 Build 0)  -->
<!DOCTYPE svg PUBLIC "-//W3C//DTD SVG 1.1//EN" "http://www.w3.org/Graphics/SVG/1.1/DTD/svg11.dtd">
<svg version="1.1" id="Layer_1" xmlns="http://www.w3.org/2000/svg" xmlns:xlink="http://www.w3.org/1999/xlink" x="0px" y="0px"
	 width="300px" height="300px" viewBox="0 0 300 300" enable-background="new 0 0 300 300" xml:space="preserve">
<g>
	<path fill-rule="evenodd" clip-rule="evenodd" d="M349.475,347.812c0.492,0.656,0.848,1.132,1.328,1.772
		c-0.51,0.407-1.024,0.818-1.647,1.315c0.238,0.351,0.483,0.71,0.895,1.317c-0.5-0.086-0.83-0.04-0.962-0.18
		C347.734,350.593,348.245,349.27,349.475,347.812z"/>
	<path fill-rule="evenodd" clip-rule="evenodd" d="M212.586,104.726c2.696,0.533,5.401,1.023,8.082,1.623
		c0.852,0.19,1.614,0.757,2.461,0.995c1.277,0.357,2.584,0.639,3.895,0.843c4.894,0.764,9.786,1.546,14.694,2.2
		c4.329,0.577,8.674,1.066,13.023,1.448c1.981,0.173,2.579,0.666,1.783,2.489c-0.754,1.724-1.633,3.501-2.867,4.889
		c-6.051,6.802-12.186,13.533-18.399,20.188c-3.682,3.942-7.61,7.651-11.341,11.55c-2.886,3.017-5.59,6.208-8.459,9.244
		c-3.219,3.405-6.541,6.715-9.804,10.079c-3.252,3.354-6.457,6.752-9.735,10.079c-4.731,4.801-9.538,9.526-14.257,14.339
		c-2.137,2.179-4.082,4.547-6.218,6.727c-4.112,4.196-8.35,8.271-12.439,12.489c-3.794,3.913-7.43,7.979-11.208,11.906
		c-1.174,1.221-2.497,2.354-3.926,3.248c-0.685,0.429-2.385,0.541-2.563,0.216c-0.47-0.858-0.81-2.277-0.397-3.04
		c1.346-2.492,2.849-4.957,4.655-7.13c3.883-4.672,6.954-9.771,9.457-15.3c2.218-4.898,4.798-9.635,7.292-14.405
		c3.124-5.978,6.272-11.944,9.511-17.86c1.975-3.608,4.26-7.049,6.184-10.682c2.252-4.253,4.22-8.655,6.39-12.953
		c2.304-4.564,4.709-9.077,7.053-13.62c0.747-1.447,1.446-2.918,2.157-4.383c0.988-2.036,0.524-2.826-1.841-2.967
		c-5.318-0.318-10.645-0.516-15.958-0.903c-5.498-0.401-10.98-1.001-16.475-1.452c-4.375-0.358-8.763-0.563-13.134-0.958
		c-1.898-0.172-3.798-0.547-5.636-1.051c-0.52-0.143-1.237-1.137-1.153-1.616c0.252-1.431,0.508-3.083,1.377-4.149
		c7.651-9.378,15.469-18.62,23.171-27.958c8.242-9.993,16.408-20.048,24.615-30.07c5.221-6.375,10.451-12.742,15.685-19.105
		c2.429-2.952,5.011-5.789,7.264-8.869c1.49-2.037,3.18-2.219,5.482-2.037c6.095,0.479,12.213,0.674,18.323,0.925
		c6.751,0.276,13.503,0.601,20.257,0.695c5.805,0.081,11.614-0.117,17.421-0.227c1.48-0.027,2.547,0.534,2.186,2.072
		c-0.364,1.546-0.887,3.256-1.894,4.414c-3.491,4.014-7.23,7.811-10.859,11.705c-1.991,2.137-3.914,4.337-5.936,6.445
		c-2.061,2.15-4.241,4.185-6.305,6.332c-7.399,7.697-14.698,15.491-22.179,23.107c-4.659,4.744-9.612,9.199-14.362,13.855
		c-1.893,1.855-3.595,3.906-5.384,5.868C212.38,104.217,212.482,104.471,212.586,104.726z"/>
	<path fill-rule="evenodd" clip-rule="evenodd" d="M43.204,287.993c2.157-4.095,4.365-8.209,6.498-12.362
		c1.873-3.649,3.613-7.366,5.495-11.011c4.04-7.819,8.109-15.623,12.214-23.409c2.173-4.123,4.523-8.153,6.656-12.297
		c4.308-8.374,8.552-16.781,12.766-25.202c3.578-7.151,7.079-14.342,10.61-21.516c1.117-2.271,0.53-2.979-2.185-3.098
		c-8.596-0.374-17.189-0.822-25.782-1.271c-3.106-0.162-6.214-0.348-9.31-0.646c-1.027-0.099-2.068-0.473-3.012-0.915
		c-1.815-0.849-2.178-2.352-0.876-3.838c4.872-5.563,9.827-11.054,14.696-16.619c3.687-4.213,7.237-8.544,10.949-12.734
		c2.375-2.68,5.019-5.121,7.389-7.805c3.797-4.301,7.428-8.748,11.201-13.07c3.978-4.556,8.121-8.968,12.044-13.57
		c4.699-5.51,9.306-11.103,13.811-16.772c1.264-1.589,2.398-2.576,4.425-1.587c0.064,0.031,0.132,0.057,0.201,0.073
		c1.115,0.276,3.021,0.316,3.185,0.871c0.37,1.254,0.152,2.859-0.308,4.149c-2,5.618-4.197,11.167-6.277,16.758
		c-1.925,5.174-3.709,10.402-5.717,15.543c-1.393,3.566-3.107,7.005-4.588,10.538c-1.227,2.927-2.305,5.916-3.487,8.861
		c-0.445,1.108-1.04,2.155-1.493,3.26c-0.563,1.375-0.12,2.21,1.424,2.333c3.332,0.266,6.66,0.632,9.998,0.771
		c8.241,0.346,16.485,0.611,24.73,0.859c3.201,0.097,6.405,0.051,9.607,0.086c0.638,0.008,1.294,0.006,1.908,0.15
		c2.825,0.666,3.048,1.586,1.182,3.814c-5.329,6.367-10.532,12.841-15.922,19.156c-2.931,3.435-6.16,6.614-9.216,9.944
		c-1.057,1.15-1.98,2.423-2.992,3.615c-4.72,5.56-9.396,11.156-14.188,16.653c-7.56,8.672-15.243,17.236-22.793,25.917
		c-6.213,7.143-12.271,14.42-18.471,21.575c-3.431,3.959-7.06,7.747-10.506,11.692c-2.377,2.722-4.464,5.703-6.912,8.354
		c-4.171,4.519-8.502,8.891-12.816,13.275C46.023,289.86,44.687,289.438,43.204,287.993z"/>
	<path fill-rule="evenodd" clip-rule="evenodd" d="M164.851,12.926c3.514-0.034,4.479,0.975,3.857,4.042
		c-0.459,2.267-1.224,4.491-2.041,6.663c-3.353,8.893-6.603,17.831-10.262,26.597c-1.398,3.348-3.546,6.483-5.859,9.297
		c-0.872,1.062-3.405,1.625-4.775,1.176c-1.508-0.494-1.915-2.379-1.218-4.373c1.784-5.109,2.998-10.425,4.917-15.477
		c2.401-6.318,5.284-12.453,7.948-18.671c0.776-1.811,1.521-3.636,2.266-5.46C160.719,14.187,162.175,12.294,164.851,12.926z"/>
	<path fill-rule="evenodd" clip-rule="evenodd" d="M62.191,36.682c1.701,1.201,3.261,2.091,4.569,3.262
		c5.779,5.171,11.575,10.33,17.191,15.676c4.527,4.309,8.813,8.873,13.19,13.338c1.141,1.163,0.454,2.833-1.376,3.689
		c-0.828,0.388-1.501,1.13-2.343,1.46c-0.604,0.237-1.582,0.344-2.032,0.015c-2.913-2.127-5.832-4.271-8.554-6.634
		c-6.389-5.547-12.72-11.163-18.961-16.876c-1.818-1.665-3.276-3.731-4.837-5.663c-0.27-0.334-0.416-0.968-0.304-1.378
		c0.425-1.566,0.865-3.148,1.529-4.621C60.63,38.134,61.452,37.523,62.191,36.682z"/>
	<path fill-rule="evenodd" clip-rule="evenodd" d="M123.524,52.128c-0.224,3.181-1.412,3.697-4.41,2.862
		c-3.786-1.055-4.923-4.155-6.1-7.078c-2.563-6.363-4.97-12.806-7.027-19.346c-0.918-2.919-1.004-6.146-1.114-9.245
		c-0.033-0.949,0.926-2.497,1.761-2.774c1.102-0.365,3.025-0.209,3.716,0.537c1.639,1.77,3.086,3.881,4.025,6.103
		c2.416,5.715,4.729,11.494,6.661,17.386C122.257,44.296,122.721,48.268,123.524,52.128z"/>
	<path fill-rule="evenodd" clip-rule="evenodd" d="M76.955,105.938c-10.826-1.724-20.65-3.295-29.476-8.672
		c-1.883-1.147-2.862-2.26-3.171-4.221c-0.24-1.521,0.274-2.408,1.984-2.568c6.482-0.606,12.694,0.319,18.734,2.781
		c4.058,1.653,8.261,2.95,12.33,4.578c1.615,0.646,3.098,1.679,4.543,2.677c1.574,1.087,1.628,2.701-0.063,3.625
		C80.124,105.073,78.142,105.518,76.955,105.938z"/>
</g>
</svg>
