<?xml version="1.0" encoding="utf-8"?>
<!-- Generator: Adobe Illustrator 16.0.0, SVG Export Plug-In . SVG Version: 6.00 Build 0)  -->
<!DOCTYPE svg PUBLIC "-//W3C//DTD SVG 1.1//EN" "http://www.w3.org/Graphics/SVG/1.1/DTD/svg11.dtd">
<svg version="1.1" id="Layer_1" xmlns="http://www.w3.org/2000/svg" xmlns:xlink="http://www.w3.org/1999/xlink" x="0px" y="0px"
	 width="300px" height="300px" viewBox="0 0 300 300" enable-background="new 0 0 300 300" xml:space="preserve">
<g>
	<path fill-rule="evenodd" clip-rule="evenodd" d="M157.912,140.556c3.009-0.364,5.934-0.695,8.852-1.075
		c8.888-1.159,17.777-2.187,26.714-0.462c5.171,0.998,10.038,2.834,14.583,5.472c9.805,5.69,18.313,12.934,25.306,21.854
		c4.292,5.476,8.751,10.913,12.273,16.876c4.239,7.176,7.672,14.84,11.256,22.386c4.217,8.877,7.069,18.276,9.646,27.716
		c1.719,6.294,2.878,12.777,3.781,19.247c1.113,7.964,1.754,15.995,2.485,24.008c0.293,3.208,0.327,6.441,0.403,9.665
		c0.076,3.248-1.783,5.617-5.103,5.907c-4.133,0.362-8.302,0.387-12.455,0.413c-6.19,0.039-12.381-0.04-18.571-0.084
		c-7.805-0.056-15.61-0.155-23.415-0.181c-5.461-0.019-10.922,0.088-16.382,0.079c-5.989-0.01-11.978-0.092-17.967-0.13
		c-1.091-0.007-2.184,0.098-3.273,0.066c-1.651-0.047-2.152-0.865-1.375-2.346c4.038-7.697,8.091-15.387,12.176-23.059
		c2.304-4.324,4.49-8.729,7.105-12.858c1.262-1.993,0.823-3.017-0.527-4.538c-1.523-1.716-2.771-3.698-3.988-5.658
		c-0.834-1.343-0.694-2.759,0.091-4.213c4.961-9.186,9.878-18.41,13.301-28.305c1.695-4.9,2.985-9.947,4.32-14.964
		c0.373-1.401,0.379-2.938,0.301-4.4c-0.033-0.621-0.716-1.207-1.103-1.81c-0.527,0.457-1.306,0.81-1.545,1.386
		c-2.957,7.14-5.663,14.389-8.785,21.453c-2.89,6.54-6.132,12.928-9.354,19.315c-2.462,4.882-4.866,9.827-7.781,14.438
		c-3.747,5.926-7.475,12-12.142,17.17c-4.925,5.456-8.868,6.363-17.622,3.459c-11.842-3.931-23.14-9.168-34.244-14.791
		c-6.019-3.049-11.746-6.674-17.612-10.025c-5.714-3.265-11.944-4.947-18.331-6.373c-4.305-0.96-8.102,0.469-12.083,1.3
		c-2.712,0.566-5.422,1.267-8.167,1.491c-1.343,0.11-3.06-0.369-4.083-1.215c-1.674-1.384-1.01-4.175,1.082-5.164
		c1.79-0.847,3.719-1.395,5.562-2.134c2.015-0.809,4.032-1.623,5.982-2.571c0.518-0.252,0.792-1.002,1.528-1.997
		c-2.475-0.341-4.431-0.519-6.347-0.893c-3.771-0.735-7.546-1.484-11.263-2.446c-0.942-0.243-1.848-1.178-2.464-2.02
		c-1.429-1.951-0.503-4.647,1.87-4.938c2.96-0.362,5.991-0.31,8.983-0.209c2.178,0.073,4.339,0.589,6.519,0.747
		c0.647,0.047,1.333-0.45,2.002-0.697c-0.336-0.64-0.508-1.564-1.038-1.871c-2.825-1.637-5.765-3.075-8.618-4.667
		c-2.855-1.594-5.711-3.198-8.454-4.974c-1.564-1.012-2.336-2.602-1.597-4.523c0.648-1.688,2.205-2.364,4.524-1.968
		c5.511,0.942,10.554,3.124,15.367,5.897c1.119,0.645,2.219,1.343,3.396,1.858c0.638,0.279,1.422,0.226,2.14,0.321
		c0.016-0.801,0.34-1.786-0.009-2.367c-1.082-1.803-2.196-3.692-3.713-5.099c-2.058-1.909-4.508-3.394-6.777-5.077
		c-0.928-0.688-1.874-1.365-2.719-2.147c-1.46-1.352-1.731-2.923-0.685-4.702c0.842-1.432,2.339-1.879,3.875-1.531
		c4.35,0.984,8.093,3.136,11.507,6.006c3.407,2.864,6.376,6.085,9.144,9.559c0.977,1.226,2.506,2.251,3.992,2.778
		c2.604,0.925,4.583-0.701,4.408-3.489c-0.107-1.709-0.704-3.382-0.972-5.087c-0.226-1.434-0.532-2.916-0.381-4.331
		c0.267-2.503,2.685-3.584,5.05-2.583c2.318,0.981,3.617,2.894,4.645,4.977c1.896,3.845,3.11,7.908,2.763,12.253
		c-0.126,1.581-0.591,3.151-1.037,4.688c-0.744,2.566-1.248,5.163,0.694,7.346c0.934,1.05,2.297,1.883,3.628,2.385
		c4.994,1.886,10.021,3.704,15.103,5.335c4.653,1.494,9.382,2.763,14.103,4.039c3.208,0.868,6.476,1.521,9.684,2.392
		c1.192,0.324,1.814,0,2.316-1.036c4.048-8.35,8.568-16.508,12.036-25.091c2.783-6.889,4.308-14.286,6.359-21.467
		c0.172-0.599,0.185-1.272,0.125-1.897c-0.058-0.602-0.304-1.185-0.467-1.774c-0.588,0.29-1.47,0.427-1.716,0.896
		c-1.437,2.738-2.762,5.536-4.052,8.348c-1.208,2.63-2.205,5.362-3.507,7.941c-3.739,7.409-7.583,14.766-11.398,22.138
		c-0.323,0.624-0.656,1.28-1.132,1.78c-0.946,0.994-2.258,0.816-2.903-0.373c-2.488-4.588-4.861-9.24-7.437-13.777
		c-2.766-4.873-5.742-9.626-8.57-14.464c-2.187-3.743-4.424-7.564-2.889-12.13c0.619-1.839,1.711-3.555,2.798-5.187
		c0.629-0.944,0.896-1.607,0.111-2.546c-0.907-1.087-1.62-2.343-2.579-3.376c-2.321-2.5-5.229-2.776-8.392-2.044
		c-4.917,1.14-9.858,2.155-14.955,1.695c-4.09-0.369-8.308-0.384-11.782-3.027c-1.135-0.863-2.178-1.97-2.949-3.168
		c-2.188-3.406-3.44-7.227-4.053-11.192c-0.685-4.428,1.271-5.453,5.328-5.387c1.616,0.026,3.216,0.865,4.829,1.316
		c2.849,0.796,5.655,1.831,8.557-0.012c4.052-2.574,5.396-7.167,4.062-11.634c-2.196-7.352-8.24-9.876-14.899-11.524
		c-0.812-0.201-1.656-0.268-2.486-0.393c-1.995-0.301-2.657-1.813-1.486-3.452c0.299-0.417,0.671-0.792,1.055-1.137
		c1.966-1.771,1.994-2.176,0.478-4.291c-1.274-1.777-2.506-3.584-3.709-5.41c-0.986-1.496-0.717-2.821,0.896-3.725
		c3.413-1.913,7.087-3.127,11-3.374c2.037-0.128,3.686-0.713,5.164-2.19c5.343-5.342,11.646-8.98,19.046-10.802
		c4.467-1.099,8.896-1.657,13.428-0.757c6.065,1.205,11.344,3.935,15.953,8.088c6.041,5.443,10.203,12.087,12.598,19.774
		c1.698,5.449,1.446,11.052-0.108,16.528C160.009,135.313,158.923,137.796,157.912,140.556z M108.778,106.14
		c-0.371,0.213-0.982,0.566-1.594,0.919c0.393,0.53,0.678,1.226,1.197,1.564c3.644,2.377,7.314,4.718,11.037,6.969
		c0.561,0.339,1.441,0.151,2.173,0.207c-0.057-0.655,0.091-1.426-0.203-1.947C118.709,109.113,114.361,106.994,108.778,106.14z"/>
	<path fill-rule="evenodd" clip-rule="evenodd" d="M186.119,66.63c0-4.5,0.045-8.594-0.01-12.687
		c-0.09-6.576-0.249-13.151-0.374-19.727c-0.105-5.558-0.241-11.116-0.29-16.674c-0.023-2.625,0.572-3.199,3.19-3.194
		c7.725,0.014,15.449,0.087,23.175,0.112c2.252,0.008,4.505-0.066,6.758-0.102c2.099-0.032,2.692,0.591,2.658,2.749
		c-0.138,8.485-0.211,16.972-0.422,25.455c-0.18,7.281-0.516,14.559-0.776,21.838c-0.024,0.685-0.003,1.372-0.003,2.295
		c5.709,0,11.158-0.047,16.604,0.046c0.938,0.016,2.101,0.391,2.745,1.023c1.057,1.036,0.742,2.338-0.154,3.492
		c-9.923,12.787-19.837,25.581-29.756,38.371c-0.911,1.174-1.757,2.414-2.778,3.484c-2.455,2.572-4.778,2.486-6.987-0.248
		c-2.718-3.363-5.37-6.779-8.049-10.174c-5.773-7.32-11.555-14.634-17.314-21.965c-2.38-3.029-4.711-6.096-7.068-9.143
		c-0.836-1.081-1.56-2.454-0.623-3.513c0.727-0.821,2.188-1.348,3.339-1.378C175.334,66.552,180.691,66.63,186.119,66.63z"/>
	<path fill-rule="evenodd" clip-rule="evenodd" d="M58.115,110.162c0.328-2.893,0.531-5.202,0.861-7.494
		c0.718-4.981-0.582-9.244-4.068-12.946c-1.533-1.628-2.828-3.534-3.972-5.467c-3.628-6.129-2.268-12.072,0.72-18.022
		c1.634-3.254,3.345-6.598,4.168-10.102c1.237-5.264,0.202-10.342-3.342-14.692c-0.526-0.646-1.019-1.341-1.388-2.083
		c-0.219-0.44-0.381-1.341-0.193-1.464c0.438-0.288,1.265-0.5,1.646-0.269c1.738,1.055,3.746,1.971,4.986,3.485
		c4.891,5.971,4.917,12.788,2.677,19.776c-1.139,3.552-2.539,7.02-3.821,10.525c-1.877,5.129-0.424,9.513,3.132,13.328
		c2.768,2.97,5.39,6.142,5.641,10.272c0.212,3.487-0.289,7.064-0.852,10.54c-0.689,4.247-1.646,8.48,1.079,12.312
		c1.164,1.638,2.847,2.903,4.255,4.375c0.498,0.521,0.877,1.154,1.31,1.736c-0.816,0.218-1.723,0.784-2.433,0.599
		c-4.568-1.198-8.112-3.711-9.417-8.495C58.535,113.987,58.376,111.785,58.115,110.162z"/>
	<path fill-rule="evenodd" clip-rule="evenodd" d="M94.617,24.213c-0.41,4.091-1.715,7.523-3.986,10.714
		c-2.142,3.009-4.218,6.152-5.709,9.508c-1.298,2.922-0.842,6.186,0.134,9.292c0.79,2.513,1.43,5.073,2.136,7.612
		c1.255,4.509-1.43,7.909-3.198,11.595c-1.33,2.773-2.667,5.577-3.589,8.496c-0.524,1.656-0.193,3.575-0.297,5.373
		c-0.096,1.654-0.77,2.006-2.244,1.238c-2.795-1.456-4.556-6.628-3.125-9.663c1.373-2.912,2.823-5.804,4.483-8.558
		c2.134-3.54,2.001-7.106,0.613-10.762c-1.518-3.997-2.611-8.019-2.25-12.385c0.389-4.699,2.568-8.394,5.764-11.667
		c2.331-2.387,4.664-4.694,5.861-8.034c1.09-3.042,0.711-5.897,0.259-8.88c-0.108-0.712,0.231-1.493,0.365-2.242
		c0.76,0.333,1.822,0.456,2.227,1.037C93.621,19.131,94.517,21.666,94.617,24.213z"/>
	<path fill-rule="evenodd" clip-rule="evenodd" d="M125.044,37.314c-0.332,5.887-2.756,9.729-6.245,13.144
		c-2.698,2.641-5.28,5.456-7.518,8.487c-1.026,1.391-1.392,3.459-1.545,5.264c-0.309,3.646-0.165,7.329-0.396,10.985
		c-0.321,5.087-5.048,9.91-10.084,10.412c-0.499,0.05-1.416-0.231-1.478-0.508c-0.114-0.506,0.102-1.286,0.473-1.661
		c0.81-0.819,1.883-1.377,2.708-2.184c1.983-1.941,3.036-4.341,2.846-7.131c-0.17-2.503-0.501-4.998-0.835-7.487
		c-0.502-3.753,0.45-7.231,2-10.568c1.809-3.892,5.317-6.204,8.555-8.699c4.586-3.534,7.337-7.872,7.005-13.874
		c-0.043-0.768,0.544-1.57,0.839-2.356c0.732,0.516,1.808,0.875,2.129,1.58C124.291,34.451,124.734,36.343,125.044,37.314z"/>
</g>
<g>
</g>
<g>
</g>
<g>
</g>
<g>
</g>
<g>
</g>
<g>
</g>
</svg>
