<?xml version="1.0" encoding="utf-8"?>
<!-- Generator: Adobe Illustrator 16.0.0, SVG Export Plug-In . SVG Version: 6.00 Build 0)  -->
<!DOCTYPE svg PUBLIC "-//W3C//DTD SVG 1.1//EN" "http://www.w3.org/Graphics/SVG/1.1/DTD/svg11.dtd">
<svg version="1.1" id="Layer_1" xmlns="http://www.w3.org/2000/svg" xmlns:xlink="http://www.w3.org/1999/xlink" x="0px" y="0px"
	 width="300px" height="300px" viewBox="0 0 300 300" enable-background="new 0 0 300 300" xml:space="preserve">
<g>
	<path fill-rule="evenodd" clip-rule="evenodd" d="M104.596,224.069c-31.271,0.921-58.606-24.2-60.639-56.229
		c-2.282-35.959,23.799-61.916,52.996-64.759c39.032-3.8,63.615,24.314,66.486,54.04
		C166.982,193.802,139.227,223.795,104.596,224.069z M103.669,168.278c-2.232,0.35-4.543,0.442-6.683,1.098
		c-5.961,1.823-11.099,5.068-15.25,9.759c-3.374,3.812-6.401,7.824-6.36,13.28c0.017,2.23,2.986,4.231,5.111,3.675
		c2.563-0.672,4.228-2.446,5.898-4.274c4.837-5.291,10.383-9.322,17.934-9.145c6.752,0.159,12.544,2.537,16.756,8.126
		c1.077,1.429,2.357,2.724,3.665,3.95c1.275,1.196,2.782,1.982,4.504,0.809c1.753-1.195,3.307-4.712,2.785-6.218
		c-2.031-5.866-5.339-10.769-10.324-14.62C116.36,170.586,110.407,168.59,103.669,168.278z M145.064,154.701
		c-0.015-2.5-0.939-4.037-2.466-4.183c-2.773-0.265-5.57-0.408-8.308-0.885c-3.902-0.678-7.435-2.387-10.601-4.735
		c-2.241-1.662-4.281-3.593-6.479-5.318c-0.428-0.335-1.227-0.496-1.753-0.355c-2.033,0.542-3.487,4.86-1.746,6.692
		c4.861,5.112,10.238,9.451,17.206,11.196c3.173,0.795,6.495,1.054,9.767,1.371C143.171,158.725,145.078,156.947,145.064,154.701z
		 M67.954,158.353c2.092-0.354,4.116-0.671,6.13-1.045c4.383-0.813,8.031-3.12,11.442-5.823c3.704-2.936,6.975-6.271,8.598-10.849
		c0.204-0.575,0.047-1.64-0.364-2.012c-2.611-2.366-4.108-1.648-6.329,0.798c-1.767,1.947-3.558,3.99-5.707,5.446
		c-4.318,2.926-9.001,5.104-14.447,4.992c-1.021-0.021-2.252,0.158-3.035,0.729c-1.383,1.008-0.832,6.359,0.69,7.13
		C65.816,158.166,66.932,158.155,67.954,158.353z"/>
	<path fill-rule="evenodd" clip-rule="evenodd" d="M138.542,64.796c0-5.458,0-10.531,0-15.605
		c-0.001-12.341-0.006-24.682,0.003-37.022c0-0.595,0.178-1.188,0.178-1.783c-0.005-4.047,0.414-4.385,4.392-4.378
		c10.059,0.019,20.118-0.028,30.176-0.091c3.149-0.02,4.37,1.149,4.376,4.579c0.009,5.954-0.05,11.907-0.056,17.861
		c-0.008,8.977,0.005,17.954,0.009,26.93c0.001,2.995,0,5.989,0,9.378c6.312,0,12.563,0,18.642,0c1.405,3.312-1.075,4.811-2.4,6.583
		c-5.265,7.042-10.62,14.019-16.105,20.891c-5.296,6.633-10.793,13.107-16.202,19.65c-0.042,0.051-0.114,0.078-0.153,0.13
		c-3.471,4.637-3.961,3.145-6.858-0.06c-4.292-4.746-8.308-9.749-12.334-14.728c-5.114-6.325-10.169-12.699-15.155-19.125
		c-2.673-3.447-5.167-7.035-7.687-10.598c-0.334-0.473-0.66-1.393-0.433-1.718c0.336-0.481,1.165-0.846,1.792-0.858
		c4.035-0.074,8.073-0.037,12.11-0.037C134.685,64.796,136.534,64.796,138.542,64.796z"/>
	<path fill-rule="evenodd" clip-rule="evenodd" d="M292.582,181.415c0,3.387,0.159,6.782-0.037,10.157
		c-0.31,5.306-0.799,10.604-1.322,15.895c-0.536,5.42-1.021,10.856-1.871,16.231c-0.714,4.519-1.613,9.057-2.982,13.412
		c-1.922,6.118-3.837,12.339-6.727,18.021c-2.546,5.008-6.021,9.702-9.793,13.897c-9.778,10.873-22.077,18.543-34.502,25.991
		c-1.612,0.967-3.028,0.919-4.514,0.026c-10.202-6.135-20.35-12.359-29.302-20.288c-7.376-6.533-13.333-14.126-17.429-23.175
		c-4.029-8.903-6.451-18.249-7.995-27.83c-0.824-5.113-1.235-10.301-1.686-15.468c-0.545-6.254-0.961-12.52-1.378-18.784
		c-0.182-2.73-0.186-5.473-0.351-8.205c-0.078-1.297,0.364-1.953,1.674-2.268c5.06-1.211,10.093-2.529,15.144-3.777
		c9.039-2.233,18.037-4.579,26.376-8.893c4.615-2.387,9.267-4.706,13.868-7.118c1.737-0.911,3.373-1.093,5.133-0.099
		c11.843,6.697,24.361,11.754,37.547,15.077c5.908,1.488,11.905,2.635,17.885,3.824
		C292.336,178.444,293.008,179.522,292.582,181.415z M184.537,207.773c0.54,4.451,0.924,9.038,1.682,13.563
		c1.479,8.821,4.038,17.336,7.51,25.602c3.261,7.763,8.427,14.03,14.658,19.495c6.735,5.906,14.005,11.094,21.678,15.728
		c2.793,1.687,2.915,1.777,5.67-0.048c2.093-1.387,4.153-2.827,6.293-4.138c8.925-5.467,16.816-12.097,23.32-20.345
		c4.225-5.358,7.124-11.458,9.378-17.783c2.949-8.276,4.394-16.959,5.328-25.684c0.728-6.798,1.142-13.63,1.684-20.447
		c0.137-1.727,0.291-3.457,0.301-5.186c0.003-0.445-0.431-1.194-0.8-1.293c-3.672-0.981-7.349-1.967-11.067-2.739
		c-11.974-2.489-23.309-6.687-34.02-12.559c-2.357-1.293-4.462-1.474-6.899-0.102c-3.398,1.911-6.871,3.776-10.498,5.18
		c-6.822,2.641-13.719,5.12-20.697,7.308c-4.235,1.328-8.673,2.03-13.04,2.911c-1.322,0.268-1.799,0.873-1.677,2.164
		c0.161,1.706,0.255,3.419,0.364,5.13C183.983,198.907,184.256,203.284,184.537,207.773z"/>
	<path fill-rule="evenodd" clip-rule="evenodd" d="M222.699,63.042c3.289-1.389,6.35-2.428,9.168-3.925
		c5.413-2.876,10.771-5.875,16.002-9.068c9.389-5.732,18.661-11.654,27.993-17.478c2.773-1.73,5.604-3.368,8.371-5.107
		c1.356-0.853,2.598-1.887,3.944-2.757c2.188-1.413,3.767-1.238,4.211,0.547c0.191,0.768-0.045,1.944-0.552,2.537
		c-3.739,4.366-7.67,8.569-11.392,12.95c-2.943,3.465-5.836,6.995-8.466,10.699c-6.103,8.595-12.1,17.268-18.007,25.999
		c-3.358,4.965-6.458,10.106-9.663,15.176c-0.243,0.385-0.392,0.829-0.741,1.585c1.242,0.336,2.358,0.922,3.454,0.886
		c6.488-0.212,13.014-0.218,19.448-0.964c7.959-0.922,15.845-2.482,23.754-3.812c1.218-0.205,2.264-0.233,2.879,1.03
		c0.646,1.329,0.309,2.554-0.768,3.421c-2.076,1.672-4.344,3.114-6.37,4.841c-4.483,3.822-8.918,7.707-13.277,11.67
		c-3.851,3.5-7.551,7.166-11.359,10.713c-2.17,2.021-2.19,3.021,0.512,4.187c5.985,2.583,12.043,5.006,18.11,7.393
		c2.466,0.971,5.031,1.688,7.557,2.505c1.316,0.426,2.462,1.246,2.215,2.646c-0.145,0.817-1.14,1.762-1.979,2.131
		c-5.038,2.214-10.149,4.26-15.221,6.401c-2.194,0.927-4.331,1.993-6.53,2.911c-1.648,0.688-3.044-0.003-3.685-1.474
		c-0.651-1.493,0.172-2.67,1.639-3.386c2.627-1.283,5.271-2.539,7.823-3.958c0.901-0.501,1.556-1.448,2.581-2.441
		c-4.095-1.662-7.652-2.979-11.099-4.541c-3.813-1.728-7.58-3.58-11.263-5.569c-2.691-1.453-2.724-2.47-0.741-4.806
		c6.542-7.716,14.181-14.295,21.725-20.972c1.146-1.014,2.386-1.92,3.582-2.877c-0.18-0.267-0.359-0.534-0.539-0.8
		c-2.317,0.258-4.634,0.531-6.953,0.772c-6.523,0.68-13.046,1.372-19.574,2.011c-5.565,0.544-11.137,1.054-16.712,1.488
		c-0.635,0.05-1.684-0.326-1.885-0.789c-0.293-0.675-0.254-1.752,0.104-2.406c1.278-2.336,2.676-4.616,4.165-6.826
		c4.651-6.901,9.317-13.794,14.068-20.627c5.223-7.512,10.546-14.953,15.824-22.426c0.116-0.165,0.263-0.324,0.321-0.509
		c0.29-0.922,0.555-1.852,0.828-2.778c-0.822,0.329-1.696,0.568-2.46,1.001c-4.866,2.759-9.706,5.565-14.559,8.348
		c-6.013,3.447-11.975,6.987-18.063,10.296c-4.151,2.256-8.465,4.219-12.747,6.227c-0.757,0.355-1.714,0.285-2.262,0.364
		c-1.229-14.389,2.125-28.022,4.139-41.795c-0.194-0.126-0.389-0.253-0.583-0.379c-1.156,1.2-2.318,2.395-3.47,3.6
		c-3.404,3.563-6.71,7.228-10.254,10.646c-1.312,1.266-3.032,2.583-5.153,1.694c-0.758-0.318-1.574-0.993-1.882-1.711
		c-0.199-0.466,0.306-1.483,0.789-1.946c1.578-1.515,3.385-2.796,4.938-4.334c6.288-6.229,12.433-12.59,17.517-19.884
		c1.331-1.91,2.573-3.905,4.102-5.645c0.673-0.768,2.09-1.543,2.939-1.342c1.347,0.318,1.612,1.819,1.31,3.183
		c-0.646,2.906-1.342,5.802-1.993,8.707c-1.352,6.023-2.8,12.028-3.994,18.083c-0.898,4.553-1.586,9.157-2.119,13.768
		C222.164,58.137,222.553,60.222,222.699,63.042z"/>
	<path fill-rule="evenodd" clip-rule="evenodd" d="M29,203.124c2.942,1.422,5.548,2.533,8.004,3.912
		c2.137,1.2,4.233,2.553,6.085,4.143c0.794,0.682,1.314,2.146,1.289,3.238c-0.115,4.959-2.378,9.052-5.634,12.665
		c-2.645,2.935-5.274,5.883-7.726,9.199c2.719-0.668,5.429-1.379,8.16-1.996c6.82-1.544,13.643-3.079,20.484-4.524
		c0.928-0.195,2.081-0.088,2.92,0.315c0.601,0.287,1.298,1.38,1.194,1.982c-1.454,8.417-3.399,16.719-6.248,24.788
		c-1.239,3.509-2.409,7.041-3.688,10.534c-0.629,1.714-1.438,3.361-1.801,5.274c3.293-2.354,6.544-4.771,9.888-7.05
		c8.493-5.791,17.013-11.542,25.554-17.262c2.777-1.859,5.646-3.582,8.485-5.349c2.806-1.748,3.638-1.408,4.71,1.728
		c1.366,3.994,2.982,7.911,4.155,11.959c1.687,5.818,3.059,11.729,4.602,17.59c0.194,0.739,0.604,1.422,1.192,2.767
		c1.158-1.987,2.091-3.454,2.894-4.988c4.98-9.534,9.917-19.091,14.901-28.622c1.54-2.943,3.101-3.35,5.865-1.669
		c2.964,1.802,5.976,3.533,8.873,5.438c2.801,1.844,5.478,3.878,8.222,5.809c0.563,0.396,1.187,0.705,1.709,1.012
		c-1.311-5.227-2.601-10.373-3.891-15.519c-0.032-0.131-0.063-0.262-0.084-0.395c-0.528-3.398,0.487-4.441,3.86-3.997
		c0.333,0.044,0.685-0.055,1.046-0.089c1.354,5.257,2.53,10.57,4.115,15.76c1.439,4.714,3.322,9.293,5.014,13.931
		c0.508,1.391,0.732,2.785-0.641,3.789c-1.495,1.093-2.639,0.201-3.895-0.739c-7.688-5.755-15.425-11.445-23.167-17.127
		c-0.572-0.42-1.314-0.609-2.213-1.011c-1.637,2.592-3.503,5.114-4.918,7.869c-4.262,8.301-8.408,16.663-12.48,25.059
		c-2.151,4.435-4.108,8.967-6.036,13.504c-0.539,1.268-1.456,1.419-2.354,1.03c-0.604-0.261-1.25-1.158-1.313-1.824
		c-1.218-12.847-3.435-25.489-7.526-37.759c-0.693-2.081-1.509-4.122-2.429-6.618c-1.892,1.138-3.665,2.106-5.336,3.227
		c-4.929,3.305-9.879,6.584-14.706,10.034c-4.982,3.561-9.927,7.188-14.711,11.008c-7.307,5.835-14.442,11.884-21.714,17.762
		c-0.644,0.521-2.293,0.889-2.556,0.57c-0.607-0.738-1.031-2.021-0.836-2.936c0.298-1.398,1.182-2.672,1.815-3.999
		c2.941-6.155,6.026-12.247,8.78-18.483c2.389-5.409,4.588-10.919,6.521-16.506c1.347-3.896,2.113-7.996,3.109-12.012
		c0.124-0.499,0.065-1.044,0.114-2.014c-2.952,0.563-5.741,0.985-8.475,1.639c-7.45,1.781-14.889,3.613-22.306,5.529
		c-2.313,0.598-4.532,1.551-6.808,2.299c-0.759,0.25-1.564,0.52-2.343,0.505c-0.794-0.015-1.583-0.367-2.374-0.573
		c0.243-0.864,0.261-1.906,0.774-2.56c1.26-1.605,2.716-3.063,4.15-4.522c5.231-5.329,10.51-10.61,15.717-15.962
		c1.709-1.757,2.863-3.921,2.919-6.392c0.02-0.886-0.646-2.084-1.379-2.632c-1.852-1.388-3.793-2.821-5.928-3.633
		c-4.134-1.571-7.881-4.3-12.583-4.353c-0.571-0.006-1.495-1.179-1.588-1.896c-0.091-0.7,0.483-1.905,1.098-2.206
		c3.037-1.484,6.188-2.733,9.292-4.083c1.939-0.844,3.856-1.742,5.801-2.572c1.257-0.536,2.537-0.82,3.484,0.564
		c1.081,1.578,0.871,3.072-0.732,4.064C33.525,200.897,31.524,201.806,29,203.124z"/>
	<path fill-rule="evenodd" clip-rule="evenodd" d="M104.273,32.451c0,6.856-0.123,13.4,0.045,19.937
		c0.104,3.995,0.7,7.976,0.971,11.97c0.063,0.931-0.039,2.5-0.519,2.703c-0.821,0.347-2.151,0.123-3.004-0.343
		c-3.93-2.149-7.817-4.387-11.628-6.739c-5.05-3.116-10.042-6.327-15.008-9.575c-2.951-1.93-5.797-4.018-8.708-6.01
		c-0.448-0.307-0.99-0.477-1.872-0.356c1.272,2.608,2.554,5.212,3.814,7.826c4.696,9.741,9.39,19.482,14.07,29.23
		c0.512,1.067,1.017,2.151,1.375,3.275c0.692,2.174-0.798,3.737-3.042,3.364C68.074,85.62,55.9,81.755,44.014,76.908
		c-2.468-1.006-4.944-1.993-7.43-2.954c-0.335-0.129-0.748-0.059-1.346-0.093c2.75,3.452,5.569,6.573,7.898,10.023
		c2.821,4.178,5.314,8.588,7.767,12.998c0.859,1.544,1.464,3.353,1.68,5.103c0.341,2.76-1.127,4.743-3.648,5.775
		c-5.143,2.105-10.455,3.314-16.04,3.306c-1.297-0.002-2.595,0.323-3.667,0.467c2.5,2.381,5.184,4.79,7.68,7.379
		c1.139,1.183,1.946,2.698,2.832,4.108c0.744,1.185,0.69,2.516-0.625,3.069c-0.933,0.393-2.323,0.378-3.239-0.043
		c-1.099-0.505-2.167-1.479-2.802-2.522c-2.739-4.503-6.979-7.33-11.151-10.205c-2.789-1.921-5.783-3.544-8.667-5.329
		c-0.674-0.417-1.4-0.85-1.879-1.452c-0.414-0.521-0.886-1.493-0.664-1.91c0.374-0.701,1.308-1.609,1.952-1.568
		c2.215,0.139,4.4,0.7,6.609,1.011c6.574,0.925,13.188,1.291,19.789,0.573c1.981-0.216,3.874-1.312,5.789-2.054
		c1.406-0.545,1.547-1.665,0.891-2.798c-2.064-3.566-4.015-7.224-6.381-10.584c-3.642-5.17-7.525-10.176-11.445-15.141
		c-1.562-1.978-3.515-3.646-5.255-5.486c-0.676-0.715-1.211-1.566-1.9-2.268c-0.744-0.758-1.058-1.428-0.388-2.447
		c0.728-1.108,1.64-1.604,2.881-1.192c1.889,0.627,3.752,1.336,5.611,2.053c5.103,1.966,10.124,4.178,15.313,5.884
		c8.607,2.831,17.309,5.375,25.996,7.956c1.405,0.417,2.274-0.792,1.735-2.495c-0.781-2.471-1.555-4.989-2.723-7.287
		c-4.446-8.746-8.777-17.568-13.677-26.058C51.45,35.7,46.65,29.103,42.184,22.312c-1.46-2.221-2.929-4.436-4.349-6.683
		c-0.736-1.166-0.682-2.559,0.455-3.193c0.794-0.444,2.346-0.416,3.079,0.092c1.674,1.163,3.009,2.799,4.559,4.155
		c9.003,7.878,17.9,15.883,27.093,23.534c5.307,4.416,11.045,8.327,16.704,12.302c2.445,1.717,5.18,3.021,8.047,4.664
		c0.18-0.877,0.526-1.726,0.497-2.562c-0.269-7.559-0.42-15.129-0.984-22.667c-0.371-4.951-1.426-9.847-2.017-14.787
		c-0.094-0.781,0.451-2.096,1.065-2.382c0.688-0.32,2.18-0.075,2.646,0.485c2.035,2.452,3.76,5.157,5.715,7.678
		c4.699,6.058,8.875,12.555,14.713,17.667c2.207,1.933,2.052,3.461-0.621,4.692c-0.61,0.281-1.696,0.082-2.315-0.299
		c-4.354-2.677-7.328-6.747-10.482-10.629C105.462,33.731,104.878,33.129,104.273,32.451z"/>
	<path fill-rule="evenodd" clip-rule="evenodd" d="M202.383,146.482c-3.584,0-7.191,0.257-10.746-0.069
		c-3.939-0.362-7.962-0.773-11.331-3.311c-2.91-2.193-3.376-4.289-1.411-7.402c0.598-0.947,1.358-1.807,2.133-2.623
		c4.873-5.137,9.846-10.182,14.636-15.394c3.738-4.067,7.229-8.36,10.897-12.493c1.014-1.143,2.281-2.39,3.976-1.37
		c1.498,0.901,1.41,2.642,0.057,4.583c-6.539,9.38-13.943,18.058-21.564,26.56c-0.797,0.89-1.498,1.867-2.244,2.803
		c1.323,2.442,3.768,2.168,5.905,2.319c8.132,0.575,16.248,0.582,24.284-1.137c0.933-0.2,1.976-0.259,2.891-0.048
		c0.568,0.131,1.29,0.833,1.404,1.389c0.146,0.71,0.017,1.893-0.459,2.246c-2.401,1.788-4.995,3.314-7.445,5.041
		c-4.894,3.449-9.759,6.938-14.584,10.482c-1.217,0.893-2.29,1.458-3.509,0.169c-1.182-1.249-1.005-2.542,0.098-3.709
		c2.329-2.467,4.706-4.888,7.064-7.328C202.416,146.954,202.399,146.718,202.383,146.482z"/>
	<path fill-rule="evenodd" clip-rule="evenodd" d="M23.185,148.313c-2.5-0.366-5.025-0.621-7.484-1.17
		c-0.689-0.154-1.446-1.104-1.654-1.835c-0.098-0.346,0.958-1.387,1.607-1.514c2.72-0.531,5.476-0.918,8.236-1.196
		c2.107-0.213,3.482,0.73,3.467,2.098c-0.029,2.663-1.046,3.693-3.56,3.591c-0.198-0.008-0.394-0.078-0.591-0.119
		C23.2,148.217,23.192,148.265,23.185,148.313z"/>
	<path fill-rule="evenodd" clip-rule="evenodd" d="M244.982,226.173c6.18,5.742,12.34,11.506,18.554,17.21
		c1.289,1.183,1.078,2.095-0.049,3.168c-2.854,2.714-5.649,5.491-8.524,8.185c-1.561,1.462-3.008,1.233-4.479-0.263
		c-5.592-5.686-11.24-11.315-16.874-16.959c-0.133-0.133-0.35-0.18-0.735-0.369c-3.337,3.279-6.714,6.602-10.095,9.918
		c-2.522,2.476-5.061,4.937-7.574,7.422c-1.063,1.05-2.018,0.793-2.938-0.163c-2.911-3.028-5.769-6.112-8.746-9.073
		c-1.211-1.204-1.045-2.205,0.002-3.24c2.29-2.262,4.642-4.462,6.936-6.719c2.955-2.907,5.82-5.907,8.842-8.742
		c1.307-1.227,0.959-2.042-0.094-3.093c-3.207-3.2-6.408-6.406-9.54-9.678c-2.438-2.546-4.772-5.189-7.146-7.795
		c-0.866-0.951-0.841-1.847,0.12-2.763c3.058-2.913,6.051-5.896,9.15-8.762c0.933-0.863,1.952-1.087,3.117,0.113
		c5.035,5.183,10.176,10.264,15.286,15.373c0.751,0.751,1.547,1.458,2.506,2.356c2.669-2.561,5.249-5.072,7.87-7.541
		c3.512-3.307,7.046-6.588,10.588-9.862c1.746-1.615,3.305-1.666,5.051,0.032c2.738,2.663,5.411,5.397,8.026,8.182
		c1.561,1.659,1.313,3.258-0.385,4.843c-5.725,5.342-11.418,10.716-17.118,16.084c-0.336,0.316-0.625,0.682-0.936,1.024
		C245.525,225.432,245.254,225.803,244.982,226.173z"/>
</g>
<g>
</g>
<g>
</g>
<g>
</g>
<g>
</g>
<g>
</g>
<g>
</g>
</svg>
