<svg version="1.1" id="Layer_1" xmlns="http://www.w3.org/2000/svg" xmlns:xlink="http://www.w3.org/1999/xlink" x="0px" y="0px"
	 width="768px" height="768px" viewBox="0 0 768 768" enable-background="new 0 0 768 768" xml:space="preserve">
<path fill="#000000" opacity="1.000000" stroke="none" 
	d="
M769.000000,390.533875 
	C764.294128,388.704895 763.723755,384.459167 763.661987,379.899872 
	C763.619202,376.737976 765.026001,375.381500 768.575928,375.896790 
	C769.000000,380.689240 769.000000,385.378510 769.000000,390.533875 
z"/>
<path fill="#000000" opacity="1.000000" stroke="none" 
	d="
M260.520660,402.457367 
	C239.426712,379.909424 221.089233,355.658966 205.051529,329.746613 
	C185.231949,297.723877 168.949493,263.910339 155.625244,228.670959 
	C139.528854,186.099915 127.625000,142.169205 113.411179,98.988281 
	C112.735962,96.937027 111.834312,94.953712 111.258804,92.877586 
	C110.021286,88.413269 111.076668,87.283958 115.506538,88.445061 
	C132.033432,92.776840 148.550461,97.146980 165.053741,101.567863 
	C191.168839,108.563538 217.249969,115.686562 243.381149,122.621330 
	C291.299255,135.337952 337.336548,152.784515 379.981506,178.265488 
	C387.064697,182.497787 391.604889,182.313721 398.489929,178.365356 
	C437.816711,155.812622 480.145508,140.565765 523.669678,128.399658 
	C553.394226,120.090874 583.119873,111.784721 612.801636,103.325256 
	C629.555054,98.550461 646.223694,93.477615 662.921753,88.509872 
	C664.843201,87.938225 666.708252,87.135132 669.279602,88.861900 
	C667.170654,95.878052 664.997131,103.102310 662.827576,110.327759 
	C653.379211,141.795090 644.081848,173.308777 634.441772,204.717270 
	C624.887085,235.847977 613.982239,266.464569 600.065674,295.995361 
	C587.479309,322.703400 573.264954,348.382996 555.431702,371.954132 
	C548.428528,381.210602 541.083984,390.202698 533.260925,398.803253 
	C526.317017,406.437225 519.558960,414.230347 511.417816,420.666138 
	C509.735138,421.996338 508.225739,424.186523 505.856110,422.824890 
	C503.805389,421.646484 504.494263,419.129272 504.765625,417.318695 
	C508.930115,389.530853 507.954834,361.544037 507.435577,333.646027 
	C507.100220,315.626587 505.179718,297.621063 502.875671,279.673615 
	C499.893890,256.447021 495.273438,233.592072 489.577911,210.919464 
	C486.463928,198.523453 486.187805,198.508896 474.541809,204.354080 
	C455.631866,213.845093 437.291412,224.247070 420.509369,237.220428 
	C410.241638,245.157883 400.296997,253.469009 392.605530,264.050690 
	C390.036163,267.585541 387.813721,267.077850 385.408295,264.301849 
	C367.635193,243.790192 345.573761,228.695999 322.578278,214.863678 
	C314.901306,210.245773 306.697113,206.502197 298.715302,202.395096 
	C297.107086,201.567581 295.503754,200.634537 293.022644,200.647690 
	C289.893829,208.852859 288.203979,217.609238 286.415344,226.291199 
	C282.801544,243.832245 281.018677,261.623535 279.125275,279.429047 
	C276.810669,301.195984 276.784210,322.993103 277.578186,344.727539 
	C278.496857,369.876068 280.786530,395.000122 285.877655,419.747467 
	C286.180878,421.221344 286.834503,422.854126 285.228271,423.785919 
	C283.604340,424.727936 282.485992,423.335419 281.371063,422.329041 
	C274.329254,415.973053 267.184235,409.726166 260.520660,402.457367 
z"/>
<path fill="#000000" opacity="1.000000" stroke="none" 
	d="
M680.977295,164.953644 
	C683.380554,171.216370 686.985291,176.813950 690.880859,182.198273 
	C692.934509,185.036713 694.916382,187.869263 696.632446,190.934326 
	C698.155151,193.654099 699.884888,196.179550 703.188293,197.427597 
	C706.956299,198.851166 708.561768,201.354980 704.683044,204.447952 
	C713.773438,219.948395 721.382141,235.878098 727.821045,252.567871 
	C730.452698,250.873001 728.946838,249.458527 728.837341,248.131989 
	C728.743958,247.000717 728.452637,245.676407 729.849792,245.113754 
	C731.193604,244.572586 732.061340,245.401947 732.674255,246.503433 
	C735.025085,250.728027 737.132996,255.064011 738.160950,259.824249 
	C738.887878,263.190399 736.064697,263.346710 733.163635,263.800903 
	C742.979248,295.840363 747.558350,328.279205 750.849548,361.450439 
	C753.299866,359.742065 752.860107,357.795593 752.425842,356.215668 
	C751.332703,352.238129 751.353943,348.359009 752.489380,344.419556 
	C752.962280,342.778503 752.205261,340.089569 754.789429,340.172882 
	C756.919434,340.241486 759.161682,342.881958 759.102356,344.223480 
	C758.674316,353.904083 762.433105,364.529175 756.518799,373.019409 
	C751.738831,379.881317 753.173645,386.368958 752.880859,393.516968 
	C752.367676,406.049255 752.159729,418.705200 749.476807,431.092041 
	C748.959229,433.482056 747.717712,434.918640 745.542847,435.754272 
	C748.752991,438.960205 747.423401,442.866180 747.030945,446.389038 
	C745.165222,463.135468 739.971191,479.012421 734.104126,494.722626 
	C730.739258,503.732849 726.780029,512.477600 723.146362,521.359192 
	C721.500916,525.381104 719.185181,525.495239 715.921570,525.352600 
	C715.034790,525.313843 713.973999,524.784668 713.114075,525.704163 
	C721.232117,526.390320 722.007812,528.141113 717.314270,535.562622 
	C715.445068,538.518188 713.653931,541.480713 712.299927,544.721619 
	C711.606384,546.381714 711.208557,547.834839 712.476013,549.353943 
	C713.677795,550.794373 714.932556,552.390076 713.591797,554.257324 
	C712.466064,555.825134 710.550964,555.260376 708.927124,555.240112 
	C707.797913,555.226013 706.671082,555.025391 706.008789,554.956543 
	C694.434265,573.466003 682.292297,591.038391 668.526794,607.444580 
	C654.712280,623.909241 638.818359,638.377563 623.423767,653.278870 
	C612.685303,663.673279 599.877258,671.644958 587.590454,680.177490 
	C564.365417,696.305969 538.984497,707.882019 512.665955,718.014893 
	C493.797455,725.279358 474.312378,729.933533 454.876740,734.836487 
	C442.850189,737.870422 430.213684,737.559814 417.830902,738.603638 
	C409.906311,739.271667 402.786194,737.972412 395.493866,735.524353 
	C392.426117,734.494507 390.189941,732.178040 387.206085,731.133606 
	C387.154907,731.467163 386.971558,731.840088 387.087524,732.034729 
	C388.122986,733.772522 391.100952,734.598816 389.985504,737.311890 
	C388.820251,740.146057 386.034790,739.285706 383.834564,739.310669 
	C371.365356,739.452087 359.009521,738.825439 346.621826,736.713379 
	C339.304321,735.465759 331.905518,734.702209 324.660034,732.877625 
	C321.979675,732.202637 319.691559,731.271912 318.068024,728.581726 
	C314.350739,731.325500 310.457153,730.234985 306.651703,729.457092 
	C305.426971,731.021606 307.316315,734.700867 303.478790,733.971130 
	C299.875000,733.285828 302.445557,730.498840 301.996338,728.737549 
	C294.815430,726.498413 287.675171,724.406006 280.623901,722.047424 
	C261.698792,715.717407 243.451157,707.757935 225.643417,698.782288 
	C211.556671,691.682007 197.290604,684.865601 184.865829,674.934937 
	C182.431519,672.989258 179.900070,670.996582 179.524353,667.468140 
	C179.360275,665.927490 177.924774,665.458191 176.765427,664.828186 
	C154.982483,652.989868 137.689789,635.890747 120.774467,618.120850 
	C108.215668,604.927551 96.654068,591.082825 86.612503,575.928467 
	C85.527283,574.290710 84.097931,573.508545 82.100090,573.245544 
	C79.316933,572.879211 76.638641,572.377563 78.667831,568.208557 
	C79.976265,565.520447 77.884727,562.942932 76.441513,560.905701 
	C66.023834,546.199951 60.283108,529.310364 53.797791,512.785217 
	C52.859577,510.394592 51.517086,510.369995 49.690510,510.238800 
	C48.512257,510.154114 47.284813,510.003815 47.056660,508.493408 
	C46.888603,507.380829 47.419426,506.452698 48.358810,506.007935 
	C50.435036,505.024902 50.926517,503.778595 49.856789,501.630981 
	C41.497131,484.847900 37.632923,466.734283 33.181839,448.654510 
	C29.455048,433.516693 27.529360,418.474762 27.703266,403.041138 
	C27.761126,397.906189 28.311352,392.775604 28.673454,387.645630 
	C28.922363,384.119232 27.878550,381.393005 25.161335,378.809387 
	C22.377840,376.162720 19.411257,373.267273 18.779844,368.899323 
	C21.182158,366.478485 24.244244,366.819336 27.476732,366.701294 
	C28.513466,357.042480 29.806824,347.532837 30.505835,337.979675 
	C32.244148,314.222687 39.940926,291.986023 47.111198,269.549866 
	C50.826412,257.924805 53.737587,246.054443 58.467781,234.746872 
	C59.950310,231.202835 61.607830,227.776184 63.544716,224.494171 
	C65.007317,222.015808 64.624817,220.382629 61.897133,219.561752 
	C60.013756,218.994965 58.482212,218.146713 57.970943,216.163849 
	C57.642498,214.890030 57.328148,213.400528 58.707092,212.539520 
	C59.901314,211.793884 60.763325,212.628281 61.721275,213.458069 
	C64.424072,215.799210 69.291939,214.842346 71.010384,211.778580 
	C73.438354,207.449844 75.885612,203.153870 81.034370,201.428055 
	C81.576302,201.246399 82.284637,200.559265 82.331284,200.052795 
	C82.990295,192.897095 87.639877,187.657837 90.945984,181.770874 
	C91.420753,180.925491 91.532074,179.876007 91.930695,178.459610 
	C92.049797,177.998245 92.246986,177.793137 92.246986,177.793137 
	C95.468880,172.564972 98.903236,167.453537 101.856934,162.078003 
	C105.269608,155.867188 109.798058,150.606567 114.857285,145.792587 
	C117.070892,143.686279 119.660980,144.041351 120.769676,147.137787 
	C123.791389,155.576950 126.559860,164.112091 128.223907,172.943573 
	C128.731689,175.638550 128.041580,178.144043 126.390091,180.475464 
	C109.297424,204.605331 95.389198,230.561340 85.174286,258.209747 
	C78.179085,277.143433 73.076675,296.812469 69.232635,316.733704 
	C67.415260,326.151978 64.646034,335.349060 63.830933,345.008240 
	C63.366474,350.512177 63.495583,355.974670 63.384857,361.451904 
	C63.293941,365.949005 62.670258,370.373474 62.290089,374.821686 
	C61.765511,380.959656 62.385029,387.215118 62.819065,393.398834 
	C62.906410,394.643280 63.414494,395.966919 63.308743,397.278625 
	C63.196899,398.665802 63.930641,400.483704 61.999977,401.170532 
	C60.158840,401.825562 59.606472,400.117615 58.488243,399.185699 
	C56.120029,397.212006 53.800388,394.975128 49.875713,394.124451 
	C52.850971,398.177338 57.134148,399.759430 60.115864,402.813171 
	C61.840729,404.579681 63.647423,406.266693 65.429573,407.976715 
	C66.564781,409.066040 66.679741,410.664459 66.048111,411.673859 
	C60.072716,421.223145 62.669701,431.368622 64.714188,441.019897 
	C67.720543,455.211853 72.040276,469.125580 75.833633,483.281433 
	C77.035263,482.553284 76.554733,481.658234 76.661057,480.935699 
	C76.829254,479.792786 76.694893,478.467743 78.221886,478.174347 
	C79.801498,477.870819 80.044205,479.165771 80.542191,480.225037 
	C81.539665,482.346680 82.090897,484.567474 82.649574,486.840851 
	C83.371986,489.780487 83.223839,491.780548 80.224373,491.856659 
	C79.604141,500.928345 86.875275,505.848328 90.126411,512.763184 
	C94.370827,521.790588 96.394707,531.739014 101.962364,540.351318 
	C110.638130,553.771423 120.002151,566.587341 130.467636,578.687134 
	C139.178757,588.758484 147.998047,598.697815 157.804855,607.687744 
	C164.163757,613.517029 171.412674,618.415222 177.482544,624.507935 
	C182.825684,629.871094 188.444214,634.405090 195.379089,637.434204 
	C198.732559,638.898926 198.999237,640.990662 194.958160,643.257935 
	C198.020615,644.474854 200.644348,646.216187 203.407074,646.475159 
	C209.891449,647.083069 214.831299,650.836182 220.134796,653.809082 
	C223.727478,655.822998 224.622726,660.860229 222.136520,664.020691 
	C229.422089,662.915161 235.726364,659.844177 242.217926,657.381226 
	C242.946014,657.104980 243.610275,656.451172 244.105347,655.817261 
	C244.933243,654.757202 244.670334,652.431030 246.875824,653.033630 
	C248.801437,653.559753 249.390137,655.578979 250.039780,657.199707 
	C250.803635,659.105286 249.632980,660.420898 247.913025,661.096130 
	C245.069321,662.212585 243.920135,664.874573 241.869247,667.099121 
	C248.003555,671.025208 254.493027,673.563843 260.986237,676.010864 
	C274.513275,681.108704 287.725922,687.486633 301.864502,690.380493 
	C315.887115,693.250549 329.095215,698.620178 342.964600,701.784607 
	C347.927216,702.916870 352.118683,705.620789 356.383575,709.656982 
	C356.288818,704.297302 359.338470,704.108521 363.091492,704.228699 
	C381.952515,704.832642 400.722809,704.415405 419.537842,702.002563 
	C437.582367,699.688538 455.212616,696.366333 472.089264,689.496643 
	C473.676788,688.850342 475.593994,688.012390 476.608032,689.714722 
	C477.870605,691.834351 475.783630,692.871948 474.313416,693.971558 
	C470.782623,696.612183 466.670013,697.956116 462.589111,699.393616 
	C460.737030,700.045959 458.721741,700.382446 456.575562,702.559875 
	C463.748962,701.805420 469.812836,699.869995 475.582550,697.286377 
	C479.388916,695.581909 483.276611,694.174622 487.170166,692.753540 
	C489.832977,691.781677 491.994141,691.053833 493.091095,687.624512 
	C494.270935,683.936035 498.835205,683.117981 502.145050,682.135681 
	C520.159302,676.789368 536.204102,667.132629 553.052490,659.270935 
	C560.515991,655.788391 567.990417,653.010498 576.475708,652.519043 
	C574.567444,650.336914 573.665771,647.911255 576.153198,646.272400 
	C583.146790,641.664978 588.302246,634.902344 596.181274,631.122070 
	C604.304016,627.224792 611.025574,620.634094 617.020752,613.903748 
	C625.528992,604.352234 635.676270,596.435852 643.652283,586.403198 
	C651.811890,576.139587 659.732849,565.706848 666.728149,554.598694 
	C667.788635,552.914734 668.945496,551.288574 670.114502,549.676697 
	C671.090393,548.331055 673.172668,546.896851 673.006836,545.757690 
	C671.862488,537.893066 679.272339,535.233276 682.339966,530.008484 
	C685.789124,524.133850 688.219055,517.767029 691.787170,512.002747 
	C694.646790,507.383026 699.781189,503.968170 700.358948,498.212128 
	C700.759827,494.217285 702.382385,491.711121 705.061157,490.333374 
	C703.826355,482.862183 707.943848,476.899841 709.351807,470.495941 
	C710.783752,463.982697 711.135254,456.551666 719.407166,452.646576 
	C714.696472,451.479279 714.635010,449.221191 714.998657,446.005524 
	C716.170593,435.644287 717.284424,425.280396 718.556885,414.926666 
	C719.930786,403.746979 720.639709,392.474304 721.283936,381.221893 
	C721.528564,376.948517 720.785461,372.618561 720.471497,368.004669 
	C719.173096,367.601654 717.602356,369.981354 716.338684,368.127258 
	C715.216797,366.481201 714.994995,363.783447 715.986816,362.936920 
	C720.886047,358.755707 717.860229,353.825348 717.366394,349.478363 
	C715.816284,335.834412 712.766968,322.432007 709.899963,309.000519 
	C709.111511,305.306702 707.091492,303.082153 704.732056,300.864777 
	C700.715515,297.090118 695.915833,294.360474 691.258301,291.457153 
	C688.338806,289.637299 685.398010,287.793396 684.640381,283.642181 
	C693.271667,280.261475 698.751099,287.256927 706.071045,289.520386 
	C705.215637,282.682343 703.193237,276.627014 700.954834,270.708923 
	C692.596985,248.611954 681.875427,227.593903 670.826050,206.769943 
	C665.544373,196.815994 659.349976,187.334290 653.307007,177.804840 
	C651.818726,175.457825 651.316589,173.181885 651.838501,170.742828 
	C653.121460,164.747040 654.630920,158.797882 656.140381,152.853088 
	C656.996765,149.480240 658.138245,146.271820 662.713684,147.574768 
	C662.903992,144.391983 660.757019,141.970093 662.073914,139.248169 
	C664.950317,137.929108 665.989441,140.074738 667.079590,141.910934 
	C671.569214,149.473709 676.009216,157.065948 680.735352,164.818665 
	C681.003174,164.989990 680.977295,164.953644 680.977295,164.953644 
z"/>
<path fill="#000000" opacity="1.000000" stroke="none" 
	d="
M405.098999,303.976868 
	C420.074585,335.070221 437.309814,364.593353 451.792694,395.512543 
	C460.613739,414.344421 466.704041,433.949036 466.028595,455.042633 
	C465.124817,483.266083 452.950684,505.701050 429.526947,521.290588 
	C415.765381,530.449585 400.148865,533.359680 383.406342,531.620300 
	C369.405579,530.165771 356.717285,526.042358 345.851990,517.251953 
	C326.213867,501.364044 315.615448,480.954437 314.500610,455.331055 
	C313.579681,434.164246 319.811371,415.016022 328.311401,396.251099 
	C341.094910,368.029907 356.918152,341.353760 370.478180,313.527252 
	C375.653870,302.906250 380.555023,292.151611 385.704437,281.517548 
	C386.575134,279.719513 386.981750,277.012970 389.862305,277.200043 
	C392.536469,277.373718 393.031067,279.909973 393.975159,281.757721 
	C397.686707,289.022156 401.288788,296.342499 405.098999,303.976868 
z"/>
<path fill="#000000" opacity="1.000000" stroke="none" 
	d="
M387.514587,57.182499 
	C377.180481,56.790127 367.704895,59.692734 358.016632,60.903904 
	C353.336823,61.488949 348.344238,62.811729 345.114288,56.457462 
	C351.243042,55.151134 357.576904,55.841843 363.067871,52.522312 
	C360.008026,51.289127 357.103943,51.593121 353.952881,51.987125 
	C337.803925,54.006378 322.085236,58.377216 306.072418,60.819626 
	C291.200958,63.087944 277.545013,69.579002 262.709686,71.560638 
	C261.791229,71.683319 260.928467,72.398575 260.090363,72.919464 
	C253.039413,77.301773 245.878860,81.406822 237.805374,83.737724 
	C235.450500,84.417603 233.306503,85.883308 231.190277,88.054878 
	C236.509277,90.191399 234.847687,92.667419 231.565063,95.161072 
	C231.039658,95.560196 230.625488,96.153625 230.050766,96.431618 
	C227.644928,97.595299 225.031845,101.063843 222.618790,98.463165 
	C220.021805,95.664253 224.337189,94.017876 225.993240,91.321960 
	C220.339798,93.115204 216.325180,96.795326 211.374527,98.687973 
	C208.476608,99.795860 205.687439,100.895409 202.766220,100.279556 
	C196.039215,98.861374 189.269653,99.525986 182.529022,99.453072 
	C176.144028,99.384010 171.268906,95.913483 166.870209,92.285942 
	C163.635391,89.618217 166.983917,86.657173 169.041992,84.307785 
	C162.579788,77.676010 162.595291,77.690895 169.341476,70.663986 
	C170.348755,69.614799 171.131577,68.350136 171.860672,67.392166 
	C173.984390,67.126854 174.328766,68.748222 175.149246,69.674072 
	C178.002197,72.893364 180.603485,74.223030 184.900436,71.198555 
	C189.637009,67.864639 195.442383,66.323029 201.005432,64.606644 
	C204.456665,63.541824 205.014511,64.226952 205.602554,69.445602 
	C211.698486,67.170990 217.735168,64.905487 223.784332,62.673801 
	C224.821960,62.291000 225.570892,61.687931 225.565826,60.553520 
	C225.539337,54.618546 230.197937,52.681393 234.296127,53.068489 
	C246.514664,54.222599 255.222412,46.373314 265.246429,42.083694 
	C273.250153,38.658634 281.012238,35.117992 289.980072,35.638245 
	C293.939362,35.867943 297.582062,35.608158 299.215759,30.797012 
	C299.835480,28.971973 302.652649,27.452530 303.847473,29.869463 
	C305.315216,32.838551 307.147736,31.924517 309.146515,31.668043 
	C319.818848,30.298616 330.233215,27.493214 341.003693,26.495644 
	C354.920532,25.206661 368.824097,24.461859 382.789185,24.656822 
	C385.788177,24.698690 388.788818,24.626457 391.787598,24.675358 
	C394.552124,24.720440 397.845673,23.813482 397.843903,28.369600 
	C407.426544,26.268185 416.290497,23.826029 425.543549,24.708723 
	C439.550385,26.044903 453.641937,26.864384 467.004486,31.992329 
	C469.974396,33.132042 473.475891,34.841156 474.754608,29.566364 
	C479.158356,34.021572 479.192688,33.873608 488.503723,36.034973 
	C503.883911,39.605171 518.779724,44.718006 533.386963,50.685787 
	C551.703491,58.169003 569.119629,67.402016 586.183472,77.388260 
	C591.579346,80.546089 595.951904,84.847397 600.877991,88.511520 
	C602.963745,90.062927 604.646667,92.092758 603.975708,94.844482 
	C603.242737,97.850288 600.531860,98.998589 597.854736,99.161667 
	C591.718750,99.535439 585.497986,98.998863 579.419861,99.730728 
	C569.547180,100.919502 563.610962,93.033623 555.540649,90.116287 
	C547.790833,87.314827 541.086548,81.986435 532.866455,80.070244 
	C530.768433,79.581177 529.314331,78.423210 529.900452,75.767212 
	C530.378601,73.600479 528.706909,72.473930 526.996460,72.557076 
	C514.540222,73.162567 504.067810,66.431435 492.649017,63.285240 
	C477.740997,59.177662 462.674255,56.254131 447.362732,54.420536 
	C427.740143,52.070686 408.013641,51.154495 388.280945,50.474209 
	C383.660248,50.314907 379.010895,50.986580 374.301910,51.782700 
	C378.545593,52.183640 382.788727,52.590816 387.033386,52.981525 
	C388.226501,53.091343 389.506775,53.209541 389.834747,54.582436 
	C390.175262,56.007866 389.065186,56.619881 387.514587,57.182499 
z"/>
<path fill="#000000" opacity="1.000000" stroke="none" 
	d="
M377.650330,578.159973 
	C376.637817,570.084534 376.493439,562.445923 376.686859,554.794373 
	C376.732544,552.987793 376.471436,550.994934 379.060791,550.576660 
	C385.449036,549.544678 391.851288,548.588318 398.311035,549.801758 
	C400.792328,550.267944 401.805664,551.995972 401.748688,554.544678 
	C401.540283,563.862976 401.824036,573.211121 401.183289,582.497070 
	C399.753601,603.216125 400.967804,624.065308 398.209473,644.696960 
	C396.965515,654.001404 396.200684,663.418091 393.693787,672.466309 
	C390.873047,673.167480 390.267090,671.305176 389.808746,669.535095 
	C385.736603,653.808655 382.542480,638.005371 381.401001,621.676270 
	C380.398132,607.329224 378.847839,592.988037 377.650330,578.159973 
z"/>
<path fill="#000000" opacity="1.000000" stroke="none" 
	d="
M293.453064,488.801086 
	C295.493042,495.376221 294.236908,501.780823 294.986298,508.060944 
	C295.923248,515.912476 297.006012,523.908752 296.295990,531.912476 
	C296.159637,533.449158 296.890320,535.460999 294.633850,536.115601 
	C292.752625,536.661316 291.362518,535.604919 290.351349,534.219788 
	C286.096558,528.391296 280.420105,523.923096 275.564056,518.670471 
	C273.636475,516.585510 272.619812,514.439575 272.639343,511.555389 
	C272.730591,498.075012 271.986450,484.543304 272.956360,471.132324 
	C273.504639,463.551300 272.571564,455.818787 274.576874,448.335510 
	C275.046600,446.582672 273.969696,444.091705 277.097229,443.760773 
	C280.110779,443.441895 282.089630,444.479187 283.457184,447.337646 
	C286.295807,453.271149 287.122955,459.736023 288.689789,465.992615 
	C290.539581,473.379333 292.490601,480.763336 293.453064,488.801086 
z"/>
<path fill="#000000" opacity="1.000000" stroke="none" 
	d="
M502.532684,527.452148 
	C498.631897,531.369324 494.987061,535.028625 491.329773,538.675537 
	C490.367279,539.635376 489.301605,540.595337 487.829681,540.022888 
	C486.226013,539.399231 486.567505,537.872437 486.562439,536.576965 
	C486.490692,518.192322 485.596008,499.731873 488.827545,481.536926 
	C490.444611,472.432159 493.150146,463.478058 495.994141,454.659210 
	C496.879028,451.915344 500.562012,450.450104 503.462738,451.031525 
	C506.274872,451.595123 506.138245,454.862396 506.277069,457.264343 
	C507.025574,470.213715 507.670349,483.165863 507.374268,496.149719 
	C507.222382,502.811249 507.156555,509.486298 507.410583,516.141541 
	C507.583710,520.677612 506.117676,524.256531 502.532684,527.452148 
z"/>
<path fill="#000000" opacity="1.000000" stroke="none" 
	d="
M431.153992,549.576782 
	C432.680206,537.862061 438.201294,531.769592 447.405670,531.494385 
	C448.685852,533.280884 449.075195,535.447266 449.150787,537.556274 
	C449.614410,550.487915 450.015991,563.422668 450.302856,576.359436 
	C450.452606,583.115295 444.774048,586.637207 441.413757,591.398254 
	C439.420380,594.222595 436.428345,596.249451 434.522705,599.243774 
	C433.598053,600.696594 432.066345,601.605652 430.220398,601.016968 
	C428.294342,600.402771 428.793182,598.616821 428.704041,597.209351 
	C428.419250,592.711548 428.839294,588.254944 429.645569,583.828308 
	C431.687469,572.617859 429.932098,561.254028 431.153992,549.576782 
z"/>
<path fill="#000000" opacity="1.000000" stroke="none" 
	d="
M332.739105,564.870728 
	C334.634460,553.444336 332.904022,542.282349 334.031403,531.288696 
	C341.623230,531.359192 347.842102,537.307495 349.164520,546.055786 
	C351.537750,561.755493 352.000000,577.641724 353.250061,593.449585 
	C353.396637,595.303162 354.582916,598.280640 351.564026,598.934509 
	C348.841034,599.524292 348.909485,596.554321 348.021454,594.932800 
	C346.251862,591.701599 344.275635,588.569824 341.138031,586.554138 
	C335.658325,583.033691 332.618835,578.524597 333.567566,571.684814 
	C333.850922,569.642029 333.059875,567.450195 332.739105,564.870728 
z"/>
<path fill="#000000" opacity="1.000000" stroke="none" 
	d="
M115.540726,535.596802 
	C116.987625,538.045532 118.209763,540.205261 119.433350,542.364136 
	C120.126129,543.586548 120.693001,544.964966 119.247200,545.881470 
	C118.051865,546.639160 116.576569,546.380554 115.577568,545.305359 
	C114.002808,543.610535 112.363533,541.917297 111.112617,539.989136 
	C99.515007,522.112305 89.755653,503.415009 85.383224,482.293396 
	C84.553246,478.284058 83.006615,474.468750 81.126305,470.773651 
	C77.746735,464.132355 76.806656,456.908691 76.720459,449.555054 
	C76.703705,448.126343 76.524757,446.262115 78.743011,446.268036 
	C80.590576,446.272949 81.036873,447.712921 81.402237,449.305084 
	C83.140671,456.880768 84.499603,464.589325 86.889114,471.960266 
	C91.896599,487.407013 97.513100,502.646332 104.992218,517.130188 
	C108.194656,523.331909 111.304466,529.571899 115.540726,535.596802 
z"/>
<path fill="#000000" opacity="1.000000" stroke="none" 
	d="
M681.019043,165.005600 
	C679.126770,161.347733 677.151672,157.706833 675.343811,153.984695 
	C674.620178,152.494904 672.460327,150.697876 674.623169,149.218750 
	C676.718994,147.785507 678.133423,150.010895 679.600525,151.331940 
	C683.713867,155.035843 686.945862,159.475693 690.136719,163.929977 
	C694.370911,169.840805 698.371094,175.919373 702.608887,181.827545 
	C703.970276,183.725525 705.276489,185.650925 703.293274,187.521774 
	C701.309082,189.393539 699.622925,187.627640 698.239746,186.156265 
	C692.127869,179.654602 686.821777,172.502548 681.258545,165.143295 
	C680.977295,164.953644 681.003174,164.989990 681.019043,165.005600 
z"/>
<path fill="#000000" opacity="1.000000" stroke="none" 
	d="
M91.955261,178.104538 
	C87.488052,182.024536 83.269928,185.995575 76.776810,185.752304 
	C73.309898,185.622406 73.370255,189.373093 71.784607,191.281357 
	C70.579643,192.731461 69.647446,194.896301 67.689468,193.373108 
	C65.934250,192.007629 66.248886,189.950974 68.346855,188.433411 
	C69.221626,187.800644 70.069618,186.701172 70.297966,185.673508 
	C71.891678,178.501434 78.172577,174.942673 82.351242,169.778076 
	C84.293793,167.377167 86.962906,165.169266 89.938454,166.063660 
	C93.308174,167.076553 91.814735,170.850723 92.309662,173.443954 
	C92.522873,174.561050 92.327629,175.756119 92.282463,177.354446 
	C92.246986,177.793137 92.049797,177.998245 91.955261,178.104538 
z"/>
<path fill="#000000" opacity="1.000000" stroke="none" 
	d="
M619.552734,594.458984 
	C623.975769,591.263672 628.509521,588.760742 631.131653,584.053650 
	C631.944275,582.594849 633.369995,581.179626 635.190735,582.196594 
	C636.962341,583.186035 636.282715,585.081482 635.919189,586.676819 
	C634.469299,593.040527 630.889648,597.405701 624.788147,600.197754 
	C619.164368,602.771240 614.143921,606.729614 606.106506,607.225647 
	C608.998962,600.369080 614.869873,598.235657 619.552734,594.458984 
z"/>
<path fill="#000000" opacity="1.000000" stroke="none" 
	d="
M142.764526,659.930298 
	C141.064850,657.090942 142.133179,654.970459 143.990555,653.445251 
	C146.179413,651.647827 148.020279,653.361084 149.596100,654.826721 
	C152.167709,657.218506 155.047531,659.000854 158.305344,660.356506 
	C161.179764,661.552551 163.483826,663.587769 162.861801,667.173584 
	C162.153580,671.256287 158.808624,670.144409 156.136475,670.345764 
	C148.731796,670.903564 145.942886,665.450684 142.764526,659.930298 
z"/>
<path fill="#000000" opacity="1.000000" stroke="none" 
	d="
M579.247314,694.171875 
	C584.781555,690.508362 589.971436,686.976929 595.283142,683.639343 
	C596.704468,682.746277 597.056396,681.325439 597.935120,680.173035 
	C599.096130,678.650391 600.815552,678.162109 602.311096,679.239441 
	C604.056519,680.496704 602.653076,681.744934 601.779480,682.971558 
	C595.531311,691.744324 586.245117,696.521240 577.241577,701.651794 
	C575.632019,702.569031 573.813293,702.842773 572.163818,700.987976 
	C572.918030,697.247437 576.821350,696.681458 579.247314,694.171875 
z"/>
<path fill="#000000" opacity="1.000000" stroke="none" 
	d="
M500.511719,728.457336 
	C509.581848,725.040161 518.278625,721.771912 526.962280,718.469238 
	C528.547852,717.866333 530.450684,716.951721 531.446533,718.726868 
	C532.630066,720.836548 530.819275,722.102295 529.064331,722.854553 
	C521.331238,726.169250 513.991760,730.527893 505.527313,731.922119 
	C503.903351,732.189575 502.233032,732.239929 500.582672,732.258362 
	C499.602844,732.269226 498.488647,732.144653 498.201874,730.922852 
	C497.839539,729.378845 498.935394,728.913513 500.511719,728.457336 
z"/>
<path fill="#000000" opacity="1.000000" stroke="none" 
	d="
M452.168335,745.013184 
	C450.477417,744.342529 448.616669,744.191406 449.006989,742.087891 
	C449.287781,740.574463 450.687073,740.062622 451.965149,739.799500 
	C459.759949,738.194824 467.365631,735.933716 474.907135,733.422913 
	C476.260834,732.972290 478.004333,732.105164 478.744751,734.105469 
	C479.426178,735.946472 477.778625,736.758057 476.430511,737.373474 
	C473.261658,738.820007 470.083923,740.268372 466.824738,741.488892 
	C464.437683,742.382690 462.294556,743.430054 461.143799,746.293884 
	C458.328247,744.314453 455.475006,744.336121 452.168335,745.013184 
z"/>
<path fill="#000000" opacity="1.000000" stroke="none" 
	d="
M678.556763,519.744202 
	C679.219116,521.013611 679.557434,522.260803 678.603149,522.791931 
	C673.797241,525.466980 669.040833,528.320923 663.980042,530.420227 
	C659.836914,532.138855 655.054077,528.861755 652.256836,523.256348 
	C652.669617,522.598816 653.314026,522.391907 653.954285,522.703003 
	C659.720398,525.505310 664.792297,523.836060 669.830811,520.616394 
	C672.344849,519.010010 675.071411,516.673584 678.556763,519.744202 
z"/>
<path fill="#000000" opacity="1.000000" stroke="none" 
	d="
M374.832031,747.433350 
	C372.534363,747.228333 370.964783,746.401123 371.365967,744.348694 
	C371.806915,742.092957 373.986420,742.592285 375.500916,742.803955 
	C383.655914,743.943604 391.712494,745.852356 400.019745,745.759766 
	C401.443756,745.743896 402.681732,746.213196 402.893219,747.877747 
	C403.116394,749.634155 401.815613,749.945374 400.525391,750.480652 
	C395.542938,752.547974 390.692993,750.289307 385.814392,750.010376 
	C382.252869,749.806580 378.761017,748.384216 374.832031,747.433350 
z"/>
<path fill="#000000" opacity="1.000000" stroke="none" 
	d="
M108.945297,613.890137 
	C114.064728,618.644470 118.961937,623.096191 123.718803,627.693176 
	C125.333168,629.253296 127.656403,631.444275 125.395454,633.545227 
	C123.164810,635.617981 121.024597,633.194824 119.599625,631.494690 
	C115.232094,626.283508 108.709091,623.296082 105.139969,617.274963 
	C104.275124,615.816040 102.975861,614.330933 104.372131,612.828186 
	C105.903603,611.179871 107.364388,612.614319 108.945297,613.890137 
z"/>
<path fill="#000000" opacity="1.000000" stroke="none" 
	d="
M75.331718,370.003479 
	C75.332176,376.922607 75.332176,383.342834 75.332176,389.849579 
	C70.988853,390.010498 70.776588,387.454010 70.747818,385.204163 
	C70.634911,376.374695 70.681259,367.542877 70.714500,358.712097 
	C70.722382,356.619507 71.233093,354.744904 74.617920,353.963898 
	C76.059959,359.132599 75.005760,364.392273 75.331718,370.003479 
z"/>
<path fill="#000000" opacity="1.000000" stroke="none" 
	d="
M103.721786,232.849625 
	C106.194664,229.711777 108.451180,226.862106 110.798454,224.089279 
	C111.711365,223.010880 113.006371,222.419525 114.356392,223.179474 
	C115.543327,223.847610 115.313240,225.215363 115.267738,226.334320 
	C115.228477,227.299774 115.182121,228.459961 114.654640,229.178619 
	C111.436180,233.563614 108.294670,238.031952 103.644997,241.129120 
	C102.605217,241.821732 101.572006,242.566116 100.535095,241.723862 
	C99.372360,240.779404 99.462723,239.240250 100.139374,238.058090 
	C101.121941,236.341492 102.393433,234.790268 103.721786,232.849625 
z"/>
<path fill="#000000" opacity="1.000000" stroke="none" 
	d="
M244.048172,716.194336 
	C236.199066,713.246460 228.987778,709.948669 222.633255,704.608459 
	C225.076355,701.791748 227.234360,702.809265 229.272797,703.850464 
	C234.858536,706.703674 240.417068,709.611816 245.944366,712.576538 
	C247.287781,713.296997 249.626480,713.762756 248.763397,715.906067 
	C247.864471,718.138489 245.922119,716.419128 244.048172,716.194336 
z"/>
<path fill="#000000" opacity="1.000000" stroke="none" 
	d="
M550.614624,715.062744 
	C547.822937,715.923706 544.505188,717.944763 543.316406,714.819092 
	C542.050964,711.491882 546.099365,710.988464 548.317810,709.997803 
	C551.763428,708.459167 555.348816,707.216370 558.925964,705.997925 
	C560.392334,705.498474 561.941528,704.437012 564.162170,706.125183 
	C561.389221,711.545715 555.204346,711.881104 550.614624,715.062744 
z"/>
<path fill="#000000" opacity="1.000000" stroke="none" 
	d="
M35.882217,479.125427 
	C36.587612,480.500183 37.067829,481.545929 37.530148,482.599518 
	C38.687443,485.236969 38.861382,487.963043 36.349323,489.718414 
	C34.403099,491.078461 32.207832,490.188934 30.548454,488.537567 
	C28.109568,486.110474 27.959539,483.107208 29.491190,480.378143 
	C30.753424,478.129120 32.950184,476.788696 35.882217,479.125427 
z"/>
<path fill="#000000" opacity="1.000000" stroke="none" 
	d="
M148.126343,590.672852 
	C140.157913,589.004395 138.770676,586.712341 140.274338,577.769409 
	C145.987106,577.420715 146.807220,582.865723 149.489151,585.835571 
	C150.798737,587.285767 151.135345,589.525452 148.126343,590.672852 
z"/>
<path fill="#000000" opacity="1.000000" stroke="none" 
	d="
M686.278564,266.908081 
	C684.339294,273.285767 680.310364,269.372192 677.209717,269.150482 
	C675.350342,269.017517 673.762756,267.727905 673.922424,265.458405 
	C674.047668,263.677277 680.482056,260.507904 683.227478,260.773773 
	C687.071655,261.146057 686.157654,264.083923 686.278564,266.908081 
z"/>
<path fill="#000000" opacity="1.000000" stroke="none" 
	d="
M71.101151,594.382812 
	C67.690132,596.096069 65.371681,594.889343 63.543354,592.340637 
	C62.332184,590.652344 62.506828,588.961304 63.765781,587.320679 
	C65.448288,585.128113 67.621994,584.263672 70.315582,584.859924 
	C72.194275,585.275818 73.694756,586.203918 74.168465,588.248901 
	C74.789902,590.931824 73.383194,592.652893 71.101151,594.382812 
z"/>
<path fill="#000000" opacity="1.000000" stroke="none" 
	d="
M264.962524,726.336548 
	C261.840515,723.577209 256.645264,723.648682 255.738800,718.618103 
	C261.540131,717.350708 272.081726,722.922424 273.169739,727.699341 
	C270.260040,729.175232 267.826630,727.530151 264.962524,726.336548 
z"/>
<path fill="#000000" opacity="1.000000" stroke="none" 
	d="
M733.330811,572.253540 
	C726.785889,570.609375 727.046570,564.756165 724.477295,560.737793 
	C726.660828,559.183411 728.147522,559.514038 729.448364,560.814636 
	C731.081543,562.447632 732.820923,563.815857 734.875488,564.985168 
	C737.463989,566.458496 736.711975,570.361694 733.330811,572.253540 
z"/>
<path fill="#000000" opacity="1.000000" stroke="none" 
	d="
M708.315247,369.671051 
	C710.374817,369.241730 711.120728,370.115021 711.252808,371.683899 
	C711.570068,375.452576 711.862549,379.225006 711.244629,382.990143 
	C710.993469,384.520172 710.468384,386.044098 708.627197,386.054291 
	C706.545654,386.065826 705.523376,384.393860 705.836914,382.719574 
	C706.638428,378.439850 705.714539,373.872162 708.315247,369.671051 
z"/>
<path fill="#000000" opacity="1.000000" stroke="none" 
	d="
M705.791687,423.630554 
	C705.500183,420.354034 705.768677,417.628876 707.441589,415.174011 
	C708.189758,414.076233 709.161011,413.739136 710.406372,413.933411 
	C711.860046,414.160248 712.206055,415.230957 712.229370,416.446960 
	C712.273499,418.746613 712.491272,421.084167 712.162598,423.336761 
	C711.899109,425.142517 711.901672,427.680481 709.423950,428.017303 
	C706.733704,428.383026 706.675964,425.734222 705.791687,423.630554 
z"/>
<path fill="#000000" opacity="1.000000" stroke="none" 
	d="
M713.229004,204.174896 
	C710.256226,201.813385 709.014709,199.044052 711.007202,195.951828 
	C711.988831,194.428421 714.124878,193.545868 715.885681,194.685791 
	C717.945557,196.019348 719.761230,197.922409 720.122498,200.505020 
	C720.463867,202.946289 718.255066,203.368042 716.589722,203.955811 
	C715.686951,204.274445 714.632019,204.161636 713.229004,204.174896 
z"/>
<path fill="#000000" opacity="1.000000" stroke="none" 
	d="
M86.959305,284.967865 
	C85.181129,288.464447 85.410622,292.082703 84.322716,295.365173 
	C83.808426,296.916901 83.104385,298.344086 81.323006,297.964325 
	C79.272980,297.527222 79.673027,295.755005 80.141953,294.335846 
	C81.191444,291.159546 80.117165,287.725922 81.499176,284.568146 
	C82.104820,283.184296 82.342018,281.512543 84.089203,281.316772 
	C86.352119,281.063202 86.582672,282.983276 86.959305,284.967865 
z"/>
<path fill="#000000" opacity="1.000000" stroke="none" 
	d="
M182.222321,688.211182 
	C187.592728,689.144043 189.654251,692.341736 187.212860,695.289307 
	C185.796661,696.999084 183.879211,697.514648 181.836899,696.695435 
	C179.908585,695.921997 179.905624,694.140930 180.285904,692.461731 
	C180.606689,691.045166 180.587646,689.449707 182.222321,688.211182 
z"/>
<path fill="#000000" opacity="1.000000" stroke="none" 
	d="
M45.033806,245.812164 
	C43.544441,247.848572 45.580479,251.992294 42.211559,251.564301 
	C38.054859,251.036224 40.463982,247.426910 40.696575,245.114670 
	C40.907646,243.016266 41.498325,240.935730 42.116623,238.906723 
	C42.454147,237.799103 43.244949,236.798584 44.652576,237.015732 
	C46.161697,237.248520 46.151485,238.525955 46.273712,239.675308 
	C46.489178,241.701523 46.054684,243.602570 45.033806,245.812164 
z"/>
<path fill="#000000" opacity="1.000000" stroke="none" 
	d="
M464.462433,26.359034 
	C459.530212,29.722004 456.643951,25.812056 453.342194,23.787556 
	C452.422516,23.223661 452.397919,21.752722 453.392975,21.270300 
	C455.548798,20.225161 458.247253,19.982067 459.984894,21.438200 
	C461.627899,22.814974 466.288239,21.455465 464.462433,26.359034 
z"/>
<path fill="#000000" opacity="1.000000" stroke="none" 
	d="
M98.578247,152.494263 
	C100.247864,151.587616 101.623535,151.314392 102.955765,152.348785 
	C102.427139,158.855835 101.168541,160.255524 93.911491,162.148010 
	C94.423019,158.433105 95.158791,155.063385 98.578247,152.494263 
z"/>
<path fill="#000000" opacity="1.000000" stroke="none" 
	d="
M14.748428,409.116699 
	C14.001513,409.220490 13.674024,409.247131 13.346113,409.254211 
	C10.076499,409.324860 9.260403,406.950378 8.819896,404.454865 
	C8.570229,403.040436 8.537623,401.307556 10.512869,400.909973 
	C12.673147,400.475159 14.741229,400.476410 16.079668,402.808807 
	C17.443201,405.184937 18.193363,407.352173 14.748428,409.116699 
z"/>
<path fill="#000000" opacity="1.000000" stroke="none" 
	d="
M204.304520,628.933594 
	C209.181320,630.445496 211.102615,634.850525 214.408600,637.716919 
	C215.226624,638.426208 215.422043,639.524414 214.837936,640.437134 
	C214.186447,641.455078 212.922195,641.444702 212.201599,640.776245 
	C209.056778,637.858948 205.960297,634.876648 203.045242,631.733337 
	C202.273849,630.901611 202.425735,629.484131 204.304520,628.933594 
z"/>
<path fill="#000000" opacity="1.000000" stroke="none" 
	d="
M703.676025,585.660156 
	C704.833252,588.237061 703.799561,590.161682 702.836731,592.097107 
	C702.216614,593.343445 701.430725,594.447266 699.823792,594.130493 
	C698.186584,593.807861 696.505249,593.342651 695.956055,591.486145 
	C695.507202,589.968628 695.744446,588.533325 697.129700,587.481812 
	C698.989502,586.070007 700.845337,584.669067 703.676025,585.660156 
z"/>
<path fill="#000000" opacity="1.000000" stroke="none" 
	d="
M515.735107,665.662964 
	C517.903564,665.428711 519.886353,664.823303 521.022095,666.862000 
	C521.876404,668.395447 521.235474,669.714539 519.948547,670.802429 
	C517.155945,673.163025 514.262939,672.652344 511.041382,671.387939 
	C511.402740,668.426086 512.820984,666.657593 515.735107,665.662964 
z"/>
<path fill="#000000" opacity="1.000000" stroke="none" 
	d="
M65.643723,206.788513 
	C60.391251,208.401718 60.087463,203.647812 58.016197,201.412125 
	C57.295612,200.634338 57.972572,198.986343 59.486992,198.914795 
	C61.985039,198.796799 64.765541,199.076385 66.464752,200.754623 
	C67.986755,202.257904 67.839523,204.748001 65.643723,206.788513 
z"/>
<path fill="#000000" opacity="1.000000" stroke="none" 
	d="
M359.908936,699.377319 
	C358.213226,697.197510 359.123413,696.116760 360.925079,695.298950 
	C362.503418,694.582581 364.239502,694.380676 365.781891,694.821777 
	C367.754272,695.385803 371.178528,694.755981 370.874634,698.058899 
	C370.608856,700.947876 367.658691,700.264465 365.605957,700.301086 
	C363.808685,700.333130 361.947449,700.584839 359.908936,699.377319 
z"/>
<path fill="#000000" opacity="1.000000" stroke="none" 
	d="
M583.836060,67.693855 
	C583.669006,65.395782 584.147095,63.866398 586.457825,64.220314 
	C588.669678,64.559105 590.684814,65.547272 591.217590,67.938286 
	C591.596558,69.639252 592.075562,71.721451 590.235840,72.904686 
	C589.102051,73.633926 587.651428,73.404282 586.721497,72.121872 
	C585.757812,70.792931 584.835144,69.434181 583.836060,67.693855 
z"/>
<path fill="#000000" opacity="1.000000" stroke="none" 
	d="
M68.117416,164.035126 
	C66.578041,166.418961 64.770081,167.531494 62.576061,165.909393 
	C60.925133,164.688843 60.238113,162.663330 60.996906,160.601364 
	C61.695793,158.702194 63.492374,158.407166 65.132492,158.881882 
	C67.430473,159.547028 69.493965,160.675995 68.117416,164.035126 
z"/>
<path fill="#000000" opacity="1.000000" stroke="none" 
	d="
M548.063843,647.996948 
	C546.262756,649.573364 545.040649,652.106506 542.563660,650.550903 
	C541.218872,649.706299 541.598572,647.898743 542.343140,646.512024 
	C543.598083,644.174683 545.676636,642.293152 548.198425,642.982239 
	C552.016418,644.025391 549.297668,646.071655 548.063843,647.996948 
z"/>
<path fill="#000000" opacity="1.000000" stroke="none" 
	d="
M42.021435,264.127899 
	C41.457314,267.962128 40.234909,271.102142 37.001026,273.517120 
	C34.882763,270.544037 35.423111,267.951141 37.242847,265.350372 
	C38.421165,263.666321 39.522846,261.864838 42.021435,264.127899 
z"/>
<path fill="#000000" opacity="1.000000" stroke="none" 
	d="
M754.784119,418.785950 
	C754.778687,417.547699 754.550964,416.548340 754.937134,415.936188 
	C756.013489,414.229706 754.604797,411.284058 757.513184,410.589355 
	C758.421143,410.372467 759.139526,411.144592 759.150452,412.037628 
	C759.184021,414.782013 760.299255,417.797211 758.337219,420.148468 
	C757.241211,421.461853 755.615112,421.017242 754.784119,418.785950 
z"/>
<path fill="#000000" opacity="1.000000" stroke="none" 
	d="
M551.222900,644.297241 
	C551.800842,643.121704 552.272034,642.228088 552.967896,641.573425 
	C554.461487,640.168274 556.234802,639.144836 558.287537,640.193726 
	C559.467957,640.796814 559.413574,642.208008 558.991638,643.282715 
	C558.201782,645.294922 556.647217,646.379517 554.407104,646.291138 
	C553.105713,646.239807 551.702209,646.372192 551.222900,644.297241 
z"/>
<path fill="#000000" opacity="1.000000" stroke="none" 
	d="
M740.012695,555.858643 
	C738.151672,554.909912 737.199890,553.693420 738.227783,552.135071 
	C739.116943,550.787170 740.559265,551.336609 741.707031,552.167053 
	C742.233582,552.547974 742.618591,553.209045 743.188904,553.428894 
	C744.824585,554.059448 746.314331,554.714661 745.809631,556.891174 
	C745.573792,557.908203 744.974548,558.734192 743.880188,558.875549 
	C741.822754,559.141174 741.052795,557.602234 740.012695,555.858643 
z"/>
<path fill="#000000" opacity="1.000000" stroke="none" 
	d="
M217.400146,625.340210 
	C219.868317,627.052307 219.664688,628.829346 218.156891,630.523193 
	C217.136642,631.669312 215.713226,632.365112 214.262650,631.240417 
	C212.854279,630.148560 212.482452,628.531860 212.836578,626.826843 
	C213.374908,624.234985 215.210693,624.647156 217.400146,625.340210 
z"/>
<path fill="#000000" opacity="1.000000" stroke="none" 
	d="
M224.752960,640.357117 
	C228.497818,641.503174 228.176224,643.996643 226.908615,646.260742 
	C225.967621,647.941467 223.661041,647.804932 222.710480,646.516113 
	C220.944366,644.121399 221.161148,641.664429 224.752960,640.357117 
z"/>
<path fill="#000000" opacity="1.000000" stroke="none" 
	d="
M653.956543,553.996582 
	C655.994751,552.468750 657.707336,552.299561 658.849304,554.351807 
	C659.596497,555.694580 659.594299,557.306824 658.337708,558.453369 
	C657.120850,559.563660 655.445374,559.583496 654.143066,558.901428 
	C651.949036,557.752319 652.655151,555.962341 653.956543,553.996582 
z"/>
<path fill="#000000" opacity="1.000000" stroke="none" 
	d="
M748.170837,469.506287 
	C747.912720,467.420807 746.811584,465.141602 749.778931,465.008057 
	C751.466370,464.932068 753.040222,465.867615 753.238647,467.869812 
	C753.434937,469.850525 753.657410,472.130493 751.236511,472.890747 
	C748.778931,473.662506 748.829041,471.370453 748.170837,469.506287 
z"/>
<path fill="#000000" opacity="1.000000" stroke="none" 
	d="
M568.911377,630.981567 
	C570.335144,630.095032 571.409363,629.298767 572.614868,628.913025 
	C573.500854,628.629517 574.692505,628.794556 574.968689,630.028625 
	C575.505371,632.426514 573.300598,633.353638 572.192139,634.855774 
	C571.399658,635.929810 570.285950,636.138855 569.166138,635.432007 
	C567.362122,634.293213 567.559448,632.806396 568.911377,630.981567 
z"/>
<path fill="#000000" opacity="1.000000" stroke="none" 
	d="
M105.040756,144.685501 
	C106.016792,141.268250 108.854652,139.779892 110.829208,136.666290 
	C112.385460,140.578903 110.461945,142.869217 108.819862,144.968628 
	C108.000259,146.016495 106.287247,147.526154 105.040756,144.685501 
z"/>
<path fill="#000000" opacity="1.000000" stroke="none" 
	d="
M415.746918,757.791138 
	C415.900360,756.027893 415.349091,753.946472 417.575287,754.134033 
	C419.845398,754.325256 420.296265,756.724854 421.110931,758.394165 
	C421.634399,759.466797 422.078705,761.067566 420.559967,761.885193 
	C418.822876,762.820435 417.856476,761.362061 416.921204,760.274414 
	C416.416321,759.687256 416.148895,758.896057 415.746918,757.791138 
z"/>
<path fill="#000000" opacity="1.000000" stroke="none" 
	d="
M63.436272,560.667175 
	C62.712856,559.696777 62.085148,558.997498 62.004135,558.239868 
	C61.809853,556.422974 60.714394,553.784302 63.394268,553.329895 
	C65.541306,552.965881 66.665535,555.356262 67.079086,557.257385 
	C67.604454,559.672546 67.046776,561.655884 63.436272,560.667175 
z"/>
<path fill="#000000" opacity="1.000000" stroke="none" 
	d="
M721.501831,222.850433 
	C720.690796,222.099152 720.055115,221.574753 719.344910,221.186752 
	C718.318787,220.626068 717.897461,219.797302 718.219849,218.719543 
	C718.671814,217.208389 720.066589,216.184616 721.211670,217.134552 
	C723.102051,218.702850 726.228455,220.086426 725.048462,223.320816 
	C724.379272,225.155045 722.717285,224.761749 721.501831,222.850433 
z"/>
<path fill="#000000" opacity="1.000000" stroke="none" 
	d="
M695.866821,574.860962 
	C695.885437,572.416077 696.625793,570.957581 698.913208,570.820862 
	C700.425781,570.730469 701.440857,571.466919 701.908020,572.837524 
	C702.367188,574.184509 702.190552,575.464722 700.806030,576.231079 
	C698.936401,577.265991 697.111389,577.826233 695.866821,574.860962 
z"/>
<path fill="#000000" opacity="1.000000" stroke="none" 
	d="
M321.637268,740.587585 
	C322.922821,737.567566 326.026520,736.870056 327.708435,738.904724 
	C328.883087,740.325684 328.867126,741.691589 326.801025,742.149780 
	C325.020782,742.544556 323.220398,742.409180 321.637268,740.587585 
z"/>
<path fill="#000000" opacity="1.000000" stroke="none" 
	d="
M286.036896,671.849731 
	C285.138885,673.805969 283.855713,674.438843 282.268097,673.545410 
	C280.319580,672.448853 279.922394,670.565186 279.878906,668.355347 
	C283.339752,667.190735 285.231384,668.311401 286.036896,671.849731 
z"/>
<path fill="#000000" opacity="1.000000" stroke="none" 
	d="
M429.011719,746.439819 
	C427.021088,745.986938 424.725067,747.196777 423.997314,744.650818 
	C423.748932,743.781921 424.354279,743.112366 425.113129,742.623657 
	C426.663849,741.624756 428.292267,741.432068 429.790619,742.521729 
	C431.738342,743.938049 431.966034,745.374390 429.011719,746.439819 
z"/>
<path fill="#000000" opacity="1.000000" stroke="none" 
	d="
M262.988068,665.240845 
	C260.805603,665.090210 259.649994,664.212830 260.097778,662.395996 
	C260.638214,660.203247 262.641754,660.765015 264.187195,660.755371 
	C265.469574,660.747375 267.076263,660.769470 266.980194,662.647400 
	C266.870514,664.791870 265.053009,664.980164 262.988068,665.240845 
z"/>
<path fill="#000000" opacity="1.000000" stroke="none" 
	d="
M14.395191,449.019257 
	C14.775453,449.567291 15.013253,449.864838 15.019773,450.167328 
	C15.057588,451.921844 16.745174,454.237701 13.753443,455.048828 
	C12.304972,455.441528 11.039254,454.407379 10.960814,452.960846 
	C10.846292,450.848907 10.887296,448.482513 14.395191,449.019257 
z"/>
<path fill="#000000" opacity="1.000000" stroke="none" 
	d="
M16.753136,477.129395 
	C18.766901,479.637787 18.415348,481.696106 15.862817,482.894684 
	C14.490923,483.538910 13.191357,482.458984 13.012766,481.030518 
	C12.716948,478.664337 13.409306,476.775604 16.753136,477.129395 
z"/>
<path fill="#000000" opacity="1.000000" stroke="none" 
	d="
M661.816162,631.040955 
	C664.190735,633.969421 662.078003,634.933838 660.010742,635.728149 
	C658.801086,636.192871 657.501404,635.792053 657.506165,634.290039 
	C657.514038,631.827026 659.166443,630.922852 661.816162,631.040955 
z"/>
<path fill="#000000" opacity="1.000000" stroke="none" 
	d="
M490.438477,674.222900 
	C488.527985,674.304016 486.636139,675.137939 486.023773,672.826965 
	C485.722473,671.689758 486.460297,671.006958 487.522003,670.709473 
	C488.872803,670.330872 490.371918,669.121155 491.581787,670.516235 
	C492.660828,671.760498 492.510651,673.231323 490.438477,674.222900 
z"/>
<path fill="#000000" opacity="1.000000" stroke="none" 
	d="
M741.415588,493.603516 
	C741.042969,492.845154 740.761230,492.280121 740.923401,491.909119 
	C741.578308,490.411072 741.169983,488.059174 743.681396,487.938599 
	C745.256897,487.862915 745.451904,489.108887 745.402222,490.305115 
	C745.305481,492.631927 744.851013,494.664337 741.415588,493.603516 
z"/>
<path fill="#000000" opacity="1.000000" stroke="none" 
	d="
M646.836182,561.433411 
	C645.153442,562.656738 643.762085,562.703247 642.993958,560.937866 
	C642.522522,559.854553 642.795471,558.682007 643.765686,557.805664 
	C644.711609,556.951294 645.896118,556.596802 646.928833,557.243591 
	C648.723145,558.367310 647.452393,559.821411 646.836182,561.433411 
z"/>
<path fill="#000000" opacity="1.000000" stroke="none" 
	d="
M79.977249,334.761230 
	C79.735237,332.280823 79.810112,330.122498 82.616837,330.258575 
	C84.325211,330.341370 84.392731,332.086090 84.122208,333.344818 
	C83.641136,335.583099 82.546257,337.019623 79.977249,334.761230 
z"/>
<path fill="#000000" opacity="1.000000" stroke="none" 
	d="
M447.015259,688.569641 
	C445.947632,693.428223 443.534210,690.659607 440.736938,690.413940 
	C442.617310,687.108704 444.681732,687.720459 447.015259,688.569641 
z"/>
<path fill="#000000" opacity="1.000000" stroke="none" 
	d="
M396.934570,56.983093 
	C395.080078,57.534374 393.466827,59.005066 392.163605,57.053963 
	C391.809143,56.523319 391.898743,55.279049 392.297180,54.744076 
	C393.316833,53.374989 394.959076,53.577095 396.403778,53.867294 
	C398.302460,54.248672 398.242035,55.428680 396.934570,56.983093 
z"/>
<path fill="#000000" opacity="1.000000" stroke="none" 
	d="
M503.434631,27.331142 
	C501.860229,25.880119 501.014130,24.340273 503.012054,23.245462 
	C504.546326,22.404713 505.857452,23.516298 506.319946,25.064905 
	C506.997009,27.332045 505.915680,28.050423 503.434631,27.331142 
z"/>
<path fill="#000000" opacity="1.000000" stroke="none" 
	d="
M129.251770,562.954834 
	C130.246490,564.930908 131.097031,567.002258 128.768265,567.717041 
	C126.688042,568.355469 126.085175,566.163452 125.969147,564.601440 
	C125.815216,562.529175 126.800514,561.469910 129.251770,562.954834 
z"/>
<path fill="#000000" opacity="1.000000" stroke="none" 
	d="
M121.619904,77.837723 
	C119.471519,78.233406 117.773026,78.135132 118.234718,75.684006 
	C118.522827,74.154472 119.984528,73.717361 121.303940,74.093468 
	C123.633507,74.757523 123.375244,76.161362 121.619904,77.837723 
z"/>
<path fill="#000000" opacity="1.000000" stroke="none" 
	d="
M466.045258,62.834152 
	C464.098022,62.824219 462.469330,62.473335 463.193237,60.413761 
	C463.747711,58.836292 465.514404,58.281189 466.882050,59.092751 
	C469.071503,60.392002 468.002686,61.715740 466.045258,62.834152 
z"/>
<path fill="#000000" opacity="1.000000" stroke="none" 
	d="
M537.865723,85.443047 
	C538.943237,89.231026 536.476257,88.295143 534.878357,87.944656 
	C533.470581,87.635872 532.386841,86.276962 533.242065,84.956406 
	C534.562134,82.918076 536.265686,83.552841 537.865723,85.443047 
z"/>
</svg>