<svg version="1.1" id="Layer_1" xmlns="http://www.w3.org/2000/svg" xmlns:xlink="http://www.w3.org/1999/xlink" x="0px" y="0px"
	 width="1024px" height="1024px" viewBox="64 64 896 896" enable-background="new 0 0 1024 1024" xml:space="preserve">
<path fill="#000000" opacity="1.000000" stroke="none" 
	d="
M1025.000000,41.531342 
	C1023.931274,40.165180 1024.135742,38.131123 1024.126709,36.145382 
	C1024.084717,26.980320 1023.804688,17.804766 1024.157104,8.654049 
	C1024.352661,3.577546 1022.644226,1.994521 1017.637268,2.082410 
	C1004.645325,2.310467 991.644836,1.996827 978.647949,2.015992 
	C734.347107,2.376234 490.046295,2.500114 245.745209,2.094055 
	C166.423172,1.962212 87.100441,2.257032 7.778419,2.122601 
	C2.046130,2.112886 2.174290,4.915015 2.175072,8.896762 
	C2.189352,81.553589 2.108158,154.210434 2.124568,226.867249 
	C2.183886,489.499481 2.272015,752.131714 2.349210,1014.763916 
	C2.351809,1023.606750 2.351438,1023.640869 11.120354,1023.641052 
	C346.576721,1023.648010 682.033081,1023.635925 1017.489380,1023.762268 
	C1022.771484,1023.764343 1023.778748,1022.012512 1023.774109,1017.158447 
	C1023.736938,978.164490 1023.960205,939.170288 1024.135254,900.176270 
	C1024.143433,898.359375 1024.450195,896.543823 1024.808960,894.363831 
	C1025.000000,937.660828 1025.000000,981.321594 1025.000000,1025.000000 
	C1024.839233,1025.000000 1024.678467,1025.000000 1024.517700,1025.000000 
	C683.396973,1025.000000 342.276184,1025.000000 1.077724,1025.000000 
	C1.077724,683.764465 1.077724,342.528839 1.077724,1.146633 
	C342.333282,1.146633 683.666626,1.146633 1025.000000,1.146633 
	C1025.000000,14.400127 1025.000000,27.731405 1025.000000,41.531342 
z"/>
<path fill="#000000" opacity="1.000000" stroke="none" 
	d="
M1025.000000,584.531372 
	C1023.860474,582.999084 1024.128784,580.791626 1024.128296,578.644897 
	C1024.115845,511.155579 1024.115601,443.666229 1024.141602,376.176910 
	C1024.142334,374.360474 1024.452515,372.544189 1024.809082,370.363892 
	C1025.000000,441.354218 1025.000000,512.708435 1025.000000,584.531372 
z"/>
<path fill="#000000" opacity="1.000000" stroke="none" 
	d="
M1025.000000,154.531342 
	C1024.188843,153.652161 1024.142090,152.147278 1024.141724,150.645340 
	C1024.135864,127.489014 1024.131104,104.332687 1024.158569,81.176392 
	C1024.159912,80.026695 1024.458496,78.877350 1024.809326,77.363922 
	C1025.000000,102.687561 1025.000000,128.375122 1025.000000,154.531342 
z"/>
<path fill="#000000" opacity="1.000000" stroke="none" 
	d="
M604.549927,430.404358 
	C612.023743,428.648560 619.207581,429.686005 626.331543,428.917511 
	C639.828003,427.461578 653.498962,427.691437 667.034180,426.501587 
	C675.019226,425.799622 682.967285,425.747070 690.942261,425.646423 
	C693.786865,425.610535 697.089661,425.252289 698.634399,428.027710 
	C700.256653,430.942444 697.685547,433.412933 696.109741,435.582428 
	C682.159729,454.787964 667.936462,473.796448 654.105225,493.086395 
	C644.535461,506.432831 635.593323,520.227661 626.128235,533.651062 
	C611.110901,554.948608 596.179443,576.316467 580.691345,597.269958 
	C555.223755,631.724609 530.448303,666.658752 506.920715,702.458191 
	C481.009338,741.884827 455.124847,781.310852 427.825989,819.814148 
	C414.483246,838.633179 402.259613,858.275574 391.583344,878.836853 
	C384.617889,892.251465 377.615204,905.695007 368.676117,917.993225 
	C365.908936,921.800354 362.389252,924.809753 359.148010,928.123962 
	C357.295197,930.018494 355.298889,929.597839 353.039734,928.625122 
	C351.829620,922.983215 353.774506,917.762146 355.643280,912.681091 
	C365.846069,884.940002 376.550751,857.379150 386.434052,829.526123 
	C395.545288,803.848938 403.994263,777.932312 412.454742,752.029602 
	C427.098328,707.196716 442.984344,662.795715 458.603729,618.301758 
	C466.848663,594.815002 475.114563,571.332825 484.554382,548.286926 
	C485.054443,547.065979 485.422119,545.772522 485.693604,544.479675 
	C486.599365,540.166016 485.456879,539.134460 481.050995,539.677673 
	C468.222412,541.259216 455.376465,542.573364 442.465729,543.457275 
	C422.923340,544.795288 403.410004,546.135925 383.808319,546.678345 
	C371.737427,547.012451 359.572083,546.885498 347.527252,548.364868 
	C342.435913,548.990173 337.345490,549.647766 332.280365,550.452515 
	C329.483490,550.896851 326.413635,552.106689 324.433655,549.332764 
	C322.483490,546.600647 325.530640,544.764526 326.688873,542.803833 
	C346.779663,508.793427 366.946503,474.831879 389.286530,442.214783 
	C404.854401,419.485199 419.230988,395.871124 435.845490,373.944672 
	C455.484802,348.026245 471.175323,319.789337 487.917816,292.136414 
	C502.018433,268.846985 517.379395,246.375397 532.191956,223.547256 
	C548.105835,199.021881 564.672363,174.897736 579.097534,149.437683 
	C587.533264,134.548859 595.366699,119.318375 603.833252,104.447746 
	C607.261475,98.426323 611.633179,92.939354 615.622986,87.242393 
	C616.545898,85.924591 618.024353,85.230072 619.556213,85.534157 
	C621.486572,85.917320 621.217346,87.716896 621.337463,89.186264 
	C621.873901,95.745331 620.368042,102.090790 619.040833,108.398933 
	C613.987000,132.418640 606.154358,155.719467 600.381958,179.553589 
	C593.552612,207.752045 585.156433,235.518738 576.996887,263.333191 
	C571.166443,283.207977 565.438477,303.118591 559.481445,322.957062 
	C549.227661,357.104919 539.123657,391.303558 527.563049,425.046356 
	C526.613037,427.819275 524.692688,430.334473 525.025269,434.677917 
	C551.387085,433.561829 577.702698,431.045929 604.549927,430.404358 
z"/>
<path fill="#000000" opacity="1.000000" stroke="none" 
	d="
M677.695923,725.305908 
	C683.800964,730.901123 687.760925,737.687256 691.595154,744.444336 
	C702.994385,764.533813 719.519531,779.519470 738.031006,792.783447 
	C745.961121,798.465759 753.345581,804.916809 760.731262,811.349243 
	C777.983887,826.375549 792.045410,844.128235 805.522339,862.411316 
	C807.762146,865.450012 809.755493,868.742126 810.807800,872.518433 
	C811.302795,874.294556 810.837524,875.369507 809.567200,876.415100 
	C807.999878,877.705017 806.856262,876.856873 805.657288,875.784424 
	C775.634460,848.931091 742.882690,825.710571 709.238342,803.716064 
	C693.656921,793.529968 682.700134,779.319458 672.877075,763.956055 
	C665.989136,753.183289 657.004456,744.457642 646.563660,737.122498 
	C643.039368,734.646484 639.818237,731.728088 636.535034,728.922302 
	C630.891052,724.099182 628.410889,718.171692 628.541077,710.512573 
	C629.102783,677.476746 620.573669,646.909485 602.547729,619.102966 
	C601.183289,616.998230 599.920471,614.857056 599.699829,612.287964 
	C599.493591,609.885925 600.068787,608.062500 602.846313,607.499512 
	C609.965271,606.056641 617.074707,604.429260 624.391296,605.709229 
	C627.656860,606.280457 630.001770,608.063232 631.446594,611.300415 
	C634.974854,619.205994 639.310547,626.791992 644.916870,633.302734 
	C649.798889,638.972290 657.324341,640.129028 664.469299,640.546448 
	C672.578552,641.020142 680.722046,640.924438 688.728394,638.824341 
	C693.477661,637.578430 696.444580,640.491333 699.088623,644.024719 
	C708.025635,655.968079 716.480713,668.322998 727.648193,678.414185 
	C732.327271,682.642212 737.072205,686.797607 741.737671,691.040527 
	C744.969238,693.979431 747.464294,697.544861 749.121216,701.531067 
	C751.069519,706.218262 749.526001,707.988098 744.387451,707.280029 
	C738.692505,706.495422 733.789856,703.491699 728.601318,701.320679 
	C715.356323,695.778748 704.182251,687.484497 694.934631,676.419312 
	C690.139526,670.681702 684.354675,666.435913 676.019714,667.287598 
	C669.165466,667.987976 662.051819,673.510071 659.264709,679.772095 
	C652.788513,694.322571 658.995789,705.432983 668.310486,715.831482 
	C671.195557,719.052307 674.391663,721.994446 677.695923,725.305908 
z"/>
<path fill="#000000" opacity="1.000000" stroke="none" 
	d="
M230.825317,775.852234 
	C239.939682,764.522583 245.799316,751.555054 253.687119,739.850098 
	C263.625244,725.102661 277.144653,714.226440 290.824829,703.379944 
	C299.790253,696.271606 308.868774,689.272156 314.218414,678.613831 
	C316.397186,674.272949 317.007629,669.632385 317.315033,665.143127 
	C317.764130,658.584045 319.957092,652.490967 321.020264,646.121948 
	C322.336884,638.234680 319.255005,635.349854 311.232452,636.798279 
	C295.914215,639.564026 281.814331,645.841797 267.415344,651.294739 
	C265.404816,652.056213 263.328827,652.680298 261.239288,653.187256 
	C259.312012,653.654785 257.612549,653.136414 256.426361,651.397949 
	C255.170670,649.557678 255.771561,647.717773 256.930695,646.310547 
	C258.388275,644.541016 260.201385,643.032471 261.996277,641.578186 
	C271.005768,634.278748 281.687317,629.169067 289.563171,620.352600 
	C291.335907,618.368225 294.009216,617.199768 296.639923,616.936707 
	C303.555267,616.244934 310.293152,614.245300 317.362640,614.594727 
	C326.328674,615.037842 334.763397,612.119080 342.868225,608.896362 
	C350.978668,605.671509 353.488007,597.467590 356.554352,590.172363 
	C359.263824,583.726135 363.259521,578.726318 370.002930,576.406372 
	C373.899445,575.065796 377.459198,575.011169 379.535858,579.665771 
	C381.072479,583.109924 383.601410,580.821350 385.474548,580.079590 
	C390.249390,578.188843 394.864807,576.970764 399.721405,579.825684 
	C402.475006,581.444397 403.206787,583.364807 401.045624,585.850525 
	C393.774658,594.213318 386.753540,602.994202 377.405823,609.058594 
	C370.299255,613.669006 365.326660,619.551941 363.018616,627.403992 
	C361.495361,632.585999 358.490692,636.655212 355.276733,640.578918 
	C348.260132,649.145142 344.754730,659.373596 343.846252,669.828430 
	C343.177246,677.527527 347.240692,685.205139 350.319611,692.570374 
	C351.882172,696.308167 354.444092,699.381470 356.471619,702.803955 
	C360.422821,709.473450 363.123657,716.677673 363.146790,724.430542 
	C363.162476,729.688232 364.746399,734.844360 363.520813,740.231201 
	C362.829468,743.269897 361.569427,745.200073 358.809326,745.928406 
	C355.963135,746.679443 354.689331,744.525452 353.609894,742.344177 
	C348.239288,731.491394 342.710602,720.746460 335.983459,710.622009 
	C333.858063,707.423218 332.082123,706.991699 329.200317,708.924194 
	C327.553894,710.028381 325.736481,710.972290 324.340729,712.340088 
	C315.421326,721.081360 305.121582,728.084229 295.380951,735.802612 
	C281.189087,747.047974 270.551178,761.533630 260.756073,776.586670 
	C250.526901,792.306702 238.261826,806.133301 223.950363,818.244690 
	C213.195404,827.346436 202.716507,836.774231 192.108109,846.049377 
	C191.608917,846.485901 191.099335,846.987000 190.501785,847.220398 
	C188.617752,847.956055 186.767303,850.367004 184.683411,848.361267 
	C182.770996,846.520691 183.542480,844.035583 184.523285,841.838684 
	C191.675125,825.819458 200.501205,810.932129 212.578110,797.996277 
	C219.010925,791.105957 224.612762,783.439819 230.825317,775.852234 
z"/>
<path fill="#000000" opacity="1.000000" stroke="none" 
	d="
M287.783997,338.347534 
	C281.259094,333.383240 278.375763,327.263763 278.545166,319.221100 
	C278.814575,306.429443 275.183014,294.624786 267.097412,284.543091 
	C262.027222,278.221222 255.180603,273.822632 248.075912,270.307007 
	C229.160065,260.946838 214.686111,246.645111 201.149948,230.868500 
	C186.223938,213.472061 172.753815,194.984207 158.844025,176.819611 
	C157.576157,175.163925 155.657944,173.232544 157.529831,171.119553 
	C159.240204,169.188889 161.617889,169.441544 163.970535,170.546112 
	C172.342316,174.476624 179.270401,180.464340 186.378952,186.175507 
	C205.389389,201.448959 221.872177,219.639664 241.509888,234.179886 
	C252.565430,242.365662 263.599854,250.607712 275.635498,257.372772 
	C282.448578,261.202301 288.835144,265.653198 294.707916,270.839600 
	C300.882507,276.292511 304.068512,283.542633 305.117493,291.269836 
	C308.150543,313.611725 321.843689,326.907135 341.164154,335.881134 
	C344.438812,337.402191 345.965393,335.257965 346.926514,332.945953 
	C353.944275,316.064606 363.008575,299.940369 363.787537,280.892578 
	C364.211853,270.517365 366.321472,260.208740 367.738434,249.879364 
	C367.915344,248.589828 368.464844,247.341904 368.916718,246.102036 
	C369.464386,244.599289 370.486725,243.459946 372.119415,243.288712 
	C374.036652,243.087646 375.108154,244.343964 375.897247,245.926178 
	C378.893280,251.933487 380.146027,258.430206 381.348572,264.955017 
	C383.897125,278.782318 386.513702,292.597046 389.087524,306.419708 
	C389.393463,308.062958 389.779510,309.881592 388.669891,311.256073 
	C382.193451,319.278717 379.290497,329.592865 371.955933,337.070038 
	C366.720825,342.406921 364.171356,348.830139 364.292542,356.408203 
	C364.391510,362.595673 365.829895,368.558929 366.866791,374.578247 
	C368.394623,383.447601 371.832550,391.716736 375.389313,399.958771 
	C378.288208,406.676239 380.199951,413.708893 378.255585,421.147644 
	C377.055145,425.740295 374.458191,426.767242 370.332153,424.683105 
	C363.914093,421.441254 358.228119,417.570435 353.386078,411.957458 
	C348.172058,405.913147 346.104370,398.906494 344.846466,391.611328 
	C342.804932,379.771454 335.521088,371.713226 326.902313,364.403442 
	C314.969727,354.283264 302.026306,345.664154 287.783997,338.347534 
z"/>
<path fill="#000000" opacity="1.000000" stroke="none" 
	d="
M376.709198,165.530457 
	C402.822693,155.903397 429.311676,149.203995 456.367371,144.788635 
	C478.758911,141.134445 501.375519,141.134583 523.957092,141.798218 
	C533.185852,142.069443 542.386475,143.619934 551.576477,144.774841 
	C557.878845,145.566864 559.181641,147.924484 556.579651,153.724670 
	C552.707825,162.355545 548.627563,170.892670 544.700745,179.499252 
	C543.214050,182.757828 540.580994,183.971725 537.366638,183.229034 
	C519.649963,179.135483 501.639313,180.011429 483.756653,180.541473 
	C466.890961,181.041367 450.168152,183.802277 433.598389,187.112076 
	C414.568115,190.913315 395.707825,195.471893 377.902710,203.354477 
	C356.122070,212.997070 335.394531,224.462799 317.509766,240.513504 
	C313.071259,244.496826 308.397491,248.217056 303.863373,252.095093 
	C300.984070,254.557770 297.958740,255.053085 294.759338,252.838867 
	C287.541046,247.843216 280.393341,242.766708 273.734253,237.006958 
	C270.241730,233.986099 270.918488,231.578674 273.882568,228.857666 
	C281.343536,222.008530 289.182648,215.601379 297.409210,209.726944 
	C317.027313,195.718048 337.297089,182.750259 359.351532,172.820114 
	C364.953674,170.297714 370.679962,168.051025 376.709198,165.530457 
z"/>
<path fill="#000000" opacity="1.000000" stroke="none" 
	d="
M451.333740,884.113647 
	C441.249207,882.397827 431.656891,880.530334 422.362122,877.376343 
	C415.609558,875.084961 414.476257,872.603455 417.770782,866.307251 
	C421.238831,859.679565 424.915497,853.158997 428.600464,846.647888 
	C430.428986,843.417053 432.918579,842.451111 436.927277,843.139160 
	C451.279480,845.602783 465.688293,847.616577 480.241852,848.851807 
	C494.731140,850.081604 509.211121,850.015808 523.625122,849.451843 
	C547.464050,848.519226 571.181702,846.003174 594.532471,840.535706 
	C610.714905,836.746643 626.614563,832.303833 641.901672,825.701111 
	C654.671997,820.185425 666.160645,812.598206 677.231934,804.344727 
	C680.519470,801.893921 683.440125,801.493774 686.717834,803.781372 
	C693.836975,808.749878 700.026489,814.789673 706.122253,820.915283 
	C708.314758,823.118469 707.053955,825.069092 705.278381,826.954407 
	C699.634583,832.946838 692.496277,836.955627 685.814392,841.521240 
	C654.712830,862.772339 619.967163,874.772278 583.154602,881.339722 
	C571.081299,883.493591 558.860229,884.377258 546.658752,885.556702 
	C527.582642,887.400574 508.504089,887.357666 489.399750,887.382568 
	C476.761353,887.399048 464.295502,885.440308 451.333740,884.113647 
z"/>
<path fill="#000000" opacity="1.000000" stroke="none" 
	d="
M799.198975,522.650269 
	C819.991333,521.859192 840.079041,524.519165 860.209412,526.566895 
	C869.474915,527.509399 878.792969,527.401978 888.081787,527.800781 
	C898.800171,528.260986 909.629700,528.660156 920.042786,531.774048 
	C922.268616,532.439697 925.095276,532.656921 925.308167,536.138977 
	C925.522034,539.638428 922.740417,540.163330 920.591125,541.057983 
	C914.418030,543.627563 907.742798,544.284851 901.228333,545.185242 
	C882.789185,547.733398 864.232727,549.066711 845.603577,548.307495 
	C838.662659,548.024597 831.744812,547.108826 824.824402,546.403442 
	C809.928040,544.885010 797.292358,550.732178 784.980591,558.148865 
	C776.895996,563.019043 768.718933,567.769592 759.436707,570.326416 
	C754.284363,571.745605 750.062439,570.633728 745.836426,567.864441 
	C740.141785,564.132751 734.423218,560.425720 728.577698,556.938110 
	C709.379700,545.483948 689.357605,544.928223 668.722656,552.574829 
	C663.916260,554.355957 659.072571,556.266724 653.849182,556.325012 
	C646.693115,556.404846 644.959351,553.765137 648.232239,547.501282 
	C652.785706,538.786316 658.461182,530.742798 664.735657,523.226318 
	C668.706848,518.469116 675.010437,519.004578 680.547791,518.756470 
	C687.190796,518.458679 693.827942,518.291992 700.252197,516.509766 
	C708.830872,514.129944 713.397827,507.737946 715.473511,499.600494 
	C717.918518,490.015228 721.302734,480.897583 726.651978,472.556793 
	C729.182617,468.610809 733.596375,467.329254 737.516968,465.895477 
	C751.627319,460.735260 764.534302,453.089294 778.142090,446.914307 
	C781.096313,445.573730 784.811768,442.997498 787.386292,445.532867 
	C790.287903,448.390350 787.044983,451.673431 785.320618,454.376740 
	C776.621765,468.014526 764.114441,477.979523 752.188416,488.500061 
	C744.932983,494.900391 740.938171,502.854248 741.417542,512.618713 
	C741.948303,523.432007 753.742249,530.866943 765.946655,528.301758 
	C776.802917,526.019775 787.637634,523.621643 799.198975,522.650269 
z"/>
<path fill="#000000" opacity="1.000000" stroke="none" 
	d="
M647.887817,339.146729 
	C650.595276,330.870728 653.304993,323.028046 657.486389,315.788422 
	C658.476440,314.074219 659.240295,312.308624 661.232666,311.299835 
	C665.356262,309.212006 667.988098,310.050812 669.069702,314.509460 
	C671.358337,323.943573 672.196350,333.469696 669.853210,343.051147 
	C669.214478,345.662964 669.006104,348.254425 669.826294,351.083954 
	C674.865112,351.160706 677.959961,347.513611 681.533630,345.092865 
	C692.825378,337.444183 705.296936,331.772980 716.393616,323.770508 
	C727.634827,315.663818 733.221069,304.868683 733.649170,291.201904 
	C733.984131,280.510834 739.845703,273.271515 748.345276,267.751099 
	C766.157166,256.182373 780.998596,241.339340 795.728821,226.190231 
	C811.245178,210.232590 826.663147,194.087921 844.019043,180.027283 
	C846.582642,177.950470 849.409485,176.145325 852.293030,174.533798 
	C854.564392,173.264359 857.101440,172.019348 859.642212,174.339355 
	C859.631592,176.747620 858.676086,178.756409 857.321838,180.714325 
	C845.900574,197.226715 833.104309,212.678406 820.746826,228.473297 
	C811.952576,239.713974 802.900085,250.731750 793.445557,261.404816 
	C786.852600,268.847595 778.809143,274.786835 771.405029,281.390747 
	C762.502075,289.331482 756.378723,298.874634 755.270630,311.220215 
	C754.474365,320.091034 752.121460,328.744385 751.136108,337.629761 
	C750.545715,342.953827 745.991028,345.558716 741.253418,347.171844 
	C734.981750,349.307281 728.722961,351.394379 722.632874,354.079010 
	C707.513916,360.743622 695.740112,372.192352 682.637085,381.704590 
	C674.896484,387.323944 667.306824,393.234894 660.220398,399.747986 
	C655.166382,404.393127 648.308105,403.631042 642.219482,404.129456 
	C634.459229,404.764771 626.687134,405.316925 619.017883,406.570953 
	C615.555969,407.137024 613.356201,405.851837 610.880066,403.819672 
	C613.601379,395.724548 619.625793,390.312347 625.776001,385.423370 
	C635.359131,377.805420 641.204041,368.221527 643.570129,356.404175 
	C644.711182,350.705261 645.921509,345.041321 647.887817,339.146729 
z"/>
<path fill="#000000" opacity="1.000000" stroke="none" 
	d="
M844.048828,561.503967 
	C854.402588,559.136475 863.851929,562.229553 873.254211,564.536377 
	C878.851318,565.909546 878.444397,570.460999 877.481262,575.425781 
	C871.617065,605.655212 862.715637,634.917114 850.414795,663.142029 
	C838.749451,689.908569 824.521851,715.174377 806.398804,738.158203 
	C793.844421,754.079773 780.635498,769.347839 763.998230,781.247803 
	C763.728027,781.441040 763.483459,781.670288 763.229248,781.885498 
	C755.887939,788.098572 754.508850,788.552795 748.926147,785.106995 
	C741.962341,780.808716 735.218933,775.833069 736.880676,766.333923 
	C738.064514,759.566895 743.142151,754.563049 747.891357,750.062317 
	C765.637024,733.245239 780.680725,714.316956 793.252441,693.427979 
	C804.341492,675.002625 813.172607,655.500122 820.663391,635.323975 
	C828.660339,613.784424 834.231201,591.633484 838.963257,569.215637 
	C839.590088,566.246399 839.751099,562.716125 844.048828,561.503967 
z"/>
<path fill="#000000" opacity="1.000000" stroke="none" 
	d="
M140.562668,491.608826 
	C141.034760,462.559326 147.300247,434.944702 154.519943,407.497070 
	C159.012070,390.419098 165.464554,374.041229 173.442688,358.336029 
	C183.216782,339.095459 193.726974,320.252167 205.630127,302.203125 
	C210.559219,294.729034 214.901672,286.863586 219.393753,279.108276 
	C220.921204,276.471222 222.643967,274.706299 225.752945,276.491974 
	C232.937180,280.618347 240.458740,284.176941 246.881516,289.580963 
	C249.771957,292.012909 250.039764,294.219696 247.854553,297.204163 
	C231.816162,319.108521 217.765854,342.266754 206.625656,366.993469 
	C196.602692,389.240387 189.434937,412.548737 184.300400,436.449219 
	C179.928452,456.799988 177.381851,477.311096 178.366516,498.167450 
	C178.420868,499.318512 178.606689,500.473541 178.840271,501.604218 
	C180.124329,507.819885 177.986053,512.514771 172.107620,514.173462 
	C164.475403,516.327026 157.236496,519.811401 149.180252,520.609680 
	C143.662766,521.156372 140.561646,519.832275 140.046677,514.427063 
	C139.340485,507.014648 138.882309,499.492432 140.562668,491.608826 
z"/>
<path fill="#000000" opacity="1.000000" stroke="none" 
	d="
M843.895874,497.545776 
	C840.346069,449.746857 830.616760,403.961273 810.015686,360.825378 
	C800.620178,341.152466 790.478394,321.991699 776.179626,305.327667 
	C773.139771,301.785095 775.413452,298.637756 777.565186,295.976166 
	C780.575989,292.251801 783.985901,288.835785 787.365051,285.426605 
	C793.582275,279.154297 795.914612,279.521362 802.031372,285.937317 
	C821.392761,306.245422 836.101318,329.723572 848.245667,354.762604 
	C857.446167,373.731995 864.338989,393.649750 869.353394,414.224854 
	C875.259460,438.458771 879.750183,462.784912 879.558899,487.882782 
	C879.517578,493.304962 878.988281,498.739105 879.321350,504.176422 
	C879.628662,509.193909 876.612122,512.062866 872.231567,513.046692 
	C864.032349,514.888062 856.185364,513.364807 848.775574,509.399963 
	C844.026245,506.858643 845.404419,501.862946 843.895874,497.545776 
z"/>
<path fill="#000000" opacity="1.000000" stroke="none" 
	d="
M209.057831,654.034424 
	C219.700470,675.340637 231.031311,695.802551 245.314621,714.481079 
	C247.752243,717.668762 248.546143,720.597290 246.508575,724.465271 
	C241.522644,733.930115 235.506516,742.479248 227.090256,749.344482 
	C223.385605,747.305481 220.781860,744.398682 218.536896,741.413879 
	C195.477600,710.755005 176.028870,678.078308 162.652176,641.932007 
	C156.999725,626.658081 152.428406,611.107727 148.442474,595.351074 
	C145.587540,584.065308 147.212479,581.354736 158.569153,578.519409 
	C165.182785,576.868225 171.917130,576.193298 178.691422,575.576538 
	C184.100052,575.084167 186.343369,578.012939 187.255203,582.503235 
	C189.332428,592.732056 191.447311,602.949707 194.310272,612.991150 
	C198.270142,626.879822 202.880951,640.541870 209.057831,654.034424 
z"/>
<path fill="#000000" opacity="1.000000" stroke="none" 
	d="
M626.899536,160.550720 
	C633.448547,159.077271 638.630432,162.508682 643.569885,164.939789 
	C668.890381,177.401871 693.884399,190.484863 717.859375,205.479630 
	C731.130432,213.779816 743.340942,223.353531 755.343628,233.291550 
	C758.585144,235.975510 758.579773,238.774780 755.501038,241.076904 
	C748.342834,246.429260 741.013245,251.565536 733.588562,256.543823 
	C727.881531,260.370453 723.327148,256.686554 719.354858,253.255554 
	C701.564575,237.889313 682.074951,225.076752 661.078430,214.650757 
	C647.273682,207.795883 632.876404,202.226318 618.159485,197.555481 
	C616.744812,197.106506 615.397461,196.449097 613.991943,195.966888 
	C611.145996,194.990387 610.611633,193.131271 611.800842,190.540268 
	C614.224854,185.258774 616.425171,179.860519 619.121399,174.722214 
	C621.570862,170.054169 622.510681,164.565842 626.899536,160.550720 
z"/>
<path fill="#000000" opacity="1.000000" stroke="none" 
	d="
M150.029083,559.364380 
	C133.742966,558.977417 118.240036,556.351013 102.838379,553.114685 
	C100.630402,552.650635 97.879089,551.887329 97.694954,548.548096 
	C97.507774,545.153564 99.730255,543.758118 102.334320,542.889648 
	C109.605896,540.464539 117.198097,539.569580 124.761055,538.674927 
	C137.729172,537.140808 150.673096,535.598999 163.555023,533.301758 
	C177.878784,530.747375 192.289383,528.667542 206.534805,525.652344 
	C215.762924,523.699158 224.641571,520.259338 234.035828,519.043457 
	C242.245926,517.980774 250.229568,518.276184 257.486206,523.148315 
	C266.290955,529.059753 275.897125,530.060547 286.098846,527.570557 
	C289.945618,526.631592 293.931030,526.100952 297.884918,525.798462 
	C303.632660,525.358704 306.842834,529.902771 304.639893,535.381836 
	C301.488770,543.219177 297.990173,550.908325 293.807892,558.268250 
	C291.339905,562.611267 287.726501,563.864441 282.876892,563.040771 
	C270.435822,560.927979 258.167847,558.144653 246.555817,553.150818 
	C237.583801,549.292297 228.510849,549.296265 219.446045,551.860840 
	C196.869446,558.247925 173.890228,560.468201 150.029083,559.364380 
z"/>
<path fill="#000000" opacity="1.000000" stroke="none" 
	d="
M370.232300,820.924683 
	C373.843201,824.572021 371.318848,827.911011 369.962524,830.814758 
	C367.368927,836.367310 364.110199,841.607910 361.159454,846.995483 
	C359.665405,849.723389 357.702087,850.631470 354.584503,849.520508 
	C345.027832,846.115051 336.179565,841.226929 327.294403,836.473389 
	C313.831940,829.271179 300.957336,821.057312 288.706604,811.945007 
	C282.492096,807.322693 276.254181,802.649353 271.293854,796.535461 
	C269.280945,794.054382 269.373718,791.760437 270.907074,789.230469 
	C274.384857,783.492371 279.347290,778.989136 283.921387,774.237488 
	C287.264465,770.764587 291.327423,772.781677 294.838104,774.946838 
	C306.685852,782.253418 318.419861,789.749695 330.375641,796.874268 
	C340.772308,803.069702 351.448883,808.793640 361.916809,814.872253 
	C364.763428,816.525208 367.302826,818.707153 370.232300,820.924683 
z"/>
<path fill="#000000" opacity="1.000000" stroke="none" 
	d="
M551.592041,689.730896 
	C554.169739,685.668457 557.035828,685.963379 559.433655,689.049866 
	C567.597778,699.558533 571.846497,711.526917 569.854492,724.802490 
	C568.320923,735.023132 567.936768,744.237183 575.664124,752.597229 
	C587.040588,764.905029 585.678528,779.213501 580.735779,793.790283 
	C578.565186,800.191528 577.080078,806.841125 573.005249,812.475586 
	C571.494568,814.564514 570.107117,817.099915 567.197876,816.040588 
	C564.459534,815.043579 563.972839,812.197876 563.628174,809.457825 
	C562.637024,801.578796 561.695251,793.684998 560.368652,785.858887 
	C558.579224,775.302368 554.291931,765.726135 546.494812,758.322144 
	C541.547424,753.624207 541.586487,748.387573 543.083618,742.859985 
	C546.880188,728.842651 549.600891,714.746521 548.720947,700.117554 
	C548.507812,696.574036 550.204590,693.352966 551.592041,689.730896 
z"/>
<path fill="#000000" opacity="1.000000" stroke="none" 
	d="
M330.970947,484.031677 
	C329.870483,484.555145 329.108887,484.889038 328.360748,485.250763 
	C316.131531,491.162872 315.914734,491.148926 306.118561,481.993958 
	C301.270294,477.463043 296.632050,472.859741 289.549042,471.648102 
	C285.415802,470.941010 281.607361,472.134094 277.727417,472.523041 
	C269.255127,473.372253 262.859070,469.889862 257.271545,464.292999 
	C249.389969,456.398224 240.430038,449.814392 231.812546,442.810242 
	C231.554382,442.600403 231.298889,442.386444 231.052612,442.162872 
	C228.263153,439.630768 225.283188,436.738831 227.303055,432.788269 
	C229.336014,428.812195 233.727417,430.243896 236.712219,431.144226 
	C243.352966,433.147278 249.675201,436.181152 256.207489,438.576050 
	C262.755859,440.976868 268.737091,444.618805 275.384186,446.841156 
	C282.494141,449.218170 289.817200,449.815460 296.904205,448.408966 
	C304.202393,446.960571 309.001740,450.138855 313.661957,454.566925 
	C319.853241,460.449768 327.100250,464.749176 334.506317,468.835693 
	C337.887421,470.701355 341.639709,472.531494 341.203552,477.161774 
	C340.775787,481.703003 336.806793,482.445435 333.231720,483.343445 
	C332.590759,483.504395 331.954468,483.684052 330.970947,484.031677 
z"/>
</svg>