<svg version="1.1" id="Layer_1" xmlns="http://www.w3.org/2000/svg" xmlns:xlink="http://www.w3.org/1999/xlink" x="0px" y="0px"
	 width="1024px" height="1024px" viewBox="64 64 896 896" enable-background="new 0 0 1024 1024" xml:space="preserve">
<path fill="#000000" opacity="1.000000" stroke="none" 
	d="
M226.358337,679.555664 
	C216.318970,663.792114 208.600296,647.281616 201.841782,630.292664 
	C191.808975,605.073059 184.966202,579.019653 181.603928,552.084595 
	C180.064972,539.756042 178.374603,527.440552 178.636398,514.944885 
	C179.449738,476.123444 186.441879,438.622833 200.535172,402.293427 
	C209.314880,379.661316 220.340866,358.329956 233.526123,338.105225 
	C243.043732,323.506226 253.612137,309.671204 265.647675,296.912781 
	C283.261475,278.241058 302.588409,261.641418 323.602570,247.023148 
	C345.504425,231.787384 368.870422,219.228638 393.838074,209.634903 
	C412.628296,202.414795 431.875061,196.989700 451.611969,193.157074 
	C476.237335,188.375183 501.172180,187.513138 526.047180,188.925583 
	C551.157227,190.351379 576.015320,194.679977 600.375732,201.002396 
	C620.153564,206.135468 639.115662,213.697296 657.544373,222.649918 
	C678.367493,232.765732 698.324646,244.305786 716.621216,258.445618 
	C740.501709,276.900696 761.076965,298.573883 778.777954,323.134308 
	C791.639160,340.979492 803.513794,359.301514 813.078491,379.120331 
	C825.335999,404.518738 834.087708,430.978088 838.479980,458.906250 
	C840.934265,474.511902 841.825256,490.160339 842.512268,505.920898 
	C843.830750,536.168213 839.807739,565.791138 833.083069,595.049500 
	C825.742310,626.988464 813.356873,656.958923 795.775452,684.802246 
	C782.944519,705.122314 768.258911,723.783020 751.428406,740.945190 
	C735.482361,757.205505 718.470581,772.085632 699.947632,785.307312 
	C685.993958,795.267334 671.483643,804.348633 656.127258,811.898132 
	C641.399658,819.138428 626.258118,825.527405 610.510559,830.357483 
	C595.285828,835.027161 579.770386,838.428650 564.056458,840.825562 
	C555.716370,842.097839 547.250916,842.548401 538.841675,843.366272 
	C525.266602,844.686462 511.659058,844.047363 498.124542,843.232239 
	C474.794342,841.827271 451.752228,838.348267 428.972229,832.793518 
	C406.271545,827.258240 384.508514,819.461182 363.741425,808.840820 
	C339.981201,796.689880 318.106689,781.773376 297.999115,764.192871 
	C290.740021,757.846191 283.220764,751.781128 276.676575,744.694580 
	C258.079315,724.555847 240.365921,703.712280 226.358337,679.555664 
M750.457886,671.957642 
	C760.708557,656.509644 769.127563,640.048340 776.208740,622.982971 
	C789.155029,591.783081 796.441040,559.162842 798.562256,525.463135 
	C799.661438,508.000458 797.707336,490.592255 795.296692,473.361633 
	C791.954590,449.472565 785.098389,426.522430 775.377930,404.314453 
	C761.632080,372.909760 742.957947,344.933929 719.187500,320.390350 
	C705.561462,306.321167 690.511108,293.862671 674.164062,282.943695 
	C659.203247,272.950592 643.631409,264.179443 627.009216,257.326172 
	C607.025879,249.087112 586.404663,243.052582 565.043579,239.517654 
	C553.925415,237.677765 542.752441,235.951706 531.541443,235.548080 
	C519.812744,235.125854 508.106781,234.394669 496.254211,235.028564 
	C479.323059,235.934067 462.518250,237.412125 445.968842,240.727234 
	C413.246216,247.282166 383.049500,260.430573 354.970398,278.259338 
	C332.878418,292.286560 313.199890,309.369629 295.502899,328.637177 
	C285.847260,339.149750 277.025757,350.414459 269.356049,362.454926 
	C255.125076,384.795807 243.529541,408.358978 235.855804,433.878937 
	C229.893005,453.708862 226.664322,473.963318 225.549683,494.448883 
	C224.221954,518.850281 225.634521,543.232178 230.333420,567.334595 
	C235.191498,592.253479 243.396988,616.106934 254.596237,638.763733 
	C264.383270,658.563599 276.901245,676.741821 290.804443,694.017761 
	C302.419830,708.450928 314.923218,722.010986 329.141388,733.724182 
	C350.737885,751.515991 374.493073,765.944641 400.442596,776.796997 
	C431.020782,789.585205 462.795197,796.852844 495.793579,798.540710 
	C516.561401,799.602905 537.382690,798.601929 557.911621,795.382202 
	C585.740601,791.017639 612.394409,782.525391 637.818237,770.201599 
	C656.744507,761.027405 674.429993,749.969788 690.831238,736.837280 
	C704.488220,725.902039 716.679199,713.471497 728.427368,700.526672 
	C736.397217,691.744934 742.865540,681.888428 750.457886,671.957642 
z"/>
<path fill="#000000" opacity="1.000000" stroke="none" 
	d="
M502.691711,66.271057 
	C503.714447,61.408161 505.403076,57.551857 510.577118,56.746468 
	C514.848450,56.081600 518.368103,57.143505 521.050842,60.845337 
	C522.962097,63.482574 522.899963,66.640457 523.102905,69.401772 
	C524.527161,88.781387 525.342957,108.202515 523.215576,127.590401 
	C522.472778,134.359573 518.639404,138.086502 512.934387,138.354858 
	C506.474854,138.658707 503.616821,136.172241 502.628632,129.650940 
	C499.448120,108.661804 501.053467,87.683525 502.691711,66.271057 
z"/>
<path fill="#000000" opacity="1.000000" stroke="none" 
	d="
M523.946594,936.091919 
	C522.839294,942.220947 523.866455,948.114929 522.371643,953.805725 
	C522.164062,954.595947 522.308350,955.473694 522.141724,956.280334 
	C520.969849,961.953186 517.432190,965.922485 513.529724,966.002075 
	C509.030090,966.093933 505.222931,962.085205 503.578033,956.357605 
	C502.133026,951.325989 502.501373,946.158875 501.941467,941.084778 
	C500.193329,925.242188 501.421326,909.362671 502.774506,893.533936 
	C503.211365,888.424255 507.878326,884.032410 512.582275,883.717773 
	C516.668701,883.444397 520.585449,886.595459 522.211731,891.595642 
	C522.875488,893.636353 523.490479,895.688843 523.363831,897.918335 
	C522.647644,910.525269 525.175049,923.073730 523.946594,936.091919 
z"/>
<path fill="#000000" opacity="1.000000" stroke="none" 
	d="
M720.799866,861.192505 
	C726.355713,870.829773 733.209717,879.343506 736.481995,889.813599 
	C738.323547,895.706055 736.184937,900.196716 729.918701,903.666321 
	C724.427795,906.706665 720.466003,906.042542 716.534973,900.685608 
	C709.355530,890.901733 703.902832,880.033936 697.792114,869.588440 
	C694.969849,864.764099 691.756409,860.045898 690.494629,854.390625 
	C689.210388,848.634155 691.184265,844.160950 696.411926,841.729370 
	C702.043091,839.110168 708.002258,840.346130 711.084656,845.113831 
	C714.416992,850.268066 717.446594,855.617981 720.799866,861.192505 
z"/>
<path fill="#000000" opacity="1.000000" stroke="none" 
	d="
M110.999786,518.376648 
	C101.011230,518.375977 91.522293,518.423889 82.034180,518.356567 
	C75.753204,518.312012 70.627808,512.742432 70.790199,506.319183 
	C70.918701,501.236847 76.636078,495.653412 81.976372,495.668549 
	C92.901413,495.699524 103.816200,495.013702 114.716705,494.970184 
	C120.787804,494.945984 126.977737,495.320038 133.093460,495.770020 
	C138.082306,496.136993 142.416794,501.605347 142.200348,506.674164 
	C141.950974,512.514038 136.625214,518.019714 130.474274,518.278137 
	C124.159203,518.543457 117.825371,518.362122 110.999786,518.376648 
z"/>
<path fill="#000000" opacity="1.000000" stroke="none" 
	d="
M875.936646,720.972107 
	C879.150024,723.113159 881.806030,725.360168 884.221619,727.908386 
	C888.908691,732.852844 889.385254,737.009766 885.781982,742.162231 
	C882.304504,747.134888 876.884033,748.784912 871.306213,746.554810 
	C865.682617,744.306396 860.853943,740.684509 856.157776,737.045166 
	C848.544128,731.145020 839.726624,726.912231 832.784668,720.135315 
	C826.981201,714.469666 826.375671,709.727844 830.478760,704.374512 
	C834.710754,698.852966 840.643311,697.942688 847.304199,702.192810 
	C856.825439,708.268005 866.198364,714.575806 875.936646,720.972107 
z"/>
<path fill="#000000" opacity="1.000000" stroke="none" 
	d="
M172.366562,284.597107 
	C178.241562,287.774628 184.168076,290.058624 189.412018,293.633392 
	C195.534164,297.806824 196.786774,302.609589 193.393936,309.028839 
	C189.996841,315.456146 184.461334,317.761719 178.153915,315.046783 
	C164.558441,309.194946 152.170258,301.071930 139.241470,293.971161 
	C133.969650,291.075775 132.323166,284.828766 134.552902,279.741028 
	C137.215149,273.666351 142.096909,271.345764 148.842834,272.994110 
	C152.760651,273.951447 156.198700,276.037079 159.744736,277.832611 
	C163.891235,279.932251 167.937317,282.230255 172.366562,284.597107 
z"/>
<path fill="#000000" opacity="1.000000" stroke="none" 
	d="
M882.352722,273.884857 
	C892.474792,279.043823 893.525635,287.901520 884.660645,294.171844 
	C871.530273,303.459076 857.508667,311.335876 843.031555,318.339996 
	C837.584961,320.975098 832.684143,318.765228 828.972534,312.612335 
	C826.168518,307.963959 827.354431,302.022003 832.397827,298.580200 
	C838.134521,294.665253 844.174438,291.181458 850.179504,287.676300 
	C856.903931,283.751282 863.753601,280.041199 870.516296,276.180786 
	C874.087769,274.141998 877.817566,273.060974 882.352722,273.884857 
z"/>
<path fill="#000000" opacity="1.000000" stroke="none" 
	d="
M334.093018,169.155121 
	C338.299835,177.716385 333.839539,186.294464 324.860779,187.568863 
	C320.841766,188.139313 317.717834,186.593750 315.630707,183.178726 
	C308.978790,172.294479 302.271362,161.440735 295.847565,150.422333 
	C293.607849,146.580627 290.800476,143.060196 289.334808,138.725983 
	C287.908966,134.509735 288.546814,130.820038 292.352600,128.756683 
	C296.100037,126.724960 300.240967,124.007416 304.746613,127.566177 
	C311.931427,133.241074 316.308380,141.141312 321.247559,148.559418 
	C325.659119,155.185120 329.691193,162.063507 334.093018,169.155121 
z"/>
<path fill="#000000" opacity="1.000000" stroke="none" 
	d="
M891.054077,497.826294 
	C895.327454,494.146484 900.403687,495.331757 904.764954,495.172485 
	C917.116333,494.721436 929.509399,495.605682 941.885376,495.584442 
	C954.000732,495.563629 955.641541,502.648376 954.005859,511.173279 
	C953.034607,516.235535 947.719543,518.103027 943.040955,518.207886 
	C928.107666,518.542297 913.160339,518.457520 898.222107,518.256897 
	C892.970764,518.186340 889.106140,515.325867 887.293884,510.279175 
	C885.570801,505.480896 887.480469,501.545746 891.054077,497.826294 
z"/>
<path fill="#000000" opacity="1.000000" stroke="none" 
	d="
M138.843842,747.893433 
	C135.201248,742.498230 135.750854,736.810303 140.413147,732.413879 
	C148.160995,725.107666 157.348618,719.664795 165.778290,713.235718 
	C169.201477,710.624878 172.777603,708.213257 176.304993,705.740723 
	C180.447678,702.836853 185.016602,702.527832 189.489426,704.446472 
	C197.146484,707.731201 197.979980,717.591919 190.754898,723.124573 
	C178.787735,732.288513 166.557312,741.120178 154.234146,749.802673 
	C148.478394,753.858032 144.331787,753.118042 138.843842,747.893433 
z"/>
<path fill="#000000" opacity="1.000000" stroke="none" 
	d="
M726.993408,153.789856 
	C722.029480,163.032410 717.093323,171.875671 712.554932,180.918564 
	C710.036255,185.937149 705.608582,188.030228 700.846069,187.830856 
	C696.422729,187.645691 692.419373,185.045105 690.655334,180.202209 
	C690.038696,178.509369 689.966980,177.135788 690.674927,175.468811 
	C697.045471,160.468491 704.755005,146.148270 712.899536,132.068939 
	C716.311829,126.170197 721.231567,124.994125 726.811584,127.961746 
	C732.518311,130.996796 734.911438,137.479630 732.298096,143.212204 
	C730.713867,146.687241 728.898682,150.056946 726.993408,153.789856 
z"/>
<path fill="#000000" opacity="1.000000" stroke="none" 
	d="
M301.154480,864.244629 
	C304.224487,858.299866 306.949066,852.590088 309.989075,847.053467 
	C314.946747,838.024414 320.825958,838.440125 328.682312,843.031738 
	C332.265045,845.125610 332.975311,850.217529 330.504303,855.618591 
	C326.925629,863.440796 322.966522,871.091309 319.078766,878.768982 
	C316.528900,883.804504 313.815735,888.757202 311.180908,893.749756 
	C307.878479,900.007324 303.264038,901.920837 297.256622,899.516785 
	C290.841003,896.949341 288.354034,892.425293 290.965973,885.629700 
	C293.746582,878.395081 297.578064,871.564331 301.154480,864.244629 
z"/>
<path fill="#000000" opacity="1.000000" stroke="none" 
	d="
M668.241455,696.220703 
	C647.594849,715.405090 626.447510,733.361572 600.667053,744.683289 
	C587.938843,750.273010 575.023193,755.539917 561.359375,758.588867 
	C558.582397,759.208557 555.791626,759.418091 552.946777,759.416870 
	C549.394348,759.415344 545.423828,759.839600 544.070679,755.667969 
	C542.609680,751.163696 544.255676,747.012878 547.902527,744.071655 
	C552.821594,740.104431 557.623535,736.047119 562.208191,731.678894 
	C578.088257,716.548645 591.388794,699.375000 602.052551,680.304565 
	C608.837219,668.171265 611.465576,654.503845 613.633362,640.860535 
	C614.995483,632.287659 615.467407,623.689026 613.565491,615.117432 
	C613.394714,614.347839 612.935730,613.642334 612.626160,612.942261 
	C609.894470,612.613464 609.014893,614.600830 607.905762,616.158020 
	C599.492310,627.969604 590.067688,638.921021 579.545532,648.883179 
	C572.322693,655.721619 563.890259,660.913025 554.167297,663.064880 
	C545.237854,665.041199 538.206726,660.254150 531.643311,654.758240 
	C512.974731,639.125977 509.873291,619.276245 514.935547,596.669373 
	C517.662292,584.492126 522.661560,572.993835 524.968506,560.768188 
	C527.925415,545.097351 529.515137,529.289612 527.601685,513.317993 
	C527.480347,512.304749 527.394043,511.314209 526.168823,510.800629 
	C524.275269,510.706482 523.881409,512.401428 523.306030,513.666809 
	C515.329468,531.207764 503.603729,546.272888 491.764099,561.232056 
	C479.302490,576.976990 467.036255,592.865601 455.655426,609.408386 
	C451.147980,615.960266 451.070587,623.868347 450.428528,631.413513 
	C449.417633,643.292786 451.480743,654.894287 454.673218,666.316528 
	C455.475861,669.188293 456.280518,672.068481 456.874207,674.987549 
	C457.943207,680.243774 454.165527,683.677307 449.012146,682.304016 
	C441.250580,680.235657 436.067413,674.367004 430.446533,669.337036 
	C423.390198,663.022522 416.885040,656.093262 410.111755,649.460266 
	C408.841522,648.216309 407.429077,647.117554 405.786041,645.695435 
	C402.620361,651.787170 404.809387,657.487305 405.798920,662.690979 
	C409.553406,682.434326 418.416809,699.705505 431.840881,714.886047 
	C439.794556,723.880371 448.513580,731.956604 457.279358,740.054016 
	C458.758850,741.420837 460.079407,742.878906 460.855774,744.790161 
	C462.966583,749.986572 460.344788,754.049744 454.746918,754.368042 
	C444.017395,754.977966 434.040710,751.638184 424.290283,747.995239 
	C410.221771,742.739136 397.243774,735.236450 385.120026,726.378357 
	C371.134888,716.160278 358.406860,704.582214 347.071075,691.404602 
	C338.184753,681.074463 329.466980,670.651672 322.096771,659.182617 
	C311.196472,642.220215 304.892883,623.764404 304.671631,603.453735 
	C304.575439,594.622009 304.663055,585.788269 304.660217,576.955444 
	C304.654938,560.506165 308.504944,544.791321 313.398865,529.214233 
	C320.403076,506.919891 331.934967,486.919739 345.210327,468.021790 
	C353.698792,455.938171 362.168518,443.955719 369.676880,431.195770 
	C380.545654,412.725098 383.801971,393.229401 380.938568,372.269897 
	C380.246704,367.205597 379.292023,362.113800 379.600555,356.903809 
	C379.824036,353.129913 381.416260,352.577057 384.388550,354.231079 
	C385.979706,355.116547 387.657440,355.956146 389.011475,357.141571 
	C406.970947,372.864441 421.498260,391.175079 427.350250,414.673431 
	C431.663696,431.993774 431.222260,449.777527 428.932739,467.592377 
	C427.251404,480.674896 424.528259,493.654419 423.982574,506.798309 
	C425.697601,508.052582 426.639862,506.995026 427.451599,505.931152 
	C434.378662,496.852722 441.569641,487.956940 448.107788,478.605316 
	C456.393646,466.753784 460.197876,453.277802 460.640594,438.865936 
	C461.187653,421.057312 458.621338,403.480652 456.913239,385.815430 
	C454.503418,360.893188 454.342926,335.973145 464.612549,312.352020 
	C470.853882,297.996338 479.395355,285.048676 489.534119,273.058777 
	C494.720764,266.925171 500.653107,261.690918 506.451385,256.245911 
	C509.589081,253.299393 513.176025,251.170990 517.172852,253.438766 
	C521.010681,255.616333 521.208252,259.519775 520.758057,263.921814 
	C518.308350,287.875641 516.222778,311.879486 524.374146,335.308380 
	C528.354980,346.750061 535.291382,356.453888 542.355591,366.147400 
	C555.135742,383.684418 569.106812,400.371948 579.718750,419.464752 
	C589.574402,437.196808 597.012207,455.521423 598.503723,476.085724 
	C599.465759,489.349762 600.031921,502.512756 598.457275,515.744324 
	C598.202393,517.886169 597.541626,520.374329 599.652588,522.680603 
	C604.835999,518.519775 607.079407,512.626160 609.646667,506.986694 
	C616.049316,492.922180 615.455811,478.255554 613.231201,463.463348 
	C610.964539,448.391754 608.089844,433.366516 608.694458,418.023773 
	C609.304321,402.547668 614.637817,388.987885 625.213318,377.457916 
	C630.272827,371.941803 634.958801,366.137848 641.499756,362.206512 
	C643.302734,361.122925 644.957153,360.258392 647.397034,361.077057 
	C647.912842,362.913208 647.758850,364.861450 647.690979,366.996307 
	C647.251404,380.818573 643.704895,394.605804 647.268311,408.492462 
	C650.053223,419.345642 655.835693,428.571503 662.644531,437.186340 
	C669.729065,446.150208 676.778564,455.199280 684.565308,463.536896 
	C695.650269,475.406036 705.036621,488.285522 712.135132,502.909668 
	C718.383789,515.783020 720.653015,529.670593 723.384521,543.491028 
	C725.168823,552.519409 724.908264,561.735046 725.039795,570.736084 
	C725.472595,600.359314 718.920837,628.184326 701.734192,653.209412 
	C691.465698,668.161133 680.421936,682.374451 668.241455,696.220703 
z"/>
</svg>