<svg version="1.1" id="Layer_1" xmlns="http://www.w3.org/2000/svg" xmlns:xlink="http://www.w3.org/1999/xlink" x="0px" y="0px"
	 width="1024px" height="1024px" viewBox="64 64 896 896" enable-background="new 0 0 1024 1024" xml:space="preserve">
<path fill="#000000" opacity="1.000000" stroke="none" 
	d="
M105.622345,576.292542 
	C102.010498,559.420288 99.093658,542.909424 99.552467,525.970825 
	C99.623695,523.341492 99.302704,520.616333 98.649925,518.066895 
	C95.124931,504.299896 98.639503,490.650421 99.269165,476.973328 
	C99.840477,464.563568 100.394684,452.121552 102.665947,439.850006 
	C104.682884,428.952637 106.066200,417.965240 109.446602,407.301605 
	C111.993088,399.268616 112.809212,390.689850 115.316826,382.641052 
	C118.178177,373.456848 122.429634,364.711639 125.889397,355.757141 
	C129.028412,347.632721 131.705841,339.138611 135.196259,331.204163 
	C139.021271,322.509125 142.085526,313.203094 148.320343,305.670624 
	C157.898880,294.098541 163.885803,280.264893 172.139587,267.856934 
	C173.615906,265.637573 174.788391,263.204895 176.889282,261.482117 
	C183.285446,256.237091 185.846161,248.045731 191.887665,242.424316 
	C204.013550,231.141632 213.232117,216.914978 225.682037,206.175613 
	C241.113907,192.864044 254.920334,177.484406 273.046234,167.309830 
	C280.663788,163.033890 287.167755,156.797897 294.714417,152.366592 
	C307.303162,144.974686 319.639038,136.755875 333.690796,132.477890 
	C340.686859,130.347992 347.158661,128.024933 352.563690,123.115646 
	C355.074524,120.835075 358.330078,120.655258 361.354309,119.873436 
	C366.183411,118.625008 370.866089,117.436790 375.002136,114.169701 
	C377.909973,111.872810 382.290436,111.815399 385.800964,111.272873 
	C396.937134,109.551842 407.110443,104.900963 417.866608,102.159416 
	C439.157318,96.732834 460.682648,93.280655 482.778137,93.604050 
	C488.976105,93.694771 495.293274,92.682533 501.512024,92.177025 
	C510.957458,91.409241 520.567322,92.634804 530.105286,93.059700 
	C531.922913,93.140663 533.733643,93.626358 535.543091,93.601440 
	C554.335999,93.342636 573.022766,95.559296 591.786377,95.967522 
	C596.191589,96.063370 600.163330,98.078255 604.309631,99.248093 
	C615.441162,102.388733 626.564575,105.485550 637.169739,110.369148 
	C641.833008,112.516563 647.050415,114.355354 652.573242,113.779861 
	C654.784912,113.549408 656.943542,114.046890 658.747131,115.372635 
	C665.652893,120.448631 673.743958,123.242538 681.532776,126.291374 
	C691.360840,130.138397 700.447510,134.862778 709.404419,140.474396 
	C717.044800,145.261246 726.139832,148.057617 733.641541,153.143768 
	C746.419800,161.807449 760.722778,168.141754 772.352234,178.526657 
	C786.611816,191.260178 803.473328,201.573318 814.014282,217.763916 
	C819.073792,225.535233 827.337646,229.341049 832.050110,237.082565 
	C835.038574,241.992004 837.781860,247.565353 843.293335,250.567780 
	C843.503418,258.590485 854.022095,260.537201 853.988098,269.151917 
	C853.975830,272.278351 859.061096,273.508209 860.893005,276.655731 
	C866.815002,286.830994 872.416504,297.167969 877.304871,307.876709 
	C878.974487,311.534302 882.355530,313.743286 884.132751,317.520447 
	C894.899231,340.402588 904.166382,363.868195 912.595581,387.684662 
	C916.606750,399.018127 919.070374,410.622589 919.941650,422.677246 
	C920.489502,430.256531 922.031860,437.838348 923.886108,445.228790 
	C925.902161,453.263794 926.825745,461.375427 925.922424,469.469055 
	C924.797607,479.548035 926.148132,489.374268 927.591797,499.204254 
	C928.173706,503.166229 928.645935,507.005859 928.484192,511.028900 
	C927.950806,524.299011 927.630554,537.519287 925.463989,550.724548 
	C922.906555,566.312195 921.330750,582.076904 918.084412,597.551025 
	C916.623962,604.512207 914.684570,611.268616 914.629822,618.532593 
	C914.599426,622.565125 910.370178,625.663025 909.869690,629.908081 
	C908.614380,640.555725 903.106262,649.900635 900.704346,660.282227 
	C899.279968,666.438599 894.886230,672.119385 891.994446,678.115479 
	C886.515320,689.476135 880.105957,700.399231 874.882019,711.868042 
	C871.166260,720.026001 865.853271,726.915833 860.591858,733.957336 
	C858.295288,737.030945 856.231567,740.284607 855.493774,744.149231 
	C853.902649,752.483093 846.643066,756.862000 841.895081,762.868164 
	C838.103149,767.664795 835.436157,773.098938 831.622620,777.900696 
	C823.406250,788.246399 812.627075,795.939209 804.331116,806.170532 
	C801.217468,810.010620 797.974304,814.688843 792.358826,816.117920 
	C790.604858,816.564209 789.551941,818.378540 788.583191,819.971558 
	C786.993774,822.585144 784.819885,824.807068 782.143982,826.065369 
	C778.439148,827.807495 775.104370,829.931152 772.622986,833.123840 
	C767.980896,839.096558 761.201172,842.057129 755.070007,845.912292 
	C747.482605,850.683044 740.457214,856.190186 733.304871,861.557129 
	C730.367188,863.761414 726.351929,864.516357 722.852417,865.991211 
	C721.178223,866.696716 719.006104,867.114990 718.018250,868.400208 
	C713.751770,873.950806 706.243591,875.000244 701.913818,880.580444 
	C699.926758,883.141235 695.963806,883.404724 692.803223,884.348938 
	C687.998169,885.784485 683.518250,887.851501 679.080444,890.125366 
	C668.585876,895.502869 657.520264,899.962280 646.525146,903.716431 
	C635.175232,907.591736 623.437988,911.236084 611.493103,913.408691 
	C597.057190,916.034302 582.783936,919.709290 568.020447,920.393005 
	C564.392090,920.561096 560.802429,921.459778 557.181335,921.913696 
	C552.103760,922.550232 546.936523,922.494934 541.911072,922.832275 
	C531.713501,923.516846 521.451355,922.527649 511.340179,924.103088 
	C508.534363,924.540283 506.094391,923.382568 503.471649,923.352539 
	C493.025665,923.232971 482.569977,923.227173 472.134369,923.058960 
	C460.945435,922.878662 449.740875,922.394470 438.784363,918.785828 
	C431.361603,916.341003 423.338165,915.153259 415.505951,914.677124 
	C407.626923,914.198120 400.820953,910.788940 393.810455,908.232483 
	C380.605103,903.416992 367.644226,897.967163 353.901520,894.755615 
	C352.778076,894.493103 351.515167,894.282715 350.631012,893.625610 
	C342.006104,887.215698 331.556824,884.661987 322.204315,879.916016 
	C315.668152,876.599243 308.498810,873.948242 302.926575,868.795471 
	C299.563385,865.685425 295.006592,864.567383 291.386566,861.899536 
	C276.699982,851.075745 261.625519,840.841675 247.438736,829.256470 
	C234.397522,818.606873 223.535568,805.788086 210.568878,795.202087 
	C200.933990,787.336182 195.455246,776.078186 187.135559,767.240173 
	C178.870712,758.460449 173.693207,747.614502 166.044601,738.395752 
	C157.475037,728.067017 150.903229,716.133667 145.917770,703.561584 
	C142.458282,694.837585 137.299667,687.045166 133.079269,678.746765 
	C129.114258,670.950500 126.742104,662.762146 124.792351,654.380798 
	C124.141106,651.581238 123.304588,648.903442 121.909897,646.442932 
	C117.670937,638.964600 115.371468,630.937439 114.685997,622.397522 
	C114.581177,621.091675 114.351028,619.705383 113.793945,618.540344 
	C108.812752,608.123657 108.384003,596.741028 106.711296,585.625244 
	C106.266991,582.672668 105.997559,579.693848 105.622345,576.292542 
M193.410172,685.158569 
	C195.072601,687.477722 196.281464,690.010010 197.244247,692.701294 
	C198.594589,696.475647 200.134964,700.400269 203.067139,703.054993 
	C210.254059,709.561829 213.444656,718.709106 219.059937,726.254089 
	C223.431198,732.127502 226.002197,739.078857 231.938492,744.160583 
	C240.159470,751.198059 244.728897,761.897095 254.436111,767.671631 
	C255.085770,768.058044 255.305511,769.103333 255.890793,769.671753 
	C262.344543,775.940002 266.844482,784.472595 276.478577,787.069092 
	C279.118805,787.780640 281.091064,789.778198 281.925812,792.526367 
	C282.898193,795.727600 285.233887,797.665955 287.609589,799.851807 
	C291.756439,803.667358 297.001007,805.384338 301.764557,807.906738 
	C305.086273,809.665710 307.095062,813.315063 310.634521,814.092468 
	C314.907166,815.030884 317.797821,817.541626 320.311157,820.632690 
	C322.364288,823.157959 324.723175,825.115356 327.577362,826.584961 
	C345.298981,835.709656 362.587677,845.893799 381.931458,851.315430 
	C395.104218,855.007385 407.821960,860.619324 421.855530,861.060303 
	C425.651428,861.179565 429.908234,861.374695 432.563568,865.300964 
	C433.386780,866.518066 435.185364,866.538635 436.698608,866.752502 
	C446.539276,868.143372 456.527527,868.295349 466.270325,870.602539 
	C470.931580,871.706360 475.561707,873.139893 480.495148,873.024780 
	C490.471527,872.792053 500.409393,873.613770 510.295715,874.867004 
	C514.107056,875.350159 518.130920,876.621033 521.672546,875.415833 
	C530.106812,872.545776 538.733704,874.901245 547.315674,873.663757 
	C558.605103,872.035828 569.985779,870.907227 581.240234,868.775208 
	C594.203430,866.319397 606.568665,861.173767 619.911804,860.388550 
	C622.693298,860.224854 625.508362,859.060913 627.758606,857.325806 
	C631.504395,854.437317 635.968323,853.398682 640.329895,852.936890 
	C644.800964,852.463501 648.742493,851.202393 652.507812,848.965576 
	C658.814392,845.219421 666.692383,844.996094 672.429443,839.667175 
	C674.080872,838.133240 676.782166,837.643494 678.057617,835.224121 
	C679.201050,833.055054 681.390198,831.956238 683.572998,831.128723 
	C693.510864,827.361389 702.683228,822.033386 712.153381,817.308289 
	C720.816528,812.985718 725.700867,804.031738 734.463196,799.683350 
	C739.954773,796.958069 743.492310,791.402222 748.235901,787.556335 
	C761.517273,776.788391 774.582520,765.842773 785.550781,752.619202 
	C793.493042,743.043701 801.617188,733.615723 809.407227,723.918762 
	C812.728394,719.784546 814.963135,714.739868 818.466675,710.797607 
	C825.674316,702.687195 830.994385,693.665100 834.112793,683.296692 
	C834.784790,681.062439 835.612305,678.848938 837.523071,677.301453 
	C840.101685,675.213013 841.325989,672.333130 842.386414,669.310669 
	C846.569336,657.388550 850.339661,645.304504 856.705261,634.258362 
	C858.016235,631.983337 858.986206,629.405457 859.580078,626.843567 
	C861.307556,619.391907 863.809204,612.190125 866.112244,604.916626 
	C868.856445,596.250183 871.502808,587.626343 871.903381,578.332153 
	C872.187256,571.746582 872.499329,564.844482 874.157593,558.590149 
	C878.514771,542.156982 879.393860,525.617981 879.850159,508.733093 
	C880.387878,488.833099 876.263367,469.434875 875.611450,449.712280 
	C875.516479,446.839355 874.909363,443.578827 873.975586,440.681458 
	C869.623474,427.178101 868.210327,412.930023 862.714172,399.652008 
	C859.294250,391.390045 856.440552,382.856049 854.470398,373.865814 
	C851.104980,358.508423 842.564880,344.798584 836.105835,330.479858 
	C831.744934,320.812439 824.867310,312.273804 818.106873,303.772461 
	C809.383606,292.802795 802.511658,280.363190 794.797913,268.585815 
	C793.801819,267.065063 792.534363,265.722748 791.401245,264.290955 
	C781.830322,252.197601 768.827148,243.809845 757.838013,233.238831 
	C748.747681,224.494339 739.366760,215.975449 729.135803,208.617279 
	C720.188110,202.182083 711.373840,195.608246 700.930176,191.174194 
	C690.487915,186.740662 681.508789,178.816681 671.026184,174.531540 
	C647.845703,165.055679 624.516663,155.938400 599.880920,150.371048 
	C582.965088,146.548309 566.025208,143.755005 548.815186,141.996887 
	C541.091431,141.207870 533.423096,140.078903 525.632751,139.864960 
	C519.680481,139.701492 513.752991,138.742355 507.799500,138.489243 
	C499.768494,138.147827 491.921387,140.522217 483.969879,141.243057 
	C473.940063,142.152344 463.622375,143.565369 453.516785,144.776871 
	C437.669403,146.676727 422.383423,150.621155 406.943115,154.131256 
	C405.322235,154.499756 403.677551,154.790268 402.087524,155.263535 
	C384.830231,160.400146 369.672791,170.634995 352.155365,175.417755 
	C345.133209,177.334976 337.750763,180.550552 332.724731,186.869736 
	C331.961761,187.829010 330.520264,188.347961 329.296692,188.824005 
	C324.595337,190.653122 320.415009,193.208847 316.629700,196.600586 
	C312.617371,200.195770 309.107697,204.735870 302.933533,205.002945 
	C301.958679,205.045105 300.972443,206.180115 300.095917,206.931656 
	C291.001709,214.729202 281.728851,222.334747 272.925201,230.448822 
	C267.657776,235.303665 261.330139,238.686356 256.237915,243.781311 
	C249.455139,250.567703 242.681381,257.344086 236.193924,264.419495 
	C230.723251,270.385986 225.557892,276.683899 220.618103,282.997742 
	C216.533783,288.218140 212.613174,293.850250 209.157471,299.732300 
	C201.515228,312.740356 192.359131,324.869598 187.073090,339.201691 
	C186.673935,340.283875 186.111282,341.351135 185.421539,342.273468 
	C180.670227,348.627075 178.022629,355.969147 174.998993,363.205719 
	C171.849396,370.743744 169.121628,378.391876 167.263290,386.290802 
	C164.822464,396.665466 159.145386,405.981812 157.738541,416.685455 
	C157.375244,419.449493 157.596405,422.316620 156.352798,425.008240 
	C152.955322,432.361542 154.285889,440.620148 152.161423,448.331665 
	C151.349457,451.279022 149.048920,453.812439 149.381927,457.092804 
	C150.324188,466.374969 146.563568,475.219574 147.185486,484.611908 
	C147.808563,494.021820 146.010925,503.593719 146.654434,513.000183 
	C147.377670,523.571838 147.499649,534.176208 149.165970,544.756348 
	C151.541672,559.840576 152.376358,575.157776 157.262573,589.802307 
	C158.412399,593.248474 159.913559,596.583313 160.291672,600.317871 
	C161.142029,608.716858 162.232224,617.041870 164.869125,625.186401 
	C166.442764,630.046997 169.453857,634.019470 171.316116,638.589661 
	C177.719482,654.304321 183.835999,670.137329 193.410172,685.158569 
z"/>
<path fill="#000000" opacity="1.000000" stroke="none" 
	d="
M622.575684,775.588867 
	C616.939941,785.145996 609.925842,792.987122 599.845520,797.027222 
	C591.556458,800.349487 583.435913,804.329590 574.546753,806.015747 
	C573.416016,806.230286 572.097107,806.551758 571.097961,806.186951 
	C563.175049,803.293884 554.847534,802.023865 546.739990,799.890808 
	C539.637512,798.022217 534.160889,793.461426 528.826538,788.579102 
	C526.175598,786.152771 525.464111,783.032104 523.907837,780.172913 
	C520.924744,774.692322 516.571899,770.398193 510.509491,768.035522 
	C510.125702,768.236755 509.530182,768.352478 509.277252,768.710327 
	C501.249664,780.067322 489.272034,787.054016 478.880096,795.731384 
	C473.980286,799.822876 467.129822,800.889038 460.613556,801.262268 
	C456.805054,801.480408 452.980988,801.065125 449.224762,802.220032 
	C444.933807,803.539368 441.005066,803.367676 436.927277,800.616089 
	C432.381287,797.548462 426.405670,798.204468 421.378204,795.683105 
	C412.404541,791.182617 404.896027,785.639893 399.112335,777.005127 
	C396.345337,772.874268 394.868591,768.192627 391.860107,764.227966 
	C388.254456,759.476379 389.763702,753.259460 388.975708,747.734863 
	C388.115387,741.703064 388.376495,735.455017 388.695251,729.329590 
	C388.936523,724.693359 390.034149,720.175293 393.579926,716.576111 
	C394.922119,715.213684 395.767761,713.215149 396.438324,711.361389 
	C401.061340,698.581116 409.561554,689.844116 422.417389,685.078979 
	C429.102600,682.601074 435.460938,679.237305 441.946869,676.230469 
	C442.841949,675.815552 443.991394,675.343506 444.394531,674.570251 
	C447.282440,669.031067 452.512909,665.440430 456.044067,660.590149 
	C461.707001,652.811768 465.372284,643.836548 467.082947,634.264587 
	C469.420929,621.182495 471.544556,608.127258 470.854065,594.674133 
	C470.378235,585.403625 472.057648,576.018433 471.527374,566.755859 
	C470.952179,556.709167 472.520416,546.993530 473.377869,537.114929 
	C474.118164,528.585693 473.132568,519.846558 472.295013,511.260193 
	C471.675415,504.908447 471.538574,498.655884 472.337280,492.343475 
	C473.770630,481.015076 471.103424,469.779449 471.546021,458.447357 
	C471.974731,447.471558 472.199951,436.478851 472.419250,425.501434 
	C472.580933,417.407318 472.158844,409.238831 471.869446,401.141449 
	C471.531006,391.671997 472.477203,382.263977 471.992279,372.804443 
	C471.468292,362.583099 469.530792,352.937744 464.385498,344.020142 
	C463.913147,343.201508 463.743134,342.118164 463.712250,341.148865 
	C463.362946,330.178314 456.884674,323.971680 447.355804,320.287720 
	C437.608826,316.519440 427.778046,313.172516 419.136963,306.863373 
	C407.481995,298.353699 398.132507,288.635620 396.475250,273.464996 
	C396.242584,271.335297 395.730560,269.141174 394.865112,267.191162 
	C389.718018,255.593445 394.295593,245.160263 398.958160,234.936340 
	C400.380859,231.816711 403.461182,229.325562 406.126038,226.928696 
	C410.502380,222.992462 413.439941,217.885254 417.378082,213.661438 
	C424.646973,205.865265 433.849854,201.526215 444.543518,200.814484 
	C447.718933,200.603134 450.728729,200.150177 453.822937,199.318756 
	C463.583588,196.696014 473.009460,198.151764 482.212067,202.223206 
	C489.562988,205.475433 496.662689,209.196442 502.190613,215.015945 
	C506.113556,219.145798 510.299408,222.695114 515.078857,225.721909 
	C517.958496,227.545578 519.434021,227.550186 521.979126,224.566711 
	C530.178528,214.955063 539.151062,206.149536 551.971924,202.645554 
	C558.671082,200.814667 564.976135,197.864792 572.107666,197.230118 
	C580.838318,196.453125 588.611816,198.753098 596.786560,201.403824 
	C610.261658,205.773178 619.769409,214.707611 627.146240,225.830414 
	C632.090271,233.285080 635.976379,241.681549 638.042847,250.637756 
	C638.698181,253.478363 636.496155,255.605072 636.178528,258.284424 
	C635.343506,265.328339 633.913025,272.287842 632.572815,279.262756 
	C630.911926,287.906281 625.664368,293.899567 619.399597,299.240021 
	C610.650452,306.698364 601.289429,313.302399 590.853638,318.278961 
	C588.454529,319.423035 586.168640,320.745331 583.570374,321.488983 
	C580.656860,322.322784 578.181274,323.852234 576.216553,326.354889 
	C570.314148,333.873230 563.699646,340.813934 563.764160,351.499573 
	C563.786987,355.286957 560.533569,359.097076 560.567444,362.880798 
	C560.664307,373.705109 559.308899,384.529083 557.199341,394.851990 
	C555.201782,404.626862 557.887756,414.145142 555.809814,423.761047 
	C554.949280,427.743164 555.609558,432.721954 556.350525,437.006866 
	C557.892090,445.920837 556.033508,454.587280 555.306519,463.254669 
	C554.332092,474.872070 555.587219,486.486755 554.344238,498.059998 
	C553.442139,506.459534 553.373779,514.917542 552.584351,523.344910 
	C551.694458,532.844177 552.453918,542.434998 553.095886,552.015930 
	C553.885254,563.796021 553.153015,575.670105 553.371277,587.498230 
	C553.719421,606.367981 554.565491,625.211121 558.295898,643.791626 
	C558.456848,644.593201 558.515503,645.658569 559.042297,646.106018 
	C564.853455,651.041809 565.143677,659.455566 570.501160,664.512512 
	C575.887756,669.596985 578.765564,677.566650 587.205017,679.264343 
	C588.232117,679.470947 589.030762,680.670288 590.006531,681.298950 
	C594.694885,684.319458 598.689026,688.136292 604.392273,689.914429 
	C611.924744,692.262756 618.004150,697.438660 622.578247,704.006287 
	C625.126953,707.665833 629.312134,709.463440 631.503601,713.842529 
	C637.218323,725.261719 635.083008,736.905701 633.898254,748.574097 
	C633.481506,752.679077 632.114136,756.674683 632.167480,760.880859 
	C632.254578,767.747437 627.632812,771.612793 622.575684,775.588867 
z"/>
<path fill="#000000" opacity="1.000000" stroke="none" 
	d="
M802.573486,538.278687 
	C795.783203,537.575989 789.558838,534.161560 783.166443,535.606628 
	C778.190918,536.731384 773.273315,538.178589 768.217773,539.136169 
	C758.760559,540.927551 749.200928,541.806702 739.635803,542.304016 
	C728.713806,542.871887 720.431641,536.595337 713.927002,529.104431 
	C705.228699,519.087158 702.933472,522.614380 696.823792,529.916077 
	C688.532776,539.824951 681.537354,550.314453 678.625488,563.202026 
	C677.992615,566.002991 678.553467,567.277161 680.843140,568.276062 
	C683.582153,569.470947 686.290649,570.764343 689.103821,571.755676 
	C699.195740,575.311829 704.463684,582.333252 707.631897,592.674988 
	C710.725586,602.773315 714.083862,613.098389 725.650757,618.613586 
	C733.818665,622.508057 741.971924,626.779175 750.098877,630.919250 
	C756.008240,633.929565 759.401062,638.356079 760.634888,644.541931 
	C762.205688,652.417114 765.651245,659.622803 768.164185,667.158630 
	C769.153198,670.124695 771.337036,672.206299 772.896423,674.740173 
	C774.565491,677.452271 775.374146,680.071777 772.737671,682.885986 
	C770.086792,685.715576 767.884033,683.806580 765.631836,682.598206 
	C759.297485,679.199463 755.063171,673.603455 750.769958,668.092285 
	C745.988892,661.954956 742.576111,654.960205 738.456909,648.408447 
	C733.764099,640.944336 726.506836,637.689636 718.072144,637.359192 
	C705.267151,636.857544 696.514038,631.265991 690.298279,619.759583 
	C685.440186,610.766479 682.008362,600.905640 675.001648,593.011780 
	C671.104370,588.621094 666.489868,587.079224 661.230530,587.669495 
	C654.226318,588.455627 647.344727,587.873474 640.369873,587.645020 
	C629.802856,587.298950 619.956604,590.959106 610.783752,596.125854 
	C606.794617,598.372803 602.833862,600.751709 600.104919,604.760376 
	C595.353577,598.284363 594.054199,589.622986 598.470947,584.915894 
	C602.754211,580.351196 606.352905,575.039307 609.637695,569.678955 
	C611.884644,566.012268 614.832825,564.079163 618.593689,562.303345 
	C628.145813,557.792847 639.252686,556.754761 647.503052,549.328308 
	C648.975952,548.002502 650.742126,547.051514 651.556824,545.082153 
	C654.869751,537.073547 660.694946,530.629822 665.326233,523.454712 
	C670.293701,515.758789 677.877380,510.275574 684.265442,503.780640 
	C687.029358,500.970459 690.894897,499.262543 693.761169,496.530579 
	C702.367432,488.327423 714.709290,492.039032 722.351257,498.260345 
	C727.305786,502.293793 731.635132,507.446533 735.137939,512.819275 
	C739.141724,518.960449 744.271912,519.828308 750.905396,519.728821 
	C759.782410,519.595642 768.540588,516.920105 777.466980,518.583313 
	C779.533691,518.968384 781.523621,518.352722 783.321716,517.657471 
	C797.703003,512.096802 808.516052,514.555847 819.818359,526.143311 
	C821.096741,527.453979 822.235779,528.973511 823.713867,530.001892 
	C827.243225,532.457520 828.338501,535.677490 826.777405,539.531860 
	C825.633606,542.355835 819.246582,544.383972 815.803528,543.634460 
	C811.195007,542.631165 807.049744,540.594910 802.573486,538.278687 
z"/>
<path fill="#000000" opacity="1.000000" stroke="none" 
	d="
M640.116150,485.130890 
	C636.855164,488.918793 632.849854,491.157440 628.688354,492.722107 
	C615.095825,497.832733 602.219238,504.171478 590.633179,513.013123 
	C589.108337,514.176819 587.260864,515.968750 585.294495,514.614258 
	C583.329529,513.260864 583.311707,510.687164 584.153564,508.657501 
	C587.381042,500.876129 586.980774,492.298462 589.681213,484.420349 
	C590.001282,483.486755 589.992554,482.143982 590.637512,481.663208 
	C598.637695,475.698792 602.943604,465.123199 614.927185,463.957367 
	C622.329834,463.237183 628.384644,458.207397 630.848511,451.022736 
	C634.784912,439.544128 643.391541,431.413269 650.896851,422.838470 
	C657.477844,415.319763 658.866211,407.796143 657.757935,398.811218 
	C655.762268,382.632568 653.846130,366.386414 657.813293,350.291107 
	C659.667664,342.767883 664.425598,336.465149 669.657104,330.898926 
	C674.189697,326.076447 679.437866,321.969513 685.349548,318.667084 
	C696.412659,312.486969 704.760620,303.369934 709.761047,291.835175 
	C712.362671,285.833740 716.844666,282.134216 721.671570,278.928284 
	C726.243469,275.891754 730.262512,271.523071 736.309448,270.509308 
	C737.979553,273.714752 738.096985,276.639954 736.922974,280.038879 
	C734.286560,287.671509 729.672607,294.252655 725.986877,301.304596 
	C722.835022,307.335205 719.222900,312.947998 718.224426,319.940186 
	C717.573425,324.499176 712.929993,326.184082 709.584412,328.395264 
	C697.734131,336.227356 689.544495,347.244110 682.995422,359.397095 
	C680.374817,364.260132 680.461365,370.584473 681.588379,376.096497 
	C682.941895,382.715912 685.589722,389.065094 687.565430,395.565247 
	C688.537964,398.764679 690.313538,398.906433 693.260437,398.072754 
	C703.489502,395.178955 713.865723,392.907928 723.863708,389.090790 
	C730.569092,386.530762 737.669495,387.570496 743.979614,390.952820 
	C746.979797,392.560944 750.034668,392.916809 753.083008,393.011017 
	C761.787231,393.279968 770.541016,394.599976 779.202271,392.478241 
	C780.171143,392.240906 781.147522,391.739319 782.101318,391.782410 
	C788.422852,392.067780 794.628601,391.540924 800.668335,389.545654 
	C803.309448,388.673157 805.910034,389.172424 808.533813,389.725769 
	C813.631531,390.800812 814.616089,392.909912 811.509766,397.231354 
	C808.246826,401.770477 803.460266,404.358002 798.064880,405.125549 
	C791.977661,405.991516 786.215149,408.354370 779.961182,408.496796 
	C776.738708,408.570160 774.100464,411.117767 771.772827,412.998108 
	C765.555786,418.020386 758.640686,415.967468 752.228027,415.157837 
	C744.649414,414.200958 737.100037,413.074493 729.465942,412.848572 
	C724.532410,412.702576 720.320129,415.169769 716.886047,418.292969 
	C708.334351,426.070496 697.689331,429.132874 687.061707,432.245056 
	C682.515503,433.576385 679.062683,435.917267 676.348022,439.802094 
	C668.725769,450.709778 660.917114,461.487061 653.201294,472.329529 
	C649.673035,477.287323 644.260620,480.297913 640.116150,485.130890 
z"/>
<path fill="#000000" opacity="1.000000" stroke="none" 
	d="
M396.588623,418.542999 
	C400.295593,426.932495 400.895416,434.921875 398.326965,443.558594 
	C392.662598,462.605896 399.378540,479.532471 408.554291,495.825806 
	C411.638794,501.302917 418.049042,502.997528 422.055878,507.482941 
	C423.502136,509.101929 425.287781,510.502838 426.002014,512.565674 
	C430.382507,525.217590 435.946014,537.606140 435.437378,551.430298 
	C435.311707,554.846497 435.820648,559.475342 432.179565,560.646973 
	C428.298889,561.895691 426.170013,557.574036 424.679230,554.668152 
	C421.997467,549.440918 416.581848,547.343079 412.957245,543.250916 
	C408.054138,537.715393 403.717987,531.873413 396.160858,528.862671 
	C390.667114,526.674011 389.479828,519.095520 385.023193,515.185852 
	C379.918121,510.707458 379.580719,504.056519 376.438324,498.677521 
	C369.770477,487.263916 359.184052,480.889130 348.670319,474.193024 
	C343.475006,470.884186 338.111816,467.889801 333.967010,463.135010 
	C331.304993,460.081238 327.456055,458.550903 324.019012,456.534058 
	C314.668182,451.047119 314.973450,441.602631 314.796204,432.778351 
	C314.572052,421.618073 314.464661,410.569519 311.949158,399.565796 
	C310.116516,391.549072 306.109863,385.210815 300.339844,379.712006 
	C296.364838,375.923828 290.843140,375.975983 286.058685,374.345520 
	C276.799347,371.190155 272.963593,367.076691 272.941956,357.176300 
	C272.926819,350.251953 270.847168,344.032654 267.437469,338.276764 
	C262.873474,330.572205 260.866577,321.987885 258.134857,313.638611 
	C257.350250,311.240479 258.550262,310.390503 260.699127,309.873871 
	C268.000519,308.118469 274.777557,311.814667 278.437653,320.956451 
	C282.176849,330.295929 286.807220,339.175720 292.582001,347.221771 
	C297.363770,353.884277 302.339386,360.380829 310.659271,364.330017 
	C316.974548,367.327789 324.429810,368.561310 329.622833,375.010498 
	C334.487640,381.052063 336.032562,387.164795 336.017700,394.237061 
	C335.996307,404.404175 335.980377,414.588928 339.359711,424.320526 
	C341.478241,430.421478 343.674164,436.605957 346.798218,442.216827 
	C350.037811,448.035217 356.620819,449.142670 362.546295,450.770844 
	C363.810486,451.118256 365.226227,450.958160 366.457977,451.371796 
	C370.984833,452.891876 373.880981,451.801544 374.329468,447.241791 
	C375.356964,436.796082 377.059174,426.682343 374.562469,415.721649 
	C371.864197,403.876099 369.669708,391.342346 371.703583,378.813293 
	C372.428009,374.350739 374.543060,373.544556 378.385803,375.712341 
	C383.825226,378.780975 385.250854,383.906006 386.295929,389.338135 
	C387.389801,395.023834 388.833801,400.461945 391.846588,405.598602 
	C394.068207,409.386322 394.962769,413.952393 396.588623,418.542999 
z"/>
<path fill="#000000" opacity="1.000000" stroke="none" 
	d="
M371.860199,568.141052 
	C367.886627,566.788086 364.326721,565.320068 360.628876,564.416565 
	C350.045654,561.830872 342.625061,565.381165 338.074005,575.406006 
	C335.852753,580.298950 331.836151,583.647522 328.339142,587.277893 
	C322.726929,593.104187 316.637421,598.550842 309.154022,602.189758 
	C304.078125,604.658081 298.624054,604.009216 293.568512,603.870056 
	C285.836823,603.657043 278.715240,606.577148 271.140259,606.679138 
	C268.853424,606.709900 266.891998,608.349487 265.228424,610.114563 
	C259.324432,616.378845 251.775497,620.329651 244.480011,624.616455 
	C241.687637,626.257202 238.952316,626.295166 236.062378,624.396912 
	C233.625656,622.796326 231.388504,620.419495 226.597107,621.915100 
	C230.173355,615.019592 235.062302,611.201477 239.593796,607.446045 
	C244.072937,603.734009 248.616333,600.173950 252.519974,595.835876 
	C256.858612,591.014404 261.768219,587.148193 268.685303,587.102295 
	C270.289429,587.091675 270.888794,585.784058 271.915222,585.010437 
	C273.244873,584.008179 274.583679,582.818848 276.325775,582.846069 
	C286.022034,582.997314 293.182770,577.654968 300.216949,571.991394 
	C300.729034,571.579041 301.269135,571.043213 301.868622,570.921509 
	C309.991547,569.272705 312.841705,563.165161 314.735077,556.080872 
	C315.793549,552.120667 316.520966,548.041199 320.445892,545.365479 
	C322.859497,543.720093 320.944580,541.656616 319.428467,540.462402 
	C317.200562,538.707520 314.480011,537.901306 311.693665,537.194580 
	C303.349762,535.078247 295.065430,532.727783 286.754547,530.480713 
	C282.286987,529.272766 279.269714,526.419250 277.372192,522.281189 
	C276.592285,520.580444 275.577789,518.932190 273.960632,518.062805 
	C262.645538,511.979767 257.779724,500.810608 251.171890,490.716980 
	C245.212799,481.614227 239.769608,470.923859 226.619354,469.361450 
	C222.940567,468.924347 219.418228,466.956055 215.887802,465.532318 
	C209.815735,463.083649 207.080734,456.760101 210.180542,452.471649 
	C211.516403,450.623535 213.096039,449.433990 215.691681,450.190369 
	C229.422302,454.191376 242.680206,459.392731 255.612015,465.480896 
	C259.427460,467.277161 263.684937,467.622253 267.130096,470.848785 
	C271.008789,474.481293 273.303345,478.920105 275.940033,483.255280 
	C276.360992,483.947418 276.269440,485.014313 276.778931,485.580078 
	C283.449768,492.987305 288.506012,501.561951 297.610870,507.116547 
	C307.783752,513.322754 318.745239,511.550323 329.307922,513.369141 
	C341.716217,515.505676 352.071167,520.506897 360.449066,530.217163 
	C364.691193,535.133972 369.400177,539.210449 376.748749,541.300293 
	C386.291931,544.014404 396.033997,548.348511 403.526947,555.824951 
	C411.754791,564.034668 417.634521,574.225159 426.015106,582.331055 
	C428.383514,584.621887 427.782593,588.173035 426.822235,590.878479 
	C426.019928,593.138733 423.038879,592.751404 421.019379,592.525818 
	C410.622589,591.364258 400.918152,588.497986 392.852661,581.248169 
	C386.755280,575.767395 379.501831,571.954956 371.860199,568.141052 
z"/>
</svg>