<svg version="1.1" id="Layer_1" xmlns="http://www.w3.org/2000/svg" xmlns:xlink="http://www.w3.org/1999/xlink" x="0px" y="0px"
	 width="1024px" height="1024px" viewBox="0 0 976 976" enable-background="new 0 0 976 976" xml:space="preserve">
<path fill="#000000" opacity="1.000000" stroke="none" 
	d="
M521.507690,843.421265 
	C503.181458,849.027771 485.289368,854.598572 467.370544,860.082031 
	C465.333618,860.705383 462.729187,862.703918 461.188171,859.801392 
	C459.811462,857.208435 462.463409,856.031555 464.191101,854.854553 
	C473.107788,848.780273 481.124756,841.466614 490.388885,835.870056 
	C491.620605,835.125977 492.717255,834.158447 494.269257,833.001587 
	C483.198395,827.862366 472.750641,823.663818 460.562042,826.795776 
	C454.354736,828.390869 447.692627,827.494934 441.227783,828.159851 
	C419.788788,830.365173 398.194916,830.669617 376.762756,833.153015 
	C370.341919,833.896973 363.833435,834.270691 357.372467,834.193970 
	C347.033813,834.071350 336.894989,836.476196 326.581238,836.233337 
	C324.637604,836.187561 321.700684,837.441162 321.093994,834.411621 
	C320.476624,831.328613 323.637665,831.343384 325.473480,830.717834 
	C337.906128,826.481506 350.391663,822.400635 362.850128,818.239624 
	C364.653046,817.637451 366.479095,817.556030 368.268982,817.975891 
	C371.171112,818.656494 373.531342,817.686279 375.548645,815.771362 
	C376.537933,814.832336 377.425629,813.784607 378.857544,813.753845 
	C390.499054,813.503479 399.754089,806.566284 410.081818,802.644836 
	C419.410248,799.102905 428.683594,795.422363 437.564636,790.835571 
	C438.919037,790.136047 440.325256,789.736877 441.867920,789.716370 
	C461.634430,789.454163 481.257202,787.020935 500.937714,785.540283 
	C509.899506,784.865967 519.098511,784.938110 528.357727,781.955994 
	C523.031433,769.960815 517.731323,758.381287 512.189331,746.874512 
	C508.378357,738.961792 502.126984,733.562561 496.484528,727.387146 
	C481.136780,710.589844 466.078796,693.526672 450.651093,676.804016 
	C442.528564,667.999634 433.760040,659.804138 425.756439,650.863159 
	C419.565002,643.946655 411.949921,638.304688 405.872314,631.434998 
	C396.733551,621.105103 386.234161,612.219238 376.980103,602.068298 
	C374.943146,599.833923 374.430389,597.669739 375.289978,594.802002 
	C380.336731,577.964844 384.691650,560.936340 390.255127,544.233521 
	C395.439789,528.667847 399.228485,512.639954 404.303375,497.033966 
	C407.594604,486.913055 410.592560,476.734650 413.194641,466.434875 
	C414.217072,462.387909 416.099487,459.086670 419.231506,456.362701 
	C421.069641,454.764160 423.062347,453.150726 423.237946,450.098907 
	C422.486359,450.169403 421.652924,449.987762 421.264526,450.322510 
	C414.120789,456.479279 406.067993,453.318695 398.513306,452.112793 
	C385.060272,449.965302 371.471710,449.201965 358.002075,447.345734 
	C356.569397,447.148285 354.834076,447.570251 354.113251,445.786621 
	C353.354187,443.908386 354.602631,442.625732 355.717712,441.381134 
	C358.118744,438.701263 360.551025,436.049347 362.698303,433.052948 
	C356.784760,436.758636 349.630981,437.902252 344.342621,442.601929 
	C342.858246,443.921082 341.351288,444.187531 339.325195,443.917542 
	C316.892212,440.928711 294.912720,436.013000 273.459869,428.784393 
	C272.300171,428.393616 271.213989,428.320557 269.639984,429.222198 
	C273.675385,434.361877 269.557861,438.122406 266.905884,441.393433 
	C256.040344,454.795441 252.212097,470.901703 248.322525,487.047913 
	C246.495209,494.633362 244.715836,502.230377 242.908524,509.820648 
	C242.831726,510.143127 242.548752,510.478516 242.603256,510.761353 
	C244.682510,521.546387 236.071426,524.695435 229.376083,529.014038 
	C210.937943,540.907043 192.403717,552.651428 173.873123,564.400330 
	C171.246277,566.065857 169.882370,568.261414 168.606201,571.169983 
	C163.991928,581.686584 160.715912,592.143616 164.197052,603.761658 
	C164.756653,605.629211 165.473541,608.819031 162.594193,609.911438 
	C160.128891,610.846802 158.226318,608.722229 156.443695,607.321350 
	C151.010147,603.051392 147.454422,597.668945 147.162018,590.298950 
	C143.313934,595.984741 139.936264,601.566284 141.827789,608.693665 
	C142.830261,612.471008 142.165359,616.323792 142.295746,620.140198 
	C142.349014,621.699097 141.986938,623.199646 140.337418,623.847046 
	C138.631790,624.516418 137.549332,623.309021 136.403427,622.335266 
	C127.525833,614.791199 124.076584,602.564514 127.662148,591.313049 
	C127.853394,590.712891 128.016373,590.103699 127.913818,589.364014 
	C124.142601,593.643066 119.749100,597.224426 118.787659,603.584961 
	C118.004417,608.766602 116.931770,614.073975 114.517410,618.895020 
	C113.781281,620.364990 113.218811,622.033630 111.163811,622.192688 
	C109.015701,622.359009 108.476662,620.667908 107.601158,619.257935 
	C101.896011,610.070129 102.855621,599.761780 104.356445,590.098450 
	C105.165329,584.890320 110.371117,580.373535 113.550064,575.516663 
	C114.067612,574.725830 115.012894,574.059448 114.515320,572.294495 
	C109.949150,573.092651 105.504219,573.507996 101.631248,577.065186 
	C96.260048,581.998352 92.683197,588.755371 86.029144,592.340515 
	C84.499466,593.164612 83.147171,594.992493 81.113411,593.652771 
	C79.260941,592.432495 79.570656,590.396606 79.774574,588.629578 
	C81.029633,577.753723 86.509270,568.605103 91.943359,559.462952 
	C93.064087,557.577454 95.291122,557.374268 97.172157,556.852051 
	C104.550079,554.803772 111.883942,552.653748 118.689583,549.045898 
	C122.362175,547.098999 126.523651,547.869812 130.394806,546.860413 
	C134.986526,545.663025 138.927139,543.871704 142.593002,540.619141 
	C156.134857,528.603760 170.009735,516.964111 183.735153,505.154968 
	C188.016785,501.471191 191.590256,497.003387 196.322693,493.807404 
	C197.608749,492.938934 197.966736,491.797638 197.948273,490.034760 
	C197.747696,470.872406 197.758102,451.707886 197.695282,432.544037 
	C197.686035,429.723572 197.772156,426.926636 196.950607,424.127716 
	C196.286423,421.864868 196.751648,419.557312 197.811508,417.342224 
	C204.560242,403.237305 211.382614,389.164429 217.869980,374.939270 
	C220.040833,370.179138 222.707047,368.601501 227.550659,370.962311 
	C229.224655,371.778259 231.107712,372.579834 234.002029,371.743866 
	C229.088974,366.886566 223.712799,363.714325 218.644882,360.170471 
	C217.506454,359.374390 216.436295,360.393402 215.385452,360.816284 
	C205.370483,364.846466 195.312408,368.774841 185.370850,372.978729 
	C182.697357,374.109222 180.358704,374.279846 177.724045,373.210480 
	C157.951309,365.185242 139.955551,354.425751 124.913887,339.085052 
	C123.977188,338.129730 123.107834,337.179871 122.792442,335.787598 
	C119.373848,320.696045 117.022552,305.564453 117.500313,289.938446 
	C117.819984,279.482635 123.836792,272.472443 129.644257,265.183685 
	C134.921753,258.560059 141.158539,252.806778 147.551102,247.199219 
	C151.372543,243.847046 155.778839,241.588196 159.865891,238.756775 
	C161.783340,237.428421 163.596436,238.029312 165.486557,239.113846 
	C167.857498,235.345734 170.672256,234.849518 174.457855,236.995895 
	C176.550415,238.182327 179.179474,238.524536 181.616302,238.984558 
	C194.393417,241.396622 205.251373,248.090485 216.300064,254.374603 
	C218.176468,255.441833 220.099274,256.427338 221.978378,257.490021 
	C224.626938,258.987793 226.970856,261.379974 226.075012,264.260040 
	C224.902985,268.027985 226.753922,270.591736 227.841553,273.659210 
	C230.160355,280.199036 232.263031,286.819153 234.282272,293.458649 
	C234.721558,294.903076 234.637665,296.918823 236.291138,297.116547 
	C241.551514,297.745697 246.534744,300.219238 251.960815,299.573792 
	C257.906830,298.866486 258.971283,300.026306 258.542847,306.237244 
	C257.973114,314.496399 257.672852,322.769287 260.297058,331.871735 
	C261.839874,321.300964 262.835785,311.639008 264.751923,302.163147 
	C266.590759,293.069519 269.395660,284.171906 271.744598,275.179962 
	C272.108948,273.785217 273.026031,272.891571 274.096283,272.067169 
	C290.552277,259.390808 305.974365,245.459976 322.189850,232.476440 
	C333.979889,223.036255 345.440002,212.982697 355.353760,201.502045 
	C359.851410,196.293533 366.028290,195.708511 371.601471,193.867950 
	C390.537933,187.614151 409.723236,182.117020 428.780396,176.223770 
	C435.919128,174.016190 442.986206,171.570282 450.049805,169.128540 
	C455.131256,167.371979 460.614380,156.726761 460.132172,151.333649 
	C458.858215,137.085907 462.270721,124.338638 473.339996,114.419006 
	C474.499603,113.379822 475.728607,112.444214 477.357361,113.150642 
	C479.221069,113.958961 479.456940,115.704529 479.176880,117.393867 
	C478.662903,120.494293 478.108856,123.608955 477.254181,126.627861 
	C475.244873,133.725098 475.416260,138.702133 478.568054,146.684753 
	C481.756958,142.213333 484.701080,138.125015 487.594513,134.001129 
	C488.356110,132.915634 489.095947,131.778076 489.616516,130.565964 
	C494.138000,120.037674 504.044891,116.444305 513.435547,112.506889 
	C519.961792,109.770500 526.577271,112.905609 532.940979,114.319069 
	C535.477173,114.882385 534.085449,117.678398 532.173035,118.834541 
	C526.771484,122.099876 521.378296,125.399078 515.813232,128.368927 
	C509.101532,131.950684 507.018616,138.749313 502.856323,145.103958 
	C507.389557,145.317368 510.608856,143.432220 513.150452,141.729080 
	C521.570068,136.086868 530.436401,139.172516 539.229187,139.112900 
	C548.062500,139.052994 551.473755,146.098938 556.593994,150.976685 
	C557.702515,152.032654 558.131409,153.612534 557.061768,155.086243 
	C556.148193,156.345032 554.749756,156.466629 553.442017,156.069016 
	C548.765076,154.647079 543.879089,155.526962 539.108582,154.474716 
	C531.826477,152.868484 525.470947,155.987839 519.133667,159.991211 
	C521.135620,162.308182 523.715576,161.671600 526.030396,161.678452 
	C537.076477,161.711182 545.574341,166.070786 551.012573,175.950607 
	C551.952820,177.658752 552.857300,179.365448 551.755737,181.062622 
	C550.444824,183.082230 548.475708,181.878769 546.762756,181.435379 
	C543.707092,180.644440 540.584106,180.033859 537.621460,178.977173 
	C523.639465,173.990219 511.714966,177.959534 500.896637,187.118744 
	C499.113495,188.628418 499.101349,190.008499 500.669312,191.747543 
	C503.131195,194.477966 505.760376,196.202957 509.763000,195.857040 
	C514.395752,195.456665 519.086426,195.699982 523.751709,195.717377 
	C525.457520,195.723740 527.171875,195.976517 527.927673,197.817230 
	C528.726624,199.763062 527.294373,200.708572 526.122498,201.980087 
	C519.669617,208.981293 511.191040,211.564468 502.265747,213.220642 
	C498.781708,213.867157 495.659698,212.252914 492.646362,211.022888 
	C484.928558,207.872498 476.920074,205.618378 469.084930,202.843597 
	C466.960571,202.091278 465.097137,202.008835 462.849579,202.782883 
	C440.333282,210.537460 418.956146,221.000641 397.064392,230.236038 
	C393.282867,231.831345 392.136780,235.512756 390.290070,238.578903 
	C380.433838,254.943710 370.780365,271.423218 361.703491,288.243774 
	C359.317810,292.664673 360.198120,294.802399 364.325409,297.247223 
	C391.383484,313.275177 420.372437,324.676392 450.380157,333.700317 
	C465.283905,338.182190 480.377319,341.837219 495.661591,344.836426 
	C504.742950,346.618408 513.611694,349.481659 522.580383,351.842194 
	C524.030151,352.223724 524.932434,353.094513 525.098083,354.576691 
	C525.276367,356.171173 524.373657,356.834106 522.913391,357.376434 
	C515.479675,360.136993 508.097229,363.035522 500.823792,366.505066 
	C505.074158,366.168945 509.083862,364.581482 513.316406,364.182617 
	C517.081177,363.827820 520.913147,362.991272 524.453430,361.667053 
	C536.107483,357.307800 546.156372,362.062958 556.290466,366.737152 
	C559.764648,368.339630 563.299133,369.814484 566.743774,371.476624 
	C568.330078,372.242126 570.419006,372.868835 570.125854,375.242676 
	C569.809875,377.801361 567.672180,378.077240 565.645081,378.308411 
	C564.338501,378.457397 562.959961,378.357758 561.981384,379.637146 
	C581.125793,395.425537 597.400818,414.045563 614.669006,431.664429 
	C631.778748,449.121643 649.427612,466.079102 664.863098,485.415283 
	C666.515320,481.906708 665.985352,477.753143 665.228210,473.873444 
	C664.700256,471.168304 665.077026,469.346466 667.067505,467.716522 
	C678.637085,458.242432 689.477051,447.929932 701.064209,438.459473 
	C711.982666,429.535583 722.319458,419.899933 732.908020,410.572662 
	C733.948730,409.655914 734.330200,408.434967 734.728943,407.118744 
	C738.243042,395.519135 741.921875,383.980835 746.415405,372.701721 
	C747.867859,369.055786 749.528931,367.998566 753.124878,369.647339 
	C767.319214,376.155548 781.001404,383.657104 794.747253,391.029572 
	C808.213928,398.252258 821.528259,405.760284 835.034363,412.907074 
	C838.205017,414.584839 840.098999,416.656860 841.330261,420.040710 
	C844.514648,428.792297 848.182190,437.366852 851.516418,446.065918 
	C852.421631,448.427643 854.635132,451.127533 852.368896,453.468933 
	C850.348755,455.556122 847.623657,453.795990 845.304749,453.108582 
	C823.183655,446.551422 801.046326,440.097961 778.321838,435.835968 
	C774.640625,435.145569 772.916321,436.192627 771.005310,439.021240 
	C755.275879,462.303864 741.319092,486.687531 726.398254,510.470306 
	C712.983337,531.852844 699.538330,553.218872 684.705872,573.680176 
	C681.907593,577.540405 679.404785,577.945801 675.529785,575.855591 
	C658.397400,566.614197 641.363586,557.219238 625.029541,546.593201 
	C607.046997,534.894653 588.817932,523.569092 570.982666,511.652313 
	C558.815613,503.522858 546.404541,495.792114 534.131775,487.838043 
	C531.479004,486.118744 528.780701,484.608826 525.656433,483.680908 
	C503.327850,515.383972 482.504608,547.808655 462.439301,580.820740 
	C464.737396,582.084534 465.611908,581.042480 466.578278,580.528015 
	C469.430878,579.009583 471.525787,579.662415 473.351624,582.348633 
	C488.852936,605.153931 505.027618,627.509766 519.218933,651.187378 
	C520.652161,653.578735 522.433594,655.754272 520.011292,658.855042 
	C518.815857,660.385315 520.396179,662.418030 521.765564,663.618713 
	C526.455322,667.730713 529.338684,673.271729 533.264099,677.988464 
	C535.612671,680.810425 538.286499,682.433838 541.689941,682.585388 
	C550.828613,682.992188 559.628174,685.566162 568.665100,686.520874 
	C572.595703,686.936157 574.404663,689.086060 574.326721,692.739746 
	C574.050293,705.704407 573.751038,718.672058 573.126404,731.622498 
	C573.010742,734.019836 573.148926,737.054260 570.303894,738.683716 
	C569.069824,739.390442 569.350525,740.893005 569.582764,741.901733 
	C572.134827,752.988892 572.265686,764.278625 572.612061,775.556091 
	C572.625122,775.981140 573.085083,776.392517 573.556213,777.174622 
	C577.931396,776.205139 580.854309,772.793335 584.237061,770.371826 
	C605.193481,755.370911 626.025085,740.195312 646.847229,725.007874 
	C648.802795,723.581604 650.368408,723.404785 652.135986,725.078735 
	C657.190430,729.865479 662.337769,734.556519 667.310059,739.426697 
	C671.407959,743.440613 671.120911,745.521118 666.635925,749.043762 
	C655.925110,757.456116 645.258545,765.924927 634.597900,774.400940 
	C633.859924,774.987671 632.937439,775.572632 633.041504,777.117737 
	C638.821899,777.070007 644.382202,775.516479 649.936157,774.339844 
	C660.815796,772.034912 671.644043,769.449158 682.406372,766.645081 
	C687.606689,765.290100 692.621155,766.676697 697.695312,766.585938 
	C713.185913,766.308960 728.558105,768.091125 743.960999,768.959656 
	C764.487427,770.117004 784.956787,772.274353 805.538452,772.808044 
	C812.148376,772.979370 818.739807,773.973083 825.331360,774.669922 
	C827.122864,774.859253 829.810364,773.837036 830.006653,776.913574 
	C830.173401,779.525940 827.636658,779.459900 826.015137,779.753662 
	C818.835876,781.054810 811.649719,782.773987 804.406189,783.132629 
	C797.571533,783.470947 790.985657,785.188477 784.224609,785.861328 
	C779.239502,786.357361 774.458069,785.165771 769.438354,785.923096 
	C763.234253,786.859070 757.043274,788.265503 750.315491,788.466064 
	C750.667847,790.372559 753.138000,791.675537 751.644470,793.755188 
	C750.347778,795.560608 748.396606,795.061646 746.647522,795.397339 
	C731.462402,798.311951 716.001038,798.598938 700.686707,800.276245 
	C687.249023,801.747986 673.809937,803.207458 660.234131,804.687317 
	C660.819275,807.180664 662.639160,807.312134 664.082703,807.939880 
	C675.804077,813.035645 687.523926,818.134827 699.246887,823.227051 
	C704.254150,825.401978 709.275146,827.545349 714.273682,829.739807 
	C716.009338,830.501770 717.814819,831.464294 716.897827,833.788025 
	C716.069702,835.886353 714.236267,835.075073 712.590820,834.873962 
	C699.764832,833.305908 686.926636,831.837158 674.103271,830.248474 
	C671.149475,829.882568 668.258240,828.987549 665.302368,828.669617 
	C662.054626,828.320374 658.216248,826.639709 656.909851,831.938721 
	C656.455505,833.781616 654.501282,833.142517 653.018188,832.936035 
	C642.655701,831.493225 632.807617,827.753784 622.509766,826.067627 
	C609.940430,824.009644 598.343750,817.501831 585.504211,817.246338 
	C574.824768,817.033813 564.116150,818.291443 551.966858,818.980225 
	C556.638245,822.907227 560.949158,824.101868 564.889709,825.802612 
	C581.964661,833.172241 599.145203,840.297180 616.287231,847.511475 
	C617.053528,847.833923 617.839661,848.117310 618.580200,848.491089 
	C619.972778,849.193787 621.330872,850.097412 620.797241,851.901978 
	C620.314209,853.535339 618.678467,853.379456 617.407043,853.299072 
	C609.122498,852.775208 600.908508,851.625732 592.767090,850.047668 
	C589.930298,849.497742 587.413696,848.329590 585.723267,852.134338 
	C584.874634,854.044495 582.427917,853.440552 580.697510,853.085144 
	C570.459045,850.981995 560.265015,848.660583 550.016602,846.609253 
	C540.755249,844.755554 531.354187,843.932129 521.507690,843.421265 
z"/>
<path fill="#000000" opacity="1.000000" stroke="none" 
	d="
M301.838196,815.274780 
	C296.942169,815.802917 292.493713,816.280701 288.051758,816.812561 
	C285.835419,817.077942 283.122772,818.437195 282.028778,815.405823 
	C280.958923,812.441223 283.457306,811.397156 285.704224,810.485474 
	C286.308228,810.240356 286.853333,809.850098 287.831116,809.297058 
	C283.011017,806.524109 278.092590,805.521973 273.094452,806.441589 
	C263.101990,808.280151 253.018494,808.739929 242.978180,808.145020 
	C233.169495,807.563904 223.377472,807.394958 213.568527,807.307251 
	C212.114578,807.294250 210.360138,807.439453 210.015472,805.407471 
	C209.621811,803.086548 211.552597,802.540222 213.087341,802.207581 
	C223.910950,799.862061 234.622513,797.118225 245.616653,795.398865 
	C257.220856,793.584045 268.543304,790.017578 280.035950,787.425171 
	C290.212067,785.129700 300.448151,783.098206 310.668671,781.003418 
	C312.963470,780.533081 315.281494,780.655396 317.615479,781.032776 
	C339.522034,784.575195 361.411926,788.235718 383.366547,791.453491 
	C388.110657,792.148804 392.936249,792.263550 397.611664,793.568237 
	C399.211151,794.014648 401.199890,793.872192 401.005615,796.268250 
	C400.840515,798.304626 399.102905,798.952698 397.438782,799.162109 
	C386.904358,800.488037 376.450012,802.276306 366.002869,804.161682 
	C358.672028,805.484802 351.241241,807.296936 343.880096,807.188660 
	C329.341522,806.974915 316.473419,814.334351 301.838196,815.274780 
z"/>
<path fill="#000000" opacity="1.000000" stroke="none" 
	d="
M760.471313,650.510132 
	C742.375610,665.354431 724.541809,679.957031 706.715576,694.568787 
	C704.019348,696.778748 701.348083,699.019409 698.685242,701.269531 
	C697.288147,702.450134 695.890869,704.099670 693.982178,702.415039 
	C692.191040,700.834045 693.140930,699.109070 694.288635,697.541504 
	C697.720886,692.853821 701.055298,688.090942 704.598022,683.488281 
	C719.280823,664.412720 733.967468,645.339661 748.776672,626.362366 
	C754.998108,618.389771 761.466064,610.606201 767.949829,602.843506 
	C770.236084,600.106384 772.925903,599.841187 775.694580,602.502930 
	C781.081726,607.682007 786.453308,612.883362 792.004761,617.882812 
	C795.110962,620.680115 794.497864,622.972229 791.672302,625.264099 
	C781.374207,633.617188 771.050049,641.938293 760.471313,650.510132 
z"/>
<path fill="#000000" opacity="1.000000" stroke="none" 
	d="
M653.861145,641.289307 
	C658.517212,649.068970 658.381775,648.970642 652.990356,656.395081 
	C643.124268,669.981384 633.464417,683.717224 623.663086,697.350952 
	C616.977844,706.650269 610.173645,715.864136 603.486511,725.162170 
	C602.396423,726.677795 601.161255,727.762390 599.346619,727.017578 
	C596.758362,725.955322 598.126099,723.957764 598.650208,722.337585 
	C603.923584,706.034607 610.326965,690.144897 616.505249,674.178772 
	C622.384216,658.986206 628.615601,643.929443 634.774170,628.846497 
	C635.734985,626.493408 635.931152,623.107544 639.187866,622.776733 
	C642.497070,622.440491 643.135498,625.703308 644.570496,627.881165 
	C647.493530,632.317200 650.617432,636.620728 653.861145,641.289307 
z"/>
<path fill="#000000" opacity="1.000000" stroke="none" 
	d="
M637.681702,239.839508 
	C641.803955,241.870804 639.893799,243.981186 638.049500,245.749832 
	C632.889282,250.698380 627.638123,255.554901 622.340820,260.357239 
	C612.863586,268.948975 603.302368,277.447968 593.821472,286.035675 
	C585.939758,293.174805 578.117859,300.379944 570.282532,307.570068 
	C568.983826,308.761871 567.474426,309.880890 565.860596,308.713440 
	C563.938171,307.322815 564.884460,305.373627 565.786987,303.776245 
	C573.379639,290.337738 580.993958,276.911316 588.657349,263.513031 
	C593.118164,255.714020 597.746399,248.010345 602.171143,240.191269 
	C604.497437,236.080307 607.619873,235.241425 612.185364,236.108932 
	C620.479614,237.684937 628.901001,238.591675 637.681702,239.839508 
z"/>
<path fill="#000000" opacity="1.000000" stroke="none" 
	d="
M332.093445,698.729675 
	C330.715393,696.024963 329.489227,693.658630 328.360718,691.246704 
	C327.634583,689.694824 327.134613,687.877441 328.456848,686.564575 
	C329.974884,685.057373 331.600677,686.364258 332.964417,687.204407 
	C346.237976,695.381958 359.531433,703.528931 372.723083,711.837219 
	C387.470673,721.125610 402.115875,730.576538 416.813690,739.944092 
	C418.325928,740.907837 420.669678,741.630066 419.802002,743.860168 
	C418.863159,746.273254 416.310669,745.485168 414.522461,745.009521 
	C407.313049,743.091980 400.149567,740.994812 393.000244,738.859680 
	C379.474915,734.820312 366.013733,730.558167 352.434204,726.712280 
	C347.884094,725.423523 345.026917,723.035034 342.969299,718.794006 
	C339.706055,712.067871 335.876587,705.616394 332.093445,698.729675 
z"/>
<path fill="#000000" opacity="1.000000" stroke="none" 
	d="
M655.020874,310.235474 
	C657.102600,314.051880 655.599487,315.792175 652.193115,316.741241 
	C628.856934,323.243683 605.603882,330.051544 582.068298,335.820068 
	C580.327942,336.246643 578.228516,337.082214 577.184265,334.951263 
	C575.962769,332.458588 578.228516,331.447754 579.843567,330.347626 
	C599.212402,317.154022 619.081543,304.758911 639.399719,293.081787 
	C643.554871,290.693817 645.405823,291.271271 647.637634,295.671631 
	C650.041809,300.412048 652.451355,305.149780 655.020874,310.235474 
z"/>
<path fill="#000000" opacity="1.000000" stroke="none" 
	d="
M432.399597,768.524780 
	C440.590088,769.300659 448.337067,769.997925 456.084412,770.691223 
	C457.447754,770.813171 458.867401,770.939880 459.011780,772.708557 
	C459.175934,774.719482 457.717285,775.015137 456.150940,775.397705 
	C445.696411,777.951294 435.261932,780.586853 424.819550,783.190308 
	C424.498505,783.270386 424.103912,783.194702 423.842285,783.353821 
	C414.981659,788.742554 406.182892,786.287598 397.130737,783.646851 
	C388.394775,781.098389 379.413635,779.384033 370.525055,777.370239 
	C368.610687,776.936523 366.849426,776.448547 366.942902,774.057617 
	C367.035889,771.679138 368.970734,771.828186 370.608063,771.666321 
	C383.785339,770.364014 396.831116,768.280640 409.873322,765.953796 
	C417.189911,764.648499 424.597443,767.436829 432.399597,768.524780 
z"/>
<path fill="#000000" opacity="1.000000" stroke="none" 
	d="
M545.725098,255.069733 
	C546.106750,251.668762 546.370789,248.699081 546.887512,245.774033 
	C547.510681,242.246750 549.203308,240.724136 552.786316,242.915100 
	C557.316528,245.685272 561.972656,248.249649 566.503418,251.019028 
	C568.975464,252.530045 569.525940,254.496231 568.172241,257.357544 
	C560.804199,272.932220 553.625244,288.596252 546.329956,304.205566 
	C545.441223,306.107147 544.552917,308.715668 541.789856,307.818634 
	C538.947144,306.895721 540.172913,304.451569 540.420776,302.311554 
	C541.941711,289.180786 543.309509,276.032379 544.751038,262.892334 
	C545.021179,260.429382 545.393982,257.977661 545.725098,255.069733 
z"/>
<path fill="#000000" opacity="1.000000" stroke="none" 
	d="
M772.939270,736.310059 
	C756.670776,740.443481 740.771606,744.444458 724.840759,748.315125 
	C722.970032,748.769653 720.337219,750.652222 719.152588,747.716553 
	C717.953979,744.746460 720.879761,743.771057 722.837769,742.696289 
	C738.733032,733.971558 754.659363,725.303589 770.580811,716.626709 
	C773.794739,714.875305 777.009216,713.122986 780.260681,711.443237 
	C781.746887,710.675354 783.367371,709.921082 784.910400,711.280762 
	C786.699951,712.857666 785.368958,714.278442 784.527283,715.678650 
	C780.516296,722.351685 778.511719,730.125549 772.939270,736.310059 
z"/>
<path fill="#000000" opacity="1.000000" stroke="none" 
	d="
M495.250610,753.739258 
	C498.734528,756.805481 502.061096,759.534424 505.332062,762.328491 
	C506.809387,763.590393 507.934326,765.245361 506.792999,767.131836 
	C505.688660,768.957336 503.881317,768.142822 502.303253,767.587219 
	C494.783020,764.939209 487.261353,762.295166 479.745636,759.634277 
	C477.427490,758.813538 475.944092,757.516479 475.409393,754.779663 
	C474.585358,750.562195 473.051514,746.487915 471.959381,742.316101 
	C471.546082,740.737427 471.134857,738.838684 472.789215,737.728149 
	C474.323212,736.698303 475.608276,737.938721 476.772583,738.862244 
	C482.880402,743.707031 488.972809,748.571167 495.250610,753.739258 
z"/>
</svg>