<?xml version="1.0" encoding="utf-8"?>
<!-- Generator: Adobe Illustrator 16.0.0, SVG Export Plug-In . SVG Version: 6.00 Build 0)  -->
<!DOCTYPE svg PUBLIC "-//W3C//DTD SVG 1.1//EN" "http://www.w3.org/Graphics/SVG/1.1/DTD/svg11.dtd">
<svg version="1.1" id="Layer_1" xmlns="http://www.w3.org/2000/svg" xmlns:xlink="http://www.w3.org/1999/xlink" x="0px" y="0px"
	 width="300px" height="300px" viewBox="0 0 300 300" enable-background="new 0 0 300 300" xml:space="preserve">
<g>
	<path d="M96.297,89.454c-0.158,2.263-0.366,4.524-0.464,6.791c-0.123,2.89,0.066,5.812-0.281,8.672
		c-0.523,4.307-2.835,7.86-5.454,11.216c-2.767,3.546-5.508,7.112-8.248,10.678c-0.372,0.483-0.67,1.024-0.833,1.844
		c1.066-0.459,2.152-0.883,3.199-1.385c7.788-3.727,15.281-7.899,21.277-14.29c4.822-5.138,8.255-11.195,11.257-17.488
		c2.745-5.755,5.417-11.559,7.802-17.47c3.831-9.494,10.203-16.854,18.375-22.776c6.917-5.011,14.191-9.424,22.117-12.685
		c0.093-0.039,0.216-0.005,0.707-0.005c-1.076,1.181-1.964,2.188-2.886,3.161c-0.932,0.984-1.912,1.921-2.845,2.904
		c-4.847,5.105-9.519,10.346-12.727,16.704c-2.5,4.954-3.986,10.203-4.377,15.719c-0.36,5.092-0.446,10.201-0.725,15.3
		c-0.116,2.099-0.417,4.188-0.667,6.591c2.43-1.878,4.598-3.651,6.865-5.285c3.967-2.859,8.032-5.584,11.99-8.456
		c7.952-5.77,13.544-13.351,17.096-22.487c2.92-7.507,6.384-14.729,11.678-20.901c4.684-5.459,10.102-10.113,16.073-14.103
		c5.184-3.461,10.431-6.844,16.353-8.959c1.445-0.518,2.986-0.769,4.484-1.142c0.074,0.151,0.148,0.301,0.223,0.453
		c-1.526,1.273-3.03,2.579-4.585,3.816c-5.517,4.392-9.373,10.08-12.673,16.197c-3.047,5.647-4.342,11.852-5.416,18.077
		c-0.786,4.572-1.177,9.211-1.736,13.822c-0.032,0.274-0.003,0.556-0.003,1.324c1.325-2.004,2.396-3.647,3.492-5.274
		c5.898-8.748,13.854-15.178,23.115-19.979c6.604-3.426,13.471-6.347,20.151-9.641c10.171-5.016,18.915-11.955,26.394-20.435
		c2.741-3.109,5.05-6.599,7.556-9.915c0.265-0.348,0.526-0.699,1.229-0.991c0,0.772,0.118,1.566-0.02,2.314
		c-2.039,11.078-5.992,21.394-12.166,30.857c-3.93,6.022-8.396,11.592-13.63,16.51c-4.218,3.966-8.831,7.528-12.878,11.654
		c-9.033,9.209-14.887,20.247-17.808,32.82c-1.239,5.333-2.449,10.674-3.664,16.012c-0.07,0.309-0.061,0.637,0.274,1.379
		c3.513-2.138,7.123-4.131,10.52-6.442c7.294-4.967,11.183-12.412,14.178-20.387c2.409-6.42,4.799-12.831,9.628-17.924
		c6.852-7.228,14.952-12.459,24.618-15.118c0.582-0.161,1.201-0.196,1.872-0.299c-2.19,1.988-4.426,3.757-6.355,5.811
		c-6.915,7.358-11.233,15.97-12.468,26.098c-0.717,5.878-1.386,11.807-2.752,17.552c-2.115,8.909-6.512,16.835-12.379,23.827
		c-4.013,4.781-8.439,9.214-12.72,13.766c-3.346,3.558-7.031,6.839-10.06,10.646c-3.932,4.947-6.351,10.779-8.35,16.774
		c-1.785,5.346-3.726,10.64-5.752,16.386c2.324-1.695,4.676-3.003,6.516-4.828c5.675-5.637,11.112-11.512,16.723-17.211
		c3-3.048,6.081-6.03,9.282-8.862c5.475-4.842,11.15-9.458,17.592-12.99c2.834-1.555,5.816-2.841,9.009-3.95
		c-1.492,1.817-2.925,3.691-4.49,5.443c-8.82,9.866-15.299,21.202-20.855,33.118c-3.268,7.009-6.504,14.024-11.138,20.287
		c-6.938,9.37-15.822,16.328-26.185,21.539c-7.059,3.546-14.078,7.175-21.049,10.89c-4.288,2.288-8.037,5.34-11.373,8.884
		c-0.224,0.234-0.406,0.511-0.804,1.019c2.765-0.669,5.208-1.393,7.704-1.823c3.192-0.551,6.415-0.969,9.639-1.257
		c7.926-0.707,15.976-0.27,23.734-2.432c3.478-0.973,6.842-2.339,10.467-3.386c-1.046,0.994-2.074,2.004-3.14,2.973
		c-7.962,7.259-16.705,13.204-27.084,16.531c-5.53,1.774-11.255,3.261-16.383,5.875c-6.069,3.091-11.63,7.197-17.334,10.978
		c-7.53,4.988-14.737,10.501-23.021,14.267c-11.325,5.147-23.175,7.896-35.66,8.083c-10.702,0.156-21.151-1.202-31.372-4.329
		c-11.015-3.37-20.747-9.018-29.301-16.7c-9.761-8.767-16.77-19.357-20.893-31.832c-2.609-7.893-3.366-16.044-2.896-24.271
		c0.72-12.604,4.005-24.673,8.23-36.509c5.333-14.933,12.195-29.115,21.04-42.292c6.097-9.082,13.418-17.051,22.168-23.678
		c3.447-2.61,6.871-5.263,10.167-8.059c4.237-3.595,6.643-8.587,9.623-13.137c0.977-1.493,2.076-2.905,3.118-4.355
		C96.053,89.334,96.176,89.395,96.297,89.454z M122.22,109.645c-0.648,2.041-1.166,3.725-1.719,5.398
		c-0.98,2.965-1.57,6.151-3.056,8.84c-4.323,7.823-10.622,13.641-18.738,17.583c-9.687,4.703-17.991,11.229-24.666,19.752
		c-2.053,2.622-4.185,5.184-6.104,7.556c0-2.021-0.032-4.208,0.006-6.394c0.075-4.197-0.088-8.423,0.381-12.577
		c0.318-2.805,1.553-5.506,2.396-8.318c-0.211,0.173-0.44,0.316-0.616,0.509c-3.151,3.451-6.5,6.745-9.408,10.391
		c-10.939,13.723-19.695,28.713-25.626,45.282c-4.555,12.726-6.58,25.732-4.034,39.173c2.625,13.863,9.116,25.519,20.038,34.618
		c11.649,9.701,25.597,13.171,40.185,14.756c3.833,0.414,7.772,0.339,11.618-0.005c5.291-0.476,10.58-1.214,15.796-2.221
		c7.5-1.445,14.65-4.125,21.565-7.313c4.437-2.044,8.646-4.575,12.957-6.889c-0.083-0.193-0.166-0.384-0.25-0.575
		c-7.339,1.625-14.684,3.076-22.457,1.203c6.761-3.885,12.392-8.717,17.606-13.989c7.495-7.58,14.725-15.42,22.133-23.091
		c6.981-7.229,14.541-13.774,23.155-19.02c1.546-0.941,3.165-1.769,4.888-2.725c-0.307-0.149-0.357-0.195-0.398-0.19
		c-1.324,0.201-2.653,0.376-3.972,0.62c-9.03,1.677-17.74,4.381-25.653,9.094c-4.373,2.605-8.364,5.851-12.56,8.76
		c-2.122,1.474-4.316,2.844-6.477,4.262c0.002-0.6,0.218-0.915,0.437-1.227c2.034-2.892,4.228-5.686,6.075-8.691
		c3.507-5.71,7.171-11.271,11.8-16.167c5.727-6.059,12.489-10.802,19.277-15.519c9.012-6.268,16.314-13.937,19.952-24.534
		c1.676-4.881,3.082-9.854,4.607-14.787c-0.57-0.05-0.727,0.034-0.811,0.162c-6.474,9.631-14.968,17.052-25.169,22.436
		c-7.028,3.711-14.313,6.937-21.447,10.449c-5.152,2.541-10.136,5.341-13.505,10.249c-0.394,0.574-0.825,1.123-1.505,2.044
		c2.552-10.193,9.436-19.981,17.239-26.047c7.318-5.691,14.844-11.117,22.305-16.622c6.777-5.002,11.34-11.563,14.112-19.475
		c2.702-7.704,3.414-15.818,5.052-23.741c1.288-6.226,2.959-12.288,6.465-17.691c1.021-1.572,2.069-3.128,3.344-5.051
		c-0.938,0.326-1.454,0.479-1.947,0.684c-0.722,0.299-1.462,0.577-2.134,0.967c-5.187,3.011-9.109,7.259-12.2,12.362
		c-3.003,4.959-4.43,10.499-6.057,15.966c-2.351,7.896-5.954,14.982-12.459,20.358c-4.985,4.121-10.617,7.092-16.465,9.718
		c-3.396,1.525-6.814,2.997-10.224,4.49c-0.101-0.503-0.025-0.698,0.103-0.851c3.502-4.191,6.976-8.407,10.527-12.554
		c3.314-3.869,6.354-7.919,7.773-12.88c1.198-4.191,2.111-8.464,3.11-12.711c1.833-7.786,4.343-15.284,9.174-21.806
		c0.78-1.054,1.587-2.089,2.559-3.366c-0.561,0.054-0.799,0.019-0.984,0.101c-4.516,1.995-8.575,4.711-12.022,8.222
		c-4.313,4.395-7.919,9.385-10.898,14.755c-5.349,9.639-12.626,17.249-22.343,22.549c-8.024,4.378-15.954,8.927-23.923,13.403
		c-5.329,2.996-10.347,6.381-14.131,11.308c-0.079,0.103-0.276,0.116-0.644,0.259c0.347-0.879,0.531-1.637,0.915-2.274
		c2.044-3.409,4.001-6.883,6.247-10.158c3.39-4.952,7.301-9.57,10.434-14.672C126.56,126.125,126.344,118.081,122.22,109.645z"/>
	<path d="M114.918,179.711c4.45-3.669,9.363-7.68,14.23-11.745c4.233-3.54,8.428-7.122,13.424-9.584
		c0.481-0.237,0.978-0.444,1.537-0.563c-6.296,6.704-9.708,15.212-14.659,22.726c-3.891,5.902-8.048,11.625-12.079,17.436
		c-0.677,0.974-1.321,1.971-2.198,2.807c4.77-1.671,9.468-4.016,14.589-6.564c1.742,3.557,3.721,7.008,5.164,10.671
		c2.789,7.079,3.407,14.567,2.814,22.063c-0.807,10.163-4.849,19.121-11.211,27.043c-8,9.967-18.507,15.779-31.01,17.526
		c-14.093,1.97-26.744-1.737-37.694-11.085c-9.342-7.974-14.417-18.281-16.148-30.135c-2.242-15.355,1.905-28.992,12.455-40.586
		c7.709-8.471,17.146-13.817,28.365-15.897c7.518-1.395,14.966-0.66,22.197,1.771C107.907,176.675,110.997,178.119,114.918,179.711z
		"/>
</g>
</svg>
