<?xml version="1.0" encoding="utf-8"?>
<!-- Generator: Adobe Illustrator 16.0.0, SVG Export Plug-In . SVG Version: 6.00 Build 0)  -->
<!DOCTYPE svg PUBLIC "-//W3C//DTD SVG 1.1//EN" "http://www.w3.org/Graphics/SVG/1.1/DTD/svg11.dtd">
<svg version="1.1" id="Layer_1" xmlns="http://www.w3.org/2000/svg" xmlns:xlink="http://www.w3.org/1999/xlink" x="0px" y="0px"
	 width="300px" height="300px" viewBox="0 0 300 300" enable-background="new 0 0 300 300" xml:space="preserve">
<g>
	<path fill-rule="evenodd" clip-rule="evenodd" d="M115.915,275.757c-2.344,1.381-4.534,2.831-6.861,4.013
		c-9.447,4.796-19.533,5.349-29.619,3.268c-8.121-1.676-14.929-6.116-20.683-12.275c-2.728-2.92-4.715-6.043-5.969-9.762
		c-3.367-9.982,0.911-24.076,9.414-30.19c8.383-6.028,17.81-8.608,28.162-8.883c8.739-0.232,17.311,1.07,25.951,1.669
		c8.393,0.581,16.755,0.706,25.084-0.238c5.122-0.581,10.194-1.746,15.229-2.905c4.727-1.087,9.401-2.426,14.044-3.832
		c1.898-0.575,3.671-1.586,5.473-2.456c3.094-1.494,6.266-2.863,9.222-4.598c3.314-1.944,6.352-4.355,9.639-6.351
		c6.555-3.979,11.332-9.869,16.361-15.396c5.781-6.355,9.567-13.995,12.729-22.019c2.159-5.476,2.407-11.221,3.701-16.801
		c1.481-6.386,1.426-12.851,0.507-19.224c-1.353-9.384-3.994-18.379-9.174-26.548c-2.272-3.583-4.093-7.446-7.15-10.474
		c-4.799-4.751-9.873-9.043-15.805-12.49c-7.492-4.353-15.557-6.406-23.911-7.671c-3.181-0.481-6.478-0.248-9.721-0.25
		c-4.937-0.002-9.919-0.07-14.641,1.607c-4.152,1.476-8.267,3.105-12.261,4.963c-2.797,1.3-5.495,2.916-7.989,4.732
		c-1.947,1.418-3.765,3.175-5.188,5.113c-2.347,3.195-4.697,6.486-6.357,10.058c-1.563,3.362-2.372,7.105-3.271,10.74
		c-1.434,5.794-0.591,11.598,0.683,17.273c1.289,5.734,3.7,11.149,7.672,15.499c7.645,8.371,17.15,12.144,28.543,10.035
		c1.898-0.351,3.669-1.394,5.493-2.133c0.46-0.187,0.901-0.626,1.339-0.611c0.694,0.025,1.658,0.135,1.982,0.586
		c0.283,0.394,0.089,1.62-0.319,1.943c-2.625,2.083-5.139,4.496-8.112,5.915c-10.504,5.016-21.11,4.176-31.387-0.744
		c-7.333-3.511-13.075-8.954-17.423-15.876c-5.729-9.12-8.111-19.089-7.413-29.741c0.671-10.236,3.786-19.722,9.281-28.471
		c3.13-4.984,7.034-9.184,11.125-13.355c4.707-4.8,10.337-8.146,16.268-10.829c8.503-3.846,17.453-6.394,26.903-6.932
		c7.359-0.419,14.66,0.007,21.861,1.339c6.493,1.201,13.024,2.523,18.979,5.621c5.76,2.996,11.486,6.003,16.754,9.893
		c5.077,3.749,9.521,8.065,13.562,12.856c5.043,5.98,8.875,12.747,11.972,19.848c4.786,10.976,6.854,22.552,7.004,34.566
		c0.157,12.573-2.337,24.494-7.056,36.086c-1.858,4.566-3.467,9.189-6.229,13.351c-4.058,6.114-8.472,11.879-13.661,17.116
		c-6.868,6.934-14.746,12.464-23.126,17.263c-6.294,3.605-12.823,6.866-19.474,9.763c-4.391,1.912-9.17,2.945-13.795,4.304
		c-10.574,3.107-21.418,4.039-32.382,3.808c-5.579-0.117-11.153-0.458-16.732-0.627c-6.734-0.203-13.487-0.691-20.201-0.388
		c-6.414,0.291-12.93,0.825-18.892,3.64c-3.165,1.494-6.184,3.239-8.526,6.018c-2.246,2.663-2.902,5.832-3.075,9.063
		c-0.12,2.246,0.411,4.553,0.844,6.795c0.47,2.432,2.221,4.048,3.873,5.789c5,5.274,11.525,6.838,18.299,7.755
		c7.686,1.039,15.388,1.251,23.03-0.447c0.69-0.153,1.336-0.601,1.947-0.997C113.905,273.582,115.064,273.896,115.915,275.757z"/>
	<path fill-rule="evenodd" clip-rule="evenodd" d="M154.811,28.658c-0.991,0.264-1.829,0.563-2.693,0.702
		c-1.588,0.255-3.193,0.406-4.788,0.622c-0.684,0.092-1.357,0.329-2.04,0.345c-6.256,0.153-11.842,2.713-17.644,4.636
		c-5.081,1.684-9.985,3.702-14.519,6.433c-4.486,2.703-8.83,5.733-12.863,9.071c-3.636,3.009-7.031,6.407-10.048,10.037
		C87,64.375,84.09,68.563,81.528,72.897c-2.661,4.501-4.969,9.248-6.994,14.072c-1.22,2.905-1.803,6.127-2.329,9.264
		c-1.417,8.449-2.488,16.944-1.461,25.533c0.877,7.342,2.081,14.65,4.741,21.572c1.806,4.699,3.909,9.305,7.236,13.242
		c1.786,2.112,3.161,4.571,4.93,6.7c1.045,1.258,2.526,2.146,3.763,3.254c4.235,3.791,8.803,7.041,13.955,9.539
		c6.082,2.948,12.536,4.55,19.096,5.762c5.135,0.948,10.35,0.781,15.437-0.419c4.933-1.164,9.871-2.405,14.664-4.035
		c8.171-2.779,14.317-8.338,19.412-15.144c4.339-5.797,6.341-12.522,7.837-19.489c0.933-4.341,1.485-8.704,0.227-12.96
		c-0.813-2.75-2.276-5.374-3.815-7.824c-1.17-1.862-2.73-3.595-4.452-4.966c-2.528-2.014-5.152-4.176-8.104-5.332
		c-4.369-1.711-13.198-1.46-16.682,3.309c-3.001,4.11-4.39,8.921-1.803,13.331c1.14,1.943,3.404,3.231,5.174,4.798
		c0.325,0.288,0.87,0.41,1.063,0.75c0.442,0.784,0.729,1.656,1.079,2.493c-0.755,0.297-1.503,0.829-2.267,0.854
		c-6.582,0.211-11.315-2.525-14.626-8.404c-4.552-8.081-2.626-15.337,2.162-22.267c5.346-7.736,13.188-10.504,22.311-10.547
		c5.458-0.026,10.644,1.299,15.432,3.57c6.143,2.915,11.359,7.118,15.341,12.87c8.587,12.408,10.233,25.893,7.106,40.331
		c-1.396,6.442-3.58,12.53-7.281,17.993c-4.677,6.903-10.025,13.271-17.177,17.693c-5.196,3.212-10.622,6.169-16.235,8.558
		c-5.697,2.425-11.854,3.49-18.019,4.42c-12.727,1.92-24.878-0.557-36.79-4.59c-4.114-1.394-8.212-3.286-11.786-5.729
		c-8.224-5.623-16.03-11.795-21.644-20.291c-1.642-2.487-4.026-4.498-5.565-7.034c-1.868-3.077-3.305-6.436-4.75-9.75
		c-4.775-10.958-7.066-22.417-6.797-34.39c0.276-12.279,2.699-24.103,6.956-35.619c3.412-9.229,8.452-17.535,14.44-25.193
		c3.663-4.686,8.005-8.967,12.583-12.78c6.584-5.484,13.931-9.941,21.917-13.189c8.151-3.315,16.429-6.093,25.417-5.991
		c4.869,0.055,9.744-0.333,14.611-0.249C151.43,26.643,153.469,26.217,154.811,28.658z"/>
	<path fill-rule="evenodd" clip-rule="evenodd" d="M257.29,206.028c0.858,3.104,1.435,6.322,2.639,9.285
		c2.059,5.066,6.646,6.801,11.569,7.857c0.614,0.132,1.283,0.154,1.825,0.43c0.607,0.309,1.619,1.013,1.542,1.253
		c-0.234,0.734-0.775,1.648-1.434,1.92c-2.015,0.834-4.169,1.323-6.216,2.086c-4.557,1.699-7.148,5.251-8.233,9.768
		c-0.781,3.25-0.856,6.665-1.408,9.98c-0.109,0.658-0.906,1.616-1.466,1.674c-0.588,0.062-1.705-0.689-1.84-1.263
		c-0.644-2.739-0.817-5.598-1.561-8.304c-1.28-4.663-3.465-8.825-7.838-11.418c-0.321-0.189-0.669-0.358-1.026-0.457
		c-2.214-0.611-4.458-1.127-6.635-1.848c-0.56-0.185-1.307-1.025-1.267-1.505c0.056-0.649,0.66-1.562,1.253-1.797
		c1.439-0.57,2.992-1.039,4.528-1.147c4.466-0.316,7.169-2.733,9.247-6.548c1.541-2.831,1.834-5.762,2.172-8.806
		c0.219-1.973,0.69-3.936,1.259-5.84c0.187-0.624,1.034-1.051,1.579-1.567c0.565,0.598,1.496,1.129,1.619,1.807
		c0.255,1.393,0.077,2.863,0.077,4.301C257.548,205.937,257.419,205.982,257.29,206.028z"/>
	<path fill-rule="evenodd" clip-rule="evenodd" d="M46.64,27.81c1.086,3.374,2.066,6.787,3.295,10.109
		c0.831,2.245,3.116,2.738,5.098,3.483c2.475,0.931,4.978,1.786,7.434,2.762c0.314,0.125,0.666,0.863,0.563,1.173
		c-0.176,0.536-0.608,1.21-1.089,1.378c-1.107,0.385-2.332,0.417-3.466,0.74c-5.034,1.43-8.668,4.373-9.919,9.66
		c-0.719,3.036-1.176,6.136-1.92,9.165c-0.178,0.722-1.037,1.277-1.583,1.909c-0.449-0.568-1.141-1.074-1.305-1.715
		c-0.848-3.32-1.332-6.749-2.376-9.999c-1.341-4.172-4.177-7.054-8.562-8.223c-1.486-0.396-2.962-0.88-4.372-1.488
		c-0.548-0.237-0.901-0.926-1.343-1.41c0.427-0.377,0.794-0.887,1.291-1.11c2.528-1.132,5.15-2.072,7.614-3.325
		c1.143-0.581,2.156-1.597,2.964-2.624c3.28-4.169,3.927-9.235,4.683-14.26c0.089-0.593,0.562-1.129,0.856-1.691
		c0.615,0.435,1.527,0.742,1.781,1.332c0.531,1.233,0.714,2.615,1.04,3.937C47.097,27.677,46.869,27.744,46.64,27.81z"/>
	<path fill-rule="evenodd" clip-rule="evenodd" d="M212.396,37.424c-0.178-1.03,0.639-1.57,1.811-1.984
		c1.875-0.663,3.668-1.578,5.567-2.146c4.429-1.326,5.39-5.224,6.749-8.829c0.73-1.939,1.347-3.923,1.956-5.905
		c0.102-0.33-0.095-0.751-0.164-1.196c2.106-0.128,2.264,1.157,2.533,2.733c0.675,3.947,1.003,7.953,3.867,11.292
		c2.582,3.008,5.858,3.791,9.413,4.021c1.114,0.072,1.787,0.392,1.824,1.311c0.018,0.442-0.782,1.11-1.35,1.35
		c-2.52,1.064-5.248,1.737-7.582,3.099c-1.462,0.854-2.618,2.541-3.442,4.101c-1.168,2.211-2.016,4.616-2.774,7.01
		c-0.361,1.14-0.119,2.458-0.319,3.667c-0.078,0.466-0.604,1.171-0.964,1.195c-0.435,0.029-1.209-0.474-1.314-0.881
		c-0.65-2.515-0.963-5.129-1.749-7.596c-1.304-4.094-2.917-8.067-7.682-9.398C216.765,38.704,214.763,38.108,212.396,37.424z"/>
	<path fill-rule="evenodd" clip-rule="evenodd" d="M161.872,255.25c0.49-1.594,1.102-3.754,1.856-5.862
		c0.127-0.357,1.007-0.802,1.298-0.671c0.605,0.274,1.337,0.822,1.506,1.405c0.537,1.852,0.911,3.759,1.219,5.666
		c0.833,5.152,3.397,8.623,8.854,9.401c0.246,0.035,0.507,0.083,0.724,0.195c0.884,0.458,1.753,0.943,2.628,1.418
		c-0.8,0.693-1.499,1.785-2.416,2.017c-6.593,1.665-9.491,6.201-10.24,12.576c-0.078,0.663-0.337,1.402-0.756,1.9
		c-0.424,0.502-1.308,1.167-1.713,1.017c-0.759-0.281-1.64-0.988-1.896-1.72c-0.652-1.857-0.831-3.881-1.482-5.738
		c-1.408-4.013-4.185-6.58-8.468-7.352c-1.05-0.188-2.114-0.34-3.13-0.647c-0.5-0.152-1.31-0.692-1.268-0.936
		c0.094-0.556,0.522-1.32,1-1.497c1.693-0.627,3.45-1.105,5.21-1.525C158.276,264.065,161.918,259.462,161.872,255.25z"/>
	<path fill-rule="evenodd" clip-rule="evenodd" d="M50.978,176.132c-1,0.779-1.583,1.433-2.312,1.757
		c-1.367,0.609-2.854,0.946-4.229,1.542c-4.999,2.17-6.86,6.462-7.601,11.472c-0.092,0.621,0.062,1.357-0.225,1.851
		c-0.369,0.631-1.069,1.068-1.626,1.589c-0.391-0.592-1.083-1.164-1.125-1.78c-0.288-4.248-1.504-8.009-4.673-11.078
		c-1.86-1.802-4.073-2.61-6.467-3.182c-0.488-0.117-1.083-0.057-1.456-0.321c-0.684-0.487-1.239-1.155-1.848-1.748
		c0.701-0.572,1.349-1.553,2.111-1.652c6.474-0.844,9.702-4.359,11.162-10.26c0.525-2.122,0.739-4.32,1.202-6.46
		c0.108-0.496,0.657-0.896,1.002-1.34c0.375,0.4,0.978,0.748,1.086,1.211c0.629,2.684,1.071,5.412,1.712,8.093
		c0.923,3.864,3.168,6.625,7.063,7.831c1.428,0.441,2.905,0.729,4.322,1.199C49.64,175.041,50.103,175.528,50.978,176.132z"/>
	<path fill-rule="evenodd" clip-rule="evenodd" d="M275.971,87.715c2.105,0.165,2.409,1.475,2.767,2.864
		c0.635,2.467,1.067,5.064,2.182,7.311c1.517,3.058,4.468,4.606,7.652,5.697c0.707,0.242,1.239,0.994,1.853,1.511
		c-0.542,0.474-1.02,1.071-1.639,1.396c-1.546,0.812-3.259,1.343-4.706,2.291c-1.096,0.717-2.211,1.752-2.742,2.91
		c-1.081,2.358-1.709,4.92-2.678,7.336c-0.227,0.565-1.11,1.26-1.62,1.208c-0.512-0.053-1.147-0.893-1.359-1.514
		c-0.844-2.474-1.26-5.132-2.371-7.467c-1.262-2.651-4.09-3.305-6.735-3.958c-0.42-0.104-0.928-0.067-1.251-0.297
		c-0.731-0.519-1.374-1.165-2.052-1.758c0.646-0.486,1.241-1.064,1.945-1.442c2.766-1.487,6.15-1.879,8.109-4.789
		c1.219-1.812,2.392-3.546,2.287-5.914C275.534,91.329,275.835,89.541,275.971,87.715z"/>
</g>
<g>
</g>
<g>
</g>
<g>
</g>
<g>
</g>
<g>
</g>
<g>
</g>
</svg>
