<?xml version="1.0" encoding="utf-8"?>
<!-- Generator: Adobe Illustrator 16.0.0, SVG Export Plug-In . SVG Version: 6.00 Build 0)  -->
<!DOCTYPE svg PUBLIC "-//W3C//DTD SVG 1.1//EN" "http://www.w3.org/Graphics/SVG/1.1/DTD/svg11.dtd">
<svg version="1.1" id="Layer_1" xmlns="http://www.w3.org/2000/svg" xmlns:xlink="http://www.w3.org/1999/xlink" x="0px" y="0px"
	 width="300px" height="300px" viewBox="0 0 300 300" enable-background="new 0 0 300 300" xml:space="preserve">
<g>
	<path d="M119.641,181.35c-9.051,0-17.669,0.043-26.286-0.012c-7.918-0.05-15.838-0.273-23.756-0.286
		c-4.581-0.008-9.162,0.278-13.744,0.384c-2.688,0.062-4.298-1.105-4.4-3.787c-0.263-6.801-0.3-13.612-0.342-20.42
		c-0.061-9.901-0.061-19.805-0.06-29.707c0.002-4.774,1.729-6.394,6.438-6.347c7.829,0.077,15.66,0.099,23.491,0.113
		c9.168,0.019,18.338,0.003,27.508,0.009c3.165,0.002,6.333-0.018,9.498,0.063c1.569,0.039,2.122-0.678,2.11-2.139
		c-0.079-10.764-0.181-21.531-0.194-32.295c-0.01-7.436,0.129-14.87,0.16-22.305c0.013-2.601-0.056-5.202-0.16-7.8
		c-0.132-3.277,1.198-4.986,4.396-5c11.862-0.056,23.725-0.008,35.585,0c5.235,0.003,10.471-0.005,15.705,0.006
		c3.325,0.006,4.548,1.106,4.568,4.335c0.052,7.501,0.084,15.003,0.016,22.504c-0.111,12.25-0.313,24.5-0.464,36.749
		c-0.008,0.79,0.151,1.582,0.145,2.372c-0.021,2.414,1.388,3.442,3.56,3.491c3.563,0.079,7.131,0.022,10.694,0.001
		c5.857-0.034,11.716-0.088,17.572-0.125c5.443-0.036,10.888-0.057,16.329-0.09c5.375-0.033,10.75-0.158,16.123-0.07
		c2.706,0.043,4.48,1.979,4.522,4.821c0.063,3.787-0.147,7.577-0.147,11.366c0,7.786,0.053,15.571,0.105,23.356
		c0.032,5.127,0.131,10.253,0.146,15.379c0.012,3.518-2.398,5.672-5.923,5.604c-9.566-0.186-19.132-0.394-28.703-0.41
		c-10.425-0.018-20.854,0.248-31.283,0.203c-2.351-0.01-2.935,1.057-2.95,2.961c-0.07,9.887-0.157,19.774-0.162,29.66
		c-0.004,8.51,0.092,17.02,0.153,25.528c0.021,2.358,0.104,4.72,0.127,7.08c0.027,3.312-2.444,5.231-5.816,5.095
		c-7.327-0.296-14.664-0.361-21.998-0.482c-6.183-0.104-12.365-0.164-18.547-0.219c-2.897-0.023-5.796,0.047-8.691,0.01
		c-3.875-0.049-4.979-1.271-4.97-5.202c0.013-6.568-0.043-13.14-0.029-19.712c0.031-13.492,0.102-26.986,0.116-40.481
		C120.083,184.236,119.814,182.924,119.641,181.35z"/>
	<path d="M41.585,239.083c-0.955-1.378-1.677-2.032-1.911-2.828c-0.799-2.724-1.262-5.554-2.153-8.244
		c-2.148-6.485-6.275-10.891-13.358-11.848c-1.583-0.215-2.505-1-2.619-2.542c-0.134-1.816,1.418-1.905,2.596-2.151
		c3.472-0.723,6.51-2.185,9.316-4.407c2.651-2.099,4.074-4.768,4.811-7.924c0.501-2.146,0.771-4.361,1.46-6.439
		c0.302-0.907,1.298-2.027,2.16-2.209c1.529-0.323,2.359,0.814,2.626,2.369c0.679,3.951,1.235,7.906,3.429,11.457
		c2.13,3.443,5.03,5.592,8.931,6.479c1.155,0.264,2.439,0.3,3.422,0.866c0.712,0.411,1.442,1.549,1.391,2.312
		c-0.049,0.739-0.977,1.891-1.699,2.051c-10.094,2.229-13.575,7.767-15.055,17.021c-0.149,0.938-0.11,1.991-0.548,2.773
		C43.812,236.842,42.852,237.646,41.585,239.083z"/>
	<path d="M246.815,113.211c-0.368-0.454-1.272-1.144-1.591-2.039c-1.093-3.117-1.61-6.482-3.023-9.427
		c-2.527-5.257-7.804-6.777-12.857-8.494c-0.845-0.288-1.903-1.161-2.078-1.94c-0.29-1.294,0.802-1.625,2.063-1.892
		c4.226-0.899,8.216-2.523,11.281-5.659c1.219-1.244,2.137-2.98,2.66-4.658c0.842-2.701,1.271-5.533,1.818-8.322
		c0.217-1.108,0.199-2.301,1.804-2.281c1.464,0.02,2.644,0.369,2.96,2.084c0.341,1.863,0.861,3.693,1.186,5.558
		c1.284,7.5,6.344,11.115,13.19,12.917c0.461,0.122,1.095,0.072,1.355,0.364c0.665,0.75,1.576,1.641,1.595,2.49
		c0.01,0.641-1.106,1.569-1.911,1.898c-1.662,0.679-3.516,0.884-5.177,1.565c-6.755,2.769-9.389,8.35-9.88,15.182
		C250.073,112.451,249.145,113.003,246.815,113.211z"/>
	<path d="M16.298,154.212c-4.336,0-8.673-0.009-13.011,0.004c-2.081,0.007-2.419-1.63-2.613-3.058
		c-0.195-1.431,0.389-2.682,2.188-2.724c2.493-0.056,4.984-0.159,7.478-0.143c6.291,0.04,12.58,0.13,18.87,0.211
		c0.63,0.008,1.367-0.099,1.867,0.182c0.891,0.5,2.017,1.119,2.314,1.951c0.209,0.582-0.604,1.899-1.305,2.35
		c-1.074,0.692-2.434,1.238-3.693,1.287c-4.025,0.158-8.061,0.06-12.094,0.06C16.298,154.292,16.298,154.251,16.298,154.212z"/>
	<path d="M282.791,154.275c-4.581,0-9.165-0.055-13.747,0.025c-2.067,0.037-2.869-0.924-2.856-2.849
		c0.019-1.885,1.204-2.762,2.84-2.834c1.72-0.077,3.452,0.325,5.182,0.321c6.836-0.017,13.671-0.145,20.509-0.145
		c1.544,0,3.285-0.011,3.541,2.243c0.246,2.109-0.994,3.18-2.735,3.527c-1.508,0.303-3.11,0.115-4.675,0.121
		c-2.683,0.012-5.371,0.004-8.057,0.004C282.791,154.552,282.791,154.414,282.791,154.275z"/>
	<path d="M282.594,198.867c0.104,3.583-1.948,4.984-4.319,3.822c-5.801-2.846-11.611-5.672-17.376-8.592
		c-0.851-0.434-1.868-1.207-2.098-2.022c-0.255-0.897-0.003-2.597,0.59-2.931c1.003-0.56,2.671-0.791,3.684-0.334
		c5.532,2.502,10.967,5.219,16.393,7.942C280.736,197.391,281.84,198.35,282.594,198.867z"/>
	<path d="M231.334,205.085c0.704,0.407,1.468,0.688,2.018,1.201c3.69,3.429,7.365,6.875,10.976,10.383
		c1.235,1.204,2.503,2.483,3.319,3.966c0.438,0.79,0.346,2.387-0.2,3.086c-0.818,1.053-2.222,1.954-3.647,0.576
		c-4.538-4.38-9.161-8.675-13.543-13.206c-2.324-2.409-2.126-4.375-0.032-5.481C230.56,205.432,230.911,205.285,231.334,205.085z"/>
	<path d="M51.403,83.721c2.255,1.641,4.267,2.887,6.021,4.428c3.319,2.915,6.467,6.023,9.732,9c1.371,1.248,1.086,2.407,0.137,3.701
		c-1.056,1.439-2.24,0.985-3.277,0.149c-4.791-3.867-9.523-7.805-14.292-11.7c-1.45-1.183-1.174-2.453-0.218-3.71
		C49.995,84.943,50.664,84.436,51.403,83.721z"/>
	<path d="M19.926,108.639c1.501,0.546,2.576,0.832,3.555,1.31c4.328,2.111,8.581,4.387,12.962,6.377
		c1.952,0.886,2.229,2.272,1.59,3.823c-0.686,1.662-2.107,2.261-3.912,1.349c-4.796-2.422-9.624-4.784-14.406-7.237
		c-1.392-0.713-2.232-1.899-1.456-3.517C18.633,109.966,19.347,109.351,19.926,108.639z"/>
</g>
</svg>
