<svg version="1.1" id="Layer_1" xmlns="http://www.w3.org/2000/svg" xmlns:xlink="http://www.w3.org/1999/xlink" x="0px" y="0px"
	 width="512px" viewBox="0 0 576 864" enable-background="new 0 0 576 864" xml:space="preserve">
<path fill="#000000" opacity="1.000000" stroke="none" 
	d="
M263.860352,512.346924 
	C260.199677,510.929871 257.288544,508.545654 252.879028,508.308685 
	C255.934158,514.042236 262.298767,515.383667 266.135956,520.480957 
	C257.522125,521.548401 250.239502,516.921326 241.831268,517.732117 
	C245.150894,520.155823 248.957123,520.881714 252.380661,525.315369 
	C229.315659,524.102051 208.286087,530.481567 186.545486,532.477356 
	C208.147476,535.101562 229.749466,537.725769 251.439621,540.360718 
	C251.308029,544.158386 248.187790,544.350830 245.332764,546.028137 
	C250.045990,547.060669 253.471283,543.286926 257.687836,545.257935 
	C234.264816,567.737610 216.498444,594.582947 197.457397,620.504211 
	C206.520660,614.188660 214.843750,606.985901 223.041763,599.642029 
	C231.429367,592.128235 240.121918,584.890869 247.913712,576.794189 
	C255.665955,568.738586 262.464600,559.765259 270.379150,551.389465 
	C272.891724,566.411804 272.093079,581.474792 272.473572,596.432983 
	C273.455811,596.432373 274.438049,596.431824 275.420258,596.431213 
	C275.678314,581.424744 275.886688,566.412292 278.801697,551.625366 
	C281.607513,552.215027 281.283081,553.934631 281.302032,555.325500 
	C281.451019,566.280762 282.487671,577.194580 282.380249,588.173523 
	C282.148743,611.834778 282.465363,635.501465 282.208435,659.162170 
	C282.141998,665.283691 282.466095,671.354248 282.938416,677.506531 
	C286.059021,667.891663 285.069885,657.616211 287.108337,647.974304 
	C289.184631,647.746338 289.122986,648.977783 289.180542,649.886230 
	C289.590088,656.346069 290.154266,662.806396 290.257202,669.273132 
	C290.443390,680.970032 289.483215,692.759460 290.669403,704.339417 
	C291.434570,711.809204 289.487579,719.152649 291.197693,726.575256 
	C292.415466,731.860779 289.858429,737.197449 290.878998,742.862061 
	C292.030212,749.251892 291.311401,755.987244 291.321869,762.572388 
	C291.349884,780.237671 291.448914,797.903931 291.288300,815.567749 
	C291.199524,825.327271 290.655121,835.083008 290.292847,844.839539 
	C290.225403,846.655823 290.325500,848.668579 287.442261,848.654297 
	C284.035980,829.976685 282.636963,811.038025 278.799500,792.348083 
	C278.799500,799.593384 278.799500,806.838623 278.799500,814.083862 
	C278.329254,814.126709 277.859009,814.169556 277.388763,814.212463 
	C274.689117,810.079163 274.912903,805.068481 274.799988,800.446106 
	C274.474579,787.126526 274.685089,773.793823 274.507721,760.454285 
	C273.709106,768.247192 273.309143,776.107849 271.998077,783.813599 
	C270.726471,791.287170 272.617126,799.652344 266.184204,805.975403 
	C260.967712,802.179321 262.191620,796.135498 261.829773,790.974365 
	C260.894226,777.628601 260.734436,764.233032 260.364380,750.854187 
	C259.813416,730.935791 259.670898,710.983337 258.487732,691.099854 
	C257.411591,673.014099 257.097076,654.930359 256.439423,636.845642 
	C256.077118,626.882751 255.833908,616.921082 255.630569,606.955383 
	C255.603775,605.642578 255.748367,604.245178 253.540451,602.634460 
	C240.621170,616.003540 231.720184,632.924866 218.507889,646.151245 
	C218.066162,645.965454 217.624420,645.779602 217.182678,645.593811 
	C218.634628,639.990112 220.166107,634.405334 221.501770,628.774109 
	C222.084976,626.315186 224.675079,623.215576 222.336365,621.427307 
	C219.401627,619.183228 217.961456,623.274170 216.147903,624.793274 
	C200.998764,637.483093 185.887848,650.221558 170.933823,663.140198 
	C159.109390,673.355225 146.867462,683.012329 134.085281,691.988525 
	C131.456055,693.834961 131.400604,693.755981 127.935356,693.424744 
	C138.079498,676.546997 149.393295,660.688599 160.977341,645.009399 
	C172.557709,629.335205 184.169632,613.684509 196.106445,598.076782 
	C186.085312,598.970032 177.480652,604.579102 166.559784,606.139404 
	C180.710526,588.054260 198.252640,575.945923 213.912506,561.196289 
	C197.916107,562.715088 182.110596,564.495117 165.923965,562.991638 
	C174.076202,557.121887 183.628464,553.848755 192.236633,548.432312 
	C141.819168,543.851196 91.252174,541.917603 41.378170,532.288330 
	C98.097954,522.749146 155.133865,516.703430 213.849472,512.227173 
	C198.484146,504.013214 182.496292,500.022949 169.448441,489.861847 
	C190.152664,489.143646 209.613373,495.743835 230.281616,500.676849 
	C228.530457,492.874054 221.095871,488.854523 219.452942,480.119293 
	C232.508362,486.070709 244.414932,491.498383 256.670868,497.085358 
	C258.497101,493.170746 258.314941,489.411621 258.260895,486.040222 
	C258.032135,471.770813 257.151215,457.513184 256.731720,443.244690 
	C256.618744,439.403351 256.197784,435.641907 255.644409,431.863190 
	C255.176025,428.664734 254.102142,427.996033 251.011978,429.727264 
	C242.329330,434.591766 233.683060,439.603882 224.046906,442.476318 
	C222.511719,442.933929 220.962479,443.344360 218.165237,444.128113 
	C221.280579,437.039429 225.738800,432.187927 229.523300,426.085083 
	C208.696213,429.135010 188.585953,434.292847 167.795853,432.869934 
	C179.585022,425.203491 192.340225,420.351593 206.883484,415.975006 
	C147.279022,411.460449 89.123199,407.235260 31.558943,396.910065 
	C89.690536,388.459717 147.832626,381.654327 205.983551,379.620697 
	C192.654678,374.890015 177.896423,372.499146 164.474213,365.531860 
	C182.610275,360.700500 200.822662,361.606415 219.172806,364.807068 
	C199.704422,346.402374 174.769302,335.276031 156.954010,315.083405 
	C170.576782,318.633148 183.299759,324.243500 197.181732,329.713654 
	C182.766907,310.498993 166.805557,293.896118 152.089798,276.252991 
	C137.490479,258.749390 122.003365,241.912888 110.058487,222.437546 
	C110.665749,221.871140 111.273010,221.304749 111.880280,220.738358 
	C149.019684,245.503433 183.739090,273.619659 219.972000,299.953217 
	C215.352448,288.546051 210.008514,277.580627 207.190582,265.645081 
	C208.866074,264.441315 209.677750,265.845398 210.505722,266.725891 
	C219.380005,276.163055 228.303635,285.556213 237.033676,295.125671 
	C241.612183,300.144409 245.869675,305.459106 250.192856,310.705475 
	C251.270706,312.013489 252.219772,313.706268 254.085190,313.254028 
	C256.298828,312.717407 255.623627,310.560303 255.619125,309.016876 
	C255.578339,295.042847 256.256775,281.061676 256.956207,267.141205 
	C257.826477,249.820526 256.645477,232.493195 257.844208,215.251419 
	C258.943451,199.440216 257.545532,183.595215 258.912781,167.891373 
	C260.143677,153.754166 259.066956,139.644913 260.093842,125.527725 
	C261.001770,113.045364 260.418579,100.460228 260.731293,87.926399 
	C260.879944,81.970253 261.386414,75.995522 262.788940,70.172539 
	C263.279358,68.136497 263.569580,65.896568 266.005951,63.881310 
	C268.472412,79.117775 268.237183,94.085686 269.160919,108.993347 
	C273.756714,91.757652 269.811371,73.938484 273.211548,56.166542 
	C276.440979,61.450695 275.520142,66.984558 276.285309,72.226746 
	C278.877716,55.183464 282.501587,38.390541 284.076416,21.022797 
	C286.390381,21.747690 286.209717,22.876884 285.966553,24.028320 
	C284.648407,30.270576 285.596832,36.500637 286.234436,42.700108 
	C286.915283,49.319813 286.039520,55.906555 286.132141,62.518120 
	C286.325409,76.310478 286.592010,90.113701 285.914734,103.936897 
	C285.659668,109.142563 285.366302,114.453552 285.304230,119.722595 
	C285.000427,145.519531 284.558563,171.314926 284.123932,197.110184 
	C283.897919,210.525970 284.115570,223.976151 283.210388,237.348358 
	C280.791290,273.086639 281.811066,308.867371 281.098816,344.623871 
	C280.876678,355.774445 280.945435,366.945251 280.324524,378.091400 
	C280.237793,379.648438 280.588684,381.351532 278.239594,383.594208 
	C273.694824,357.687103 273.377991,332.503265 272.301971,307.347748 
	C269.962921,321.789001 270.415619,336.436676 269.510864,351.555786 
	C245.753235,332.656647 221.354507,315.302521 194.867477,300.931274 
	C216.492371,327.747253 239.826965,352.951202 261.994415,379.326965 
	C256.171112,379.056244 253.281052,373.059845 247.177155,373.701050 
	C249.034256,379.351044 256.118317,379.918121 258.357819,385.549591 
	C237.121078,389.512329 216.060715,393.689270 194.625992,395.959778 
	C215.187973,400.308624 236.314056,401.329010 257.652557,406.941772 
	C253.557068,410.561859 248.688080,409.946777 245.568115,413.596039 
	C250.350922,416.579620 253.601639,412.746246 257.137604,411.626007 
	C260.881226,410.439972 264.391785,408.518219 268.781860,406.573242 
	C271.170685,423.306915 271.079132,439.670258 273.203491,455.831329 
	C276.914093,448.059998 274.514587,438.876373 279.492035,430.927002 
	C282.585693,442.883301 281.542999,503.412018 278.121765,512.786072 
	C273.374451,508.356323 277.888062,501.497406 273.250702,496.524261 
	C271.262695,502.785858 273.311615,508.820343 271.796143,514.500732 
	C268.809662,515.153625 266.572052,513.587830 263.860352,512.346924 
z"/>
<path fill="#000000" opacity="1.000000" stroke="none" 
	d="
M441.593811,685.489685 
	C427.917572,675.449829 415.110748,664.890564 402.356445,654.270508 
	C389.477020,643.546265 376.688965,632.712219 363.851746,621.937195 
	C363.373505,621.535767 362.799225,621.248901 361.435486,620.372620 
	C362.485748,629.431396 367.907532,636.702576 367.169067,645.508240 
	C351.323853,633.384399 342.565277,615.365417 329.087524,599.505676 
	C328.342957,604.578491 327.340851,607.974426 327.437225,611.338928 
	C327.871399,626.503662 326.316040,641.599121 326.212250,656.750305 
	C325.990173,689.174500 325.454041,721.597534 325.094635,754.020752 
	C324.949738,767.092651 324.134064,780.228760 323.296356,793.318726 
	C323.169586,795.299927 322.662231,797.147278 320.570496,799.309998 
	C317.988861,782.695374 316.695709,766.697571 315.396698,750.654236 
	C314.711151,761.465027 314.195435,772.290100 313.293243,783.082764 
	C312.355682,794.298157 311.400726,805.533630 309.794739,816.665344 
	C308.244263,827.412109 307.648956,838.421265 303.784119,848.774292 
	C301.548035,848.141418 301.716461,846.808594 301.711182,845.722778 
	C301.652863,833.756409 299.516388,821.789429 299.942657,809.941772 
	C300.915497,782.902405 300.693054,755.860352 300.777802,728.834656 
	C300.818787,715.763306 301.014374,702.643005 301.104980,689.576721 
	C301.209656,674.481934 301.520477,659.358459 301.636719,644.247742 
	C301.749023,629.651306 301.546722,615.066162 300.804596,600.469360 
	C299.945160,583.565857 301.296661,566.646973 301.664825,549.734192 
	C301.702362,548.010376 302.131195,546.482300 304.012878,544.212402 
	C306.067719,561.062500 308.162048,577.040344 309.477997,593.203003 
	C309.911469,579.572510 312.666870,566.152771 312.045776,552.005615 
	C335.320282,576.261902 360.264160,598.328857 385.893250,619.745239 
	C382.266846,612.370117 376.812195,606.316284 371.861420,599.937256 
	C366.675171,593.254883 360.952057,586.985596 355.843109,580.247925 
	C350.786591,573.579346 344.780670,567.837585 339.018524,561.854675 
	C333.318298,555.936157 327.009155,550.589539 321.334198,543.652100 
	C325.646240,542.651489 328.591919,544.368835 331.592133,545.295959 
	C334.539154,546.206787 337.341187,547.586792 341.116638,549.133667 
	C338.861847,545.850342 336.309967,544.713440 333.859802,543.483643 
	C332.950531,543.027222 331.948090,542.797485 332.027679,541.503479 
	C332.127838,539.874817 333.392059,539.859802 334.549103,539.729553 
	C352.482727,537.710144 370.329102,534.929382 388.342865,533.598816 
	C390.643341,533.428894 392.915070,532.870361 395.255341,531.937927 
	C374.704285,528.196533 354.118744,524.842407 332.174530,525.125000 
	C335.246185,520.922852 339.651154,520.667542 342.852692,517.576050 
	C334.955109,518.851135 327.568237,520.043762 319.390839,521.364014 
	C321.424622,515.151184 328.227234,514.582886 330.486298,509.238983 
	C324.748657,509.096741 320.614258,512.717651 315.607819,514.074890 
	C311.935822,506.290985 315.251373,497.720673 311.761871,490.097961 
	C309.382507,497.660492 310.963318,505.952362 307.409637,513.550049 
	C302.643890,506.369965 302.446228,425.128754 307.481598,413.777679 
	C311.478699,424.707336 309.180328,435.404602 311.657043,445.346527 
	C313.694885,433.253540 314.044922,421.134094 313.405792,408.110596 
	C320.973572,411.338654 327.845428,414.829193 335.969055,416.226044 
	C332.415283,413.056946 328.672180,411.510498 324.640015,410.611633 
	C323.384247,410.331726 322.257477,409.935059 322.323914,408.524994 
	C322.392731,407.063751 323.704956,406.915314 324.884857,406.689484 
	C340.174500,403.763031 355.524384,401.289581 371.005066,399.534058 
	C377.541016,398.792877 384.236237,398.649597 391.797241,396.043518 
	C369.334900,392.706207 347.774139,391.130493 326.115692,385.471649 
	C331.812561,379.595703 339.826904,377.262451 344.995270,370.765167 
	C336.771332,372.768036 330.908142,378.827972 322.693298,380.375458 
	C343.413666,352.477142 367.756470,327.651276 389.658966,300.609802 
	C362.770386,318.481750 333.920959,333.548920 312.882996,358.657379 
	C310.007355,357.433960 310.731171,355.339417 310.708588,353.657043 
	C310.617035,346.825378 310.446655,339.983612 310.710907,333.161285 
	C311.000885,325.674011 310.004089,318.353973 308.511719,310.991211 
	C306.813141,322.686432 306.973022,334.636139 304.224915,346.239075 
	C302.507568,343.816284 301.811707,341.395081 301.666504,338.759003 
	C299.939301,307.392181 299.492676,276.002045 299.592896,244.592133 
	C299.648102,227.287048 298.816437,209.987411 298.492188,192.683105 
	C298.082123,170.796509 297.707642,148.914261 297.625000,127.023888 
	C297.579437,114.955902 296.645782,102.859154 297.223938,90.828789 
	C298.001709,74.645378 296.346161,58.536125 296.753967,42.386921 
	C296.864197,38.021870 296.770660,33.651676 297.517792,29.213566 
	C302.069244,35.042980 301.599396,42.193012 303.184570,48.693386 
	C304.766479,55.180466 305.269318,61.930679 306.287292,68.851547 
	C309.166473,66.130074 305.747162,61.157215 310.885986,58.751694 
	C312.166046,77.259697 314.016083,95.228020 313.722870,113.398216 
	C315.906403,100.748917 315.798126,87.756012 319.093628,74.327545 
	C322.318024,77.580429 321.717773,80.862938 322.077240,83.509239 
	C323.213196,91.871147 324.083405,100.327393 324.193817,108.758430 
	C324.433533,127.062126 325.336792,145.344849 325.568604,163.652985 
	C325.774139,179.888275 325.606995,196.169312 326.535858,212.366455 
	C327.357025,226.684662 326.935547,240.976501 327.377502,255.271057 
	C327.952515,273.871033 328.723145,292.465027 329.440002,311.060425 
	C329.489746,312.350067 329.791718,313.630005 330.644318,315.362823 
	C345.458099,298.122406 360.061646,280.819733 377.028442,265.554993 
	C375.652557,276.936951 369.802094,286.796387 366.012238,297.756378 
	C370.119781,298.244507 371.956665,295.265564 374.082336,293.660309 
	C392.083160,280.066620 409.772034,266.059998 427.766205,252.457321 
	C439.809204,243.353424 452.195038,234.702988 464.433502,225.857971 
	C465.509460,225.080322 466.567719,224.238037 467.747620,223.655594 
	C468.921204,223.076279 468.970612,220.235657 471.049011,221.711746 
	C473.349762,223.345749 471.376923,225.101639 470.557404,226.452850 
	C464.433533,236.550171 457.238281,245.902817 449.813141,255.047028 
	C437.163849,270.624969 424.332275,286.057434 411.408020,301.408478 
	C405.525085,308.396027 399.268951,315.071503 393.114594,321.827026 
	C391.419525,323.687653 389.821381,325.536133 389.048920,328.814148 
	C401.991394,324.172211 413.979919,318.288513 427.042542,314.947113 
	C410.636383,335.393372 385.465942,345.213501 366.634125,364.347015 
	C384.204956,362.380676 400.860565,360.449829 417.505432,365.195007 
	C405.561340,372.071655 392.027679,374.355072 379.329834,379.213440 
	C438.356903,381.945892 496.942993,388.386902 555.466736,396.768127 
	C526.860657,402.068573 498.091827,405.490295 469.261261,408.237488 
	C440.275879,410.999512 411.220428,413.026611 380.897247,415.480865 
	C393.650330,422.561646 406.625458,425.834045 417.855072,433.272736 
	C395.898102,434.091156 374.653046,429.064178 351.870483,425.508514 
	C356.554169,431.931000 360.463654,437.291901 364.766876,443.192688 
	C360.912567,443.982422 358.412842,442.523621 356.027863,441.401978 
	C348.815613,438.010345 341.693726,434.420654 334.601135,430.782379 
	C329.693085,428.264679 327.543854,429.433441 327.496796,435.073059 
	C327.398895,446.800659 326.882233,458.560303 327.572632,470.245636 
	C327.993439,477.368256 328.140717,484.478546 328.277405,491.593719 
	C328.358368,495.807800 329.971588,496.594971 333.549683,494.808136 
	C341.726440,490.724884 349.924530,486.683594 358.147461,482.694275 
	C359.744751,481.919342 361.494171,481.457916 363.642242,480.682739 
	C363.949463,489.091400 355.385406,492.602295 354.198242,500.924011 
	C375.024994,497.053558 394.462921,489.110016 415.477356,489.718475 
	C402.160370,499.153046 386.700500,504.286652 371.312622,512.263062 
	C430.058380,517.982056 487.855164,522.234253 545.180542,531.987244 
	C492.549988,541.022522 439.402832,544.723022 385.997528,548.519836 
	C395.867065,552.871643 405.736633,557.223450 415.606171,561.575317 
	C415.468506,562.143005 415.330872,562.710693 415.193207,563.278442 
	C399.010529,565.752502 383.089233,562.217346 366.858795,560.398438 
	C384.867920,574.524658 402.676910,588.743835 418.999451,604.549377 
	C416.602661,606.113220 416.220367,606.104248 408.529785,603.690002 
	C404.888031,602.546814 401.242218,601.408447 397.641693,600.144165 
	C393.909668,598.833679 390.491791,596.655579 386.179199,595.977234 
	C410.960724,627.951172 436.322937,659.189453 456.235382,694.207581 
	C455.753265,694.612793 455.271149,695.017944 454.789032,695.423096 
	C450.484863,692.185547 446.180725,688.947998 441.593811,685.489685 
M307.386047,280.044098 
	C307.329712,282.112701 308.160278,283.865875 309.243134,285.573334 
	C308.811676,279.384216 310.735352,273.147705 308.162506,267.092926 
	C309.238159,271.283844 307.110199,275.205109 307.386047,280.044098 
M307.889618,302.386536 
	C307.889618,304.281616 307.889618,306.176697 307.889618,309.307709 
	C310.183533,302.499969 309.987793,291.386841 307.342865,288.217987 
	C308.338013,291.074768 307.921661,293.088165 307.609497,295.166229 
	C307.297455,297.243439 307.738159,299.433685 307.889618,302.386536 
z"/>
<path fill="#000000" opacity="1.000000" stroke="none" 
	d="
M232.367569,193.771851 
	C237.945129,205.868637 240.413773,218.300797 241.309906,231.153748 
	C221.890427,206.835037 212.279663,178.596573 207.776199,148.192032 
	C217.427231,162.462173 225.839325,177.383026 232.367569,193.771851 
z"/>
<path fill="#000000" opacity="1.000000" stroke="none" 
	d="
M240.428925,268.819275 
	C241.833160,273.731720 244.580368,277.999207 243.693634,283.504425 
	C222.657059,268.013214 199.717621,229.644791 203.487610,215.417343 
	C216.689865,232.965515 233.023270,247.483780 240.428925,268.819275 
z"/>
<path fill="#000000" opacity="1.000000" stroke="none" 
	d="
M348.229309,279.275208 
	C346.110809,281.332642 344.218140,283.110718 342.371765,284.845337 
	C340.242096,283.884125 340.739441,282.412079 341.127533,280.960358 
	C345.441833,264.821899 353.847260,250.856613 364.156342,237.943512 
	C368.490967,232.513947 373.021912,227.233063 377.652679,222.053635 
	C378.785004,220.787155 379.554657,218.258575 382.460815,219.337387 
	C376.672913,242.451843 367.054901,263.266296 348.229309,279.275208 
z"/>
<path fill="#000000" opacity="1.000000" stroke="none" 
	d="
M347.740448,208.149414 
	C353.439514,187.256546 363.381042,168.885391 374.929382,150.196457 
	C378.787476,161.978943 355.567352,222.407822 343.490356,233.130188 
	C343.354126,224.190720 346.480774,216.515503 347.740448,208.149414 
z"/>
<path fill="#000000" opacity="1.000000" stroke="none" 
	d="
M229.689163,657.820068 
	C233.761551,651.660522 237.678864,645.829773 241.955734,639.463867 
	C244.684998,644.267517 242.632080,648.229492 241.808121,652.016479 
	C238.257385,668.335327 229.525803,682.263184 220.905136,696.223206 
	C217.903030,701.084717 214.976532,705.988647 209.849274,709.387878 
	C213.303604,691.110779 219.124069,673.770508 229.689163,657.820068 
z"/>
<path fill="#000000" opacity="1.000000" stroke="none" 
	d="
M155.865967,332.987366 
	C162.869965,337.668549 170.324677,341.239899 175.653320,348.503235 
	C156.608521,348.374054 115.680389,329.557770 110.997314,318.539948 
	C127.439743,319.365234 141.775192,325.157593 155.865967,332.987366 
z"/>
<path fill="#000000" opacity="1.000000" stroke="none" 
	d="
M359.955658,691.964600 
	C349.280548,676.077393 342.137817,659.162292 339.028015,640.415161 
	C348.343414,642.997253 372.457214,690.822388 373.623138,709.387878 
	C367.217285,704.534790 364.164185,698.003723 359.955658,691.964600 
z"/>
<path fill="#000000" opacity="1.000000" stroke="none" 
	d="
M432.995636,342.283386 
	C425.028473,344.752869 417.710510,348.357880 409.186310,347.999054 
	C414.205811,336.058838 458.901886,315.577271 470.317139,320.421234 
	C459.388123,330.698761 446.517395,336.666748 432.995636,342.283386 
z"/>
<path fill="#000000" opacity="1.000000" stroke="none" 
	d="
M160.924194,592.032288 
	C150.919006,598.787292 140.562241,603.797180 128.843338,605.585815 
	C127.502632,605.790405 126.209824,606.314392 125.339569,604.779419 
	C124.522293,603.337891 125.748253,602.654053 126.522766,601.888916 
	C138.893417,589.668335 153.504486,581.702332 170.722412,578.740173 
	C171.993591,578.521484 173.307571,578.551636 175.907471,578.379700 
	C171.879547,584.841003 165.967545,587.732727 160.924194,592.032288 
z"/>
<path fill="#000000" opacity="1.000000" stroke="none" 
	d="
M421.076935,580.535400 
	C436.592377,584.705078 449.143677,592.862427 460.042572,604.154724 
	C452.043793,609.295776 417.497894,593.088928 410.458832,579.097168 
	C414.069794,578.702332 417.364227,579.658142 421.076935,580.535400 
z"/>
<path fill="#000000" opacity="1.000000" stroke="none" 
	d="
M99.167160,366.349884 
	C89.832184,365.562317 81.329247,363.490509 72.941559,359.747345 
	C81.261429,352.243011 116.676491,356.028198 121.032967,364.090637 
	C113.975571,365.832275 106.889603,366.809814 99.167160,366.349884 
z"/>
<path fill="#000000" opacity="1.000000" stroke="none" 
	d="
M496.684082,575.216431 
	C481.631927,574.787537 468.363556,570.657288 455.702148,560.571594 
	C474.023743,558.790161 488.741821,564.655334 503.504028,572.491760 
	C501.422791,575.046326 498.866547,574.056641 496.684082,575.216431 
z"/>
<path fill="#000000" opacity="1.000000" stroke="none" 
	d="
M87.555069,568.313354 
	C100.107971,562.696838 112.739632,559.639099 126.536163,560.992615 
	C120.875534,570.427429 92.521141,577.799072 80.983841,573.065247 
	C82.540756,570.703796 84.942253,569.675781 87.555069,568.313354 
z"/>
<path fill="#000000" opacity="1.000000" stroke="none" 
	d="
M483.349091,356.779877 
	C492.766846,356.005829 501.776337,354.688965 510.695740,358.104828 
	C503.384155,366.556000 470.822327,369.193420 463.951691,363.277527 
	C469.734100,359.222778 476.426300,358.321655 483.349091,356.779877 
z"/>
</svg>