<svg version="1.1" id="Layer_1" xmlns="http://www.w3.org/2000/svg" xmlns:xlink="http://www.w3.org/1999/xlink" x="0px" y="0px"
	 width="1024px" height="1024px" viewBox="0 0 752 752" enable-background="new 0 0 752 752" xml:space="preserve">
<path fill="#000000" opacity="1.000000" stroke="none" 
	d="
M337.903748,395.795715 
	C335.916992,377.137146 333.638458,358.972656 328.487335,341.005310 
	C325.830383,342.486969 326.464691,344.885071 326.401398,346.848633 
	C325.919037,361.808899 327.335388,376.712677 327.910889,391.641144 
	C328.686035,411.748535 333.691956,431.294678 336.123505,451.186676 
	C336.667358,455.635956 336.411469,460.112762 337.142273,464.599487 
	C338.199097,471.087708 336.258942,477.755615 337.791870,484.400238 
	C329.971588,474.513977 323.973328,463.810150 320.309631,452.080353 
	C318.308838,452.201416 317.428711,453.025543 317.630829,454.345337 
	C318.825165,462.144440 320.183441,469.918365 321.390472,477.715637 
	C323.134186,488.979218 327.249664,499.825226 327.328552,511.375702 
	C327.341827,513.321899 327.844330,515.875916 325.522064,516.618408 
	C323.043488,517.410889 322.499115,514.707703 321.285858,513.224365 
	C314.131348,504.477234 308.362305,494.751312 301.702057,485.656708 
	C298.507019,481.293884 297.183380,475.591858 291.505890,472.070923 
	C298.871521,489.528381 305.986267,506.391235 313.380035,523.915344 
	C310.646790,523.245850 310.401398,520.440430 307.989746,520.270081 
	C305.423615,521.397949 304.559509,522.750244 306.816711,525.716431 
	C308.970062,528.546143 310.437805,531.937683 311.948578,535.201843 
	C312.921478,537.303955 313.472992,539.593384 316.498474,540.613770 
	C311.562286,543.507385 308.896088,539.986267 306.521240,538.132019 
	C301.310913,534.063843 295.641693,530.477905 291.268585,525.361450 
	C290.270203,524.193359 288.966034,522.798035 286.363800,524.177490 
	C293.025085,533.932617 300.651123,542.962463 305.881927,553.559875 
	C300.412506,555.496216 296.728333,553.407776 293.465240,549.356262 
	C291.176453,546.514404 288.116364,544.752136 284.331512,543.937500 
	C278.830719,542.753418 274.738495,538.835754 270.504791,535.427246 
	C265.901398,531.721069 260.888580,533.023315 255.805283,532.855835 
	C255.872711,535.612427 257.561371,536.836121 258.767426,537.358704 
	C268.571167,541.606506 276.159576,549.083923 283.690613,556.030762 
	C289.992828,561.844116 297.055237,568.254700 299.015045,578.275269 
	C289.926147,577.168701 283.122009,572.234192 275.759430,568.783936 
	C269.511230,565.855835 263.615448,562.129761 255.842331,562.265137 
	C260.210663,566.355835 264.513306,570.519836 268.969482,574.512451 
	C272.155426,577.367004 275.620087,579.909668 278.821533,582.748047 
	C280.924896,584.612793 282.573120,587.087891 285.968567,586.535767 
	C286.476379,586.453247 287.198059,586.932739 287.645050,587.343506 
	C293.181976,592.431519 300.696289,595.610840 303.419708,603.510376 
	C294.330963,607.053162 287.037567,602.109253 279.590027,598.532288 
	C275.394135,596.517090 271.597168,594.707520 267.313202,598.156860 
	C265.527008,599.594971 264.004883,598.932739 262.049408,597.537170 
	C257.519501,594.304016 253.200470,590.812866 248.116272,588.223694 
	C242.418335,585.321838 237.444153,581.102173 234.403717,574.962585 
	C233.208511,572.549133 230.903015,570.528320 228.740067,568.777161 
	C215.965530,558.434875 203.173920,548.108948 190.189026,538.033997 
	C185.763885,534.600525 180.770569,531.896851 176.019302,528.887512 
	C174.384003,527.851807 172.296341,527.268311 172.165176,524.386230 
	C174.478653,523.267700 176.779037,523.633240 179.196075,524.346191 
	C193.982498,528.707825 208.785355,533.013855 223.587875,537.320740 
	C224.979187,537.725464 226.406418,538.006775 228.388397,538.482605 
	C227.168121,534.084839 223.475952,533.042969 220.772888,531.527771 
	C213.375702,527.381165 207.120331,521.928589 200.603790,516.597595 
	C189.477951,507.495880 177.844528,498.958069 165.447266,491.533630 
	C158.478195,487.360016 151.762329,482.749512 145.051865,478.161163 
	C131.564941,468.939178 118.157005,459.601624 104.724350,450.300415 
	C102.932472,449.059631 101.241829,447.716156 101.305901,444.629333 
	C104.946442,445.463226 108.534500,445.950134 111.890656,447.108734 
	C132.100616,454.085815 152.199203,461.389038 172.451859,468.237762 
	C186.736862,473.068451 201.217712,477.318054 215.587189,481.902130 
	C219.689331,483.210785 223.540131,485.115967 228.279297,488.097321 
	C221.416733,488.632812 222.746368,498.744049 214.065567,495.780914 
	C214.260681,496.393860 214.455795,497.006775 214.650909,497.619720 
	C234.212082,505.539734 253.773270,513.459778 273.334442,521.379822 
	C273.703278,520.914246 274.072144,520.448669 274.440979,519.983154 
	C260.029053,503.848297 242.298798,490.546143 230.231506,472.409851 
	C230.723099,471.897980 231.214676,471.386139 231.706268,470.874268 
	C237.841766,473.965546 244.127975,476.793915 250.079880,480.205505 
	C260.849579,486.378693 272.383698,491.262665 282.192352,499.084259 
	C283.443268,500.081757 285.061554,501.430817 286.668854,500.092743 
	C288.459534,498.602020 286.619873,497.214020 286.093719,495.719910 
	C280.587341,480.082855 275.169098,464.414642 269.756409,448.744690 
	C267.325012,441.705688 264.849976,434.678375 262.612396,427.577179 
	C261.454346,423.902069 260.178162,420.125671 261.493713,414.961395 
	C281.776123,427.469604 289.665894,449.142120 303.808411,464.967621 
	C302.992767,459.339661 300.288239,453.501892 298.982391,447.288483 
	C297.650238,440.949799 293.638580,435.233734 294.025482,427.890808 
	C297.985626,431.970276 298.924133,437.369019 303.087860,440.850037 
	C302.778717,435.107361 301.978088,429.537537 299.749512,424.307312 
	C290.769501,403.232208 283.075165,381.651154 276.057465,359.893158 
	C269.899689,340.801331 263.420563,321.803345 257.617035,302.591156 
	C254.649521,292.767395 250.976013,283.151306 249.571960,272.911041 
	C249.472412,272.185028 248.893127,271.342499 250.412491,270.391266 
	C258.915741,284.678925 267.046631,299.161102 277.720734,312.087006 
	C288.240753,324.826263 297.686493,338.465759 306.588593,353.602142 
	C308.825104,347.793488 307.123627,342.850098 306.076050,338.361938 
	C301.030304,316.744720 297.831726,294.804352 293.988708,272.977844 
	C293.700073,271.338501 293.154541,269.339050 294.926636,267.856445 
	C297.421509,268.819427 296.502960,272.200073 298.866211,273.260864 
	C301.099213,272.487640 300.711945,270.775452 300.192993,269.195343 
	C296.958771,259.348145 296.647186,248.982864 294.961121,238.873367 
	C293.249359,228.609787 292.692322,218.151489 291.702606,207.771484 
	C291.517151,205.826523 291.676086,203.848724 292.525909,201.644943 
	C298.664398,215.614014 303.635712,229.974472 311.497162,243.175262 
	C309.137878,214.210175 304.307159,185.560226 301.424683,156.560181 
	C309.898590,170.101807 315.467682,184.991821 323.333588,198.861176 
	C323.855927,193.746277 324.197296,188.782806 324.024567,183.958679 
	C323.508392,169.543015 323.596893,155.139771 323.596161,140.725357 
	C323.595551,128.880753 322.968079,117.037575 322.799408,105.191177 
	C322.632050,93.438255 322.301483,81.666046 322.785980,69.932991 
	C323.114136,61.986038 323.475708,54.016602 324.057831,46.103390 
	C324.308044,42.702034 327.796600,39.522335 327.480652,35.208656 
	C330.030487,37.375603 330.108124,39.988068 330.355225,41.785587 
	C333.032440,33.636631 330.339844,24.233046 333.384277,15.315086 
	C337.990662,27.032839 337.735992,39.478737 339.054565,51.735283 
	C341.514252,37.570553 339.140503,22.755606 345.295929,9.291590 
	C353.089783,14.465027 348.026794,23.219091 350.970428,30.069956 
	C359.707336,28.551508 357.260468,20.032192 360.504852,15.078242 
	C362.157776,14.536746 362.184845,15.948265 362.408783,17.329260 
	C362.876617,15.400366 363.258331,13.826509 363.956757,10.946851 
	C366.118195,16.721899 365.472321,21.680044 366.042938,26.402424 
	C366.408569,29.428537 365.786621,32.360722 364.594086,35.486801 
	C362.446045,41.117718 364.406281,47.285255 364.719086,53.197109 
	C364.847870,55.630974 368.108582,56.481571 370.754730,57.956360 
	C367.015015,47.595974 368.393585,37.462685 370.193451,26.763620 
	C373.854889,29.488699 376.097809,67.590233 374.650757,89.471451 
	C372.691132,89.186256 371.564056,88.164444 371.999725,86.125488 
	C373.253326,80.258324 371.766022,74.339729 372.481110,68.424706 
	C372.898651,64.970840 373.036926,60.685558 367.350098,60.884003 
	C365.836243,60.936829 366.221588,59.005253 365.071716,58.543541 
	C362.423798,61.408691 364.773651,64.475044 364.382355,67.678261 
	C365.396637,67.211906 366.069824,66.902367 367.123932,66.417709 
	C367.292450,68.806541 368.319702,71.052979 365.498566,72.533379 
	C364.254913,73.185982 364.294556,74.475044 364.380859,75.627083 
	C364.887177,82.386536 363.883423,89.123253 363.994629,95.817429 
	C364.043945,98.785027 365.494415,101.844849 365.526947,105.310478 
	C365.651611,118.606361 364.604065,131.847046 363.799988,145.069260 
	C363.307251,153.171417 364.119873,161.237457 363.274261,169.327011 
	C362.251709,179.109589 363.512329,188.992462 363.095276,198.761261 
	C362.742859,207.016464 363.583557,215.609192 359.788544,223.592148 
	C358.337555,226.644333 361.708435,230.292313 358.947784,233.699020 
	C357.577393,186.583313 353.982483,139.547211 354.746216,92.405869 
	C349.249451,105.539719 351.122589,119.532768 349.849091,133.196274 
	C348.929108,143.066818 351.094910,152.720261 350.350586,162.494354 
	C349.808350,169.614822 349.164612,176.718658 349.261169,183.892395 
	C349.379944,192.714798 349.873291,201.465363 351.087891,210.216003 
	C351.530151,213.402252 350.390503,216.775024 350.351593,220.067169 
	C350.222260,231.001038 350.371216,241.938461 350.215881,252.871704 
	C350.012146,267.215851 350.462494,281.510864 348.683167,295.897919 
	C347.156036,308.245514 348.366760,320.931732 348.366760,333.939636 
	C350.917542,334.198853 350.829926,336.950409 349.849976,339.482239 
	C347.956390,344.374786 347.715454,349.011932 349.942139,353.893829 
	C353.529816,361.759735 350.315796,369.794861 350.279541,377.765167 
	C350.245392,385.277435 348.621185,392.776520 350.990204,400.395294 
	C352.222534,404.358490 351.800842,409.058350 351.243958,413.309875 
	C350.026855,422.601379 350.570374,431.906830 350.271301,441.202209 
	C350.230316,442.475555 350.403503,443.880096 349.047424,445.138184 
	C346.399750,444.320496 346.231171,441.902008 345.861725,439.737213 
	C343.381744,425.206696 339.742859,410.885071 337.903748,395.795715 
z"/>
<path fill="#000000" opacity="1.000000" stroke="none" 
	d="
M454.087402,532.217529 
	C458.061249,524.039062 463.144196,516.950623 467.503357,509.445923 
	C469.423065,506.140930 467.509399,501.390991 471.360474,496.987793 
	C469.113373,497.625702 468.253479,497.600494 467.990448,497.984344 
	C463.052429,505.190277 455.453339,509.824280 450.075195,516.591431 
	C448.902374,518.067139 447.675415,519.455200 445.529266,519.044006 
	C442.955353,518.550842 444.202301,516.380859 443.874390,514.948975 
	C443.619232,513.834778 443.298584,512.412415 443.757812,511.508301 
	C447.820435,503.509827 445.240875,494.134857 449.153961,486.103394 
	C450.172882,484.012115 452.043030,481.945496 447.348938,480.433472 
	C445.092072,479.706482 444.703552,473.934631 445.575104,470.519623 
	C447.665710,462.328064 445.523651,453.864624 447.641876,445.731354 
	C449.103302,440.119690 445.551514,435.284241 445.147400,429.940918 
	C444.041656,415.320312 442.866364,400.704254 441.570984,386.099487 
	C441.390564,384.065399 441.268311,381.757172 438.547180,379.483307 
	C432.949066,413.554871 430.900085,447.463989 425.284515,480.943878 
	C422.890533,477.589325 422.873383,473.578003 422.986877,470.226807 
	C423.206055,463.755432 422.308319,457.483612 421.909241,451.113342 
	C421.413055,443.192963 422.512451,435.050781 422.061646,427.232574 
	C421.228821,412.790100 423.037750,398.298798 420.866241,383.926453 
	C420.619171,382.290894 420.700928,380.603485 420.658997,378.939423 
	C420.342163,366.365662 419.380341,353.763428 419.924713,341.226715 
	C420.369568,330.981384 420.518860,320.771881 419.563385,310.629639 
	C417.855804,292.504303 419.489655,274.352112 418.478607,256.256744 
	C417.992676,247.560333 417.614471,238.836792 416.764252,230.131714 
	C417.786682,238.277191 414.111267,246.261505 416.460022,254.575058 
	C417.312927,257.593933 416.104706,261.563599 414.854095,264.708679 
	C413.497711,268.119812 413.240387,271.452820 413.322784,274.944733 
	C413.675018,289.872742 412.608612,304.806824 412.737823,319.679565 
	C412.841064,331.565491 412.876709,343.570587 413.888702,355.518677 
	C414.820831,366.523773 413.792419,377.642578 412.894409,388.682556 
	C412.819580,389.602417 412.146393,390.473633 411.503693,391.927338 
	C409.308990,388.707214 408.617859,385.554688 408.725769,382.377655 
	C409.187653,368.775208 408.321899,355.175903 409.406128,341.550598 
	C410.446350,328.478424 408.805237,315.377045 407.913300,302.301758 
	C407.506927,296.344543 407.297180,290.371063 408.237274,284.389526 
	C408.983673,279.640533 408.037048,274.864532 407.803345,270.095612 
	C407.275604,259.327515 407.362061,248.543808 406.795227,237.753464 
	C405.018768,203.936432 403.860535,170.094727 403.477234,136.218628 
	C403.262054,117.199966 402.161316,98.148476 400.436340,79.204948 
	C399.303650,66.766129 400.716156,54.261208 398.646149,41.896492 
	C398.301941,39.840424 398.165588,37.562473 399.464142,35.607018 
	C400.934052,33.393539 401.920349,33.418274 404.158508,36.206394 
	C405.033722,29.920389 407.640961,24.684093 410.997894,18.415941 
	C410.997894,23.155363 411.744690,27.076859 410.806976,30.542578 
	C409.660431,34.780132 407.967804,38.472843 411.035095,42.668465 
	C411.886749,43.833405 411.132874,46.202965 411.046631,48.016586 
	C410.829407,52.582024 411.535919,54.425751 415.682343,58.878551 
	C415.234894,53.026993 417.452942,47.888702 415.604156,42.743492 
	C414.883087,40.736679 414.298309,38.911980 415.671143,37.228798 
	C418.929474,33.233910 417.682709,28.054770 419.327606,23.851019 
	C421.485718,18.335806 422.363159,12.767927 422.880280,7.023284 
	C424.876343,6.558457 423.989197,8.823509 425.343079,9.109648 
	C426.502533,8.557205 424.891235,6.884910 426.796387,6.259429 
	C426.440002,6.259429 426.815002,6.140089 427.015198,6.276777 
	C433.004242,10.366138 431.356567,17.090586 432.094025,22.689226 
	C432.988403,29.479666 432.306244,36.477764 432.306244,43.828320 
	C434.337280,42.622620 433.915985,39.610550 436.746674,40.569382 
	C438.836456,41.277241 439.708771,42.723957 439.759918,44.664581 
	C440.004578,53.948799 440.261566,63.234974 440.311157,72.521538 
	C440.393829,88.003761 440.452271,103.488266 440.279694,118.969124 
	C440.091675,135.834763 440.079559,152.723450 439.103851,169.550659 
	C438.582581,178.540329 439.949585,187.462006 439.537506,196.160965 
	C439.118134,205.013123 438.642426,213.947098 438.353241,222.853134 
	C438.301300,224.452682 437.902832,226.215546 439.535431,227.909424 
	C443.642303,225.579559 444.436127,221.045975 445.795166,217.308228 
	C450.832306,203.454803 455.892517,189.567825 459.892395,175.396606 
	C461.934845,168.160233 464.631500,161.070984 465.990906,153.632706 
	C466.138763,152.823486 466.405090,151.999466 467.705139,151.648300 
	C469.925110,153.405075 469.354492,155.900436 468.925873,158.202850 
	C466.889404,169.141266 466.443329,180.245605 465.341553,191.281189 
	C463.747131,207.250656 461.784576,223.194275 460.673157,239.197128 
	C459.964417,249.402512 457.973419,259.408936 457.059052,269.592194 
	C455.509277,286.852692 451.970825,303.926422 449.620850,321.126770 
	C448.455475,329.656555 448.004364,338.288361 447.373657,346.884521 
	C447.132690,350.169189 447.312866,353.484833 446.143707,357.037659 
	C451.520813,356.648102 454.146790,352.565125 456.121613,349.405029 
	C460.172699,342.922394 465.515717,337.565216 469.974121,331.473480 
	C474.190735,325.712158 477.690887,319.404968 481.999115,313.870697 
	C489.601593,304.104828 495.166351,293.173645 501.899048,282.937042 
	C506.075287,276.587372 509.738647,269.900330 513.682129,263.280914 
	C517.329285,267.574615 517.670654,267.675812 515.053284,276.505341 
	C507.058105,303.476929 499.192017,330.478455 490.149933,357.146423 
	C484.792664,372.946533 481.907990,389.567871 477.296051,405.643402 
	C473.870758,417.582672 469.835632,429.367188 467.633026,441.601593 
	C466.439331,448.231903 465.068390,454.771545 462.666321,460.849243 
	C464.724182,462.725708 465.940338,461.834106 467.334686,460.628998 
	C473.616516,455.200073 478.492981,448.589600 483.692505,442.181793 
	C493.836456,429.680573 503.583618,416.882202 513.450745,404.171844 
	C513.703064,403.846802 514.180420,403.696411 515.138550,403.100037 
	C514.005371,415.746735 509.794586,427.048553 506.096222,438.443756 
	C501.333252,453.119019 496.368774,467.731995 491.233215,482.280762 
	C490.158051,485.326630 488.022583,488.015839 486.257019,490.793945 
	C485.138458,492.554016 484.105164,494.217255 485.547546,496.258545 
	C486.927429,498.211334 488.801025,499.099792 491.166138,498.643799 
	C495.911682,497.728912 500.454163,496.129120 504.828430,494.121002 
	C509.649689,491.907715 514.338440,489.405304 519.165649,487.205994 
	C520.444031,486.623535 521.900757,484.612274 523.468140,486.778717 
	C525.152405,489.106628 522.557373,489.442841 521.570984,490.425873 
	C513.449280,498.520203 505.691986,507.040771 496.284637,513.708191 
	C484.409027,522.124878 473.341125,531.714844 460.389679,538.578674 
	C459.519714,539.039734 458.680389,539.677429 457.749786,539.881348 
	C455.624054,540.347046 452.970154,540.572571 451.682739,538.953918 
	C449.522736,536.238159 453.716064,534.925049 454.087402,532.217529 
z"/>
<path fill="#000000" opacity="1.000000" stroke="none" 
	d="
M510.541992,684.812622 
	C498.637451,679.343933 486.765503,674.653625 474.151459,672.352661 
	C468.138123,671.255798 462.166107,672.561096 456.106720,673.650696 
	C446.273224,675.419067 436.127136,676.970398 426.948944,670.505249 
	C424.432159,668.732422 420.914032,668.602295 418.711212,665.958069 
	C418.794006,664.243835 419.386749,662.674133 420.856873,661.755981 
	C427.523346,657.592468 431.489105,650.780396 437.022644,645.524292 
	C438.664612,643.964722 440.809082,642.673401 442.956177,641.959717 
	C447.644928,640.401001 449.313812,635.867371 452.504486,632.868225 
	C457.556000,628.119934 464.045746,625.908569 469.747559,622.336182 
	C472.871246,620.378967 476.265747,618.410278 480.304291,621.997253 
	C481.729065,623.262695 485.158142,623.310913 487.695404,623.608215 
	C489.243378,623.789551 490.482819,622.879333 490.179657,620.779907 
	C489.054962,612.991211 490.354401,611.478027 497.359619,607.642700 
	C503.557098,604.249573 509.872406,601.071350 515.669861,596.757874 
	C518.900635,594.354187 523.858643,593.163452 528.139587,591.802734 
	C536.519348,589.138916 544.612305,586.251587 552.311646,581.662354 
	C557.936157,578.309814 564.922241,576.833984 573.405823,577.651672 
	C566.697937,593.612854 554.196533,603.339783 541.087402,613.475891 
	C546.552917,615.278015 551.129395,618.475952 556.502136,620.419373 
	C560.195496,621.755310 561.385925,626.560059 562.813110,630.077332 
	C563.771301,632.438782 560.529663,633.604797 558.374084,634.526611 
	C556.827332,635.188110 555.981689,636.438904 556.353027,638.110291 
	C556.741394,639.858398 558.341187,639.507690 559.626892,639.653870 
	C564.829346,640.245789 570.158264,640.427979 574.958435,644.141357 
	C569.823914,647.242981 563.757446,647.249573 559.266907,651.110840 
	C570.466064,649.218750 581.604553,651.064026 592.739990,650.887878 
	C603.905212,650.711304 614.144714,646.880920 624.885559,644.283264 
	C625.011780,646.994202 623.976929,648.163879 622.831970,649.054810 
	C616.243347,654.181335 611.264587,661.668274 602.226379,663.229797 
	C598.883606,663.807373 599.885864,666.150452 600.011963,668.253906 
	C602.248047,669.291077 604.668274,669.159180 606.427612,668.364807 
	C615.656311,664.198059 626.844299,665.700134 634.964722,658.448914 
	C642.963440,660.413330 649.943848,651.667419 658.343689,656.912781 
	C656.377747,662.911377 649.443359,659.750427 645.439270,662.787170 
	C641.528992,665.752991 637.819702,670.036316 630.688354,669.183960 
	C635.259033,673.984436 640.258667,673.405518 644.466309,674.513916 
	C652.151489,676.538513 659.978943,678.040588 667.517151,680.623169 
	C669.467224,681.291260 671.731079,681.619873 672.905701,684.077454 
	C672.265198,684.411499 671.722168,684.932556 671.162170,684.951416 
	C660.566895,685.309021 649.845398,686.708679 639.423889,684.767273 
	C634.242615,683.802002 628.832581,686.428101 624.028320,683.220520 
	C618.156982,687.897217 614.897217,681.991211 610.499939,679.266296 
	C609.602173,685.281311 606.397461,686.938049 601.011047,686.487183 
	C594.008911,685.901001 587.146057,685.737610 582.537292,679.182983 
	C581.609070,677.862793 579.889282,677.155762 578.055725,677.559082 
	C572.353882,678.813354 566.762024,678.945740 561.307251,676.347717 
	C560.355652,675.894470 559.449524,676.787292 558.739563,678.209473 
	C562.474060,683.380798 568.597046,682.570984 573.844360,683.573730 
	C578.394592,684.443420 580.680969,686.130188 581.790161,691.303223 
	C562.256042,690.242676 542.812744,689.246948 525.324524,678.280823 
	C524.395508,681.968018 526.157959,682.418823 527.314087,683.106262 
	C532.288574,686.064026 532.316223,686.527039 527.380493,689.537476 
	C526.959167,689.794434 526.547302,690.066895 526.146729,690.322144 
	C521.704224,686.509827 515.985291,686.534241 510.541992,684.812622 
z"/>
<path fill="#000000" opacity="1.000000" stroke="none" 
	d="
M304.422028,636.386536 
	C304.904358,641.508667 309.911499,641.901611 312.979980,643.742859 
	C320.345978,648.162903 326.702759,653.968201 334.134094,658.317444 
	C336.810577,659.883789 338.151306,664.462097 337.972504,668.077942 
	C337.830200,670.954468 334.457062,671.217041 332.411377,671.051758 
	C328.676880,670.750122 324.922485,670.061096 321.792542,667.380981 
	C317.270264,663.508606 311.912476,659.953796 306.045258,660.557129 
	C300.503418,661.127075 294.507935,661.901794 289.582977,665.385498 
	C288.768738,665.961426 287.790710,666.369934 287.121490,667.076599 
	C281.262024,673.263855 274.745453,673.226501 268.690857,668.037842 
	C263.705261,663.765320 259.203156,664.935852 253.712952,667.473511 
	C256.196838,670.653442 260.710785,669.534607 262.973541,672.647095 
	C262.779541,674.047913 261.374878,674.406738 260.129456,674.482788 
	C250.103165,675.095215 240.710938,680.420715 230.548599,679.132568 
	C217.894547,677.528442 205.494858,680.097107 192.970932,680.342834 
	C187.151169,680.457031 181.461121,680.799805 175.937958,683.053528 
	C171.084518,685.033936 165.838669,684.481079 160.715820,684.326721 
	C153.140656,684.098511 145.699890,683.032227 137.961868,684.203308 
	C128.037598,685.705261 117.863419,685.660828 107.769066,685.349426 
	C105.987206,685.294495 104.142357,685.637268 102.066811,684.508911 
	C103.804428,681.980164 106.631325,682.590454 108.720734,681.744873 
	C115.598846,678.961365 122.038589,675.203247 129.461624,673.597168 
	C138.696518,671.599182 147.750809,669.467834 157.320068,671.436218 
	C161.722229,672.341736 166.454971,669.902771 170.896805,672.516846 
	C172.040939,673.190247 173.651108,672.310608 173.985611,670.783386 
	C174.365952,669.046936 172.996445,668.685486 171.617691,668.263428 
	C160.935364,664.993835 151.147308,660.147461 143.448547,651.784241 
	C142.123474,650.344788 140.330765,649.967163 138.706970,649.167969 
	C136.149857,647.909241 134.415009,646.135193 135.421890,642.568359 
	C140.193344,644.702576 144.923416,641.949036 149.810455,643.431641 
	C153.397217,644.519836 157.387878,644.512085 160.543518,646.837830 
	C166.867569,651.498840 174.954300,651.226807 181.705811,654.636292 
	C185.392029,656.497803 189.476395,657.833557 192.683823,660.309753 
	C196.172974,663.003418 199.592575,662.813232 204.413849,662.350586 
	C198.200516,657.043396 191.255432,654.865784 184.733673,650.882385 
	C188.636749,649.325195 191.857407,647.215149 193.814957,644.389648 
	C207.529572,646.966980 218.578079,656.591980 232.826218,656.465759 
	C227.816513,653.690186 223.578766,649.577148 217.422791,649.031677 
	C215.209808,648.835632 212.988663,648.446289 211.055237,646.079163 
	C208.859467,643.390808 208.698471,641.742432 211.746429,639.042480 
	C202.942566,636.066223 196.388611,630.115906 188.438995,627.151672 
	C181.013138,624.382690 174.787262,619.964966 168.273346,615.812866 
	C163.493881,612.766479 158.891708,609.410034 153.556305,607.277405 
	C148.798706,605.375732 145.495102,601.394897 142.219086,597.828796 
	C137.245377,592.414856 131.034195,587.921021 128.075241,580.809753 
	C127.760925,580.054382 127.481964,579.284363 127.103745,578.307007 
	C129.669632,576.995239 132.037384,579.177551 134.512711,577.972351 
	C137.478226,571.699036 140.454971,570.820557 146.729660,573.909546 
	C157.898346,579.407776 169.559982,583.746216 181.364990,587.657532 
	C193.947708,591.826660 206.449722,596.258728 219.277985,599.660767 
	C224.120758,600.945068 227.123077,605.774658 232.449173,606.376892 
	C234.995514,606.664795 237.281647,606.752563 239.672974,605.790894 
	C237.275482,600.729980 234.280975,596.574097 229.341599,593.312500 
	C233.944611,591.151062 237.181259,593.655212 239.350800,595.174805 
	C250.165451,602.749084 262.547607,607.793884 272.485443,616.897095 
	C278.117859,622.056458 285.550995,625.230652 292.092285,629.424988 
	C295.583282,631.663513 298.991180,634.011841 303.445221,635.736267 
	C304.124268,636.138977 304.273132,636.262756 304.422028,636.386536 
M245.859085,666.322876 
	C244.844284,666.809937 243.184494,665.637329 242.654739,667.524536 
	C248.865097,669.210999 249.731018,668.885376 249.425735,664.988708 
	C248.412338,665.403687 247.407303,665.815186 245.859085,666.322876 
z"/>
<path fill="#000000" opacity="1.000000" stroke="none" 
	d="
M517.160034,551.838806 
	C505.152618,559.481384 492.002808,564.298645 479.305206,570.418762 
	C483.163208,564.074097 488.219421,558.793457 492.588684,552.999023 
	C497.009766,547.135925 501.341156,541.051453 503.620026,533.440430 
	C499.288177,536.911560 494.726227,540.141296 490.723663,543.957703 
	C488.783600,545.807495 486.804138,547.499939 484.622986,548.989136 
	C476.297760,554.673340 467.378204,559.332947 458.483734,564.030518 
	C457.481537,564.559814 456.296051,565.239868 455.360687,563.952026 
	C454.646942,562.969299 455.346649,562.149414 455.862823,561.255127 
	C462.761536,549.302429 471.029877,538.348999 480.203400,528.078552 
	C483.634155,524.237549 488.836487,523.270691 493.087067,520.777039 
	C501.145477,516.049500 509.910828,512.523926 518.604736,510.047455 
	C532.474304,506.096832 541.678894,496.270782 552.179626,487.888580 
	C552.652344,487.511230 552.910950,486.865662 553.852966,485.496918 
	C546.855652,485.137512 541.047119,488.487640 534.391541,487.451355 
	C533.243469,484.045654 535.694885,482.133270 538.586060,480.303589 
	C550.340332,472.864929 563.462341,468.579041 576.375122,463.810516 
	C603.600830,453.756317 631.156372,444.592499 658.021423,433.565338 
	C660.151794,432.690918 662.281189,431.930359 665.234375,432.223999 
	C662.751099,438.033264 658.629639,442.224701 654.554138,445.984253 
	C646.051758,453.827454 636.510010,460.451141 626.973450,467.030548 
	C621.200317,471.013489 614.975647,474.263794 609.991028,479.526154 
	C606.551147,483.157654 601.808044,485.602631 597.499390,488.345551 
	C594.848450,490.033234 592.046753,491.442108 589.987305,494.470673 
	C594.248169,496.827515 598.308777,498.252747 603.132996,496.506989 
	C606.780579,495.186981 610.557251,493.658661 614.835510,495.530579 
	C614.313660,497.864105 612.359497,498.242950 610.846558,498.928497 
	C598.166870,504.673950 585.442261,510.320221 572.770386,516.082581 
	C570.510010,517.110535 568.351013,517.642578 568.541382,521.627686 
	C568.681335,524.557434 564.687744,526.866943 561.606140,528.627319 
	C552.694275,533.718201 543.521057,538.381348 535.167603,544.413330 
	C534.496460,544.898010 533.669556,545.166992 533.321777,546.236572 
	C542.514893,548.490601 549.839966,542.730835 558.067261,541.690552 
	C566.447144,540.631104 574.460754,537.823242 582.763672,535.974304 
	C581.964600,546.762878 487.956146,602.176086 476.946533,598.531372 
	C477.528900,595.337830 480.041412,594.088257 482.566193,592.779297 
	C486.729828,590.620667 490.662109,588.278259 490.087799,582.558960 
	C489.693054,578.628174 492.260498,575.959534 494.726318,573.613892 
	C500.107605,568.495056 505.619812,563.506714 511.936462,559.470581 
	C514.665955,557.726501 516.514343,555.023560 517.160034,551.838806 
z"/>
<path fill="#000000" opacity="1.000000" stroke="none" 
	d="
M378.391235,720.150330 
	C371.424896,718.409607 364.741486,718.202637 358.020691,718.424316 
	C356.809113,718.464294 355.725800,718.554626 355.371979,720.090637 
	C355.053467,721.473206 355.104431,722.433411 356.255219,723.611145 
	C360.390930,727.843384 360.970795,732.258362 358.062897,735.074585 
	C354.084473,738.927551 345.790100,739.474915 341.885681,736.142151 
	C335.662689,730.830200 335.666229,730.751160 340.500824,723.397522 
	C340.940948,722.728027 341.075531,721.857727 341.265869,721.322693 
	C324.456512,720.628296 307.326233,723.673950 290.858948,716.893066 
	C292.314209,710.425232 301.815521,713.184753 301.268311,705.686462 
	C304.510071,706.511230 306.177307,704.802246 308.340851,703.114563 
	C316.562866,696.700745 324.069366,689.427979 332.684204,683.458862 
	C336.998383,680.469666 340.819458,676.848999 345.523163,674.231506 
	C362.468475,664.801819 380.418579,674.189026 388.035522,689.097351 
	C390.043335,693.027100 392.379303,696.733032 395.377441,700.033691 
	C398.934540,696.007324 398.356628,692.974792 393.041870,688.370300 
	C396.782806,684.981873 395.217041,681.710938 392.115021,679.149719 
	C388.693024,676.324280 386.965729,671.587830 381.824738,670.550171 
	C380.352295,670.252991 380.347687,667.843079 382.075806,666.675842 
	C387.120087,663.268738 394.973053,665.435120 395.640320,670.780334 
	C396.141998,674.798584 399.924957,676.413086 401.160736,679.868164 
	C401.745026,681.501709 403.735199,680.206055 405.141235,679.743835 
	C411.528412,677.644165 417.959167,675.277405 424.613251,678.717896 
	C431.306274,682.178467 438.294342,684.816650 443.964020,690.447754 
	C446.785461,693.250000 447.832458,696.226379 449.368561,699.472107 
	C448.303070,701.310547 446.215240,701.831909 444.381409,702.057434 
	C440.294586,702.560181 436.826294,704.394287 433.302734,706.247864 
	C429.837097,708.071106 426.223907,709.274780 422.402710,710.378967 
	C416.537994,712.073730 411.022827,715.312012 405.059296,717.216064 
	C401.100769,718.479980 397.238342,719.231995 392.991577,718.683411 
	C388.232758,718.068604 383.709778,721.189697 378.391235,720.150330 
z"/>
<path fill="#000000" opacity="1.000000" stroke="none" 
	d="
M411.004395,590.974121 
	C406.460571,592.968323 406.092041,596.138611 407.652374,600.536560 
	C409.451172,605.606689 409.289978,610.952454 407.888641,616.427490 
	C407.024780,616.698669 405.796692,616.766663 404.995361,617.386353 
	C398.918976,622.085876 394.759613,620.775757 391.581848,613.132996 
	C388.252930,605.126709 387.333923,596.459229 384.668945,588.273560 
	C384.173248,586.751038 383.678955,585.228088 382.868500,582.734497 
	C380.977295,586.435608 379.583466,588.759155 381.742188,592.079224 
	C383.931549,595.446472 384.041656,599.554504 384.223663,603.564087 
	C384.425842,608.018555 383.532745,612.512207 384.841339,616.940918 
	C385.507202,619.194397 383.910767,620.597473 382.403015,621.924683 
	C374.468903,616.129517 371.317719,607.381409 367.804840,598.920288 
	C366.406860,595.553040 364.311127,592.528687 362.992157,589.223999 
	C360.475525,582.918518 361.431427,576.107117 364.211395,570.391663 
	C366.865265,564.935547 367.320740,559.170959 367.954559,553.698669 
	C368.976288,544.876831 371.149841,536.183289 371.122375,527.201355 
	C371.083221,514.401917 374.247894,501.935547 375.730194,489.287140 
	C376.827209,479.926270 378.583405,470.643066 380.023163,461.321747 
	C380.603302,457.565582 381.359344,453.814087 381.583588,450.033661 
	C381.725464,447.642212 383.003418,446.116516 384.152161,444.067322 
	C387.723572,447.273712 386.531036,451.564423 387.059021,455.054352 
	C389.533020,471.407043 390.862579,487.938538 393.525787,504.255188 
	C395.711212,517.644531 397.273682,531.113831 398.885773,544.548279 
	C399.884155,552.868469 401.056183,560.904419 404.229828,568.651855 
	C404.924469,570.347534 404.576263,572.695435 407.613922,572.001160 
	C407.954865,571.923218 408.700409,572.769226 408.963226,573.326050 
	C411.713898,579.152954 414.527008,584.956543 417.028442,590.890686 
	C417.684326,592.446594 417.718323,594.569641 415.443604,595.605103 
	C413.174866,595.133362 412.696503,592.918945 411.113586,590.849670 
	C408.902100,587.073364 408.843414,583.074646 406.206573,579.815979 
	C403.052246,582.773743 404.778961,585.755310 405.367676,588.639404 
	C406.100006,592.227051 409.206757,590.003906 411.004395,590.974121 
z"/>
<path fill="#000000" opacity="1.000000" stroke="none" 
	d="
M628.228516,258.945496 
	C631.149292,258.096680 633.525391,256.495880 636.947571,256.559448 
	C635.378296,261.080811 631.644836,263.080353 629.533081,266.338409 
	C620.304626,280.576111 609.121277,293.354370 598.698792,306.700470 
	C596.857544,309.058167 594.687988,311.257233 591.154785,310.218353 
	C590.432373,310.005920 589.823914,310.127350 589.417908,310.743805 
	C586.085144,315.803802 581.406799,319.949707 579.028748,325.188782 
	C579.883484,327.894104 584.303650,325.329529 583.145386,329.324829 
	C584.975525,328.974182 584.534729,326.616150 586.387695,326.770599 
	C588.932495,329.456482 587.482056,331.272247 585.092712,333.062622 
	C571.594727,343.177155 557.703247,352.727264 543.788269,362.254242 
	C535.039856,368.243927 526.802002,374.989380 517.962585,380.832184 
	C513.081604,384.058502 508.538269,388.031952 503.172028,390.120758 
	C501.497864,388.856354 501.903107,387.778595 502.570068,386.750031 
	C512.049622,372.131256 521.109741,357.234283 531.594421,343.283447 
	C535.075439,338.651794 537.862122,333.509277 541.871155,329.260681 
	C545.296570,325.630554 543.626465,322.786499 539.378479,319.798798 
	C568.946350,298.889526 597.467590,277.640717 628.228516,258.945496 
z"/>
<path fill="#000000" opacity="1.000000" stroke="none" 
	d="
M303.751434,635.830444 
	C301.809296,631.725281 302.722046,626.573975 297.452576,623.958801 
	C302.810791,619.034546 308.609406,616.907837 315.434753,617.424744 
	C317.813568,617.604858 319.880859,617.230835 321.638611,615.158569 
	C323.689850,612.740051 327.036377,615.023987 329.904724,613.161560 
	C332.301147,611.605469 333.490662,610.033386 332.245850,608.352905 
	C328.395905,603.155396 330.973328,598.761841 333.732452,594.795837 
	C336.165558,591.298401 335.872162,587.366211 337.035980,583.705139 
	C337.522858,582.173523 337.789917,580.572144 338.145386,579.051941 
	C341.934174,579.206543 343.493866,581.943420 345.031616,584.082520 
	C351.402802,592.945251 357.156708,602.406189 363.819977,610.863220 
	C369.926239,618.613281 371.314606,627.210999 374.055878,635.701355 
	C375.084229,638.886475 374.650421,642.409668 370.676727,643.973206 
	C361.343750,638.816040 354.754181,630.094360 345.248779,624.736023 
	C344.205322,629.226868 347.227112,632.527832 347.260986,636.373657 
	C347.269989,637.394775 348.775055,638.225586 349.528534,637.929199 
	C354.706665,635.892883 356.533539,640.052490 359.132751,642.856506 
	C361.025391,644.898315 362.754028,646.871460 365.643829,647.983459 
	C370.275238,649.765747 370.863007,654.369507 368.035156,662.300720 
	C364.181519,659.825134 359.576630,662.761658 355.455658,660.251648 
	C354.271576,659.530457 353.077576,662.367249 350.240326,662.188110 
	C341.415436,661.630981 335.953735,655.626282 330.230164,650.702271 
	C325.396393,646.543762 320.056580,643.887451 314.479706,641.669250 
	C310.924194,640.255127 307.742798,638.626770 304.636993,636.315857 
	C304.273132,636.262756 304.124268,636.138977 303.751434,635.830444 
z"/>
<path fill="#000000" opacity="1.000000" stroke="none" 
	d="
M203.822144,714.044922 
	C197.149094,715.603882 190.801971,715.516541 183.818253,716.175415 
	C188.448669,708.248108 197.745605,709.858948 203.168610,704.350769 
	C200.646790,701.637268 199.618896,697.595154 194.686676,697.780945 
	C201.281433,695.302368 207.434143,692.366638 214.569321,692.931641 
	C225.720642,693.814575 235.447662,688.799927 245.338303,684.858582 
	C253.644302,681.548706 261.809326,678.181274 270.858185,677.249023 
	C273.635895,676.962830 275.778381,677.873474 277.987061,678.701782 
	C284.672974,681.209412 290.801025,679.137878 297.054108,677.105957 
	C304.316681,674.746155 311.597839,672.306274 319.423126,674.646484 
	C321.808197,675.359741 324.232910,673.179321 326.899506,674.508850 
	C326.855377,677.599792 325.966553,679.898560 323.260193,682.027283 
	C315.473999,688.151672 307.155853,693.507507 299.543640,699.991089 
	C292.864777,705.679749 283.001556,708.228821 273.285980,705.738892 
	C270.989044,705.150146 268.752167,704.957642 266.497314,705.813232 
	C265.925659,708.248230 268.414520,708.166992 269.374817,709.468567 
	C266.636047,711.108215 264.199280,712.797180 260.619598,711.587585 
	C259.359497,711.161804 258.138763,713.818115 256.165070,713.953369 
	C254.700684,714.053711 252.771881,715.326050 251.891190,714.762268 
	C243.323608,709.277283 234.721237,712.965149 226.034836,714.075317 
	C220.631775,714.765869 215.184616,712.684448 209.677414,713.369629 
	C207.872940,713.594177 206.056931,713.726196 203.822144,714.044922 
z"/>
<path fill="#000000" opacity="1.000000" stroke="none" 
	d="
M128.670044,255.241364 
	C127.136353,251.809921 123.798027,249.839661 123.118614,245.774765 
	C129.708420,246.509415 134.459213,250.320190 139.109741,253.757767 
	C149.219818,261.230927 158.924515,269.319458 169.777588,275.668396 
	C175.137741,278.804077 180.900925,281.236572 185.928894,285.024017 
	C191.013260,288.853973 195.905411,292.900421 199.238831,298.356812 
	C203.319077,305.035675 209.867935,309.259003 215.168152,314.670959 
	C227.330780,327.090057 239.541092,339.421448 250.301315,353.093719 
	C251.387329,354.473633 254.682678,355.254242 252.386169,358.525177 
	C242.004486,351.209930 230.332352,346.067261 220.163666,338.313934 
	C210.332230,330.817688 200.413620,323.168335 189.595047,317.322693 
	C181.590637,312.997620 174.675262,307.327515 167.069824,302.578705 
	C161.120804,298.864166 157.843048,292.209290 153.234436,286.990967 
	C144.453964,277.048889 136.194962,266.633881 128.670044,255.241364 
z"/>
<path fill="#000000" opacity="1.000000" stroke="none" 
	d="
M418.270874,601.312866 
	C420.503204,596.833008 422.788940,593.314026 427.723236,591.558228 
	C430.067902,590.723999 432.497345,587.938293 434.107971,585.684021 
	C436.705414,582.048401 439.956787,579.370300 443.383209,576.781616 
	C447.880737,573.383667 452.613861,575.596191 453.273071,581.398010 
	C453.872803,586.676453 451.670227,591.461487 450.323303,596.386169 
	C450.106262,597.179688 449.630615,597.912903 450.351196,599.110291 
	C453.045288,600.158325 456.056885,599.097046 458.607544,598.201050 
	C463.789612,596.380676 467.132629,597.688232 469.485779,602.464294 
	C469.888611,603.281860 470.747925,603.874573 471.367310,604.539978 
	C466.944092,613.134521 458.991119,617.812012 451.636871,623.302124 
	C447.424896,626.446472 442.538696,628.916931 439.390778,633.470520 
	C433.694275,641.710815 427.395508,639.624023 417.988983,635.316650 
	C416.091858,634.448059 413.574677,633.394348 413.613281,630.400574 
	C413.624573,629.521729 413.173126,629.057983 412.089264,628.885498 
	C406.982056,628.072876 407.451385,624.989990 408.978027,621.449890 
	C412.052612,621.539856 411.004761,624.125793 411.806763,625.919678 
	C413.035522,624.231689 414.033051,622.861389 415.066315,621.442017 
	C413.862335,621.110779 411.570679,622.428772 412.418396,619.522278 
	C414.169006,613.520264 414.308899,607.006714 418.270874,601.312866 
z"/>
<path fill="#000000" opacity="1.000000" stroke="none" 
	d="
M222.299438,415.852844 
	C230.739716,429.061798 236.780151,443.168365 245.874069,456.905365 
	C240.318909,456.527985 237.579803,453.662048 234.746689,451.507965 
	C217.876404,438.681427 201.245148,425.540436 184.373688,412.715485 
	C180.095688,409.463470 177.911148,404.849030 175.026611,400.682800 
	C167.854034,390.323242 160.852768,379.846527 153.081238,369.913239 
	C151.354813,367.706573 149.871719,365.326050 149.465637,361.585724 
	C153.757599,362.997620 157.301590,364.930420 160.654724,367.104858 
	C176.668198,377.489136 192.480362,388.191925 208.671082,398.289185 
	C212.847198,400.893585 216.062317,403.038269 216.940292,408.371613 
	C217.367981,410.969543 220.336090,413.149323 222.299438,415.852844 
z"/>
<path fill="#000000" opacity="1.000000" stroke="none" 
	d="
M514.586609,690.400208 
	C518.835999,691.965881 522.981873,692.948547 526.542908,694.964233 
	C529.781311,696.797363 532.399231,696.842468 534.836548,695.081116 
	C536.128113,696.544739 537.292053,697.863770 538.401917,699.121521 
	C536.241272,699.679749 534.856995,701.744629 534.894226,704.308838 
	C534.936829,707.239319 537.935974,707.266174 539.770813,707.647522 
	C545.319092,708.800659 549.475891,712.433228 554.209229,715.026672 
	C556.677490,716.378967 558.268555,718.356873 558.346619,721.637878 
	C553.462402,723.364258 548.923889,721.176270 545.073303,719.354675 
	C534.752380,714.472229 524.274048,710.978088 512.954895,708.832397 
	C501.861542,706.729553 490.643616,705.281677 479.590088,702.903564 
	C474.456177,701.799011 469.324554,701.395630 464.250214,699.374817 
	C458.537506,697.099854 454.822845,693.343811 451.972778,688.411316 
	C450.718170,686.239990 449.160889,684.418213 447.230743,682.927856 
	C471.038971,674.380188 492.803070,680.859192 514.586609,690.400208 
z"/>
<path fill="#000000" opacity="1.000000" stroke="none" 
	d="
M269.636414,230.544815 
	C265.328247,227.309219 262.251556,223.421417 260.247620,218.896744 
	C257.942352,213.691742 254.976303,209.079971 251.219894,204.788345 
	C247.511414,200.551498 244.908371,195.523941 243.169937,190.097427 
	C242.634918,188.427338 242.176819,186.508163 239.851318,186.403305 
	C238.339874,188.081085 241.081726,189.561798 239.862793,191.142166 
	C235.729507,190.146454 234.917480,189.810593 232.755096,183.422348 
	C230.048813,175.427216 224.897278,168.895782 220.856567,161.705093 
	C217.339874,155.446869 215.148849,148.625092 212.247299,142.107269 
	C211.807632,141.119598 211.731155,140.121445 212.660843,139.396484 
	C213.816650,138.495209 214.848587,139.082031 215.787643,139.878906 
	C219.210754,142.783707 222.658905,145.660019 226.040771,148.612198 
	C232.924850,154.621674 239.803101,160.638550 246.623962,166.719437 
	C251.687103,171.233292 253.413834,177.708939 255.984833,183.592941 
	C262.345490,198.150070 267.281921,213.257385 272.564758,228.227554 
	C273.582184,231.110565 271.745941,230.824966 269.636414,230.544815 
z"/>
<path fill="#000000" opacity="1.000000" stroke="none" 
	d="
M603.746948,615.878418 
	C596.842468,621.417236 589.384583,621.726562 581.548279,619.750610 
	C578.336975,618.940796 575.159973,617.933594 571.906128,617.370361 
	C568.457214,616.773193 566.095764,614.763855 564.520935,611.969604 
	C563.243591,609.703125 562.963745,607.104797 565.873352,605.510925 
	C577.359192,599.218994 588.220276,591.701050 601.231873,588.466492 
	C606.013672,587.277771 608.252380,590.408508 610.959839,592.880981 
	C613.566589,595.261536 613.530334,598.182007 612.687500,601.582336 
	C611.272827,607.289795 608.384888,611.864014 603.746948,615.878418 
z"/>
<path fill="#000000" opacity="1.000000" stroke="none" 
	d="
M512.841797,174.693512 
	C518.973755,171.142014 524.771851,167.731155 531.945496,163.511078 
	C520.642700,196.158020 501.867950,222.838623 483.125580,250.701218 
	C481.002350,246.928848 483.291504,245.370316 483.792419,243.522278 
	C486.000732,235.375580 488.460388,227.296585 490.864227,219.203506 
	C491.840118,215.917908 492.539703,212.526199 494.791473,209.742950 
	C498.438812,205.234756 498.578156,199.426071 499.337738,194.225128 
	C500.642761,185.289047 505.298065,179.379364 512.841797,174.693512 
z"/>
<path fill="#000000" opacity="1.000000" stroke="none" 
	d="
M560.328186,394.411438 
	C567.839111,384.006470 578.623901,378.136688 588.648926,371.442780 
	C594.252869,367.700928 600.816956,366.148163 607.404907,365.944519 
	C608.106812,367.478119 607.664062,368.209686 607.075012,368.798492 
	C600.718811,375.151581 594.865173,381.947662 589.113647,388.845947 
	C585.082458,393.680908 579.972534,396.966522 573.863647,398.706909 
	C567.012329,400.658905 560.574036,403.523071 554.845642,408.184509 
	C556.062927,403.239288 556.715942,398.413269 560.328186,394.411438 
z"/>
<path fill="#000000" opacity="1.000000" stroke="none" 
	d="
M638.648926,548.631958 
	C634.145508,554.566650 618.835632,559.277588 612.151733,557.070984 
	C611.125122,556.732117 610.408997,556.153625 609.969116,555.201416 
	C608.491577,552.003479 610.245422,543.149231 613.129150,541.175903 
	C619.984497,536.484741 637.288574,531.730042 646.050537,536.710388 
	C644.903442,541.329407 641.311340,544.494263 638.648926,548.631958 
z"/>
<path fill="#000000" opacity="1.000000" stroke="none" 
	d="
M189.858475,220.515854 
	C209.414291,224.799469 214.423721,238.487671 215.382980,251.879379 
	C205.673752,250.209503 196.801239,247.176880 190.169739,239.207153 
	C186.996094,235.393112 185.142471,231.066116 183.873138,226.522018 
	C182.495560,221.590515 184.182114,220.056686 189.858475,220.515854 
z"/>
<path fill="#000000" opacity="1.000000" stroke="none" 
	d="
M462.640747,720.312256 
	C455.927368,718.931641 449.737030,720.767334 443.575745,721.612671 
	C439.310547,722.197876 436.045624,721.286438 433.143005,718.538391 
	C431.429413,716.916016 429.363281,716.006897 427.329926,715.020813 
	C429.742340,709.070618 434.585907,707.644897 440.223114,707.656738 
	C441.466309,707.659363 442.378937,706.986084 443.411865,706.435730 
	C452.256500,701.722656 464.373016,705.207397 469.642395,713.797058 
	C470.837769,715.745667 472.481323,717.419312 474.024109,719.351685 
	C470.370972,721.858154 466.594330,720.011963 462.640747,720.312256 
z"/>
<path fill="#000000" opacity="1.000000" stroke="none" 
	d="
M423.586853,743.709106 
	C418.849731,741.059998 415.656952,737.699585 415.123047,732.433044 
	C414.885437,730.089111 413.570557,728.328857 411.892212,726.686768 
	C422.454407,722.422485 440.080719,730.093140 443.396271,740.014099 
	C444.585022,743.570984 441.948486,744.424744 439.721985,745.207458 
	C434.322815,747.105591 428.981903,746.810791 423.586853,743.709106 
z"/>
<path fill="#000000" opacity="1.000000" stroke="none" 
	d="
M168.545181,568.458801 
	C164.199554,564.344666 162.693253,560.295837 165.165527,554.543884 
	C166.448532,551.558899 167.881485,551.641296 169.942749,552.076294 
	C177.196671,553.606873 183.533325,557.303284 189.886856,560.901733 
	C191.941895,562.065735 191.831390,564.280151 190.766724,565.698730 
	C185.395172,572.855835 181.636551,576.916077 172.354279,571.387512 
	C171.090652,570.634888 169.986450,569.614746 168.545181,568.458801 
z"/>
<path fill="#000000" opacity="1.000000" stroke="none" 
	d="
M393.665649,111.178200 
	C389.933899,86.449547 392.422272,62.055702 392.151123,37.700642 
	C399.810303,66.873016 396.466736,96.524437 396.828796,126.035828 
	C394.159637,121.467941 394.325867,116.469208 393.665649,111.178200 
z"/>
<path fill="#000000" opacity="1.000000" stroke="none" 
	d="
M497.686493,137.139771 
	C493.954285,138.115845 494.341339,136.076355 495.443085,134.335541 
	C497.032471,131.824249 496.894928,129.671036 495.670624,127.041451 
	C494.451630,124.423187 498.637024,117.497391 502.398621,114.910004 
	C506.084808,112.374519 509.727509,111.954956 513.380920,114.814697 
	C516.621460,117.351295 516.484863,125.477905 512.490173,129.156647 
	C508.422668,132.902405 503.959930,136.489655 497.686493,137.139771 
z"/>
<path fill="#000000" opacity="1.000000" stroke="none" 
	d="
M300.523560,591.325073 
	C297.036438,587.536011 297.980774,584.124634 300.422058,580.948853 
	C313.641663,584.787842 317.548126,597.667542 325.893433,606.181152 
	C324.416962,608.450989 322.972626,609.194824 320.953156,608.322754 
	C320.506592,608.129822 319.905762,607.559692 319.683105,607.689636 
	C313.064148,611.551208 312.453766,605.062195 309.836029,602.029114 
	C306.824432,598.539612 303.782776,595.076111 300.523560,591.325073 
z"/>
<path fill="#000000" opacity="1.000000" stroke="none" 
	d="
M436.138977,553.138916 
	C427.809479,551.831238 422.802032,547.654968 421.884491,539.316223 
	C421.531830,536.110962 420.961090,532.797852 424.812958,531.296570 
	C428.193176,529.979065 431.899933,529.160156 434.206299,532.963318 
	C437.132263,537.788086 441.551544,542.106079 440.239624,548.662476 
	C439.782043,550.949341 439.317627,552.905823 436.138977,553.138916 
z"/>
<path fill="#000000" opacity="1.000000" stroke="none" 
	d="
M329.201447,568.111023 
	C325.309082,571.560974 323.306305,567.949341 321.323029,566.167908 
	C318.633545,563.752075 317.093475,560.449707 319.502777,556.927979 
	C323.962799,550.408569 330.779694,546.688782 337.890717,542.674866 
	C338.224701,552.075623 334.684723,560.217773 329.201447,568.111023 
z"/>
<path fill="#000000" opacity="1.000000" stroke="none" 
	d="
M408.127258,643.345154 
	C411.426819,640.217346 414.167389,642.012390 416.786316,643.777771 
	C419.265961,645.449341 421.024292,647.498718 419.585114,650.863953 
	C418.678009,652.985046 418.072540,655.233093 417.273102,657.402588 
	C415.214325,662.989319 410.483978,664.398376 406.091461,660.295837 
	C404.074249,658.411804 401.965271,657.260376 398.901001,656.485657 
	C401.158234,651.445862 404.070953,647.219604 408.127258,643.345154 
z"/>
<path fill="#000000" opacity="1.000000" stroke="none" 
	d="
M555.111084,215.578568 
	C558.124756,214.219604 560.775574,214.113083 562.739441,216.474472 
	C564.713989,218.848648 563.739075,221.344620 562.475403,223.855408 
	C559.238159,230.287674 554.932251,235.068619 546.483582,234.510284 
	C547.257751,227.538483 547.010193,220.022354 555.111084,215.578568 
z"/>
<path fill="#000000" opacity="1.000000" stroke="none" 
	d="
M121.916229,543.499084 
	C124.157867,545.501709 126.689079,545.873596 128.994843,546.773560 
	C131.385269,547.706604 132.754333,549.559753 132.668274,552.118042 
	C132.573898,554.922729 130.436523,554.988708 128.189178,555.596436 
	C121.018456,557.535400 116.208214,554.800720 113.026375,548.653870 
	C111.764557,546.216187 108.330589,545.891541 107.776932,542.081055 
	C112.537766,541.350159 117.055244,542.954834 121.916229,543.499084 
z"/>
<path fill="#000000" opacity="1.000000" stroke="none" 
	d="
M181.643402,350.592834 
	C176.959869,345.447693 172.478287,340.560730 172.816254,332.981628 
	C184.727081,336.331482 192.139648,342.895416 191.992218,349.752716 
	C188.785828,351.058594 185.637405,353.063477 181.643402,350.592834 
z"/>
<path fill="#000000" opacity="1.000000" stroke="none" 
	d="
M634.383423,580.973145 
	C635.433594,580.890503 636.201416,580.706360 636.721863,580.984802 
	C639.144775,582.280762 644.466003,580.507812 642.746887,586.311768 
	C641.314453,591.147949 635.674744,594.324768 631.638794,592.623047 
	C628.816833,591.433228 626.123352,589.938843 623.319763,588.554504 
	C625.971680,584.390564 629.226257,581.644592 634.383423,580.973145 
z"/>
<path fill="#000000" opacity="1.000000" stroke="none" 
	d="
M552.030762,445.886444 
	C549.636719,447.752228 548.202271,450.734802 544.892395,449.911194 
	C543.410278,448.652191 544.737793,446.797241 543.677979,445.679932 
	C542.192200,444.577240 540.782043,446.428375 539.172668,445.622589 
	C538.184875,442.027100 539.874634,439.736176 542.676147,437.731506 
	C545.615662,435.628143 548.820862,434.674133 551.975098,436.427246 
	C556.771606,439.093079 554.222839,442.469513 552.030762,445.886444 
z"/>
<path fill="#000000" opacity="1.000000" stroke="none" 
	d="
M396.479004,225.327606 
	C397.478241,236.905807 397.368835,248.097809 397.346802,259.286224 
	C397.342926,261.270233 396.894196,263.145721 393.997650,265.112274 
	C393.516998,248.508820 393.438202,232.787933 394.007141,216.535583 
	C396.237885,219.145660 396.237885,219.145660 396.479004,225.327606 
z"/>
<path fill="#000000" opacity="1.000000" stroke="none" 
	d="
M249.149261,255.046021 
	C245.117233,250.865158 245.116058,246.094238 245.513168,240.308792 
	C250.708389,243.731247 254.722748,247.459778 258.663452,251.253586 
	C259.531067,252.088852 259.574738,253.581802 258.834564,254.493301 
	C257.591339,256.024261 256.054749,257.304932 253.837601,257.276367 
	C252.062180,257.253510 250.675278,256.457336 249.149261,255.046021 
z"/>
<path fill="#000000" opacity="1.000000" stroke="none" 
	d="
M660.939575,572.692749 
	C664.841431,573.196594 667.457703,574.604553 666.860840,578.716980 
	C666.192932,583.318970 662.879211,584.887939 658.757507,584.937805 
	C654.531250,584.988892 654.221558,581.197815 654.028625,578.562561 
	C653.731140,574.500122 656.844788,572.999878 660.939575,572.692749 
z"/>
<path fill="#000000" opacity="1.000000" stroke="none" 
	d="
M580.604614,558.168579 
	C579.792969,555.772827 579.879333,554.138000 582.450073,553.734741 
	C585.946350,553.186157 589.791565,551.326538 592.502991,555.103760 
	C594.015015,557.210205 594.118713,560.057739 592.158020,561.959961 
	C590.278198,563.783752 587.676270,565.019104 584.937439,563.668091 
	C582.855225,562.641052 581.027710,561.150085 580.604614,558.168579 
z"/>
<path fill="#000000" opacity="1.000000" stroke="none" 
	d="
M576.659546,419.924255 
	C578.168945,416.478729 579.869995,413.694672 583.273071,412.388397 
	C585.067200,411.699707 586.853271,411.159302 588.385620,412.663940 
	C589.798645,414.051453 589.178528,415.708191 588.579468,417.317749 
	C586.512024,422.872528 582.004700,424.308319 576.783630,424.527069 
	C575.273682,423.106018 576.139648,421.694183 576.659546,419.924255 
z"/>
<path fill="#000000" opacity="1.000000" stroke="none" 
	d="
M261.082336,388.847351 
	C266.269684,391.619781 268.922211,396.240662 267.836731,400.083832 
	C266.848450,403.582977 264.701141,404.261566 262.115875,401.740875 
	C258.280731,398.001556 256.700378,393.283600 256.232819,388.137970 
	C258.159821,387.092316 259.242981,389.050964 261.082336,388.847351 
z"/>
<path fill="#000000" opacity="1.000000" stroke="none" 
	d="
M205.226318,575.658997 
	C212.353210,577.523743 217.442017,581.284058 219.696945,588.495544 
	C210.029877,589.236450 203.266891,583.208679 205.226318,575.658997 
z"/>
<path fill="#000000" opacity="1.000000" stroke="none" 
	d="
M397.363403,284.698486 
	C399.152100,292.257843 396.962708,299.333313 397.677307,306.427551 
	C393.133820,300.360199 392.129883,276.742310 396.076111,272.730011 
	C398.469482,276.451416 396.842834,280.492828 397.363403,284.698486 
z"/>
<path fill="#000000" opacity="1.000000" stroke="none" 
	d="
M413.377075,418.642517 
	C413.598236,424.924164 415.489777,431.069916 409.678040,437.426575 
	C409.678040,426.593262 409.678040,417.086639 409.678040,406.354218 
	C414.488312,410.190674 412.515015,414.619324 413.377075,418.642517 
z"/>
<path fill="#000000" opacity="1.000000" stroke="none" 
	d="
M120.078537,494.847046 
	C124.983368,493.282074 130.155930,496.206177 131.027466,500.580719 
	C131.556549,503.236328 129.875107,504.336304 127.801865,504.698730 
	C124.473320,505.280579 119.051109,498.651428 120.078537,494.847046 
z"/>
<path fill="#000000" opacity="1.000000" stroke="none" 
	d="
M240.730042,390.499878 
	C235.305252,393.742767 231.540390,392.014038 230.483582,386.371277 
	C230.057205,384.094727 231.548538,383.029175 232.860764,381.903198 
	C234.114990,380.826904 235.417770,381.541870 236.350693,382.582855 
	C238.351135,384.815033 241.763153,386.229706 240.730042,390.499878 
z"/>
<path fill="#000000" opacity="1.000000" stroke="none" 
	d="
M392.774231,169.477417 
	C393.342346,168.166290 394.774231,167.235428 394.817566,168.461258 
	C395.093872,176.273743 396.899323,184.207214 393.709045,191.851562 
	C393.634491,192.030228 393.144409,192.035461 392.170166,192.318726 
	C391.445068,184.700043 391.075623,177.291611 392.774231,169.477417 
z"/>
<path fill="#000000" opacity="1.000000" stroke="none" 
	d="
M568.481506,710.637268 
	C566.434509,709.399048 564.979370,707.868713 566.482239,706.070068 
	C568.119385,704.110901 570.865601,704.177429 572.858704,705.370728 
	C575.570618,706.994446 578.562500,708.506653 580.253113,711.906494 
	C576.271912,712.468994 572.480591,712.664917 568.481506,710.637268 
z"/>
<path fill="#000000" opacity="1.000000" stroke="none" 
	d="
M283.096252,742.644653 
	C283.021362,740.136536 284.644165,739.082031 286.185028,738.260986 
	C288.902374,736.813049 291.009399,738.538757 292.641937,740.368225 
	C293.866364,741.740356 293.460114,743.563171 291.942566,744.705872 
	C290.017548,746.155518 288.021393,748.092468 285.533783,745.544189 
	C284.734283,744.725098 283.990753,743.851440 283.096252,742.644653 
z"/>
<path fill="#000000" opacity="1.000000" stroke="none" 
	d="
M597.091187,696.193604 
	C600.469849,697.467224 602.989990,699.480835 602.555725,703.020020 
	C602.311340,705.011841 596.151489,704.777832 593.180054,702.765991 
	C592.636963,702.398315 592.084351,702.044678 591.535400,701.684143 
	C592.037964,698.626770 594.154297,697.216309 597.091187,696.193604 
z"/>
<path fill="#000000" opacity="1.000000" stroke="none" 
	d="
M181.379898,697.086243 
	C182.399338,698.178284 182.551849,699.465881 181.492783,699.783936 
	C176.371857,701.322083 171.299240,703.276184 165.660889,702.536499 
	C170.462540,699.725403 174.661179,695.433655 181.379898,697.086243 
z"/>
<path fill="#000000" opacity="1.000000" stroke="none" 
	d="
M430.918518,513.175293 
	C423.937927,514.083435 422.511810,512.650391 422.722656,504.723236 
	C424.939972,507.093719 426.545898,509.183380 430.366516,508.635254 
	C433.384949,508.202271 431.797272,511.266083 430.918518,513.175293 
z"/>
<path fill="#000000" opacity="1.000000" stroke="none" 
	d="
M493.973846,729.096741 
	C489.613770,732.022156 484.226196,729.545044 482.128845,723.907654 
	C486.703369,722.078369 490.142273,725.388550 493.993408,726.554077 
	C494.810394,726.801331 494.522247,727.993042 493.973846,729.096741 
z"/>
<path fill="#000000" opacity="1.000000" stroke="none" 
	d="
M289.385468,116.546432 
	C292.988129,115.746422 296.134094,115.649002 296.169037,120.290512 
	C296.187469,122.740349 294.719147,124.519684 292.384552,124.581833 
	C290.272552,124.638054 288.777222,123.082794 288.752533,120.737648 
	C288.738953,119.449547 288.975983,118.158798 289.385468,116.546432 
z"/>
<path fill="#000000" opacity="1.000000" stroke="none" 
	d="
M354.306091,524.244385 
	C356.263428,522.484192 356.789398,523.386292 357.071594,525.108643 
	C357.640167,528.578735 354.550842,533.037170 350.478424,534.333008 
	C348.331909,529.830505 350.233032,526.838501 354.306091,524.244385 
z"/>
<path fill="#000000" opacity="1.000000" stroke="none" 
	d="
M580.628784,268.734985 
	C581.881592,271.620087 580.927429,273.307190 578.429688,274.020142 
	C576.313416,274.624176 574.870911,273.244873 574.032959,271.591370 
	C573.340942,270.225647 572.573364,268.639893 574.559021,267.264587 
	C577.050720,265.538757 578.808044,266.262451 580.628784,268.734985 
z"/>
<path fill="#000000" opacity="1.000000" stroke="none" 
	d="
M93.929321,519.134705 
	C96.553459,516.768188 99.060257,515.937988 101.120689,519.263733 
	C102.486656,521.468628 101.385841,523.481873 99.416107,524.178162 
	C95.399307,525.597961 94.315491,522.746887 93.929321,519.134705 
z"/>
<path fill="#000000" opacity="1.000000" stroke="none" 
	d="
M118.709953,637.076294 
	C116.380295,639.823425 113.787201,639.764343 111.037178,638.298279 
	C107.885040,636.617859 109.624596,634.050903 109.873116,630.677551 
	C111.918922,634.982605 116.291016,634.073608 118.709953,637.076294 
z"/>
<path fill="#000000" opacity="1.000000" stroke="none" 
	d="
M654.952271,511.108887 
	C657.118469,507.609131 660.379395,507.547089 662.407593,510.527161 
	C663.103394,511.549408 662.689575,512.357605 662.352539,513.272583 
	C661.904968,514.487671 660.949951,514.474365 659.931641,514.323853 
	C657.914062,514.025696 656.165283,513.257019 654.952271,511.108887 
z"/>
<path fill="#000000" opacity="1.000000" stroke="none" 
	d="
M656.969727,557.374756 
	C659.387451,555.246643 661.450806,556.019836 663.737976,557.484192 
	C662.763611,560.162415 661.821472,563.003418 658.129700,561.605347 
	C656.901855,561.140381 653.564941,560.135986 656.969727,557.374756 
z"/>
<path fill="#000000" opacity="1.000000" stroke="none" 
	d="
M368.080414,284.659119 
	C368.085144,282.597290 368.140533,280.729553 370.309631,280.516632 
	C371.932495,280.357391 372.392151,281.919708 372.751648,283.183685 
	C373.212494,284.804077 372.663086,286.214691 371.186951,286.973541 
	C369.237396,287.975800 368.543579,286.616394 368.080414,284.659119 
z"/>
<path fill="#000000" opacity="1.000000" stroke="none" 
	d="
M460.745972,740.877869 
	C462.601257,741.990845 465.181610,742.028015 464.882874,744.699585 
	C464.764923,745.754333 463.700165,746.057007 462.711090,746.363770 
	C460.264923,747.122498 458.992584,745.449341 457.934204,743.915894 
	C455.730896,740.723999 458.289734,740.892944 460.745972,740.877869 
z"/>
<path fill="#000000" opacity="1.000000" stroke="none" 
	d="
M102.225311,654.119263 
	C104.768616,654.218628 106.407921,655.158630 106.814896,657.419861 
	C107.021988,658.570496 105.995239,659.115540 105.048302,659.467957 
	C103.388374,660.085754 102.101372,659.253235 101.215355,658.048035 
	C100.209946,656.680359 99.427864,655.075195 102.225311,654.119263 
z"/>
<path fill="#000000" opacity="1.000000" stroke="none" 
	d="
M660.659851,669.424500 
	C658.759521,669.999084 657.220703,670.689697 655.596252,669.683411 
	C657.231018,665.493103 659.343811,664.807922 664.767700,666.739685 
	C664.741882,669.354553 662.878418,669.376099 660.659851,669.424500 
z"/>
<path fill="#000000" opacity="1.000000" stroke="none" 
	d="
M609.005493,640.634094 
	C609.036560,638.848938 606.841248,638.837280 606.846558,637.071777 
	C609.562378,636.701782 612.264038,635.861633 614.748962,637.662842 
	C615.361816,638.107117 615.176453,639.273865 614.610657,639.921692 
	C613.092346,641.659973 611.144653,641.365784 609.005493,640.634094 
z"/>
<path fill="#000000" opacity="1.000000" stroke="none" 
	d="
M260.608398,733.502502 
	C262.636108,734.874329 263.773102,736.296570 262.530396,738.612549 
	C260.209259,738.603210 258.522614,737.475464 256.983551,735.920288 
	C257.131866,733.728699 258.395966,733.132568 260.608398,733.502502 
z"/>
<path fill="#000000" opacity="1.000000" stroke="none" 
	d="
M153.791214,414.586304 
	C151.805954,411.354980 153.196945,409.534424 155.664413,407.977814 
	C158.421768,412.292145 157.880981,414.403229 153.791214,414.586304 
z"/>
<path fill="#000000" opacity="1.000000" stroke="none" 
	d="
M591.801575,639.515320 
	C589.760254,640.034424 588.565491,639.323730 588.026123,637.733154 
	C587.644348,636.607056 588.449402,635.919067 589.405762,635.433105 
	C592.373108,633.925232 593.141602,637.338196 595.257812,637.636353 
	C594.892395,640.037781 593.209473,639.129639 591.801575,639.515320 
z"/>
<path fill="#000000" opacity="1.000000" stroke="none" 
	d="
M182.553665,647.886353 
	C183.972977,650.044128 182.367615,650.288574 181.145111,650.217529 
	C179.615784,650.128601 178.143570,649.976990 176.835266,650.794006 
	C175.727127,649.481934 175.439224,648.125488 176.311386,646.994751 
	C177.428421,645.546692 178.641724,646.781311 179.819977,647.244751 
	C180.572723,647.540833 181.418533,647.600342 182.553665,647.886353 
z"/>
<path fill="#000000" opacity="1.000000" stroke="none" 
	d="
M647.623169,638.085144 
	C646.572266,642.630798 644.065247,641.304565 640.724609,640.244690 
	C642.650391,636.870117 644.476624,635.716431 647.623169,638.085144 
z"/>
<path fill="#000000" opacity="1.000000" stroke="none" 
	d="
M673.513306,452.647217 
	C673.910828,456.299133 671.735291,456.409485 669.472046,455.877838 
	C668.090271,455.553314 667.810425,454.189697 668.669556,453.117554 
	C669.902161,451.579163 671.321045,449.859161 673.513306,452.647217 
z"/>
<path fill="#000000" opacity="1.000000" stroke="none" 
	d="
M189.755066,461.528137 
	C189.040390,459.674805 189.368668,458.550446 191.076492,458.270477 
	C192.489487,458.038910 193.614761,458.745911 194.441452,459.856537 
	C195.141464,460.796906 194.990555,461.772827 194.076492,462.431458 
	C192.559982,463.524109 191.068665,463.624878 189.755066,461.528137 
z"/>
<path fill="#000000" opacity="1.000000" stroke="none" 
	d="
M239.022446,318.147156 
	C236.573395,317.604401 235.180695,316.454193 236.540100,314.316956 
	C237.157166,313.346802 238.825821,312.509491 239.905930,313.937256 
	C240.927933,315.288269 242.416840,317.078796 239.022446,318.147156 
z"/>
</svg>