<?xml version="1.0" encoding="utf-8"?>
<!-- Generator: Adobe Illustrator 16.0.0, SVG Export Plug-In . SVG Version: 6.00 Build 0)  -->
<!DOCTYPE svg PUBLIC "-//W3C//DTD SVG 1.1//EN" "http://www.w3.org/Graphics/SVG/1.1/DTD/svg11.dtd">
<svg version="1.1" id="Layer_1" xmlns="http://www.w3.org/2000/svg" xmlns:xlink="http://www.w3.org/1999/xlink" x="0px" y="0px"
	 width="300px" height="300px" viewBox="0 0 300 300" enable-background="new 0 0 300 300" xml:space="preserve">
<g>
	<path fill-rule="evenodd" clip-rule="evenodd" d="M107.448,140.329c-8.583-9.273-18.094-16.349-30.21-19.709
		c0,1.557-0.015,2.946,0.002,4.333c0.123,9.696-0.167,19.424,2.277,28.939c2.52,9.808,6.829,18.705,13.167,26.646
		c7.678,9.622,16.938,17.439,27.092,24.28c0.37,0.249,0.676,0.594,1.007,0.899c0.316,0.292,0.626,0.591,1.183,0.71
		c-1.688-3.785-3.585-7.495-5.007-11.379c-1.453-3.967-2.655-8.056-3.569-12.18c-0.957-4.313-1.638-8.713-2.068-13.112
		c-0.375-3.834-0.347-7.721-0.295-11.581c0.099-7.336,1.794-14.432,3.672-21.466c1.258-4.714,2.747-9.349,5.199-13.656
		c1.675-2.943,2.786-6.201,4.282-9.253c3.907-7.97,8.969-15.197,14.495-22.107c2.417-3.022,4.939-5.96,7.456-8.901
		c2.147-2.509,4.817-2.35,6.828,0.15c4.931,6.133,10.121,12.066,14.863,18.34c2.655,3.512,4.741,7.479,6.865,11.359
		c1.725,3.152,3.234,6.436,4.646,9.744c4.083,9.566,7.01,19.485,8.377,29.807c0.718,5.424,1.609,10.912,1.436,16.34
		c-0.15,4.744-1.59,9.465-2.642,14.155c-0.558,2.484-1.392,4.924-2.295,7.311c-2.044,5.394-4.208,10.742-6.065,15.452
		c1.34-0.945,3.404-2.347,5.411-3.827c10.337-7.626,19.75-16.263,27.55-26.482c4.666-6.113,7.434-13.244,8.979-20.77
		c1.138-5.541,2.243-11.114,2.864-16.729c0.616-5.581,0.608-11.23,0.892-17.196c-1.652,0.364-3.076,0.423-4.255,0.99
		c-2.69,1.292-5.424,2.605-7.845,4.325c-4.144,2.943-8.076,6.187-12.069,9.34c-2.201,1.737-4.347,3.546-6.903,5.64
		c-0.426-1.5-0.883-2.441-0.932-3.403c-0.183-3.58-1.655-6.692-3.204-9.82c-1.563-3.156-1.262-4.275,1.328-6.724
		c8.192-7.748,17.067-14.643,27.145-19.692c8.17-4.093,16.767-7.381,25.996-8.224c4.208-0.384,4.372,0.903,3.724,4.13
		c-0.685,3.405-1.337,6.829-1.734,10.276c-0.253,2.194,0.034,4.446-0.013,6.67c-0.054,2.56-0.238,5.116-0.312,7.675
		c-0.15,5.186,0.286,10.458-0.513,15.538c-1.404,8.926-2.644,17.97-6.103,26.422c-3.847,9.401-8.649,18.285-15.412,25.975
		c-9.566,10.877-21.196,18.922-34.195,25.177c-6.626,3.188-13.263,6.281-20.339,8.339c-9.148,2.66-18.427,4.004-27.884,2.088
		c-8.299-1.682-16.302-4.416-23.898-8.14c-6.405-3.139-12.795-6.39-18.854-10.137c-6.395-3.955-11.914-9.104-17.319-14.357
		c-6.828-6.634-11.365-14.796-15.764-23.038c-2.021-3.786-3.524-7.856-5.133-11.85c-0.415-1.031-0.283-2.271-0.504-3.395
		c-0.633-3.211-1.523-6.384-1.942-9.619c-0.848-6.551-1.604-13.121-2.115-19.705c-0.537-6.914-0.721-13.855-1.104-20.782
		c-0.189-3.41-0.528-6.812-0.708-10.223c-0.09-1.724,1.187-1.892,2.4-1.568c4.146,1.108,8.356,2.073,12.372,3.551
		c10.819,3.983,21.311,8.641,31.178,14.737c4.806,2.969,8.541,7.005,12.709,10.618c0.289,0.25,0.3,1.037,0.18,1.507
		c-0.609,2.397-1.368,4.758-1.95,7.161c-0.542,2.232-0.899,4.509-1.393,6.754C108.23,137.785,107.867,138.857,107.448,140.329z
		 M149.414,131.148c-0.57,0.644-0.889,0.965-1.163,1.32c-5.027,6.521-9.012,13.613-11.656,21.429
		c-0.614,1.815-1.364,3.612-1.724,5.48c-1.016,5.275-2.429,10.505-1.834,15.989c0.44,4.059,0.222,8.234,1.062,12.195
		c1.625,7.668,5.863,14.233,9.955,20.784c1.075,1.72,2.605,3.206,4.122,4.586c1.521,1.384,3.059,1.096,4.332-0.479
		c0.767-0.949,1.59-1.857,2.309-2.842c4.004-5.474,7.256-11.315,9.578-17.741c3.881-10.736,3.805-21.427,0.45-32.206
		c-0.821-2.64-1.673-5.272-2.64-7.86c-0.628-1.679-1.379-3.334-2.27-4.888c-1.633-2.85-3.33-5.67-5.149-8.403
		C153.151,136.059,151.316,133.739,149.414,131.148z"/>
	<path fill-rule="evenodd" clip-rule="evenodd" d="M150.76,289.854c-3.11,1.389-4.12-1.244-5.685-2.752
		c-2.071-1.996-4.053-4.085-6.118-6.088c-2.206-2.139-4.474-4.212-6.695-6.334c-1.621-1.548-3.341-3.019-4.789-4.719
		c-3.521-4.131-5.97-8.85-6.774-14.262c-0.523-3.518,1.226-6.593,2.46-9.718c2.004-5.075,5.625-8.989,9.328-12.872
		c1.332-1.396,2.712-1.893,4.451-1.549c7.404,1.462,14.886,0.97,22.348,0.938c1.96-0.009,3.919-0.278,5.881-0.351
		c0.396-0.015,0.883,0.228,1.198,0.5c4.713,4.081,8.778,8.686,11.661,14.276c2.729,5.292,2.251,10.352-0.289,15.646
		c-3.348,6.979-8.969,11.813-14.531,16.804c-3.357,3.013-6.487,6.277-9.773,9.37c-0.729,0.687-1.685,1.131-2.536,1.687
		C150.851,290.238,150.806,290.046,150.76,289.854z"/>
	<path fill-rule="evenodd" clip-rule="evenodd" d="M185.643,224.623c3.823-2.071,7.662-4.113,11.466-6.22
		c9.864-5.463,19.062-11.832,26.798-20.12c1.44-1.544,2.387-3.603,3.963-4.956c3.715-3.189,6.424-7.138,8.901-11.232
		c1.421-2.35,2.247-5.059,3.343-7.606c0.103-0.236,0.161-0.525,0.334-0.692c3.457-3.33,4.268-7.975,5.992-12.152
		c0.508-1.23,0.649-2.622,0.885-3.953c0.343-1.93,1.659-3.478,3.516-3.843c11.114-2.181,22.241-2.363,33.351-0.017
		c0.903,0.19,2.15,0.873,2.365,1.589c0.202,0.669-0.614,1.81-1.229,2.532c-3.578,4.199-7.082,8.426-9.927,13.197
		c-2.831,4.749-5.845,9.401-8.988,13.95c-3.508,5.077-7.2,10.029-10.904,14.968c-7.14,9.518-16.88,15.358-27.729,19.747
		c-4.546,1.839-9.148,3.415-13.964,4.038c-5.6,0.725-11.264,1.015-16.91,1.301c-3.697,0.188-7.412,0.036-11.119,0.036
		C185.738,225,185.69,224.812,185.643,224.623z"/>
	<path fill-rule="evenodd" clip-rule="evenodd" d="M114.783,224.488c-6.037,0-12.088-0.254-18.107,0.075
		c-5.385,0.295-10.502-1.052-15.647-1.993c-5.961-1.09-11.539-3.634-16.761-6.768c-8.233-4.94-15.662-10.82-21.79-18.323
		c-3.138-3.842-6.179-7.666-8.589-12.044c-2.185-3.969-4.847-7.684-7.433-11.419c-3.032-4.38-6.202-8.665-9.327-12.98
		c-1.271-1.755-2.725-3.396-3.828-5.249c-0.979-1.644,0.716-2.002,1.688-2.263c2.042-0.55,4.142-1.015,6.245-1.187
		c6.526-0.534,13.072-0.929,19.57,0.295c2.668,0.503,5.309,1.165,7.945,1.821c2.067,0.515,3.317,1.713,4.059,3.887
		c2.01,5.898,4.112,11.766,7.498,17.101c2.161,3.406,3.671,7.232,5.894,10.592c2.01,3.038,4.384,5.907,6.972,8.473
		c3.491,3.46,7.218,6.685,10.611,10.261c1.458,1.537,3.034,3.022,4.765,4.232c7.283,5.089,14.778,9.843,22.836,13.637
		c1.108,0.521,2.348,0.761,3.527,1.131C114.869,224.007,114.826,224.248,114.783,224.488z"/>
	<path fill-rule="evenodd" clip-rule="evenodd" d="M125.869,230.248c-0.388,0.704-0.65,1.527-1.184,2.094
		c-4.258,4.525-7.128,9.896-9.348,15.608c-1.675,4.31-4.783,6.746-8.988,8.261c-6.867,2.474-13.835,4.508-21.12,5.186
		c-5.789,0.538-11.547,0.146-17.337-0.548c-6.316-0.756-12.679-1.77-19.088-0.773c-3.815,0.593-7.619,1.28-11.449,1.755
		c-0.973,0.12-2.318-0.122-2.937-0.747c-0.398-0.402,0.202-1.811,0.381-2.763c0.566-3.012,1.817-5.721,3.646-8.171
		c4.432-5.934,8.688-12.005,14.732-16.525c1.942-1.451,3.548-3.344,5.406-4.919c1.542-1.307,3.115-2.668,4.897-3.561
		c0.887-0.444,2.324-0.067,3.427,0.241c5.868,1.641,11.664,3.559,17.576,5.009c3.289,0.807,6.746,1.065,10.145,1.261
		c9.196,0.529,18.385,0.468,27.504-1.095c1.065-0.183,2.109-0.489,3.164-0.738C125.489,229.964,125.679,230.105,125.869,230.248z"/>
	<path fill-rule="evenodd" clip-rule="evenodd" d="M174.92,230.25c4.007,0.458,7.486,1.007,10.987,1.221
		c5.471,0.335,10.979,0.861,16.426,0.535c6.021-0.361,12.046-1.321,17.965-2.529c4.756-0.97,9.354-2.709,14.03-4.085
		c1.544-0.455,2.741-0.516,4.317,0.749c7.881,6.329,15.123,13.258,21.021,21.474c2.167,3.019,3.847,6.397,5.635,9.674
		c1.383,2.531,0.057,4.752-2.91,4.714c-1.968-0.025-3.938-0.499-5.893-0.849c-7.941-1.422-15.907-1.303-23.895-0.49
		c-4.772,0.485-9.555,1.246-14.33,1.221c-3.866-0.02-7.797-0.742-11.575-1.662c-5.882-1.432-11.714-3.192-16.898-6.463
		c-1.115-0.703-2.166-1.89-2.685-3.096c-2.785-6.484-6.223-12.56-10.638-18.074C175.992,231.98,175.608,231.29,174.92,230.25z"/>
	<path fill-rule="evenodd" clip-rule="evenodd" d="M150.797,53.604c11.727,0.366,22.461,3.767,32.388,9.847
		c0.687,0.42,1.221,1.102,1.792,1.694c0.579,0.601,1.006,1.43,1.69,1.835c5.037,2.977,7.882,7.952,11.328,12.363
		c0.805,1.03,1.392,2.401,1.572,3.686c0.107,0.765-0.566,2.091-1.251,2.427c-1.646,0.808-3.489,1.043-4.997-0.539
		c-2.346-2.46-4.643-4.968-7.04-7.376c-4.084-4.1-8.771-7.361-14.045-9.757c-6.113-2.778-12.562-4.27-19.232-4.687
		c-8.796-0.549-17.218,1.139-25.077,5.101c-3.591,1.811-7.116,3.907-10.274,6.38c-2.802,2.195-5.003,5.145-7.574,7.654
		c-1.262,1.231-2.624,2.58-4.204,3.187c-0.979,0.375-2.663-0.254-3.647-0.964c-0.981-0.707-1.578-2.036-0.663-3.423
		c1.22-1.852,2.197-3.899,3.621-5.573c2.33-2.739,4.945-5.235,7.422-7.85c3.217-3.396,7.648-4.834,11.501-7.205
		c5.916-3.641,12.477-5.036,19.234-5.849C145.829,54.255,148.312,53.921,150.797,53.604z"/>
	<path fill-rule="evenodd" clip-rule="evenodd" d="M174.189,42.938c1.135-3.67,2.002-7.452,3.476-10.981
		c1.721-4.122,3.85-8.091,6.042-11.992c1.098-1.951,3.415-2.557,5.188-1.902c2.227,0.822,3.435,2.695,2.543,4.879
		c-1.913,4.682-4.062,9.274-6.272,13.826c-0.998,2.057-2.293,3.988-3.607,5.868c-0.991,1.42-2.142,2.757-3.385,3.963
		c-0.811,0.786-3.304-1.04-3.647-2.616c-0.068-0.312-0.058-0.641-0.084-0.962C174.357,42.994,174.273,42.966,174.189,42.938z"/>
	<path fill-rule="evenodd" clip-rule="evenodd" d="M114.763,17.344c1.046,0.752,2.6,1.338,3.262,2.453
		c1.628,2.742,3.11,5.634,4.164,8.637c1.358,3.874,2.265,7.908,3.31,11.889c0.225,0.854,0.319,1.778,0.28,2.662
		c-0.088,1.979-1.569,3.142-3.157,3.412c-0.899,0.153-2.427-0.921-3.007-1.855c-1.45-2.333-2.579-4.876-3.73-7.384
		c-1.825-3.975-3.666-7.948-5.306-12c-1.297-3.205-0.594-5.511,1.8-6.919C112.964,17.894,113.667,17.747,114.763,17.344z"/>
	<path fill-rule="evenodd" clip-rule="evenodd" d="M81.423,36.954c1.033,0.508,2.541,0.857,3.488,1.781
		c5.209,5.083,10.363,10.229,15.334,15.543c1.042,1.113,2.696,2.599,1.168,4.732c-1.416,1.977-4.808,2.407-6.428-0.173
		c-0.234-0.372-0.575-0.689-0.912-0.979c-4.877-4.194-9.846-8.286-14.595-12.619c-1.508-1.376-3.322-3.005-2.165-5.666
		C78.071,37.835,79.466,37.313,81.423,36.954z"/>
	<path fill-rule="evenodd" clip-rule="evenodd" d="M201.665,61.095c-0.979-0.564-2.56-0.942-2.86-1.78
		c-0.383-1.065-0.173-2.897,0.552-3.713c3.756-4.228,7.719-8.274,11.691-12.303c1.534-1.556,3.168-3.07,4.974-4.277
		c1.212-0.81,2.776-1.297,4.238-1.472c1.477-0.176,2.479,1.178,2.325,2.664c-0.262,2.528-0.813,4.934-2.851,6.727
		c-1.305,1.147-2.521,2.397-3.841,3.525c-3.75,3.205-7.505,6.407-11.332,9.518C203.876,60.541,202.836,60.664,201.665,61.095z"/>
	<path fill-rule="evenodd" clip-rule="evenodd" d="M145.52,24.327c0.381-2.625,0.744-5.876,1.36-9.078
		c0.316-1.644,1.082-3.078,3.122-3.461c1.901-0.358,2.784,0.544,3.17,2.097c0.475,1.909,0.899,3.858,1.059,5.813
		c0.523,6.403,0.386,12.769-1.76,18.931c-0.211,0.605-0.44,1.228-0.794,1.754c-1.005,1.495-2.967,1.545-3.785-0.052
		c-0.685-1.335-1.133-2.874-1.316-4.367C146.129,32.322,145.897,28.654,145.52,24.327z"/>
</g>
</svg>
