<?xml version="1.0" encoding="utf-8"?>
<!-- Generator: Adobe Illustrator 16.0.0, SVG Export Plug-In . SVG Version: 6.00 Build 0)  -->
<!DOCTYPE svg PUBLIC "-//W3C//DTD SVG 1.1//EN" "http://www.w3.org/Graphics/SVG/1.1/DTD/svg11.dtd">
<svg version="1.1" id="Layer_1" xmlns="http://www.w3.org/2000/svg" xmlns:xlink="http://www.w3.org/1999/xlink" x="0px" y="0px"
	 width="300px" height="300px" viewBox="0 0 300 300" enable-background="new 0 0 300 300" xml:space="preserve">
<g transform="translate(0,0)">
	<path d="M252.522,15.85l15.838,15.844l15.838,15.85l-11.279,10.195l-30.65-30.604L252.522,15.85z M224.942,26.285
		c5.215,0.059,9.844,3.973,11.602,5.637l31.588,31.594c2.549,2.637,10.313,12.07,1.646,19.98
		c-7.986,6.973-15.387,0.703-17.701-1.582c-0.451-0.41-0.68-0.762-0.68-0.762s-44.033,36.855-60.908,60.059
		c-4.277,7.734-7.383,15.059-7.383,24.258c5.098,47.93,19.102,60.645,14.238,65.039c-43.184,43.242-95.273,53.613-95.273,53.613
		l-43.066-43.066L15.821,197.93c0,0,10.547-51.973,53.73-95.273c4.453-4.746,17.168,9.258,65.039,14.297
		c9.258,0,16.582-3.047,24.258-7.383c18.047-13.184,44.355-42.773,55.195-55.107l8.672,8.584
		c-7.734,8.73-29.414,32.227-50.801,50.742c4.336-1.113,10.488,2.578,10.488,2.578c8.086-6.387,39.551-37.266,47.461-46.348
		l5.391,5.566l5.215-5.215l-21.621-21.715c0,0-0.176-0.217-0.703-0.668c-2.227-2.32-8.496-9.721-1.699-17.707
		C219.199,27.299,222.129,26.262,224.942,26.285z M73.418,111.504H73.36c-12.246,13.125-22.5,27.246-30.586,42.129
		C35.449,167.344,30,181.758,26.602,196.406l76.992,77.109h0.117c14.531-3.457,28.945-8.848,42.715-16.348
		c15-7.969,29.063-18.164,42.188-30.41v-0.176c-9.434-22.559-17.988-52.617-13.77-69.668l0.117-0.234l-0.176,0.059
		c-8.027,3.105-21.035-9.961-21.27-10.195c-0.176-0.176-13.301-13.184-10.254-21.152l0.117-0.234l-0.234,0.059
		C126.211,129.375,96.094,120.879,73.418,111.504L73.418,111.504z M152.989,122.168c-1.172,0-2.109,0.293-2.813,0.996
		c-3.223,3.223,1.934,11.836,8.438,18.34c6.445,6.445,15,11.602,18.223,8.379c3.281-3.164-1.816-11.895-8.379-18.281
		C163.418,126.504,157.09,122.285,152.989,122.168z M103.184,136.23c4.629,0,9.492,0.762,14.59,2.637
		c18.984,8.262,4.863,29.063-12.656,31.758c-15.996,2.578-40.84-3.516-34.277-17.578C74.063,146.133,86.719,136.172,103.184,136.23z
		 M149.531,173.262c4.57-0.059,8.906,2.578,11.777,9.082c8.438,23.145-5.449,42.773-14.297,46.816
		c-14.063,6.621-20.156-18.223-17.578-34.219C131.192,183.457,140.801,173.438,149.531,173.262z M59.707,177.012
		c8.672,0.117,22.559,4.277,40.723,22.5c32.461,32.285,20.449,51.27,20.449,51.27c-6.621,14.648-22.969,17.402-33.457-10.02
		c-3.047-7.969-3.867-12.305-9.902-18.281c-5.918-5.918-10.313-6.797-18.223-9.785c-27.422-10.547-24.668-26.953-9.961-33.457
		C49.336,179.238,52.91,176.895,59.707,177.012z M105.703,178.77c2.227,0,4.102,0.645,5.156,2.461
		c2.93,6.211-7.91,6.914-17.52,5.215C89.531,185.508,99.024,178.945,105.703,178.77z M116.836,188.73
		c0.586-0.059,1.289,0.117,2.051,0.469c7.266,4.102-3.984,22.559-5.273,17.52C112.207,198.34,112.559,188.965,116.836,188.73z"/>
</g>
</svg>
