<?xml version="1.0" encoding="utf-8"?>
<!-- Generator: Adobe Illustrator 16.0.0, SVG Export Plug-In . SVG Version: 6.00 Build 0)  -->
<!DOCTYPE svg PUBLIC "-//W3C//DTD SVG 1.1//EN" "http://www.w3.org/Graphics/SVG/1.1/DTD/svg11.dtd">
<svg version="1.1" id="Layer_1" xmlns="http://www.w3.org/2000/svg" xmlns:xlink="http://www.w3.org/1999/xlink" x="0px" y="0px"
	 width="300px" height="300px" viewBox="0 0 300 300" enable-background="new 0 0 300 300" xml:space="preserve">
<g>
	<path fill-rule="evenodd" clip-rule="evenodd" d="M219.635,237.193c1.56,4.153,1.82,8.203,1.346,12.349
		c-0.212,1.855,0.138,3.798-0.226,5.609c-1.838,9.185-8.138,15.646-17.674,17.295c-5.318,0.919-10.464,0.841-15.585-0.897
		c-0.352-0.119-1.086,0.123-1.285,0.429c-3.835,5.899-9.777,8.708-15.998,11.243c-6.709,2.734-13.589,3.181-20.541,1.671
		c-9.765-2.121-17.792-7.09-23.496-15.478c-1.095-1.61-2.167-3.236-3.389-5.062c-15.531,6.137-30.698,4.66-43.449-6.646
		c-12.776-11.328-15.815-26.084-10.658-42.663c-1.026-0.081-1.998-0.246-2.964-0.218c-5.551,0.163-10.645-1.435-15.728-3.531
		c-6.622-2.732-11.116-7.56-14.369-13.652c-2.537-4.75-3.024-10.017-2.981-15.331c0.036-4.487,0.801-8.796,3.276-12.737
		c-2.256-0.923-4.395-1.657-6.408-2.646c-8.399-4.125-13.489-10.589-13.502-20.242c-0.005-3.538,0.241-7.179,1.093-10.593
		c1.652-6.617,6.298-10.859,12.167-14.052c3.758-2.043,7.157-2.194,9.847-1.258c8.644-21.216,24.944-30.23,47.238-29.721
		c-2.345-10.293-0.081-19.111,7.225-26.67c7.266-7.518,16.177-9.587,25.866-8.461c0.453-2.989,0.769-5.93,1.366-8.812
		c0.849-4.097,2.674-7.839,5.282-11.063c5.128-6.34,11.253-11.554,18.697-15.021c4.904-2.285,10.173-3.307,15.492-4.194
		c7.047-1.176,13.983-0.264,20.756,1.328c3.992,0.938,7.727,3.093,11.48,4.9c4.594,2.21,8.069,5.882,11.458,9.55
		c4.665,5.049,8.169,10.934,10.476,17.357c2.563,7.137,2.695,14.618,1.663,22.109c-0.065,0.473-0.16,0.944-0.19,1.419
		c-0.033,0.531-0.008,1.065-0.008,1.71c12.173-0.132,22.18,4.064,28.214,15.078c5.759,10.513,6.556,21.424,1.016,32.543
		c0.692,0.292,1.315,0.677,1.99,0.823c6.123,1.325,10.824,4.986,15.429,8.98c4.425,3.838,6.901,8.774,8.836,14.082
		c0.625,1.716,0.823,3.585,1.3,5.361c0.141,0.525,0.45,1.153,0.878,1.429c3.865,2.488,7.33,5.484,9.486,9.522
		c1.752,3.278,3.114,6.86,4.038,10.465c1.456,5.678,1.328,11.423-0.218,17.177c-1.474,5.487-4.566,9.666-8.744,13.407
		c-5.602,5.019-12.089,7.845-19.409,8.818c-2.82,0.376-5.729,0.178-8.593,0.104c-1.052-0.027-1.48,0.297-1.735,1.271
		c-0.943,3.609-2.079,7.217-4.77,9.905c-2.646,2.644-5.505,5.114-8.485,7.377C230.684,234.943,225.644,237.03,219.635,237.193z
		 M127.464,245.783c0.36-0.09,0.721-0.18,1.082-0.271c-0.48,9.515,1.509,18.033,8.935,24.451c7.305,6.313,15.666,9.028,25.252,7.49
		c9.671-1.552,16.593-6.832,20.569-15.892c6.164,5.969,20.395,5.433,24.948,0.972c6.438-6.308,6.856-18.023,3.945-23.138
		c-0.822,0.41-1.64,0.818-2.507,1.251c0.424,3.209-0.885,5.876-2.806,8.474c-3.567,4.821-11.164,5.811-15.001,3.426
		c-1.956-1.215-4.012-2.613-5.336-4.43c-2.485-3.411-4.429-7.214-6.698-10.789c-0.579-0.912-1.422-1.775-2.344-2.327
		c-2.203-1.315-4.512-2.459-6.802-3.625c-6.805-3.463-13.617-6.911-20.442-10.333c-0.35-0.175-0.926-0.198-1.27-0.032
		c-1.394,0.678-2.751,1.435-4.098,2.205c-6.477,3.706-12.965,7.395-19.396,11.179c-0.918,0.541-1.684,1.483-2.277,2.397
		c-0.84,1.294-1.379,2.78-2.18,4.103c-2.405,3.97-4.562,8.091-8.715,10.716c-6.81,4.304-13.664,1.924-17.726-4.091
		c-1.646-2.438-1.3-5.111-0.976-7.644c-1.447-1.069-2.775-2.063-4.117-3.038c-4.675-3.396-6.068-8.009-4.59-13.409
		c1.216-4.441,3.761-7.648,8.663-8.815c3.842-0.913,7.582-0.401,11.382-0.348c2.04,0.028,4.275,0.154,6.084-0.588
		c3.068-1.259,5.858-3.189,8.786-4.799c1.636-0.899,3.315-1.721,5.22-2.703c-0.683-0.379-1.033-0.584-1.393-0.771
		c-6.969-3.631-13.923-7.289-20.93-10.846c-0.779-0.396-1.9-0.426-2.786-0.247c-2.686,0.543-5.302,1.587-8.003,1.862
		c-5.308,0.539-10.177-0.311-13.672-5.118c-4.713-6.482-2.32-17.321,4.583-20.042c-0.283-4.369,0.454-6.834,2.642-10.13
		c4.254-6.41,13.09-7.089,18.226-2.551c3.365,2.974,5.518,6.858,7.312,10.961c0.525,1.199,1.32,2.603,2.389,3.193
		c11.559,6.396,23.204,12.638,34.807,18.955c1.464,0.798,2.791,0.794,4.24,0.005c6.552-3.563,13.119-7.098,19.689-10.628
		c4.782-2.569,9.51-5.257,14.408-7.586c1.519-0.722,2.447-1.592,3.254-2.949c1.857-3.128,3.661-6.313,5.808-9.238
		c3.655-4.984,7.644-6.818,14.421-4.91c3.491,0.982,7.587,6.13,7.754,10.568c0.092,2.455,0.144,4.485,2.944,5.222
		c0.157,0.042,0.284,0.215,0.417,0.335c2.885,2.618,4.187,6.032,4.706,9.761c1.031,7.406-6.186,12.784-11.973,13.766
		c-4.628,0.785-8.9-0.401-13.169-1.8c-1.186-0.39-2.165-0.288-3.204,0.304c-3.221,1.835-6.451,3.652-9.688,5.458
		c-3.772,2.105-7.556,4.19-11.396,6.318c0.207,0.191,0.314,0.342,0.46,0.419c4.763,2.496,9.524,4.992,14.299,7.465
		c0.407,0.212,0.909,0.408,1.347,0.37c2.718-0.239,5.426-0.583,8.145-0.822c3.479-0.307,7.039-0.476,10.181,1.258
		c2.927,1.614,5.55,3.756,6.2,7.367c0.472,2.619,0.805,5.264,1.215,8.001c-0.074-0.012,0.108,0.067,0.268,0.033
		c6.986-1.514,12.94-4.867,17.64-10.259c2.286-2.623,4.235-5.53,4.473-9.186c0.256-3.927-0.033-7.765-2.012-11.314
		c-0.202-0.362-0.002-0.949,0.012-1.432c0.456,0.177,1.028,0.238,1.346,0.555c0.665,0.665,1.113,1.554,1.8,2.189
		c1.229,1.138,2.413,2.506,3.89,3.157c3.962,1.745,8.149,1.831,12.458,1.341c7.539-0.857,13.513-4.472,17.921-10.352
		c4.464-5.953,5.395-12.824,3.595-20.093c-1.724-6.965-5.078-12.492-12.372-14.672c-1.663-0.497-2.929-0.928-1.944-3.007
		c0.091-0.193,0.003-0.474-0.011-0.713c-0.431-7.67-3.876-14.076-9.018-19.431c-6.713-6.992-15.396-8.966-24.816-8.439
		c-1.535,0.086-3.096,0.038-4.618-0.159c-0.495-0.064-1.091-0.734-1.271-1.255c-0.091-0.264,0.6-0.863,1.019-1.212
		c0.256-0.213,0.682-0.207,1.009-0.351c2.485-1.094,5.269-1.514,7.312-3.595c2.948-3.002,4.43-6.629,5.214-10.692
		c1.187-6.144,0.472-12.055-2.828-17.296c-3.092-4.911-7.56-8.259-13.437-9.685c-6.438-1.562-12.186-0.632-17.341,3.589
		c-1.016,0.831-2.008,1.697-3.068,2.466c-0.93,0.675-1.858,0.724-2.511-0.339c1.114-1.461,2.402-2.793,3.274-4.357
		c3.36-6.03,4.596-12.598,4.737-19.449c0.215-10.383-2.729-19.515-10.26-26.933c-4.229-4.165-8.596-8.19-14.119-10.555
		c-2.99-1.28-6.173-2.133-9.308-3.043c-5.799-1.683-11.776-1.796-17.526-0.352c-7.471,1.875-14.393,5.385-20.278,10.347
		c-5.729,4.83-9.343,11.175-10.892,18.651c-1.003,4.844-1.35,9.472,1.873,13.693c0.226,0.296,0.176,0.803,0.356,1.743
		c-0.946-0.616-1.578-0.819-1.873-1.253c-1.963-2.881-4.88-3.851-8.128-4.237c-11.096-1.317-16.887,1.634-22.302,9.811
		c-1.914,2.889-2.876,6.571-3.596,10.031c-0.502,2.41,0.11,5.063,0.294,7.603c0.239,3.307,1.889,5.856,4.326,8.017
		c1.086,0.964,2.031,2.102,2.935,3.245c0.22,0.279,0.194,1.144-0.021,1.287c-0.363,0.242-1.014,0.27-1.458,0.126
		c-1.021-0.333-2.031-0.746-2.972-1.262c-4.31-2.367-8.893-4.001-13.816-3.663c-4.079,0.28-8.137,1.126-12.156,1.954
		c-5.015,1.033-8.905,4.242-12.75,7.327c-5.178,4.154-8.686,9.523-10.243,16.03c-0.263,1.099-0.153,2.375,0.117,3.489
		c0.319,1.316-0.212,1.604-1.235,1.33c-1.438-0.385-2.84-0.915-4.233-1.445c-2.851-1.085-5.71-1.515-8.422,0.247
		c-7.901,5.135-11.165,13.16-8.348,21.989c1.574,4.934,4.9,8.244,9.641,10.23c4.174,1.749,8.185,1.812,12.203-0.594
		c0.572-0.343,2.013,0.28,2.723,0.858c0.354,0.288,0.14,1.56-0.14,2.255c-0.248,0.616-0.913,1.086-1.447,1.561
		c-3.633,3.227-6.147,7.073-7.147,11.921c-1.169,5.662-0.562,11.157,1.858,16.279c2.916,6.173,7.666,10.57,14.251,12.864
		c5.656,1.97,11.316,2.907,17.144,0.807c1.347-0.486,2.733-0.886,4.029-1.481c1.399-0.641,2.408-0.35,3.307,1.056
		c-0.331,0.465-0.717,0.976-1.07,1.507c-1.097,1.656-2.27,3.271-3.243,4.998c-0.726,1.287-1.32,2.685-1.734,4.103
		c-0.634,2.167-1.466,4.391-1.484,6.596c-0.028,3.401,0.414,6.83,0.924,10.207c0.676,4.482,2.431,8.608,4.957,12.364
		c4.421,6.573,10.749,10.631,18.096,13.148c2.278,0.781,4.756,1.241,7.164,1.34c7.52,0.306,14.125-2.451,20.172-6.681
		c0.881-0.616,1.768-1.311,1.619-2.876C126.632,249.168,127.208,247.46,127.464,245.783z M102.768,234.688
		c-0.247,2.305-0.541,4.396-0.675,6.496c-0.13,2.048,1.21,3.227,2.902,3.882c1.58,0.612,2.565-0.675,3.47-1.657
		c2.936-3.185,5.455-6.655,7.114-10.705c0.303-0.739,0.774-1.576,1.412-1.983c3.421-2.184,6.881-4.314,10.401-6.337
		c6.477-3.721,12.961-7.432,19.519-11.008c11.843-6.458,23.73-12.834,35.622-19.202c4.639-2.483,9.373-4.787,13.994-7.299
		c2.352-1.278,4.52-1.319,7.019-0.349c2.252,0.874,4.702,1.299,7.101,1.715c2.87,0.499,6.15-1.705,6.639-4.263
		c0.382-1.998-2.9-6.281-5.035-6.908c-1.087-0.319-2.21-1.008-2.941-1.854c-0.401-0.464,0.038-1.606-0.009-2.438
		c-0.106-1.879-0.083-3.797-0.476-5.621c-0.454-2.111-2.772-2.879-4.695-1.927c-2.358,1.169-3.898,3.077-5.223,5.251
		c-2.132,3.498-4.007,7.168-7.903,9.228c-4.066,2.148-7.967,4.609-12.012,6.801c-5.879,3.186-11.843,6.212-17.733,9.377
		c-9.52,5.115-19.004,10.293-28.51,15.434c-5.877,3.179-11.786,6.301-17.641,9.521c-2.859,1.572-5.497,3.012-9.101,1.827
		c-2.529-0.832-5.438-0.579-8.182-0.664c-2.401-0.073-4.328,1.654-4.726,3.998c-0.463,2.73,0.131,4.097,2.666,5.405
		C98.161,232.645,100.649,233.704,102.768,234.688z M142.749,197.214c-9.822-5.096-19.425-10.038-28.988-15.057
		c-4.347-2.28-8.655-4.644-10.516-9.686c-0.451-1.222-1.03-2.493-1.878-3.451c-1.399-1.58-2.869-3.277-4.669-4.279
		c-2.429-1.353-4.49-0.058-4.58,2.719c-0.071,2.173,0.445,4.359,0.548,6.546c0.028,0.604-0.318,1.475-0.788,1.805
		c-1.391,0.98-2.988,1.668-4.389,2.638c-0.946,0.654-1.995,1.457-2.443,2.445c-0.395,0.87-0.142,2.11,0.04,3.15
		c0.284,1.63,3.615,4.078,5.335,3.825c3.416-0.503,6.8-1.211,10.21-1.757c0.784-0.126,1.74-0.185,2.411,0.146
		c4.289,2.111,8.508,4.363,12.773,6.522c5.592,2.832,11.188,5.659,16.835,8.378c0.695,0.334,1.837,0.243,2.57-0.093
		C137.706,199.926,140.102,198.588,142.749,197.214z M159.606,215.745c0.603,0.412,1.007,0.738,1.453,0.987
		c6.676,3.729,13.334,7.494,20.049,11.153c3.751,2.043,6.848,4.529,8.602,8.653c1.082,2.541,2.753,4.894,4.477,7.081
		c1.7,2.157,5.086,1.637,5.932-0.931c0.609-1.85,0.766-3.976,0.579-5.926c-0.238-2.488-0.296-2.81,2.026-3.692
		c0.726-0.276,1.465-0.518,2.191-0.792c1.911-0.722,3.179-2.101,3.824-4.001c1.026-3.018-0.257-5.602-3.172-6.216
		c-1.444-0.305-2.971-0.411-4.444-0.334c-2.91,0.153-5.808,0.557-8.717,0.724c-0.85,0.048-1.798-0.203-2.577-0.576
		c-7.052-3.387-14.069-6.846-21.125-10.228c-0.56-0.269-1.468-0.376-1.969-0.104C164.384,212.814,162.119,214.243,159.606,215.745z"
		/>
	<path fill-rule="evenodd" clip-rule="evenodd" d="M61.921,76.176c1.562,8.502-4.216,13.504-10.262,15.503
		c-5.575,1.843-9.944-0.825-11.66-6.7c-4.342,0.783-8.607,0.545-12.279-2.178c-3.365-2.496-5.212-6.006-5.779-10.167
		c-0.849-6.235,2.903-14.729,14.589-15.946c-0.081-4.888,2.248-8.552,5.959-11.413c2.52-1.942,5.163-3.602,8.646-3.28
		c3.412,0.315,5.858,1.952,7.447,4.854c0.878,1.603,1.354,3.425,2.205,5.046c0.25,0.476,1.18,0.871,1.776,0.842
		c3.827-0.188,7.316,0.663,9.417,4.028c1.181,1.892,1.959,4.251,2.183,6.475c0.396,3.938-0.58,7.594-3.93,10.246
		C67.787,75.422,64.902,75.932,61.921,76.176z"/>
	<path fill-rule="evenodd" clip-rule="evenodd" d="M244.033,63.91c-1.478,0.731-2.769,1.7-4.203,2.016
		c-3.95,0.87-8.632-2.482-9.208-6.489c-0.218-1.516-0.133-3.081-0.117-4.623c0.01-1.096-0.174-1.827-1.382-2.368
		c-8.065-3.609-9.304-13.428-2.462-19.014c3.874-3.163,9.023-3.045,13.368,0.387c0.336-0.263,0.765-0.492,1.049-0.84
		c2.322-2.834,5.429-4.357,8.929-4.892c4.022-0.614,7.585,0.992,10.674,3.356c5.448,4.169,6.526,13.088,2.439,17.635
		c-0.354,0.395-0.728,0.84-1.188,1.058c-1.509,0.714-1.343,1.796-0.703,2.945c2.942,5.286,2.307,9.249-2.275,13.231
		c-1.93,1.677-3.915,3.158-6.717,3.375c-2.835,0.219-4.661-1.104-6.276-3.054C245.207,65.725,244.589,64.704,244.033,63.91z"/>
	<path fill-rule="evenodd" clip-rule="evenodd" d="M250.452,240.465c1.204-1.564,2.061-3.014,3.238-4.12
		c1.419-1.335,3.057-2.463,4.696-3.533c5.06-3.302,14.667-1.353,16.805,7.147c0.188,0.744,0.529,1.448,0.759,2.184
		c1.263,4.048-0.172,8.417-3.661,11.195c3.008,5.313,1.229,12.144-4.212,14.941c-2.612,1.343-5.532,2.274-8.421,2.849
		c-4.146,0.825-8.718-2.127-10.755-6.505c-0.648-1.393-1.163-2.847-1.771-4.354c-0.723,0.19-1.505,0.449-2.308,0.6
		c-5.015,0.938-8.869-3.152-9.935-7.297c-1.584-6.161,2.999-10.615,7.234-12.159C244.917,240.396,247.771,239.4,250.452,240.465z"/>
	<path fill-rule="evenodd" clip-rule="evenodd" d="M39.863,222.931c3.37-1.137,6.778-2.11,9.729-0.254
		c2.773,1.744,5.214,4.169,7.369,6.667c0.833,0.967,0.872,3.039,0.585,4.47c-0.774,3.857-2.217,7.672-5.601,9.878
		c-2.726,1.777-6.042,2.497-9.427,0.912c-2.435,4.164-6.088,6.117-10.981,5.855c-7.172-0.383-12.536-8.569-9.761-15.144
		c0.513-1.215,1.499-2.313,2.49-3.222c1.114-1.021,1.391-1.991,0.662-3.285c-0.175-0.312-0.288-0.656-0.441-0.98
		c-2.349-4.946,0.645-11.181,6.048-12.379c4.662-1.034,6.826,1.277,8.783,5.846C39.524,221.779,39.654,222.298,39.863,222.931z"/>
	<path fill-rule="evenodd" clip-rule="evenodd" d="M104.083,35.705c0.993,4.297,0.578,8.098-2.897,11.204
		c-1.528,1.366-3.179,1.764-4.955,1.167c-2.35-0.79-4.488-2.032-5.448-4.548c-0.371-0.971-0.82-1.137-1.889-0.882
		c-5.041,1.204-8.521-0.927-10.465-6.235c-1.435-3.916,0.725-9.017,4.333-11.125c2.887-1.688,5.622-1.553,8.61-0.121
		c0.42-2.99,2.189-4.902,4.494-6.249c4.934-2.883,11.608-0.496,14.297,4.748C112.937,29.071,109.322,34.014,104.083,35.705z"/>
	<path fill-rule="evenodd" clip-rule="evenodd" d="M273.652,97.953c-0.046,4.577-3.607,7.005-8.244,5.619
		c-2.509-0.749-4.125-2.372-4.64-4.869c-0.575-2.79,0.673-5.024,2.868-6.638c0.748-0.549,1.924-0.923,2.817-0.791
		c2.717,0.401,4.866,1.955,6.454,4.153C273.393,96.099,273.417,97.102,273.652,97.953z"/>
	<path fill-rule="evenodd" clip-rule="evenodd" d="M57.484,274.809c-2.517-0.025-4.543-2.373-4.492-5.204
		c0.05-2.758,1.917-4.733,4.368-4.622c2.182,0.101,5.221,2.856,5.195,4.714C62.522,272.142,59.854,274.833,57.484,274.809z"/>
	<path fill-rule="evenodd" clip-rule="evenodd" d="M177.082,164.729c0.086,1.757,0.14,3.426,0.257,5.091
		c0.162,2.319-0.71,4.192-2.344,5.78c-2.305,2.242-5.102,3.443-8.056,4.715c-5.389,2.32-10.963,2.542-16.556,2.669
		c-6.603,0.149-13.109-0.816-19.259-3.453c-3.901-1.673-5.488-4.996-6-8.906c-0.245-1.867-0.042-3.793-0.042-5.75
		c-1.864-0.381-3.743-0.637-5.546-1.156c-5.558-1.6-8.989-5.477-10.891-10.757c-1.782-4.951-1.7-9.74,1.761-14.1
		c0.273-0.344,0.235-1.146,0.046-1.615c-3.724-9.213-3.622-18.57-0.79-27.914c1.781-5.876,5.323-10.737,9.837-14.895
		c4.702-4.33,9.873-7.948,15.878-10.2c2.046-0.767,4.262-1.314,6.436-1.468c4.335-0.307,8.708-0.539,13.041-0.314
		c6.063,0.314,11.847,1.781,17.277,4.777c4.438,2.449,8.591,5.133,11.992,8.925c5.917,6.595,9.374,14.238,9.751,23.131
		c0.252,5.953-0.357,11.815-2.489,17.46c-0.237,0.626-0.117,1.648,0.257,2.204c2.948,4.389,3.39,8.907,1.694,13.958
		c-2.01,5.987-5.826,9.749-11.906,11.226C180.057,164.468,178.616,164.526,177.082,164.729z M159.565,174.351
		c0.171-1.396,0.213-2.722,0.536-3.976c0.158-0.617,0.838-1.1,1.281-1.644c0.305,0.571,0.801,1.118,0.874,1.717
		c0.14,1.148,0.04,2.325,0.04,3.5c0.624-0.054,1.107-0.193,1.557-0.12c3.024,0.495,5.537-2.491,5.189-5.135
		c-0.294-2.233-0.494-4.481-0.854-6.703c-0.536-3.325,0.192-5.421,4.026-5.557c1.792-0.063,3.587-0.174,5.368-0.376
		c3.204-0.362,6.08-1.166,7.26-4.775c1.158-3.539,1.06-6.765-1.317-9.815c-0.789-1.012-1.442-2.221-1.811-3.444
		c-0.469-1.553-0.427-3.258-0.883-4.816c-0.971-3.316-2.165-6.567-3.146-9.881c-0.129-0.436,0.388-1.482,0.731-1.544
		c0.587-0.106,1.42,0.186,1.876,0.607c0.432,0.399,0.521,1.176,0.746,1.792c0.838,2.286,1.67,4.575,2.672,7.324
		c0.273-1.362,0.494-2.226,0.615-3.104c0.532-3.843,1.163-7.686,0.419-11.574c-1.295-6.762-5.25-11.848-10.011-16.582
		c-3.882-3.859-8.799-5.523-13.726-6.908c-6.541-1.839-13.291-2.168-19.962-0.165c-6.02,1.807-11.727,4.248-16.12,8.917
		c-5.24,5.569-8.091,12.271-8.183,19.918c-0.037,3.014,0.826,6.038,1.279,9.057c0.178-0.005,0.355-0.01,0.533-0.014
		c1.208-2.847,2.374-5.714,3.672-8.52c0.2-0.432,1.189-0.939,1.497-0.784c0.526,0.266,1.065,1.005,1.115,1.587
		c0.063,0.722-0.322,1.503-0.592,2.23c-1.31,3.529-2.922,6.976-3.877,10.597c-0.65,2.471-1.178,4.782-2.883,6.829
		c-2.361,2.833-1.573,6.129-0.152,8.977c1.194,2.394,3.621,3.604,6.427,3.804c2.087,0.147,4.184,0.327,6.242,0.686
		c4.036,0.704,5.119,2.759,3.865,6.675c-0.486,1.517-0.574,3.157-0.91,4.728c-0.476,2.221,1.068,3.84,2.616,4.632
		c1.178,0.604,2.538,0.852,3.944,1.299c0-1.043-0.1-1.895,0.04-2.705c0.075-0.437,0.561-0.803,0.861-1.201
		c0.448,0.384,1.069,0.683,1.305,1.169c0.357,0.736,0.364,1.637,0.683,2.398c0.169,0.403,0.648,0.886,1.047,0.947
		c1.75,0.27,3.521,0.399,5.405,0.592c0.143-1.071,0.278-1.882,0.354-2.698c0.185-1.965,0.296-3.938,0.545-5.895
		c0.056-0.443,0.547-0.831,0.839-1.244c0.413,0.368,1.111,0.687,1.185,1.113c0.209,1.217,0.252,2.48,0.198,3.719
		c-0.071,1.637-0.296,3.267-0.477,5.112C154.363,174.833,156.945,174.594,159.565,174.351z"/>
	<path fill-rule="evenodd" clip-rule="evenodd" d="M85.071,129.753c-8.673,2.016-14.929,6.411-18.641,14.078
		c-3.821,7.894-2.327,15.312,2.964,22.23c-0.203,0.121-0.405,0.241-0.607,0.362c-0.455-0.292-0.994-0.505-1.351-0.888
		c-3.302-3.554-4.546-7.802-4.678-12.618c-0.214-7.845,2.167-14.45,8.451-19.351c3.54-2.761,7.773-3.866,12.146-4.428
		C83.891,129.07,84.497,129.536,85.071,129.753z"/>
	<path fill-rule="evenodd" clip-rule="evenodd" d="M214.117,122.948c-0.264-3.228-0.824-6.354-2.66-9.245
		c-2.758-4.344-6.523-7.042-11.476-8.197c-0.174-0.041-0.403,0.005-0.523-0.091c-0.467-0.376-0.9-0.793-1.346-1.195
		c0.533-0.215,1.121-0.698,1.592-0.603c3.857,0.779,7.536,2.095,10.342,4.973c3.512,3.602,5.352,7.998,5.488,13.062
		C215.558,122.536,215.609,123.467,214.117,122.948z"/>
	<path fill-rule="evenodd" clip-rule="evenodd" d="M159.277,62.132c-1.001,0.571-1.957,1.248-3.011,1.696
		c-5.82,2.478-9.861,6.689-12.399,12.436c-0.207,0.468-0.751,0.787-1.139,1.176c-0.124-0.563-0.464-1.179-0.338-1.679
		c1.452-5.793,7.464-13.577,15.484-13.792c0.384-0.01,0.763-0.202,1.144-0.309C159.104,61.817,159.191,61.975,159.277,62.132z"/>
	<path fill-rule="evenodd" clip-rule="evenodd" d="M212.353,135.307c0.411-0.094,0.863-0.352,1.225-0.258
		c6.489,1.69,10.618,4.628,11.057,12.538c0.023,0.42-0.519,0.872-0.798,1.31c-0.234-0.345-0.656-0.681-0.674-1.038
		c-0.273-5.4-3.642-8.45-8.055-10.723c-0.931-0.48-1.869-0.948-2.804-1.421C212.32,135.579,212.337,135.442,212.353,135.307z"/>
	<path fill-rule="evenodd" clip-rule="evenodd" d="M53.854,187.663c1.505,1.732,2.406,3.825,3.196,5.963
		c0.887,2.399,2.778,3.217,4.474,1.828c0.293-0.24,0.469-0.632,0.674-0.969c0.353-0.58,0.686-1.172,1.081-1.85
		c1.808,1.978,1.458,3.608-0.646,4.416c-3.955,1.518-5.847,0.705-7.489-3.229c-0.575-1.379-1.174-2.75-1.669-4.156
		c-0.2-0.571-0.154-1.229-0.221-1.848C53.453,187.767,53.653,187.715,53.854,187.663z"/>
	<path fill-rule="evenodd" clip-rule="evenodd" d="M169.4,265.487c-0.269,0.492-0.414,1.222-0.827,1.439
		c-3.689,1.94-7.384,3.905-11.794,3.457c-0.876-0.089-1.781,0.103-2.673,0.165c-0.063-0.205-0.125-0.41-0.188-0.615
		c0.506-0.254,1.007-0.719,1.518-0.729c4.84-0.098,9.124-1.998,13.388-3.988C169.017,265.307,169.209,265.397,169.4,265.487z"/>
	<path fill-rule="evenodd" clip-rule="evenodd" d="M190.45,82.667c0.072-1.237,0.208-2.475,0.203-3.711
		c-0.007-1.84-0.529-3.488-1.876-4.861c-0.383-0.39-0.419-1.119-0.613-1.693c0.567,0.106,1.204,0.084,1.691,0.343
		c1.479,0.788,2.282,2.099,2.318,3.771c0.032,1.542,0.005,3.097-0.172,4.626c-0.073,0.631-0.605,1.209-0.93,1.812
		C190.865,82.857,190.657,82.762,190.45,82.667z"/>
	<path fill-rule="evenodd" clip-rule="evenodd" d="M263.364,196.037c1.479-1.607,2.946-2.902,4.023-4.465
		c1.027-1.489,1.646-3.26,2.723-4.8c0.89,1.902,0.1,3.462-0.798,4.931C267.296,195.005,265.717,196.174,263.364,196.037z"/>
	<path fill-rule="evenodd" clip-rule="evenodd" d="M249.411,197.055c3.476-2.465,7.624-3.599,11.345-5.578
		c0.137,0.267,0.274,0.534,0.411,0.802c-3.314,2.712-7.386,3.97-11.256,5.613C249.744,197.612,249.578,197.334,249.411,197.055z"/>
	<path fill-rule="evenodd" clip-rule="evenodd" d="M144.495,261.996c-4.325-1.483-7.7-4.406-10.981-7.472
		c0.13-0.2,0.261-0.399,0.392-0.599c3.601,2.539,7.202,5.079,10.803,7.619C144.637,261.695,144.566,261.846,144.495,261.996z"/>
	<path fill-rule="evenodd" clip-rule="evenodd" d="M34.534,154.824c-2.712-1.936-4.062-5.215-2.849-7.714
		C32.591,149.563,33.497,152.016,34.534,154.824z"/>
	<path fill-rule="evenodd" clip-rule="evenodd" d="M189.434,51.464c-1.665-1.511-3.22-2.863-4.684-4.307
		c-0.247-0.243-0.106-0.879-0.15-1.396C187.293,46.438,189.559,49.155,189.434,51.464z"/>
	<path fill-rule="evenodd" clip-rule="evenodd" d="M37.167,155.312c0.625-1.1,1.217-2.221,1.912-3.272
		c0.102-0.154,0.786-0.11,1.053,0.065c0.916,0.604,0.92,2.181-0.074,2.75c-0.82,0.469-1.816,0.628-2.735,0.925
		C37.271,155.623,37.22,155.467,37.167,155.312z"/>
	<path fill-rule="evenodd" clip-rule="evenodd" d="M105.957,88.117c-1.114-0.273-3.264-2.497-3.341-3.51
		c-0.02-0.258,0.076-0.625,0.256-0.768c0.165-0.13,0.667-0.138,0.762-0.009c0.954,1.292,1.854,2.625,2.77,3.945
		C106.255,87.89,106.106,88.003,105.957,88.117z"/>
	<path fill-rule="evenodd" clip-rule="evenodd" d="M140.156,263.935c2.703,1.03,5.037,2.899,5.109,4.531
		c-2-1.45-3.767-2.731-5.534-4.013C139.873,264.28,140.015,264.107,140.156,263.935z"/>
	<path fill-rule="evenodd" clip-rule="evenodd" d="M191.848,52.251c-0.702-0.596-1.094-0.928-1.484-1.26
		c0.765-0.551,1.51-1.136,2.321-1.605c0.098-0.056,0.853,0.712,0.811,0.777C193.062,50.827,192.527,51.425,191.848,52.251z"/>
	<path fill-rule="evenodd" clip-rule="evenodd" d="M133.833,147.946c-6.628,0.44-11.37-7.275-9.349-12.711
		c1.372-3.688,4.542-5.325,8.042-6.172c4.076-0.987,8.11-0.572,11.644,1.921c2.442,1.723,3.034,3.782,1.913,6.598
		c-0.853,2.141-1.797,4.302-3.073,6.205C141.006,146.774,137.959,148.004,133.833,147.946z"/>
	<path fill-rule="evenodd" clip-rule="evenodd" d="M164.984,128.63c4.833,0.035,8.399,1.457,10.92,4.529
		c3.345,4.077,1.784,10.516-2.86,13.178c-6.075,3.483-13.288,0.944-15.834-5.577c-0.391-1.001-0.735-2.021-1.163-3.006
		c-1.672-3.857-0.061-7.245,4.062-8.264C161.953,129.034,163.859,128.823,164.984,128.63z"/>
	<path fill-rule="evenodd" clip-rule="evenodd" d="M150.836,156.639c-0.445,0.416-1.27,0.958-1.783,1.711
		c-1.09,1.6-2.556,1.68-4.119,1.161c-1.689-0.561-2.339-2.03-2.317-3.651c0.03-2.26,0.898-4.181,2.583-5.824
		c1.349-1.316,2.388-2.947,3.576-4.43c1.287-1.605,3.142-1.46,4.26,0.189c0.914,1.349,2.005,2.58,3.045,3.84
		c1.867,2.262,3.879,4.441,3.778,7.675c-0.073,2.368-2.603,3.906-4.613,2.665C153.758,159.057,152.439,157.867,150.836,156.639z"/>
</g>
<g>
</g>
<g>
</g>
<g>
</g>
<g>
</g>
<g>
</g>
<g>
</g>
</svg>
