<?xml version="1.0" encoding="utf-8"?>
<!-- Generator: Adobe Illustrator 16.0.0, SVG Export Plug-In . SVG Version: 6.00 Build 0)  -->
<!DOCTYPE svg PUBLIC "-//W3C//DTD SVG 1.1//EN" "http://www.w3.org/Graphics/SVG/1.1/DTD/svg11.dtd">
<svg version="1.1" id="Layer_1" xmlns="http://www.w3.org/2000/svg" xmlns:xlink="http://www.w3.org/1999/xlink" x="0px" y="0px"
	 width="300px" height="300px" viewBox="0 0 300 300" enable-background="new 0 0 300 300" xml:space="preserve">
<g>
	<path fill-rule="evenodd" clip-rule="evenodd" d="M99.942,256.185c1.965,1.091,3.857,2.35,5.909,3.237
		c4.464,1.931,8.895,4.087,13.551,5.392c6.46,1.811,13.111,2.803,19.916,2.218c2.769-0.238,5.579,0.019,8.371,0.021
		c0.838,0.001,1.69-0.016,2.513-0.156c3.528-0.606,7.065-1.176,10.56-1.935c1.903-0.413,3.754-1.113,5.585-1.799
		c3.883-1.452,7.784-2.87,11.59-4.506c4.474-1.922,8.669-4.34,12.476-7.438c2.682-2.182,5.834-3.845,8.281-6.243
		c3.621-3.547,6.921-7.446,10.132-11.38c2.314-2.834,4.534-5.817,6.306-9.005c2.41-4.335,4.641-8.817,6.432-13.437
		c3.08-7.944,5.317-16.119,5.685-24.745c0.385-9.015,0.562-18.022-1.651-26.824c-1.476-5.866-3.113-11.768-5.488-17.307
		c-1.946-4.539-4.941-8.665-7.746-12.787c-2.333-3.428-4.771-6.883-7.7-9.781c-3.366-3.329-7.141-6.334-11.074-8.979
		c-4.874-3.276-9.851-6.625-15.233-8.855c-5.329-2.207-11.188-3.208-16.876-4.449c-3.179-0.694-6.494-1.165-9.732-1.093
		c-4.981,0.112-10.04,0.335-14.899,1.326c-5.562,1.134-11.228,2.56-16.307,4.99c-3.953,1.892-8.177,3.607-11.65,6.542
		c-1.756,1.485-3.904,2.503-5.677,3.972c-2.309,1.913-4.463,4.02-6.606,6.123c-1.734,1.703-3.425,3.461-4.997,5.313
		c-1.016,1.195-1.821,2.577-2.653,3.918c-1.955,3.154-4.038,6.247-5.747,9.532c-1.368,2.629-2.503,5.436-3.305,8.287
		c-1.102,3.916-2.155,7.912-2.554,11.94c-0.399,4.031,0.031,8.145,0.107,12.222c0.004,0.204,0.147,0.413,0.126,0.608
		c-0.516,4.863,1.028,9.447,2.158,14.031c0.788,3.197,2.419,6.187,3.669,9.271c0.507,1.25,1.776,2.675,0.404,3.816
		c-1.454,1.209-2.443-0.462-3.221-1.373c-2.221-2.6-4.361-5.277-6.389-8.03c-4.894-6.646-7.642-14.305-9.254-22.241
		c-1.048-5.159-1.055-10.571-1.117-15.875c-0.041-3.461,0.394-6.984,1.08-10.385c1.198-5.933,2.466-11.889,5.826-17.115
		c0.563-0.875,0.861-1.918,1.39-2.821c1.914-3.261,3.531-6.773,5.893-9.676c3.989-4.903,8.422-9.45,12.744-14.076
		c2.549-2.728,5.175-5.392,7.89-7.955c3.759-3.547,7.743-6.861,11.418-10.491c2.352-2.323,4.679-4.819,6.366-7.629
		c2.053-3.421,3.321-7.303,5.111-10.895c2.36-4.736,4.866-9.402,7.367-14.066c3.381-6.305,8.198-11.482,13.247-16.437
		c5.958-5.846,12.835-10.362,20.711-13.164c3.96-1.41,8.063-2.463,12.166-3.399c1.475-0.336,3.146,0.08,4.701,0.323
		c0.257,0.04,0.685,1.209,0.506,1.429c-0.782,0.962-1.677,1.876-2.677,2.609c-4.429,3.247-8.591,6.794-11.209,11.698
		c-2.287,4.283-4.341,8.705-5.132,13.59c-0.209,1.291-0.693,2.536-1.04,3.805c-0.109,0.4-0.272,0.814-0.258,1.216
		c0.118,3.254-0.188,6.612,0.516,9.738c1.376,6.108,3.742,11.847,9.844,14.895c2.247,1.123,7.802-0.752,9.425-3.982
		c1.563-3.111,3.205-6.182,4.756-9.298c1.242-2.497,2.398-5.036,3.596-7.563c1.439,0.763,1.578,2.179,1.913,3.863
		c1.365,6.86,2.059,14.02,6.466,19.864c1.533,2.034,3.504,3.748,5.33,5.552c3.157,3.121,6.351,6.205,9.544,9.288
		c0.899,0.869,1.813,1.732,2.792,2.507c1.346,1.065,2.646,0.742,3.031-0.926c0.285-1.231,0.459-2.779-0.04-3.849
		c-2.084-4.471-4.553-8.762-6.657-13.225c-1.329-2.819-2.312-5.808-3.366-8.75c-1.975-5.514-2.487-11.304-1.422-16.94
		c0.674-3.571,2.625-7.002,4.466-10.232c4.302-7.545,11.155-12.177,18.942-15.53c1.638-0.705,3.475-0.99,5.247-1.313
		c0.509-0.092,1.586,0.337,1.599,0.571c0.055,0.998,0.155,2.283-0.386,2.977c-3.417,4.388-5.056,9.619-6.936,14.684
		c-0.897,2.418-0.896,5.228-0.998,7.872c-0.229,5.903,0.979,11.513,3.144,17.063c2.914,7.473,5.568,15.076,7.786,22.781
		c1.359,4.724,1.08,9.754-0.248,14.561c-1.262,4.565-2.805,9.053-4.127,13.603c-0.386,1.328-0.478,2.747-0.639,4.132
		c-0.214,1.836,0.878,1.962,2.071,1.276c5.065-2.915,9.325-6.704,10.168-12.793c0.88-6.35,1.204-12.771,0.465-19.209
		c-0.187-1.622,0.363-3.329,0.579-4.996c0.822-6.367,3.616-11.761,8.057-16.345c0.77-0.794,1.535-1.595,2.253-2.434
		c1.425-1.664,3.035-2.079,4.94-0.886c-0.559,2.238-0.941,4.5-1.69,6.634c-1.822,5.188-0.973,10.19,0.591,15.233
		c0.925,2.985,1.599,6.047,2.404,9.069c0.411,1.542,1.047,3.048,1.266,4.615c0.766,5.465,1.866,10.942,1.95,16.428
		c0.101,6.568-1.335,13.03-4.175,19.038c-2.281,4.825-4.283,9.896-7.315,14.222c-3.182,4.538-5.365,9.278-6.344,14.618
		c-0.437,2.378-0.456,4.837-0.601,7.264c-0.206,3.448-0.36,6.9-0.507,10.352c-0.014,0.313,0.186,0.634,0.322,1.068
		c0.422-0.23,0.792-0.326,1.004-0.563c4.403-4.912,8.774-9.853,13.183-14.761c1.724-1.919,3.514-3.777,5.286-5.651
		c1.204-1.271,2.362-2.6,3.677-3.748c0.668-0.584,1.635-0.825,2.467-1.223c0.285,0.826,0.784,1.646,0.811,2.479
		c0.053,1.709-0.09,3.432-0.255,5.139c-0.396,4.087-0.978,8.159-1.256,12.253c-0.613,9.007-3.756,17.408-6.199,25.955
		c-1.659,5.803-3.837,11.495-6.254,17.03c-1.68,3.847-4.059,7.407-6.307,10.982c-4.113,6.54-8.773,12.708-14.303,18.095
		c-4.737,4.615-9.77,8.95-14.899,13.13c-3.547,2.89-7.447,5.354-11.257,7.909c-1.851,1.24-3.778,2.417-5.802,3.337
		c-6.795,3.089-13.497,6.484-20.523,8.935c-6.764,2.359-13.823,4.021-20.872,5.36c-4.824,0.917-9.851,0.812-14.791,1.059
		c-3.067,0.154-6.164,0.347-9.215,0.11c-7.538-0.585-15.091-1.15-22.338-3.647c-3.097-1.067-6.325-1.749-9.44-2.768
		c-7.178-2.346-13.875-5.771-20.409-9.498c-6.056-3.454-11.957-7.146-16.972-12.094c-5.949-5.867-12.379-11.305-17.847-17.586
		c-6.053-6.954-11.389-14.61-15.374-22.978c-3.067-6.439-5.717-13.124-7.952-19.897c-1.603-4.858-2.424-10.013-3.211-15.095
		c-0.905-5.849-1.617-11.75-1.973-17.655c-0.229-3.799,0.32-7.647,0.548-11.472c0.191-3.201,0.275-6.418,0.683-9.593
		c0.31-2.405,0.997-4.769,1.62-7.123c1.138-4.296,2.169-8.634,3.593-12.836c1.163-3.429,2.756-6.723,4.303-10.008
		c1.541-3.273,3.487-6.37,4.834-9.714c1.138-2.823,3.169-4.906,4.833-7.305c1.819-2.622,3.229-5.554,5.224-8.022
		c2.312-2.86,5.038-5.391,7.637-8.012c2.797-2.82,5.45-5.837,8.542-8.295c3.331-2.647,7.053-4.819,10.688-7.063
		c3.25-2.007,6.595-3.869,9.99-5.618c0.167-0.086,1.177,0.172,1.88-0.067c2.997-1.02,6.016-1.976,9.045-2.895
		c0.396-0.12,1.086-0.047,1.297,0.213c0.211,0.263,0.121,0.932-0.063,1.314c-0.264,0.547-0.647,1.111-1.128,1.467
		c-2.851,2.116-5.764,4.147-8.617,6.261c-1.562,1.157-3.161,2.301-4.538,3.659c-2.787,2.748-5.52,5.562-8.115,8.49
		c-2.33,2.629-4.542,5.378-6.634,8.203c-2.485,3.356-4.785,6.851-7.168,10.283c-0.158,0.229-0.435,0.411-0.505,0.658
		c-1.188,4.136-3.792,7.634-5.286,11.604c-1.708,4.536-2.991,9.233-4.456,13.861c-0.706,2.229-1.482,4.439-2.079,6.698
		c-0.348,1.313-0.397,2.704-0.589,4.059c-0.505,3.558-1.313,7.103-1.456,10.674c-0.24,5.952-0.192,11.927,0.009,17.882
		c0.093,2.77,0.706,5.545,1.306,8.268c0.849,3.857,1.618,7.771,2.941,11.475c1.736,4.857,2.792,10.005,6.238,14.207
		c2.136,2.604,3.277,6.052,5.516,8.534c3.8,4.214,7.148,8.967,12.381,11.75c1.72,0.914,3.044,2.55,4.729,3.555
		c3.205,1.913,6.421,3.894,9.852,5.32c3.852,1.601,7.889,2.859,11.95,3.833c5.771,1.383,11.637,1.546,17.619,1.576
		c6.614,0.033,12.821-1.485,19.148-2.641c2.062-0.377,3.964-1.708,5.898-2.684c3.006-1.516,6.174-2.816,8.921-4.717
		c5.165-3.573,10.34-7.27,14.061-12.443c2.296-3.191,4.251-6.656,6.082-10.144c1.407-2.679,2.754-5.492,3.471-8.408
		c1.356-5.513,3.106-11.045,1.223-16.878c-0.956-2.96-1.12-6.194-2.223-9.084c-1.864-4.883-4.965-9.009-8.744-12.681
		c-3.144-3.056-6.72-5.484-10.667-7.124c-11.515-4.787-22.596-3.969-32.554,3.945c-3.659,2.908-5.428,7.119-6.843,11.681
		c-1.256,4.049-0.457,7.626-0.158,11.533c0.342,4.476,4.522,9.128,8.339,10.674c4.381,1.774,8.054,1.316,11.147-2.203
		c0.795-0.905,1.602-2.579,1.271-3.487c-0.366-1.003-1.942-1.88-3.151-2.197c-3.104-0.816-5.238-4.729-4.449-8.657
		c0.664-3.307,2.375-4.538,6.929-5.285c3.411-0.559,7.003-1.502,10.385,0.329c2.129,1.151,4.365,2.194,6.264,3.661
		c4.291,3.314,6.434,7.956,6.568,13.268c0.118,4.652-1.223,8.962-3.358,13.277c-2.399,4.849-5.875,8.292-10.209,11.046
		c-2.003,1.273-4.357,2.076-6.646,2.797c-2.107,0.664-4.323,1.166-6.52,1.326c-4.362,0.317-8.671-0.058-12.975-1.112
		c-6.149-1.507-11.072-4.902-15.7-9.001c-6.424-5.688-9.615-13.115-11.397-21.207c-0.706-3.205-0.429-6.615-0.761-9.916
		c-0.603-6.003,1.301-11.594,3.219-17.032c1.376-3.903,3.76-7.536,6.142-10.98c4.229-6.115,9.985-10.843,16.246-14.593
		c5.012-3.002,10.75-4.845,16.283-6.89c1.908-0.705,4.161-0.552,6.263-0.635c3.418-0.136,6.859-0.395,10.256-0.133
		c3.313,0.255,6.575,1.136,9.87,1.673c4.845,0.792,9.058,3.06,13.374,5.252c6.569,3.337,12.26,7.801,17.472,12.877
		c1.806,1.758,3.07,4.15,4.296,6.409c2.08,3.835,4.129,7.711,5.816,11.728c1.288,3.065,2.343,6.319,2.883,9.591
		c0.786,4.763,1.383,9.618,1.37,14.433c-0.011,4.138-0.854,8.297-1.58,12.401c-0.623,3.525-1.358,7.069-2.482,10.459
		c-1.494,4.504-2.865,9.115-5.822,12.984c-0.127,0.167-0.299,0.318-0.371,0.507c-1.786,4.68-5.317,8.135-8.33,11.961
		c-2.936,3.729-6.123,7.148-10.082,9.846c-1.598,1.089-2.797,2.746-4.337,3.936c-5.662,4.373-11.87,7.813-18.419,10.687
		c-7.606,3.337-15.578,5.121-23.791,6.091c-6.233,0.737-12.425,1.035-18.655-0.066c-4.604-0.814-9.248-1.411-13.884-2.025
		c-0.83-0.11-1.711,0.166-2.569,0.265C100.025,255.798,99.983,255.991,99.942,256.185z"/>
</g>
</svg>
