<svg version="1.1" id="Layer_1" xmlns="http://www.w3.org/2000/svg"
    xmlns:xlink="http://www.w3.org/1999/xlink" x="0px" y="0px"
    width="832px" height="832px"  viewBox="0 0 832 832" enable-background="new 0 0 832 832" xml:space="preserve">
<path fill="#000000" opacity="1.000000" stroke="none" 
	d="
M445.460632,833.000000 
	C441.893890,830.662109 438.031097,831.267334 434.549896,830.423645 
	C427.639099,828.748718 420.603119,827.593994 413.630615,826.166992 
	C412.391632,825.913391 411.147064,825.479919 410.274353,824.307678 
	C410.731323,823.762268 411.006165,823.109802 411.349335,823.071655 
	C422.250336,821.859497 431.591949,815.391296 442.387939,813.879150 
	C445.355652,813.463440 448.257324,813.572021 451.244904,814.437134 
	C463.654602,818.030579 475.898712,822.288147 488.800232,824.012085 
	C490.413391,824.227722 492.424133,824.282715 494.815247,826.962646 
	C481.737976,828.974670 469.694427,830.827698 457.325439,832.840332 
	C453.307098,833.000000 449.614166,833.000000 445.460632,833.000000 
z"/>
<path fill="#000000" opacity="1.000000" stroke="none" 
	d="
M403.650696,509.993195 
	C404.841156,491.049652 403.939880,472.539093 404.915985,454.122284 
	C405.630859,440.633881 405.087769,427.173889 405.709473,413.720490 
	C408.407013,355.346161 407.392120,296.933319 407.805176,238.533920 
	C407.853302,231.729706 405.675385,226.914902 401.081360,222.276764 
	C393.233948,214.354034 386.070465,205.712021 381.008911,195.752502 
	C377.846039,189.528976 375.613617,182.688721 375.916443,175.146225 
	C380.689484,175.301758 382.243652,181.270767 387.758331,180.219620 
	C382.430664,168.075439 372.709412,157.750015 374.532104,143.336197 
	C377.868866,141.160477 379.274109,146.275833 383.061859,145.648010 
	C380.088287,134.556717 373.514465,124.244576 375.082001,112.530151 
	C378.056610,111.050407 378.823730,114.626984 382.173401,113.653412 
	C380.093933,104.601631 377.784576,95.266045 380.512207,84.882462 
	C390.966400,93.913750 401.208984,102.762245 411.417480,111.581276 
	C414.309906,109.892418 414.703766,107.442429 414.614929,104.921150 
	C414.069214,89.433197 416.182770,74.014572 415.692902,58.520687 
	C415.293121,45.875801 417.359253,33.276417 416.707214,20.608923 
	C416.657288,19.639471 416.862396,18.612019 417.157623,17.677450 
	C418.438385,13.623194 420.908600,9.810160 425.240631,10.061707 
	C430.047241,10.340812 431.359711,15.017316 431.238373,19.098194 
	C430.772736,34.759026 432.072144,50.367043 432.508484,65.992142 
	C432.893890,79.794159 433.351440,93.589867 433.371674,107.398628 
	C433.374420,109.258324 433.577209,111.060959 435.887177,112.896782 
	C446.837616,104.570076 457.084381,95.207283 467.307098,83.950081 
	C469.630310,95.221893 467.838867,105.004990 465.640259,114.587463 
	C468.467255,115.296951 469.209351,112.789223 471.692841,113.240822 
	C474.823120,125.749428 466.394623,135.857712 463.485168,147.012085 
	C465.741180,148.115845 466.652557,146.647690 467.791931,145.786163 
	C468.939850,144.918228 469.960022,143.264694 471.619171,144.218170 
	C473.236725,145.147751 473.250763,146.907028 473.063629,148.669373 
	C472.275665,156.089981 469.577942,162.789856 465.806641,169.170212 
	C463.421783,173.204987 460.287476,176.885773 458.663330,181.842438 
	C463.981110,182.542480 466.208069,177.659241 470.383270,176.926392 
	C471.806091,179.069611 471.272461,181.105301 470.839630,183.216644 
	C468.606781,194.108734 463.288361,203.335922 455.890076,211.499054 
	C451.090210,216.795105 446.422729,222.211014 441.632538,227.515991 
	C439.958832,229.369598 439.352478,231.447067 439.353699,233.903152 
	C439.377991,282.565155 438.903564,331.234100 439.629028,379.885193 
	C439.859619,395.347260 439.393921,410.868286 440.465057,426.293274 
	C441.968201,447.939056 440.381104,469.609711 441.570496,491.204376 
	C442.239838,503.356934 441.982300,515.474487 442.351288,527.602112 
	C442.508667,532.776306 443.918427,533.555481 448.377655,530.777161 
	C458.113708,524.711182 467.776855,518.527405 477.549255,512.521118 
	C479.537384,511.299164 481.654755,508.637421 484.162750,510.468292 
	C486.457489,512.143555 484.604675,514.977722 484.128784,516.997375 
	C480.250153,533.458069 476.416473,549.933716 472.516876,566.387329 
	C465.706116,595.124023 458.280212,623.689941 450.342651,652.122559 
	C442.890747,678.815369 435.032257,705.395264 427.247406,731.993958 
	C426.498657,734.552185 426.268250,737.667358 422.918579,739.056458 
	C420.938782,737.576721 420.305115,735.332092 419.677673,733.163025 
	C409.073273,696.504211 398.218201,659.914124 388.067596,623.129761 
	C384.324219,609.564270 381.229919,595.792480 377.489807,582.210449 
	C374.436340,571.121826 372.661438,559.757996 369.689331,548.648621 
	C366.692047,537.444946 364.311737,526.073486 361.811584,514.742371 
	C361.443573,513.074341 360.944672,510.829498 362.816864,509.677887 
	C364.762329,508.481201 366.143677,510.285065 367.620056,511.278290 
	C377.271942,517.771851 386.914581,524.279724 396.620270,530.692017 
	C397.959015,531.576538 399.227692,532.845276 401.598785,532.742249 
	C403.746246,525.544434 403.745117,518.022705 403.650696,509.993195 
z"/>
<path fill="#000000" opacity="1.000000" stroke="none" 
	d="
M568.334839,564.903687 
	C569.311829,569.010620 570.308899,572.688049 571.203979,576.390137 
	C572.184753,580.446350 574.290955,580.735107 577.260559,578.302673 
	C585.512939,571.543213 594.639587,566.150757 604.536255,560.515747 
	C605.987122,565.821106 605.526917,570.771423 605.189270,575.569946 
	C604.504150,585.307129 603.363403,595.013184 602.357849,604.726685 
	C600.514648,622.531616 597.612366,640.170044 594.160095,657.731201 
	C591.413513,671.702820 588.938599,685.727844 586.331116,699.726929 
	C586.150024,700.699158 585.914734,701.666748 585.624451,702.611877 
	C585.113403,704.275757 585.360168,706.667603 582.954224,706.855774 
	C580.968201,707.011047 580.475342,704.885132 579.592346,703.559814 
	C566.880127,684.479919 553.978943,665.520874 541.581848,646.237793 
	C531.965454,631.280029 524.133606,615.271667 515.502686,599.733459 
	C512.517395,594.359131 509.445160,589.032898 506.483978,583.645508 
	C505.627045,582.086487 504.541840,580.511292 505.266022,577.743896 
	C517.551086,578.534363 529.142029,582.729309 541.384888,586.218262 
	C542.111389,579.091919 540.151001,573.211426 538.946960,567.324402 
	C531.347107,530.164978 523.281494,493.098785 515.951965,455.887085 
	C512.659058,439.168884 510.273224,422.266327 506.853058,405.554657 
	C506.264069,402.676819 504.894318,400.773895 502.634644,399.140015 
	C494.388336,393.177399 486.820740,386.426941 479.928680,378.947296 
	C475.394409,374.026398 472.656647,368.128174 470.393738,361.486908 
	C474.350494,360.447174 476.574188,363.592407 479.939484,363.473022 
	C480.009552,358.867371 476.309753,356.460388 474.044464,353.609161 
	C470.601044,349.274994 467.602478,344.899139 465.695892,339.652954 
	C463.423737,333.400909 463.679291,332.778351 470.132965,333.194885 
	C471.292725,330.905853 469.420898,329.537720 468.467529,327.924255 
	C465.096771,322.219604 461.017334,316.817261 460.642517,309.833527 
	C460.567596,308.437347 459.905762,306.481140 461.956329,306.041931 
	C466.473877,305.074371 464.734802,302.385559 463.782562,299.969055 
	C461.458344,294.070557 459.852814,288.109772 461.032379,282.061432 
	C462.845184,280.950989 463.920258,281.607056 464.723969,282.407745 
	C471.201630,288.861176 480.123810,291.553497 487.200775,297.082092 
	C488.617981,298.189209 490.260162,299.537598 492.178833,298.431885 
	C494.321381,297.197205 493.083771,295.267700 492.842255,293.505005 
	C490.100494,273.491852 487.371613,253.476639 484.753021,233.447098 
	C484.238617,229.512604 484.484772,225.518768 484.051392,221.531860 
	C483.671417,218.036667 485.748840,214.443161 489.274536,213.162323 
	C492.886444,211.850189 494.523193,215.295364 496.103241,217.706146 
	C498.845947,221.890884 498.555664,226.923004 499.293335,231.614716 
	C502.584778,252.549240 505.999023,273.458344 510.217865,294.230896 
	C510.569580,295.962677 510.863434,297.660461 512.689880,298.190216 
	C514.722534,298.779785 515.475098,296.954590 516.546326,295.700134 
	C523.094360,288.032288 529.694702,280.409180 536.325378,272.715607 
	C538.919983,274.313873 539.280029,276.370270 539.322693,278.557678 
	C539.409790,283.019775 539.527161,287.482574 539.511353,291.944641 
	C539.505859,293.489532 539.856384,294.799072 541.502197,294.802124 
	C545.105286,294.808777 545.238098,297.140930 545.473816,299.819122 
	C545.989990,305.685333 545.364136,311.360413 543.597961,316.980103 
	C542.882812,319.255554 541.474243,321.617004 542.984497,324.109894 
	C545.566162,325.644348 546.592773,321.890533 549.465088,322.670441 
	C553.044983,334.214691 545.940918,344.250824 543.251648,355.142853 
	C547.155151,355.252960 547.997498,351.227386 551.733459,351.078033 
	C553.408264,357.050110 552.151184,362.854858 550.427124,368.638214 
	C547.574585,378.206970 541.250854,385.903351 536.468811,394.430115 
	C534.409851,398.101440 533.265320,401.522766 533.973816,406.150970 
	C540.929626,451.590515 551.455750,496.254791 562.538635,540.808594 
	C564.499512,548.691467 566.388000,556.592407 568.334839,564.903687 
z"/>
<path fill="#000000" opacity="1.000000" stroke="none" 
	d="
M375.210022,366.928406 
	C371.445099,379.270538 363.428741,387.906311 353.602325,395.177460 
	C349.733734,398.040039 345.953949,401.037048 342.283722,404.149719 
	C337.698425,408.038483 338.379730,413.932526 337.572754,418.955597 
	C333.471436,444.485321 328.076660,469.758118 322.861328,495.060669 
	C317.107635,522.975464 310.789703,550.773865 304.734680,578.626709 
	C303.574158,583.965088 305.193054,585.571289 310.339630,583.763733 
	C318.358307,580.947449 326.696564,579.520569 334.936981,577.665283 
	C336.445496,577.325684 338.219910,576.204895 339.580658,577.935242 
	C341.012024,579.755371 339.784241,581.556580 338.952271,583.043274 
	C335.057159,590.003662 330.992432,596.869324 326.965851,603.755737 
	C316.054657,622.416687 304.455475,640.647034 292.306763,658.520874 
	C284.926605,669.379028 277.102417,679.926819 268.845490,690.141479 
	C267.623169,691.653625 266.348938,693.237122 264.162933,693.905762 
	C260.550140,689.740784 260.804749,684.465332 259.850494,679.750610 
	C255.021133,655.890198 249.965790,632.052551 246.972260,607.871399 
	C245.263504,594.068481 242.167892,580.397522 242.595276,566.363525 
	C242.655304,564.392395 242.256683,562.375000 243.675003,559.890259 
	C254.650436,565.002991 263.960571,572.543579 272.994385,579.987183 
	C275.475739,579.043640 275.983429,577.149963 276.412231,575.435730 
	C282.330750,551.775513 288.238037,528.112183 294.023987,504.419281 
	C301.969635,471.882629 308.168793,438.978210 314.530151,406.109192 
	C315.364990,401.795654 313.455444,398.447571 311.017029,395.096405 
	C306.519257,388.914886 302.024567,382.675018 298.784180,375.725464 
	C295.367188,368.397186 293.973236,360.636658 294.944672,352.522980 
	C298.088226,351.645172 299.259186,355.442261 302.645691,354.643280 
	C300.743622,345.128815 295.260559,335.905334 298.412140,325.798096 
	C300.895813,324.647095 302.022644,327.975281 304.514160,326.819824 
	C304.407684,317.741760 299.853394,308.612061 303.288116,299.511719 
	C304.934448,298.222046 306.429565,300.117371 308.320496,298.826508 
	C308.622803,291.613617 305.806641,283.681335 310.125336,276.586090 
	C312.139343,276.218994 313.034058,277.518738 313.935974,278.689697 
	C319.214691,285.543243 326.303009,290.784149 331.138092,298.037231 
	C332.062347,299.423645 333.227142,300.977509 335.144684,300.369598 
	C336.956177,299.795288 337.194336,297.816589 337.490051,296.239746 
	C340.879883,278.165466 344.452393,260.118835 347.381348,241.968826 
	C348.273743,236.439011 348.874481,230.811981 349.699585,225.241730 
	C350.128326,222.347443 351.326904,219.857803 353.637909,217.955460 
	C355.278656,216.604843 356.796356,214.388443 359.146484,215.355072 
	C361.739471,216.421570 363.041687,218.852066 363.323425,221.720245 
	C363.898987,227.580261 362.646759,233.329041 361.988983,239.072250 
	C360.010315,256.349487 357.597656,273.577179 355.332581,290.821350 
	C354.900879,294.107941 354.463928,297.399384 353.843994,300.653290 
	C353.546509,302.214691 353.278381,303.702179 354.606018,304.797272 
	C356.328522,306.218140 357.640930,304.784271 359.060150,303.955017 
	C366.385254,299.674896 373.732635,295.432770 381.081268,291.193054 
	C382.354248,290.458649 383.572418,289.436127 385.857025,290.256195 
	C386.858856,294.872894 385.124756,299.344910 383.768951,303.821503 
	C382.767700,307.127533 381.038879,310.156799 384.712860,313.280579 
	C386.176971,314.525421 385.500061,317.360413 384.849792,319.497437 
	C383.372375,324.353058 380.707764,328.538116 377.719208,332.573273 
	C376.567871,334.127869 375.212585,335.658508 375.142517,337.769958 
	C382.018524,340.122375 382.819458,342.583282 378.708252,349.274933 
	C375.911682,353.826843 372.445465,357.886810 368.820709,361.804138 
	C367.725433,362.987823 366.288483,363.997345 366.484467,365.570496 
	C369.311340,369.271057 372.665924,361.641144 375.210022,366.928406 
z"/>
<path fill="#000000" opacity="1.000000" stroke="none" 
	d="
M562.433350,143.674286 
	C564.939758,150.691833 565.274353,157.975372 569.072876,165.552734 
	C577.221924,155.335098 585.011230,146.080978 592.102417,134.905151 
	C597.935974,143.718414 595.537415,153.119385 596.718140,161.873734 
	C601.834473,159.843399 603.093567,160.610825 603.319397,165.475586 
	C603.605774,171.645172 603.242615,177.750137 601.541260,183.749954 
	C601.062195,185.439377 601.157227,187.291611 600.979736,189.165787 
	C604.341492,190.319336 605.038391,186.304062 608.307068,186.303711 
	C611.993591,198.116119 606.994141,208.853531 602.794495,220.007462 
	C608.252380,220.097641 608.240479,213.959229 612.994202,213.603500 
	C613.755981,223.290100 613.664001,232.658829 608.646667,241.403381 
	C604.592773,248.468765 600.596802,255.568680 596.675110,262.708160 
	C594.009094,267.561493 596.923523,272.181366 597.957825,276.643555 
	C604.474976,304.761505 612.151367,332.572937 620.255310,360.284393 
	C627.846252,386.241486 635.543640,412.162506 643.537109,437.996429 
	C644.100281,439.816650 644.313293,441.956635 646.515320,443.556732 
	C655.205566,437.765808 662.261902,429.519562 672.023621,424.824158 
	C675.485840,428.224396 674.465332,432.432007 674.203979,436.199524 
	C673.144958,451.462280 672.404785,466.726654 672.248962,482.029114 
	C672.096497,496.998901 672.401978,512.032532 671.074280,526.910278 
	C670.187439,536.847534 671.700623,546.885986 669.362366,556.693115 
	C669.218811,557.295166 668.952087,557.867859 668.727112,558.497559 
	C665.347473,558.021851 664.726440,554.948547 663.086792,553.041138 
	C647.816467,535.277832 632.102783,517.855591 617.627747,499.460938 
	C605.428833,483.958771 594.685974,467.309113 583.360046,451.124359 
	C582.348877,449.679352 581.087219,447.957275 582.159180,446.065460 
	C583.448242,443.790405 585.407776,445.407471 587.092896,445.557495 
	C595.234497,446.282135 603.082458,448.343201 610.901245,450.626709 
	C616.661316,452.308960 618.430054,450.550171 616.838928,444.830811 
	C611.284912,424.867340 605.364624,405.001129 600.112549,384.959320 
	C591.121094,350.647430 582.323242,316.281158 573.909912,281.823944 
	C571.734436,272.913940 567.662048,266.519165 559.821289,261.460388 
	C549.509033,254.807053 539.756042,247.135498 534.257263,235.487915 
	C533.475586,233.832184 532.145935,232.448456 533.354126,230.320328 
	C535.844238,229.288193 537.941101,231.682724 540.741150,231.370377 
	C541.699280,228.719528 539.633240,227.287292 538.230225,225.615540 
	C533.857239,220.405304 528.953979,215.560654 526.297729,209.137131 
	C525.637878,207.541458 524.115784,205.719330 525.341187,204.018250 
	C526.874084,201.890289 528.607971,204.146133 530.273193,204.335693 
	C530.864807,204.403046 531.497314,204.111115 532.672913,203.866135 
	C530.582275,198.587784 526.116211,195.281143 523.852478,190.622025 
	C521.641174,186.070892 518.538513,181.814972 518.408264,176.729355 
	C519.946411,174.874573 522.006409,177.052307 523.336792,175.301407 
	C523.897766,173.592163 522.729248,172.211578 521.972778,170.811523 
	C519.412842,166.073410 517.881836,161.036407 517.126709,155.723877 
	C516.939453,154.406342 516.321899,152.995468 517.758789,152.129288 
	C519.109741,151.314926 520.253601,152.253098 521.404846,152.971848 
	C529.287537,157.892960 538.102051,161.159058 545.677490,166.640701 
	C546.725403,167.399017 547.985474,167.943924 549.706482,167.653549 
	C550.920837,163.260452 548.928223,159.221878 548.179626,155.137863 
	C544.059875,132.664764 538.543518,110.459129 535.403076,87.792297 
	C534.817200,83.563858 535.165955,79.558182 539.344849,78.211876 
	C543.671387,76.817963 546.307068,80.484360 548.177490,83.891556 
	C551.015869,89.062035 551.597168,94.926201 552.831848,100.593826 
	C555.934143,114.833862 559.182800,129.042023 562.433350,143.674286 
z"/>
<path fill="#000000" opacity="1.000000" stroke="none" 
	d="
M242.241425,212.607544 
	C239.596466,204.330597 236.776413,196.442184 239.849182,187.949585 
	C242.738083,188.282562 243.495438,191.434021 246.262589,190.743164 
	C247.494232,187.398514 245.913345,184.245270 245.108215,181.184723 
	C243.816925,176.275970 243.500565,171.362213 243.649033,166.359970 
	C243.807144,161.032425 244.667175,160.312881 250.273117,161.359756 
	C251.201721,153.584229 249.670227,145.404755 253.956894,137.164734 
	C262.035919,147.181610 269.804016,156.812958 277.438446,166.278580 
	C279.920044,165.290558 280.313110,163.743484 280.709259,162.070801 
	C285.789734,140.619751 291.569519,119.327644 294.795471,97.463211 
	C295.482819,92.804550 297.641144,88.528297 301.463959,85.518028 
	C303.313568,84.061592 305.269257,81.656410 308.055328,83.247726 
	C310.549347,84.672195 311.662384,87.189423 311.308990,90.079514 
	C310.625702,95.667747 310.035156,101.283348 308.986847,106.808029 
	C305.402374,125.698196 301.653992,144.557419 297.908905,163.416702 
	C297.566986,165.138458 297.243408,166.805206 298.700287,168.035278 
	C300.165710,169.272491 301.596405,168.070877 302.842255,167.414688 
	C310.640381,163.307419 318.723663,159.723297 326.108643,154.853958 
	C327.108978,154.194397 328.077179,153.579987 329.936218,154.369904 
	C331.288391,162.154297 325.823334,168.447998 324.179779,176.057037 
	C329.680359,177.429138 328.032684,181.006012 326.756287,184.705887 
	C324.525696,191.171738 319.614197,195.859085 316.021332,201.416229 
	C315.492493,202.234238 314.728516,202.927170 314.858673,203.963043 
	C317.130249,205.976501 319.418610,202.595230 322.021484,204.662659 
	C321.316650,215.992172 310.627380,221.831421 305.697357,231.013702 
	C308.710022,232.538696 311.088226,229.484726 314.074860,231.716507 
	C310.343506,239.221939 307.018219,247.128494 299.982574,252.553513 
	C293.665588,257.424347 287.194122,262.105865 280.636810,266.648621 
	C277.839722,268.586395 276.327148,271.024567 275.575195,274.243835 
	C265.526672,317.264069 254.206085,359.955841 242.234451,402.475372 
	C238.726303,414.935242 234.870728,427.297546 231.134995,439.692688 
	C230.603790,441.455170 229.619553,443.368011 230.952057,444.903046 
	C232.382965,446.551483 234.325897,445.393524 236.078323,444.971680 
	C242.844452,443.343018 249.629074,441.791229 256.395966,440.165619 
	C259.195007,439.493225 261.948669,439.330292 264.910461,440.380157 
	C265.421143,445.233734 262.082825,448.499420 259.777954,451.867950 
	C239.772522,481.105988 218.435532,509.361603 196.071121,536.834351 
	C192.083115,541.733337 187.635849,546.259521 183.375595,550.934998 
	C182.394470,552.011780 181.526703,553.404175 179.495804,552.870483 
	C178.315414,550.949158 177.689728,548.697632 177.753769,546.403992 
	C178.079330,534.746887 177.186417,523.132690 176.642242,511.508698 
	C175.397888,484.928375 174.235123,458.348206 174.648926,431.727325 
	C174.667053,430.561066 174.612091,429.392670 174.660538,428.228119 
	C174.768448,425.633972 173.984116,422.391663 176.888077,421.107025 
	C179.650894,419.884796 181.344391,422.831787 183.193192,424.286896 
	C188.141861,428.181885 193.365402,431.705750 197.549896,436.602142 
	C200.771942,440.372253 203.500961,439.561554 205.030426,434.632996 
	C212.956741,409.090973 220.712646,383.496094 228.591431,357.939240 
	C234.070389,340.166870 238.858109,322.198395 243.275284,304.147919 
	C246.149750,292.401611 249.754654,280.830414 251.847137,268.875488 
	C252.398071,265.727936 251.679199,263.437408 250.208771,260.943939 
	C247.084061,255.645309 244.152588,250.232101 240.997726,244.951996 
	C235.339874,235.482788 234.037415,225.120300 234.465485,214.284821 
	C238.133591,213.189255 238.717804,218.220917 241.971786,218.110672 
	C243.533981,216.516205 242.451385,214.694016 242.241425,212.607544 
z"/>
<path fill="#000000" opacity="1.000000" stroke="none" 
	d="
M411.920959,800.218689 
	C386.901642,812.609680 359.651703,809.625854 333.618103,814.162476 
	C339.522919,808.827576 347.320831,807.006775 352.912506,801.281738 
	C331.458282,804.061279 310.056885,805.573547 288.446289,806.475952 
	C299.623688,798.269897 313.357269,795.942871 326.800323,789.464539 
	C275.995605,794.176880 226.655792,793.754150 177.318863,790.916199 
	C177.245743,790.100647 177.172607,789.285156 177.099472,788.469666 
	C204.627914,782.224915 232.513016,777.819214 260.955627,773.482422 
	C253.411682,771.166870 246.351852,768.999939 239.292023,766.833008 
	C257.095490,760.096069 275.445221,762.610535 293.682281,761.977905 
	C282.286560,757.381470 270.566925,754.520264 260.678680,746.415771 
	C251.359741,738.777832 240.272705,733.297180 230.344482,727.105103 
	C231.038544,724.211060 233.316177,725.465820 233.842117,723.171082 
	C208.271652,699.279541 178.948349,679.038574 154.817169,652.907410 
	C160.815903,653.358154 165.241623,656.971802 169.975372,659.630005 
	C196.946228,674.775452 223.182068,691.233521 250.599976,705.569885 
	C270.041809,715.735657 289.951050,725.006104 309.623383,734.733521 
	C313.927582,736.861755 317.999329,739.354675 320.449707,744.732605 
	C313.752625,746.056946 308.136597,743.316650 302.177673,742.138245 
	C308.468048,746.910950 327.737854,752.268494 334.333221,750.932190 
	C332.890839,746.962769 330.474731,743.850769 326.513580,741.225403 
	C333.960938,740.991272 363.237152,758.548157 369.663940,766.641235 
	C368.287903,768.900330 365.833862,769.329224 363.665131,769.238159 
	C354.168884,768.839294 344.820923,770.878845 335.288239,770.499695 
	C328.465240,770.228271 321.584473,771.647522 314.672363,771.745972 
	C330.055481,774.908020 346.044678,768.723206 361.965393,774.596985 
	C357.245514,778.765320 352.119995,779.741821 346.244537,782.048096 
	C355.386993,783.132263 362.871826,780.601013 370.188843,778.380615 
	C377.956543,776.023376 385.028229,775.631531 392.136597,780.140930 
	C394.752838,781.800537 397.861298,782.889221 400.892883,783.649048 
	C408.460632,785.545593 413.276794,790.757812 417.776550,796.482361 
	C416.477173,798.843201 414.122559,799.073669 411.920959,800.218689 
z"/>
<path fill="#000000" opacity="1.000000" stroke="none" 
	d="
M580.552124,811.262451 
	C581.837646,811.824158 582.720276,812.249207 582.636536,813.798706 
	C576.146667,815.543762 569.814453,813.175842 563.447144,813.106262 
	C552.683838,812.988586 541.937256,811.689026 531.170715,811.436218 
	C515.705627,811.072998 500.403778,809.423157 485.195251,806.750732 
	C482.265411,806.235901 479.932800,806.277649 479.660980,810.166992 
	C465.736816,807.964966 452.548309,804.048279 440.056976,797.671753 
	C441.174835,794.472839 444.319611,794.941162 446.508972,793.157471 
	C444.925354,790.468384 446.296265,788.918396 449.065063,787.908630 
	C455.002167,785.743225 460.880829,783.417847 466.814453,781.242798 
	C469.552979,780.239014 472.383911,780.515869 475.184113,781.088928 
	C479.618896,781.996704 484.008514,781.847534 489.110870,780.957581 
	C486.060944,777.333740 481.244080,778.400208 478.268463,774.386597 
	C492.393433,766.751099 504.634888,756.496155 519.231750,750.237976 
	C519.564331,750.622070 519.896912,751.006226 520.229492,751.390320 
	C517.043701,756.303345 513.857910,761.216309 510.672607,766.128479 
	C515.164551,768.982971 520.813416,768.190430 524.171814,764.077759 
	C526.511902,761.212158 530.114624,760.598877 533.231018,759.123230 
	C535.451233,758.071960 537.681519,757.041931 540.703369,755.630615 
	C536.494507,754.243164 533.523438,756.046143 530.462891,756.612549 
	C528.677368,756.942932 526.990845,757.785461 525.211670,758.180786 
	C524.112671,758.424927 522.770935,758.495544 522.154968,757.190613 
	C521.514343,755.833313 522.412964,754.987915 523.474854,754.361877 
	C528.049377,751.664612 532.556580,748.838257 537.239014,746.341675 
	C548.543823,740.314453 561.096680,737.470032 572.869812,732.575684 
	C590.674561,725.173828 608.448608,717.722717 626.053040,709.850830 
	C640.778748,703.266235 655.667725,697.046265 670.498291,690.697327 
	C671.499390,690.268738 672.567688,689.440857 674.730713,691.256653 
	C656.305969,710.074463 633.068298,722.549438 612.918701,739.544312 
	C616.010132,741.360352 615.717773,743.265381 612.949707,744.417419 
	C601.010010,749.386475 590.279297,757.068298 577.562195,760.246521 
	C575.563843,760.745972 573.865112,761.529724 571.872437,763.062683 
	C587.755310,763.859375 603.411804,761.864624 618.727112,765.219299 
	C618.331055,768.105164 616.497253,768.113831 615.089233,769.040466 
	C642.984924,772.961182 670.392395,776.813232 697.799866,780.665344 
	C697.804321,781.331726 697.808777,781.998047 697.813232,782.664368 
	C693.266602,783.234131 688.722412,783.824036 684.172974,784.370239 
	C660.047485,787.267090 635.723938,786.758789 611.547607,788.544006 
	C591.828613,790.000183 572.085449,790.646484 552.352722,791.557617 
	C546.297852,791.837158 540.085327,791.953552 534.001221,790.546692 
	C531.826599,790.043884 529.437988,790.466064 526.959412,791.182434 
	C545.046448,797.062561 562.257263,805.025574 580.552124,811.262451 
z"/>
<path fill="#000000" opacity="1.000000" stroke="none" 
	d="
M513.209045,705.173340 
	C515.999939,703.157166 518.016418,700.572205 522.932861,699.577026 
	C515.448669,714.372253 506.151855,726.553650 496.616852,739.251465 
	C501.301544,740.065796 504.300995,736.195557 508.214111,737.043884 
	C504.730530,746.985779 468.438751,766.221558 450.159851,767.770386 
	C450.459106,763.551941 454.516693,762.224060 456.388153,759.365601 
	C457.814087,757.187744 461.104980,755.626465 457.248138,752.589233 
	C455.993042,751.600769 457.565735,749.824829 458.204865,748.533142 
	C461.902832,741.059448 468.396637,736.285095 475.141235,732.077332 
	C488.256531,723.894897 500.864136,715.044067 513.209045,705.173340 
z"/>
<path fill="#000000" opacity="1.000000" stroke="none" 
	d="
M394.250549,758.635986 
	C383.835632,754.648376 373.492310,751.449341 364.616028,744.929077 
	C361.758423,742.829895 359.346985,740.353455 356.869934,737.907837 
	C351.778168,732.880676 346.963074,727.551025 340.573456,724.041199 
	C339.302917,723.343323 337.904205,722.578369 338.047150,719.715454 
	C346.019653,723.382629 353.622467,726.879700 362.681213,731.046509 
	C356.250275,717.888794 350.130646,706.082581 345.261993,693.643372 
	C348.953461,692.312134 350.416870,694.167053 351.852570,695.659424 
	C362.946472,707.190979 375.577545,716.989441 387.608307,727.462830 
	C389.657013,729.246277 391.409821,731.246826 392.502075,733.684082 
	C393.882385,736.763977 394.447540,739.717773 389.548920,739.693542 
	C392.659882,746.550171 396.503937,752.925903 400.351929,759.167603 
	C397.744019,761.659790 396.300140,759.297852 394.250549,758.635986 
z"/>
<path fill="#000000" opacity="1.000000" stroke="none" 
	d="
M173.934448,761.373047 
	C166.880203,759.434143 160.563721,756.411316 153.486786,755.982910 
	C153.432953,755.367676 153.379120,754.752441 153.325272,754.137207 
	C163.297913,752.312805 173.205627,749.754700 183.260971,748.864746 
	C193.880997,747.924988 203.007004,753.245728 212.575073,759.137756 
	C199.640945,764.052063 187.244064,766.170166 173.934448,761.373047 
z"/>
<path fill="#000000" opacity="1.000000" stroke="none" 
	d="
M491.221222,705.150085 
	C482.787354,715.789368 473.374634,721.536865 460.409546,723.677979 
	C464.607574,715.799622 467.206818,707.580505 473.893463,702.162231 
	C481.384827,696.091858 491.280365,694.330322 499.415649,688.814514 
	C498.688019,695.403198 494.742584,699.969299 491.221222,705.150085 
z"/>
<path fill="#000000" opacity="1.000000" stroke="none" 
	d="
M654.523010,660.459351 
	C663.459717,652.855713 674.595459,653.087952 685.082703,649.383179 
	C682.311279,659.827332 672.079834,673.302002 643.462585,675.511597 
	C646.759583,669.891052 650.015198,664.968811 654.523010,660.459351 
z"/>
<path fill="#000000" opacity="1.000000" stroke="none" 
	d="
M328.265930,685.053223 
	C329.587524,688.447876 331.324554,691.411926 329.646851,694.824280 
	C318.393158,692.532227 312.016937,685.139771 310.134979,671.873840 
	C318.067169,673.826416 325.104370,676.308350 328.265930,685.053223 
z"/>
<path fill="#000000" opacity="1.000000" stroke="none" 
	d="
M561.674438,794.467529 
	C563.913147,795.054443 565.863525,795.446716 566.998901,797.365906 
	C560.531067,799.571106 555.824341,798.712463 553.037720,794.691040 
	C555.756836,792.582703 558.526001,793.178955 561.674438,794.467529 
z"/>
<path fill="#000000" opacity="1.000000" stroke="none" 
	d="
M537.558594,736.757812 
	C532.861267,738.412537 529.618103,742.655518 523.723267,742.536804 
	C527.211670,738.054504 531.683411,736.462463 536.076538,734.845154 
	C536.681824,734.622314 539.454773,733.717224 537.558594,736.757812 
z"/>
<path fill="#000000" opacity="1.000000" stroke="none" 
	d="
M334.293213,733.610229 
	C335.941071,734.722290 337.420990,735.530884 337.810608,738.059021 
	C333.060120,738.138611 330.258759,735.004761 326.442871,732.734314 
	C329.785645,730.103638 331.743195,732.785706 334.293213,733.610229 
z"/>
<path fill="#000000" opacity="1.000000" stroke="none" 
	d="
M409.226166,812.549561 
	C408.416840,814.696411 408.416840,814.696411 403.801422,813.423279 
	C404.123047,810.925415 405.549957,809.669006 408.036163,809.759888 
	C410.009064,809.832031 409.077942,811.309753 409.226166,812.549561 
z"/>
<path fill="#000000" opacity="1.000000" stroke="none" 
	d="
M442.127197,805.770325 
	C444.499481,806.215820 446.354492,806.804688 446.490753,809.609985 
	C443.609222,811.179077 441.653564,809.400330 439.618103,807.967896 
	C439.449371,806.190186 440.584747,805.968140 442.127197,805.770325 
z"/>
<path fill="#000000" opacity="1.000000" stroke="none" 
	d="
M344.934998,739.286987 
	C346.525574,740.266296 346.624420,741.473145 346.529114,743.178345 
	C343.242706,742.539001 341.128540,740.822632 339.220490,738.410156 
	C341.466644,737.226990 342.931854,738.950317 344.934998,739.286987 
z"/>
</svg>