<svg version="1.1" id="Layer_1" xmlns="http://www.w3.org/2000/svg" xmlns:xlink="http://www.w3.org/1999/xlink" x="0px" y="0px"
	 width="100%" viewBox="0 0 1024 1024" enable-background="new 0 0 1024 1024" xml:space="preserve">
<path fill="#000000" opacity="1.000000" stroke="none" 
	d="
M384.301086,142.176392 
	C404.791595,135.190811 425.257751,129.835632 446.300934,126.504684 
	C469.991425,122.754684 493.783142,120.778488 517.714661,121.752762 
	C540.194031,122.667908 562.616699,124.179016 584.877686,128.194809 
	C608.763184,132.503677 631.989319,138.751648 654.556580,147.585663 
	C676.267578,156.084473 697.040955,166.441864 717.012390,178.491959 
	C740.280457,192.531219 761.887878,208.737976 781.676575,227.329330 
	C789.904480,235.059464 798.049500,242.939545 805.585999,251.331772 
	C824.456848,272.345306 841.681458,294.594879 855.371033,319.451813 
	C869.686523,345.445160 881.692322,372.383636 890.014709,400.906616 
	C895.728271,420.488098 899.892456,440.365204 902.490967,460.627228 
	C904.944397,479.757874 906.543213,498.932434 906.225769,518.182312 
	C905.930725,536.076050 903.884277,553.879639 901.145447,571.577637 
	C896.768799,599.858459 889.155762,627.298340 879.474854,654.186768 
	C869.801147,681.055237 856.890076,706.331787 841.188782,730.136719 
	C828.480957,749.403320 814.330994,767.546143 798.376465,784.326294 
	C770.709473,813.425171 739.495789,837.783630 704.496765,857.479614 
	C683.986389,869.021973 662.643433,878.616272 640.435791,886.161926 
	C618.917725,893.473083 596.877808,898.752747 574.210876,901.548767 
	C553.278015,904.130981 532.310547,906.057251 511.274200,905.202271 
	C494.246643,904.510132 477.208344,903.875244 460.198883,901.728027 
	C438.245178,898.956604 416.726288,894.668152 395.587280,888.330872 
	C380.152039,883.703430 365.258636,877.587158 350.635864,870.857788 
	C335.234650,863.770081 320.218475,855.870850 305.902008,846.809692 
	C290.895233,837.311584 276.706207,826.641418 263.020996,815.265808 
	C254.578110,808.247864 246.506729,800.823975 238.580276,793.295898 
	C229.803345,784.960144 221.679535,775.877136 213.808762,766.660583 
	C201.303513,752.017151 189.836426,736.540710 179.673782,720.171326 
	C165.348495,697.096741 153.717194,672.679993 144.757568,647.044861 
	C135.887451,621.665894 128.955261,595.752075 124.833191,569.154297 
	C120.826630,543.301819 119.332092,517.208313 120.886253,491.158905 
	C122.815918,458.815704 128.986359,427.122009 138.537155,396.066040 
	C149.128342,361.626984 164.144394,329.377228 184.589706,299.723511 
	C196.089447,283.044373 208.497879,267.088043 222.314407,252.177521 
	C233.079178,240.560410 244.026962,229.164108 255.989456,218.826004 
	C277.777893,199.996231 300.937775,183.058411 326.023102,168.767807 
	C344.560181,158.207626 363.768585,149.249420 384.301086,142.176392 
M380.496246,729.323547 
	C377.175049,728.278503 373.831818,727.297974 370.537140,726.175232 
	C363.396698,723.741821 361.926208,719.256226 365.977631,712.709595 
	C369.551849,706.934021 374.538361,702.738525 380.336975,699.338318 
	C392.786957,692.037720 406.704681,690.619995 420.593903,689.791626 
	C430.000214,689.230591 439.417542,690.856262 448.671783,692.759338 
	C462.917053,695.688660 475.960876,701.029602 486.365509,711.727844 
	C490.093445,715.560974 491.730194,720.801697 495.482056,724.938538 
	C496.978516,723.025757 496.592407,721.152527 496.635101,719.397766 
	C496.910278,708.090454 495.317413,696.872131 494.886322,685.623901 
	C494.186981,667.375977 492.802887,649.185425 491.555908,630.984070 
	C491.002808,622.910767 489.948700,614.839722 487.936371,606.940430 
	C484.897522,595.011658 475.370453,588.434937 466.540680,581.539062 
	C451.049072,569.440369 435.583893,557.291504 423.668732,541.508423 
	C401.622711,512.305725 389.392975,480.044830 393.499237,442.653748 
	C395.422211,425.143524 399.974304,408.417358 406.426147,392.200989 
	C417.129761,365.298096 432.807800,341.268524 450.240326,318.299988 
	C468.056976,294.825348 484.566559,270.510590 497.525116,243.932755 
	C500.877808,237.056381 504.132874,230.132477 508.006134,223.503143 
	C510.377716,219.443985 513.461243,218.738052 517.640686,219.641617 
	C521.172119,220.405060 522.838135,223.035965 524.438538,225.763779 
	C538.133606,249.105881 551.745300,272.497040 565.481323,295.814941 
	C581.076904,322.289459 596.579834,348.852264 607.303833,377.753967 
	C617.237061,404.524200 623.374939,432.005737 620.478821,460.965271 
	C618.639954,479.353088 613.831909,496.876373 606.167419,513.522339 
	C592.497620,543.210938 571.333618,567.026489 546.475159,587.850830 
	C538.820862,594.262939 533.701843,602.124695 534.288452,612.830017 
	C534.943237,624.778076 534.511536,636.749084 535.026184,648.729553 
	C535.617493,662.494629 536.603760,676.288574 536.369324,690.103638 
	C536.154846,702.743408 537.918640,715.332947 537.461609,727.999756 
	C537.353577,730.993835 538.417236,734.030212 538.924377,736.946228 
	C540.913818,737.003723 541.388367,735.945862 541.947205,734.887512 
	C544.199951,730.621155 546.545898,726.403687 548.772766,722.124146 
	C556.219299,707.813232 566.981079,696.388550 579.903137,686.998901 
	C598.540588,673.456421 619.513245,665.251160 642.223083,662.105530 
	C649.951355,661.035095 657.940125,659.441406 665.953735,661.664978 
	C673.278625,663.697388 675.026428,666.704163 671.814514,673.582214 
	C667.877686,682.012939 664.001831,690.481750 659.742798,698.750305 
	C650.378418,716.930603 636.569824,730.815613 619.234985,741.717468 
	C604.229187,751.154785 587.707642,757.421082 572.231384,765.846558 
	C554.639648,775.423767 542.282837,788.576416 538.291809,808.776489 
	C535.763794,821.571655 535.307556,834.451721 535.244629,847.426086 
	C535.221863,852.109924 536.425110,853.937927 541.389587,853.731750 
	C561.375732,852.901733 580.790833,848.747864 600.049866,843.847473 
	C627.555908,836.848389 653.775635,826.515198 678.565918,812.594116 
	C710.209900,794.824341 738.651306,773.049133 763.362732,746.361084 
	C777.751038,730.821716 790.271790,713.949768 801.768555,696.229614 
	C811.307739,681.526733 819.425903,666.048950 826.254089,649.969238 
	C836.590271,625.628662 844.524597,600.497864 849.704224,574.495667 
	C852.591553,560.000671 855.114319,545.399170 855.414124,530.708740 
	C855.820374,510.800781 856.417114,490.865936 853.890015,470.925690 
	C851.547607,452.442902 848.053345,434.290894 842.821167,416.466400 
	C835.113708,390.208984 823.787537,365.556854 810.003479,341.910645 
	C794.225525,314.844147 774.185547,291.278381 751.832275,269.619049 
	C737.038696,255.284760 721.260132,242.082687 704.280762,230.262833 
	C683.849731,216.040237 662.199524,204.225037 638.987122,195.416702 
	C612.412231,185.332428 585.019897,178.469330 556.697083,175.074265 
	C540.701904,173.156937 524.671875,172.453827 508.645721,171.330978 
	C503.270050,170.954346 498.063171,172.609039 492.755402,172.340591 
	C479.880829,171.689468 467.181976,173.663818 454.620209,175.672745 
	C426.352386,180.193420 399.010559,188.046188 372.841675,200.014740 
	C343.783630,213.304703 317.015228,230.084900 292.530121,250.526398 
	C276.960999,263.524292 263.062714,278.198456 250.236923,293.900024 
	C232.951218,315.061554 218.004562,337.776123 205.608627,362.106750 
	C195.256897,382.425049 187.446732,403.739563 181.224548,425.704498 
	C174.210693,450.464142 171.363815,475.757477 170.439423,501.317230 
	C170.049591,512.096436 170.414383,522.894043 171.175659,533.707764 
	C172.085205,546.627258 173.424866,559.487305 175.783234,572.163147 
	C179.668549,593.046021 185.249695,613.507446 192.764587,633.445801 
	C200.118317,652.956543 209.370682,671.501526 219.761047,689.521118 
	C228.078323,703.945496 238.254150,717.049133 248.664078,729.981384 
	C262.738190,747.465576 277.978973,763.959473 295.507965,777.911804 
	C322.623413,799.494507 352.106781,817.361816 384.280090,830.626831 
	C417.395020,844.279968 451.631989,852.557251 487.539215,853.800903 
	C492.295227,853.965576 492.709015,852.240540 492.701141,848.478455 
	C492.668793,833.023193 493.033020,817.552979 490.607056,802.215637 
	C489.036163,792.283997 486.487671,782.618835 479.556976,774.931091 
	C469.450989,763.721191 456.704254,756.273071 443.008667,750.327576 
	C423.020172,741.650330 402.206268,735.397766 380.496246,729.323547 
M515.659119,512.548279 
	C516.907959,499.688721 518.181702,486.833557 518.685364,473.912659 
	C518.911194,468.118805 519.303650,462.322968 519.869629,456.552460 
	C521.291687,442.053314 523.176208,427.581116 523.582520,413.013062 
	C524.026978,397.076355 524.003662,381.110535 521.552490,365.295471 
	C520.906738,361.129364 521.064331,356.510925 517.824402,352.992279 
	C515.820374,354.301483 515.589844,355.873444 515.341675,357.576202 
	C512.907043,374.278015 512.225220,391.177917 509.416779,407.845886 
	C506.256073,426.604828 503.334351,445.408020 500.625702,464.237549 
	C499.188873,474.225769 497.993958,484.287964 497.464111,494.357513 
	C496.800995,506.959686 497.107025,519.611816 499.431366,532.077454 
	C500.715149,538.962341 502.266754,545.838562 505.730469,552.342590 
	C510.246582,547.718079 515.204590,527.553833 515.659119,512.548279 
z"/>
<path fill="#000000" opacity="1.000000" stroke="none" 
	d="
M717.706299,578.616821 
	C733.226440,583.993530 748.378357,589.351624 763.581360,594.560852 
	C767.442627,595.883972 770.810425,597.906738 773.778320,600.592529 
	C778.344360,604.724609 779.637146,610.718750 777.171997,615.445679 
	C774.145752,621.248596 768.954712,624.025269 762.619690,622.035278 
	C743.665039,616.081177 724.754578,609.961243 705.992065,603.431458 
	C696.632996,600.174316 686.960327,597.598755 678.223938,592.697449 
	C669.521240,587.815063 667.864380,576.083801 675.133240,570.639648 
	C679.279297,567.534424 683.979004,568.304382 688.533386,569.297241 
	C698.428467,571.454468 707.763794,575.411804 717.706299,578.616821 
z"/>
<path fill="#000000" opacity="1.000000" stroke="none" 
	d="
M710.666016,453.509705 
	C732.382996,446.091187 753.592102,438.367554 775.832825,434.061432 
	C782.297852,432.809723 787.729309,434.825928 790.393433,439.873688 
	C794.117615,446.929810 791.984436,453.157166 784.022095,457.000580 
	C773.994873,461.840607 763.297485,464.991516 752.694641,468.240723 
	C737.163025,473.000336 721.467468,477.224823 705.841064,481.674988 
	C702.335144,482.673370 698.793579,483.502014 695.115845,483.337036 
	C691.022034,483.153473 687.759949,481.511749 685.839539,477.717133 
	C683.813782,473.714447 684.400146,470.000641 687.173889,466.577789 
	C693.155823,459.195862 701.846069,456.623810 710.666016,453.509705 
z"/>
<path fill="#000000" opacity="1.000000" stroke="none" 
	d="
M238.300385,453.734711 
	C233.230164,449.198792 232.453873,445.159943 234.703430,438.759308 
	C236.541016,433.530823 240.401550,432.634338 245.331299,432.576172 
	C253.878372,432.475342 261.480408,436.069397 269.371918,438.331085 
	C287.182892,443.435608 304.914185,448.908966 322.021637,456.090637 
	C327.462860,458.374817 332.898712,461.170959 335.816864,466.930817 
	C339.790375,474.773834 334.632294,483.229309 325.812012,483.360565 
	C319.530334,483.454041 313.785309,481.215393 307.985474,479.299927 
	C286.290588,472.134766 264.473785,465.316650 243.278381,456.710632 
	C241.537964,456.003998 240.035339,455.095154 238.300385,453.734711 
z"/>
<path fill="#000000" opacity="1.000000" stroke="none" 
	d="
M335.530640,595.745117 
	C314.268921,604.227356 293.050079,611.691467 271.585632,618.470276 
	C267.054535,619.901245 262.794220,622.325745 257.731903,620.249573 
	C250.775955,617.396790 248.386642,610.188110 252.093613,603.562866 
	C255.458923,597.548218 261.189758,594.774902 267.041077,592.536133 
	C286.085022,585.250000 305.282745,578.366211 324.405609,571.285278 
	C328.387604,569.810791 332.470398,569.367859 336.655579,569.702576 
	C342.395660,570.161682 347.981018,574.443604 349.047119,579.673523 
	C350.170044,585.182312 346.673279,588.808777 342.858032,591.869507 
	C340.839111,593.489197 338.219025,594.359558 335.530640,595.745117 
z"/>
<path fill="#000000" opacity="1.000000" stroke="none" 
	d="
M331.202759,300.770844 
	C338.760162,301.600464 344.227631,306.007202 349.288300,310.348999 
	C359.588013,319.185577 368.512878,329.227417 371.638855,343.134277 
	C372.385773,346.457275 372.925537,349.746460 371.654907,352.903046 
	C368.527496,360.672150 359.279449,361.472473 352.973877,354.365753 
	C347.479584,348.173370 342.419464,341.597992 337.054535,335.287903 
	C332.426666,329.844788 328.027313,324.283173 324.482208,318.029358 
	C319.250763,308.800629 320.877167,304.086823 331.202759,300.770844 
z"/>
<path fill="#000000" opacity="1.000000" stroke="none" 
	d="
M684.077148,343.070099 
	C678.822815,349.259033 674.443848,355.833344 667.823486,360.183411 
	C663.244751,363.191956 658.616882,362.858490 654.485901,359.432526 
	C650.919067,356.474457 650.226685,352.808655 651.465271,348.249023 
	C655.084656,334.925323 664.306458,325.587952 673.766602,316.497559 
	C677.562012,312.850464 681.322815,309.011597 686.087341,306.432617 
	C693.359253,302.496338 699.623657,304.386841 702.601868,311.272614 
	C703.924316,314.330139 702.697998,316.779755 701.688110,319.367126 
	C698.025696,328.750214 690.802429,335.508575 684.077148,343.070099 
z"/>
</svg>