<?xml version="1.0" encoding="utf-8"?>
<!-- Generator: Adobe Illustrator 16.0.0, SVG Export Plug-In . SVG Version: 6.00 Build 0)  -->
<!DOCTYPE svg PUBLIC "-//W3C//DTD SVG 1.1//EN" "http://www.w3.org/Graphics/SVG/1.1/DTD/svg11.dtd">
<svg version="1.1" id="Layer_1" xmlns="http://www.w3.org/2000/svg" xmlns:xlink="http://www.w3.org/1999/xlink" x="0px" y="0px"
	 width="300px" height="300px" viewBox="0 0 300 300" enable-background="new 0 0 300 300" xml:space="preserve">
<g>
	<path fill-rule="evenodd" clip-rule="evenodd" d="M151.323,10.484c0.149,0.974,0.145,1.636,0.358,2.218
		c2.809,7.677,5.665,15.338,8.472,23.016c1.019,2.789,1.899,5.628,2.938,8.409c0.167,0.447,0.791,0.894,1.285,1.021
		c8.374,2.157,16.768,4.233,25.142,6.389c5.977,1.539,11.933,3.156,17.89,4.77c0.892,0.241,1.798,0.551,2.593,1.009
		c2.806,1.617,4.95,0.116,7.208-1.309c6.113-3.858,12.266-7.652,18.414-11.452c3.951-2.442,7.927-4.845,11.884-7.276
		c1.274-0.783,2.727-1.419,3.963-0.393c1.222,1.015,1.303,2.557,0.757,4.131c-2.612,7.535-5.173,15.087-7.758,22.632
		c-1.061,3.097-2.237,6.159-3.13,9.303c-0.207,0.729,0.303,1.941,0.882,2.557c1.179,1.254,2.718,2.164,3.95,3.376
		c2.554,2.514,4.178,5.442,4.045,9.214c-0.237,6.751-0.412,13.507-0.468,20.262c-0.036,4.396,0.185,8.795,0.287,13.193
		c0.034,1.458,0.948,2.168,2.195,2.584c5.645,1.884,11.319,3.682,16.928,5.667c5.491,1.943,10.936,4.024,16.35,6.171
		c1,0.396,2.133,1.231,2.547,2.158c0.779,1.74-0.004,3.045-2.101,3.89c-3.342,1.345-6.749,2.528-10.109,3.827
		c-8.724,3.37-17.433,6.776-26.158,10.139c-1.577,0.608-2.079,1.601-2.313,3.334c-0.642,4.768-1.54,9.516-2.615,14.207
		c-1.035,4.513-2.412,8.947-3.654,13.412c-0.396,1.42-0.917,2.81-1.228,4.246c-0.124,0.573-0.057,1.45,0.303,1.826
		c4.918,5.134,9.956,10.151,14.854,15.303c4.857,5.109,9.622,10.309,14.335,15.551c0.653,0.728,1.256,2.057,1.039,2.887
		c-0.363,1.394-1.845,1.721-3.237,1.572c-2.58-0.275-5.154-0.61-7.73-0.924c-0.123-0.015-0.241-0.069-0.363-0.082
		c-4.069-0.426-8.14-0.84-12.208-1.275c-3.754-0.4-7.501-0.867-11.259-1.221c-3.059-0.289-6.127-0.51-9.196-0.623
		c-0.55-0.02-1.257,0.518-1.665,0.992c-3.433,3.988-6.854,7.986-10.199,12.049c-6.131,7.449-12.925,14.241-20.14,20.63
		c-2.366,2.096-4.582,4.379-7.073,6.309c-2.307,1.786-4.891,3.214-7.351,4.802c-0.407,0.263-0.988,0.442-1.183,0.818
		c-1.859,3.606-5.211,5.642-8.434,7.637c-6.264,3.877-12.729,7.43-19.118,11.106c-0.807,0.465-1.489,0.679-2.514,0.063
		c-3.93-2.362-8.064-4.39-11.954-6.813c-6.41-3.995-13.017-7.781-18.94-12.423c-7.39-5.79-14.234-12.287-21.197-18.608
		c-7.795-7.078-14.536-15.142-21.224-23.243c-0.591-0.716-1.172-1.489-1.915-2.013c-0.66-0.465-1.561-0.919-2.316-0.862
		c-5.547,0.412-11.088,0.924-16.625,1.463c-5.489,0.534-10.97,1.161-16.459,1.696c-2.41,0.235-4.834,0.478-7.249,0.444
		c-0.961-0.013-2.488-0.555-2.731-1.227c-0.349-0.965-0.139-2.573,0.5-3.373c2.239-2.8,4.72-5.412,7.19-8.02
		c4.642-4.898,9.319-9.764,14.024-14.602c1.983-2.039,4.078-3.971,6.115-5.959c2.2-2.146,2.224-3.446,1.31-6.324
		c-1.551-4.881-2.938-9.832-4.056-14.829c-0.945-4.227-1.413-8.56-2.091-12.846c-0.058-0.365-0.19-0.739-0.15-1.095
		c0.34-3.042-1.529-4.188-4.019-5.119c-9.407-3.52-18.768-7.162-28.146-10.758c-2.201-0.844-4.482-1.533-6.564-2.608
		c-0.951-0.491-1.927-1.672-2.103-2.678c-0.132-0.757,0.79-2.146,1.592-2.538c2.832-1.382,5.777-2.556,8.744-3.629
		c8.565-3.1,17.154-6.133,25.75-9.144c2.317-0.812,2.108-2.93,2.221-4.573c0.25-3.63,0.099-7.29,0.05-10.937
		c-0.09-6.688-0.242-13.376-0.335-20.064c-0.054-3.869,1.828-6.825,4.595-9.309c1.248-1.121,2.639-2.093,3.803-3.29
		c0.501-0.516,0.984-1.55,0.805-2.147c-1.369-4.556-2.812-9.095-4.408-13.576c-2.306-6.473-4.838-12.867-7.064-19.365
		c-0.322-0.941,0.18-2.653,0.92-3.321c0.632-0.57,2.321-0.518,3.247-0.094c1.594,0.729,2.899,2.058,4.428,2.963
		c6.119,3.624,12.309,7.131,18.409,10.786c3.346,2.005,6.672,4.076,9.798,6.399c1.703,1.266,3.287,1.186,5.049,0.715
		c4.719-1.263,9.432-2.551,14.14-3.855c9.895-2.742,19.781-5.515,29.682-8.233c1.317-0.362,2.147-1.02,2.607-2.335
		c1.795-5.131,3.592-10.262,5.514-15.347c2.032-5.376,4.135-10.728,6.354-16.029c0.888-2.122,2.188-3.123,4.435-1.651
		C150.766,10.429,151.172,10.443,151.323,10.484z M139.494,59.746c-1.183-2.295-5.679-4.243-7.846-3.658
		c-6.926,1.869-13.837,3.796-20.776,5.614c-6.656,1.744-13.347,3.351-20.007,5.08c-2.827,0.734-6.057,1.334-7.509,4.04
		c-1.783,3.323-4.829,4.829-7.649,6.748c-1.224,0.833-2.497,1.762-3.886,2.151c-4.501,1.261-8.278,3.866-12.184,6.232
		c-1.289,0.78-1.665,4.64-0.72,5.841c1.844,2.344,1.84,4.401,0.121,6.904c-0.355,0.516-0.513,1.262-0.52,1.905
		c-0.029,2.581-0.014,5.164,0.077,7.742c0.295,8.352,0.486,16.711,0.988,25.052c0.73,12.133,1.586,24.27,4.085,36.202
		c1.356,6.475,2.438,13.077,4.575,19.302c3.457,10.067,9.05,19.111,15.332,27.69c1.428,1.95,3.075,3.74,4.599,5.621
		c1.51,1.865,3.081,3.689,4.461,5.647c1.241,1.761,3.12,2.804,4.448,4.544c2.163,2.837,4.786,5.379,7.482,7.742
		c5.847,5.125,11.798,10.137,17.834,15.039c3.652,2.966,7.461,5.758,11.347,8.412c4.189,2.861,8.597,5.402,12.811,8.229
		c1.25,0.838,2.178,0.843,3.366,0.092c4.871-3.079,9.767-6.119,14.655-9.172c9.813-6.13,19.313-12.688,27.658-20.76
		c3.783-3.659,7.616-7.313,10.997-11.331c5.041-5.991,9.831-12.205,14.471-18.515c2.445-3.326,4.379-7.034,6.481-10.606
		c2.736-4.647,5.057-9.435,5.938-14.869c0.629-3.879,1.774-7.672,2.625-11.518c1.151-5.202,2.441-10.384,3.301-15.635
		c0.907-5.543,1.429-11.152,2.025-16.742c0.617-5.784,1.173-11.576,1.636-17.375c0.097-1.212,0.021-2.692-0.594-3.653
		c-1.094-1.712-1.314-5.292-0.124-7.012c0.526-0.762,0.957-1.748,1.011-2.656c0.391-6.607,0.671-13.221,0.991-19.832
		c0.086-1.774-0.326-3.394-1.869-4.403c-2.676-1.751-5.435-3.376-8.151-5.065c-3.932-2.445-7.82-4.963-11.8-7.327
		c-2.358-1.4-3.931-3.458-5.457-5.623c-0.418-0.594-0.953-1.294-1.586-1.517c-2.729-0.958-5.482-1.893-8.289-2.585
		c-5.172-1.276-10.42-2.251-15.579-3.579c-7.925-2.041-15.792-4.308-23.715-6.363c-0.723-0.188-1.719,0.365-2.491,0.763
		c-1.128,0.581-2.177,1.317-3.238,2.019c-0.399,0.265-0.739,0.62-1.363,1.152c1.603,0.431,2.771,0.77,3.95,1.06
		c7.472,1.841,15.219,2.734,22.112,6.57c0.688,0.382,2.063,0.482,2.578,0.058c2.309-1.899,4.675-0.93,6.311,0.384
		c2.192,1.761,4.626,1.934,7.071,2.396c4.919,0.931,9.616,2.023,12.587,6.758c1.996,3.183,4.9,5.567,8.337,7.208
		c4.367,2.084,8.713,4.216,13.123,6.204c1.147,0.517,1.424,1.157,1.326,2.286c-0.155,1.791-0.25,3.59-0.282,5.387
		c-0.086,4.865-0.025,9.734-0.213,14.595c-0.187,4.846-0.583,9.686-0.926,14.526c-0.537,7.583-1.104,15.165-1.665,22.747
		c-0.129,1.728-0.129,3.484-0.457,5.175c-1.266,6.528-2.656,13.033-3.968,19.553c-0.544,2.705-0.275,5.755-3.323,7.329
		c-0.174,0.089-0.26,0.409-0.322,0.64c-0.507,1.856-1.58,3.638-0.657,5.687c0.142,0.313-0.064,0.861-0.249,1.231
		c-2.021,4.034-3.928,8.136-6.136,12.066c-6.846,12.183-15.605,22.903-25.528,32.688c-2.531,2.496-5.205,4.869-7.97,7.105
		c-3.896,3.149-7.819,6.289-11.942,9.127c-7.08,4.874-14.325,9.509-21.497,14.252c-0.898,0.594-1.685,0.469-2.537-0.144
		c-7.954-5.724-16.089-11.211-23.833-17.204c-6.212-4.808-12.057-10.11-17.861-15.417c-2.98-2.726-6.104-5.436-7.556-9.504
		c-0.319-0.893-1.694-1.963-2.588-1.968c-1.437-0.009-2.161-0.497-2.827-1.597c-3.396-5.604-6.926-11.131-10.201-16.804
		c-2.003-3.47-3.989-7.025-5.344-10.773c-2.037-5.63-3.742-11.406-5.16-17.225c-1.206-4.949-1.748-10.057-2.724-15.067
		c-0.178-0.917-1.104-1.665-1.543-2.56c-0.368-0.749-0.989-2.002-0.7-2.333c1.153-1.32,0.65-2.668,0.512-4.035
		c-0.138-1.355-0.356-2.703-0.465-4.06c-0.376-4.681-0.79-9.36-1.058-14.048c-0.309-5.399-0.517-10.806-0.696-16.211
		c-0.172-5.19-0.268-10.383-0.365-15.576c-0.051-2.729-0.142-5.467,0.014-8.188c0.057-0.992,0.507-2.412,1.239-2.833
		c2.399-1.38,4.998-2.417,7.543-3.535c4.54-1.993,8.463-4.83,11.809-8.48c1.608-1.754,2.841-3.922,5.495-4.453
		c2.053-0.411,4.063-1.038,6.091-1.57c4.134-1.084,8.266-2.179,12.402-3.253c4.552-1.182,9.137-2.246,13.653-3.548
		c4.268-1.231,9.021-0.926,12.739-3.947c0.162-0.131,0.473-0.073,0.712-0.116C137.409,60.132,138.353,59.956,139.494,59.746z
		 M149.308,28.167c-1.498,9.032-2.51,18.094-1.763,27.296c3.161,0.736,5.539-0.689,7.829-2.532c1.083-0.871,1.049-1.801,0.676-2.969
		c-0.769-2.409-1.48-4.837-2.158-7.273C152.543,37.837,152.203,32.689,149.308,28.167z M25.572,137.532
		c-0.024,0.192-0.048,0.384-0.072,0.577c0.476,0.201,0.937,0.525,1.429,0.583c2.101,0.244,4.213,0.384,6.316,0.609
		c4.245,0.454,8.484,0.965,12.732,1.394c1.163,0.118,2.378,0.183,3.509-0.037c0.637-0.124,1.464-0.777,1.655-1.369
		c0.368-1.146,0.53-2.429,0.448-3.632c-0.173-2.534-2.211-3.803-4.696-3.223c-5.024,1.174-10.07,2.257-15.095,3.429
		C29.706,136.351,27.646,136.972,25.572,137.532z M252.778,217.801c0.15-0.204,0.301-0.408,0.451-0.613
		c-2.412-2.573-4.671-5.316-7.278-7.674c-2.645-2.392-5.676-4.351-8.461-6.595c-3.063-2.469-3.025-2.516-5.503,0.073
		c-2.586,2.702-2.306,4.634,1.01,6.157c3.697,1.697,7.443,3.29,11.173,4.919C247.036,215.32,249.908,216.558,252.778,217.801z
		 M239.628,50.688c-0.106-0.065-0.213-0.13-0.319-0.195c-6.037,4.222-12.095,8.416-18.078,12.712
		c-0.558,0.4-0.858,1.438-0.913,2.206c-0.17,2.374,1.569,3.485,3.245,4.694c1.111,0.801,2.026,0.538,2.865-0.149
		c0.896-0.735,1.728-1.6,2.41-2.536c1.968-2.697,3.931-5.405,5.735-8.21C236.359,56.433,237.951,53.533,239.628,50.688z
		 M58.823,50.538c0.201,0.524,0.26,0.802,0.4,1.029c3.679,5.989,7.319,12.002,11.074,17.943c1.484,2.348,3.493,2.541,5.457,0.504
		c0.994-1.031,1.72-2.415,2.24-3.765c0.223-0.579-0.156-1.744-0.661-2.182c-1.424-1.237-3.071-2.214-4.602-3.332
		C68.179,57.413,63.64,54.072,58.823,50.538z M44.215,217.935c0.059,0.058,0.118,0.116,0.177,0.175
		c2.318-0.93,4.642-1.844,6.952-2.791c5.15-2.112,10.277-4.281,15.448-6.339c1.659-0.659,1.607-1.708,0.928-2.921
		c-0.629-1.125-1.433-2.152-2.175-3.212c-1.229-1.753-2.852-1.975-4.403-0.561c-1.135,1.034-2.193,2.152-3.324,3.191
		C53.292,209.639,48.75,213.783,44.215,217.935z M271.624,138.848c0.11-0.252,0.222-0.504,0.332-0.756
		c-0.484-0.411-0.907-1.016-1.466-1.192c-1.236-0.392-2.543-0.554-3.816-0.833c-5-1.095-10.02-2.115-14.988-3.336
		c-2.589-0.637-3.011-0.675-4.195,1.762c-0.471,0.966-0.763,2.115-0.777,3.186c-0.029,2.056,1.227,3.165,3.288,3.046
		c1.782-0.103,3.555-0.37,5.335-0.522C260.765,139.739,266.194,139.298,271.624,138.848z M213.91,99.619
		c0.476-2.303-0.108-3.575-1.854-3.812C212.595,97.157,211.699,99.082,213.91,99.619z M95.829,119.138
		c-0.091,0.25-0.182,0.5-0.272,0.75c0.759,0.675,1.518,1.351,2.276,2.026c0.201-0.118,0.401-0.236,0.602-0.354
		c-0.209-0.654-0.242-1.496-0.679-1.907C97.328,119.251,96.487,119.291,95.829,119.138z M116.055,219.104
		c0.655-0.726,1.002-1.109,1.35-1.493c-0.714-0.464,0.248-2.551-1.83-1.812C115.707,216.712,115.834,217.588,116.055,219.104z
		 M188.219,207.383c0.259,0.106,0.518,0.213,0.776,0.318c0.34-0.798,0.679-1.596,1.019-2.394c-0.33-0.024-0.892-0.168-0.951-0.055
		C188.717,205.93,188.487,206.667,188.219,207.383z"/>
</g>
<g>
</g>
<g>
</g>
<g>
</g>
<g>
</g>
<g>
</g>
<g>
</g>
</svg>
