<svg version="1.1" id="Layer_1" xmlns="http://www.w3.org/2000/svg" xmlns:xlink="http://www.w3.org/1999/xlink" x="0px" y="0px"
	width="1024px" height="1024px" viewBox="128 128 768 768" enable-background="new 0 0 1024 1024" xml:space="preserve">
<path fill="#000000" opacity="1.000000" stroke="none" 
	d="
M563.348572,743.991089 
	C562.650635,757.634277 563.541992,770.817078 562.395081,783.953003 
	C561.594788,793.119873 566.159302,799.751282 572.654297,805.462585 
	C578.467834,810.574524 579.505310,816.893127 577.294067,824.031860 
	C571.973694,841.208313 559.847229,851.610168 543.692993,858.186768 
	C533.949402,862.153503 524.096497,865.070129 513.436340,865.510315 
	C502.608307,865.957581 492.396851,863.766602 482.415283,860.087708 
	C472.657349,856.491211 464.086823,850.925293 456.449066,843.823608 
	C449.850769,837.688416 446.448181,829.634888 444.018829,821.478333 
	C441.947388,814.523376 446.549652,808.569092 451.145050,803.739685 
	C459.323547,795.144775 461.259674,785.043030 460.908630,773.636658 
	C460.525665,761.193726 459.734680,748.687317 461.475098,736.250854 
	C461.635864,735.102173 461.840942,733.873413 461.608917,732.769409 
	C459.485138,722.663879 462.495605,712.548767 461.550812,702.496338 
	C460.801727,694.526001 461.277679,686.515930 460.477081,678.614807 
	C459.546722,669.433105 456.965546,667.983459 446.800446,666.610229 
	C437.182098,665.310974 427.329712,665.796509 417.587921,665.335083 
	C413.173187,665.125916 411.007477,666.708984 411.326569,671.365112 
	C411.932434,680.204834 409.919708,688.874207 409.428955,697.635864 
	C408.727539,710.158203 411.053192,722.437927 413.892761,734.544373 
	C416.435669,745.385803 417.405426,756.027954 414.358276,766.954895 
	C410.827606,779.615723 400.814941,790.054993 386.557648,789.420654 
	C376.460785,788.971436 366.628632,781.469116 362.581268,770.572937 
	C357.489319,756.864563 358.921631,743.311279 362.961700,729.669067 
	C366.444916,717.907288 369.421112,706.012146 370.669708,693.750244 
	C371.521515,685.384766 373.994385,677.104309 371.622192,668.604248 
	C369.927643,662.532288 366.757904,657.022644 365.424805,650.771851 
	C362.602905,637.540161 363.316772,624.398315 366.323181,611.432190 
	C368.782196,600.826965 376.820221,597.397278 389.367371,598.651917 
	C402.175018,599.932739 415.101776,599.033386 427.914154,597.478271 
	C429.880859,597.239441 431.036438,596.179932 431.160370,593.816284 
	C431.481201,587.695862 432.612793,581.588379 432.557068,575.483582 
	C432.411163,559.511902 432.450867,543.526489 432.340393,527.564270 
	C432.273132,517.846375 431.787231,508.437744 429.750763,499.019745 
	C428.710083,494.207092 431.326324,489.928436 431.862122,485.326813 
	C433.020721,475.375854 432.679688,465.499573 431.965363,455.522705 
	C431.254547,445.594910 431.213959,435.591034 432.194519,425.610565 
	C432.937195,418.050903 433.161255,410.432983 432.711121,402.831787 
	C432.190887,394.047302 433.765533,385.166443 431.635254,376.466644 
	C429.821075,369.057922 431.632843,361.457520 430.528625,354.113678 
	C427.948517,336.954041 435.022430,322.814117 443.077362,308.635406 
	C452.106720,292.741394 460.916046,276.710907 468.656921,260.119049 
	C481.110504,233.425888 490.555725,205.664490 498.495117,177.349457 
	C500.597595,169.851196 502.834778,162.390152 505.078735,154.932663 
	C505.408752,153.835846 506.080994,152.830887 506.665161,151.824173 
	C507.608307,150.198807 508.709229,148.694046 510.886810,148.882248 
	C512.932068,149.059036 513.497437,150.814850 514.102661,152.319351 
	C517.263245,160.176437 519.941345,168.190704 522.323120,176.328674 
	C531.367493,207.230988 541.042175,237.864029 555.384277,266.896179 
	C565.368286,287.106415 574.752808,307.635712 585.754639,327.303253 
	C589.492676,333.985596 590.470276,340.482788 590.389832,347.712891 
	C590.226746,362.375549 590.830811,377.063263 590.174683,391.698364 
	C589.705444,402.164551 589.085876,412.625183 589.428467,423.081055 
	C589.839050,435.613373 590.454956,448.158966 592.230286,460.596344 
	C592.717529,464.010223 591.231812,467.139191 591.322632,470.493591 
	C592.333984,507.855164 589.314575,545.182861 590.343323,582.546570 
	C590.384583,584.045349 590.302917,585.548462 590.371521,587.045288 
	C590.759277,595.509277 591.957825,596.534058 600.422241,596.680054 
	C614.884827,596.929565 629.385803,596.776917 643.792908,597.843506 
	C655.244141,598.691284 666.099182,604.304504 662.615417,620.784424 
	C660.569519,630.462891 661.411804,640.598450 659.434204,650.406494 
	C658.584412,654.621033 657.216125,658.171204 654.148438,661.330688 
	C644.635559,671.128296 642.760681,683.041504 643.806763,696.305359 
	C645.452881,717.178162 653.448120,736.575439 656.776672,756.980103 
	C658.885864,769.909790 655.836609,782.180237 647.139282,792.324829 
	C637.244019,803.866760 619.196594,799.207153 611.767090,789.467468 
	C605.835815,781.691895 604.225525,772.459290 602.521912,763.070557 
	C599.696899,747.502441 605.404297,733.240967 608.175476,718.525269 
	C610.815063,704.508301 612.940857,690.424500 613.572937,676.179871 
	C613.945618,667.780212 611.328247,665.623169 603.065735,665.340393 
	C591.062256,664.929565 579.218811,666.873169 567.285706,667.459961 
	C562.394653,667.700500 562.363708,671.430420 562.346497,675.131042 
	C562.240723,697.925415 564.081055,720.690613 563.348572,743.991089 
M479.647522,474.500061 
	C479.680634,454.889709 480.304626,435.311127 481.165222,415.711060 
	C481.692505,403.702454 482.268250,391.538757 481.780975,379.413605 
	C481.475647,371.817200 481.685730,364.035156 482.993286,356.569122 
	C487.305939,331.944122 491.074585,307.209412 497.278168,282.934296 
	C501.255280,267.371674 504.730652,251.666458 505.533508,235.533752 
	C505.640289,233.387955 506.346069,231.008514 504.698578,229.008057 
	C502.063568,229.949158 502.174286,232.321625 501.589142,234.058990 
	C499.213013,241.113953 497.123169,248.264771 494.879456,255.364960 
	C489.772675,271.525360 482.269196,286.778046 476.790436,302.788483 
	C467.727722,329.272156 456.852478,355.453339 461.339722,384.514313 
	C458.249939,400.935883 459.243591,417.606659 458.446503,434.162445 
	C458.064240,442.102386 458.885132,450.145264 458.691589,458.056580 
	C458.444214,468.170013 459.075500,478.217316 459.034760,488.278870 
	C459.005310,495.556610 462.613190,502.578888 460.233704,509.884552 
	C459.442566,512.313660 459.342712,514.763550 459.338470,517.268188 
	C459.313751,531.836792 459.177887,546.393066 458.521759,560.962036 
	C458.091370,570.518433 456.353027,580.107788 458.221649,589.767639 
	C458.777893,592.643005 459.521912,595.035950 462.103119,596.234863 
	C469.177246,599.520813 475.996582,595.840271 476.558380,588.144653 
	C477.777863,571.439880 479.119873,554.720581 479.527069,537.985779 
	C480.033600,517.168579 479.647522,496.329590 479.647522,474.500061 
z"/>
<path fill="#000000" opacity="1.000000" stroke="none" 
	d="
M749.814819,432.402710 
	C754.433472,447.915192 757.264465,463.291412 758.510437,479.086029 
	C760.102051,499.263031 755.141174,517.224548 742.154175,532.592712 
	C735.276855,540.731079 726.281128,546.210693 715.325012,547.308899 
	C699.204407,548.924622 685.201660,544.486572 672.999573,533.368896 
	C661.126831,522.551208 654.751770,509.310608 653.906372,493.639038 
	C653.491455,485.949799 654.791199,478.105988 655.872803,470.410553 
	C658.418640,452.297638 663.367310,434.734802 669.231506,417.460815 
	C674.724243,401.281494 681.344604,385.508881 686.917358,369.341919 
	C693.307434,350.804321 698.304443,331.964172 701.741272,312.668274 
	C702.495056,308.435760 702.155518,303.751160 705.326050,299.776245 
	C708.078308,301.979492 708.519104,305.165741 709.130920,307.753479 
	C716.321106,338.164581 726.518005,367.612915 737.580139,396.762878 
	C741.997070,408.401703 746.494934,419.976746 749.814819,432.402710 
z"/>
<path fill="#000000" opacity="1.000000" stroke="none" 
	d="
M315.449951,303.554749 
	C315.678009,300.892242 316.896698,299.554779 319.246338,298.822235 
	C322.354858,302.130646 322.557220,306.476013 323.156403,310.363678 
	C324.726776,320.553040 326.950226,330.595032 329.914734,340.415802 
	C337.869324,366.767792 346.690247,392.884949 353.255798,419.615692 
	C356.872253,434.339722 361.251556,449.155609 360.296967,464.635834 
	C359.120850,483.708710 352.673492,500.205292 336.333496,511.608490 
	C318.297821,524.195068 290.680023,517.027466 279.267548,502.458130 
	C268.057526,488.147369 263.487854,472.600983 264.881531,455.245300 
	C265.887665,442.716034 269.079681,430.336395 273.337158,418.487579 
	C282.767944,392.241241 292.883698,366.241821 302.571991,340.086853 
	C307.010681,328.103882 311.099854,315.991394 315.449951,303.554749 
z"/>
<path fill="#000000" opacity="1.000000" stroke="none" 
	d="
M315.052063,589.182068 
	C319.616364,601.710449 324.143677,613.831238 328.433533,626.035583 
	C333.031219,639.115479 337.514587,652.503296 332.262756,666.277893 
	C323.639313,688.895508 295.551910,703.261597 274.292999,682.402405 
	C266.286682,674.546570 263.499756,663.915955 262.681152,652.899048 
	C262.019714,643.997498 263.743683,635.422058 266.318359,626.920288 
	C272.345795,607.017578 280.814484,588.015869 287.657959,568.417603 
	C290.010559,561.680359 292.349854,554.938354 294.700623,548.200439 
	C295.028259,547.261353 295.212097,546.209656 295.766449,545.424805 
	C297.019867,543.650146 296.931335,540.372131 299.930603,540.489075 
	C303.569550,540.630920 303.444702,544.140381 304.021667,546.522339 
	C305.423370,552.308838 306.412170,558.194824 307.594330,564.035217 
	C309.308990,572.506714 312.010803,580.688721 315.052063,589.182068 
z"/>
<path fill="#000000" opacity="1.000000" stroke="none" 
	d="
M740.749512,641.556030 
	C743.612732,650.264404 746.306763,658.617554 748.957214,666.984497 
	C752.599243,678.481567 755.190125,690.200623 752.216248,702.186218 
	C747.131653,722.679382 736.602051,732.271423 713.072205,728.555908 
	C696.218567,725.894653 688.750244,709.598999 687.664246,696.468506 
	C686.375427,680.885193 690.894287,666.218323 695.055298,651.541992 
	C700.302307,633.035583 705.959045,614.645142 711.181335,596.131958 
	C713.019531,589.615723 714.170959,582.899536 715.481384,576.244202 
	C715.926270,573.984558 716.805420,572.220276 719.090881,570.868286 
	C721.204529,572.423706 721.895691,574.659851 722.490723,577.111023 
	C727.457886,597.570801 732.859619,617.913330 739.294067,637.968750 
	C739.647461,639.070312 740.135620,640.128540 740.749512,641.556030 
z"/>
<path fill="#000000" opacity="1.000000" stroke="none" 
	d="
M707.092896,256.349091 
	C707.857483,260.374359 705.362793,262.394989 702.927246,264.017334 
	C694.771301,269.450226 686.549438,274.799652 678.165771,279.871796 
	C664.252747,288.289215 650.235046,296.536194 636.176147,304.708313 
	C631.070984,307.675842 626.111206,311.254761 619.508911,307.763214 
	C612.649353,304.135681 611.982544,297.654663 618.408569,292.833313 
	C626.552551,286.722992 635.646729,282.211853 644.521606,277.337128 
	C655.294128,271.420013 666.054932,265.477539 676.927185,259.747833 
	C682.646606,256.733704 688.495422,253.915359 694.464417,251.439270 
	C700.087585,249.106674 704.023132,250.758621 707.092896,256.349091 
z"/>
<path fill="#000000" opacity="1.000000" stroke="none" 
	d="
M353.972076,265.946533 
	C370.022095,274.641113 384.739441,285.001068 401.269928,292.082428 
	C404.342224,293.398590 406.891632,295.296722 409.219482,297.839783 
	C411.749512,300.603699 411.415771,302.835266 409.298950,305.197571 
	C405.793793,309.109253 401.936798,311.485657 396.155884,309.568878 
	C385.004517,305.871460 375.041840,299.876617 365.417267,293.507355 
	C351.316803,284.176056 336.120911,276.639557 322.409943,266.714478 
	C321.337189,265.937927 320.226868,265.213409 319.138702,264.457977 
	C315.408844,261.868500 314.510498,258.141022 316.496033,254.441772 
	C318.403168,250.888504 322.151154,249.960678 326.035919,251.082947 
	C333.301788,253.181931 339.375702,257.737122 346.028198,261.103546 
	C348.679596,262.445251 351.124207,264.195557 353.972076,265.946533 
z"/>
<path fill="#000000" opacity="1.000000" stroke="none" 
	d="
M409.611420,201.498672 
	C418.097900,213.577347 426.372314,225.356720 434.603394,237.166245 
	C436.974060,240.567535 439.325531,243.990768 441.498505,247.519287 
	C444.738251,252.780075 444.354675,256.786957 440.560730,259.698181 
	C435.264221,263.762360 428.704041,263.734650 424.881256,259.061676 
	C421.642181,255.102264 418.956299,250.670441 416.211548,246.330093 
	C407.443787,232.465256 398.142609,218.926453 390.677551,204.262482 
	C388.680603,200.339722 388.802155,196.994553 392.148895,194.017776 
	C396.849365,189.836960 399.070526,189.868469 403.563721,194.414566 
	C405.654877,196.530319 407.452271,198.936386 409.611420,201.498672 
z"/>
<path fill="#000000" opacity="1.000000" stroke="none" 
	d="
M609.386536,237.258514 
	C604.363281,243.526550 600.946655,250.416306 596.706299,256.767944 
	C593.222961,261.985596 590.025696,263.339203 586.186829,261.225037 
	C579.058228,257.299164 577.288208,253.825562 580.012695,247.803528 
	C583.657471,239.747238 589.395325,232.991776 594.519653,225.885117 
	C602.079529,215.400772 609.901489,205.105042 617.643066,194.752304 
	C620.103638,191.461777 625.527527,190.371613 628.629395,192.677139 
	C632.170837,195.309311 633.189087,198.510269 630.635742,202.603958 
	C623.528259,213.999176 616.560913,225.481796 609.386536,237.258514 
z"/>
</svg>