<svg version="1.1" id="Layer_1" xmlns="http://www.w3.org/2000/svg" xmlns:xlink="http://www.w3.org/1999/xlink" x="0px" y="0px"
	 width="772px" viewBox="0 0 772 772" enable-background="new 0 0 772 772" xml:space="preserve">
<path fill="#060606" opacity="1.000000" stroke="none" 
	d="
M720.080322,146.156281 
	C709.968262,161.777756 699.856201,177.399231 689.402283,192.902374 
	C688.502258,192.421310 687.820862,191.637283 687.404419,191.759079 
	C681.213318,193.569977 680.000732,196.554260 682.161499,204.344650 
	C672.885498,219.029495 663.634583,233.730255 654.327087,248.395111 
	C642.985107,266.265625 631.595581,284.105957 619.808411,302.615906 
	C649.705017,297.680573 678.937744,292.854767 708.678711,288.451813 
	C713.125916,288.915100 717.064880,288.955566 720.956421,289.339600 
	C719.976562,291.507202 719.044128,293.331238 718.111694,295.155243 
	C718.111694,295.155243 718.049377,295.029053 717.687378,295.027496 
	C714.811890,294.686005 713.691345,295.742920 714.054321,298.287628 
	C705.110046,305.151031 696.225464,312.094055 687.209412,318.861847 
	C666.161255,334.661316 645.049866,350.376648 623.490845,366.479492 
	C673.415527,394.113617 722.864197,421.484253 772.656494,448.927460 
	C773.000000,449.000000 773.000000,449.500000 772.682251,449.803467 
	C768.456116,449.863647 764.546326,449.398560 760.639709,449.423645 
	C752.759949,449.474213 744.882019,449.791290 737.003296,449.998413 
	C734.306641,449.996948 731.610046,449.995483 728.393311,449.660858 
	C724.364868,448.751526 720.801392,448.393433 717.367126,447.524628 
	C714.963806,446.916626 713.885010,447.311157 713.980103,449.872986 
	C695.356995,449.074829 676.732117,448.316742 658.111694,447.459442 
	C650.310974,447.100250 642.519897,446.530670 634.007202,446.013153 
	C644.641541,461.411316 654.455994,476.683075 664.861267,491.574341 
	C675.404358,506.662933 685.556763,522.024536 695.814636,537.910400 
	C695.299377,539.561768 694.849731,540.569275 694.416016,541.541199 
	C691.942688,540.893494 689.618103,540.284729 687.724976,539.788940 
	C687.429810,541.494873 687.210815,542.760559 686.991821,544.026184 
	C682.528503,541.643188 678.065125,539.260254 673.707886,536.471252 
	C676.245544,532.455078 673.566772,529.164307 671.427429,528.131897 
	C669.802185,527.347656 666.487366,530.064575 663.924377,531.223694 
	C647.061951,521.945312 630.198914,512.668152 613.337585,503.387756 
	C607.565491,500.210876 601.797974,497.025726 595.503662,493.495728 
	C594.409790,493.143433 593.840637,493.139740 593.271545,493.136047 
	C593.515747,493.605927 593.759949,494.075806 594.004150,494.545685 
	C602.406555,510.760773 610.808960,526.975830 619.027039,543.686035 
	C617.121216,547.732422 619.018616,549.032227 622.180237,549.545532 
	C622.565613,550.100769 622.950928,550.655945 623.124756,551.674927 
	C623.606323,554.794922 624.278625,557.456909 625.002197,560.104797 
	C625.322021,561.275330 625.745911,562.417297 626.122620,563.572266 
	C624.868774,563.811523 623.608582,564.022217 622.363464,564.300415 
	C621.575745,564.476318 620.810486,564.752869 620.035156,564.984253 
	C596.420593,537.152466 572.761108,509.358459 549.300293,481.397736 
	C547.856079,479.676453 547.199097,476.533905 547.511414,474.234070 
	C548.713379,465.386230 550.459106,456.612274 552.544373,447.418182 
	C555.189758,446.719696 558.334290,448.047760 557.989014,443.900818 
	C564.062134,447.044342 570.171814,450.119385 576.200745,453.345551 
	C589.132263,460.265350 602.022034,467.263123 615.481140,474.546875 
	C616.610413,474.862152 617.187378,474.859497 617.764404,474.856873 
	C617.462097,474.384979 617.159790,473.913116 616.857544,473.441254 
	C604.873169,453.549072 592.888733,433.656891 580.474304,413.050903 
	C604.401855,413.913391 627.608948,414.749939 650.816040,415.586456 
	C650.924500,415.266998 651.032959,414.947540 651.141418,414.628082 
	C622.423096,398.766205 593.704834,382.904327 564.465149,366.754486 
	C588.917236,351.603363 612.868896,336.762299 636.820557,321.921234 
	C636.741028,321.509491 636.661438,321.097717 636.581848,320.685974 
	C614.427795,322.686951 592.273743,324.687958 569.292236,326.763672 
	C581.378723,307.615417 593.177429,288.923157 605.521118,270.063446 
	C607.225342,269.812256 608.384644,269.728485 609.543884,269.644714 
	C609.008362,268.386383 608.472839,267.128082 607.937378,265.869751 
	C610.472717,261.798096 613.008118,257.726440 615.268250,253.325195 
	C614.993042,252.995605 614.974548,253.095917 615.358521,253.232452 
	C616.023621,252.906525 616.304749,252.444031 616.911316,251.943451 
	C618.740417,244.168060 611.225769,251.800171 610.426208,247.927322 
	C610.270020,250.538651 610.113831,253.149979 609.957642,255.761292 
	C591.355103,268.381287 572.752563,281.001312 553.415710,294.119476 
	C551.412476,270.685608 549.494629,248.251587 547.962891,225.533508 
	C548.743042,226.176071 549.137085,227.102692 549.385315,227.686432 
	C550.298035,225.174606 551.243652,222.572205 552.063477,220.316071 
	C550.245972,220.200729 548.340332,220.079788 546.186157,219.943085 
	C546.143250,220.453247 546.077209,221.239456 546.011108,222.025665 
	C539.231262,234.705994 532.462280,247.392181 525.663208,260.062286 
	C524.104675,262.966644 522.442932,265.815674 520.673401,268.966675 
	C515.258118,260.469971 509.959229,252.328964 504.913818,244.033783 
	C504.236847,242.920715 504.348450,240.802521 504.933716,239.538055 
	C507.470215,234.058136 510.318085,228.722305 513.703369,223.127792 
	C516.758972,222.797897 519.163757,222.674286 520.580627,222.601440 
	C520.908325,219.196640 521.312744,216.282639 521.387634,213.360168 
	C521.407776,212.575592 520.424377,211.765289 519.901672,210.966766 
	C525.885071,199.197510 531.868469,187.428253 538.379700,175.333557 
	C541.230469,172.089539 543.596313,169.201859 545.773315,166.178192 
	C545.908691,165.990189 544.560852,164.734329 543.902954,163.975296 
	C554.246582,143.867722 564.590210,123.760139 575.455322,103.343079 
	C578.624207,101.382751 579.158386,100.023521 577.604004,98.893814 
	C578.344421,97.410606 579.084839,95.927391 580.307617,94.392662 
	C582.426147,94.591354 584.062256,94.841560 585.698425,95.091766 
	C585.756226,95.308960 585.814087,95.526154 585.373047,95.967804 
	C583.913086,96.792503 582.952087,97.392738 581.843628,98.044342 
	C581.799438,98.066414 581.902771,98.037132 582.260620,98.197113 
	C581.793030,107.050613 580.935364,115.707703 580.477417,124.385872 
	C580.397888,125.893227 582.007141,127.489685 582.836365,129.044983 
	C582.874939,129.629135 582.913574,130.213257 582.459839,131.089325 
	C581.310669,132.286041 580.167419,133.143311 580.073608,134.103134 
	C579.277893,142.246170 578.351746,150.398773 578.119934,158.567093 
	C577.954834,164.383286 578.801453,170.228180 579.196533,176.060257 
	C577.896484,195.235580 576.596375,214.410904 575.207764,234.891342 
	C587.675659,219.310165 599.429688,204.621063 611.183777,189.931946 
	C611.524475,190.127029 611.865173,190.322128 612.205872,190.517212 
	C611.461670,199.907227 610.717468,209.297256 609.886292,219.784195 
	C644.793213,194.209534 678.986694,169.157532 713.800293,144.184052 
	C716.307007,144.893829 718.193665,145.525055 720.080322,146.156281 
M714.531494,291.739624 
	C714.404663,292.135559 714.256226,292.526855 714.168762,292.931335 
	C714.150879,293.013947 714.362122,293.146057 714.467773,293.255341 
	C714.594482,292.859558 714.721130,292.463806 714.531494,291.739624 
z"/>
<path fill="#161616" opacity="1.000000" stroke="none" 
	d="
M773.000000,350.571533 
	C767.131042,352.072174 761.233093,353.008087 755.400818,354.252319 
	C748.681763,355.685669 742.020752,357.391266 735.086853,358.526062 
	C737.132996,356.443909 739.219360,354.184052 741.772888,353.343903 
	C744.983459,352.287537 748.576294,352.392914 752.002075,351.998474 
	C752.000000,352.000000 751.997253,352.003845 752.296387,351.981567 
	C753.064514,351.639038 753.533447,351.318787 754.001221,350.999268 
	C754.000000,351.000000 753.997559,351.002441 754.343750,351.028290 
	C757.420166,350.571136 760.150330,350.088135 762.880554,349.605103 
	C762.890503,349.007050 762.900391,348.408966 762.910339,347.810883 
	C761.462341,346.572968 760.014404,345.335022 758.566406,344.097107 
	C763.085999,344.406250 767.605591,344.715363 772.562622,345.012238 
	C773.000000,346.714355 773.000000,348.428711 773.000000,350.571533 
z"/>
<path fill="#181818" opacity="1.000000" stroke="none" 
	d="
M41.979820,347.100342 
	C31.178684,348.067902 20.378622,349.047821 9.575617,349.994171 
	C6.953498,350.223907 4.321676,350.342896 1.347158,350.756409 
	C1.000000,349.285645 1.000000,347.571289 0.999999,345.428467 
	C3.716388,344.279358 6.432779,343.558746 9.558907,343.265381 
	C11.011349,344.788300 11.947318,346.659546 13.118628,346.820770 
	C15.683327,347.173706 18.373426,346.725800 21.001539,346.486603 
	C28.545576,345.800049 36.078968,344.978699 43.633430,344.453125 
	C44.365398,344.402252 45.214779,346.039154 46.009659,346.892639 
	C45.256836,346.978912 44.504013,347.065216 43.278526,346.910828 
	C42.530514,346.813507 42.255165,346.956909 41.979820,347.100342 
z"/>
<path fill="#282828" opacity="1.000000" stroke="none" 
	d="
M737.323364,450.183868 
	C744.882019,449.791290 752.759949,449.474213 760.639709,449.423645 
	C764.546326,449.398560 768.456116,449.863647 772.682251,450.053467 
	C773.000000,450.444458 773.000000,450.888885 773.000000,451.666656 
	C769.554871,452.335419 766.103333,453.002747 762.666077,452.935547 
	C756.021545,452.805634 749.378845,452.344208 742.749756,451.832916 
	C741.020264,451.699524 739.344116,450.875916 737.323364,450.183868 
z"/>
<path fill="#060606" opacity="1.000000" stroke="none" 
	d="
M109.125702,268.638153 
	C133.104416,259.798706 157.076630,250.941605 181.066254,242.131882 
	C187.269882,239.853729 193.483215,237.582336 199.781357,235.590073 
	C202.642136,234.685135 203.823486,233.409561 204.341644,230.213959 
	C207.653946,209.786072 211.409622,189.430511 214.847488,169.022217 
	C215.688126,164.031967 218.104446,160.559891 222.519562,158.208847 
	C227.477448,155.568787 232.332321,152.735306 237.797913,150.223541 
	C240.682281,150.461121 243.000748,150.461121 244.726517,150.461121 
	C245.968918,148.762894 246.981537,147.378754 248.324844,145.948196 
	C249.099258,145.230164 249.542999,144.558517 249.986755,143.886887 
	C251.412277,143.236374 252.837814,142.585861 254.844421,142.225708 
	C258.274536,142.098557 261.123566,141.681030 264.124115,141.241318 
	C264.086304,141.160553 264.471527,142.679794 264.848206,142.677673 
	C267.927887,142.660339 271.022919,142.475494 274.068115,142.031769 
	C274.585236,141.956436 275.177826,140.415237 275.226593,139.523422 
	C275.327454,137.679260 275.085663,135.816360 274.984833,133.961182 
	C278.729645,132.629135 282.474487,131.297073 286.520264,130.229950 
	C287.216187,130.994980 287.611145,131.495087 287.901611,132.261780 
	C288.662262,133.499847 289.527435,134.471344 290.392609,135.442825 
	C290.799103,134.867950 291.205627,134.293076 291.612152,133.718201 
	C290.406494,133.147171 289.200806,132.576141 288.237793,131.731506 
	C290.941589,130.839233 293.474884,130.408798 295.827393,129.506882 
	C296.736053,129.158524 297.234680,127.740547 297.920135,126.809898 
	C298.731842,126.540741 299.543518,126.271584 300.956177,126.317139 
	C305.364288,126.430267 309.171478,126.228683 313.039948,126.171501 
	C313.198669,126.362411 313.296082,126.408920 313.393524,126.455437 
	C313.271393,126.296356 313.149261,126.137276 313.224060,125.749977 
	C314.827179,125.820496 316.382629,126.662109 317.613770,126.323753 
	C322.874847,124.877785 328.063965,123.152267 333.224518,121.370018 
	C334.586365,120.899681 335.752350,119.862160 337.008301,119.085083 
	C344.136902,118.637421 351.261566,118.050781 358.397125,117.848488 
	C360.001648,117.803009 361.957214,118.737701 363.223175,119.832016 
	C390.068512,143.037720 416.178436,167.029785 439.286316,194.041641 
	C447.781250,203.971786 455.864044,214.307816 463.448242,224.948059 
	C470.416992,234.724808 476.462708,245.159485 482.677399,255.890228 
	C481.990356,260.754730 483.307556,263.911407 487.861206,265.012604 
	C487.951965,265.178711 488.042755,265.344788 487.883240,265.800049 
	C485.935944,268.910980 486.703217,270.098053 490.817627,271.016541 
	C501.896118,292.667847 510.028717,315.368744 514.771606,339.837006 
	C514.300293,343.110138 514.331787,345.733490 513.962402,348.299072 
	C513.498596,351.520508 514.946838,352.832764 517.921082,353.015045 
	C517.659668,354.982483 516.524170,356.389709 518.654236,358.841492 
	C520.716248,361.214935 520.424255,365.733490 520.930786,369.342896 
	C526.855896,411.565552 523.459106,453.161194 512.000305,494.111633 
	C500.795258,534.155029 484.632904,572.100708 461.845795,606.965881 
	C454.172089,618.706970 457.529694,617.900757 443.599792,612.561401 
	C432.967438,608.485962 422.749573,603.329163 412.136261,598.001709 
	C407.145905,590.811096 398.957367,589.693420 392.744843,585.423035 
	C392.626892,585.341919 391.524902,586.692444 390.882019,587.375000 
	C358.493988,570.487732 329.361389,549.117737 304.338715,522.539917 
	C292.173187,509.618286 281.403564,495.382446 270.178101,481.238831 
	C268.922791,477.826630 266.781982,475.041504 266.244263,471.975281 
	C265.608368,468.348907 263.852722,467.748596 260.889374,468.047058 
	C247.360291,448.877289 236.687531,428.066986 228.671646,406.178864 
	C220.734421,384.505432 213.723587,362.356018 208.323105,339.929749 
	C203.193939,318.630066 202.122131,296.569946 202.050034,274.590851 
	C202.040359,271.639618 202.048691,268.688324 202.048691,265.498993 
	C173.855713,270.451141 146.367401,275.279480 118.178520,279.781616 
	C114.234222,279.284424 110.990479,279.113464 107.481079,278.928497 
	C107.038734,276.614685 106.584259,274.237457 106.157745,272.006470 
	C108.617592,270.946564 110.828629,269.993896 113.402191,269.039246 
	C115.128830,269.037292 116.492928,269.037292 117.857025,269.037292 
	C117.734322,268.410645 117.611610,267.783997 117.488899,267.157349 
	C115.985352,267.760803 114.481804,268.364258 112.334358,268.936523 
	C110.835533,268.816254 109.980621,268.727203 109.125702,268.638153 
M387.815735,539.003052 
	C388.621246,538.966370 389.426788,538.929688 390.902954,539.034729 
	C391.456299,539.432739 392.009644,539.830811 391.856537,540.781616 
	C393.170288,541.347717 394.484039,541.913818 396.042236,542.873291 
	C396.096558,543.178955 396.112671,543.486633 396.109772,544.519958 
	C398.187836,546.453003 400.070557,548.698425 402.433289,550.176392 
	C403.483215,550.833130 405.501770,549.941406 407.768311,549.956238 
	C419.243500,555.474792 430.718689,560.993347 442.088074,567.424988 
	C442.252014,569.838623 442.415985,572.252319 442.581818,574.693665 
	C447.275085,572.988037 450.960266,571.648804 454.645477,570.309509 
	C454.561798,569.917542 454.478088,569.525513 454.394409,569.133545 
	C453.185730,568.727722 451.977081,568.321838 450.985962,567.247986 
	C461.934204,550.402527 470.688080,532.433655 477.897278,513.727722 
	C488.906311,485.162384 496.454315,455.722321 498.643677,425.106567 
	C500.151489,404.021606 500.134644,382.884399 496.182159,362.041351 
	C493.196625,346.297546 489.225433,330.740662 486.332642,314.703613 
	C487.180664,313.423676 488.528595,312.227783 488.761047,310.844421 
	C489.121460,308.699646 489.571808,305.472534 488.426636,304.452240 
	C487.019653,303.198700 484.241608,299.672699 481.162506,303.248352 
	C471.178192,277.288849 457.761993,253.223511 441.244690,230.865280 
	C421.075867,203.564194 397.988037,179.037170 371.908142,157.287369 
	C366.789124,153.018265 361.406342,150.961227 354.722260,150.819931 
	C342.649628,150.564743 330.897400,152.162674 319.217743,154.991669 
	C297.725220,160.197540 277.915558,169.083420 259.979156,182.005524 
	C257.691376,183.653748 254.802032,186.172546 254.487488,188.587143 
	C251.699478,209.989670 248.566772,231.406311 247.235657,252.923950 
	C245.733505,277.206451 248.102615,301.411926 252.934158,325.332031 
	C260.469543,362.638397 273.294617,397.966858 292.907623,430.617554 
	C317.248108,471.138245 347.527863,506.519745 385.398987,535.130981 
	C385.816559,535.446472 385.840973,536.282349 386.163849,537.449707 
	C386.439728,537.964600 386.715607,538.479431 386.525421,539.277466 
	C386.684021,539.851379 386.842621,540.425354 387.073334,541.621521 
	C387.711823,542.087280 388.350281,542.553101 388.988770,543.018860 
	C389.188568,542.610229 389.388336,542.201599 389.588135,541.793030 
	C388.725006,541.529480 387.861908,541.265930 387.009583,540.337891 
	C387.009399,539.895020 387.009186,539.452148 387.815735,539.003052 
M247.514984,149.401886 
	C247.514984,149.401886 247.591049,149.524048 247.514984,149.401886 
z"/>
<path fill="#070707" opacity="1.000000" stroke="none" 
	d="
M197.029770,466.274597 
	C200.144257,466.487030 203.258743,466.699463 207.082840,467.165527 
	C210.194153,467.683228 213.287476,470.017090 214.035660,465.332916 
	C214.778503,465.251556 215.521332,465.170197 216.746460,465.403931 
	C218.850784,468.674896 224.835556,468.295197 228.004471,465.035339 
	C233.583511,463.383972 237.420197,465.343323 240.039261,470.476501 
	C242.623367,475.541260 245.103027,480.737396 248.358536,485.361938 
	C252.557098,491.326202 257.612946,496.678894 262.053009,502.483612 
	C265.838776,507.432861 269.275848,512.648804 272.774445,517.615112 
	C182.860229,504.935181 93.077515,492.273773 3.294794,479.612396 
	C3.357139,479.156586 3.419485,478.700806 3.481830,478.244995 
	C27.991602,476.811493 52.501373,475.377960 77.053398,474.329102 
	C79.728592,474.805695 82.361542,474.897552 85.366989,474.996613 
	C88.916283,474.748413 92.602448,476.833862 94.998123,472.989014 
	C107.431320,472.027557 119.858101,470.971405 132.299301,470.127960 
	C148.893768,469.002960 165.499420,468.043213 182.591461,467.368500 
	C183.460312,468.325989 183.837967,468.927429 184.678879,470.266724 
	C184.853348,468.613525 184.932968,467.859070 185.012589,467.104614 
	C185.453018,467.057404 185.893463,467.010223 186.769791,467.404114 
	C192.151886,470.073608 195.578339,469.525818 197.029770,466.274597 
M204.291992,469.423706 
	C204.007904,469.696045 203.720963,469.965759 203.454803,470.254608 
	C203.447556,470.262512 203.664154,470.476685 203.776352,470.594635 
	C204.059723,470.322662 204.343094,470.050659 204.291992,469.423706 
M200.482681,469.582916 
	C200.482681,469.582916 200.418671,469.472534 200.482681,469.582916 
M215.481720,467.589691 
	C215.481720,467.589691 215.406418,467.467224 215.481720,467.589691 
z"/>
<path fill="#070707" opacity="1.000000" stroke="none" 
	d="
M46.446510,346.951874 
	C45.214779,346.039154 44.365398,344.402252 43.633430,344.453125 
	C36.078968,344.978699 28.545576,345.800049 21.001539,346.486603 
	C18.373426,346.725800 15.683327,347.173706 13.118628,346.820770 
	C11.947318,346.659546 11.011349,344.788300 9.950967,343.260620 
	C31.355192,336.725800 52.709976,330.373840 74.214851,324.578918 
	C105.835068,316.058197 137.561554,307.931763 169.246674,299.652252 
	C170.827026,299.239319 172.444412,298.968018 174.361954,298.563873 
	C177.703125,310.386444 180.960800,321.913513 184.510727,334.474762 
	C138.394714,338.675415 92.639038,342.843262 46.446510,346.951874 
z"/>
<path fill="#080808" opacity="1.000000" stroke="none" 
	d="
M601.132690,648.945618 
	C601.717041,650.093811 602.301331,651.242065 602.608154,652.966064 
	C601.891907,656.689819 601.453308,659.837830 601.006470,662.993774 
	C600.998230,663.001770 600.984009,663.015991 600.608582,663.009888 
	C598.122131,662.025635 596.011169,661.047546 593.900146,660.069458 
	C593.900146,660.069458 593.991699,660.019592 593.987427,659.640991 
	C594.094299,655.737549 594.569031,651.854919 588.860718,654.058167 
	C577.380005,640.553650 565.828552,627.108582 554.441772,613.525330 
	C545.812317,603.231262 537.275696,592.852905 528.997498,582.277405 
	C527.647522,580.552856 527.015503,577.435547 527.472229,575.260132 
	C530.828430,559.271423 534.546021,543.358704 538.744263,527.125671 
	C540.353210,525.917664 541.367493,525.005981 542.375183,524.100342 
	C543.677002,524.705078 544.950989,525.296936 546.224976,525.888794 
	C553.567627,541.928711 561.001953,557.927490 568.229675,574.018982 
	C577.231445,594.060242 586.062866,614.178040 594.693848,634.890076 
	C595.362061,639.777039 596.175659,644.074463 597.402283,648.250610 
	C597.563721,648.800110 599.837341,648.729187 601.132690,648.945618 
z"/>
<path fill="#080808" opacity="1.000000" stroke="none" 
	d="
M116.914490,420.055206 
	C89.991646,419.127655 63.557129,418.205261 37.122616,417.282898 
	C37.042301,416.685760 36.961983,416.088654 36.881668,415.491547 
	C91.251877,404.753571 145.622086,394.015564 200.436920,383.189789 
	C204.317734,396.445129 208.141357,409.505127 211.999069,422.681549 
	C180.264099,421.802185 148.833466,420.931305 116.914490,420.055206 
z"/>
<path fill="#090909" opacity="1.000000" stroke="none" 
	d="
M337.982880,583.895386 
	C283.535950,570.832092 229.088852,557.769409 174.643707,544.698608 
	C174.002945,544.544739 173.387283,544.286438 172.338287,543.620117 
	C171.009460,541.722717 170.102219,540.282166 168.729477,538.102356 
	C170.563156,538.309387 171.592590,538.354126 172.591324,538.552979 
	C174.757599,538.984314 177.084991,537.765564 177.107986,536.119263 
	C191.559311,536.817810 206.012970,537.472046 220.461380,538.226257 
	C238.240250,539.154297 256.015289,540.156372 273.790710,541.149475 
	C277.279358,541.344360 280.842865,542.244263 284.233307,541.788452 
	C296.800842,540.099121 304.681976,546.974121 312.756317,555.247437 
	C320.318481,562.995911 329.392181,569.269104 337.924225,576.929199 
	C338.026154,579.742981 338.004517,581.819153 337.982880,583.895386 
z"/>
<path fill="#080808" opacity="1.000000" stroke="none" 
	d="
M478.790588,86.052559 
	C487.578217,117.963318 494.621765,150.219070 497.745880,183.228958 
	C498.402222,190.164001 498.629120,197.139694 498.598267,204.557098 
	C496.551025,206.126953 493.626770,202.141022 492.858734,206.399475 
	C485.482635,194.299286 478.160522,182.165695 470.706146,170.113937 
	C467.310242,164.623657 463.995819,159.022720 459.995850,153.987183 
	C457.244904,150.524063 457.201233,147.269089 458.231659,143.487991 
	C463.315277,124.834366 468.383545,106.176567 474.077637,87.255493 
	C476.062256,86.678024 477.426422,86.365288 478.790588,86.052559 
z"/>
<path fill="#080808" opacity="1.000000" stroke="none" 
	d="
M758.217407,344.022949 
	C760.014404,345.335022 761.462341,346.572968 762.910339,347.810883 
	C762.900391,348.408966 762.890503,349.007050 762.880554,349.605103 
	C760.150330,350.088135 757.420166,350.571136 754.292969,350.887695 
	C753.810181,350.671051 753.724304,350.620789 753.638428,350.570557 
	C753.759766,350.713226 753.881104,350.855896 754.002441,350.998566 
	C753.533447,351.318787 753.064514,351.639038 752.244507,351.841797 
	C751.808472,351.673950 751.723450,351.623566 751.638367,351.573181 
	C751.760315,351.714447 751.882263,351.855713 752.004150,351.996979 
	C748.576294,352.392914 744.983459,352.287537 741.772888,353.343903 
	C739.219360,354.184052 737.132996,356.443909 734.726929,358.469971 
	C715.719543,363.033722 696.824280,367.200958 676.587769,371.664062 
	C680.353516,366.053375 683.323914,361.533905 686.393921,357.083130 
	C688.845520,353.529053 691.849243,350.284698 693.835999,346.497894 
	C696.802124,340.844147 700.887573,339.428741 707.100952,340.058594 
	C722.488831,341.618378 737.950012,342.454498 753.550293,343.968262 
	C752.768799,344.720337 751.818787,345.085571 750.868835,345.450775 
	C750.895691,345.719177 750.922546,345.987549 750.949402,346.255920 
	C753.233887,346.255920 755.518311,346.255920 757.802795,346.255920 
	C757.590149,345.526794 757.377441,344.797699 757.164734,344.068604 
	C757.399292,344.028687 757.633789,343.988770 758.217407,344.022949 
M748.605286,345.516357 
	C748.605286,345.516357 748.475769,345.596802 748.605286,345.516357 
z"/>
<path fill="#101010" opacity="1.000000" stroke="none" 
	d="
M113.039658,269.041229 
	C110.828629,269.993896 108.617592,270.946564 106.157745,272.006470 
	C106.584259,274.237457 107.038734,276.614685 107.481079,278.928497 
	C110.990479,279.113464 114.234222,279.284424 117.748184,279.752197 
	C107.376442,282.034180 96.743828,284.071411 86.088745,285.983429 
	C80.416847,287.001282 74.706070,287.802429 68.501282,288.412689 
	C67.336418,286.796906 66.683128,285.469849 66.029846,284.142761 
	C80.208908,279.012909 94.387962,273.883057 108.846359,268.695679 
	C109.980621,268.727203 110.835533,268.816254 112.348671,268.955719 
	C113.006889,269.006134 113.039665,269.041229 113.039658,269.041229 
z"/>
<path fill="#1B1B1B" opacity="1.000000" stroke="none" 
	d="
M176.776154,536.040955 
	C177.084991,537.765564 174.757599,538.984314 172.591324,538.552979 
	C171.592590,538.354126 170.563156,538.309387 168.729477,538.102356 
	C170.102219,540.282166 171.009460,541.722717 171.965607,543.502563 
	C161.300964,541.076233 150.587402,538.310547 139.873840,535.544861 
	C139.954025,535.042358 140.034225,534.539856 140.114426,534.037354 
	C148.855896,534.422913 157.597351,534.808472 166.824860,535.679688 
	C168.212341,536.089172 169.113770,536.012939 170.015213,535.936646 
	C172.158249,535.945374 174.301285,535.954041 176.776154,536.040955 
z"/>
<path fill="#1D1D1D" opacity="1.000000" stroke="none" 
	d="
M620.120361,565.293823 
	C620.810486,564.752869 621.575745,564.476318 622.363464,564.300415 
	C623.608582,564.022217 624.868774,563.811523 626.122620,563.572266 
	C625.745911,562.417297 625.322021,561.275330 625.002197,560.104797 
	C624.278625,557.456909 623.606323,554.794922 623.262085,551.996582 
	C627.149597,558.728210 630.776672,565.558472 634.186340,572.495544 
	C635.693848,575.562561 638.678040,578.460999 636.101501,582.456360 
	C635.897644,582.772522 637.062866,583.971497 638.278809,585.784485 
	C635.338135,582.686768 633.203735,580.438416 631.007202,577.515503 
	C631.293396,576.231445 631.641663,575.621826 632.049194,575.158081 
	C632.203430,575.352539 632.298340,575.401245 632.393250,575.449951 
	C632.266785,575.295898 632.140381,575.141846 631.976929,574.623474 
	C630.289246,571.840271 628.638489,569.421326 626.908813,566.826172 
	C626.568481,566.764832 626.307129,566.879822 626.032715,567.371277 
	C625.542725,568.541443 625.065796,569.335205 624.588867,570.128906 
	C623.127747,568.620422 621.666626,567.111938 620.120361,565.293823 
z"/>
<path fill="#141414" opacity="1.000000" stroke="none" 
	d="
M687.157349,544.329468 
	C687.210815,542.760559 687.429810,541.494873 687.724976,539.788940 
	C689.618103,540.284729 691.942688,540.893494 694.416016,541.541199 
	C694.849731,540.569275 695.299377,539.561768 695.889893,538.246338 
	C698.986389,542.136047 701.941895,546.333679 704.616455,551.190063 
	C703.858582,552.248535 703.381775,552.648315 702.904907,553.048035 
	C697.710876,550.242920 692.516846,547.437866 687.157349,544.329468 
z"/>
<path fill="#1B1B1B" opacity="1.000000" stroke="none" 
	d="
M579.429443,175.719360 
	C578.801453,170.228180 577.954834,164.383286 578.119934,158.567093 
	C578.351746,150.398773 579.277893,142.246170 580.073608,134.103134 
	C580.167419,133.143311 581.310669,132.286041 582.388794,131.524109 
	C581.760864,146.237457 580.711609,160.807968 579.429443,175.719360 
z"/>
<path fill="#161616" opacity="1.000000" stroke="none" 
	d="
M274.598846,133.951294 
	C275.085663,135.816360 275.327454,137.679260 275.226593,139.523422 
	C275.177826,140.415237 274.585236,141.956436 274.068115,142.031769 
	C271.022919,142.475494 267.927887,142.660339 264.848206,142.677673 
	C264.471527,142.679794 264.086304,141.160553 264.124115,141.241318 
	C261.123566,141.681030 258.274536,142.098557 255.188644,142.193954 
	C261.372131,139.228378 267.792480,136.584900 274.598846,133.951294 
z"/>
<path fill="#181818" opacity="1.000000" stroke="none" 
	d="
M312.978668,126.027100 
	C309.171478,126.228683 305.364288,126.430267 301.289673,126.349075 
	C312.735260,123.691330 324.448242,121.316353 336.584778,119.013229 
	C335.752350,119.862160 334.586365,120.899681 333.224518,121.370018 
	C328.063965,123.152267 322.874847,124.877785 317.613770,126.323753 
	C316.382629,126.662109 314.827179,125.820496 313.210754,125.761047 
	C313.000580,126.000343 312.978668,126.027092 312.978668,126.027100 
z"/>
<path fill="#1B1B1B" opacity="1.000000" stroke="none" 
	d="
M582.930298,128.678009 
	C582.007141,127.489685 580.397888,125.893227 580.477417,124.385872 
	C580.935364,115.707703 581.793030,107.050613 582.257568,98.193115 
	C582.000000,97.999855 581.991089,97.992958 581.991089,97.992966 
	C582.952087,97.392738 583.913086,96.792503 585.270691,96.289062 
	C584.786316,107.027588 583.905273,117.669304 582.930298,128.678009 
z"/>
<path fill="#232323" opacity="1.000000" stroke="none" 
	d="
M65.654663,284.116821 
	C66.683128,285.469849 67.336418,286.796906 68.054565,288.426819 
	C61.885822,289.631805 55.652241,290.533966 49.418659,291.436127 
	C49.329346,291.050934 49.240032,290.665710 49.150719,290.280487 
	C54.526974,288.217316 59.903233,286.154114 65.654663,284.116821 
z"/>
<path fill="#141414" opacity="1.000000" stroke="none" 
	d="
M601.014648,662.985779 
	C601.453308,659.837830 601.891907,656.689819 602.584717,653.298462 
	C605.491333,658.799988 608.143738,664.544800 610.440796,670.642212 
	C609.057495,670.172241 607.988770,669.395325 607.010315,668.517700 
	C604.986328,666.702087 603.010376,664.832886 601.014648,662.985779 
z"/>
<path fill="#161616" opacity="1.000000" stroke="none" 
	d="
M391.085541,587.638062 
	C391.524902,586.692444 392.626892,585.341919 392.744843,585.423035 
	C398.957367,589.693420 407.145905,590.811096 411.949310,597.708191 
	C405.078644,594.677917 398.183838,591.289551 391.085541,587.638062 
z"/>
<path fill="#232323" opacity="1.000000" stroke="none" 
	d="
M492.876099,206.745941 
	C493.626770,202.141022 496.551025,206.126953 498.528931,205.017319 
	C499.373291,209.386185 499.831329,213.755280 500.289368,218.124359 
	C499.917175,218.276627 499.545013,218.428894 499.172852,218.581146 
	C497.079712,214.751572 494.986572,210.921997 492.876099,206.745941 
z"/>
<path fill="#1D1D1D" opacity="1.000000" stroke="none" 
	d="
M720.388733,146.004684 
	C718.193665,145.525055 716.307007,144.893829 714.123169,144.082428 
	C717.484070,141.151703 721.132507,138.388077 724.811829,135.666138 
	C725.300476,135.304642 725.945862,135.154984 728.025391,134.255508 
	C725.073181,138.927689 722.885193,142.390381 720.388733,146.004684 
z"/>
<path fill="#141414" opacity="1.000000" stroke="none" 
	d="
M664.092896,531.514343 
	C666.487366,530.064575 669.802185,527.347656 671.427429,528.131897 
	C673.566772,529.164307 676.245544,532.455078 673.476501,536.181763 
	C670.179871,534.800476 667.220703,533.302734 664.092896,531.514343 
z"/>
<path fill="#141414" opacity="1.000000" stroke="none" 
	d="
M682.461243,204.168152 
	C680.000732,196.554260 681.213318,193.569977 687.404419,191.759079 
	C687.820862,191.637283 688.502258,192.421310 689.111755,193.101852 
	C687.029053,196.943665 684.895020,200.467667 682.461243,204.168152 
z"/>
<path fill="#101010" opacity="1.000000" stroke="none" 
	d="
M519.600952,211.143417 
	C520.424377,211.765289 521.407776,212.575592 521.387634,213.360168 
	C521.312744,216.282639 520.908325,219.196640 520.580627,222.601440 
	C519.163757,222.674286 516.758972,222.797897 513.937744,222.871262 
	C515.447693,218.987350 517.373962,215.153702 519.600952,211.143417 
z"/>
<path fill="#161616" opacity="1.000000" stroke="none" 
	d="
M718.453003,295.092285 
	C719.044128,293.331238 719.976562,291.507202 720.954468,289.341583 
	C721.000000,289.000000 720.996765,289.005859 721.281006,288.742493 
	C721.625977,287.719910 721.686707,286.960632 721.747437,286.201385 
	C724.724426,285.689789 727.701416,285.178192 730.678467,284.666626 
	C730.861328,285.068939 731.044250,285.471252 731.227173,285.873566 
	C727.082886,288.925476 722.938599,291.977386 718.453003,295.092285 
z"/>
<path fill="#282828" opacity="1.000000" stroke="none" 
	d="
M611.010376,671.997070 
	C612.575317,675.652466 614.140259,679.307861 615.705261,682.963257 
	C615.298828,683.232910 614.892456,683.502563 614.486023,683.772217 
	C612.001953,681.094971 609.517883,678.417725 607.262878,675.383606 
	C608.664734,674.016846 609.837524,673.006958 611.010376,671.997070 
z"/>
<path fill="#282828" opacity="1.000000" stroke="none" 
	d="
M546.188599,525.518799 
	C544.950989,525.296936 543.677002,524.705078 542.375183,524.100342 
	C541.367493,525.005981 540.353210,525.917664 538.966553,526.815308 
	C539.326843,522.991211 540.059509,519.181274 541.064270,513.956421 
	C543.157410,518.560852 544.654785,521.854797 546.188599,525.518799 
z"/>
<path fill="#282828" opacity="1.000000" stroke="none" 
	d="
M338.295471,584.014526 
	C338.004517,581.819153 338.026154,579.742981 338.079712,577.220642 
	C341.439636,579.558899 344.767639,582.343201 348.095642,585.127563 
	C347.972717,585.441589 347.849792,585.755676 347.726837,586.069763 
	C345.668152,585.690674 343.609436,585.311584 341.182770,584.530762 
	C340.520721,584.152283 340.226624,584.175537 339.932556,584.198730 
	C339.491058,584.177002 339.049530,584.155334 338.295471,584.014526 
z"/>
<path fill="#232323" opacity="1.000000" stroke="none" 
	d="
M714.400696,449.964111 
	C713.885010,447.311157 714.963806,446.916626 717.367126,447.524628 
	C720.801392,448.393433 724.364868,448.751526 727.946045,449.704102 
	C723.619690,450.072052 719.220520,450.063629 714.400696,449.964111 
z"/>
<path fill="#141414" opacity="1.000000" stroke="none" 
	d="
M601.104492,648.570679 
	C599.837341,648.729187 597.563721,648.800110 597.402283,648.250610 
	C596.175659,644.074463 595.362061,639.777039 594.702637,635.261292 
	C597.015747,639.402039 599.046021,643.798889 601.104492,648.570679 
z"/>
<path fill="#080808" opacity="1.000000" stroke="none" 
	d="
M611.020508,671.739624 
	C609.837524,673.006958 608.664734,674.016846 607.142822,675.065369 
	C606.451782,675.077942 606.199646,674.914001 606.002258,674.000793 
	C604.306213,669.931641 602.645142,666.473816 600.984009,663.015991 
	C600.984009,663.015991 600.998230,663.001770 601.006470,662.993774 
	C603.010376,664.832886 604.986328,666.702087 607.010315,668.517700 
	C607.988770,669.395325 609.057495,670.172241 610.453491,671.002930 
	C610.891296,671.168152 610.960999,671.325134 611.020508,671.739624 
z"/>
<path fill="#141414" opacity="1.000000" stroke="none" 
	d="
M600.608582,663.009888 
	C602.645142,666.473816 604.306213,669.931641 605.951050,673.772583 
	C601.984558,669.678162 598.034363,665.200623 593.992188,660.396240 
	C596.011169,661.047546 598.122131,662.025635 600.608582,663.009888 
z"/>
<path fill="#1B1B1B" opacity="1.000000" stroke="none" 
	d="
M585.769409,94.699898 
	C584.062256,94.841560 582.426147,94.591354 580.462219,94.072662 
	C581.898865,90.265457 583.663269,86.726738 585.840393,82.360268 
	C585.840393,87.043373 585.840393,90.675705 585.769409,94.699898 
z"/>
<path fill="#282828" opacity="1.000000" stroke="none" 
	d="
M610.283691,255.686417 
	C610.113831,253.149979 610.270020,250.538651 610.426208,247.927322 
	C611.225769,251.800171 618.740417,244.168060 616.500427,251.849014 
	C615.500916,252.227066 615.237732,252.661499 614.974548,253.095917 
	C614.974548,253.095917 614.993042,252.995605 615.043579,253.000793 
	C613.599304,253.874512 612.104492,254.743011 610.283691,255.686417 
z"/>
<path fill="#181818" opacity="1.000000" stroke="none" 
	d="
M260.956238,468.391296 
	C263.852722,467.748596 265.608368,468.348907 266.244263,471.975281 
	C266.781982,475.041504 268.922791,477.826630 270.066528,480.909607 
	C266.860321,476.967255 263.941742,472.851410 260.956238,468.391296 
z"/>
<path fill="#080808" opacity="1.000000" stroke="none" 
	d="
M626.987793,567.002441 
	C628.638489,569.421326 630.289246,571.840271 631.970459,574.629272 
	C632.000854,574.999390 631.989990,575.012207 631.989990,575.012207 
	C631.641663,575.621826 631.293396,576.231445 630.919983,577.207397 
	C628.895508,575.299438 626.896118,573.025085 624.742798,570.439819 
	C625.065796,569.335205 625.542725,568.541443 626.267944,567.373169 
	C626.516235,566.998596 626.987793,567.002441 626.987793,567.002441 
z"/>
<path fill="#282828" opacity="1.000000" stroke="none" 
	d="
M517.986328,352.607056 
	C514.946838,352.832764 513.498596,351.520508 513.962402,348.299072 
	C514.331787,345.733490 514.300293,343.110138 514.757690,340.245850 
	C516.062927,344.052521 517.057251,348.125793 517.986328,352.607056 
z"/>
<path fill="#1D1D1D" opacity="1.000000" stroke="none" 
	d="
M543.596802,164.141296 
	C544.560852,164.734329 545.908691,165.990189 545.773315,166.178192 
	C543.596313,169.201859 541.230469,172.089539 538.539429,175.015106 
	C539.877747,171.450470 541.584106,167.878876 543.596802,164.141296 
z"/>
<path fill="#282828" opacity="1.000000" stroke="none" 
	d="
M478.792267,85.677292 
	C477.426422,86.365288 476.062256,86.678024 474.336792,86.990021 
	C474.611816,84.016670 475.248138,81.044044 475.884491,78.071426 
	C476.151886,78.082336 476.419250,78.093254 476.686646,78.104164 
	C477.389099,80.503456 478.091522,82.902748 478.792267,85.677292 
z"/>
<path fill="#161616" opacity="1.000000" stroke="none" 
	d="
M247.994171,145.994598 
	C246.981537,147.378754 245.968918,148.762894 244.726517,150.461121 
	C243.000748,150.461121 240.682281,150.461121 238.156616,150.163010 
	C240.747589,148.330597 243.545761,146.796310 246.808350,145.410934 
	C247.469604,145.786896 247.713974,145.936066 248.003326,146.004059 
	C248.000732,146.000778 247.994171,145.994598 247.994171,145.994598 
z"/>
<path fill="#181818" opacity="1.000000" stroke="none" 
	d="
M288.006104,131.995209 
	C287.611145,131.495087 287.216187,130.994980 286.909454,130.240631 
	C290.369812,128.926056 293.741974,127.865723 297.517120,126.807648 
	C297.234680,127.740547 296.736053,129.158524 295.827393,129.506882 
	C293.474884,130.408798 290.941589,130.839233 288.240234,131.728958 
	C288.000000,132.000000 288.006104,131.995209 288.006104,131.995209 
z"/>
<path fill="#181818" opacity="1.000000" stroke="none" 
	d="
M557.817505,443.608765 
	C558.334290,448.047760 555.189758,446.719696 552.681763,447.026031 
	C552.593384,445.143066 552.909973,443.259705 553.267090,441.135101 
	C554.823242,441.910370 556.234619,442.613525 557.817505,443.608765 
z"/>
<path fill="#232323" opacity="1.000000" stroke="none" 
	d="
M546.365967,221.921326 
	C546.077209,221.239456 546.143250,220.453247 546.186157,219.943085 
	C548.340332,220.079788 550.245972,220.200729 552.063477,220.316071 
	C551.243652,222.572205 550.298035,225.174606 549.385315,227.686432 
	C549.137085,227.102692 548.743042,226.176071 548.054688,225.068710 
	C547.413879,223.864334 547.067322,222.840683 546.365967,221.921326 
z"/>
<path fill="#161616" opacity="1.000000" stroke="none" 
	d="
M721.001892,288.998016 
	C717.064880,288.955566 713.125916,288.915100 709.088501,288.498749 
	C711.393372,287.732452 713.796753,287.342041 716.839111,287.250885 
	C717.900940,287.515930 718.323853,287.481750 718.746765,287.447540 
	C719.445374,287.006866 720.144043,286.566193 721.015259,286.862183 
	C721.124207,288.067841 721.060486,288.536835 720.996765,289.005859 
	C720.996765,289.005859 721.000000,289.000000 721.001892,288.998016 
z"/>
<path fill="#161616" opacity="1.000000" stroke="none" 
	d="
M487.842712,264.663391 
	C483.307556,263.911407 481.990356,260.754730 482.708008,256.242218 
	C484.592224,258.776917 486.208221,261.545532 487.842712,264.663391 
z"/>
<path fill="#141414" opacity="1.000000" stroke="none" 
	d="
M588.947632,654.382629 
	C594.569031,651.854919 594.094299,655.737549 593.955688,659.682373 
	C592.297058,658.303955 590.665771,656.505493 588.947632,654.382629 
z"/>
<path fill="#1D1D1D" opacity="1.000000" stroke="none" 
	d="
M227.629913,464.941742 
	C224.835556,468.295197 218.850784,468.674896 217.116486,465.470398 
	C220.421280,465.097229 223.838318,464.972687 227.629913,464.941742 
z"/>
<path fill="#1D1D1D" opacity="1.000000" stroke="none" 
	d="
M213.640625,465.247620 
	C213.287476,470.017090 210.194153,467.683228 207.461014,467.245697 
	C209.168259,466.435608 211.206924,465.798950 213.640625,465.247620 
z"/>
<path fill="#1D1D1D" opacity="1.000000" stroke="none" 
	d="
M196.685852,466.185547 
	C195.578339,469.525818 192.151886,470.073608 187.097504,467.468018 
	C188.054947,466.978607 189.120560,466.866364 190.763336,467.117920 
	C192.549637,467.112152 193.758804,466.742615 194.967957,466.373108 
	C195.425949,466.280914 195.883942,466.188721 196.685852,466.185547 
z"/>
<path fill="#1D1D1D" opacity="1.000000" stroke="none" 
	d="
M622.173584,549.220764 
	C619.018616,549.032227 617.121216,547.732422 619.192017,544.014771 
	C620.416504,545.531006 621.291687,547.213501 622.173584,549.220764 
z"/>
<path fill="#232323" opacity="1.000000" stroke="none" 
	d="
M94.629684,472.907288 
	C92.602448,476.833862 88.916283,474.748413 85.371368,475.003418 
	C85.003235,475.003052 85.014091,475.013672 85.003265,474.733215 
	C84.982399,474.079987 84.972351,473.707245 84.962311,473.334503 
	C88.061951,473.164856 91.161598,472.995209 94.629684,472.907288 
z"/>
<path fill="#161616" opacity="1.000000" stroke="none" 
	d="
M756.999390,343.962708 
	C757.377441,344.797699 757.590149,345.526794 757.802795,346.255920 
	C755.518311,346.255920 753.233887,346.255920 750.949402,346.255920 
	C750.922546,345.987549 750.895691,345.719177 750.868835,345.450775 
	C751.818787,345.085571 752.768799,344.720337 753.893372,344.072571 
	C754.990051,343.812317 755.912048,343.834595 756.999390,343.962708 
z"/>
<path fill="#161616" opacity="1.000000" stroke="none" 
	d="
M490.795166,270.698120 
	C486.703217,270.098053 485.935944,268.910980 487.978973,266.067352 
	C489.140961,267.490234 489.956848,268.934967 490.795166,270.698120 
z"/>
<path fill="#181818" opacity="1.000000" stroke="none" 
	d="
M607.645935,266.037170 
	C608.472839,267.128082 609.008362,268.386383 609.543884,269.644714 
	C608.384644,269.728485 607.225342,269.812256 605.716492,269.801636 
	C606.029419,268.539673 606.691956,267.372131 607.645935,266.037170 
z"/>
<path fill="#282828" opacity="1.000000" stroke="none" 
	d="
M703.091248,553.341919 
	C703.381775,552.648315 703.858582,552.248535 704.683411,551.535278 
	C706.173035,552.538330 707.314697,553.854919 708.456360,555.171509 
	C708.308411,555.415161 708.160461,555.658875 708.012512,555.902588 
	C706.434204,555.147034 704.855896,554.391418 703.091248,553.341919 
z"/>
<path fill="#1B1B1B" opacity="1.000000" stroke="none" 
	d="
M577.348999,99.059341 
	C579.158386,100.023521 578.624207,101.382751 575.634033,103.033127 
	C575.892151,101.763397 576.493103,100.494141 577.348999,99.059341 
z"/>
<path fill="#161616" opacity="1.000000" stroke="none" 
	d="
M714.363770,298.167664 
	C713.691345,295.742920 714.811890,294.686005 717.739624,295.074646 
	C716.993652,296.098145 715.833496,297.072937 714.363770,298.167664 
z"/>
<path fill="#232323" opacity="1.000000" stroke="none" 
	d="
M84.998856,474.996246 
	C82.361542,474.897552 79.728592,474.805695 77.517685,474.592102 
	C77.939720,474.470398 78.220924,474.569061 78.748154,474.730225 
	C81.188286,474.932129 83.101189,474.972900 85.014091,475.013672 
	C85.014091,475.013672 85.003235,475.003052 84.998856,474.996246 
z"/>
<path fill="#070707" opacity="1.000000" stroke="none" 
	d="
M85.003265,474.733215 
	C83.101189,474.972900 81.188286,474.932129 78.797897,474.793152 
	C80.278175,474.193176 82.235939,473.691406 84.578003,473.262085 
	C84.972351,473.707245 84.982399,474.079987 85.003265,474.733215 
z"/>
<path fill="#070707" opacity="1.000000" stroke="none" 
	d="
M194.632812,466.309998 
	C193.758804,466.742615 192.549637,467.112152 191.157333,467.202667 
	C192.082001,466.698029 193.189835,466.472443 194.632812,466.309998 
z"/>
<path fill="#1D1D1D" opacity="1.000000" stroke="none" 
	d="
M184.677460,467.026245 
	C184.932968,467.859070 184.853348,468.613525 184.678879,470.266724 
	C183.837967,468.927429 183.460312,468.325989 183.034241,467.423462 
	C183.438004,467.064209 183.890167,467.006012 184.677460,467.026245 
z"/>
<path fill="#161616" opacity="1.000000" stroke="none" 
	d="
M249.684418,143.907959 
	C249.542999,144.558517 249.099258,145.230164 248.324844,145.948196 
	C247.994171,145.994598 248.000732,146.000778 247.994797,145.718689 
	C247.978012,145.246643 247.967178,145.056686 247.956345,144.866745 
	C248.431580,144.554184 248.906830,144.241608 249.684418,143.907959 
z"/>
<path fill="#090909" opacity="1.000000" stroke="none" 
	d="
M169.657440,535.836182 
	C169.113770,536.012939 168.212341,536.089172 167.203156,535.846802 
	C167.830139,535.597351 168.564911,535.666504 169.657440,535.836182 
z"/>
<path fill="#060606" opacity="1.000000" stroke="none" 
	d="
M721.281006,288.742493 
	C721.060486,288.536835 721.124207,288.067841 721.438110,286.931671 
	C721.688232,286.264526 721.691772,286.247314 721.719604,286.224365 
	C721.686707,286.960632 721.625977,287.719910 721.281006,288.742493 
z"/>
<path fill="#060606" opacity="1.000000" stroke="none" 
	d="
M247.708282,144.897400 
	C247.967178,145.056686 247.978012,145.246643 247.997375,145.721985 
	C247.713974,145.936066 247.469604,145.786896 247.154984,145.377136 
	C247.037170,145.194412 247.460220,144.928055 247.708282,144.897400 
z"/>
<path fill="#090909" opacity="1.000000" stroke="none" 
	d="
M340.145569,584.382874 
	C340.226624,584.175537 340.520721,584.152283 340.867920,584.361633 
	C340.733551,584.585083 340.546051,584.576050 340.145569,584.382874 
z"/>
<path fill="#060606" opacity="1.000000" stroke="none" 
	d="
M718.571350,287.137787 
	C718.323853,287.481750 717.900940,287.515930 717.247437,287.309448 
	C717.476562,286.988525 717.936218,286.908264 718.571350,287.137787 
z"/>
<path fill="#070707" opacity="1.000000" stroke="none" 
	d="
M42.242783,347.162476 
	C42.255165,346.956909 42.530514,346.813507 42.904404,346.841492 
	C42.837212,347.083466 42.671478,347.154022 42.242783,347.162476 
z"/>
<path fill="#161616" opacity="1.000000" stroke="none" 
	d="
M714.689697,291.903809 
	C714.721130,292.463806 714.594482,292.859558 714.467773,293.255371 
	C714.362122,293.146057 714.150879,293.013947 714.168762,292.931335 
	C714.256226,292.526855 714.404663,292.135559 714.689697,291.903809 
z"/>
<path fill="#1B1B1B" opacity="1.000000" stroke="none" 
	d="
M582.003052,98.003853 
	C581.902771,98.037132 581.799438,98.066414 581.843628,98.044327 
	C581.991089,97.992958 582.000000,97.999855 582.003052,98.003853 
z"/>
<path fill="#161616" opacity="1.000000" stroke="none" 
	d="
M486.012756,314.902100 
	C484.398346,311.567566 483.103790,308.034576 481.743530,304.158020 
	C484.241608,299.672699 487.019653,303.198700 488.426636,304.452240 
	C489.571808,305.472534 489.121460,308.699646 488.761047,310.844421 
	C488.528595,312.227783 487.180664,313.423676 486.012756,314.902100 
z"/>
<path fill="#141414" opacity="1.000000" stroke="none" 
	d="
M442.140961,566.968506 
	C444.795959,567.088623 447.398102,567.665283 450.384308,568.078979 
	C451.977081,568.321838 453.185730,568.727722 454.394409,569.133545 
	C454.478088,569.525513 454.561798,569.917542 454.645477,570.309509 
	C450.960266,571.648804 447.275085,572.988037 442.581818,574.693665 
	C442.415985,572.252319 442.252014,569.838623 442.140961,566.968506 
z"/>
<path fill="#1B1B1B" opacity="1.000000" stroke="none" 
	d="
M396.100159,544.158203 
	C399.650787,545.582520 403.211029,547.368652 406.925964,549.453674 
	C405.501770,549.941406 403.483215,550.833130 402.433289,550.176392 
	C400.070557,548.698425 398.187836,546.453003 396.100159,544.158203 
z"/>
<path fill="#181818" opacity="1.000000" stroke="none" 
	d="
M287.997559,132.002563 
	C289.200806,132.576141 290.406494,133.147171 291.612152,133.718201 
	C291.205627,134.293076 290.799103,134.867950 290.392609,135.442825 
	C289.527435,134.471344 288.662262,133.499847 287.901611,132.261780 
	C288.006104,131.995209 288.000000,132.000000 287.997559,132.002563 
z"/>
<path fill="#101010" opacity="1.000000" stroke="none" 
	d="
M112.992577,268.986938 
	C114.481804,268.364258 115.985352,267.760803 117.488899,267.157349 
	C117.611610,267.783997 117.734322,268.410645 117.857025,269.037292 
	C116.492928,269.037292 115.128830,269.037292 113.402199,269.039246 
	C113.039665,269.041229 113.006889,269.006134 112.992577,268.986938 
z"/>
<path fill="#181818" opacity="1.000000" stroke="none" 
	d="
M392.209778,540.505249 
	C393.506866,540.829102 394.450714,541.429382 395.596191,542.254761 
	C394.484039,541.913818 393.170288,541.347717 392.209778,540.505249 
z"/>
<path fill="#181818" opacity="1.000000" stroke="none" 
	d="
M386.998779,541.002441 
	C387.861908,541.265930 388.725006,541.529480 389.588135,541.793030 
	C389.388336,542.201599 389.188568,542.610229 388.988770,543.018860 
	C388.350281,542.553101 387.711823,542.087280 387.036682,541.310791 
	C387.000000,541.000000 386.998779,541.002441 386.998779,541.002441 
z"/>
<path fill="#181818" opacity="1.000000" stroke="none" 
	d="
M386.106384,537.162476 
	C387.324677,537.343079 388.600403,537.810791 390.054199,538.585815 
	C389.426788,538.929688 388.621246,538.966370 387.408051,539.001648 
	C387.000366,539.000244 386.991455,538.994324 386.991455,538.994324 
	C386.715607,538.479431 386.439728,537.964600 386.106384,537.162476 
z"/>
<path fill="#181818" opacity="1.000000" stroke="none" 
	d="
M387.004669,539.004761 
	C387.009186,539.452148 387.009399,539.895020 387.004181,540.670166 
	C386.998779,541.002441 387.000000,541.000000 387.000610,540.999634 
	C386.842621,540.425354 386.684021,539.851379 386.758423,539.135864 
	C386.991455,538.994324 387.000366,539.000244 387.004669,539.004761 
z"/>
<path fill="#181818" opacity="1.000000" stroke="none" 
	d="
M313.013855,125.989273 
	C313.149261,126.137276 313.271393,126.296356 313.393524,126.455437 
	C313.296082,126.408920 313.198669,126.362411 313.039948,126.171494 
	C312.978668,126.027092 313.000580,126.000343 313.013855,125.989273 
z"/>
<path fill="#161616" opacity="1.000000" stroke="none" 
	d="
M247.553009,149.462967 
	C247.591049,149.524048 247.514984,149.401886 247.553009,149.462967 
z"/>
<path fill="#1D1D1D" opacity="1.000000" stroke="none" 
	d="
M204.459229,469.601196 
	C204.343094,470.050659 204.059723,470.322662 203.776367,470.594666 
	C203.664154,470.476685 203.447556,470.262512 203.454803,470.254608 
	C203.720963,469.965759 204.007904,469.696045 204.459229,469.601196 
z"/>
<path fill="#1D1D1D" opacity="1.000000" stroke="none" 
	d="
M200.450684,469.527710 
	C200.418671,469.472534 200.482681,469.582916 200.450684,469.527710 
z"/>
<path fill="#1D1D1D" opacity="1.000000" stroke="none" 
	d="
M215.444061,467.528442 
	C215.406418,467.467224 215.481720,467.589691 215.444061,467.528442 
z"/>
<path fill="#161616" opacity="1.000000" stroke="none" 
	d="
M754.001221,350.999268 
	C753.881104,350.855896 753.759766,350.713226 753.638428,350.570557 
	C753.724304,350.620789 753.810181,350.671051 753.946777,350.861877 
	C753.997559,351.002441 754.000000,351.000000 754.001221,350.999268 
z"/>
<path fill="#161616" opacity="1.000000" stroke="none" 
	d="
M748.540527,345.556580 
	C748.475769,345.596802 748.605286,345.516357 748.540527,345.556580 
z"/>
<path fill="#161616" opacity="1.000000" stroke="none" 
	d="
M752.002075,351.998474 
	C751.882263,351.855713 751.760315,351.714447 751.638367,351.573181 
	C751.723450,351.623566 751.808472,351.673950 751.945435,351.864075 
	C751.997253,352.003845 752.000000,352.000000 752.002075,351.998474 
z"/>
<path fill="#080808" opacity="1.000000" stroke="none" 
	d="
M632.007385,574.993591 
	C632.140381,575.141846 632.266785,575.295898 632.393250,575.449951 
	C632.298340,575.401245 632.203430,575.352539 632.049194,575.158081 
	C631.989990,575.012207 632.000854,574.999390 632.007385,574.993591 
z"/>
<path fill="#060606" opacity="1.000000" stroke="none" 
	d="
M626.908813,566.826172 
	C626.987793,567.002441 626.516235,566.998596 626.281006,566.996704 
	C626.307129,566.879822 626.568481,566.764832 626.908813,566.826172 
z"/>
<path fill="#040404" opacity="1.000000" stroke="none" 
	d="
M432.112305,421.525574 
	C438.373627,423.026550 444.720520,424.256042 450.846283,426.186981 
	C452.791199,426.800049 455.190186,429.056030 455.600006,430.946381 
	C457.950592,441.788605 460.438812,452.674377 461.625458,463.680664 
	C464.351654,488.966583 463.064453,514.127625 457.004120,538.925720 
	C456.103851,542.609497 454.874664,546.212952 453.495056,550.876587 
	C447.087189,547.932861 440.926971,545.355164 434.992493,542.334045 
	C405.677338,527.410156 378.364777,509.498901 355.065002,486.123260 
	C330.585358,461.563843 311.723663,433.080353 297.742462,401.306488 
	C287.713257,378.514008 280.048187,355.025330 274.969788,330.646149 
	C269.541138,304.585663 268.330444,278.222229 269.145782,251.742050 
	C269.455231,241.691391 270.866089,231.672821 271.827698,221.644714 
	C272.492462,214.712036 272.891968,207.723679 274.128296,200.890152 
	C274.662292,197.938644 276.364319,194.532700 278.632202,192.663467 
	C301.498535,173.816772 328.016144,163.492920 357.275574,159.845139 
	C358.431519,159.701019 359.580597,159.501862 360.953552,159.661270 
	C360.438812,160.502014 359.703461,161.009811 358.968079,161.517624 
	C359.261780,161.767441 359.555450,162.017242 359.849121,162.267059 
	C360.473419,161.332428 361.097717,160.397797 361.722015,159.463165 
	C361.922272,159.418304 362.122498,159.373444 362.659363,159.771698 
	C364.976868,162.285950 366.948181,164.366898 369.003052,166.361771 
	C369.046417,166.403854 370.053833,165.452896 370.611542,164.965195 
	C370.722290,165.275864 370.833008,165.586533 370.587799,166.705063 
	C370.231842,168.734711 370.231842,169.956482 370.231842,171.287186 
	C371.460144,171.104019 372.394287,170.964706 373.328430,170.825394 
	C383.549072,193.966400 393.769745,217.107407 403.661346,240.677307 
	C403.332275,243.672791 403.332275,246.239349 403.332275,248.805908 
	C403.240295,248.836441 403.148346,248.866974 403.056366,248.897507 
	C403.056366,250.971725 403.056366,253.045959 403.056366,255.120178 
	C389.681244,260.593292 378.617493,268.761475 372.369751,282.218872 
	C370.588257,286.056183 369.594208,290.259094 367.742737,294.722931 
	C362.495605,299.684906 364.437042,305.494354 364.005981,311.064972 
	C365.141266,310.651306 366.013519,310.333496 366.885742,310.015686 
	C367.596313,341.716522 377.539124,370.168518 397.253448,395.031769 
	C404.401611,404.046875 412.376556,412.312164 423.096741,417.475891 
	C423.458160,419.342255 423.794891,422.215576 424.327209,422.252319 
	C426.893341,422.429260 429.512177,421.841797 432.112305,421.525574 
z"/>
<path fill="#040404" opacity="1.000000" stroke="none" 
	d="
M425.006744,269.973083 
	C432.035217,276.217316 439.379791,282.150269 445.962311,288.833710 
	C449.385651,292.309540 451.288849,297.236847 454.207611,301.270538 
	C456.331818,304.206177 459.449890,306.469849 461.340820,309.519257 
	C471.157135,325.349548 477.247650,342.518402 478.616669,361.619995 
	C477.422272,363.189636 475.989166,364.239471 475.919922,365.372589 
	C475.693298,369.082214 475.919250,372.824615 476.131683,376.545258 
	C476.147278,376.818024 477.444244,377.017609 478.145477,377.251221 
	C474.554474,401.042389 446.594360,413.123993 427.546753,398.720795 
	C405.450867,382.012634 392.221527,359.495667 387.188721,332.387604 
	C385.565948,323.647186 384.894043,314.575531 385.092957,305.684601 
	C385.478516,288.448608 393.921692,276.298004 410.924316,270.291229 
	C416.061035,270.367065 420.533875,270.170074 425.006744,269.973083 
z"/>
<path fill="#181818" opacity="1.000000" stroke="none" 
	d="
M403.453796,255.110107 
	C403.056366,253.045959 403.056366,250.971725 403.056366,248.897507 
	C403.148346,248.866974 403.240295,248.836441 403.332275,248.805908 
	C403.332275,246.239349 403.332275,243.672791 403.692261,241.046417 
	C405.851135,244.957535 407.650055,248.928467 409.679596,253.408463 
	C407.445435,254.056900 405.648315,254.578476 403.453796,255.110107 
z"/>
<path fill="#1D1D1D" opacity="1.000000" stroke="none" 
	d="
M366.971191,309.568848 
	C366.013519,310.333496 365.141266,310.651306 364.005981,311.064972 
	C364.437042,305.494354 362.495605,299.684906 367.601257,295.072662 
	C367.934174,296.060822 367.912262,297.127838 367.497192,298.593353 
	C367.130127,299.345184 367.156219,299.698486 367.182312,300.051819 
	C367.140411,303.075195 367.098511,306.098602 366.971191,309.568848 
z"/>
<path fill="#282828" opacity="1.000000" stroke="none" 
	d="
M424.792572,269.654907 
	C420.533875,270.170074 416.061035,270.367065 411.291748,270.274170 
	C415.425446,267.721191 419.934662,267.118561 424.792572,269.654907 
z"/>
<path fill="#232323" opacity="1.000000" stroke="none" 
	d="
M431.866821,421.301605 
	C429.512177,421.841797 426.893341,422.429260 424.327209,422.252319 
	C423.794891,422.215576 423.458160,419.342255 423.395935,417.768066 
	C426.380829,418.865784 429.001068,419.971710 431.866821,421.301605 
z"/>
<path fill="#232323" opacity="1.000000" stroke="none" 
	d="
M478.377197,377.033997 
	C477.444244,377.017609 476.147278,376.818024 476.131683,376.545258 
	C475.919250,372.824615 475.693298,369.082214 475.919922,365.372589 
	C475.989166,364.239471 477.422272,363.189636 478.575012,362.044067 
	C478.997009,362.437317 479.074707,362.888123 478.790161,363.875793 
	C478.638275,365.614990 478.848602,366.817383 479.058960,368.019775 
	C479.082397,369.741760 479.105835,371.463745 478.853973,373.668091 
	C478.510529,374.247131 478.363312,374.393188 478.387634,374.432098 
	C478.507019,374.623260 478.671997,374.785950 478.820862,374.958740 
	C478.750214,375.578094 478.679565,376.197449 478.377197,377.033997 
z"/>
<path fill="#282828" opacity="1.000000" stroke="none" 
	d="
M370.636169,164.703690 
	C370.053833,165.452896 369.046417,166.403854 369.003052,166.361771 
	C366.948181,164.366898 364.976868,162.285950 362.962402,159.825562 
	C367.884338,157.431503 368.949738,161.435486 370.636169,164.703690 
z"/>
<path fill="#282828" opacity="1.000000" stroke="none" 
	d="
M373.296875,170.505493 
	C372.394287,170.964706 371.460144,171.104019 370.231842,171.287186 
	C370.231842,169.956482 370.231842,168.734711 370.338898,167.132614 
	C370.445953,166.752289 370.492157,166.854919 370.745514,167.018860 
	C371.343170,167.458862 371.687439,167.734940 372.031738,168.011017 
	C372.442932,168.735870 372.854095,169.460724 373.296875,170.505493 
z"/>
<path fill="#282828" opacity="1.000000" stroke="none" 
	d="
M361.702881,159.500549 
	C361.097717,160.397797 360.473419,161.332428 359.849121,162.267059 
	C359.555450,162.017242 359.261780,161.767441 358.968079,161.517624 
	C359.703461,161.009811 360.438812,160.502014 361.451691,159.744141 
	C361.729187,159.494064 361.683716,159.537949 361.702881,159.500549 
z"/>
<path fill="#040404" opacity="1.000000" stroke="none" 
	d="
M479.138855,367.622986 
	C478.848602,366.817383 478.638275,365.614990 478.701996,364.210571 
	C479.056946,365.081055 479.137878,366.153625 479.138855,367.622986 
z"/>
<path fill="#040404" opacity="1.000000" stroke="none" 
	d="
M371.954041,167.593140 
	C371.687439,167.734940 371.343170,167.458862 370.743347,166.968262 
	C370.950653,166.894257 371.413513,167.034760 371.954041,167.593140 
z"/>
<path fill="#040404" opacity="1.000000" stroke="none" 
	d="
M367.356506,299.750336 
	C367.156219,299.698486 367.130127,299.345184 367.337219,298.872711 
	C367.557190,298.985321 367.543945,299.217072 367.356506,299.750336 
z"/>
<path fill="#040404" opacity="1.000000" stroke="none" 
	d="
M478.911499,374.731812 
	C478.671997,374.785950 478.507019,374.623260 478.387634,374.432098 
	C478.363312,374.393188 478.510529,374.247131 478.745605,374.087433 
	C478.912567,374.024384 479.002197,374.504883 478.911499,374.731812 
z"/>
</svg>