<svg version="1.1" id="Layer_1" xmlns="http://www.w3.org/2000/svg" xmlns:xlink="http://www.w3.org/1999/xlink" x="0px" y="0px"
	 width="1024px" height="1024px" viewBox="0 0 768 768" enable-background="new 0 0 768 768" xml:space="preserve">
<path fill="#000000" opacity="1.000000" stroke="none" 
	d="
M769.000000,179.600006 
	C743.915894,201.030930 717.956848,220.934982 692.026123,240.906982 
	C677.440430,252.140976 661.177063,261.027527 647.538269,273.427521 
	C636.633728,283.341553 623.971863,290.551361 611.583679,298.241241 
	C609.093689,299.786835 604.526367,300.688690 607.993958,305.393951 
	C608.957642,306.701660 609.921997,307.298370 611.778442,306.695374 
	C622.572266,303.189514 633.918701,302.607758 645.030457,300.847107 
	C654.016052,299.423370 663.151001,298.957916 672.033020,296.751465 
	C673.208862,296.459381 674.519775,296.711334 676.240112,296.711334 
	C674.669739,300.055298 671.706848,301.104462 669.172668,302.286163 
	C652.604492,310.012115 636.025269,317.725372 619.275696,325.044922 
	C613.719482,327.473022 610.352051,329.335358 610.462769,336.988922 
	C610.666382,351.063232 611.215332,365.277374 609.319824,379.335388 
	C607.121155,395.640717 608.322815,412.297699 604.369568,428.403046 
	C601.295288,440.927765 600.226562,453.833069 596.304749,466.227631 
	C591.227539,482.274139 584.394409,497.573883 577.957520,513.057068 
	C572.213928,526.872498 565.193542,540.020752 557.507812,552.834045 
	C555.588867,556.033203 552.166565,557.851501 550.739685,561.697266 
	C545.197876,576.634460 532.575378,586.343567 522.695312,598.004822 
	C514.685791,607.458374 505.773956,616.209778 496.501923,624.536743 
	C485.400238,634.506836 473.828827,643.838623 461.740143,652.599304 
	C447.919189,662.615356 433.910767,672.339111 419.435059,681.364136 
	C409.449432,687.589722 399.182709,693.364258 389.044312,699.344910 
	C386.467346,700.865112 383.901489,700.557068 381.454865,699.142456 
	C364.487915,689.332397 347.257324,679.942383 331.732025,667.835754 
	C326.377136,663.660034 321.097717,659.352539 315.475494,655.562683 
	C306.213257,649.319092 298.806732,640.951721 290.111633,634.069641 
	C280.685883,626.609314 272.648834,617.662598 264.196411,609.171936 
	C254.806396,599.739441 246.553085,589.290039 238.074402,579.066833 
	C224.014755,562.114502 211.775070,543.830078 202.402267,523.915649 
	C197.472229,513.440796 190.944458,503.646301 187.890320,492.312866 
	C187.078384,489.299835 186.751465,486.148315 185.839157,483.171539 
	C183.009308,473.938049 178.861938,464.939484 177.365326,455.510162 
	C175.599182,444.382599 171.608154,433.724884 170.794525,422.501862 
	C170.146851,413.567749 167.497894,405.024567 166.483276,396.192535 
	C165.312103,385.997864 162.992737,375.904755 163.647720,365.543121 
	C163.829697,362.664276 163.432175,359.840027 162.340378,357.227936 
	C161.445923,355.087952 160.584427,352.806824 162.615234,351.340271 
	C164.553589,349.940552 167.047775,350.481812 169.256042,351.640839 
	C177.620789,356.031372 186.706955,357.760315 195.987961,358.596558 
	C197.609009,358.742615 199.659073,359.447754 201.209137,357.116425 
	C194.928574,353.462799 188.062408,352.002533 181.238968,350.431763 
	C180.433121,350.246277 179.400665,350.478241 178.799744,350.054108 
	C169.226669,343.297089 157.623001,342.593506 146.868347,339.520905 
	C127.518578,333.992676 108.895996,326.424072 89.837234,320.099182 
	C89.110252,319.857910 88.494072,319.282776 86.518074,318.041351 
	C106.931252,316.870270 125.932137,318.138794 144.372604,318.957977 
	C145.800629,316.625977 143.714478,315.778595 144.281189,314.044220 
	C161.396805,312.069916 178.604691,316.796783 195.953629,314.385773 
	C187.270340,309.162811 178.488922,304.548615 167.103836,306.604126 
	C168.818726,302.809113 167.291840,299.756470 169.039154,296.825165 
	C170.327362,294.664032 167.886780,293.701324 166.360260,292.836395 
	C148.681580,282.819427 132.652084,270.385590 116.295204,258.456787 
	C110.000587,253.866241 104.403519,248.320023 98.480522,243.218674 
	C96.414970,241.439697 95.847084,239.156677 96.100037,235.397537 
	C114.258446,242.244232 131.467255,250.513275 150.167999,255.259506 
	C137.637604,239.332642 120.789948,228.092651 107.591347,213.057388 
	C94.224129,197.830002 77.586266,185.738770 64.322510,170.326813 
	C51.264149,155.153519 34.831791,143.196579 22.669128,127.172722 
	C24.462425,125.057777 26.031879,125.766960 27.452604,126.619408 
	C48.002090,138.949234 69.954689,148.688385 90.540733,160.970322 
	C114.023361,174.980392 137.475327,189.077255 161.424667,202.256775 
	C176.532547,210.570770 190.130096,221.292648 205.660172,228.839722 
	C211.763535,231.805725 217.771957,234.966949 223.827621,238.031372 
	C225.211838,238.731857 226.620377,238.915710 228.409744,238.140961 
	C227.526398,235.080643 224.596130,234.489655 222.739822,232.815765 
	C211.674454,222.837830 198.749603,215.658035 185.987396,208.204758 
	C178.679810,203.937042 171.516571,199.645752 163.376480,196.831802 
	C158.722137,195.222855 154.252701,191.646042 152.405960,185.396667 
	C157.367111,185.919754 161.593002,186.721725 165.393097,188.493439 
	C169.012146,190.180740 172.028275,189.506866 175.402313,188.130920 
	C183.514206,184.822861 191.330170,180.843719 199.576706,177.812363 
	C202.451355,176.755646 203.792343,177.300247 205.412643,179.413651 
	C208.656418,183.644638 210.772446,188.560577 213.539322,193.067642 
	C216.647293,198.130310 221.023331,201.823730 224.613144,206.303192 
	C226.719986,208.932129 229.908142,209.193253 233.155655,210.314301 
	C233.964554,206.027161 231.299332,203.446976 229.558685,200.692902 
	C223.071533,190.428848 214.502167,181.679184 208.083481,171.344482 
	C202.819794,162.869415 197.737305,154.315063 194.153809,144.957916 
	C193.588318,143.481339 193.584045,142.060532 194.297531,140.061371 
	C206.832291,146.402100 215.150635,157.425034 226.243973,167.415466 
	C208.641342,120.401230 190.902985,75.012428 176.318512,28.442450 
	C183.242310,34.546776 189.174500,41.191971 194.238861,48.495403 
	C214.137451,77.191589 235.410095,104.887825 255.704910,133.294159 
	C259.953461,139.240784 263.149200,145.975510 268.228577,151.271973 
	C282.257233,165.900223 289.460266,184.761673 300.082184,201.488937 
	C309.030060,215.579987 312.826874,231.671768 320.113220,246.344345 
	C323.873291,253.916061 328.619934,261.061890 330.826355,269.375732 
	C331.171204,270.675049 331.548248,271.911285 331.143707,273.655365 
	C326.678253,271.743378 325.029266,267.328613 322.251038,264.129883 
	C306.005768,245.425583 293.071442,224.267914 278.632385,204.235397 
	C265.528534,186.055389 252.212448,168.017319 239.310455,149.686951 
	C238.182648,148.084625 236.611115,146.794617 234.703491,145.595062 
	C236.514191,153.349533 239.556015,160.636337 242.989624,167.765976 
	C246.523209,175.103241 250.232193,182.355850 253.806366,189.673828 
	C257.439972,197.113480 260.858978,204.661484 264.637604,212.025726 
	C268.319824,219.202057 270.899719,226.861298 274.901459,233.917252 
	C278.864258,240.904510 282.594757,248.088821 285.343231,255.669739 
	C284.969666,256.009674 284.596100,256.349579 284.222504,256.689514 
	C271.606812,246.649750 258.991119,236.610001 246.331863,226.535583 
	C244.248566,229.413040 246.125229,231.277817 247.322205,233.143829 
	C254.962311,245.054260 263.211609,256.521332 272.451324,267.255737 
	C274.284302,269.385254 275.936462,271.605682 276.748474,275.986023 
	C242.167374,255.599686 204.838486,244.381393 168.660980,228.308426 
	C169.600494,234.523849 174.494919,236.285034 177.641983,239.184525 
	C192.091705,252.497559 208.751862,262.955261 224.425171,274.696991 
	C237.835968,284.743713 250.869949,295.300476 263.890472,305.853912 
	C265.951294,307.524231 268.897461,307.582367 270.522034,310.004517 
	C269.122955,313.072144 266.784088,311.640656 265.042267,310.980530 
	C253.069580,306.442810 240.601318,303.605560 228.351334,300.022217 
	C226.385895,299.447327 224.522354,299.178680 221.914902,299.738281 
	C226.637848,303.527130 232.084778,305.228058 236.484283,308.642120 
	C244.802963,315.097443 254.566391,319.039551 263.830750,323.854309 
	C266.165070,325.067474 268.693268,324.564941 271.029510,325.620117 
	C274.221802,327.061981 275.788208,328.937714 274.749908,332.432770 
	C244.870193,330.990448 215.305023,333.464447 185.107101,333.515198 
	C186.218231,336.311829 188.030029,336.386169 189.715866,336.831268 
	C210.868561,342.416412 232.276413,346.709839 253.956207,349.648560 
	C260.834778,350.580994 267.661652,351.882538 274.623413,352.236816 
	C275.786713,352.295990 277.908081,351.817505 278.166138,354.089264 
	C278.373474,355.914795 276.792999,356.059906 275.679199,356.705261 
	C267.550476,361.414856 258.344513,363.242157 249.627640,366.351685 
	C243.978516,368.366882 238.529541,370.605835 232.833572,374.239716 
	C255.219437,376.678314 276.907532,368.424774 300.479767,374.187500 
	C274.729309,400.373627 253.649551,429.122742 227.750443,453.827454 
	C232.533875,452.672028 236.826157,450.965454 240.853348,448.089844 
	C260.146362,434.313904 278.580811,419.309509 299.043701,407.202087 
	C299.277161,407.063965 299.680481,407.212952 301.051880,407.276245 
	C296.735291,413.400665 294.259979,419.999359 290.047607,425.700348 
	C302.082550,414.363556 312.580750,401.743134 322.305359,388.276428 
	C314.216644,386.739044 309.641785,394.256531 302.470001,394.568298 
	C301.745911,392.576019 303.214722,392.110352 304.552643,391.440857 
	C308.730682,389.350189 312.567749,386.768219 315.762787,383.313721 
	C316.553650,382.458649 317.831390,381.455109 317.414764,380.388641 
	C315.311218,375.003845 313.189240,369.598511 310.559021,364.464020 
	C309.766876,362.917511 307.399536,362.654144 305.150909,362.851624 
	C298.150757,363.466553 291.113190,363.664734 284.042053,364.582855 
	C286.599091,361.347534 290.054626,359.717957 293.602356,358.830872 
	C298.487671,357.609375 303.008514,355.605194 307.360199,353.298218 
	C312.769043,350.430725 310.257324,345.029510 310.555206,340.647797 
	C310.820343,336.747955 307.245209,337.103027 304.868134,336.450806 
	C300.406128,335.226471 295.857941,334.516296 291.752014,331.994507 
	C288.999146,330.303711 288.030121,328.534454 289.157410,325.308105 
	C296.396149,328.104462 301.365417,335.856171 310.433044,334.945099 
	C312.461456,332.126740 312.410828,328.500214 313.388214,325.221436 
	C314.063446,322.956329 312.162628,321.780121 310.764130,320.825439 
	C297.853241,312.011902 287.409882,300.115204 274.228668,291.626831 
	C272.981445,290.823669 270.777130,289.929504 271.348206,287.454468 
	C273.317017,286.434357 274.468140,288.101532 275.783173,288.862122 
	C284.978546,294.180420 294.072266,299.625610 304.583557,302.196350 
	C306.948456,302.774780 309.415039,303.961548 311.001099,306.491241 
	C312.276917,308.526093 314.530121,310.938080 317.160614,309.132996 
	C319.564972,307.483063 317.634186,304.868622 316.887665,302.795441 
	C310.297150,284.492798 301.718323,267.049286 293.746246,249.342667 
	C293.087219,247.878876 291.930481,246.504883 292.358582,244.347061 
	C295.229156,243.739777 296.278564,246.144150 297.578339,247.787384 
	C309.109650,262.365662 321.262390,276.415558 333.564178,290.340759 
	C335.593323,292.637695 337.330292,291.079956 339.288818,290.117432 
	C342.350769,288.612640 344.956482,286.984375 343.444275,282.959747 
	C341.750580,278.452148 340.329193,273.789124 338.126007,269.537415 
	C333.858612,261.302246 333.000732,252.070587 329.963287,243.491074 
	C329.482269,242.132385 329.196716,239.975281 331.740387,240.114609 
	C335.200714,254.062210 341.245697,266.953217 345.805237,280.355164 
	C346.534546,282.498871 348.157104,283.302032 350.114685,282.554688 
	C352.734039,281.554718 356.570801,281.629456 356.585632,277.504059 
	C356.640808,262.173431 356.526489,246.842285 356.524170,231.511337 
	C356.522736,222.231323 356.608704,212.951309 356.658630,203.671310 
	C356.699493,196.077911 356.407562,195.617828 349.178436,197.382767 
	C343.086426,198.870071 337.141541,200.989838 331.185822,202.991180 
	C328.776550,203.800797 328.082123,205.266495 328.180573,208.283234 
	C328.347321,213.390869 329.481995,218.381577 329.829346,224.748749 
	C325.850189,220.997208 324.268250,216.847504 321.085632,212.912491 
	C319.599457,221.638718 325.000031,228.125732 325.704315,235.523911 
	C299.139282,191.327957 275.693329,146.148666 278.521088,92.224464 
	C281.421539,93.628311 283.072205,96.548027 284.600403,99.304520 
	C291.060486,110.956856 296.393036,123.151581 300.999329,135.637543 
	C302.380554,139.381561 305.103943,142.137527 306.881042,145.549316 
	C308.085968,147.862656 310.353607,147.911270 312.581818,147.420914 
	C326.647308,144.325592 340.635284,140.814423 354.791443,138.218018 
	C363.411682,136.636932 372.047852,134.968689 380.731537,133.779831 
	C389.522461,132.576279 397.680206,136.472183 406.127472,138.041733 
	C417.206268,140.100235 428.168884,142.693741 439.055206,145.621780 
	C443.593994,146.842545 444.911926,145.424515 444.578430,140.656235 
	C443.109619,119.657410 444.450317,99.044884 453.353790,79.529327 
	C454.022034,78.064598 454.289490,76.300575 456.807587,75.302162 
	C457.327972,81.315224 458.160095,87.096573 458.267883,92.891411 
	C458.597260,110.601677 457.547485,128.123428 449.427338,144.411087 
	C448.082916,147.107758 449.060028,148.826660 451.870667,149.689697 
	C454.730896,150.567932 457.545197,151.604767 460.426575,152.402527 
	C463.966675,153.382645 466.574829,152.597870 469.653625,149.864349 
	C474.509827,145.552765 478.629150,140.219147 485.294922,136.361557 
	C485.064240,142.255508 484.270538,147.047684 482.271881,151.555496 
	C480.463959,155.633163 481.078247,157.708801 485.826263,159.125305 
	C503.951355,164.532593 521.993347,170.234818 539.947937,176.184402 
	C543.761902,177.448242 546.168274,176.377808 548.858643,174.154556 
	C555.631592,168.557678 562.488159,163.061508 569.344421,157.566391 
	C570.167053,156.907074 570.808899,155.606384 572.831848,156.531265 
	C568.997253,165.285019 563.056335,172.582123 556.371338,179.026077 
	C546.096252,188.930649 535.184631,198.173553 526.682373,209.774948 
	C525.026184,212.034866 523.736877,213.251419 521.536987,209.948425 
	C519.901672,207.493118 517.245422,205.717758 514.984558,203.583496 
	C512.602173,209.538620 514.291443,212.740646 519.420654,214.961243 
	C524.734985,217.261993 528.318176,215.946915 532.128235,211.966202 
	C546.379028,197.076935 560.175781,181.768463 574.282166,166.752029 
	C588.749634,151.351257 603.898621,136.585938 620.516418,123.438019 
	C621.397217,122.741158 622.368958,122.049057 624.389954,122.695274 
	C621.722046,129.967316 619.369934,137.322220 616.355225,144.394684 
	C610.493042,158.147354 606.159668,172.521500 599.422729,185.908493 
	C597.854248,189.025208 596.088440,192.044876 594.353882,195.075089 
	C592.748596,197.879501 592.813110,200.208633 596.175354,201.508224 
	C602.433594,203.927155 604.070312,209.209366 604.230591,215.058121 
	C604.417725,221.889435 605.640625,228.590836 606.149048,235.360153 
	C606.487427,239.866959 608.241943,240.820877 612.174255,239.604584 
	C613.855652,239.084518 615.592529,238.021439 617.818420,239.664139 
	C615.728333,244.433182 611.009888,246.319336 606.931458,248.093033 
	C593.314880,254.014816 579.268616,258.945770 566.365723,266.467621 
	C563.773743,267.978668 559.083801,267.409271 560.867493,272.257996 
	C570.970642,272.562500 579.138916,267.137756 587.950562,263.646667 
	C590.250549,262.735443 592.582642,261.769531 594.656921,260.447449 
	C604.431458,254.217499 616.135864,252.641037 626.216919,246.977188 
	C636.208923,241.363403 647.001648,237.190079 657.110046,231.764465 
	C669.857544,224.922333 682.886047,218.585373 695.882507,212.335175 
	C716.283630,202.523972 735.686462,190.939209 755.844788,180.747482 
	C759.799072,178.748245 764.103821,177.442032 768.623413,175.908081 
	C769.000000,177.066666 769.000000,178.133347 769.000000,179.600006 
M396.748322,668.286011 
	C401.469940,662.797546 408.314880,659.716125 413.127258,654.494141 
	C412.285309,652.916321 411.110413,652.718323 410.086578,652.187500 
	C407.757599,650.979858 407.754425,648.904663 410.047974,648.205444 
	C416.171082,646.338501 415.470703,641.851990 415.259796,636.913391 
	C409.789459,642.662292 405.966217,643.671570 400.235626,640.989807 
	C401.724487,638.445374 404.481476,636.939453 406.755951,637.049927 
	C410.941132,637.253113 413.147095,631.770081 417.800385,633.842590 
	C418.601410,634.199341 419.790222,632.164185 419.898346,630.810364 
	C420.377808,624.804749 423.995453,620.499878 429.055969,618.803284 
	C433.959930,617.159241 437.068726,613.691711 441.042969,611.223938 
	C449.897766,605.725525 456.010620,597.361511 464.359924,591.360352 
	C474.071808,584.379944 482.279327,575.554932 490.608185,566.817200 
	C498.850739,558.170044 505.881989,548.636658 513.640747,539.683350 
	C519.865967,532.499634 525.203796,524.443542 529.759827,515.926025 
	C534.461365,507.136688 539.454895,498.502502 543.632324,489.443054 
	C550.614380,474.301453 555.644958,458.487030 559.161316,442.222290 
	C561.040466,433.530029 563.907410,425.123688 565.101501,416.200226 
	C567.435913,398.756775 568.838928,381.248535 569.525269,363.712555 
	C570.161804,347.451233 569.670959,331.145050 569.622620,314.858826 
	C569.617920,313.273804 570.172852,311.507172 568.615967,309.984009 
	C565.319397,310.091614 563.457520,311.759003 563.418640,315.177948 
	C563.238159,331.045990 563.024475,346.872192 561.606079,362.736053 
	C560.128784,379.259369 558.984619,395.794006 556.280212,412.175110 
	C553.465027,429.227539 549.325317,445.935913 543.865417,462.357208 
	C537.741272,480.776062 528.240479,497.537506 519.042236,514.449951 
	C515.735596,520.529602 512.117798,526.533020 507.917572,532.016296 
	C494.856628,549.066772 479.739685,564.258301 464.048401,578.864136 
	C454.574829,587.682251 445.273651,596.716187 434.863892,604.474487 
	C420.471619,615.200928 405.008179,624.329956 390.192383,634.424683 
	C387.400940,636.326660 385.016998,636.211243 381.987579,634.330139 
	C372.100586,628.190918 362.930603,621.090820 353.539886,614.263855 
	C335.519745,601.163391 317.831207,587.685120 301.440918,572.560913 
	C290.803375,562.745178 280.317596,552.692810 271.765503,541.027771 
	C255.923874,519.419739 241.559036,496.868256 231.251465,471.957855 
	C230.423447,469.956696 229.011871,466.604126 225.829041,468.492859 
	C223.557465,469.840881 223.033508,472.290100 224.081375,475.371918 
	C226.715820,483.119934 230.675629,490.246735 233.871017,497.722839 
	C239.299011,510.422516 246.043457,522.419556 254.393280,533.480591 
	C263.002258,544.885071 271.935791,555.976624 281.380890,566.742676 
	C291.505676,578.283325 301.980072,589.342773 314.174530,598.563599 
	C329.915100,610.465881 345.507507,622.457947 358.342773,637.842041 
	C344.043976,627.607178 329.343475,618.040527 314.938660,608.584229 
	C313.398376,609.918396 313.148163,610.941650 313.629791,611.539795 
	C328.235046,629.677734 347.194763,642.806946 365.491974,655.724792 
	C365.714478,657.985657 363.799164,658.667664 364.447632,660.585632 
	C370.562225,662.433533 373.679504,668.478760 378.892120,672.060242 
	C386.571442,677.336609 389.055023,677.057861 394.490356,668.834534 
	C395.147919,668.834167 395.805511,668.833862 396.748322,668.286011 
M488.285675,287.809937 
	C510.118713,260.193329 537.906555,238.317825 561.494568,212.266006 
	C535.444214,225.319839 513.273071,243.883545 489.301056,261.375519 
	C491.703033,253.076553 497.773224,248.392792 501.311249,242.009995 
	C478.490051,254.797379 458.085785,270.866089 436.074646,285.227753 
	C443.423492,263.120392 450.257446,241.014267 456.177307,218.648224 
	C442.687012,239.242294 432.789337,261.865875 418.817871,282.112732 
	C419.301239,274.096405 423.142456,266.571716 420.857208,258.318268 
	C417.421356,258.922241 416.866028,261.463989 416.623383,263.295868 
	C416.043823,267.670837 414.095215,271.548645 412.887360,275.678467 
	C411.072327,281.884399 411.462860,282.979431 417.114990,285.848206 
	C425.956696,290.335846 433.594147,296.490082 439.720367,304.193634 
	C442.487000,307.672638 444.648743,307.525085 447.539856,305.248383 
	C450.538910,302.886658 453.245270,300.117981 456.392273,297.989471 
	C459.522125,295.872589 462.457550,292.566528 467.780304,294.482941 
	C463.641296,301.309265 461.070953,308.702789 454.612793,313.668365 
	C452.713745,315.128510 449.826080,316.627869 450.704620,319.496613 
	C452.313660,324.750671 453.122192,330.146393 454.360413,335.460724 
	C454.951813,337.998993 456.410187,338.623596 459.180664,338.196289 
	C468.008392,336.834717 476.851135,335.179199 485.861755,335.995667 
	C487.301208,336.126160 489.677704,334.976929 489.804718,337.623871 
	C489.901733,339.645416 487.717438,340.076782 486.245514,340.596924 
	C481.587219,342.242920 476.802216,343.536407 472.167938,345.242523 
	C468.168396,346.714966 464.308472,348.566040 460.769928,351.801361 
	C463.911896,353.951965 467.356750,353.095337 469.921936,355.623840 
	C466.714203,356.651031 463.940094,355.880066 461.230560,355.766754 
	C458.720825,355.661774 455.447113,353.744385 454.552216,357.531128 
	C453.477722,362.077850 449.904938,367.404785 455.225616,371.246094 
	C458.217438,373.406097 461.311310,375.662170 464.942871,377.151764 
	C468.901276,378.775421 472.895721,380.919434 476.094086,384.307983 
	C474.792419,385.330200 473.787079,385.392944 472.828308,385.097351 
	C464.870483,382.643951 456.718048,383.302246 448.595306,383.548248 
	C443.535828,383.701477 439.911163,388.494324 442.443359,392.089935 
	C446.074249,397.245605 448.516876,403.139282 452.876312,407.864807 
	C455.279816,410.470184 458.292847,413.149078 457.992432,418.113861 
	C450.797729,411.556641 443.987366,405.568268 437.460907,399.285065 
	C435.119568,397.031006 432.913239,396.632904 430.416870,398.247559 
	C427.521851,400.120117 424.055695,401.442322 422.205200,404.514740 
	C420.732391,406.960052 415.904266,406.788116 416.972534,410.919342 
	C417.755890,413.948700 418.920349,416.950836 420.376465,419.722656 
	C427.082275,432.487732 433.985535,445.148956 440.740601,457.888397 
	C443.137421,462.408661 445.395813,466.986847 449.395264,470.378876 
	C443.522858,452.214081 440.951904,433.345825 435.252441,415.054474 
	C447.436615,424.486115 457.346619,436.195404 470.419434,446.253601 
	C469.925934,437.085236 462.015564,431.892822 462.475647,423.236908 
	C471.262939,429.739166 476.555054,439.263214 486.299530,444.015503 
	C478.640228,428.479889 471.239380,412.894989 460.992615,398.832520 
	C462.381134,397.417969 464.026886,396.702545 465.585205,396.897430 
	C476.219543,398.227417 487.005646,398.260101 497.496704,400.852631 
	C509.075317,403.713928 520.715393,406.325775 532.316589,409.096863 
	C534.317993,409.574921 536.180664,410.067596 537.746399,406.532349 
	C515.347473,392.949005 494.418213,377.085510 470.588287,365.317627 
	C494.545624,367.672180 518.508301,368.219574 542.667236,366.182373 
	C524.526245,361.405731 507.303802,354.482178 488.845245,348.500702 
	C503.051483,341.596680 517.763123,339.892029 531.250244,334.516022 
	C525.901123,331.822418 520.358704,332.034637 514.992798,331.522766 
	C509.848419,331.031982 504.502838,332.296021 498.266907,329.464142 
	C535.909973,313.584412 569.946228,294.132965 601.937439,270.962494 
	C585.909363,274.655823 570.870117,281.024139 555.595520,286.605286 
	C540.099548,292.267426 524.485168,297.322998 508.196045,301.679016 
	C508.611237,296.680847 514.483215,298.479980 515.172180,293.614166 
	C498.537262,297.043915 483.965057,304.697266 468.796783,310.792206 
	C473.530701,301.694702 482.038757,296.199219 488.285675,287.809937 
M318.375671,432.880585 
	C317.858185,436.050690 319.373444,439.605499 316.681091,442.845978 
	C313.471222,436.508820 315.024689,430.161469 314.827026,423.875793 
	C302.021576,429.859467 305.088684,442.131927 303.751923,453.596161 
	C298.643127,448.143433 302.312042,442.150085 299.718933,437.570770 
	C294.865387,440.174835 290.680939,448.674988 291.658997,454.734375 
	C294.457184,472.070099 297.419464,489.380707 300.508942,506.666931 
	C301.117676,510.072968 302.056854,513.228455 301.663910,516.890137 
	C301.347809,519.835693 301.738556,523.429565 304.523651,526.544739 
	C305.907288,522.287476 303.406311,518.216125 305.669617,514.540894 
	C306.417328,520.114319 309.638702,524.652710 311.323303,529.759155 
	C314.035126,537.979248 315.078644,546.551147 316.427307,555.067688 
	C317.023163,558.830566 318.011658,562.712708 321.684814,566.099915 
	C322.127655,557.474060 320.866150,549.941345 318.530609,542.485168 
	C317.368927,538.776550 315.393158,534.714355 320.066010,530.914124 
	C323.189301,542.249146 328.476959,552.347900 328.489838,564.098755 
	C328.497009,570.648010 328.914673,577.795776 336.296967,582.064392 
	C337.898712,574.533203 331.888855,568.578979 333.457184,560.218567 
	C335.783966,564.222717 334.995392,568.356750 336.861664,570.432068 
	C339.686676,573.573547 339.378662,576.039001 338.512512,579.628784 
	C337.185028,585.130615 343.790405,592.860901 351.533844,595.705627 
	C354.852417,592.054077 349.376923,586.851318 353.770386,583.226807 
	C355.782593,585.969299 352.789185,589.822021 355.711273,592.474365 
	C357.129608,590.417786 356.615051,588.360413 356.617615,586.431763 
	C356.660553,554.313843 356.654877,522.195801 356.661102,490.077820 
	C356.665802,465.746460 356.577576,441.414368 356.762787,417.084381 
	C356.796844,412.607147 354.868286,411.231293 351.075317,411.126831 
	C349.294800,413.328278 351.228668,416.448029 348.622681,418.275726 
	C347.558624,416.142670 346.883575,414.069550 346.731445,411.706329 
	C346.541107,408.749146 344.716675,406.622223 341.757111,406.391052 
	C338.834717,406.162781 338.748657,408.790253 338.208923,410.910065 
	C335.958038,419.750427 333.623169,428.569672 331.266724,437.382629 
	C330.866608,438.878906 330.731018,440.705017 327.976807,441.123962 
	C327.724915,431.057220 329.228699,421.299347 330.153809,411.488159 
	C324.635742,412.229675 321.821716,414.981354 320.426270,421.208466 
	C319.627777,424.771576 319.097870,428.394836 318.375671,432.880585 
M507.080627,204.319107 
	C507.487915,202.778336 507.078552,200.946152 508.587799,199.830215 
	C514.470703,199.947556 516.667542,198.921310 519.550293,194.754608 
	C522.677612,190.234604 521.987854,187.455994 516.824707,185.670578 
	C510.241730,183.394196 503.579742,181.306091 496.860016,179.473297 
	C479.907776,174.849609 462.927307,170.324341 445.910309,165.945602 
	C438.509705,164.041306 430.991699,162.593338 422.877716,160.794159 
	C424.680695,168.497498 430.111298,173.444977 431.747406,180.180801 
	C427.814301,178.648453 426.675842,174.918579 424.583160,171.914093 
	C421.155670,166.993118 420.158264,159.616913 413.474548,157.873444 
	C404.049530,155.414871 394.555237,152.662445 384.723694,152.427338 
	C366.019470,151.980026 347.911224,156.200378 329.777588,160.056396 
	C318.945892,162.359680 318.985443,162.377090 321.033600,173.205612 
	C321.800079,177.257996 322.364685,181.348572 323.115845,186.008041 
	C320.499603,184.886948 319.421234,183.510468 318.569733,181.832382 
	C316.319489,177.397720 314.077759,172.956329 311.699951,168.589859 
	C310.595154,166.561066 309.307404,164.452057 306.296509,165.753677 
	C305.659637,168.061844 306.332764,170.094467 307.136017,172.109253 
	C308.798523,176.279373 310.537628,180.420746 312.111145,184.624130 
	C314.604248,191.284103 315.076996,191.471848 321.867249,189.967804 
	C340.251495,185.895737 358.437134,180.612854 377.509827,180.577881 
	C378.543976,180.575974 379.870728,180.681702 380.364990,179.241745 
	C377.974121,176.409409 373.390320,176.626480 371.775482,172.783585 
	C370.174530,168.973785 370.281616,165.265808 372.505646,161.832230 
	C375.976898,156.473114 384.418152,154.527222 388.908569,158.049072 
	C391.511017,160.090195 394.564148,162.206940 394.899292,165.738739 
	C395.440765,171.444656 392.260803,175.701385 387.027191,179.676102 
	C395.125824,181.143387 402.027588,182.448029 408.949280,183.636444 
	C422.902252,186.032089 436.725464,188.965942 450.263275,193.164597 
	C453.330322,194.115814 456.420471,195.787109 459.530884,193.192764 
	C460.052185,194.640198 459.622620,196.020493 461.163483,196.491592 
	C477.795837,201.576706 494.420868,206.685776 511.199707,211.834885 
	C512.192444,207.302979 507.441742,207.697830 507.080627,204.319107 
M368.331390,516.331665 
	C368.566467,518.306519 369.121521,520.303650 368.985870,522.252686 
	C367.936584,537.331299 368.586273,552.430176 368.280487,567.515442 
	C368.188904,572.032959 370.402344,576.716675 369.559509,580.708862 
	C367.765289,589.207092 368.535278,597.617432 368.443359,606.048462 
	C368.384430,611.454712 370.151031,616.326416 375.474060,619.199402 
	C378.387238,620.771729 381.032074,622.833679 383.853760,624.584900 
	C387.965881,627.137024 390.344025,625.770447 390.673065,620.977783 
	C391.058533,615.362732 389.415039,609.882690 390.173096,604.129822 
	C390.501984,601.633911 390.964661,597.003601 386.272491,595.452576 
	C384.668915,594.922485 384.084015,592.797058 386.432434,591.682800 
	C388.872955,590.525024 390.516937,588.094849 389.579498,586.088074 
	C386.907990,580.369324 390.360748,575.014221 389.775940,569.441833 
	C389.195618,563.911804 388.212219,558.345703 389.574341,552.664551 
	C390.941833,546.961060 389.745636,542.046326 384.013763,538.775391 
	C381.014862,537.064026 380.293945,533.652222 380.029083,530.058899 
	C381.721375,529.820618 383.173340,529.616150 384.728394,529.397217 
	C385.787964,531.774963 386.561401,534.387146 389.810791,535.071838 
	C390.862061,531.554077 391.651001,528.213867 391.646790,524.709106 
	C391.636475,516.090576 391.572388,507.471283 391.665192,498.853760 
	C391.764923,489.596405 390.638458,480.402405 390.352051,471.184296 
	C390.108337,463.342041 391.330353,455.464264 391.594025,447.591858 
	C391.724243,443.704132 391.375641,439.990112 389.875610,436.014893 
	C388.585815,432.596832 390.494904,427.881073 391.276184,423.793945 
	C392.360809,418.120087 390.322754,416.532166 384.774475,415.684601 
	C379.795471,414.923981 375.318359,419.002838 370.929413,415.813965 
	C369.089600,417.685181 368.683624,419.727020 368.672272,421.338287 
	C368.451263,452.702484 368.410400,484.067993 368.331390,516.331665 
M440.496002,346.752716 
	C440.710938,346.981415 441.006378,347.439240 441.126190,347.397156 
	C441.537201,347.252777 442.185516,346.964478 442.215820,346.675629 
	C442.963928,339.545166 443.387848,332.361908 440.757294,325.530762 
	C432.833099,304.952759 417.249115,292.107788 396.419525,287.751099 
	C368.585754,281.929474 343.249054,291.787994 329.425354,320.161469 
	C324.817383,329.619476 323.245789,339.797424 324.839966,351.126617 
	C326.469788,347.807983 324.326996,344.382477 326.954681,342.131805 
	C328.380737,342.745483 328.099335,343.883362 328.230988,344.801453 
	C330.367859,359.703186 335.904572,372.550842 347.882874,382.628082 
	C359.210754,392.158051 372.212433,396.051239 386.397125,396.274841 
	C391.789581,396.359833 398.493927,395.339600 402.278320,392.105743 
	C406.026978,388.902435 410.174164,385.838013 413.989807,382.809509 
	C427.316742,372.231750 434.857269,359.116516 436.118866,342.165009 
	C436.302246,339.701019 435.638977,336.529419 438.629211,334.325348 
	C441.447540,338.134094 439.888702,342.281921 440.496002,346.752716 
M392.983887,227.594040 
	C392.506531,222.796661 393.442200,218.176056 394.217834,213.454453 
	C395.016449,208.593124 394.623383,203.523682 394.603851,198.545898 
	C394.595093,196.317276 394.056641,193.843933 391.446411,193.548538 
	C386.033783,192.936005 380.574738,192.639359 375.126831,192.472443 
	C372.496246,192.391846 370.940979,193.998611 370.388550,196.678284 
	C367.904938,208.725342 368.829102,220.967819 368.363007,233.117981 
	C367.943939,244.042068 368.518890,255.000900 368.282227,265.936310 
	C368.034241,277.393646 371.698059,280.521332 383.119598,277.941711 
	C383.604004,277.832306 384.094727,277.718994 384.587860,277.684753 
	C390.053802,277.305542 391.793274,274.078796 391.700317,268.984863 
	C391.564423,261.536407 391.459412,254.114716 393.396912,246.739029 
	C394.184662,243.740234 394.890289,239.899307 393.208740,237.117111 
	C391.307037,233.970673 391.175507,231.332153 392.983887,227.594040 
M214.449997,401.851990 
	C213.582153,397.468994 212.935730,393.067871 212.610275,388.596771 
	C212.145950,382.217499 211.360443,375.861816 210.735519,369.493805 
	C210.550568,367.609222 209.838715,366.313385 207.692902,366.333252 
	C205.826035,366.350525 203.851791,366.392548 202.845612,368.219391 
	C201.851257,370.024811 202.203537,372.146088 202.400238,374.098206 
	C204.090958,390.877777 204.700394,407.798615 208.385162,424.326263 
	C210.250687,432.693756 211.474579,441.282990 215.525787,449.025299 
	C216.110794,450.143311 216.472626,451.722137 218.182404,451.620972 
	C220.048584,451.510529 220.269867,449.884491 220.908752,448.517059 
	C222.421036,445.280121 221.970367,442.077271 221.253830,438.795197 
	C218.644272,426.841919 216.348724,414.829376 214.449997,401.851990 
M290.156830,511.709015 
	C290.202606,512.038513 290.242645,512.368896 290.294952,512.697388 
	C292.045105,523.694336 296.553833,533.971252 298.683533,544.885132 
	C299.333771,548.217407 306.088959,552.058899 310.148865,551.968933 
	C309.135406,547.266174 310.465912,542.069214 307.180267,538.308960 
	C304.492371,537.835815 305.168060,541.109497 302.881226,540.942566 
	C302.543793,540.270203 301.959503,539.577454 301.848511,538.815796 
	C299.295258,521.293945 294.116821,504.294830 291.515961,486.774689 
	C290.970032,483.097076 288.871155,479.651215 289.933929,475.727539 
	C283.036346,471.359802 284.206970,463.592865 282.081268,457.205750 
	C281.681244,456.003937 281.779602,453.895660 279.142059,454.735992 
	C279.027893,460.489471 280.120453,466.157135 280.838928,471.847412 
	C282.521545,485.173981 286.751495,497.919983 290.156830,511.709015 
M409.494049,445.473389 
	C408.946014,460.847504 408.629333,476.213135 410.545380,492.516388 
	C415.814423,483.883911 416.393066,447.074677 411.944183,441.791565 
	C410.258270,442.026581 410.177551,443.528564 409.494049,445.473389 
M514.459351,572.834290 
	C513.557068,570.391479 511.499969,569.301880 509.225891,568.680847 
	C505.919464,567.777649 503.404205,569.400024 501.407104,571.791077 
	C499.899780,573.595703 498.750702,575.702881 499.900116,578.165710 
	C500.767914,580.025208 508.193085,583.060242 510.036224,582.138794 
	C513.514771,580.399597 516.056396,577.955139 514.459351,572.834290 
M559.573608,475.720642 
	C561.225952,478.713867 563.456970,479.992004 566.960266,478.715698 
	C570.247925,477.518005 573.087097,476.050262 573.601746,472.166779 
	C574.027527,468.953827 571.883362,467.160309 569.516602,465.933990 
	C564.548035,463.359589 559.741028,467.764496 559.573608,475.720642 
M212.481522,500.072876 
	C211.870438,503.292633 212.523071,506.125092 215.543732,507.781281 
	C220.062759,510.259033 223.170868,506.861664 226.695145,505.226105 
	C225.744415,500.663513 223.858719,497.264954 219.351303,496.445679 
	C216.718536,495.967194 213.921387,496.029694 212.481522,500.072876 
M491.621033,480.863159 
	C490.872589,477.183960 487.782898,475.933350 484.861725,474.879913 
	C482.603546,474.065521 479.601837,473.209747 477.928192,475.573761 
	C476.168884,478.058655 479.309723,479.159821 480.451508,480.791595 
	C480.927917,481.472473 481.326385,482.291504 481.970215,482.757843 
	C485.580017,485.372345 488.940216,488.618927 493.848267,488.619751 
	C494.572723,485.411896 492.297913,483.798584 491.621033,480.863159 
M275.940216,501.083252 
	C272.875153,489.991425 270.550659,478.595978 263.066040,469.295746 
	C265.455475,482.094269 272.546173,493.140411 275.761597,506.079437 
	C277.250977,504.220856 276.201721,503.022217 275.940216,501.083252 
M579.169495,353.311890 
	C584.292603,356.916077 584.292603,356.916077 590.518005,349.007996 
	C587.604492,343.571869 584.572571,341.876343 581.012634,344.185883 
	C577.908691,346.199554 575.786926,348.937164 579.169495,353.311890 
M274.981842,586.829407 
	C277.215363,586.325989 280.147888,587.976196 281.514526,584.806641 
	C282.881104,581.637207 279.778442,576.820435 275.705444,575.288025 
	C271.091248,573.552063 270.695923,577.558960 269.774780,579.917480 
	C268.297974,583.698792 270.722260,585.718933 274.981842,586.829407 
M189.019913,392.395386 
	C191.800140,394.313477 193.763519,393.304077 194.945099,390.518097 
	C196.383789,387.125824 196.163666,383.654846 192.855682,381.686432 
	C190.625793,380.359497 187.865906,379.278412 185.350525,382.455383 
	C181.317169,387.549622 186.182129,389.238647 189.019913,392.395386 
M584.599609,232.284393 
	C586.591980,227.345764 585.777832,224.018738 581.403076,222.525650 
	C577.152039,221.074799 576.531006,225.506119 573.654358,228.080688 
	C578.159546,228.781982 578.901917,235.087036 584.599609,232.284393 
M546.573120,266.206604 
	C543.285034,269.203125 538.361511,270.398041 536.237915,274.950714 
	C541.044678,277.348022 550.398743,271.472870 550.025452,266.722168 
	C549.846497,264.444611 548.365356,265.349762 546.573120,266.206604 
M252.581543,395.839142 
	C253.229370,395.974609 253.901215,396.294769 254.520950,396.214172 
	C257.495911,395.827209 260.028931,394.516266 260.803314,391.467072 
	C261.184418,389.966339 259.828644,388.327179 258.367340,388.148621 
	C255.517700,387.800476 252.649384,388.310120 251.150940,391.249603 
	C250.362732,392.795776 248.279953,394.843414 252.581543,395.839142 
M566.349243,252.585541 
	C570.260742,250.378601 570.730652,247.760498 567.162964,244.060211 
	C565.305420,246.949280 564.961365,249.535004 566.349243,252.585541 
M566.873291,261.394165 
	C570.767822,257.857605 564.996948,258.744629 565.005249,256.966553 
	C563.518433,259.151306 561.388062,261.509552 566.873291,261.394165 
M385.117554,164.382782 
	C382.907654,161.781784 382.907654,161.781784 380.460114,164.952820 
	C380.967102,165.764740 381.821655,165.895157 382.608948,165.766602 
	C383.376495,165.641266 384.093414,165.205826 385.117554,164.382782 
z"/>
<path fill="#000000" opacity="1.000000" stroke="none" 
	d="
M609.393860,676.418457 
	C606.331421,675.931152 603.713928,676.529053 601.263245,677.346069 
	C595.641418,679.220398 591.058655,674.996155 585.592102,675.065430 
	C579.904602,675.137573 573.384521,674.608093 568.701965,671.844788 
	C563.259460,668.632996 559.501831,671.905701 555.025208,672.381958 
	C554.315979,672.457397 553.441589,672.938049 553.155823,674.802795 
	C566.083679,680.784058 581.049744,682.226562 593.564819,690.108948 
	C568.207214,693.157349 544.022278,685.015442 518.121521,682.136780 
	C520.919067,685.644897 524.529175,684.479431 526.523193,687.114868 
	C525.435852,689.600159 523.568359,690.702759 520.741455,690.132751 
	C511.642120,688.298096 502.954895,685.136108 494.357452,681.739258 
	C492.569641,681.032959 491.097961,680.668579 489.149841,681.274048 
	C479.585510,684.246521 471.098450,680.146118 461.821320,677.546387 
	C463.426239,674.144287 464.270844,671.482849 463.831909,668.352478 
	C463.238953,664.123352 466.975098,663.091370 469.939423,662.512512 
	C475.638031,661.399536 481.072357,659.580444 486.433319,657.484314 
	C492.639709,655.057556 499.181061,654.186951 506.229523,653.249207 
	C503.305939,648.576538 499.559875,646.115051 494.123230,645.155396 
	C505.165436,637.665161 515.369812,629.359009 526.455933,621.513550 
	C521.992004,617.832275 523.195068,615.907898 527.264832,612.511780 
	C539.023193,602.699646 553.217163,597.144287 565.860229,588.953979 
	C568.622559,587.164551 571.841492,585.986145 573.668152,582.293213 
	C564.749023,583.955017 557.276672,589.403809 547.792358,590.661743 
	C549.595886,584.057922 553.823486,580.785034 558.401672,578.392822 
	C572.181580,571.191833 584.177429,561.367798 596.858826,552.588196 
	C608.882263,544.264160 620.827148,535.862000 633.576477,528.694458 
	C636.279724,527.174683 638.439514,524.621216 641.663330,524.061768 
	C642.947571,525.390015 641.950378,526.269348 641.219604,527.107666 
	C630.718506,539.153503 621.136963,551.885315 611.964539,564.977844 
	C603.991821,576.357849 594.792664,586.891052 587.030334,598.401855 
	C581.034790,607.292969 578.006165,617.909424 572.393982,627.131226 
	C569.125854,632.501404 560.243408,636.285034 554.139526,635.056580 
	C552.080139,634.642090 549.083313,633.653076 548.371521,636.983521 
	C546.650513,645.035461 539.966797,645.776306 533.772095,647.390625 
	C529.436646,648.520447 524.766785,648.473633 519.675476,651.037354 
	C533.812256,657.559265 547.360901,657.127563 560.814148,654.096680 
	C557.980347,651.793823 553.660828,651.867004 550.176575,649.519775 
	C551.575684,646.632690 553.092712,644.020142 554.086243,641.080750 
	C555.439819,637.076172 560.056946,637.801941 562.161560,639.301453 
	C565.580383,641.737244 569.005981,641.368164 572.564453,641.630676 
	C574.057190,641.740845 575.619934,641.560974 577.035645,641.941589 
	C583.458130,643.667908 585.239624,642.150085 584.409607,635.452026 
	C601.616272,629.501709 648.588989,622.023193 653.924683,624.694824 
	C647.011902,628.778687 640.210632,632.526184 633.689209,636.709839 
	C622.607117,643.819458 611.103333,650.037842 598.805176,654.786743 
	C595.875793,655.917969 594.115051,658.341553 592.880676,662.227295 
	C606.931274,665.079956 620.967468,667.788940 634.241455,673.697754 
	C629.627441,678.544495 620.358643,679.456238 609.393860,676.418457 
z"/>
<path fill="#000000" opacity="1.000000" stroke="none" 
	d="
M249.123642,697.362793 
	C231.174194,703.642456 213.090729,707.071106 194.441101,707.951721 
	C209.256683,697.419678 227.601974,695.026794 242.787460,685.180237 
	C239.971558,684.903198 236.646454,684.515259 234.744186,686.035461 
	C228.676422,690.884521 223.694733,686.748535 218.681610,684.577637 
	C215.696411,683.284973 212.791458,682.330200 211.235382,685.239258 
	C208.253616,690.813477 202.907715,690.581909 198.168671,691.271179 
	C187.630417,692.804138 177.287033,689.424377 166.770569,689.303894 
	C153.191116,689.148376 139.817291,687.342834 126.497101,683.577209 
	C127.452858,680.404236 130.541992,680.178772 132.790314,679.875061 
	C146.757248,677.988403 160.347672,674.207214 174.222885,671.931946 
	C179.579407,671.053528 185.250092,672.313538 190.358627,669.565186 
	C191.612320,668.890625 193.582123,668.949707 193.527740,666.951782 
	C193.473480,664.958496 191.416443,665.210388 190.226898,664.460022 
	C185.796127,661.665161 179.249176,662.492920 176.598373,656.630493 
	C177.538193,654.623962 179.943466,656.451050 181.206757,654.380920 
	C179.260925,653.837158 177.508453,653.327209 176.930634,650.803772 
	C176.335022,648.202637 173.367401,647.005859 171.059204,646.678955 
	C156.655884,644.639221 146.166885,635.252197 134.740219,627.680664 
	C121.165344,618.685669 107.195625,610.356689 93.086777,602.248047 
	C91.506729,601.340027 89.844879,600.620178 89.240303,598.629272 
	C91.432915,596.689209 93.453728,598.324707 95.418449,598.612366 
	C116.931900,601.762390 137.996140,606.757385 158.910263,612.774902 
	C174.840561,617.358398 190.893997,621.527710 206.692154,626.585388 
	C209.057632,627.342712 211.501892,627.922180 213.765503,628.913269 
	C216.990433,630.325378 219.815628,630.651184 223.104309,628.628174 
	C226.477249,626.553345 234.805557,629.366028 239.620773,633.777710 
	C237.315948,634.605713 235.368149,634.329041 233.295731,633.796509 
	C231.430313,633.317139 229.674911,632.012634 227.344421,632.751160 
	C231.462540,637.402039 237.688843,636.828735 242.493912,639.449951 
	C245.920471,641.319092 250.100906,641.816406 250.347061,647.414978 
	C250.457306,649.922485 253.205093,652.538818 256.703247,652.338135 
	C258.045746,650.408875 255.627045,649.064148 256.457214,647.322876 
	C261.485382,642.798523 268.414703,646.274292 273.953827,643.298401 
	C278.733582,648.594421 285.580933,650.179932 291.555817,653.252136 
	C298.661224,656.905701 304.202454,662.145081 309.046112,668.296997 
	C310.434998,670.061096 310.479370,672.192078 310.819366,674.477356 
	C303.292297,675.046204 296.365417,673.774292 289.900909,672.149658 
	C288.400635,673.765259 289.232971,674.930969 289.324219,676.009705 
	C289.586182,679.107666 288.625641,680.334839 285.189667,680.524170 
	C278.755554,680.878784 272.820618,683.634705 266.635162,684.978333 
	C266.262878,688.249878 268.357513,689.454834 270.340057,691.346863 
	C262.334412,690.237976 256.513428,695.684448 249.123642,697.362793 
M257.639618,656.084534 
	C250.042252,653.715820 243.585022,647.333252 234.586731,649.948669 
	C240.207977,654.029663 246.115189,657.793274 253.232269,659.137695 
	C255.385712,659.544434 257.962585,660.236633 257.639618,656.084534 
M220.734497,666.547791 
	C223.422882,666.501282 226.199966,668.370178 229.322388,666.191895 
	C226.132584,663.698181 223.434357,663.949829 220.734497,666.547791 
z"/>
<path fill="#000000" opacity="1.000000" stroke="none" 
	d="
M156.575165,542.314819 
	C154.239258,538.490417 152.103195,534.969421 149.742142,531.077637 
	C153.278351,530.254456 155.476837,532.163696 157.659164,533.665344 
	C174.067474,544.955566 189.688217,557.299377 205.493591,569.402344 
	C215.122879,576.775879 224.162430,584.772278 233.282471,592.732422 
	C237.428925,596.351501 241.681290,600.055237 246.027618,603.545288 
	C247.088379,604.397095 248.192947,605.077087 247.662933,606.986267 
	C242.846130,606.964111 238.459671,602.345825 233.197052,605.707642 
	C233.708725,608.274475 235.434479,609.643738 237.719940,610.944092 
	C246.646729,616.023071 255.022919,621.931335 263.016724,628.387634 
	C264.681305,629.732056 265.782196,631.182983 265.453125,633.502625 
	C264.979065,633.633240 264.401611,634.007385 264.062256,633.854126 
	C256.313202,630.356140 247.958237,628.910095 239.853409,626.619080 
	C235.024765,625.254089 229.585754,625.015198 225.325348,623.218384 
	C217.094482,619.747192 208.415421,617.786011 200.186066,614.368042 
	C190.595688,610.384644 185.598495,602.208618 179.425552,594.978699 
	C178.984467,594.462158 179.173233,593.407776 179.035202,592.341553 
	C182.849686,591.708923 185.816391,593.400635 188.803406,595.042236 
	C190.242050,595.832886 191.844452,597.091553 193.236130,595.288025 
	C194.429184,593.741943 192.961639,592.524841 192.090454,591.355164 
	C183.176697,579.387268 174.199203,567.466370 165.364380,555.440552 
	C162.321426,551.298523 159.628082,546.899719 156.575165,542.314819 
z"/>
<path fill="#000000" opacity="1.000000" stroke="none" 
	d="
M560.358154,102.213226 
	C553.803589,111.007591 547.236755,119.353302 541.102722,128.005859 
	C538.637451,131.483337 535.230835,133.362473 531.763550,135.114807 
	C525.350525,138.355957 519.350037,142.595276 511.148285,144.663315 
	C513.650452,136.100739 515.706726,128.372879 517.289429,120.536430 
	C517.877869,117.622795 518.729187,114.707748 519.889587,111.975494 
	C522.290039,106.323334 526.140076,102.277084 532.727539,101.763588 
	C542.276611,101.019218 551.606934,98.493187 561.270508,98.229935 
	C561.909790,99.640518 561.075500,100.737404 560.358154,102.213226 
z"/>
<path fill="#000000" opacity="1.000000" stroke="none" 
	d="
M310.712891,688.558838 
	C319.328217,683.767822 325.101440,680.962341 335.955872,688.034302 
	C335.014709,693.427368 331.030853,696.332031 326.403290,697.648743 
	C316.220093,700.546082 305.853790,702.807251 295.535950,705.215576 
	C294.161346,705.536499 292.544220,705.615540 290.650970,703.666626 
	C296.301086,697.439758 303.742249,693.573364 310.712891,688.558838 
z"/>
<path fill="#000000" opacity="1.000000" stroke="none" 
	d="
M683.040039,177.705902 
	C690.377197,176.335541 697.308350,175.050491 705.628845,173.507843 
	C700.626343,180.471634 695.999634,185.911636 690.009888,190.023529 
	C685.928345,192.825409 681.801758,195.641678 676.396362,195.389786 
	C673.351929,195.247910 670.341125,194.622101 669.358154,191.734848 
	C668.487366,189.177170 669.312378,186.250916 671.019653,183.826904 
	C673.859497,179.795013 678.308594,178.927383 683.040039,177.705902 
z"/>
<path fill="#000000" opacity="1.000000" stroke="none" 
	d="
M441.426361,685.777161 
	C451.015289,683.105286 467.492188,686.831238 470.449402,697.614258 
	C465.895508,702.441345 459.773682,702.526306 454.414825,700.721680 
	C446.853790,698.175598 439.153412,695.415527 432.703247,690.327026 
	C433.868164,685.737244 437.747009,686.362122 441.426361,685.777161 
z"/>
<path fill="#000000" opacity="1.000000" stroke="none" 
	d="
M167.309891,169.695190 
	C161.524246,163.333862 156.329498,156.993607 152.286774,148.126633 
	C167.160767,154.514603 181.720871,159.057831 183.789627,177.169632 
	C177.645416,177.632019 171.968033,175.355118 167.309891,169.695190 
z"/>
<path fill="#000000" opacity="1.000000" stroke="none" 
	d="
M150.128326,582.390625 
	C150.551392,583.714600 150.910034,584.651306 151.119354,585.620300 
	C151.679626,588.213745 151.101532,590.896973 149.429276,592.605286 
	C147.626465,594.447021 145.427444,592.472473 143.488541,591.687317 
	C137.194824,589.138428 131.802933,585.529358 128.358658,579.406311 
	C125.565010,574.440063 126.892624,572.006531 132.386917,571.593811 
	C140.801636,570.961609 146.274002,574.917419 150.128326,582.390625 
z"/>
<path fill="#000000" opacity="1.000000" stroke="none" 
	d="
M136.189819,114.899986 
	C138.683167,117.741730 139.780426,120.880913 140.613571,124.082985 
	C141.384979,127.047745 140.149765,129.197693 136.975800,129.044113 
	C128.949570,128.655746 115.013741,114.923515 118.359718,105.308151 
	C124.666718,107.624146 131.951859,107.764168 136.189819,114.899986 
z"/>
<path fill="#000000" opacity="1.000000" stroke="none" 
	d="
M126.708893,370.687164 
	C130.191162,371.107391 132.864334,372.381439 134.917465,374.651611 
	C137.736343,377.768494 140.329147,381.257660 138.863312,385.703613 
	C138.005325,388.305969 129.626511,389.629791 126.007561,387.960052 
	C121.564041,385.909882 118.918167,381.998962 117.083443,377.739563 
	C116.000679,375.225891 117.363312,372.903107 119.988861,371.717407 
	C121.980339,370.818115 124.100464,370.509857 126.708893,370.687164 
z"/>
<path fill="#000000" opacity="1.000000" stroke="none" 
	d="
M514.752625,701.149170 
	C518.315002,702.196167 523.088806,701.790405 522.911560,706.435608 
	C522.714417,711.602783 517.894714,711.148376 514.179016,711.352905 
	C506.319519,711.785645 499.165314,709.596619 492.707672,705.164612 
	C491.104614,704.064453 489.377625,702.886353 489.512085,700.511841 
	C490.584045,699.330933 492.024872,699.515137 493.218323,699.777100 
	C497.065643,700.621582 500.412659,702.912170 504.599945,699.059509 
	C506.860138,696.979919 511.162262,699.691895 514.752625,701.149170 
z"/>
<path fill="#000000" opacity="1.000000" stroke="none" 
	d="
M113.568512,276.357178 
	C114.069351,276.860229 114.343987,277.069336 114.526756,277.340363 
	C116.438560,280.175385 119.336533,283.122345 117.018929,286.652008 
	C114.329430,290.748077 110.555397,288.291229 107.160751,287.209686 
	C102.572083,285.747681 98.809273,283.302124 96.571175,278.845734 
	C94.671295,275.062836 96.399574,272.060120 100.627846,272.216492 
	C105.163605,272.384247 109.448944,273.580566 113.568512,276.357178 
z"/>
<path fill="#000000" opacity="1.000000" stroke="none" 
	d="
M649.135193,343.699036 
	C653.449158,344.041992 657.929565,344.646179 658.896912,348.807831 
	C659.851440,352.914581 655.216919,354.238708 652.437134,356.011322 
	C650.305908,357.370422 648.227234,359.486206 645.328125,359.031738 
	C642.703308,358.620300 640.671265,357.231232 640.003662,354.470886 
	C639.025391,350.425629 641.671143,347.940613 644.175354,345.551239 
	C645.353943,344.426666 646.996704,343.814331 649.135193,343.699036 
z"/>
<path fill="#000000" opacity="1.000000" stroke="none" 
	d="
M630.536133,213.519119 
	C628.026733,216.654251 625.131531,217.803741 621.509155,217.357773 
	C619.639709,217.127609 617.693848,217.001373 616.997681,214.958893 
	C616.281738,212.858353 617.170837,210.977051 618.824158,209.656860 
	C621.959961,207.152908 625.579834,205.443924 629.278625,203.967377 
	C630.642700,203.422867 632.365601,203.244034 633.539490,204.377579 
	C634.807495,205.602051 634.239197,207.157715 633.512146,208.512238 
	C632.654236,210.110519 631.706421,211.660522 630.536133,213.519119 
z"/>
<path fill="#000000" opacity="1.000000" stroke="none" 
	d="
M253.571259,75.289093 
	C250.034332,68.387787 246.821365,61.730900 246.015076,54.073738 
	C251.568039,55.452232 259.333038,72.781746 257.287140,78.725624 
	C255.300568,78.576195 255.294296,76.241577 253.571259,75.289093 
z"/>
<path fill="#000000" opacity="1.000000" stroke="none" 
	d="
M609.977173,603.200439 
	C612.052551,601.047424 612.945801,598.352539 615.453186,597.004822 
	C617.125183,596.106140 618.763367,594.924194 620.382019,596.639526 
	C621.811829,598.154724 621.393005,599.886230 620.363281,601.663879 
	C617.858032,605.988586 614.168640,607.764648 609.355103,607.486816 
	C608.493469,605.914673 609.694336,604.797852 609.977173,603.200439 
z"/>
<path fill="#000000" opacity="1.000000" stroke="none" 
	d="
M633.663086,475.788513 
	C634.987854,470.376709 637.872986,468.229004 643.292725,468.453308 
	C643.739258,472.307220 642.801270,475.502716 639.154724,477.443390 
	C637.078613,478.548340 635.036011,478.740417 633.663086,475.788513 
z"/>
<path fill="#000000" opacity="1.000000" stroke="none" 
	d="
M501.008789,79.494812 
	C500.765381,81.444405 500.625366,83.135788 499.978973,84.604240 
	C499.021210,86.780022 497.783112,90.168732 494.941650,88.412384 
	C492.446045,86.869804 492.990204,83.068893 494.506775,80.770569 
	C495.744598,78.894661 497.633575,75.073990 501.008789,79.494812 
z"/>
<path fill="#000000" opacity="1.000000" stroke="none" 
	d="
M623.996948,428.037842 
	C620.483948,430.141235 619.769348,426.993805 618.467651,425.455658 
	C617.437378,424.238373 618.383423,422.848022 619.447754,422.050537 
	C622.073120,420.083649 624.828430,420.292938 627.719055,421.574921 
	C627.342529,424.431335 625.884094,426.161804 623.996948,428.037842 
z"/>
<path fill="#000000" opacity="1.000000" stroke="none" 
	d="
M412.673004,99.745056 
	C412.714630,97.481003 412.732513,95.651550 412.847107,93.828194 
	C412.873444,93.409599 413.232239,93.011925 413.774078,91.939438 
	C417.080017,95.958267 416.879364,100.220291 417.167755,104.751030 
	C413.570465,104.631447 412.783813,102.718750 412.673004,99.745056 
z"/>
<path fill="#000000" opacity="1.000000" stroke="none" 
	d="
M653.473877,679.230225 
	C650.407959,679.302368 647.879150,678.988281 646.064331,676.640320 
	C648.643494,674.612061 654.026550,675.297668 655.233459,677.812134 
	C655.769043,678.927979 654.661621,679.059509 653.473877,679.230225 
z"/>
<path fill="#000000" opacity="1.000000" stroke="none" 
	d="
M571.605103,548.733643 
	C573.538574,546.368835 575.931152,547.299377 576.834717,549.139954 
	C577.867676,551.244141 576.126770,552.741760 573.838135,552.998962 
	C572.252686,552.036560 572.959351,550.066406 571.605103,548.733643 
z"/>
<path fill="#000000" opacity="1.000000" stroke="none" 
	d="
M450.160858,674.755005 
	C452.045288,674.821411 453.425842,675.283264 452.916412,677.062317 
	C452.462128,678.648682 450.797668,679.039185 449.323425,679.322876 
	C448.055450,679.566711 447.463196,678.559265 447.242706,677.630249 
	C446.771820,675.646362 448.123047,675.021301 450.160858,674.755005 
z"/>
<path fill="#000000" opacity="1.000000" stroke="none" 
	d="
M393.997070,668.823486 
	C388.061798,670.999084 382.945679,671.268494 377.870056,667.434204 
	C372.829376,663.626465 370.324829,657.844360 371.846863,651.744873 
	C372.916565,647.458252 379.212708,642.223816 383.882111,641.739136 
	C389.194916,641.187561 395.596649,644.964539 398.258484,649.757874 
	C401.550446,655.685974 399.235901,660.902161 396.649872,666.138855 
	C396.281647,666.884399 395.659454,667.447693 396.288391,668.589966 
	C395.805511,668.833862 395.147919,668.834167 393.997070,668.823486 
M390.123413,650.990662 
	C385.904480,646.866333 383.384003,647.220886 380.923157,652.322510 
	C382.124603,653.109802 383.318878,653.919495 384.539642,654.687134 
	C388.296234,657.049377 389.805481,656.248596 390.123413,650.990662 
z"/>
<path fill="#000000" opacity="1.000000" stroke="none" 
	d="
M313.947937,459.543884 
	C312.907257,456.145813 313.511963,453.399750 315.755737,450.931305 
	C317.907349,455.116577 317.193573,459.354492 316.745575,464.022308 
	C314.310699,463.169098 315.131165,460.925598 313.947937,459.543884 
z"/>
<path fill="#000000" opacity="1.000000" stroke="none" 
	d="
M321.807098,483.599243 
	C322.028687,482.253326 322.121185,481.232025 323.197144,480.756866 
	C325.557922,484.512482 325.844757,487.862091 324.090363,492.813538 
	C321.692261,490.137604 321.664124,487.078857 321.807098,483.599243 
z"/>
<path fill="#000000" opacity="1.000000" stroke="none" 
	d="
M472.808228,189.234741 
	C475.631714,182.902069 480.062805,179.996338 485.014282,180.870865 
	C489.724060,181.702698 492.863861,184.946075 493.307953,189.438141 
	C493.913025,195.558273 492.122955,199.289948 487.801910,200.916092 
	C483.363922,202.586243 478.259491,200.746613 475.294220,196.478943 
	C473.850311,194.400864 472.899017,192.173309 472.808228,189.234741 
z"/>
<path fill="#000000" opacity="1.000000" stroke="none" 
	d="
M378.281006,606.150635 
	C382.189514,606.663879 382.899048,608.769409 381.765320,612.423218 
	C380.624329,610.768127 379.446899,609.582275 377.864227,608.782288 
	C376.731384,608.209717 375.651672,606.906982 378.281006,606.150635 
z"/>
<path fill="#000000" opacity="1.000000" stroke="none" 
	d="
M427.353699,320.869843 
	C436.384003,339.049347 434.097778,356.537567 421.944305,371.132629 
	C408.876312,386.825928 392.764038,393.543182 371.214813,387.980835 
	C355.122070,383.826904 342.888123,374.411652 336.607269,358.960236 
	C330.826752,344.739807 331.345459,329.946960 340.157715,317.103882 
	C351.803497,300.131256 369.389099,292.833191 389.266205,295.144836 
	C402.910614,296.731659 415.479004,303.408600 423.759186,315.658997 
	C424.871552,317.304749 426.046326,318.908295 427.353699,320.869843 
M409.654236,322.289337 
	C414.426971,318.354126 414.726288,316.746826 411.497223,313.049469 
	C404.810425,305.392883 396.750671,300.284760 386.385681,299.441498 
	C378.091705,298.766693 370.495209,300.651184 364.077515,306.100464 
	C360.361816,309.255432 360.716003,312.562073 365.026215,314.632355 
	C366.694580,315.433685 367.562866,316.331818 367.264465,317.919983 
	C366.649017,321.195740 368.848602,321.450928 372.178650,321.357452 
	C368.659454,324.850861 369.040588,327.594604 370.373566,331.285522 
	C371.759979,335.124329 375.372772,335.706329 377.600159,338.005554 
	C381.105988,341.624542 391.912659,338.674225 394.404846,334.599854 
	C396.648773,335.867340 399.195709,335.596802 401.630157,336.000580 
	C403.311188,336.279388 405.022461,335.011963 404.854706,334.492371 
	C403.202606,329.374512 408.770294,327.054474 409.654236,322.289337 
M347.518433,332.285736 
	C344.057861,332.059845 341.332336,333.237823 341.623993,337.074646 
	C341.848358,340.026215 343.983887,342.510315 347.121704,342.391113 
	C350.627747,342.257965 352.497711,339.899017 352.920868,336.197601 
	C353.375336,332.222473 350.849457,332.386719 347.518433,332.285736 
M386.871979,373.615967 
	C387.185394,373.043243 387.502380,372.472443 387.811554,371.897491 
	C388.967316,369.747955 388.417877,367.936310 386.334045,366.916901 
	C384.019104,365.784485 381.494507,364.287628 378.958099,366.316010 
	C376.669434,368.146362 376.996826,370.840027 377.661072,373.183136 
	C378.476685,376.060333 380.841583,375.359985 382.978851,374.790161 
	C384.076996,374.497375 385.204773,374.315735 386.871979,373.615967 
M423.614471,345.163239 
	C425.848511,342.269287 424.418640,339.964569 422.444244,337.721863 
	C421.183441,336.289703 419.536285,335.897766 417.982513,336.715820 
	C415.437897,338.055511 414.915527,340.684174 415.434021,343.143127 
	C416.457733,347.998199 419.776215,347.021729 423.614471,345.163239 
z"/>
</svg>